<svg width="150" height="150" viewBox="0 0 150 150" fill="none" xmlns="http://www.w3.org/2000/svg">
<path d="M143.71 54.3871C144.976 54.3871 146 53.361 146 52.0968V15.4516C146 14.1874 144.976 13.1613 143.71 13.1613H141.419V6.29032C141.419 5.02606 140.396 4 139.129 4H10.871C9.60442 4 8.58065 5.02606 8.58065 6.29032V13.1613H6.29032C5.02377 13.1613 4 14.1874 4 15.4516V52.0968C4 53.361 5.02377 54.3871 6.29032 54.3871H8.58065V132.258H6.29032C5.02377 132.258 4 133.284 4 134.548V143.71C4 144.974 5.02377 146 6.29032 146H143.71C144.976 146 146 144.974 146 143.71V134.548C146 133.284 144.976 132.258 143.71 132.258H141.419V54.3871H143.71ZM13.1613 8.58065H136.839V13.1613H13.1613V8.58065ZM8.58065 17.7419H141.419V49.8065H8.58065V17.7419ZM136.839 77.2903H109.355V63.5484H136.839V77.2903ZM104.774 77.2903H77.2903V63.5484H104.774V77.2903ZM72.7097 77.2903H45.2258V63.5484H72.7097V77.2903ZM40.6452 77.2903H13.1613V63.5484H40.6452V77.2903ZM141.419 141.419H8.58065V136.839H141.419V141.419ZM81.871 132.258H77.2903V97.9032C77.2903 96.639 76.2665 95.6129 75 95.6129H29.1935C27.927 95.6129 26.9032 96.639 26.9032 97.9032V132.258H22.3226V91.0323H81.871V132.258ZM31.4839 132.258V100.194H49.8065V132.258H31.4839ZM54.3871 100.194H72.7097V132.258H54.3871V100.194ZM127.677 132.258H100.194V91.0323H127.677V132.258ZM132.258 132.258V88.7419C132.258 87.4777 131.234 86.4516 129.968 86.4516H97.9032C96.6367 86.4516 95.6129 87.4777 95.6129 88.7419V132.258H86.4516V88.7419C86.4516 87.4777 85.4278 86.4516 84.1613 86.4516H20.0323C18.7657 86.4516 17.7419 87.4777 17.7419 88.7419V132.258H13.1613V81.871H136.839V132.258H132.258ZM136.839 58.9677H13.1613V54.3871H136.839V58.9677Z" fill="white"/>
<path d="M45.2258 22.3226H36.0645C34.7979 22.3226 33.7742 23.3486 33.7742 24.6129V42.9355C33.7742 44.1997 34.7979 45.2258 36.0645 45.2258H45.2258C49.014 45.2258 52.0968 42.143 52.0968 38.3548C52.0968 36.5959 51.4326 34.9903 50.3424 33.7742C51.4326 32.558 52.0968 30.9525 52.0968 29.1935C52.0968 25.4053 49.014 22.3226 45.2258 22.3226ZM45.2258 40.6452H38.3548V36.0645H45.2258C46.49 36.0645 47.5161 37.0929 47.5161 38.3548C47.5161 39.6168 46.49 40.6452 45.2258 40.6452ZM45.2258 31.4839H38.3548V26.9032H45.2258C46.49 26.9032 47.5161 27.9316 47.5161 29.1935C47.5161 30.4555 46.49 31.4839 45.2258 31.4839Z" fill="white"/>
<path d="M65.8388 22.3226C60.7863 22.3226 56.6775 26.4314 56.6775 31.4839V45.2258H61.2581V38.3548H70.4194V45.2258H75.0001V31.4839C75.0001 26.4314 70.8912 22.3226 65.8388 22.3226ZM61.2581 33.7742V31.4839C61.2581 28.9576 63.3126 26.9032 65.8388 26.9032C68.365 26.9032 70.4194 28.9576 70.4194 31.4839V33.7742H61.2581Z" fill="white"/>
<path d="M93.3226 36.0645L83.7033 23.2387C83.1124 22.4509 82.0863 22.1279 81.1473 22.4394C80.2105 22.7532 79.5807 23.6258 79.5807 24.6129V45.2258H84.1613V31.4839L93.7807 44.3097C94.2204 44.896 94.9052 45.2258 95.6129 45.2258C95.8534 45.2258 96.0985 45.1869 96.3367 45.109C97.2734 44.7953 97.9033 43.9226 97.9033 42.9355V22.3226H93.3226V36.0645Z" fill="white"/>
<path d="M116.226 22.3226H111.645C111.645 25.5702 109.893 28.4881 107.065 30.041V22.3226H102.484V45.2258H107.065V37.5074C109.893 39.0602 111.645 41.9781 111.645 45.2258H116.226C116.226 40.4734 113.75 36.1928 109.73 33.7742C113.75 31.3556 116.226 27.075 116.226 22.3226Z" fill="white"/>
<path d="M107.064 113.935H120.806C122.073 113.935 123.097 112.909 123.097 111.645V97.9032C123.097 96.639 122.073 95.6129 120.806 95.6129H107.064C105.798 95.6129 104.774 96.639 104.774 97.9032V111.645C104.774 112.909 105.798 113.935 107.064 113.935ZM109.355 100.194H118.516V109.355H109.355V100.194Z" fill="white"/>
</svg>
