<svg width="146" height="152" viewBox="0 0 146 152" fill="none" xmlns="http://www.w3.org/2000/svg">
<path d="M76.5754 17.505C76.8269 17.6134 77.0784 17.7217 77.3375 17.8333C78.1613 18.1892 78.9827 18.5505 79.8041 18.9117C80.3829 19.1627 80.9618 19.4133 81.5409 19.6635C82.7191 20.1729 83.8964 20.6841 85.0731 21.1968C87.2278 22.1343 89.3906 23.0522 91.5546 23.968C92.6616 24.4368 93.7678 24.9073 94.8742 25.3776C95.0974 25.4725 95.3207 25.5674 95.5507 25.6651C97.3018 26.4093 99.0526 27.1542 100.803 27.8992C101.071 28.0131 101.339 28.127 101.614 28.2443C102.971 28.8215 104.327 29.3988 105.683 29.9763C108.068 30.9918 110.453 32.0064 112.84 33.0153C113.842 33.4386 114.843 33.8625 115.845 34.2864C116.311 34.4835 116.778 34.6803 117.244 34.8768C118.625 35.4586 120.004 36.0465 121.377 36.6482C121.665 36.7744 121.954 36.9006 122.251 37.0306C122.495 37.1437 122.739 37.2568 122.99 37.3733C123.19 37.4654 123.39 37.5575 123.596 37.6524C124.321 38.166 124.571 38.5467 124.92 39.3742C125.035 40.3179 125.029 41.2529 125.02 42.2025C125.02 42.4757 125.02 42.7489 125.02 43.0303C125.019 43.6068 125.017 44.1833 125.012 44.7598C125.006 45.6411 125.007 46.5221 125.008 47.4033C125.007 47.9642 125.005 48.525 125.002 49.0858C125.003 49.3488 125.003 49.6118 125.003 49.8828C124.978 52.3101 124.978 52.3101 124.375 53.2772C123.472 53.9692 122.548 53.8785 121.445 53.8564C121.126 53.8515 120.807 53.8466 120.478 53.8415C120.235 53.8352 119.992 53.8289 119.741 53.8224C119.744 54.096 119.747 54.3696 119.75 54.6516C119.76 55.6702 119.766 56.6888 119.771 57.7075C119.774 58.1477 119.777 58.588 119.782 59.0282C119.789 59.6623 119.792 60.2963 119.794 60.9304C119.797 61.1261 119.8 61.3218 119.803 61.5234C119.803 62.6224 119.707 63.4749 119.196 64.454C118.651 64.9992 118.651 64.9992 115.924 65.2718C115.924 75.7072 115.924 86.1426 115.924 96.8942C116.734 96.8942 117.544 96.8942 118.378 96.8942C119.205 97.4935 119.418 97.8346 119.741 98.8024C119.764 99.5273 119.773 100.245 119.768 100.969C119.767 101.285 119.767 101.285 119.766 101.608C119.765 102.28 119.761 102.952 119.758 103.624C119.757 104.08 119.755 104.536 119.754 104.992C119.751 106.109 119.747 107.226 119.741 108.344C120.004 108.334 120.267 108.325 120.537 108.315C120.882 108.308 121.226 108.3 121.581 108.293C121.923 108.283 122.264 108.274 122.616 108.264C123.608 108.348 123.979 108.439 124.648 109.161C125.076 110.147 124.955 111.268 124.947 112.326C124.947 112.623 124.947 112.623 124.946 112.927C124.944 113.557 124.941 114.188 124.938 114.818C124.936 115.246 124.935 115.675 124.934 116.103C124.931 117.152 124.926 118.2 124.92 119.248C125.138 119.244 125.355 119.239 125.579 119.235C126.563 119.218 127.548 119.207 128.533 119.197C128.874 119.19 129.216 119.183 129.569 119.176C129.897 119.173 130.226 119.171 130.564 119.168C130.867 119.164 131.17 119.159 131.481 119.155C132.399 119.262 132.714 119.43 133.371 120.066C133.508 120.686 133.508 120.686 133.508 121.422C133.512 121.835 133.512 121.835 133.516 122.257C133.511 122.703 133.511 122.703 133.507 123.158C133.507 123.464 133.507 123.769 133.508 124.084C133.507 124.73 133.504 125.376 133.498 126.022C133.491 127.013 133.493 128.004 133.496 128.995C133.495 129.622 133.492 130.249 133.489 130.876C133.49 131.174 133.491 131.471 133.492 131.777C133.488 132.053 133.485 132.329 133.481 132.613C133.48 132.855 133.478 133.098 133.477 133.348C133.343 134.136 133.202 134.321 132.553 134.786C131.876 134.867 131.268 134.896 130.59 134.889C130.388 134.891 130.186 134.892 129.977 134.893C129.294 134.896 128.611 134.893 127.928 134.89C127.435 134.891 126.942 134.893 126.45 134.894C125.092 134.898 123.734 134.896 122.376 134.893C120.913 134.892 119.45 134.894 117.987 134.897C115.12 134.9 112.253 134.899 109.385 134.897C107.056 134.895 104.726 134.895 102.397 134.896C102.066 134.896 101.735 134.896 101.394 134.896C100.721 134.897 100.049 134.897 99.3764 134.897C93.0652 134.899 86.754 134.897 80.4428 134.892C75.0227 134.889 69.6026 134.889 64.1825 134.893C57.8945 134.897 51.6065 134.899 45.3185 134.897C44.6485 134.896 43.9785 134.896 43.3085 134.896C42.9789 134.896 42.6492 134.896 42.3095 134.896C39.9817 134.895 37.6539 134.896 35.326 134.898C32.4908 134.9 29.6555 134.9 26.8202 134.895C25.3725 134.893 23.9248 134.892 22.4771 134.895C21.1534 134.897 19.8298 134.896 18.5061 134.892C18.0257 134.891 17.5452 134.891 17.0648 134.893C16.4148 134.896 15.765 134.893 15.1149 134.889C14.9258 134.891 14.7366 134.893 14.5417 134.895C13.764 134.886 13.269 134.873 12.6318 134.404C12.0526 133.557 12.027 132.701 12.0218 131.7C12.0201 131.47 12.0184 131.24 12.0166 131.002C12.0163 130.756 12.016 130.509 12.0156 130.255C12.0147 130 12.0138 129.745 12.0129 129.481C12.0115 128.942 12.0109 128.402 12.0109 127.863C12.0103 127.038 12.0054 126.214 12.0002 125.39C11.9994 124.865 11.9989 124.34 11.9986 123.815C11.9967 123.569 11.9947 123.323 11.9927 123.07C11.9982 121.556 12.0277 120.372 13.1519 119.248C13.9144 119.186 13.9144 119.186 14.8748 119.195C15.2174 119.196 15.5601 119.198 15.9131 119.2C16.2726 119.205 16.632 119.209 17.0024 119.214C17.3677 119.217 17.7329 119.219 18.0982 119.221C18.9938 119.228 19.8893 119.237 20.7848 119.248C20.7806 118.974 20.7763 118.701 20.7719 118.419C20.757 117.4 20.7477 116.381 20.7399 115.363C20.7358 114.923 20.7302 114.482 20.7231 114.042C20.7132 113.408 20.7086 112.774 20.705 112.14C20.7008 111.944 20.6965 111.748 20.6922 111.547C20.6918 110.338 20.8566 109.576 21.6027 108.616C22.4213 108.207 23.1812 108.318 24.0902 108.327C24.4395 108.329 24.7888 108.332 25.1487 108.334C25.5524 108.339 25.5524 108.339 25.9644 108.344C25.9601 107.921 25.9601 107.921 25.9557 107.489C25.9458 106.44 25.9396 105.391 25.9344 104.342C25.9317 103.889 25.928 103.435 25.9232 102.982C25.9166 102.329 25.9135 101.676 25.9111 101.023C25.9083 100.821 25.9055 100.619 25.9026 100.412C25.9024 99.3032 25.9665 98.4172 26.5096 97.4394C27.3274 96.8942 27.3274 96.8942 29.7809 96.8942C29.7809 86.4588 29.7809 76.0234 29.7809 65.2718C28.8813 65.1819 27.9817 65.0919 27.0548 64.9992C26.0077 63.9521 25.9795 63.5684 25.9334 62.1164C25.9335 61.7299 25.935 61.3434 25.9377 60.957C25.9381 60.7528 25.9385 60.5486 25.9389 60.3383C25.9404 59.6883 25.9439 59.0384 25.9473 58.3885C25.9487 57.947 25.9499 57.5054 25.9511 57.0638C25.9541 55.9833 25.9588 54.9029 25.9644 53.8224C25.7212 53.8287 25.478 53.835 25.2275 53.8415C24.9084 53.8465 24.5893 53.8514 24.2606 53.8564C23.9443 53.8628 23.628 53.8691 23.3022 53.8756C22.4465 53.8239 22.0051 53.7943 21.3301 53.2772C20.5462 52.0188 20.7015 50.5185 20.7028 49.0858C20.7017 48.8127 20.7005 48.5395 20.6993 48.258C20.6977 47.6815 20.6976 47.105 20.6988 46.5286C20.6997 45.6473 20.6932 44.7663 20.6863 43.885C20.6857 43.3242 20.6855 42.7634 20.6858 42.2025C20.6833 41.9395 20.6808 41.6766 20.6782 41.4056C20.6945 39.041 20.6945 39.041 21.6027 38.0112C22.2076 37.6012 22.2076 37.6012 22.9508 37.252C23.2447 37.1138 23.5385 36.9757 23.8413 36.8333C25.7217 35.9921 27.6193 35.1914 29.5202 34.3977C30.8827 33.8288 32.2436 33.2559 33.6048 32.6837C34.0358 32.5027 34.0358 32.5027 34.4755 32.318C37.7713 30.9332 41.0599 29.5315 44.3483 28.1292C44.9633 27.8671 45.5783 27.6049 46.1933 27.3428C47.4424 26.8104 48.6914 26.2779 49.9404 25.7454C52.9138 24.4776 55.8875 23.2104 58.8612 21.9435C60.0806 21.424 61.2998 20.9042 62.519 20.3844C63.0819 20.1447 63.645 19.9056 64.2083 19.6671C65.5027 19.1189 66.7934 18.5648 68.0774 17.9926C68.3115 17.8898 68.5457 17.787 68.7869 17.6811C69.2172 17.492 69.6463 17.2999 70.0736 17.104C72.524 16.0365 74.2215 16.455 76.5754 17.505ZM70.0137 21.7656C69.7742 21.8719 69.5347 21.9783 69.2879 22.0879C68.5077 22.4362 67.7329 22.7952 66.9576 23.1542C66.4113 23.3999 65.8646 23.6447 65.3175 23.8886C64.2298 24.3743 63.1437 24.8632 62.0586 25.3547C60.2306 26.1798 58.3843 26.9553 56.5304 27.7203C55.8614 27.9989 55.1926 28.2777 54.5241 28.5573C54.346 28.6318 54.1679 28.7062 53.9845 28.7829C50.9876 30.0382 48.0013 31.3184 45.0127 32.5932C38.3973 35.4146 31.7742 38.2174 25.1465 41.0099C25.1465 43.7986 25.1465 46.5874 25.1465 49.4607C56.6326 49.4607 88.1186 49.4607 120.559 49.4607C120.559 46.6719 120.559 43.8831 120.559 41.0099C113.098 37.8345 105.637 34.6604 98.1743 31.4895C96.5959 30.8189 95.0176 30.1481 93.4393 29.4773C92.3079 28.9964 91.1765 28.5156 90.045 28.0352C87.9212 27.1333 85.798 26.23 83.6766 25.3223C82.6776 24.895 81.6783 24.4684 80.679 24.0418C80.204 23.8388 79.7291 23.6355 79.2545 23.4318C78.595 23.1488 77.9351 22.867 77.2751 22.5855C76.9883 22.4619 76.9883 22.4619 76.6956 22.3357C76.3291 22.1799 75.9609 22.0278 75.5912 21.8796C75.2033 21.7233 74.8194 21.5568 74.4391 21.3828C72.6862 20.658 71.6846 20.9689 70.0137 21.7656ZM30.3261 53.8224C30.3261 56.1613 30.3261 58.5003 30.3261 60.9101C35.3638 60.9101 40.4016 60.9101 45.592 60.9101C45.592 58.5712 45.592 56.2322 45.592 53.8224C40.5543 53.8224 35.5165 53.8224 30.3261 53.8224ZM49.9537 53.8224C49.8638 57.1509 49.7738 60.4794 49.6811 63.9088C49.5012 64.1787 49.3213 64.4486 49.1359 64.7266C48.2363 64.9066 47.3367 65.0865 46.4098 65.2718C46.4098 75.7072 46.4098 86.1426 46.4098 96.8942C47.3094 97.0741 48.209 97.254 49.1359 97.4394C51.7133 100.017 49.8578 104.7 49.9537 108.344C65.067 108.344 80.1803 108.344 95.7516 108.344C95.8416 104.925 95.9315 101.507 96.0242 97.9846C97.1146 97.1668 97.1146 97.1668 99.2955 96.8942C99.2955 86.4588 99.2955 76.0234 99.2955 65.2718C98.3959 65.0919 97.4963 64.912 96.5694 64.7266C94.5476 61.6938 95.8501 57.466 95.7516 53.8224C80.6383 53.8224 65.525 53.8224 49.9537 53.8224ZM100.113 53.8224C100.113 56.1613 100.113 58.5003 100.113 60.9101C105.151 60.9101 110.189 60.9101 115.379 60.9101C115.379 58.5712 115.379 56.2322 115.379 53.8224C110.342 53.8224 105.304 53.8224 100.113 53.8224ZM34.1426 65.2718C34.1426 75.7072 34.1426 86.1426 34.1426 96.8942C36.7514 96.8942 39.3602 96.8942 42.0481 96.8942C42.0481 86.4588 42.0481 76.0234 42.0481 65.2718C39.4393 65.2718 36.8305 65.2718 34.1426 65.2718ZM103.657 65.2718C103.657 75.7072 103.657 86.1426 103.657 96.8942C106.266 96.8942 108.875 96.8942 111.563 96.8942C111.563 86.4588 111.563 76.0234 111.563 65.2718C108.954 65.2718 106.345 65.2718 103.657 65.2718ZM30.3261 101.256C30.3261 103.595 30.3261 105.934 30.3261 108.344C35.3638 108.344 40.4016 108.344 45.592 108.344C45.592 106.005 45.592 103.666 45.592 101.256C40.5543 101.256 35.5165 101.256 30.3261 101.256ZM100.113 101.256C100.113 103.595 100.113 105.934 100.113 108.344C105.151 108.344 110.189 108.344 115.379 108.344C115.379 106.005 115.379 103.666 115.379 101.256C110.342 101.256 105.304 101.256 100.113 101.256ZM25.1465 112.433C25.1465 114.682 25.1465 116.931 25.1465 119.248C56.6326 119.248 88.1186 119.248 120.559 119.248C120.559 116.999 120.559 114.75 120.559 112.433C89.0728 112.433 57.5867 112.433 25.1465 112.433ZM16.4231 123.337C16.4231 125.766 16.4231 128.195 16.4231 130.697C53.6666 130.697 90.9101 130.697 129.282 130.697C129.282 128.268 129.282 125.84 129.282 123.337C92.0387 123.337 54.7952 123.337 16.4231 123.337Z" fill="white"/>
<path d="M72.8534 61.8301C73.9687 62.0624 74.3315 62.4748 75.0343 63.3635C75.1345 64.1373 75.1668 64.7315 75.1194 65.4932C75.1133 65.6821 75.1071 65.871 75.1008 66.0656C75.0849 66.5282 75.0604 66.9905 75.0343 67.4526C75.3435 67.4695 75.6527 67.4863 75.9713 67.5037C77.882 67.7539 79.4003 68.6298 80.5886 70.1446C81.8957 72.0943 82.4493 73.8256 82.122 76.176C81.6961 76.9086 81.6961 76.9086 81.0316 77.2664C79.9898 77.4152 79.3954 77.4355 78.4929 76.8745C77.9375 76.0311 77.8234 75.2997 77.6379 74.3189C77.4205 73.4556 77.0397 72.9652 76.3973 72.3595C75.2442 71.7619 74.1434 71.7232 72.8704 71.7291C72.6823 71.7247 72.4941 71.7203 72.3002 71.7158C71.0071 71.7146 70.137 71.9602 69.0369 72.6321C68.2133 73.4557 68.0157 74.2043 67.9465 75.3582C68.2269 76.7323 68.7954 77.4525 69.8547 78.3568C70.5865 78.6008 71.0452 78.6686 71.7992 78.6869C72.1292 78.6985 72.1292 78.6985 72.4658 78.7104C72.9222 78.7244 73.3787 78.7365 73.8352 78.7466C76.4504 78.8459 78.3139 79.4921 80.2276 81.3023C82.1646 83.4838 82.2837 85.9235 82.122 88.7159C81.805 90.6499 80.5394 92.061 79.1233 93.3502C77.8318 94.2439 76.5854 94.584 75.0343 94.7132C75.0469 94.9729 75.0596 95.2326 75.0726 95.5002C75.0873 96.013 75.0873 96.013 75.1024 96.5363C75.1151 96.8747 75.1277 97.2131 75.1407 97.5617C75.0163 98.6925 74.7698 99.1231 73.9438 99.8927C73.3986 100.074 73.3986 100.074 72.8534 100.063C72.6735 100.067 72.4936 100.07 72.3082 100.074C71.4326 99.783 71.1433 99.3077 70.6725 98.5297C70.5661 97.5617 70.5661 97.5617 70.6044 96.5363C70.6142 96.1944 70.6241 95.8524 70.6342 95.5002C70.6469 95.2405 70.6595 94.9808 70.6725 94.7132C70.5011 94.6928 70.3296 94.6725 70.1529 94.6515C67.7633 94.2844 66.3275 93.3184 64.8456 91.4249C63.5451 89.6485 63.291 87.8836 63.5848 85.7172C64.147 84.9505 64.147 84.9505 64.9478 84.6268C65.877 84.6428 66.5428 84.6642 67.3001 85.2327C67.9198 86.036 67.9916 86.9762 68.1818 87.9556C68.5983 88.9774 69.1533 89.5875 70.1273 90.0789C71.0431 90.2693 71.921 90.2699 72.8534 90.2493C73.2118 90.2572 73.2118 90.2572 73.5775 90.2653C74.775 90.2562 75.6014 90.1905 76.5506 89.4208C77.5766 88.3323 77.5951 87.5949 77.5846 86.14C77.4271 85.01 76.9603 84.5669 76.1247 83.809C75.1144 83.4722 74.1456 83.4621 73.0919 83.4171C70.0621 83.2501 67.8186 82.9703 65.493 80.8103C63.7179 78.4386 63.1958 76.1031 63.5848 73.1773C64.2897 70.8286 65.5647 69.2307 67.6739 67.9978C68.7376 67.5273 69.525 67.4353 70.6725 67.4526C70.6567 67.1732 70.6409 66.8938 70.6246 66.606C70.6118 66.2351 70.5994 65.8642 70.5874 65.4932C70.5759 65.3096 70.5645 65.126 70.5528 64.9368C70.5265 63.8598 70.6326 63.414 71.3083 62.5595C72.0356 62.0005 72.0356 62.0005 72.8534 61.8301Z" fill="white"/>
</svg>
