<svg width="147" height="147" viewBox="0 0 147 147" fill="none" xmlns="http://www.w3.org/2000/svg">
<rect x="0.25" y="0.983398" width="145.917" height="145.917" rx="28.8616" fill="#FF8100"/>
<path d="M73.5352 1.4668C75.1439 1.55043 76.7604 2.09571 78.8057 3.08008L145.367 40.2793C145.448 40.4203 145.484 40.5788 145.515 40.7959L145.55 41.083V41.085C145.738 42.6588 145.733 46.4541 145.579 48.3301L145.547 48.6787C145.045 53.306 140.56 55.6671 136.129 56.0742L135.906 56.0947L135.781 56.2793L128.53 66.9756L128.449 67.0957V67.2402L128.478 118.817V118.962L128.56 119.082L136.007 130.007L136.148 130.213H136.398C138.345 130.207 140.514 130.066 142.297 130.534C143.173 130.764 143.915 131.133 144.469 131.71C144.949 132.21 145.315 132.894 145.487 133.848L145.55 134.273C145.649 135.16 145.705 136.89 145.699 138.63C145.694 140.158 145.641 141.649 145.534 142.557L145.484 142.908C145.202 144.585 143.774 145.559 142.192 146.429H4.0498C2.48066 145.734 1.41371 144.673 0.719727 143.097V133.603C1.12793 132.573 1.64207 131.871 2.22559 131.387C2.82401 130.89 3.52132 130.597 4.30957 130.428C5.10349 130.258 5.97791 130.215 6.92285 130.211C7.84639 130.207 8.87705 130.24 9.87988 130.212L10.1182 130.206L10.2539 130.01L17.6562 119.325L17.7402 119.204V119.058L17.8174 67.5205V67.4639L17.8037 67.4082L17.5244 66.2627L17.5029 66.1758L17.4512 66.1016L10.4736 56.2715L10.3623 56.1133L10.1719 56.0801L8.51758 55.8047C7.09027 55.5654 5.8737 55.3026 4.58984 54.5215L4.23828 54.2949C2.38785 53.0416 1.53759 51.4509 0.716797 49.3486V40.6016L33.2402 22.2949C34.0665 22.4436 34.6797 22.9555 34.9209 23.5303C35.0468 23.8302 35.0737 24.1484 34.9844 24.459C34.8966 24.7641 34.6869 25.0916 34.291 25.4014L11.1211 38.4883L9.55762 39.3711H136.192L135.214 38.5391L134.366 37.8203L134.325 37.7852L134.277 37.7607L132.546 36.8584C123.896 32.3229 115.407 27.4518 106.91 22.5752C98.4164 17.7003 89.9149 12.8199 81.251 8.27441L79.5156 7.37012C78.6409 6.91719 77.9305 6.50301 77.1895 6.10938C76.4721 5.72831 75.7765 5.39512 75.0508 5.17383C73.5664 4.72129 72.0156 4.75827 69.9062 5.64062L69.8818 5.65039L69.8594 5.66309L42.7852 20.6533C42.1509 20.8224 41.657 20.7607 41.3018 20.5918C40.9372 20.4184 40.6828 20.1183 40.5576 19.7588C40.3109 19.0504 40.5586 18.048 41.6592 17.418C46.1432 15.366 50.5888 12.6624 54.9932 9.99219C59.1408 7.47754 63.2525 4.99279 67.3652 3.07324L68.1875 2.69727C70.2875 1.75682 71.9316 1.3835 73.5352 1.4668ZM20.2705 121.891L14.9502 129.531L14.4346 130.272H41.8896L41.3389 129.521L35.7344 121.881L35.5928 121.688H20.4111L20.2705 121.891ZM110.526 121.881L104.922 129.521L104.371 130.272H131.826L131.311 129.531L125.99 121.891L125.85 121.688H110.668L110.526 121.881ZM45.8877 56.0615L38.3115 67L38.2275 67.1221V67.2695L38.3672 119.249V119.326L38.3926 119.399C38.423 119.489 38.4843 119.598 38.5352 119.685C38.5952 119.787 38.6756 119.914 38.7705 120.062C38.9608 120.358 39.2211 120.748 39.5273 121.197C40.1402 122.097 40.9445 123.248 41.7627 124.401C42.5812 125.555 43.4152 126.713 44.0859 127.625C44.4212 128.081 44.7168 128.477 44.9502 128.781C45.1747 129.074 45.3603 129.306 45.4668 129.415V129.416C45.5308 129.482 45.5877 129.549 45.6631 129.635C45.7334 129.715 45.8182 129.809 45.916 129.896C46.1243 130.083 46.3962 130.242 46.7764 130.266L46.792 130.267H46.8066L99.6943 130.216L99.9336 130.215L100.075 130.022L107.894 119.326L107.983 119.203L107.984 119.052L108.112 101.868C108.341 101.199 109.063 100.905 109.916 101.01C110.338 101.062 110.728 101.211 110.999 101.411C111.271 101.612 111.38 101.825 111.38 102.017V118.304H125.134V67.7764H111.656L111.518 67.9141L111.515 67.917L111.377 68.0557V93.1855C111.377 93.3584 111.273 93.5758 110.999 93.7949C110.73 94.0102 110.347 94.1826 109.935 94.2607C109.522 94.3391 109.12 94.3153 108.805 94.1885C108.521 94.0742 108.298 93.8732 108.175 93.5439L107.99 67.0254L107.989 66.8799L107.906 66.7598L100.564 56.1582L100.424 55.9561L100.177 55.9551L46.2764 55.8584H46.0293L45.8877 56.0615ZM21.1299 118.307H34.8838V67.7793H21.1299V118.307ZM14.9473 56.5469L20.1299 64.1787L20.2324 64.3301L20.4102 64.3721L20.7666 64.458L20.8223 64.4717L20.8789 64.4707L35.3613 64.4023L35.6064 64.4014L35.7471 64.2002L41.0605 56.5537L41.1455 56.4326V55.8096H14.4473L14.9473 56.5469ZM130.669 55.8096H104.682L105.197 56.5508L110.512 64.1973L110.651 64.3984L110.896 64.3994L125.379 64.4688H125.436L125.491 64.4551L125.848 64.3691L126.025 64.3271L126.128 64.1758L131.168 56.7539H132.062L130.851 55.542L130.669 55.8096ZM4.0459 48.4443C4.04596 48.8206 4.20324 49.2143 4.40137 49.5645C4.60566 49.9254 4.88384 50.2919 5.19043 50.625C5.49737 50.9584 5.84238 51.2692 6.1875 51.5166C6.52622 51.7594 6.89523 51.9631 7.24707 52.0469L7.30078 52.0596H138.957L139.011 52.0469C139.363 51.9631 139.732 51.7594 140.07 51.5166C140.415 51.2692 140.76 50.9584 141.067 50.625C141.374 50.2919 141.652 49.9254 141.856 49.5645C142.055 49.2143 142.212 48.8206 142.212 48.4443V42.9844H4.0459V48.4443ZM142.212 134.308L142.073 134.17L141.646 133.741L141.508 133.604H4.75L4.6123 133.741L4.18457 134.17L4.0459 134.308V142.812H142.212V134.308Z" fill="white" stroke="#FF8100" stroke-width="0.943601"/>
<path d="M66.4492 17.1021C68.7073 14.8036 71.2375 14.0233 73.6035 14.2397C75.9842 14.4575 78.2384 15.6894 79.9043 17.4878C81.5701 19.2861 82.6213 21.6217 82.6348 24.0142C82.6473 26.2435 81.7601 28.5624 79.5537 30.5874L79.0947 30.9878C74.5834 34.7418 69.3696 33.4047 66.2803 30.0278C63.288 26.7571 62.3634 21.6532 66.0752 17.5015L66.4492 17.1021ZM77.0898 19.2241C75.892 18.1664 74.1757 17.6131 71.9873 17.9126L71.5439 17.9839C68.593 18.5279 67.1735 21.29 67.2393 23.9019C67.3035 26.4469 68.7779 29.054 71.7979 29.604L72.0947 29.6509C74.3862 29.956 76.1559 29.2862 77.3389 28.0864C78.5098 26.8988 79.0653 25.2334 79.0273 23.606C78.9893 21.9779 78.3562 20.3424 77.0898 19.2241Z" fill="white" stroke="#FF8100" stroke-width="0.943601"/>
<path d="M69.9912 69.0874C94.6944 66.5682 106.88 97.1067 88.0791 111.816L87.6289 112.161C69.0858 126.06 43.872 108.456 50.0156 86.3599L50.166 85.8374V85.8364C52.7221 77.3018 61.0435 70.0014 69.9922 69.0884L69.9912 69.0874ZM91.0527 103.253C99.3205 88.6375 87.9384 71.2399 71.5283 72.3569L70.7432 72.4233C54.8718 74.0633 47.0332 93.1255 56.7725 105.583L57.249 106.171C66.3098 116.943 83.4228 115.817 90.7129 103.833L91.0527 103.253Z" fill="white" stroke="#FF8100" stroke-width="0.943601"/>
<path d="M73.1328 76.2427C73.9811 76.2465 75.0443 77.0413 74.9424 79.0464L74.917 79.5435L75.415 79.5415C77.0348 79.5365 78.8786 80.3228 79.9023 81.564L80.0957 81.8188C80.6671 82.6358 81.2065 84.1785 81.2178 85.4722C81.2234 86.1179 81.0963 86.6302 80.8496 86.9604C80.6531 87.2234 80.3435 87.421 79.8193 87.4409L79.582 87.439C78.9694 87.4044 78.6515 87.1794 78.4365 86.8843C78.1934 86.5505 78.0581 86.0975 77.9023 85.5366C77.7575 85.015 77.5919 84.3849 77.2471 83.8813C76.8753 83.3386 76.3117 82.9581 75.4463 82.8823L74.9336 82.8374V91.2075L75.3779 91.2329C76.8341 91.3156 77.9305 91.6743 78.7559 92.2153C79.5791 92.7551 80.1623 93.4955 80.5635 94.3882C81.2742 95.9699 81.4096 98.0141 81.2812 100.192L81.2109 101.133C80.9481 104.076 78.3769 106.522 75.4492 106.248L74.8848 106.194L74.9355 106.758C75.0303 107.826 74.7869 108.57 74.4336 109.035C74.0809 109.499 73.598 109.716 73.1289 109.716C72.6598 109.716 72.177 109.499 71.8242 109.035C71.4708 108.57 71.2275 107.826 71.3223 106.758L71.3779 106.134L70.7627 106.253C69.1635 106.565 67.4323 105.631 66.249 104.125C65.1383 102.713 64.6357 100.958 65.1162 99.563L65.2256 99.2896C65.4279 98.8456 65.9552 98.589 66.6162 98.6206C67.2769 98.6523 67.8776 98.9688 68.1289 99.4263C68.2651 99.6742 68.3373 99.9771 68.3975 100.339C68.4528 100.673 68.5019 101.102 68.6055 101.466C68.7143 101.849 68.9035 102.25 69.2959 102.537C69.6854 102.821 70.2045 102.941 70.8662 102.917L71.3213 102.901V95.0366H70.8809L70.8525 94.564H70.3779V94.5933C69.1731 94.6135 67.9852 94.116 67.0264 93.2876C66.0227 92.4204 65.3038 91.2212 65.0928 89.9644L65.0576 89.7124C64.7761 87.2133 64.817 84.7061 65.6338 82.811C66.0379 81.8736 66.628 81.0942 67.46 80.5317C68.2927 79.9688 69.3978 79.6029 70.8633 79.5415L71.3369 79.521L71.3154 79.0483C71.2682 78.031 71.5218 77.3244 71.8721 76.8833C72.2214 76.4435 72.6846 76.2407 73.1328 76.2427ZM74.9365 102.889L75.3789 102.917C76.1177 102.962 76.7029 102.74 77.127 102.307C77.5336 101.892 77.7478 101.326 77.8623 100.758C78.0329 99.9125 78.0039 98.9362 77.9453 98.1353L77.8828 97.4038C77.8214 96.7119 77.6675 96.0543 77.2832 95.5376C76.8843 95.0012 76.285 94.679 75.4707 94.5688L74.9365 94.4966V102.889ZM70.79 82.8853C69.9751 82.9939 69.3755 83.3161 68.9766 83.853C68.5924 84.3701 68.4383 85.0284 68.377 85.7202C68.2986 86.5868 68.17 87.9475 68.3975 89.0757C68.512 89.6434 68.727 90.2091 69.1338 90.6245C69.5581 91.0578 70.143 91.2789 70.8818 91.2329L71.3242 91.2056V82.814L70.79 82.8853Z" fill="white" stroke="#FF8100" stroke-width="0.943601"/>
<path d="M143.114 132.274L141.762 143.91H3.2334V132.274H143.114Z" fill="white" stroke="#FF8100" stroke-width="0.943601"/>
</svg>
