<svg width="150" height="150" viewBox="0 0 150 150" fill="none" xmlns="http://www.w3.org/2000/svg">
<g clip-path="url(#clip0_339_140)">
<mask id="mask0_339_140" style="mask-type:luminance" maskUnits="userSpaceOnUse" x="0" y="0" width="150" height="150">
<path d="M149.854 149.854V0.146484H0.146484V149.854H149.854Z" fill="white" stroke="white" stroke-width="0.292969"/>
</mask>
<g mask="url(#mask0_339_140)">
<path d="M43.0942 18.6944L70.7387 3.36865C73.3898 1.89912 76.6107 1.89912 79.2618 3.36865L147.803 41.3667H2.19751L34.0245 23.7224" stroke="white" stroke-width="4.39453" stroke-miterlimit="10" stroke-linecap="round" stroke-linejoin="round"/>
<path d="M2.19751 41.3667H147.803V47.9585C147.803 51.5992 144.852 54.5503 141.211 54.5503H8.78931C5.14888 54.5503 2.19751 51.5992 2.19751 47.9585V41.3667Z" stroke="white" stroke-width="4.39453" stroke-miterlimit="10" stroke-linecap="round" stroke-linejoin="round"/>
<path d="M5.12708 134.619H144.873C146.491 134.619 147.803 135.931 147.803 137.549V144.873C147.803 146.491 146.491 147.803 144.873 147.803H5.12708C3.50901 147.803 2.19739 146.491 2.19739 144.873V137.549C2.19739 135.931 3.50901 134.619 5.12708 134.619Z" stroke="white" stroke-width="4.39453" stroke-miterlimit="10" stroke-linecap="round" stroke-linejoin="round"/>
<path d="M97.9598 95.0201C97.9598 107.712 87.6713 118 74.9799 118C62.2882 118 52 107.712 52 95.0201C52 82.3287 62.2882 72.0402 74.9799 72.0402C87.6713 72.0402 97.9598 82.3287 97.9598 95.0201Z" stroke="white" stroke-width="4.39453" stroke-miterlimit="10" stroke-linecap="round" stroke-linejoin="round"/>
<path d="M88.923 96.6735H84.9643V92.5068H88.923C89.5178 92.5068 90 91.9793 90 91.3277C90 90.6761 89.5178 90.1482 88.923 90.1482H84.9643V84.3667C84.9643 83.5228 84.812 82.9033 84.5118 82.526C84.2266 82.167 83.8514 82 83.332 82C82.8363 82 82.4754 82.1659 82.1956 82.5226C81.8989 82.9003 81.7483 83.5209 81.7483 84.3671V90.1489H74.3018L71.1356 84.9018C70.8647 84.4335 70.6099 83.9949 70.3625 83.5738C70.1397 83.1947 69.9224 82.8859 69.7172 82.6554C69.5355 82.4513 69.3285 82.2934 69.0863 82.172C68.8578 82.0577 68.5673 82.0004 68.2237 82.0004C67.7853 82.0004 67.3874 82.1319 67.0064 82.4021C66.6294 82.6694 66.3688 82.9998 66.2096 83.4123C66.0699 83.8044 65.9959 84.4051 65.9959 85.1806V90.1485H62.0766C61.4819 90.1486 61 90.6765 61 91.328C61 91.9796 61.4819 92.5071 62.0766 92.5071H65.996V96.6743H62.0766C61.4819 96.6743 61 97.202 61 97.8538C61 98.5051 61.4819 99.0325 62.0766 99.0325H65.996V105.633C65.996 106.452 66.1531 107.066 66.4644 107.455C66.7604 107.827 67.1356 107.999 67.6453 107.999C68.137 107.999 68.5093 107.826 68.8181 107.454C69.1343 107.072 69.2942 106.46 69.2942 105.634V99.0325H76.0325L79.6789 105.156C79.9324 105.561 80.1942 105.969 80.4553 106.37C80.6909 106.73 80.9479 107.047 81.219 107.312C81.4632 107.551 81.725 107.726 81.9972 107.834C82.2773 107.944 82.6048 108 82.9681 108C83.9542 108 84.9642 107.669 84.9642 105.217V99.0325H88.9229C89.5177 99.0325 89.9999 98.5044 89.9999 97.853C90 97.2016 89.5178 96.6735 88.923 96.6735ZM81.7482 92.5068V96.6734H78.2396L75.7256 92.5068H81.7482ZM69.2943 87.7191L70.7412 90.1482H69.2943V87.7191ZM69.2943 96.6735V92.5068H72.1461L74.6277 96.6735H69.2943ZM81.7482 102.489L79.663 99.0325H81.7482V102.489Z" fill="white"/>
<path d="M82.9103 23.4362C82.9103 27.805 79.3689 31.3464 75.0001 31.3464C70.6314 31.3464 67.09 27.805 67.09 23.4362C67.09 19.0675 70.6314 15.5261 75.0001 15.5261C79.3689 15.5261 82.9103 19.0675 82.9103 23.4362Z" stroke="white" stroke-width="4.39453" stroke-miterlimit="10" stroke-linecap="round" stroke-linejoin="round"/>
<path d="M139.014 134.62H103.784L112.573 122.248H130.225L139.014 134.62Z" stroke="white" stroke-width="4.39453" stroke-miterlimit="10" stroke-linecap="round" stroke-linejoin="round"/>
<path d="M139.014 54.5503H103.784L112.573 66.9218H130.225L139.014 54.5503Z" stroke="white" stroke-width="4.39453" stroke-miterlimit="10" stroke-linecap="round" stroke-linejoin="round"/>
<path d="M112.573 94.2745V66.9217H130.225V122.248H112.573V104.528" stroke="white" stroke-width="4.39453" stroke-miterlimit="10" stroke-linecap="round" stroke-linejoin="round"/>
<path d="M46.2165 134.62H10.9867L19.7758 122.248H37.4274L46.2165 134.62Z" stroke="white" stroke-width="4.39453" stroke-miterlimit="10" stroke-linecap="round" stroke-linejoin="round"/>
<path d="M46.2165 54.5503H10.9867L19.7758 66.9218H37.4274L46.2165 54.5503Z" stroke="white" stroke-width="4.39453" stroke-miterlimit="10" stroke-linecap="round" stroke-linejoin="round"/>
<path d="M37.4273 122.248H19.7756V66.9217H37.4273V122.248Z" stroke="white" stroke-width="4.39453" stroke-miterlimit="10" stroke-linecap="round" stroke-linejoin="round"/>
</g>
</g>
<defs>
<clipPath id="clip0_339_140">
<rect width="150" height="150" fill="white"/>
</clipPath>
</defs>
</svg>
