<svg width="50" height="50" viewBox="0 0 50 50" fill="none" xmlns="http://www.w3.org/2000/svg">
<path d="M18.9072 17.9871C19.6838 17.6311 20.5239 17.4348 21.3778 17.4097C21.6362 17.4046 21.8947 17.416 22.1516 17.4438L21.8394 16.3414C21.6773 16.3343 21.5145 16.331 21.3505 16.3347C20.3534 16.3632 19.3722 16.5918 18.4651 17.0068C18.4006 17.0358 18.3424 17.0771 18.2938 17.1286C18.2453 17.18 18.2074 17.2405 18.1823 17.3066C18.1571 17.3727 18.1453 17.4432 18.1475 17.5139C18.1496 17.5846 18.1657 17.6541 18.1948 17.7186C18.2238 17.7831 18.2653 17.8412 18.3169 17.8896C18.3685 17.938 18.4291 17.9757 18.4953 18.0007C18.5615 18.0256 18.6319 18.0373 18.7026 18.0349C18.7733 18.0326 18.8428 18.0164 18.9072 17.9871Z" fill="white"/>
<path d="M19.4349 15.2548C19.9593 15.3118 20.4783 15.411 20.9867 15.5516C21.2203 15.6162 21.4504 15.6907 21.6777 15.7721L21.3266 14.532C21.3085 14.5269 21.291 14.5202 21.2728 14.5152C20.7083 14.359 20.1321 14.2489 19.5499 14.1858C19.4796 14.1782 19.4086 14.1845 19.3408 14.2043C19.273 14.2242 19.2098 14.2572 19.1547 14.3015C19.0997 14.3458 19.0539 14.4005 19.0201 14.4625C18.9862 14.5245 18.9649 14.5925 18.9573 14.6628C18.9498 14.733 18.9561 14.804 18.976 14.8718C18.9959 14.9396 19.029 15.0028 19.0734 15.0578C19.1177 15.1128 19.1725 15.1585 19.2345 15.1923C19.2965 15.2261 19.3646 15.2473 19.4349 15.2548Z" fill="white"/>
<path d="M23.9378 19.8064C23.9608 19.8877 24.0027 19.9624 24.06 20.0245C24.1172 20.0865 24.1883 20.1342 24.2675 20.1637C26.9097 21.1484 29.8182 21.1484 32.4604 20.1637C32.5396 20.1342 32.6107 20.0865 32.668 20.0245C32.7253 19.9624 32.7671 19.8877 32.7902 19.8064L34.7741 12.7994C34.7754 12.7939 34.777 12.7884 34.7783 12.7829C34.8242 12.5978 34.8273 12.4046 34.7874 12.2181C34.7475 12.0316 34.6656 11.8566 34.5479 11.7065C34.4302 11.5564 34.2798 11.4351 34.1082 11.3519C33.9366 11.2686 33.7483 11.2256 33.5575 11.226H32.1C31.9679 10.3295 31.5179 9.51036 30.832 8.91811C30.1461 8.32586 29.2702 8 28.364 8C27.4578 8 26.5818 8.32586 25.8959 8.91811C25.2101 9.51036 24.76 10.3295 24.628 11.226H23.1704C22.9782 11.2256 22.7885 11.2693 22.6159 11.3537C22.4433 11.4382 22.2924 11.5612 22.1748 11.7133C22.0573 11.8653 21.9762 12.0423 21.9379 12.2306C21.8996 12.4189 21.905 12.6136 21.9539 12.7994L23.9378 19.8064ZM31.8309 19.2473C29.5843 20.0204 27.1437 20.0204 24.897 19.2473L24.4992 17.8422C25.7725 18.0899 27.0668 18.2144 28.364 18.214C29.6612 18.2144 30.9554 18.0899 32.2287 17.8423L31.8309 19.2473ZM23.0252 12.3714C23.0423 12.3493 23.0644 12.3314 23.0896 12.3193C23.1148 12.3071 23.1424 12.3009 23.1704 12.3013H25.1273C25.2699 12.3013 25.4066 12.2447 25.5075 12.1438C25.6083 12.043 25.6649 11.9062 25.6649 11.7637C25.6678 11.0497 25.9534 10.3659 26.4593 9.8621C26.9651 9.35826 27.65 9.07537 28.364 9.07537C29.0779 9.07537 29.7628 9.35826 30.2687 9.8621C30.7745 10.3659 31.0602 11.0497 31.063 11.7637C31.063 11.9062 31.1197 12.043 31.2205 12.1438C31.3213 12.2446 31.4581 12.3013 31.6007 12.3013H33.5575C33.5855 12.3009 33.6132 12.3071 33.6384 12.3193C33.6636 12.3314 33.6856 12.3493 33.7027 12.3714C33.7188 12.3916 33.7302 12.4153 33.7361 12.4405C33.7419 12.4657 33.742 12.492 33.7363 12.5172L32.5596 16.6736C29.7966 17.2916 26.9312 17.2916 24.1682 16.6735L22.9929 12.523C22.9862 12.497 22.9856 12.4697 22.9912 12.4434C22.9968 12.4171 23.0085 12.3924 23.0252 12.3714Z" fill="white"/>
<path d="M39.7023 22.8296C39.6733 22.792 39.6395 22.7584 39.6017 22.7297C38.2016 20.9179 36.3564 19.4991 34.2458 18.6113L33.9507 19.6531C35.876 20.4898 37.5538 21.8075 38.8228 23.4797C38.851 23.5162 38.8836 23.5489 38.9199 23.5773C40.9868 26.3777 41.8846 29.8718 41.4237 33.3217C40.9837 36.7361 38.6165 39.5788 35.5331 40.3956C31.48 41.4664 27.2386 41.6152 23.1204 40.8311C22.8489 41.1758 22.5291 41.4797 22.1709 41.7332C26.6759 42.7173 31.3505 42.6151 35.8082 41.435C39.3644 40.493 41.987 37.3625 42.49 33.4591C42.9926 29.6874 41.9913 25.8692 39.7023 22.8296Z" fill="white"/>
<path d="M28.3642 38.1075C29.5261 38.1084 30.6699 37.8196 31.6922 37.2673C32.7145 36.715 33.5829 35.9165 34.219 34.9441C34.855 33.9718 35.2386 32.8561 35.3351 31.6982C35.4315 30.5403 35.2378 29.3766 34.7713 28.3124C34.3049 27.2482 33.5805 26.317 32.6637 25.6032C31.7469 24.8894 30.6666 24.4154 29.5206 24.224C28.3745 24.0327 27.1988 24.1302 26.0998 24.5075C25.0009 24.8849 24.0133 25.5303 23.2266 26.3853C23.4569 26.7128 23.6221 27.0814 23.7134 27.4712C24.4774 26.4964 25.5282 25.7861 26.7175 25.4405C27.9068 25.0949 29.1747 25.1315 30.3421 25.545C31.5095 25.9586 32.5177 26.7283 33.2242 27.7455C33.9308 28.7627 34.3001 29.9761 34.2801 31.2145C34.26 32.4529 33.8517 33.6537 33.1126 34.6475C32.3735 35.6414 31.3411 36.3781 30.1609 36.7537C28.9807 37.1293 27.7123 37.1249 26.5348 36.741C25.3573 36.3571 24.33 35.6132 23.5979 34.6142C23.5633 34.7052 23.524 34.7943 23.4808 34.8819C23.6879 35.2995 23.7952 35.7595 23.7941 36.2257C23.7941 36.2825 23.7897 36.3377 23.7867 36.3935C25.0549 37.4998 26.6812 38.1088 28.3642 38.1075Z" fill="white"/>
<path d="M32.3555 31.3336H31.2179V30.1273H32.3555C32.5264 30.1273 32.6649 29.9746 32.6649 29.786C32.6649 29.5973 32.5264 29.4445 32.3555 29.4445H31.2179V27.7707C31.2179 27.5264 31.1741 27.3471 31.0879 27.2379C31.0059 27.1339 30.8981 27.0856 30.7488 27.0856C30.6064 27.0856 30.5026 27.1336 30.4222 27.2369C30.337 27.3462 30.2937 27.5259 30.2937 27.7709V29.4447H28.1539L27.244 27.9257C27.1662 27.7901 27.0929 27.6631 27.0218 27.5412C26.9578 27.4314 26.8954 27.342 26.8364 27.2753C26.7842 27.2162 26.7247 27.1705 26.6551 27.1354C26.5895 27.1023 26.506 27.0857 26.4072 27.0857C26.2813 27.0857 26.1669 27.1238 26.0574 27.202C25.9491 27.2794 25.8742 27.375 25.8285 27.4944C25.7883 27.6079 25.7671 27.7819 25.7671 28.0064V29.4446H24.6408C24.4699 29.4446 24.3314 29.5974 24.3314 29.7861C24.3314 29.9747 24.4699 30.1274 24.6408 30.1274H25.7671V31.3338H24.6408C24.4699 31.3338 24.3314 31.4866 24.3314 31.6753C24.3314 31.8638 24.4699 32.0165 24.6408 32.0165H25.7671V33.9275C25.7671 34.1646 25.8122 34.3421 25.9017 34.4549C25.9867 34.5625 26.0946 34.6124 26.241 34.6124C26.3823 34.6124 26.4893 34.5622 26.5781 34.4545C26.6689 34.3441 26.7149 34.1667 26.7149 33.9275V32.0165H28.6512L29.699 33.7893C29.7719 33.9065 29.8471 34.0248 29.9222 34.1407C29.9898 34.2449 30.0637 34.3367 30.1416 34.4133C30.2118 34.4826 30.287 34.5334 30.3652 34.5644C30.4457 34.5964 30.5398 34.6126 30.6442 34.6126C30.9276 34.6126 31.2178 34.5169 31.2178 33.8071V32.0165H32.3554C32.5264 32.0165 32.6649 31.8636 32.6649 31.675C32.6649 31.4865 32.5264 31.3336 32.3555 31.3336ZM30.2937 30.1273V31.3336H29.2855L28.563 30.1273H30.2937ZM26.7149 28.7413L27.1307 29.4445H26.7149V28.7413ZM26.7149 31.3336V30.1273H27.5344L28.2475 31.3336H26.7149ZM30.2937 33.0172L29.6945 32.0165H30.2937V33.0172Z" fill="white"/>
<path d="M22.6933 38.6154C22.3099 38.9698 21.8807 39.2713 21.4173 39.5119C20.725 40.4603 18.4725 41.3317 15.4606 41.3317C12.4487 41.3317 10.1962 40.4603 9.50391 39.5119C9.0405 39.2713 8.61135 38.9698 8.22787 38.6154C8.21151 38.7135 8.20295 38.8128 8.20227 38.9123C8.20227 40.9046 11.3227 42.407 15.4606 42.407C19.5986 42.407 22.7189 40.9046 22.7189 38.9123C22.7183 38.8128 22.7097 38.7135 22.6933 38.6154Z" fill="white"/>
<path d="M15.4606 39.7189C19.5985 39.7189 22.7189 38.2164 22.7189 36.2242C22.7183 36.1247 22.7097 36.0254 22.6933 35.9272C22.3099 36.2816 21.8807 36.5832 21.4173 36.8238C20.725 37.7722 18.4725 38.6436 15.4606 38.6436C12.4487 38.6436 10.1962 37.7722 9.50391 36.8238C9.0405 36.5832 8.61135 36.2816 8.22787 35.9272C8.21151 36.0254 8.20295 36.1247 8.20227 36.2242C8.20227 38.2164 11.3227 39.7189 15.4606 39.7189Z" fill="white"/>
<path d="M15.4606 37.0308C19.5985 37.0308 22.7189 35.5283 22.7189 33.536C22.7183 33.4366 22.7097 33.3373 22.6933 33.2391C22.3099 33.5935 21.8807 33.8951 21.4173 34.1357C20.725 35.0841 18.4725 35.9555 15.4606 35.9555C12.4487 35.9555 10.1962 35.0841 9.50391 34.1357C9.0405 33.8951 8.61135 33.5935 8.22787 33.2391C8.21151 33.3373 8.20295 33.4366 8.20227 33.536C8.20227 35.5283 11.3227 37.0308 15.4606 37.0308Z" fill="white"/>
<path d="M15.4606 34.3426C19.5985 34.3426 22.7189 32.8402 22.7189 30.8479C22.7183 30.7484 22.7097 30.6492 22.6933 30.551C22.6126 30.6276 22.5268 30.7015 22.4385 30.774C22.4076 30.7986 22.3759 30.8229 22.3447 30.8473L22.345 30.8475C22.0538 31.0742 21.7434 31.275 21.4173 31.4476C20.725 32.396 18.4725 33.2673 15.4606 33.2673C12.4487 33.2673 10.1962 32.396 9.50391 31.4476C9.0405 31.2069 8.61135 30.9054 8.22787 30.551C8.21151 30.6492 8.20295 30.7484 8.20227 30.8479C8.20227 32.8402 11.3227 34.3426 15.4606 34.3426Z" fill="white"/>
<path d="M17.8084 23.5773C17.8447 23.5489 17.8774 23.5162 17.9056 23.4797C19.1746 21.8075 20.8523 20.4898 22.7776 19.6531L22.4826 18.6113C20.3719 19.4991 18.5268 20.9179 17.1266 22.7297C17.0888 22.7584 17.055 22.792 17.0261 22.8296C16.8287 23.0862 16.6443 23.3522 16.4661 23.6224C16.878 23.6477 17.2869 23.6882 17.6888 23.7446C17.7292 23.6892 17.7671 23.632 17.8084 23.5773Z" fill="white"/>
<path d="M15.4606 31.6557C19.5985 31.6557 22.7189 30.1532 22.7189 28.161C22.7189 26.1687 19.5985 24.6663 15.4606 24.6663C11.3227 24.6663 8.20227 26.1687 8.20227 28.161C8.20227 30.1532 11.3227 31.6557 15.4606 31.6557ZM15.4606 25.7416C19.1045 25.7416 21.6436 27.0166 21.6436 28.161C21.6436 29.3053 19.1045 30.5804 15.4606 30.5804C11.8167 30.5804 9.27758 29.3053 9.27758 28.161C9.27758 27.0166 11.8167 25.7416 15.4606 25.7416Z" fill="white"/>
</svg>
