<svg width="153" height="159" viewBox="0 0 153 159" fill="none" xmlns="http://www.w3.org/2000/svg">
<rect x="0.889648" y="0.417969" width="145.917" height="145.917" rx="28.8616" fill="#111111"/>
<path d="M66.0942 132.287C22.9047 132.287 23.3737 132.359 21.0708 128.453C19.3908 125.601 19.0332 34.7304 20.6864 31.1668C22.4856 27.2834 23.9581 26.8266 34.6459 26.819C45.0261 26.8152 44.5686 26.9256 45.3683 24.2491C46.1103 21.782 47.429 20.8226 50.4892 20.5256C54.7836 20.1144 54.749 20.1297 55.6102 18.2413C58.482 11.9365 67.9358 12.5457 69.2621 19.1207C69.512 20.3543 69.512 20.3543 72.1993 20.3543C76.2899 20.3543 78.2314 21.4165 79.1541 24.1577C80.096 26.9484 79.5539 26.8152 89.792 26.819C105.166 26.8266 104.786 26.2631 104.786 49.1369C104.786 58.1372 104.905 65.824 105.055 66.22C105.209 66.6312 108.872 68.9726 113.601 71.6834C124.139 77.7216 123.239 76.2216 123.243 87.7232C123.247 94.7818 123.374 97.2717 123.755 97.8885C124.035 98.3378 127.795 100.713 132.113 103.173C136.43 105.632 140.267 108.039 140.636 108.518C141.562 109.721 141.666 129.82 140.751 131.316C140.167 132.279 123.443 141.991 121.659 142.406C120.844 142.597 119.049 141.725 112.252 137.845C107.631 135.207 103.475 133.048 103.009 133.048C102.548 133.048 98.4268 135.192 93.8518 137.807C89.2729 140.427 85.1055 142.566 84.5864 142.566C84.0636 142.566 79.7308 140.274 74.8675 137.427L66.0942 132.287ZM92.9637 134.012L100.941 129.458V112.832C85.6475 121.539 84.6941 121.981 83.9252 121.581C83.4523 121.337 79.8192 119.274 75.8517 117.001C71.8879 114.728 68.5586 112.87 68.4509 112.87C68.3471 112.87 68.2625 116.544 68.2625 121.033V129.199C80.7765 136.608 84.5403 138.717 84.6979 138.664C84.8556 138.611 88.5771 136.517 92.9637 134.012ZM130.256 133.551L137.849 129.211C137.849 116.94 137.737 113.27 137.603 113.136C137.468 113.003 133.747 114.949 129.333 117.461C122.159 121.547 121.217 121.984 120.448 121.581C119.975 121.333 116.335 119.274 112.356 117.001C108.376 114.728 105.047 112.87 104.955 112.87C104.863 112.87 104.786 116.544 104.786 121.033V129.195C120.048 138.234 121.029 138.713 121.798 138.325C122.274 138.089 126.081 135.938 130.256 133.551ZM63.7875 127.958C64.3373 127.501 64.418 126.313 64.418 118.619C64.418 111.454 64.5256 109.626 64.9947 108.857C65.3407 108.29 68.8546 106.021 73.8217 103.162C78.3583 100.546 82.2528 98.0751 82.472 97.6677C82.718 97.2146 82.8718 93.3846 82.8718 87.7727C82.8718 82.119 83.0294 78.2394 83.2831 77.634C83.5869 76.9145 85.8667 75.4106 91.9103 71.9384C96.4276 69.3457 100.307 66.8862 100.534 66.4674C101.241 65.154 101.083 34.0337 100.357 32.5603C99.3303 30.4777 98.2269 30.2531 89.023 30.2607C79.6654 30.2645 80.0076 30.1769 79.2002 32.8687C78.1353 36.4094 78.4544 36.3447 62.5188 36.3447C46.4332 36.3447 46.6831 36.3941 45.4529 32.9181C44.4648 30.1313 44.9569 30.2645 35.6685 30.2607C26.088 30.2531 25.2229 30.4511 24.035 32.9562C23.1738 34.7685 22.8239 122.719 23.6659 125.388C23.8735 126.054 24.4809 127.021 25.0115 127.539C25.9726 128.48 25.9726 128.48 44.5648 128.48C59.7776 128.48 63.2762 128.384 63.7875 127.958ZM70.5693 109.063L84.4096 117.819L99.0188 109.824L85.563 101.448L70.5693 109.063ZM107.092 109.063L120.933 117.819L135.542 109.824L122.086 101.448L107.092 109.063ZM111.398 102.571L119.395 97.9875C119.395 85.3247 119.295 81.6507 119.176 81.6507C119.057 81.6507 115.512 83.6228 111.306 86.029C107.096 88.439 103.344 90.4035 102.971 90.3997C102.594 90.3959 98.8382 88.4237 94.6245 86.0214C90.4109 83.619 86.9086 81.6507 86.8393 81.6507C86.7701 81.6507 86.7355 85.378 86.7586 89.9314L86.7971 98.2121C98.6536 105.145 102.391 107.159 102.748 107.159C103.109 107.159 107.004 105.096 111.398 102.571ZM102.863 86.6001L117.088 78.6049L103.248 69.8483L88.6386 77.8434L102.863 86.6001ZM75.9516 28.5398C75.9516 24.1006 76.0247 24.1615 70.7615 24.1615C65.8059 24.1615 65.5714 24.0321 65.5714 21.3023C65.5714 19.6652 65.3984 19.1931 64.4949 18.3327C62.0959 16.0559 59.0356 17.7083 59.0356 21.2833C59.0356 24.0359 58.8088 24.1615 53.8455 24.1615C48.5823 24.1615 48.6554 24.0968 48.6554 28.5589C48.6554 31.2087 48.7938 32.1491 49.2321 32.4803C49.6396 32.7887 53.5072 32.9181 62.4188 32.9181C77.105 32.9181 75.9516 33.2913 75.9516 28.5398Z" fill="white" fill-opacity="0.988235"/>
<path d="M51.5425 57.5695C52.1153 56.2826 82.6717 56.0123 83.8328 57.2839C84.4441 57.954 84.471 58.1748 84.0212 59.001C83.5098 59.949 83.5098 59.949 67.8126 59.949C52.5267 59.949 52.1038 59.93 51.6386 59.1876C51.3041 58.6507 51.2772 58.171 51.5425 57.5695Z" fill="white" fill-opacity="0.988235"/>
<path d="M31.3702 76.2934C32.0968 74.9456 33.6423 75.3759 35.8683 77.5536L37.9059 79.5448C45.9487 70.2437 46.8598 69.6422 47.9594 70.9823C49.0589 72.3263 48.932 72.5471 43.6573 78.5892C40.3241 82.4078 38.4018 84.3152 37.8905 84.3152C37.4253 84.3152 35.9106 83.0436 34.046 81.0943C30.8435 77.7363 30.7128 77.5041 31.3702 76.2934Z" fill="white" fill-opacity="0.988235"/>
<path d="M31.4319 97.3361C32.4045 96.3728 33.7924 96.8449 35.83 98.8361L37.8292 100.789C46.0642 91.4387 46.8331 90.9475 48.021 92.2458C49.0514 93.3765 48.8745 93.6811 43.8151 99.5976C39.6284 104.497 38.8287 105.255 37.8561 105.255C36.9565 105.255 36.176 104.665 33.8539 102.221C31.0128 99.2321 30.5207 98.2384 31.4319 97.3361Z" fill="white" fill-opacity="0.988235"/>
<path d="M31.5741 54.8358C32.5737 53.8459 33.3426 54.1353 35.6109 56.3587L37.7753 58.4793C45.995 49.0298 47.3021 48.2531 48.2555 50.0235C48.913 51.238 48.8399 51.3598 43.7613 57.2838C40.1128 61.5403 38.6442 62.9947 37.9945 62.9947C37.4063 62.9947 36.1145 61.9705 34.0461 59.8613C30.8975 56.6557 30.5168 55.8828 31.5741 54.8358Z" fill="white" fill-opacity="0.988235"/>
<path d="M51.5425 78.89C52.1461 77.527 74.629 77.3405 75.1364 78.6958C75.3171 79.1679 75.3402 79.8989 75.1864 80.3177C74.9211 81.0525 74.5213 81.083 63.5144 81.1743C52.4729 81.2657 52.1 81.2467 51.6386 80.5081C51.3041 79.9713 51.2772 79.4915 51.5425 78.89Z" fill="white" fill-opacity="0.988235"/>
<path d="M51.9503 99.3805C53.046 98.2955 66.1059 98.5125 66.894 99.628C67.6667 100.717 67.6514 100.911 66.7248 101.829C66.0136 102.533 65.4446 102.59 59.228 102.59C53.5458 102.59 52.4116 102.495 51.9234 101.977C51.1775 101.189 51.1891 100.134 51.9503 99.3805Z" fill="white" fill-opacity="0.988235"/>
</svg>
