<svg width="145" height="144" viewBox="0 0 145 144" fill="none" xmlns="http://www.w3.org/2000/svg">
<path d="M45.2913 16.4905C45.5317 16.4892 45.7722 16.488 46.0199 16.4867C46.8288 16.4834 47.6375 16.486 48.4464 16.4885C49.025 16.4874 49.6036 16.486 50.1822 16.4842C51.7561 16.4805 53.33 16.482 54.9039 16.4845C56.5485 16.4866 58.1932 16.4847 59.8378 16.4834C62.6001 16.4819 65.3623 16.4839 68.1246 16.4877C71.3213 16.4921 74.5179 16.4907 77.7146 16.4863C80.4558 16.4826 83.197 16.4821 85.9382 16.4842C87.5769 16.4854 89.2156 16.4856 90.8543 16.4829C92.3947 16.4806 93.935 16.4822 95.4753 16.4869C96.0417 16.488 96.6082 16.4877 97.1746 16.4859C97.9457 16.4837 98.7165 16.4864 99.4876 16.4905C99.8267 16.4878 99.8267 16.4878 100.173 16.485C101.694 16.5006 101.694 16.5006 102.276 16.9524C102.834 17.6767 102.714 18.3568 102.703 19.2538C102.701 19.4324 102.7 19.611 102.699 19.795C102.695 20.3644 102.684 20.9336 102.674 21.503C102.67 21.8894 102.666 22.2759 102.663 22.6624C102.654 23.6089 102.64 24.5552 102.623 25.5016C103.101 25.4998 103.101 25.4998 103.588 25.4979C106.587 25.487 109.586 25.4789 112.585 25.4736C114.126 25.4708 115.668 25.4669 117.21 25.4608C118.698 25.455 120.185 25.4517 121.673 25.4503C122.241 25.4493 122.809 25.4474 123.376 25.4445C124.171 25.4406 124.966 25.44 125.761 25.4403C126.114 25.4374 126.114 25.4374 126.473 25.4344C127.631 25.4383 128.58 25.4617 129.618 26.0415C130.307 27.1591 130.241 28.3852 130.239 29.6604C130.24 29.877 130.242 30.0936 130.243 30.3167C130.244 30.7732 130.244 31.2297 130.243 31.6862C130.242 32.3829 130.249 33.0794 130.256 33.7761C130.256 34.2207 130.256 34.6653 130.256 35.11C130.259 35.3173 130.261 35.5245 130.264 35.7381C130.253 36.9614 130.111 37.7588 129.348 38.729C128.617 39.0946 127.996 39.0165 127.189 38.9989C127.189 39.2795 127.189 39.2795 127.19 39.5657C127.208 50.6428 127.222 61.7199 127.23 72.7969C127.231 74.1259 127.232 75.4549 127.233 76.7839C127.233 77.0485 127.234 77.313 127.234 77.5856C127.237 81.8741 127.244 86.1625 127.251 90.451C127.259 94.8488 127.263 99.2466 127.265 103.644C127.266 106.36 127.269 109.075 127.276 111.79C127.28 113.651 127.282 115.511 127.281 117.371C127.28 118.445 127.281 119.519 127.285 120.594C127.289 121.577 127.289 122.559 127.287 123.542C127.286 124.068 127.29 124.594 127.293 125.119C127.292 125.43 127.29 125.74 127.288 126.059C127.289 126.462 127.289 126.462 127.289 126.873C127.189 127.541 127.189 127.541 126.889 128.033C126.123 128.511 125.493 128.453 124.595 128.453C124.412 128.454 124.229 128.456 124.041 128.457C123.423 128.46 122.805 128.457 122.188 128.454C121.742 128.455 121.297 128.456 120.851 128.458C119.623 128.461 118.396 128.46 117.168 128.457C115.845 128.455 114.522 128.458 113.2 128.46C110.607 128.464 108.015 128.463 105.422 128.461C103.316 128.459 101.21 128.459 99.1032 128.46C98.8039 128.46 98.5045 128.46 98.1961 128.46C97.5881 128.46 96.9801 128.461 96.3721 128.461C90.6654 128.463 84.9588 128.46 79.2522 128.456C74.3515 128.453 69.4509 128.453 64.5502 128.457C58.8645 128.461 53.1788 128.463 47.4932 128.46C46.8873 128.46 46.2815 128.46 45.6757 128.46C45.3776 128.46 45.0795 128.459 44.7723 128.459C42.6676 128.459 40.5629 128.46 38.4582 128.462C35.8946 128.464 33.331 128.463 30.7674 128.459C29.4585 128.457 28.1496 128.456 26.8406 128.459C25.6437 128.461 24.4469 128.46 23.2501 128.456C22.8157 128.455 22.3814 128.455 21.9471 128.457C21.3592 128.459 20.7716 128.457 20.1838 128.453C19.8565 128.453 19.5293 128.453 19.1921 128.453C18.4001 128.351 18.4001 128.351 17.8899 128.033C17.4738 127.351 17.4897 126.857 17.4906 126.059C17.489 125.749 17.4874 125.439 17.4857 125.119C17.4881 124.777 17.4904 124.435 17.4929 124.083C17.4925 123.717 17.4918 123.351 17.4908 122.985C17.4889 121.977 17.4922 120.97 17.4962 119.962C17.4997 118.876 17.4986 117.79 17.4979 116.704C17.4975 114.822 17.5001 112.94 17.5046 111.058C17.5112 108.337 17.5133 105.616 17.5143 102.895C17.5161 98.4801 17.5215 94.0655 17.5291 89.6509C17.5366 85.3619 17.5423 81.0729 17.5458 76.7839C17.5461 76.3875 17.5461 76.3875 17.5464 75.9831C17.5475 74.6574 17.5485 73.3317 17.5495 72.006C17.5579 61.0036 17.5722 50.0013 17.5902 38.9989C17.2087 39.0099 17.2087 39.0099 16.8194 39.021C15.861 38.996 15.5587 38.857 14.8908 38.1891C14.5455 37.1533 14.577 36.1736 14.5755 35.0942C14.5746 34.8702 14.5737 34.6462 14.5728 34.4154C14.5714 33.9419 14.5708 33.4683 14.5708 32.9948C14.5702 32.2708 14.5653 31.5469 14.5602 30.823C14.5594 30.3627 14.5589 29.9024 14.5586 29.4422C14.5567 29.2259 14.5547 29.0096 14.5527 28.7868C14.5606 26.8656 14.5606 26.8656 15.1607 26.0415C16.0917 25.576 17.1659 25.7368 18.1904 25.7409C18.5775 25.7408 18.5775 25.7408 18.9725 25.7407C19.8285 25.7409 20.6844 25.743 21.5403 25.7451C22.1327 25.7456 22.725 25.746 23.3174 25.7463C24.8786 25.7473 26.4399 25.75 28.0011 25.753C29.5934 25.7557 31.1856 25.757 32.7779 25.7583C35.9037 25.7612 39.0296 25.7658 42.1554 25.7715C42.1512 25.5222 42.1469 25.273 42.1425 25.0162C42.1287 24.091 42.1186 23.1659 42.1109 22.2406C42.1068 21.8403 42.1013 21.4399 42.0943 21.0396C42.0845 20.464 42.0799 19.8885 42.0763 19.3128C42.0721 18.9665 42.0678 18.6201 42.0635 18.2633C42.1554 17.4032 42.1554 17.4032 42.5025 16.9508C43.3093 16.3274 44.3121 16.4827 45.2913 16.4905ZM45.9347 20.1026C45.9347 25.0912 45.9347 30.0799 45.9347 35.2196C63.3948 35.2196 80.855 35.2196 98.8442 35.2196C98.8442 30.231 98.8442 25.2424 98.8442 20.1026C81.3841 20.1026 63.9239 20.1026 45.9347 20.1026ZM18.4001 29.2808C18.4001 31.2406 18.4001 33.2004 18.4001 35.2196C26.2393 35.2196 34.0786 35.2196 42.1554 35.2196C42.1554 33.2598 42.1554 31.3 42.1554 29.2808C34.3161 29.2808 26.4769 29.2808 18.4001 29.2808ZM102.623 29.2808C102.623 31.2406 102.623 33.2004 102.623 35.2196C110.463 35.2196 118.302 35.2196 126.379 35.2196C126.379 33.2598 126.379 31.3 126.379 29.2808C118.54 29.2808 110.7 29.2808 102.623 29.2808ZM21.0996 38.9989C21.0996 67.3271 21.0996 95.6553 21.0996 124.842C23.4157 124.842 25.7318 124.842 28.1182 124.842C28.1209 123.896 28.1237 122.951 28.1266 121.976C28.1522 113.311 28.1792 104.647 28.2076 95.9823C28.2113 94.8476 28.215 93.7129 28.2187 92.5782C28.2194 92.3523 28.2201 92.1264 28.2209 91.8936C28.2328 88.2317 28.2438 84.5698 28.2544 80.9078C28.2653 77.1527 28.2772 73.3976 28.2901 69.6426C28.298 67.3239 28.3051 65.0052 28.3112 62.6865C28.3155 61.0983 28.3207 59.5102 28.3267 57.922C28.3302 57.0046 28.3332 56.0871 28.335 55.1697C28.3373 54.1769 28.3411 53.1841 28.3454 52.1913C28.3457 51.8988 28.3459 51.6063 28.3462 51.3049C28.3484 50.9083 28.3484 50.9083 28.3507 50.5038C28.3518 50.1596 28.3518 50.1596 28.3529 49.8086C28.3881 49.2569 28.3881 49.2569 28.6581 48.717C29.4843 48.4416 30.041 48.4132 30.9059 48.4131C31.2061 48.4124 31.5062 48.4117 31.8154 48.4109C32.1465 48.4115 32.4776 48.4121 32.8188 48.4128C33.1694 48.4123 33.5201 48.4119 33.8814 48.4115C34.8568 48.4104 35.8321 48.4109 36.8075 48.4118C37.8585 48.4124 38.9096 48.4114 39.9607 48.4107C42.0206 48.4095 44.0805 48.4097 46.1404 48.4105C47.814 48.4111 49.4877 48.4112 51.1613 48.4109C51.5181 48.4109 51.5181 48.4109 51.8822 48.4108C52.3654 48.4107 52.8487 48.4106 53.3319 48.4105C57.8668 48.4098 62.4017 48.4106 66.9366 48.4121C70.8305 48.4133 74.7244 48.4131 78.6183 48.4118C83.1365 48.4104 87.6548 48.4098 92.1731 48.4107C92.6546 48.4107 93.1361 48.4108 93.6176 48.4109C93.8545 48.411 94.0915 48.411 94.3356 48.411C96.0078 48.4113 97.6801 48.4109 99.3523 48.4102C101.389 48.4095 103.426 48.4097 105.463 48.4111C106.503 48.4118 107.543 48.4121 108.583 48.4112C109.709 48.4103 110.834 48.4114 111.96 48.4128C112.291 48.4122 112.622 48.4116 112.963 48.4109C113.264 48.4116 113.564 48.4123 113.873 48.4131C114.133 48.4131 114.393 48.4132 114.661 48.4132C115.311 48.447 115.311 48.447 116.121 48.717C116.446 49.3679 116.426 49.7765 116.428 50.5038C116.43 50.7681 116.431 51.0325 116.433 51.3049C116.433 51.7437 116.433 51.7437 116.433 52.1913C116.435 52.5004 116.436 52.8095 116.438 53.128C116.441 53.9886 116.443 54.8492 116.445 55.7097C116.447 56.6368 116.451 57.5638 116.454 58.4909C116.46 60.0979 116.465 61.705 116.469 63.312C116.475 65.6355 116.483 67.9591 116.491 70.2826C116.504 74.0521 116.516 77.8216 116.526 81.591C116.537 85.2534 116.548 88.9158 116.56 92.5782C116.561 92.8038 116.562 93.0295 116.562 93.2619C116.566 94.3938 116.57 95.5257 116.574 96.6576C116.604 106.052 116.633 115.447 116.661 124.842C118.977 124.842 121.293 124.842 123.679 124.842C123.679 96.5138 123.679 68.1856 123.679 38.9989C89.828 38.9989 55.9767 38.9989 21.0996 38.9989ZM31.8974 51.9563C31.8974 53.9162 31.8974 55.876 31.8974 57.8952C58.6222 57.8952 85.3469 57.8952 112.881 57.8952C112.881 55.9354 112.881 53.9755 112.881 51.9563C86.1567 51.9563 59.432 51.9563 31.8974 51.9563ZM31.8974 61.6744C31.8974 82.5197 31.8974 103.365 31.8974 124.842C35.1935 124.842 38.4895 124.842 41.8855 124.842C41.8894 124.061 41.8933 123.28 41.8974 122.476C41.911 119.9 41.9289 117.323 41.9491 114.747C41.9612 113.185 41.9718 111.623 41.979 110.06C41.986 108.553 41.9969 107.046 42.0105 105.539C42.015 104.963 42.0181 104.388 42.0198 103.812C42.0224 103.007 42.0299 102.203 42.0387 101.398C42.0383 101.159 42.0379 100.919 42.0375 100.672C42.0409 100.453 42.0443 100.234 42.0478 100.008C42.0496 99.7228 42.0496 99.7228 42.0515 99.4315C42.1872 98.7728 42.4436 98.5292 42.9652 98.1172C43.5648 98.0096 43.5648 98.0096 44.2714 98.0005C44.5362 97.9952 44.8009 97.9898 45.0737 97.9843C45.5014 97.9818 45.5014 97.9818 45.9378 97.9791C46.2303 97.9743 46.5227 97.9694 46.824 97.9644C47.7592 97.9498 48.6943 97.9407 49.6296 97.9317C50.2631 97.9227 50.8967 97.9134 51.5303 97.9037C53.0843 97.8808 54.6384 97.8623 56.1926 97.8473C56.195 97.363 56.195 97.363 56.1974 96.8689C56.2129 93.8301 56.2325 90.7914 56.2563 87.7526C56.2684 86.1903 56.2789 84.6279 56.2862 83.0655C56.2932 81.5585 56.3041 80.0515 56.3177 78.5445C56.3222 77.9688 56.3253 77.3931 56.327 76.8174C56.3296 76.0126 56.3371 75.208 56.3459 74.4033C56.3453 74.0441 56.3453 74.0441 56.3447 73.6778C56.3498 73.349 56.3498 73.349 56.3549 73.0136C56.3562 72.8233 56.3574 72.6329 56.3587 72.4368C56.4981 71.7598 56.7148 71.5255 57.2724 71.1226C57.842 71.0207 57.842 71.0207 58.5122 71.0197C58.8937 71.0163 58.8937 71.0163 59.2829 71.0128C59.5614 71.0145 59.8399 71.0161 60.1269 71.0178C60.5675 71.0157 60.5675 71.0157 61.0169 71.0135C61.9902 71.0099 62.9634 71.0123 63.9367 71.015C64.6115 71.0145 65.2863 71.0137 65.961 71.0127C67.3762 71.0115 68.7913 71.0131 70.2064 71.017C71.8427 71.0214 73.479 71.02 75.1153 71.0155C76.6891 71.0114 78.2629 71.0118 79.8367 71.0142C80.5066 71.0147 81.1765 71.0141 81.8464 71.0122C82.7816 71.0101 83.7167 71.0133 84.652 71.0178C85.0698 71.0153 85.0698 71.0153 85.496 71.0128C85.7503 71.0151 86.0047 71.0174 86.2667 71.0197C86.5985 71.0202 86.5985 71.0202 86.9369 71.0207C87.6562 71.1494 87.893 71.342 88.3163 71.9324C88.4202 72.4368 88.4202 72.4368 88.4239 73.0136C88.4273 73.2328 88.4307 73.452 88.4342 73.6778C88.4338 73.9172 88.4334 74.1566 88.433 74.4033C88.4372 74.7826 88.4372 74.7826 88.4414 75.1696C88.4495 76.0065 88.452 76.8434 88.4544 77.6804C88.459 78.2602 88.4639 78.8401 88.4691 79.42C88.482 80.947 88.49 82.4741 88.4971 84.0012C88.5051 85.5591 88.5177 87.117 88.5298 88.6749C88.5531 91.7324 88.5713 94.7898 88.5863 97.8473C88.7542 97.8489 88.922 97.8505 89.095 97.8521C90.8379 97.8693 92.5806 97.8921 94.3233 97.9182C94.9742 97.9271 95.6252 97.9347 96.2762 97.9408C97.2103 97.9498 98.1443 97.964 99.0783 97.9791C99.3708 97.9808 99.6632 97.9826 99.9645 97.9843C100.235 97.9897 100.505 97.995 100.783 98.0005C101.022 98.0035 101.26 98.0065 101.506 98.0096C101.792 98.0629 101.792 98.0629 102.084 98.1172C102.628 98.9343 102.691 99.0926 102.699 100.008C102.703 100.337 102.703 100.337 102.708 100.672C102.708 100.912 102.709 101.151 102.71 101.398C102.712 101.651 102.715 101.904 102.718 102.164C102.726 103.001 102.731 103.838 102.735 104.675C102.74 105.255 102.746 105.835 102.751 106.415C102.765 107.942 102.776 109.469 102.786 110.996C102.796 112.554 102.81 114.112 102.824 115.67C102.85 118.727 102.872 121.785 102.893 124.842C106.189 124.842 109.486 124.842 112.881 124.842C112.881 103.997 112.881 83.1514 112.881 61.6744C86.1567 61.6744 59.432 61.6744 31.8974 61.6744ZM59.9719 74.6319C59.9719 82.293 59.9719 89.9541 59.9719 97.8473C68.1675 97.8473 76.3631 97.8473 84.807 97.8473C84.807 90.1862 84.807 82.5251 84.807 74.6319C82.7581 74.6319 80.7092 74.6319 78.5982 74.6319C78.5881 75.126 78.578 75.6201 78.5676 76.1292C78.5499 76.7774 78.532 77.4256 78.5139 78.0737C78.5078 78.3994 78.5017 78.7251 78.4954 79.0607C78.4811 79.5305 78.4811 79.5305 78.4664 80.0097C78.4593 80.2981 78.4523 80.5865 78.445 80.8836C78.3081 81.7831 78.2239 82.1469 77.5184 82.7303C76.7198 82.8396 76.0228 82.8817 75.2239 82.8737C74.9993 82.8747 74.7746 82.8758 74.5432 82.8768C74.0685 82.8776 73.5938 82.8756 73.1191 82.8711C72.392 82.8653 71.6656 82.871 70.9385 82.8779C70.4773 82.8772 70.0162 82.8758 69.555 82.8737C69.3373 82.8759 69.1197 82.8781 68.8954 82.8803C67.4118 82.8554 67.4118 82.8554 66.7208 82.284C66.3841 81.4945 66.3335 80.8682 66.3125 80.0097C66.3029 79.6965 66.2933 79.3834 66.2835 79.0607C66.2774 78.735 66.2713 78.4093 66.265 78.0737C66.2512 77.5789 66.2512 77.5789 66.2371 77.0741C66.2148 76.2601 66.1973 75.446 66.1807 74.6319C64.1318 74.6319 62.0829 74.6319 59.9719 74.6319ZM69.9599 74.6319C69.9599 76.1463 69.9599 77.6607 69.9599 79.221C71.5634 79.221 73.1669 79.221 74.819 79.221C74.819 77.7066 74.819 76.1922 74.819 74.6319C73.2155 74.6319 71.612 74.6319 69.9599 74.6319ZM45.6647 101.627C45.6647 109.288 45.6647 116.949 45.6647 124.842C53.8603 124.842 62.0559 124.842 70.4998 124.842C70.4998 117.181 70.4998 109.52 70.4998 101.627C68.4509 101.627 66.402 101.627 64.291 101.627C64.2841 102.121 64.2771 102.615 64.27 103.124C64.2548 103.772 64.2393 104.42 64.2236 105.068C64.2197 105.394 64.2159 105.72 64.212 106.055C64.2033 106.369 64.1946 106.682 64.1856 107.004C64.1799 107.293 64.1743 107.581 64.1685 107.878C64.0211 108.645 64.0211 108.645 63.608 109.279C62.6788 109.901 61.8292 109.88 60.748 109.868C60.5364 109.869 60.3248 109.87 60.1067 109.872C59.6602 109.872 59.2137 109.87 58.7671 109.866C58.0845 109.86 57.4025 109.866 56.7199 109.873C56.2854 109.872 55.851 109.87 55.4165 109.868C55.2129 109.871 55.0093 109.873 54.7995 109.875C53.892 109.859 53.318 109.788 52.5565 109.279C52.0335 108.477 51.9977 107.959 51.9789 107.004C51.9702 106.691 51.9615 106.378 51.9526 106.055C51.9487 105.73 51.9449 105.404 51.941 105.068C51.933 104.739 51.925 104.409 51.9167 104.069C51.8976 103.255 51.885 102.441 51.8735 101.627C49.8246 101.627 47.7757 101.627 45.6647 101.627ZM55.6527 101.627C55.6527 103.141 55.6527 104.655 55.6527 106.216C57.2562 106.216 58.8597 106.216 60.5118 106.216C60.5118 104.701 60.5118 103.187 60.5118 101.627C58.9083 101.627 57.3048 101.627 55.6527 101.627ZM74.2791 101.627C74.2791 109.288 74.2791 116.949 74.2791 124.842C82.4747 124.842 90.6702 124.842 99.1142 124.842C99.1142 117.181 99.1142 109.52 99.1142 101.627C97.0653 101.627 95.0164 101.627 92.9054 101.627C92.8984 102.121 92.8915 102.615 92.8843 103.124C92.8691 103.772 92.8536 104.42 92.8379 105.068C92.8341 105.394 92.8303 105.72 92.8263 106.055C92.8176 106.369 92.8089 106.682 92.8 107.004C92.7943 107.293 92.7887 107.581 92.7828 107.878C92.6355 108.645 92.6355 108.645 92.2224 109.279C91.2932 109.901 90.4435 109.88 89.3624 109.868C89.1507 109.869 88.9391 109.87 88.7211 109.872C88.2746 109.872 87.828 109.87 87.3815 109.866C86.6988 109.86 86.0169 109.866 85.3342 109.873C84.8998 109.872 84.4653 109.87 84.0309 109.868C83.8273 109.871 83.6237 109.873 83.4139 109.875C82.5064 109.859 81.9323 109.788 81.1709 109.279C80.6478 108.477 80.612 107.959 80.5933 107.004C80.5846 106.691 80.5759 106.378 80.5669 106.055C80.5631 105.73 80.5593 105.404 80.5553 105.068C80.5473 104.739 80.5393 104.409 80.5311 104.069C80.512 103.255 80.4993 102.441 80.4878 101.627C78.439 101.627 76.3901 101.627 74.2791 101.627ZM84.2671 101.627C84.2671 103.141 84.2671 104.655 84.2671 106.216C85.8706 106.216 87.4741 106.216 89.1262 106.216C89.1262 104.701 89.1262 103.187 89.1262 101.627C87.5227 101.627 85.9192 101.627 84.2671 101.627Z" fill="white"/>
</svg>
