<svg width="150" height="150" viewBox="0 0 150 150" fill="none" xmlns="http://www.w3.org/2000/svg">
<g clip-path="url(#clip0_339_184)">
<path d="M142.903 134.329H139.82V75.0386C144.197 73.6012 147.369 69.4822 147.369 64.63V53.7513C147.369 53.6229 147.304 53.1977 147.25 53.0387L139.824 31.5095V13.5398C139.824 7.15805 134.633 1.9668 128.251 1.9668H21.7412C15.3609 1.9668 10.1697 7.15805 10.1697 13.5398V31.5092L2.74415 53.0384C2.69015 53.195 2.62475 53.6157 2.62475 53.751V64.6297C2.62475 69.4816 5.79596 73.6 10.1727 75.0377V89.5332C10.1727 90.7393 11.151 91.7177 12.3571 91.7177C13.5632 91.7177 14.5416 90.7393 14.5416 89.5332V75.5397C17.7371 75.2609 20.536 73.6036 22.3556 71.1681C24.3552 73.8448 27.5382 75.5883 31.1294 75.5883C34.7207 75.5883 37.9036 73.8448 39.9032 71.1681C41.9028 73.8448 45.0855 75.5883 48.6758 75.5883C52.2671 75.5883 55.45 73.8445 57.4496 71.1681C59.4493 73.8448 62.6325 75.5883 66.2234 75.5883C69.8138 75.5883 72.9964 73.8448 74.996 71.1681C76.9957 73.8448 80.1786 75.5883 83.7698 75.5883C87.3611 75.5883 90.544 73.8448 92.5436 71.1681C94.5433 73.8448 97.7259 75.5883 101.316 75.5883C104.907 75.5883 108.09 73.8445 110.09 71.1681C112.09 73.8448 115.273 75.5883 118.864 75.5883C122.454 75.5883 125.637 73.8448 127.636 71.1681C129.456 73.6033 132.254 75.2606 135.45 75.5397V134.329H59.5177V89.6346C59.5177 86.0278 56.5823 83.0924 52.9754 83.0924H29.053C25.4461 83.0924 22.5107 86.0278 22.5107 89.6346V134.329H14.5419V100.732C14.5419 99.5263 13.5635 98.548 12.3574 98.548C11.1513 98.548 10.173 99.5263 10.173 100.732V134.329H7.09055C3.17648 134.329 -0.00793457 137.513 -0.00793457 141.427C-0.00793457 145.34 3.17648 148.524 7.09055 148.524H142.903C146.817 148.524 150 145.34 150 141.427C150 137.513 146.817 134.329 142.903 134.329ZM14.5389 13.5398C14.5389 9.56752 17.7701 6.336 21.7412 6.336H128.251C132.223 6.336 135.455 9.56722 135.455 13.5398V29.6908H14.5389V13.5398ZM13.9118 34.06H136.082L142.119 51.5665C94.942 51.5665 57.0251 51.5665 7.87421 51.5665L13.9118 34.06ZM13.583 71.2194C9.94915 71.2194 6.99365 68.2639 6.99365 64.63V55.9357H20.1709V64.63C20.1712 68.2639 17.2156 71.2194 13.583 71.2194ZM31.1294 71.2194C27.4956 71.2194 24.5401 68.2639 24.5401 64.63V55.9357H37.7188V64.63C37.7188 68.2639 34.7633 71.2194 31.1294 71.2194ZM48.6758 71.2194C45.0435 71.2194 42.088 68.2639 42.088 64.63V55.9357H55.2652V64.63C55.2652 68.2639 52.3097 71.2194 48.6758 71.2194ZM66.2234 71.2194C62.5896 71.2194 59.6341 68.2639 59.6341 64.63V55.9357H72.8113V64.63C72.8116 68.2639 69.8561 71.2194 66.2234 71.2194ZM83.7698 71.2194C80.136 71.2194 77.1805 68.2639 77.1805 64.63V55.9357H90.3592V64.63C90.3592 68.2639 87.4037 71.2194 83.7698 71.2194ZM101.316 71.2194C97.6839 71.2194 94.7284 68.2639 94.7284 64.63V55.9357H107.906V64.63C107.906 68.2639 104.95 71.2194 101.316 71.2194ZM118.864 71.2194C115.23 71.2194 112.275 68.2639 112.275 64.63V55.9357H125.452V64.63C125.452 68.2639 122.496 71.2194 118.864 71.2194ZM129.821 64.63V55.9357H143V64.63C143 68.2639 140.044 71.2194 136.41 71.2194C132.776 71.2194 129.821 68.2639 129.821 64.63ZM26.8799 89.6346C26.8799 88.4358 27.8541 87.4616 29.0533 87.4616H52.9757C54.1746 87.4616 55.1488 88.4358 55.1488 89.6346V134.329H26.8799V89.6346ZM142.903 144.155H7.09055C5.58595 144.155 4.36127 142.932 4.36127 141.428C4.36127 139.923 5.58595 138.698 7.09055 138.698C27.1559 138.699 119.093 138.698 142.903 138.698C144.408 138.698 145.631 139.923 145.631 141.428C145.631 142.932 144.408 144.155 142.903 144.155Z" fill="white"/>
<path d="M123.338 129.223C126.912 129.223 129.821 126.315 129.821 122.739V89.5761C129.821 86.0005 126.912 83.0921 123.338 83.0921H75.0842C71.5086 83.0921 68.6002 86.0005 68.6002 89.5761V122.739C68.6002 126.315 71.5086 129.223 75.0842 129.223H123.338ZM125.452 89.5761V122.739C125.452 123.905 124.503 124.854 123.339 124.854H101.396V87.4613H123.339C124.503 87.4613 125.452 88.41 125.452 89.5761ZM72.9694 122.739V89.5761C72.9694 88.41 73.918 87.4613 75.0842 87.4613H97.0268V124.854H75.0842C73.918 124.854 72.9694 123.905 72.9694 122.739Z" fill="white"/>
<path d="M49.8606 106.935C48.6545 106.935 47.6761 107.913 47.6761 109.119V112.672C47.6761 113.878 48.6545 114.857 49.8606 114.857C51.0667 114.857 52.045 113.878 52.045 112.672V109.119C52.045 107.913 51.0667 106.935 49.8606 106.935Z" fill="white"/>
<path d="M50.8305 14.5211C50.8305 11.3907 48.2833 8.84503 45.1529 8.84503C42.0225 8.84503 39.4768 11.391 39.4768 14.5211C39.4768 16.6528 40.6712 18.4919 42.4131 19.4625C42.1779 19.3758 41.9268 19.3215 41.6616 19.3215C40.4555 19.3215 39.4771 20.2998 39.4771 21.5059C39.4771 24.6363 42.0231 27.1835 45.1532 27.1835C48.2836 27.1835 50.8308 24.6363 50.8308 21.5059C50.8308 19.3719 49.6328 17.5318 47.8873 16.5625C48.1246 16.651 48.3781 16.7059 48.646 16.7059C49.8518 16.7056 50.8305 15.7272 50.8305 14.5211ZM45.1529 22.8143C44.4319 22.8143 43.8457 22.2269 43.8457 21.5059C43.8457 20.7865 43.4929 20.1534 42.9561 19.7553C43.5013 19.9851 44.0968 20.106 44.7125 20.1543C44.8547 20.1834 45.002 20.1987 45.1529 20.1987C45.8738 20.1987 46.4613 20.7847 46.4613 21.5059C46.4613 22.2272 45.8738 22.8143 45.1529 22.8143ZM45.5936 15.8742C45.4511 15.8451 45.3038 15.8298 45.1529 15.8298C44.4319 15.8298 43.8457 15.2424 43.8457 14.5214C43.8457 13.8005 44.4316 13.2142 45.1529 13.2142C45.8741 13.2142 46.4613 13.8002 46.4613 14.5214C46.4613 15.2424 46.8153 15.8766 47.3542 16.2744C46.8078 16.0434 46.2108 15.9225 45.5936 15.8742Z" fill="white"/>
<path d="M60.5871 8.84479H52.87C51.6639 8.84479 50.6855 9.82315 50.6855 11.0292C50.6855 12.2353 51.6639 13.2137 52.87 13.2137H54.5441V24.9985C54.5441 26.2046 55.5225 27.1829 56.7286 27.1829C57.9346 27.1829 58.913 26.2046 58.913 24.9985V13.2137H60.5871C61.7932 13.2137 62.7716 12.2353 62.7716 11.0292C62.7716 9.82315 61.7932 8.84479 60.5871 8.84479Z" fill="white"/>
<path d="M71.4306 8.84479C66.3743 8.84479 62.2614 12.9581 62.2614 18.014C62.2614 23.07 66.3746 27.1832 71.4306 27.1832C76.4865 27.1832 80.5998 23.07 80.5998 18.014C80.5998 12.9581 76.4865 8.84479 71.4306 8.84479ZM71.4306 22.8143C68.7838 22.8143 66.6306 20.6611 66.6306 18.0143C66.6306 15.3675 68.7838 13.2143 71.4306 13.2143C74.0774 13.2143 76.2306 15.3675 76.2306 18.0143C76.2306 20.6611 74.0774 22.8143 71.4306 22.8143Z" fill="white"/>
<path d="M96.6542 14.5211C96.6542 11.3907 94.107 8.84503 90.9766 8.84503H86.1324C84.9264 8.84503 83.948 9.8234 83.948 11.0295V24.9987C83.948 26.2048 84.9264 27.1832 86.1324 27.1832C87.3385 27.1832 88.3169 26.2048 88.3169 24.9987V20.1987H89.6262L92.5154 25.9759C92.8979 26.741 93.6702 27.1835 94.4709 27.1835C94.7994 27.1835 95.1337 27.1094 95.4466 26.9531C96.5261 26.4127 96.9626 25.1013 96.4237 24.0219L94.0524 19.28C95.6137 18.2672 96.6542 16.5166 96.6542 14.5211ZM88.3169 13.2139H90.9766C91.6975 13.2139 92.285 13.7999 92.285 14.5211C92.285 15.2424 91.6975 15.8295 90.9766 15.8295H88.3169V13.2139Z" fill="white"/>
<path d="M108.332 13.2139C109.538 13.2139 110.517 12.2356 110.517 11.0295C110.517 9.8234 109.538 8.84503 108.332 8.84503H102.185C100.979 8.84503 100.001 9.8234 100.001 11.0295V24.9987C100.001 26.2048 100.979 27.1832 102.185 27.1832H108.332C109.538 27.1832 110.517 26.2048 110.517 24.9987C110.517 23.7927 109.538 22.8143 108.332 22.8143H104.37V20.1987H108.332C109.538 20.1987 110.517 19.2203 110.517 18.0143C110.517 16.8082 109.538 15.8298 108.332 15.8298H104.37V13.2142L108.332 13.2139Z" fill="white"/>
</g>
<defs>
<clipPath id="clip0_339_184">
<rect width="150" height="150" fill="white"/>
</clipPath>
</defs>
</svg>
