<svg width="150" height="150" viewBox="0 0 150 150" fill="none" xmlns="http://www.w3.org/2000/svg">
<path d="M117.6 146H32.4C25.868 146 20.5667 140.699 20.5667 134.167V82.1C20.5667 75.568 25.868 70.2667 32.4 70.2667H117.6C124.132 70.2667 129.433 75.568 129.433 82.1V134.167C129.433 140.699 124.132 146 117.6 146ZM32.4 75C28.495 75 25.3 78.195 25.3 82.1V134.167C25.3 138.072 28.495 141.267 32.4 141.267H117.6C121.505 141.267 124.7 138.072 124.7 134.167V82.1C124.7 78.195 121.505 75 117.6 75H32.4Z" fill="white"/>
<path d="M127.067 108.133H22.9334C21.6317 108.133 20.5667 107.068 20.5667 105.767V86.8333C20.5667 85.5317 21.6317 84.4667 22.9334 84.4667H127.067C128.368 84.4667 129.433 85.5317 129.433 86.8333V105.767C129.433 107.068 128.368 108.133 127.067 108.133ZM25.3 103.4H124.7V89.2H25.3V103.4Z" fill="white"/>
<path d="M30.0333 56.0667C15.6677 56.0667 4 44.399 4 30.0333C4 15.6677 15.6677 4 30.0333 4C44.399 4 56.0667 15.6677 56.0667 30.0333C56.0667 44.399 44.399 56.0667 30.0333 56.0667ZM30.0333 8.73333C18.2947 8.73333 8.73333 18.2947 8.73333 30.0333C8.73333 41.772 18.2947 51.3333 30.0333 51.3333C41.772 51.3333 51.3333 41.772 51.3333 30.0333C51.3333 18.2947 41.772 8.73333 30.0333 8.73333Z" fill="white"/>
<path d="M119.967 56.0667C105.601 56.0667 93.9333 44.399 93.9333 30.0333C93.9333 15.6677 105.601 4 119.967 4C134.332 4 146 15.6677 146 30.0333C146 44.399 134.332 56.0667 119.967 56.0667ZM119.967 8.73333C108.228 8.73333 98.6666 18.2947 98.6666 30.0333C98.6666 41.772 108.228 51.3333 119.967 51.3333C131.705 51.3333 141.267 41.772 141.267 30.0333C141.267 18.2947 131.705 8.73333 119.967 8.73333Z" fill="white"/>
<path d="M133.923 31.6735H129.964V27.5068H133.923C134.518 27.5068 135 26.9793 135 26.3277C135 25.6761 134.518 25.1482 133.923 25.1482H129.964V19.3667C129.964 18.5228 129.812 17.9033 129.512 17.526C129.227 17.167 128.851 17 128.332 17C127.836 17 127.475 17.1659 127.196 17.5226C126.899 17.9003 126.748 18.5209 126.748 19.3671V25.1489H119.302L116.136 19.9018C115.865 19.4335 115.61 18.9949 115.362 18.5738C115.14 18.1947 114.922 17.8859 114.717 17.6554C114.536 17.4513 114.328 17.2934 114.086 17.172C113.858 17.0577 113.567 17.0004 113.224 17.0004C112.785 17.0004 112.387 17.1319 112.006 17.4021C111.629 17.6694 111.369 17.9998 111.21 18.4123C111.07 18.8044 110.996 19.4051 110.996 20.1806V25.1485H107.077C106.482 25.1486 106 25.6765 106 26.328C106 26.9796 106.482 27.5071 107.077 27.5071H110.996V31.6743H107.077C106.482 31.6743 106 32.202 106 32.8538C106 33.5051 106.482 34.0325 107.077 34.0325H110.996V40.6335C110.996 41.4525 111.153 42.0656 111.464 42.4552C111.76 42.8268 112.136 42.9992 112.645 42.9992C113.137 42.9992 113.509 42.826 113.818 42.4538C114.134 42.0725 114.294 41.4597 114.294 40.6335V34.0325H121.032L124.679 40.156C124.932 40.5608 125.194 40.9694 125.455 41.37C125.691 41.7298 125.948 42.0467 126.219 42.3115C126.463 42.551 126.725 42.7265 126.997 42.8335C127.277 42.944 127.605 43 127.968 43C128.954 43 129.964 42.6694 129.964 40.2174V34.0325H133.923C134.518 34.0325 135 33.5044 135 32.853C135 32.2016 134.518 31.6735 133.923 31.6735ZM126.748 27.5068V31.6734H123.24L120.726 27.5068H126.748ZM114.294 22.7191L115.741 25.1482H114.294V22.7191ZM114.294 31.6735V27.5068H117.146L119.628 31.6735H114.294ZM126.748 37.4892L124.663 34.0325H126.748V37.4892Z" fill="white"/>
<path d="M82.1 65.5334C80.7983 65.5334 79.7333 64.4684 79.7333 63.1667V34.7667C79.7333 30.8617 82.9283 27.6667 86.8333 27.6667H96.3C97.6017 27.6667 98.6667 28.7317 98.6667 30.0334C98.6667 31.335 97.6017 32.4 96.3 32.4H86.8333C85.5317 32.4 84.4667 33.465 84.4667 34.7667V63.1667C84.4667 64.4684 83.4017 65.5334 82.1 65.5334Z" fill="white"/>
<path d="M67.9 65.5334C66.5983 65.5334 65.5333 64.4684 65.5333 63.1667V34.7667C65.5333 33.465 64.4683 32.4 63.1666 32.4H53.7C52.3983 32.4 51.3333 31.335 51.3333 30.0334C51.3333 28.7317 52.3983 27.6667 53.7 27.6667H63.1666C67.0716 27.6667 70.2666 30.8617 70.2666 34.7667V63.1667C70.2666 64.4684 69.2016 65.5334 67.9 65.5334Z" fill="white"/>
<path d="M25.8207 41.8668C25.1817 41.8668 24.5664 41.6064 24.1167 41.1331L16.4961 33.1811C15.5967 32.2344 15.6204 30.7434 16.5671 29.8441C17.5137 28.9448 19.0047 28.9684 19.9041 29.9151L25.8207 36.0921L40.1627 21.3004C41.0621 20.3538 42.5767 20.3301 43.4997 21.2531C44.4464 22.1524 44.4701 23.6671 43.5471 24.5901L27.5011 41.1568C27.0514 41.6064 26.4361 41.8668 25.7971 41.8668H25.8207Z" fill="white"/>
<path d="M112.867 131.8H93.9334C92.6317 131.8 91.5667 130.735 91.5667 129.433C91.5667 128.132 92.6317 127.067 93.9334 127.067H112.867C114.168 127.067 115.233 128.132 115.233 129.433C115.233 130.735 114.168 131.8 112.867 131.8Z" fill="white"/>
</svg>
