<svg width="146" height="130" viewBox="0 0 146 130" fill="none" xmlns="http://www.w3.org/2000/svg">
<mask id="path-1-inside-1_459_11047" fill="white">
<path d="M108.876 129.73C106.817 129.73 104.947 129.407 103.321 128.774C101.706 128.152 100.158 127.133 98.7303 125.755C97.2938 124.373 95.9239 122.719 94.675 120.836C93.4023 118.915 92.1296 116.959 90.8996 115.022L74.0353 87.1432H45.4796V115.73C45.4796 120.366 44.4832 123.895 42.5213 126.233C40.5389 128.584 38.0668 129.727 34.9669 129.727C31.7579 129.727 29.2653 128.571 27.3426 126.196C25.4233 123.836 24.4509 120.313 24.4509 115.73V87.1432H8.10699C3.83165 87.1432 0.353027 83.392 0.353027 78.7817C0.353027 74.1714 3.83165 70.4203 8.10699 70.4203H24.4509V56.1497H8.10699C3.83165 56.1515 0.353027 52.4004 0.353027 47.7919C0.353027 43.1835 3.83165 39.4305 8.10699 39.4305H24.4509V18.594C24.4509 14.5669 24.8569 11.4026 25.6571 9.1931C26.6568 6.63592 28.2298 4.66007 30.492 3.08161C32.7542 1.49946 35.1307 0.730469 37.7563 0.730469C39.7848 0.730469 41.5454 1.08737 42.9785 1.79566C44.4508 2.5205 45.6979 3.46243 46.7932 4.67479C47.909 5.90555 49.0623 7.52081 50.2258 9.46906C51.4217 11.4743 52.6552 13.5624 53.9637 15.7921L68.4514 39.4305H100.433V14.7306C100.433 10.032 101.366 6.48138 103.205 4.17255C105.051 1.85637 107.481 0.730469 110.63 0.730469C113.885 0.730469 116.381 1.85821 118.254 4.17807C120.119 6.48506 121.062 10.0375 121.062 14.7306V39.4305H137.599C141.874 39.4305 145.353 43.1816 145.353 47.7919C145.353 52.4022 141.874 56.1515 137.599 56.1515H121.062V70.424H137.599C141.874 70.424 145.353 74.1733 145.353 78.7854C145.353 83.3957 141.874 87.1432 137.599 87.1432H121.062V113.758C121.062 124.506 117.077 129.73 108.876 129.73ZM42.9205 81.6241H75.4223C76.2856 81.6241 77.0925 82.095 77.5651 82.8751L95.1578 111.959C96.3316 113.817 97.5907 115.74 98.8378 117.627C99.8682 119.174 100.981 120.525 102.144 121.643C103.081 122.548 104.057 123.2 105.056 123.584C106.129 124.005 107.412 124.215 108.878 124.215C111.858 124.215 115.946 124.215 115.946 113.76V84.3836C115.946 82.8603 117.094 81.6241 118.505 81.6241H137.601C139.056 81.6241 140.237 80.3491 140.237 78.7817C140.237 77.2143 139.056 75.9394 137.601 75.9394H118.503C117.091 75.9394 115.944 74.7031 115.944 73.1798V53.392C115.944 51.8687 117.091 50.6324 118.503 50.6324H137.599C139.053 50.6324 140.235 49.3593 140.235 47.7919C140.235 46.2245 139.053 44.9496 137.599 44.9496H118.503C117.091 44.9496 115.944 43.7133 115.944 42.19V14.7306C115.944 10.5913 115.101 8.67799 114.392 7.80045C113.772 7.03145 112.843 6.24774 110.63 6.24774C108.973 6.24774 107.948 6.68743 107.088 7.76733C106.39 8.64855 105.554 10.5692 105.554 14.7288V42.1882C105.554 43.7115 104.408 44.9477 102.995 44.9477H67.0747C66.2148 44.9477 65.4113 44.4823 64.9387 43.7096L49.6679 18.7908C48.3355 16.528 47.1088 14.451 45.9197 12.4567C44.9439 10.8176 44.0038 9.49666 43.1269 8.52897C42.4804 7.80965 41.7382 7.25222 40.8511 6.81437C40.1021 6.44459 39.029 6.24774 37.7563 6.24774C36.127 6.24774 34.7042 6.71318 33.2745 7.71214C31.8824 8.68535 30.968 9.81676 30.3982 11.2701C30.1047 12.0796 29.569 14.2173 29.569 18.594V42.1882C29.569 43.7115 28.4226 44.9477 27.01 44.9477H8.10699C6.65344 44.9496 5.47116 46.2245 5.47116 47.7919C5.47116 49.3593 6.65344 50.6324 8.10699 50.6324H27.01C28.4226 50.6324 29.569 51.8687 29.569 53.392V73.1817C29.569 74.7049 28.4226 75.9412 27.01 75.9412H8.10699C6.65344 75.9394 5.47116 77.2161 5.47116 78.7817C5.47116 80.3473 6.65344 81.6241 8.10699 81.6241H27.01C28.4226 81.6241 29.569 82.8603 29.569 84.3836V115.73C29.569 118.893 30.132 121.257 31.1949 122.565C32.1281 123.718 33.2541 124.211 34.9669 124.211C36.6099 124.211 37.7324 123.709 38.7288 122.524C39.795 121.259 40.3614 118.907 40.3614 115.736V84.3836C40.3614 82.8603 41.5079 81.6241 42.9205 81.6241ZM102.992 103.561C102.149 103.561 101.339 103.108 100.856 102.321L90.7972 85.9032C90.2803 85.0551 90.2342 83.9678 90.6829 83.0756C91.1299 82.1815 91.9983 81.6241 92.9332 81.6241H102.992C104.405 81.6241 105.551 82.8603 105.551 84.3836V100.801C105.551 102.019 104.807 103.093 103.729 103.445C103.485 103.522 103.236 103.561 102.992 103.561ZM97.6913 87.1432L100.433 91.6173V87.1432H97.6913ZM102.992 75.9394H86.068C85.2082 75.9394 84.4047 75.4739 83.9321 74.7013L71.8072 54.9116C71.2869 54.0635 71.2408 52.9762 71.6878 52.0821C72.1348 51.1898 73.0015 50.6306 73.9398 50.6306H102.992C104.405 50.6306 105.551 51.8669 105.551 53.3901V73.1798C105.551 74.7049 104.405 75.9394 102.992 75.9394ZM87.4448 70.4203H100.433V56.1497H78.6979L87.4448 70.4203ZM68.6442 75.9394H42.9205C41.5079 75.9394 40.3614 74.7031 40.3614 73.1798V53.392C40.3614 51.8687 41.5079 50.6324 42.9205 50.6324H56.6763C57.5396 50.6324 58.3465 51.1034 58.8191 51.8853L70.7887 71.6749C71.3022 72.523 71.3415 73.6048 70.8962 74.4952C70.4475 75.3875 69.5843 75.9394 68.6442 75.9394ZM45.4796 70.4203H63.9202L55.2893 56.1497H45.4796V70.4203ZM49.8982 44.9514H42.9205C41.5079 44.9514 40.3614 43.7151 40.3614 42.1919V30.6551C40.3614 29.4335 41.1053 28.3573 42.1903 28.0096C43.2737 27.6637 44.4457 28.1236 45.0633 29.1465L52.041 40.6833C52.5545 41.5314 52.5972 42.615 52.1502 43.5054C51.7015 44.394 50.8383 44.9514 49.8982 44.9514Z"/>
</mask>
<path d="M108.876 129.73C106.817 129.73 104.947 129.407 103.321 128.774C101.706 128.152 100.158 127.133 98.7303 125.755C97.2938 124.373 95.9239 122.719 94.675 120.836C93.4023 118.915 92.1296 116.959 90.8996 115.022L74.0353 87.1432H45.4796V115.73C45.4796 120.366 44.4832 123.895 42.5213 126.233C40.5389 128.584 38.0668 129.727 34.9669 129.727C31.7579 129.727 29.2653 128.571 27.3426 126.196C25.4233 123.836 24.4509 120.313 24.4509 115.73V87.1432H8.10699C3.83165 87.1432 0.353027 83.392 0.353027 78.7817C0.353027 74.1714 3.83165 70.4203 8.10699 70.4203H24.4509V56.1497H8.10699C3.83165 56.1515 0.353027 52.4004 0.353027 47.7919C0.353027 43.1835 3.83165 39.4305 8.10699 39.4305H24.4509V18.594C24.4509 14.5669 24.8569 11.4026 25.6571 9.1931C26.6568 6.63592 28.2298 4.66007 30.492 3.08161C32.7542 1.49946 35.1307 0.730469 37.7563 0.730469C39.7848 0.730469 41.5454 1.08737 42.9785 1.79566C44.4508 2.5205 45.6979 3.46243 46.7932 4.67479C47.909 5.90555 49.0623 7.52081 50.2258 9.46906C51.4217 11.4743 52.6552 13.5624 53.9637 15.7921L68.4514 39.4305H100.433V14.7306C100.433 10.032 101.366 6.48138 103.205 4.17255C105.051 1.85637 107.481 0.730469 110.63 0.730469C113.885 0.730469 116.381 1.85821 118.254 4.17807C120.119 6.48506 121.062 10.0375 121.062 14.7306V39.4305H137.599C141.874 39.4305 145.353 43.1816 145.353 47.7919C145.353 52.4022 141.874 56.1515 137.599 56.1515H121.062V70.424H137.599C141.874 70.424 145.353 74.1733 145.353 78.7854C145.353 83.3957 141.874 87.1432 137.599 87.1432H121.062V113.758C121.062 124.506 117.077 129.73 108.876 129.73ZM42.9205 81.6241H75.4223C76.2856 81.6241 77.0925 82.095 77.5651 82.8751L95.1578 111.959C96.3316 113.817 97.5907 115.74 98.8378 117.627C99.8682 119.174 100.981 120.525 102.144 121.643C103.081 122.548 104.057 123.2 105.056 123.584C106.129 124.005 107.412 124.215 108.878 124.215C111.858 124.215 115.946 124.215 115.946 113.76V84.3836C115.946 82.8603 117.094 81.6241 118.505 81.6241H137.601C139.056 81.6241 140.237 80.3491 140.237 78.7817C140.237 77.2143 139.056 75.9394 137.601 75.9394H118.503C117.091 75.9394 115.944 74.7031 115.944 73.1798V53.392C115.944 51.8687 117.091 50.6324 118.503 50.6324H137.599C139.053 50.6324 140.235 49.3593 140.235 47.7919C140.235 46.2245 139.053 44.9496 137.599 44.9496H118.503C117.091 44.9496 115.944 43.7133 115.944 42.19V14.7306C115.944 10.5913 115.101 8.67799 114.392 7.80045C113.772 7.03145 112.843 6.24774 110.63 6.24774C108.973 6.24774 107.948 6.68743 107.088 7.76733C106.39 8.64855 105.554 10.5692 105.554 14.7288V42.1882C105.554 43.7115 104.408 44.9477 102.995 44.9477H67.0747C66.2148 44.9477 65.4113 44.4823 64.9387 43.7096L49.6679 18.7908C48.3355 16.528 47.1088 14.451 45.9197 12.4567C44.9439 10.8176 44.0038 9.49666 43.1269 8.52897C42.4804 7.80965 41.7382 7.25222 40.8511 6.81437C40.1021 6.44459 39.029 6.24774 37.7563 6.24774C36.127 6.24774 34.7042 6.71318 33.2745 7.71214C31.8824 8.68535 30.968 9.81676 30.3982 11.2701C30.1047 12.0796 29.569 14.2173 29.569 18.594V42.1882C29.569 43.7115 28.4226 44.9477 27.01 44.9477H8.10699C6.65344 44.9496 5.47116 46.2245 5.47116 47.7919C5.47116 49.3593 6.65344 50.6324 8.10699 50.6324H27.01C28.4226 50.6324 29.569 51.8687 29.569 53.392V73.1817C29.569 74.7049 28.4226 75.9412 27.01 75.9412H8.10699C6.65344 75.9394 5.47116 77.2161 5.47116 78.7817C5.47116 80.3473 6.65344 81.6241 8.10699 81.6241H27.01C28.4226 81.6241 29.569 82.8603 29.569 84.3836V115.73C29.569 118.893 30.132 121.257 31.1949 122.565C32.1281 123.718 33.2541 124.211 34.9669 124.211C36.6099 124.211 37.7324 123.709 38.7288 122.524C39.795 121.259 40.3614 118.907 40.3614 115.736V84.3836C40.3614 82.8603 41.5079 81.6241 42.9205 81.6241ZM102.992 103.561C102.149 103.561 101.339 103.108 100.856 102.321L90.7972 85.9032C90.2803 85.0551 90.2342 83.9678 90.6829 83.0756C91.1299 82.1815 91.9983 81.6241 92.9332 81.6241H102.992C104.405 81.6241 105.551 82.8603 105.551 84.3836V100.801C105.551 102.019 104.807 103.093 103.729 103.445C103.485 103.522 103.236 103.561 102.992 103.561ZM97.6913 87.1432L100.433 91.6173V87.1432H97.6913ZM102.992 75.9394H86.068C85.2082 75.9394 84.4047 75.4739 83.9321 74.7013L71.8072 54.9116C71.2869 54.0635 71.2408 52.9762 71.6878 52.0821C72.1348 51.1898 73.0015 50.6306 73.9398 50.6306H102.992C104.405 50.6306 105.551 51.8669 105.551 53.3901V73.1798C105.551 74.7049 104.405 75.9394 102.992 75.9394ZM87.4448 70.4203H100.433V56.1497H78.6979L87.4448 70.4203ZM68.6442 75.9394H42.9205C41.5079 75.9394 40.3614 74.7031 40.3614 73.1798V53.392C40.3614 51.8687 41.5079 50.6324 42.9205 50.6324H56.6763C57.5396 50.6324 58.3465 51.1034 58.8191 51.8853L70.7887 71.6749C71.3022 72.523 71.3415 73.6048 70.8962 74.4952C70.4475 75.3875 69.5843 75.9394 68.6442 75.9394ZM45.4796 70.4203H63.9202L55.2893 56.1497H45.4796V70.4203ZM49.8982 44.9514H42.9205C41.5079 44.9514 40.3614 43.7151 40.3614 42.1919V30.6551C40.3614 29.4335 41.1053 28.3573 42.1903 28.0096C43.2737 27.6637 44.4457 28.1236 45.0633 29.1465L52.041 40.6833C52.5545 41.5314 52.5972 42.615 52.1502 43.5054C51.7015 44.394 50.8383 44.9514 49.8982 44.9514Z" fill="white" stroke="#215CFF" stroke-width="2" mask="url(#path-1-inside-1_459_11047)"/>
</svg>
