<svg width="146" height="158" viewBox="0 0 146 158" fill="none" xmlns="http://www.w3.org/2000/svg">
<g clip-path="url(#clip0_459_11081)">
<path d="M23.841 136.948C23.0202 134.593 23.0121 133.993 23.0121 80.4524C23.0081 18.6708 22.7372 23.4453 26.4531 19.7417C30.3712 15.8368 28.6689 16.0139 62.5654 16.0139C95.8352 16.0139 94.7475 15.9213 98.2612 19.0694C101.945 22.3664 102.26 23.6546 102.26 35.3773V45.4011C122.773 45.4011 124.362 45.8198 126.218 49.2939C127.33 51.3711 127.33 51.3711 127.33 80.2108C127.33 118.205 128.632 115.045 112.959 115.045C101.051 115.045 102.26 113.837 102.26 125.745C102.26 138.707 100.813 141.924 94.0196 144.062C91.6906 144.794 90.0449 144.834 62.339 144.834C33.2947 144.834 33.1046 144.83 30.7918 143.957C27.5974 142.749 24.9287 140.06 23.841 136.948ZM97.8124 125.036V115.045C65.0602 115.045 65.0602 115.045 65.0562 116.957C65.0522 120.528 62.7635 122.488 61.1906 120.266C60.4628 119.243 60.3092 41.8867 61.0329 40.5422C62.2622 38.2556 65.0602 40.1839 65.0602 43.3198C65.0602 45.4011 65.0602 45.4011 81.4363 45.4011H97.8124C97.8124 21.5894 96.9552 20.4421 86.2723 20.4421C80.4255 20.4421 80.4255 20.4421 80.4255 23.1594C80.4295 26.7664 79.1841 29.0973 76.5639 30.4016C73.9518 31.7018 51.8017 31.8186 48.947 30.5505C46.2783 29.3629 44.8429 26.8067 44.8429 23.2359C44.8429 20.4421 44.8428 20.4421 39.2426 20.4421C32.1342 20.4421 30.3106 21.0983 28.5679 24.2906C26.7928 27.5393 26.817 133.365 28.5962 136.485C29.4332 137.955 30.2378 138.74 31.6288 139.444C33.5211 140.406 33.5211 140.406 62.3996 140.406C100.809 140.406 97.8124 141.707 97.8124 125.036ZM65.0602 110.616H122.882V78.0088H65.0602V110.616ZM65.0602 73.5806H122.882V63.919H65.0602V73.5806ZM122.935 59.4908C122.627 49.2738 125.902 49.8615 92.8592 49.8454L65.0602 49.8293V59.4908H122.935ZM75.9776 23.0346V20.4421H49.2907C49.2907 24.7375 49.4686 25.45 50.0994 26.078C50.8717 26.8469 51.4459 26.8832 62.5452 26.8832C76.4305 26.8832 75.9776 27.012 75.9776 23.0346Z" fill="white" fill-opacity="0.988235"/>
<path d="M88.8761 96.5557C86.9353 90.0985 94.0195 84.0198 100.396 86.6727C101.71 87.2202 101.993 87.2202 103.053 86.6727C106.684 84.8048 111.693 86.6566 113.744 90.6179C117.172 97.2602 111.018 104.619 103.958 102.316C101.722 101.588 101.532 101.584 99.8138 102.236C98.8231 102.614 97.606 102.936 97.1046 102.948C96.6032 102.96 95.1718 102.582 93.9184 102.111C91.3831 101.153 89.7051 99.3052 88.8761 96.5557ZM99.6035 97.2843C100.206 96.8133 101.128 96.4269 101.654 96.4269C102.179 96.4269 103.101 96.8133 103.704 97.2843C106.51 99.4823 110.679 97.3769 110.222 93.9913C109.761 90.5937 106.603 89.4826 103.396 91.5921C101.718 92.6991 101.718 92.6991 100.016 91.5921C96.5668 89.3538 93.1622 90.7024 93.1622 94.3053C93.1622 95.8391 93.3604 96.3504 94.2742 97.1555C95.0424 97.8358 95.8673 98.1377 96.951 98.1377C97.9295 98.1377 98.9201 97.8197 99.6035 97.2843Z" fill="white" fill-opacity="0.988235"/>
<path d="M48.5629 130.02C49.2584 129.328 76.01 129.328 76.7055 130.02C77.5102 130.821 77.2837 132.649 76.2931 133.337C75.5248 133.873 73.5193 133.965 62.5453 133.965C51.268 133.965 49.598 133.885 48.8864 133.309C47.9887 132.581 47.8108 130.769 48.5629 130.02Z" fill="white" fill-opacity="0.988235"/>
</g>
<defs>
<clipPath id="clip0_459_11081">
<rect width="145" height="157" fill="white" transform="translate(0.389648 0.373047)"/>
</clipPath>
</defs>
</svg>
