<svg width="145" height="154" viewBox="0 0 145 154" fill="none" xmlns="http://www.w3.org/2000/svg">
<g clip-path="url(#clip0_459_11072)">
<path d="M101.638 134.762C99.743 132.887 99.4597 132.775 93.6121 131.605C85.4514 129.977 84.2345 129.114 82.6367 123.838C81.8564 121.272 80.8485 119.215 79.5108 117.457C77.077 114.257 76.7519 113.487 77.3464 112.363C78.5587 110.091 80.2586 110.842 83.3845 115.026C86.4964 119.197 86.9562 119.355 93.6957 118.609C100.101 117.9 100.663 117.559 99.0417 115.339C98.4936 114.583 97.8433 114.481 94.2159 114.565C88.0617 114.714 82.1908 111.556 82.5717 108.305C82.8457 105.982 84.2159 105.912 87.5182 108.062C90.4955 109.993 94.1833 110.674 95.5535 109.545C96.8401 108.487 95.4978 107.544 89.3622 105.217L83.0222 102.805C74.2345 111.253 74.1462 111.211 58.2104 95.1551C41.7032 78.5303 41.9029 80.8999 55.8834 66.9574C69.548 53.332 67.0306 52.9868 84.5828 70.8477C98.2196 84.7249 97.7597 84.0346 96.8262 89.1983C96.6868 89.9773 97.9734 90.803 104.889 94.3527C113.682 98.8728 114.764 99.801 113.245 101.518C111.982 102.945 112.627 103.188 94.5317 94.5253C77.1606 86.213 75.9902 85.8258 75.9902 88.354C75.9902 93.2519 81.2201 97.3428 93.1754 101.798C99.4458 104.134 99.4458 104.134 101.536 109.303C102.688 112.144 105.14 117.181 106.993 120.498C111.331 128.265 111.248 130.326 106.645 128.927C105.173 128.475 104.978 128.526 104.587 129.463C103.422 132.239 109.618 135.817 120.263 138.518C126.696 140.15 127.518 140.654 126.826 142.571C126.455 143.588 126.064 143.803 124.411 143.9C123.208 143.97 120.212 143.364 116.747 142.352C110.18 140.425 104.453 137.552 101.638 134.762ZM100.351 126.805C100.732 126.063 101.619 125.037 102.316 124.524C105.005 122.56 103.384 122.229 95.0751 123.05C86.8494 123.861 86.7194 123.903 88.0895 125.144C88.6423 125.648 91.0854 126.464 93.8954 127.084C96.5661 127.677 98.9534 128.157 99.1996 128.157C99.4504 128.157 99.966 127.551 100.351 126.805ZM78.9953 100.277C70.8299 92.9114 69.5062 85.5226 73.7747 82.9104C76.3571 81.3291 78.2707 81.6789 85.0705 84.9628C91.2479 87.9435 91.2479 87.9435 92.2605 86.9966C93.273 86.0497 93.273 86.0497 81.0343 73.7491C74.3042 66.9853 68.5866 61.4531 68.3265 61.4531C67.7552 61.4531 49.98 79.2533 49.98 79.8224C49.98 80.0463 55.4143 85.7652 62.0562 92.5289L74.1323 104.834L78.9953 100.277Z" fill="white" fill-opacity="0.988235"/>
<path d="M14.2766 29.1974C35.2566 5.43112 73.8631 16.9341 78.6006 48.3644C79.6921 55.6179 78.6796 59.1957 75.8928 57.9502C74.9499 57.5304 74.8152 56.9753 74.3368 51.6576C71.759 22.8908 38.0666 10.5202 18.6008 31.1986C-0.590982 51.583 12.7624 84.3941 40.9138 86.0313C46.506 86.3579 48.5078 87.8459 46.074 89.8703C45.7164 90.1735 44.2533 90.5141 42.8227 90.6307C41.3968 90.7473 38.3964 90.5094 36.1623 90.1082C7.3096 84.9118 -4.90124 50.9253 14.2766 29.1974Z" fill="white" fill-opacity="0.988235"/>
<path d="M105.261 83.6334C99.6547 83.2649 98.9162 82.8824 99.376 80.5781C99.9566 77.672 111.982 78.8055 115.344 82.0801C118.763 85.406 143.547 125.694 142.962 126.977C142.562 127.859 142.074 128.157 141.025 128.157C139.682 128.157 139.074 127.285 126.348 107.05C111.081 82.7705 112.27 84.0859 105.261 83.6334Z" fill="white" fill-opacity="0.988235"/>
<path d="M45.5722 40.3548C54.1788 41.1758 63.4495 45.0987 63.4495 47.9162C63.4495 50.6403 61.81 50.7336 57.0213 48.2707C47.5926 43.4334 36.0553 43.5827 26.9146 48.6672C25.34 49.5394 23.719 50.2578 23.3149 50.2578C22.9062 50.2578 22.2188 49.7633 21.7822 49.1569C18.8328 45.0754 34.4575 39.2912 45.5722 40.3548Z" fill="white" fill-opacity="0.988235"/>
<path d="M34.8896 51.8769C43.6634 49.2647 56.8821 52.0729 57.3233 56.6395C57.5788 59.289 56.1901 59.4756 51.7079 57.3952C46.2226 54.8483 39.0373 54.755 33.956 57.162C32.1678 58.0109 30.2356 58.7993 29.6597 58.9112C29.0002 59.0465 28.3592 58.7946 27.9179 58.2395C26.1901 56.0471 28.7679 53.6961 34.8896 51.8769Z" fill="white" fill-opacity="0.988235"/>
<path d="M51.0902 64.1961C53.3243 66.673 50.649 68.3476 46.9193 66.8083C43.4265 65.3623 41.5269 65.3669 38.0991 66.8176C36.5896 67.4567 35.1915 67.9791 35.0011 67.9838C34.8107 67.9838 34.3416 67.5873 33.956 67.1022C29.8223 61.8591 46.4456 59.0417 51.0902 64.1961Z" fill="white" fill-opacity="0.988235"/>
</g>
<defs>
<clipPath id="clip0_459_11072">
<rect width="144" height="153" fill="white" transform="translate(0.853027 0.732422)"/>
</clipPath>
</defs>
</svg>
