<svg width="122" height="122" viewBox="0 0 122 122" fill="none" xmlns="http://www.w3.org/2000/svg">
<g clip-path="url(#clip0_76_4573)">
<path d="M55.7442 58.5296C52.3693 53.7034 52.8274 53.9908 48.5106 53.9885C42.8664 53.9885 40.4942 52.8573 39.1409 49.5245C38.351 47.5823 38.2224 22.9884 38.989 20.754C39.5873 19.0128 41.1439 17.3581 42.8267 16.6733C44.9278 15.8156 77.0755 15.8133 79.1836 16.6687C80.8757 17.3558 82.3551 18.9521 82.9815 20.7704C83.7457 22.9884 83.678 47.3439 82.902 49.4077C81.6446 52.7451 79.5178 53.8249 73.9717 53.9394C69.1572 54.0376 69.5802 53.7852 66.3198 58.5062C63.971 61.9068 63.3914 62.5986 62.5196 63.045C61.954 63.3348 61.2225 63.5709 60.8953 63.5709C60.5681 63.5709 59.8833 63.3091 59.3761 62.9866C58.7287 62.5776 57.6443 61.2454 55.7442 58.5296ZM64.8544 55.8512C66.3853 53.6099 67.7829 51.6677 67.9629 51.5368C68.1475 51.4059 70.4519 51.2493 73.1864 51.1839C81.238 50.9923 80.9154 51.7098 80.8173 34.2862C80.7401 20.4572 80.7845 20.7587 78.6741 19.3985C77.1105 18.3911 44.6263 18.4963 43.1819 19.5153C41.1766 20.9293 41.2514 20.317 41.2514 35.0738C41.2514 51.8967 40.9125 51.1839 48.9313 51.1839C52.1099 51.1839 53.5636 51.2704 53.9095 51.4761C54.1759 51.6373 55.7769 53.7922 57.4643 56.2672C59.1541 58.747 60.6896 60.7663 60.8836 60.7663C61.4305 60.7663 61.8816 60.2077 64.8544 55.8512Z" fill="white" fill-opacity="0.988235"/>
<path d="M21.7351 67.9601C21.7351 64.3819 21.7351 64.3819 20.5408 63.9565C18.9445 63.3909 17.3973 61.9255 16.6938 60.3105C15.8758 58.4338 15.7964 36.5626 16.6003 34.4545C17.9956 30.7991 19.7438 30.1494 28.1857 30.1494C35.2649 30.1494 35.5244 30.1938 35.5244 31.4138C35.5244 32.6736 35.4519 32.6876 28.3306 32.7647C18.0915 32.8769 18.6594 32.0004 18.7482 47.5777C18.8136 58.8147 18.8136 58.8147 19.4564 59.7847C20.1575 60.8434 21.5692 61.7011 22.6092 61.7011C24.2195 61.7011 24.306 61.9559 24.306 66.7307C24.306 72.8541 23.9694 72.8611 30.247 66.6279L35.2088 61.7011C47.8809 61.7011 48.2362 61.6334 49.6081 60.0885C50.7019 58.8591 52.1182 59.1817 52.1182 60.6634C52.1182 61.7362 50.2859 63.3956 48.4068 64.0289C47.1424 64.4543 46.4085 64.5057 41.5472 64.5057H36.104C29.2257 71.4121 26.9423 73.5693 26.5964 73.7539C26.2482 73.9385 25.54 74.0881 25.0188 74.0881C24.3831 74.0881 23.8058 73.8965 23.2613 73.5062C21.8847 72.5175 21.7351 71.973 21.7351 67.9601Z" fill="white" fill-opacity="0.988235"/>
<path d="M90.2165 68.8458L85.8951 64.5057C75.5906 64.5057 74.8567 64.4543 73.5923 64.0289C71.7132 63.3956 69.8809 61.7362 69.8809 60.6634C69.8809 59.191 71.206 58.8825 72.3489 60.0862C73.8307 61.645 74.1252 61.7011 80.7814 61.7011H86.7902C98.0297 72.8611 97.6931 72.8541 97.6931 66.7307C97.6931 61.9559 97.7796 61.7011 99.3899 61.7011C100.43 61.7011 101.842 60.8434 102.543 59.7847C103.185 58.8147 103.185 58.8147 103.185 47.3112C103.185 31.8555 103.859 32.8792 93.6101 32.7647C86.5519 32.6876 86.4747 32.6712 86.4747 31.4138C86.4747 30.1938 86.7342 30.1494 93.8134 30.1494C102.255 30.1494 104.003 30.7991 105.399 34.4545C106.203 36.5626 106.126 58.4338 105.305 60.3105C104.602 61.9255 103.055 63.3909 101.458 63.9565C100.264 64.3819 100.264 64.3819 100.264 68.0349C100.264 72.1015 100.005 72.9055 98.4223 73.7235C98.0343 73.9245 97.2911 74.0881 96.7699 74.0881C96.2137 74.0881 95.5593 73.9035 95.1807 73.637C94.8278 73.3893 92.5934 71.2321 90.2165 68.8458Z" fill="white" fill-opacity="0.988235"/>
<path d="M47.0205 93.4304C47.9086 91.5373 49.568 89.9574 51.4704 89.1978C53.8894 88.2279 68.2536 88.2326 70.5838 89.2002C74.5266 90.8385 75.5736 93.0331 75.6835 99.874C75.7723 105.532 75.6928 105.873 74.2718 105.873C73.0799 105.873 72.9233 105.193 72.9139 100.031C72.9069 94.1339 72.2058 92.5797 69.0693 91.5139C67.4894 90.9787 54.5087 90.9787 52.9288 91.5139C49.7924 92.5797 49.0912 94.1339 49.0842 100.031C49.0772 103.525 48.9977 104.738 48.7406 105.231C48.4859 105.719 48.2335 105.873 47.6912 105.873C47.2542 105.873 46.8312 105.691 46.6068 105.406C45.894 104.509 46.2188 95.1412 47.0205 93.4304Z" fill="white" fill-opacity="0.988235"/>
<path d="M51.666 76.5911C51.666 74.1447 52.6379 71.7984 54.3678 70.0685C56.0977 68.3386 58.444 67.3667 60.8905 67.3667C63.3369 67.3667 65.6832 68.3386 67.4131 70.0685C69.143 71.7984 70.1149 74.1447 70.1149 76.5911C70.1149 79.0376 69.143 81.3839 67.4131 83.1138C65.6832 84.8437 63.3369 85.8156 60.8905 85.8156C58.444 85.8156 56.0977 84.8437 54.3678 83.1138C52.6379 81.3839 51.666 79.0376 51.666 76.5911ZM54.3926 76.5778C54.3926 78.3019 55.0775 79.9555 56.2966 81.1746C57.5157 82.3937 59.1692 83.0786 60.8934 83.0786C62.6175 83.0786 64.271 82.3937 65.4902 81.1746C66.7093 79.9555 67.3942 78.3019 67.3942 76.5778C67.3942 74.8537 66.7093 73.2002 65.4902 71.981C64.271 70.7619 62.6175 70.077 60.8934 70.077C59.1692 70.077 57.5157 70.7619 56.2966 71.981C55.0775 73.2002 54.3926 74.8537 54.3926 76.5778Z" fill="white" fill-opacity="0.988235"/>
<path d="M75.582 82.205C75.582 79.7597 76.5534 77.4146 78.2825 75.6855C80.0115 73.9565 82.3566 72.9851 84.8019 72.9851C87.2472 72.9851 89.5923 73.9565 91.3213 75.6855C93.0504 77.4146 94.0218 79.7597 94.0218 82.205C94.0218 84.6503 93.0504 86.9954 91.3213 88.7244C89.5923 90.4535 87.2472 91.4249 84.8019 91.4249C82.3566 91.4249 80.0115 90.4535 78.2825 88.7244C76.5534 86.9954 75.582 84.6503 75.582 82.205ZM78.3137 82.2157C78.3137 83.9393 78.9984 85.5923 80.2172 86.8111C81.4359 88.0299 83.0889 88.7146 84.8125 88.7146C86.5361 88.7146 88.1891 88.0299 89.4079 86.8111C90.6267 85.5923 91.3114 83.9393 91.3114 82.2157C91.3114 80.4921 90.6267 78.8391 89.4079 77.6204C88.1891 76.4016 86.5361 75.7169 84.8125 75.7169C83.0889 75.7169 81.4359 76.4016 80.2172 77.6204C78.9984 78.8391 78.3137 80.4921 78.3137 82.2157Z" fill="white" fill-opacity="0.988235"/>
<path d="M27.7578 82.2005C27.7578 79.7562 28.7288 77.4121 30.4572 75.6837C32.1855 73.9554 34.5297 72.9844 36.974 72.9844C39.4182 72.9844 41.7624 73.9554 43.4908 75.6837C45.2191 77.4121 46.1901 79.7562 46.1901 82.2005C46.1901 84.6448 45.2191 86.989 43.4908 88.7173C41.7624 90.4457 39.4182 91.4167 36.974 91.4167C34.5297 91.4167 32.1855 90.4457 30.4572 88.7173C28.7288 86.989 27.7578 84.6448 27.7578 82.2005ZM30.4521 82.2213C30.4624 83.9402 31.1524 85.5852 32.3715 86.797C33.5906 88.0088 35.2397 88.689 36.9586 88.689C38.6776 88.689 40.3266 88.0088 41.5457 86.797C42.7648 85.5852 43.4549 83.9402 43.4652 82.2213C43.4549 80.5024 42.7648 78.8575 41.5457 77.6456C40.3266 76.4338 38.6776 75.7536 36.9586 75.7536C35.2397 75.7536 33.5906 76.4338 32.3715 77.6456C31.1524 78.8575 30.4624 80.5024 30.4521 82.2213Z" fill="white" fill-opacity="0.988235"/>
<path d="M96.9472 103.022C96.6784 97.7402 94.8928 96.761 85.5278 96.761C78.8015 96.7586 78.7617 96.7516 78.7617 95.4732C78.7617 94.1854 78.7547 94.1877 86.1238 94.1877C92.9273 94.1877 92.9273 94.1877 94.4301 94.8141C97.7722 96.2024 99.5625 99.0841 99.5625 103.069C99.5625 104.502 99.462 105.413 99.282 105.593C99.1278 105.747 98.6557 105.874 98.2303 105.874C97.7301 105.874 97.3866 105.731 97.2534 105.465C97.1412 105.24 97.0033 104.142 96.9472 103.022Z" fill="white" fill-opacity="0.988235"/>
<path d="M22.4414 103.057C22.4321 99.0888 24.2294 96.2 27.5692 94.8141C29.072 94.1877 29.072 94.1877 35.8755 94.1877C43.2445 94.1877 43.2375 94.1854 43.2375 95.4732C43.2375 96.7516 43.1978 96.7586 36.4714 96.761C27.1064 96.761 25.3208 97.7426 25.0544 103.022C24.9983 104.142 24.8557 105.24 24.7365 105.465C24.5963 105.733 24.2481 105.874 23.7129 105.874C23.2688 105.874 22.8014 105.743 22.6752 105.581C22.549 105.42 22.4438 104.284 22.4414 103.057Z" fill="white" fill-opacity="0.988235"/>
<path d="M48.8078 29.1351C49.4996 28.5087 72.6655 28.5461 73.2358 29.1748C73.743 29.7357 73.7266 30.4509 73.1937 30.9323C72.8081 31.2806 71.6161 31.318 60.9236 31.318C49.5814 31.318 49.0672 31.2993 48.7306 30.8763C48.2585 30.2803 48.2889 29.6025 48.8078 29.1351Z" fill="white" fill-opacity="0.988235"/>
<path d="M59.8938 38.5283C60.5131 37.4508 72.8487 37.5911 73.3722 38.6802C73.6316 39.2177 73.6503 39.4912 73.4493 39.8488C73.1969 40.2952 72.9095 40.3185 66.7417 40.3746C60.2981 40.4331 60.2981 40.4331 59.9031 39.8184C59.5339 39.2434 59.5339 39.1546 59.8938 38.5283Z" fill="white" fill-opacity="0.988235"/>
</g>
<defs>
<clipPath id="clip0_76_4573">
<rect width="122" height="122" fill="white"/>
</clipPath>
</defs>
</svg>
