<svg width="114" height="114" viewBox="0 0 114 114" fill="none" xmlns="http://www.w3.org/2000/svg">
<g clip-path="url(#clip0_76_4556)">
<path d="M82.7701 88.1971C82.7701 82.6871 82.77 82.6871 81.6825 80.5862C80.4442 78.2014 79.4942 75.0151 79.4942 73.2592V72.069C8.29878 72.069 11.3999 72.235 9.53924 70.1078C7.78556 68.103 7.862 69.2299 7.862 45.6044C7.862 21.7212 7.77246 22.9441 9.65936 20.9218C11.6227 18.8144 7.70258 18.9869 51.8918 19.0524C90.5229 19.1092 90.5229 19.1092 91.8398 19.8736C94.478 21.4067 94.6527 22.0291 94.7815 30.269L94.8907 37.3033C106.535 49.1576 106.136 47.3406 106.147 73.886C106.153 93.7989 106.153 93.7989 105.627 94.3994C105.101 95 105.101 95 94.264 95C83.4252 95 83.4252 95 83.0976 94.3536C82.8312 93.8294 82.7701 92.661 82.7701 88.1971ZM84.7356 92.8161H104.172V83.2069H84.7356V92.8161ZM104.201 81.023C104.028 48.9021 104.229 49.6817 98.1076 43.4227L95.1091 40.3586L94.9956 59.9221C100.324 65.312 100.519 65.6352 99.8417 66.2489C99.1363 66.8866 98.9921 66.7599 88.7867 56.5872C79.1448 46.9781 78.6861 46.5544 77.6837 46.3469C74.552 45.6961 71.9269 48.3408 72.7263 51.3437C72.9403 52.1452 73.84 53.2437 78.162 57.9828C81.0098 61.1058 83.4165 63.7854 83.5082 63.9383C83.6043 64.0977 83.3379 64.9909 82.8792 66.0523C81.3767 69.5138 81.1168 72.9141 82.0952 76.3691C82.3398 77.2339 82.936 78.6338 83.4187 79.4812L84.2988 81.023H104.201ZM79.2146 69.9266C79.5051 69.7431 81.0229 65.2421 81.0229 64.5651C81.0229 64.3292 78.9919 61.9356 76.2991 58.9961C70.8263 53.0231 70.3851 52.3177 70.6035 49.8455C71.0512 44.7417 76.4564 42.5316 80.7477 45.6983L82.0057 46.6264C82.2284 34.5101 82.3027 34.069 83.2221 34.069C84.2355 34.069 84.301 34.5778 84.2638 42.0337L84.2289 49.0287L92.6763 57.3276C92.8313 22.0335 92.9121 22.8502 90.8636 21.6753C89.4484 20.8651 13.1907 20.9066 11.8411 21.719C9.92361 22.8743 10.0459 21.2363 10.0459 45.6175C10.0459 67.0722 10.0459 67.0722 10.5744 68.0287C10.926 68.6643 11.4392 69.1731 12.1031 69.5444C13.1034 70.1035 13.1034 70.1035 46.0258 70.0991C64.1326 70.0991 79.0683 70.0205 79.2146 69.9266Z" fill="white" fill-opacity="0.988235"/>
<path d="M35.6328 45.6591C35.6328 41.505 37.283 37.5211 40.2204 34.5837C43.1578 31.6463 47.1417 29.9961 51.2958 29.9961C55.4499 29.9961 59.4338 31.6463 62.3712 34.5837C65.3086 37.5211 66.9588 41.505 66.9588 45.6591C66.9588 49.8132 65.3086 53.7971 62.3712 56.7345C59.4338 59.6719 55.4499 61.3221 51.2958 61.3221C47.1417 61.3221 43.1578 59.6719 40.2204 56.7345C37.283 53.7971 35.6328 49.8132 35.6328 45.6591ZM37.6901 45.6503C37.7188 49.2443 39.1667 52.6812 41.7182 55.2124C44.2697 57.7435 47.7181 59.1638 51.3122 59.1638C54.9062 59.1638 58.3546 57.7435 60.9061 55.2124C63.4577 52.6812 64.9055 49.2443 64.9343 45.6503C64.9055 42.0564 63.4577 38.6195 60.9061 36.0883C58.3546 33.5572 54.9062 32.1369 51.3122 32.1369C47.7181 32.1369 44.2697 33.5572 41.7182 36.0883C39.1667 38.6195 37.7188 42.0564 37.6901 45.6503Z" fill="white" fill-opacity="0.988235"/>
<path d="M55.083 51.8789C54.8617 51.8789 54.6607 51.8471 54.4859 51.7848C54.3123 51.7236 54.146 51.6233 53.9925 51.4878C53.8381 51.3518 53.6908 51.1891 53.5566 51.0038C53.4198 50.8148 53.283 50.6224 53.1507 50.4318L51.338 47.689H48.2686V50.5015C48.2686 50.9576 48.1615 51.3048 47.9506 51.5348C47.7375 51.7661 47.4718 51.8785 47.1386 51.8785C46.7937 51.8785 46.5257 51.7649 46.3191 51.5312C46.1128 51.299 46.0082 50.9524 46.0082 50.5015V47.689H44.2514C43.7919 47.689 43.418 47.32 43.418 46.8664C43.418 46.4128 43.7919 46.0438 44.2514 46.0438H46.0082V44.6398H44.2514C43.7919 44.64 43.418 44.2709 43.418 43.8175C43.418 43.3642 43.7919 42.9949 44.2514 42.9949H46.0082V40.945C46.0082 40.5488 46.0519 40.2375 46.1379 40.0201C46.2453 39.7685 46.4144 39.5741 46.6576 39.4188C46.9007 39.2632 47.1562 39.1875 47.4384 39.1875C47.6565 39.1875 47.8457 39.2226 47.9997 39.2923C48.158 39.3636 48.2921 39.4563 48.4098 39.5756C48.5297 39.6966 48.6537 39.8556 48.7788 40.0472C48.9073 40.2445 49.0399 40.4499 49.1805 40.6693L50.7378 42.9949H54.1755V40.5649C54.1755 40.1026 54.2758 39.7533 54.4735 39.5261C54.6719 39.2983 54.933 39.1875 55.2715 39.1875C55.6214 39.1875 55.8897 39.2985 56.0911 39.5267C56.2915 39.7537 56.3929 40.1032 56.3929 40.5649V42.9949H58.1704C58.63 42.9949 59.0039 43.364 59.0039 43.8175C59.0039 44.2711 58.63 44.64 58.1704 44.64H56.3929V46.0442H58.1704C58.63 46.0442 59.0039 46.413 59.0039 46.8668C59.0039 47.3204 58.63 47.689 58.1704 47.689H56.3929V50.3075C56.3929 51.3649 55.9645 51.8789 55.083 51.8789ZM47.9935 47.1461H51.4871C51.5799 47.1461 51.6666 47.1924 51.7174 47.2691L53.6085 50.1305C53.7346 50.3133 53.87 50.5024 54.004 50.6881C54.1148 50.8404 54.2343 50.9732 54.3594 51.0833C54.4601 51.1723 54.565 51.2364 54.6724 51.2742C54.7878 51.3156 54.9257 51.3363 55.0832 51.3363C55.4036 51.3363 55.843 51.3363 55.843 50.3077V47.4175C55.843 47.2677 55.9664 47.1461 56.118 47.1461H58.1706C58.327 47.1461 58.4539 47.0206 58.4539 46.8664C58.4539 46.7122 58.327 46.5868 58.1706 46.5868H56.1179C55.966 46.5868 55.8428 46.4651 55.8428 46.3153V44.3685C55.8428 44.2186 55.966 44.097 56.1179 44.097H58.1704C58.3267 44.097 58.4538 43.9718 58.4538 43.8175C58.4538 43.6633 58.3267 43.5379 58.1704 43.5379H56.1179C55.966 43.5379 55.8428 43.4163 55.8428 43.2664V40.5649C55.8428 40.1576 55.7522 39.9694 55.6759 39.8831C55.6093 39.8074 55.5094 39.7303 55.2715 39.7303C55.0935 39.7303 54.9833 39.7736 54.8908 39.8798C54.8158 39.9665 54.726 40.1555 54.726 40.5647V43.2662C54.726 43.4161 54.6028 43.5377 54.4509 43.5377H50.5898C50.4974 43.5377 50.411 43.4919 50.3602 43.4159L48.7188 40.9643C48.5756 40.7417 48.4437 40.5374 48.3159 40.3412C48.211 40.1799 48.11 40.0499 48.0157 39.9547C47.9462 39.884 47.8664 39.8291 47.7711 39.7861C47.6906 39.7497 47.5752 39.7303 47.4384 39.7303C47.2633 39.7303 47.1104 39.7761 46.9567 39.8744C46.807 39.9701 46.7087 40.0814 46.6475 40.2244C46.616 40.3041 46.5584 40.5144 46.5584 40.945V43.2662C46.5584 43.4161 46.4351 43.5377 46.2833 43.5377H44.2514C44.0952 43.5379 43.9681 43.6633 43.9681 43.8175C43.9681 43.9718 44.0952 44.097 44.2514 44.097H46.2833C46.4351 44.097 46.5584 44.2186 46.5584 44.3685V46.3155C46.5584 46.4653 46.4351 46.587 46.2833 46.587H44.2514C44.0952 46.5868 43.9681 46.7124 43.9681 46.8664C43.9681 47.0204 44.0952 47.1461 44.2514 47.1461H46.2833C46.4351 47.1461 46.5584 47.2677 46.5584 47.4175V50.5015C46.5584 50.8127 46.6189 51.0452 46.7331 51.1739C46.8334 51.2874 46.9545 51.3359 47.1386 51.3359C47.3152 51.3359 47.4359 51.2865 47.5429 51.1699C47.6576 51.0454 47.7184 50.8141 47.7184 50.5021V47.4175C47.7184 47.2677 47.8417 47.1461 47.9935 47.1461ZM54.4506 49.3042C54.36 49.3042 54.2729 49.2597 54.221 49.1823L53.1397 47.567C53.0842 47.4836 53.0792 47.3766 53.1275 47.2889C53.1755 47.2009 53.2688 47.1461 53.3693 47.1461H54.4506C54.6024 47.1461 54.7256 47.2677 54.7256 47.4175V49.0328C54.7256 49.1526 54.6457 49.2583 54.5298 49.2928C54.5035 49.3004 54.4768 49.3042 54.4506 49.3042ZM53.8808 47.689L54.1755 48.1292V47.689H53.8808ZM54.4506 46.5868H52.6314C52.539 46.5868 52.4526 46.541 52.4018 46.465L51.0985 44.518C51.0426 44.4346 51.0376 44.3276 51.0857 44.2396C51.1337 44.1518 51.2269 44.0968 51.3278 44.0968H54.4506C54.6024 44.0968 54.7256 44.2185 54.7256 44.3683V46.3153C54.7256 46.4653 54.6024 46.5868 54.4506 46.5868ZM52.7794 46.0438H54.1755V44.6398H51.8392L52.7794 46.0438ZM50.7585 46.5868H47.9935C47.8417 46.5868 47.7184 46.4651 47.7184 46.3153V44.3685C47.7184 44.2186 47.8417 44.097 47.9935 44.097H49.4721C49.5649 44.097 49.6516 44.1433 49.7024 44.2203L50.989 46.1672C51.0442 46.2507 51.0485 46.3571 51.0006 46.4447C50.9524 46.5325 50.8596 46.5868 50.7585 46.5868ZM48.2686 46.0438H50.2508L49.323 44.6398H48.2686V46.0438ZM48.7435 43.5381H47.9935C47.8417 43.5381 47.7184 43.4165 47.7184 43.2666V42.1316C47.7184 42.0114 47.7984 41.9055 47.915 41.8713C48.0315 41.8373 48.1575 41.8825 48.2238 41.9832L48.9739 43.1182C49.0291 43.2016 49.0337 43.3082 48.9856 43.3958C48.9374 43.4832 48.8446 43.5381 48.7435 43.5381Z" fill="white"/>
<path d="M19.0936 34.1672C19.5085 33.8964 19.7269 33.8724 20.0763 34.0602C20.7643 34.4293 20.7927 56.6244 20.1069 56.9913C19.8732 57.1157 19.5784 57.2184 19.4517 57.2184C19.3229 57.2184 19.0717 57.0612 18.8905 56.8668C18.2309 56.1614 18.4231 34.6062 19.0936 34.1672Z" fill="white" fill-opacity="0.988235"/>
</g>
<defs>
<clipPath id="clip0_76_4556">
<rect width="114" height="114" fill="white"/>
</clipPath>
</defs>
</svg>
