<svg width="121" height="101" viewBox="0 0 121 101" fill="none" xmlns="http://www.w3.org/2000/svg">
<g clip-path="url(#clip0_76_4588)">
<path d="M25.3868 38.9074C24.6387 33.9053 24.6387 33.9053 25.2318 31.1121C26.7935 23.7933 32.7898 19.1839 40.2883 19.5436C44.9882 19.7683 44.7408 19.3787 47.435 30.8693C50.5911 44.326 50.7074 43.382 45.4203 47.1282C44.258 47.9494 44.258 47.9494 46.1594 51.1173C49.9593 57.444 56.6531 63.3272 63.2216 66.1085C67.2361 67.8078 67.1437 67.8347 68.5474 64.6369C70.2939 60.6628 69.4743 60.8187 82.4267 61.9636C95.0303 63.0755 94.3925 62.8537 95.388 66.4561C97.3818 73.6939 94.1005 80.7609 87.3173 83.8239C84.79 84.9658 84.79 84.9658 78.9039 85.0407C73.4679 85.1096 72.6751 85.0497 68.5206 84.2465C46.0015 79.8978 28.826 61.8437 25.3868 38.9074ZM92.8636 75.9927C94.6012 72.2853 94.479 66.7378 92.6252 65.2573C91.8205 64.6159 73.0804 62.7907 71.945 63.2463C71.1969 63.546 69.9601 65.8267 69.4624 67.8228C68.9498 69.8847 68.3954 70.0316 65.2989 68.9317C56.662 65.8717 48.5824 59.0804 44.0226 51.0544C41.7456 47.0443 41.7337 47.1073 45.0776 45.1562C48.6033 43.1002 48.5616 43.7716 45.918 32.1221C43.5517 21.6834 43.7067 22.0071 40.8098 21.5066C32.9985 20.1579 26.3911 26.8323 26.9395 35.5147C28.2389 56.0294 43.8139 75.3093 63.7402 81.0696C65.6804 81.6331 69.0332 82.3674 71.188 82.703C74.213 83.1766 76.1054 83.2904 79.5 83.2035C86.7481 83.0177 90.5241 80.9797 92.8636 75.9927Z" fill="white" fill-opacity="0.988235"/>
</g>
<defs>
<clipPath id="clip0_76_4588">
<rect width="121" height="101" fill="white"/>
</clipPath>
</defs>
</svg>
