<svg width="148" height="104" viewBox="0 0 148 104" fill="none" xmlns="http://www.w3.org/2000/svg">
<g clip-path="url(#clip0_76_4600)">
<path d="M36.2708 91.7049C34.5402 90.8619 34.4278 89.7834 34.9853 79.1556C35.5095 69.1847 35.5095 69.1847 34.2198 69.1847C33.3378 69.1847 32.8095 69.445 32.5432 70.0111C30.8416 73.6433 31.3118 73.3045 26.2403 74.5524C22.9495 75.3623 21.3229 75.5937 20.8195 75.3168C19.8335 74.7714 5.14341 17.4957 5.72585 16.4544C5.98795 15.9833 7.75192 15.3759 11.1509 14.5867C16.1849 13.4132 16.1849 13.4132 17.3539 14.5082C19.1678 16.2024 19.7877 16.2106 26.1322 14.6569C32.4475 13.1074 32.6971 12.9586 33.8287 10.0083C34.3113 8.7397 34.5443 8.62813 38.8336 7.57857C45.8146 5.87613 44.4916 3.68196 50.3452 26.6525C53.6901 39.768 55.6371 46.681 56.1114 47.1232C56.7104 47.681 60.409 48.0157 78.4481 49.1355C102.441 50.6272 102.607 50.6562 103.364 53.2842C103.776 54.7139 103.838 54.7511 106.834 55.2263C111.664 55.9908 115.675 58.2469 120.164 62.7303C124.969 67.5277 126.196 67.9575 136.16 68.3583L143.128 68.6393V91.2917C129.304 91.2917 129.304 91.2917 126.425 92.8206C123.546 94.3453 123.546 94.3453 112.018 94.5809C102.149 94.7792 100.294 94.9197 99.1539 95.5313C98.4217 95.9279 97.6271 96.2502 97.3858 96.2502C97.1445 96.2502 83.4987 95.3288 67.0655 94.2007C50.6281 93.0726 36.7701 91.9487 36.2708 91.7049ZM99.5575 84.4736L100.086 76.2094C88.2456 75.259 86.465 74.7053 83.9938 72.4863C82.6292 71.2632 82.0842 71.0442 80.4117 71.0483C69.129 71.0648 57.1764 69.474 58.5202 68.1393C58.7906 67.8707 81.3353 69.0236 82.2839 69.3541C82.3421 69.3748 82.3879 68.2756 82.3879 66.912C82.3879 64.4327 82.3879 64.4327 91.5406 64.4327C99.5076 64.4327 101.126 64.3129 100.577 63.7675C100.327 63.5195 38.6797 59.7717 38.4633 59.9907C38.1014 60.3502 36.3416 89.1843 36.6536 89.6843C36.8242 89.957 48.0487 90.895 66.3124 92.1553C82.4753 93.271 96.2625 94.1842 96.9448 94.1842C98.8045 94.1842 98.9834 93.5106 99.5575 84.4736ZM126.329 90.4776C127.881 89.2463 127.881 89.2463 134.567 89.1306L141.256 89.019V70.4243C125.406 69.8789 123.845 69.3335 119.598 64.9864C114.522 59.7965 109.438 56.9949 105.095 56.9949C103.306 56.9949 103.306 56.9949 103.085 60.4865C102.823 64.66 102.649 64.4327 106.147 64.4327C109.051 64.4327 109.871 64.8542 108.997 65.8955C108.581 66.3996 106.493 66.4988 96.483 66.4988C84.468 66.4988 84.468 66.4988 84.468 68.1186C84.468 71.9615 87.5591 73.4532 96.2833 73.8251C102.087 74.0689 102.087 74.0689 103.431 76.0482C106.389 80.4159 112.796 84.267 117.106 84.267C117.896 84.267 118.167 84.4819 118.167 85.1059C118.167 88.0934 108.943 84.8951 104.438 80.3456L102.149 78.0358C101.729 81.4241 101.492 84.6844 101.359 87.4694L101.109 92.5313C122.356 92.5107 124.066 92.2793 126.329 90.4776ZM26.0614 72.5111C29.8307 71.5111 29.8515 71.4987 30.0886 70.0401C30.359 68.4037 32.6597 66.4988 34.3696 66.4988C35.7716 66.4988 35.8174 66.3005 36.2542 58.532C36.9407 46.2389 36.8491 46.3587 44.995 47.0364C54.83 47.8546 54.3349 50.3711 48.6811 28.2393C45.9727 17.6486 43.6596 8.88846 43.5389 8.76449C43.4183 8.64466 41.6501 8.9587 39.6116 9.45869C35.9047 10.3678 35.9047 10.3678 35.4055 12.0165C34.7315 14.252 33.4834 14.8925 26.257 16.7189C19.4507 18.4378 17.6743 18.4254 16.2681 16.6486C15.149 15.2354 7.57719 16.7767 7.85593 18.3635C7.93497 18.8139 11.0718 31.4128 14.8244 46.3546C18.577 61.2964 21.7888 73.5235 21.9594 73.5235C22.13 73.5235 23.9771 73.0689 26.0614 72.5111ZM101.309 56.7387C101.534 54.3338 101.471 53.4619 101.047 53.0487C100.244 52.2677 40.0983 48.5116 39.2746 49.1893C38.8835 49.5116 38.7046 50.6438 38.7088 52.809V55.9618C84.4888 59.0031 98.5091 59.8874 99.3952 59.8874C101.014 59.8874 101.014 59.8874 101.309 56.7387Z" fill="white" fill-opacity="0.988235"/>
<path d="M41.3886 71.4324C41.7838 66.4449 41.996 66.2754 47.7455 66.4407C52.6464 66.5812 54.0734 66.9572 54.8014 68.2837C55.4379 69.4531 55.0469 75.4529 54.2481 76.7256C53.7031 77.5892 53.3661 77.6554 49.5137 77.6554C47.2297 77.6554 44.6128 77.457 43.6975 77.2174C41.3844 76.6099 41.0474 75.767 41.3886 71.4324ZM52.6422 74.5604C52.6422 72.9034 51.3567 72.6141 50.7701 74.1389C50.5413 74.7381 50.354 75.4033 50.354 75.6182C50.354 75.829 50.8699 75.9571 51.4981 75.8992C52.4675 75.8124 52.6422 75.6058 52.6422 74.5604ZM45.4324 73.9571C44.8292 72.2464 43.2815 72.172 43.2815 73.8538C43.2815 74.4901 43.5644 75.1389 43.9056 75.3C44.2509 75.4571 44.7459 75.5893 45.0164 75.5893C45.8151 75.5893 45.8942 75.2794 45.4324 73.9571ZM48.6442 69.5688C47.9327 69.1349 47.4543 70.2299 47.4543 72.2836C47.4543 73.3083 47.5458 74.2835 47.6582 74.453C47.7663 74.6224 48.1408 74.4777 48.4819 74.1306C49.2141 73.3869 49.3348 69.9902 48.6442 69.5688ZM52.2345 68.7341C51.6354 68.5853 51.0363 68.5729 50.9032 68.7093C50.7701 68.8415 50.8699 69.515 51.132 70.2051C51.4399 71.0274 51.8518 71.42 52.3302 71.3538C53.6074 71.172 53.5325 69.0605 52.2345 68.7341ZM44.9456 68.358C44.1136 68.358 43.8848 68.5853 43.8016 69.4944C43.7142 70.4448 43.8473 70.6142 44.6128 70.5274C46.0356 70.3663 46.3435 68.358 44.9456 68.358Z" fill="white" fill-opacity="0.988235"/>
<path d="M29.1776 26.8054C42.3325 23.4749 43.7927 23.2682 43.177 24.8385C43.0522 25.1649 37.5439 26.7682 29.6019 28.7929C18.057 31.7391 16.1807 32.1193 15.798 31.5863C14.9992 30.4706 15.7065 30.2185 29.1776 26.8054Z" fill="white" fill-opacity="0.988235"/>
<path d="M28.5581 23.2518C38.9755 20.6568 41.6714 20.1155 42.0916 20.5287C43.0776 21.4998 41.7587 21.9709 28.8659 25.2394C21.8308 27.0245 15.8317 28.4831 15.5321 28.4831C15.2368 28.4831 14.8665 28.1856 14.7167 27.8261C14.3007 26.8261 14.6002 26.727 28.5581 23.2518Z" fill="white" fill-opacity="0.988235"/>
<path d="M45.6702 35.6935C47.8959 36.5447 45.8033 37.3628 33.2974 40.5363C26.3164 42.3049 20.1883 43.7594 19.6724 43.7635C19.0151 43.7677 18.7363 43.528 18.7363 42.9578C18.7363 42.09 44.3347 35.1852 45.6702 35.6935Z" fill="white" fill-opacity="0.988235"/>
<path d="M57.9639 75.2464C58.5796 74.7381 69.8915 75.4075 70.474 75.986C70.6737 76.1844 70.7527 76.581 70.657 76.8744C70.5572 77.1637 69.8832 77.4612 69.151 77.5314C68.4229 77.5976 65.6272 77.4364 62.9396 77.1719C58.1511 76.6967 56.8281 76.1844 57.9639 75.2464Z" fill="white" fill-opacity="0.988235"/>
</g>
<defs>
<clipPath id="clip0_76_4600">
<rect width="148" height="104" fill="white"/>
</clipPath>
</defs>
</svg>
