<svg width="117" height="101" viewBox="0 0 117 101" fill="none" xmlns="http://www.w3.org/2000/svg">
<g clip-path="url(#clip0_76_4564)">
<path d="M80.9607 72.9732C80.3796 72.4695 79.8997 72.454 60.2198 72.3274C36.8665 72.1776 37.7641 72.3223 34.7963 68.2564L33.3357 66.2571C22.2765 76.3519 22.3102 76.3623 22.3102 68.5922C22.3102 63.1548 22.3102 63.1548 20.6188 62.8629C18.4137 62.4857 16.3565 61.1761 15.145 59.3808C13.482 56.914 13.4587 56.6091 13.5443 38.9535C13.6195 23.119 13.6195 23.119 14.4497 21.3883C15.4407 19.314 17.4045 17.5627 19.4358 16.9376C21.7006 16.2427 76.0913 16.3435 78.0759 17.0461C80.9451 18.0664 83.5342 21.5614 83.5342 24.4209C83.5342 25.542 83.5342 25.542 90.2325 25.622C96.9308 25.7021 96.9308 25.7021 98.5989 26.5132C100.833 27.5981 102.542 29.6956 103.113 32.0488C103.777 34.7921 103.697 63.6017 103.019 65.9885C102.132 69.1114 99.0347 71.8056 95.8308 72.2422C94.6894 72.3972 94.6894 72.3972 94.6868 77.5944C94.6842 81.6912 94.6038 82.9389 94.3002 83.4994C94.0875 83.8895 93.797 84.2098 93.6543 84.2098C93.509 84.2098 90.728 81.7971 87.4722 78.8498C84.2165 75.9025 81.285 73.2574 80.9607 72.9732ZM95.2627 70.186C97.9322 69.938 99.6833 68.755 100.687 66.5283C101.45 64.8338 101.45 64.8338 101.377 48.5369C101.305 32.2426 101.305 32.2426 100.267 30.6514C98.1579 27.4173 100.498 27.6394 68.4539 27.642C36.8483 27.6446 39.2687 27.4767 37.1648 29.8067C35.2451 31.9326 35.2503 31.8499 35.3359 49.7019C35.4448 72.2913 32.7313 70.0853 60.6219 70.2609L81.2149 70.3901L92.3546 80.8517C92.8008 70.2454 92.7178 70.4237 95.2627 70.186ZM30.0929 66.5619L33.3357 63.5629C33.6133 29.7266 33.5562 30.0805 36.6538 27.5439C39.1598 25.4903 38.1273 25.5729 61.273 25.5729C81.7883 25.5729 81.7882 25.5729 81.6092 24.4751C81.1267 21.5252 79.1603 19.2211 76.6102 18.614C75.6996 18.3996 67.9065 18.3376 47.8064 18.3945C20.2504 18.4694 20.2504 18.4694 18.7509 19.5026C15.5834 21.6854 15.7053 20.9104 15.6223 39.4236C15.5497 55.6069 15.5497 55.6069 16.1723 57.0973C17.0491 59.1974 18.7847 60.5691 21.0494 60.9488C21.9574 61.1012 23.0496 61.3698 23.4776 61.5455C24.2559 61.8658 24.2559 61.8658 24.3208 66.7091C24.3856 71.5525 24.3856 71.5525 25.6179 70.558C26.295 70.0104 28.3107 68.2125 30.0929 66.5619Z" fill="white" fill-opacity="0.988235"/>
<path d="M43.8949 36.9903C44.1336 36.7526 49.9187 36.6803 68.3611 36.6803C94.5811 36.6803 93.8599 36.6415 93.2632 38.0183C93.0038 38.6176 93.0038 38.6176 68.5531 38.6822C55.1046 38.7184 43.9857 38.6641 43.843 38.5608C43.485 38.3051 43.5161 37.3674 43.8949 36.9903Z" fill="white" fill-opacity="0.988235"/>
<path d="M43.2688 51.5099C43.5386 51.032 44.2131 51.0139 65.9502 50.9494C90.31 50.877 89.7108 50.8435 89.1115 52.2254C88.8521 52.8247 88.8521 52.8247 66.2174 52.8893C44.4725 52.9513 43.5723 52.9358 43.2869 52.4786C43.0742 52.1376 43.069 51.8638 43.2688 51.5099Z" fill="white" fill-opacity="0.988235"/>
<path d="M64.8256 43.9751C85.9998 44.0423 85.9998 44.0423 85.9998 44.8172C85.9998 45.5922 85.9998 45.5922 64.6622 45.6567C43.3246 45.7213 43.3246 45.7213 43.1793 45.184C42.8213 43.8615 42.0482 43.9054 64.8256 43.9751Z" fill="white" fill-opacity="0.988235"/>
<path d="M58.0218 58.4405C72.5081 58.5077 72.5081 58.5077 72.5081 59.2826C72.5081 60.0575 72.5081 60.0575 58.0452 60.1221C45.4216 60.179 43.5616 60.1376 43.4215 59.8018C42.8015 58.3062 42.1477 58.3682 58.0218 58.4405Z" fill="white" fill-opacity="0.988235"/>
</g>
<defs>
<clipPath id="clip0_76_4564">
<rect width="117" height="101" fill="white"/>
</clipPath>
</defs>
</svg>
