<svg width="110" height="77" viewBox="0 0 110 77" fill="none" xmlns="http://www.w3.org/2000/svg">
<g clip-path="url(#clip0_76_4593)">
<path d="M12.8975 40.3639C12.8975 16.3367 12.7575 17.5055 15.8396 15.8789C18.082 14.6938 67.2293 14.83 69.1285 16.0261C71.1842 17.3229 71.6343 18.677 71.6343 23.5892C71.6343 25.8288 71.7496 27.8013 71.8923 27.9729C72.0735 28.1963 73.7723 27.3654 77.8069 25.0795C85.5 20.7176 87.9838 20.3416 91.7055 22.9708C94.9743 25.2839 95.1005 25.9214 95.1005 40.2794C95.1005 54.8608 95.1087 54.8064 91.9882 57.3892C88.3351 60.4106 85.725 60.0782 77.8673 55.5992C74.7 53.7928 72.1448 52.4987 72.0103 52.6322C71.8786 52.7603 71.7112 54.8908 71.6343 57.3646C71.4724 62.6365 71.0854 63.6364 68.7168 64.8706C67.4378 65.5381 67.4379 65.5381 42.0889 65.5381C16.7426 65.5381 16.7426 65.5381 15.4911 64.7235C12.7602 62.9444 12.9002 64.263 12.8975 40.3639ZM68.9062 61.5821C69.6253 60.2662 69.7488 21.0309 69.0379 19.3418C68.1267 17.1731 69.9738 17.3147 42.377 17.3147C15.2496 17.3147 16.652 17.2221 15.6366 19.0748C15.0053 20.2299 14.772 59.1764 15.3868 61.0645C15.546 61.5549 16.1004 62.2714 16.6219 62.6583C17.566 63.3585 17.566 63.3585 42.001 63.3585C69.123 63.3585 67.888 63.4402 68.9062 61.5821ZM91.6643 54.572C92.6304 53.2779 92.6304 53.2779 92.6304 40.3393C92.6304 25.6707 92.699 26.0358 89.5757 24.2949C86.7927 22.7419 86.0928 22.9299 78.3997 27.3054L71.7715 31.0734L71.6261 49.4718C80.4609 54.4767 83.5486 56.1904 84.1908 56.5119C84.8934 56.8606 85.876 57.0922 86.6609 57.0922C88.5958 57.0922 90.5033 56.1305 91.6643 54.572Z" fill="white" fill-opacity="0.988235"/>
</g>
<defs>
<clipPath id="clip0_76_4593">
<rect width="110" height="77" fill="white"/>
</clipPath>
</defs>
</svg>
