<svg width="27" height="27" viewBox="0 0 27 27" fill="none" xmlns="http://www.w3.org/2000/svg">
<path fill-rule="evenodd" clip-rule="evenodd" d="M12.6966 1.46032C12.6966 1.89906 13.0691 2.24341 13.5078 2.24341C19.721 2.24341 24.7578 7.2802 24.7578 13.4934C24.7578 19.7066 19.721 24.7434 13.5078 24.7434C7.29461 24.7434 2.25781 19.7066 2.25781 13.4934C2.25781 10.8303 3.18316 8.3833 4.72986 6.45643C5.0224 6.09198 5.06396 5.57775 4.79952 5.19243L4.77989 5.16383C4.42487 4.64652 3.68457 4.57935 3.28512 5.06318C1.39394 7.35385 0.257812 10.2909 0.257812 13.4934C0.257812 20.8112 6.19004 26.7434 13.5078 26.7434C20.8256 26.7434 26.7578 20.8112 26.7578 13.4934C26.7578 6.17563 20.8256 0.243408 13.5078 0.243408C13.0518 0.243408 12.6966 0.623537 12.6966 1.07953V1.46032Z" fill="url(#paint0_linear_76_4629)"/>
<path d="M12.2637 1.24341C12.2637 0.691122 12.7114 0.243408 13.2637 0.243408H13.4269C13.9792 0.243408 14.4269 0.691123 14.4269 1.24341V5.40872C14.4269 5.961 13.9792 6.40871 13.4269 6.40871H13.2637C12.7114 6.40871 12.2637 5.961 12.2637 5.40871V1.24341Z" fill="url(#paint1_linear_76_4629)"/>
<path d="M12.1562 14.8454C10.7108 13.4 7.54842 8.52067 6.87553 7.4731C6.79954 7.35479 6.81879 7.20323 6.91821 7.1038L7.1187 6.90332C7.21812 6.80389 7.36968 6.78464 7.48799 6.86064C8.53556 7.53353 13.4149 10.6959 14.8603 12.1413C16.4827 13.7638 13.7787 16.4678 12.1562 14.8454Z" fill="#FF8303"/>
<defs>
<linearGradient id="paint0_linear_76_4629" x1="13.5078" y1="0.243408" x2="13.5078" y2="26.7434" gradientUnits="userSpaceOnUse">
<stop stop-color="#047CF4"/>
<stop offset="1" stop-color="#0431D7"/>
</linearGradient>
<linearGradient id="paint1_linear_76_4629" x1="13.3453" y1="0.243408" x2="13.3453" y2="6.40871" gradientUnits="userSpaceOnUse">
<stop stop-color="#047CF4"/>
<stop offset="1" stop-color="#0431D7"/>
</linearGradient>
</defs>
</svg>
