<svg width="809" height="808" viewBox="0 0 809 808" fill="none" xmlns="http://www.w3.org/2000/svg">
<path d="M135.955 55.8464C95.8382 55.8464 66.0129 93.0391 66.0127 135.094V516.007C66.0128 558.052 95.8368 595.258 135.955 595.258H468.483L622.588 719.576L641.35 734.711V595.256H672.853C712.97 595.256 742.795 558.053 742.795 516.008V135.094C742.795 93.0391 712.969 55.8464 672.853 55.8464H135.955Z" stroke="white" stroke-width="23.0503"/>
<rect x="2.88128" y="-2.88128" width="421.948" height="56.2567" rx="19.7127" transform="matrix(-1 0 0 1 631.37 235.686)" fill="white" stroke="white" stroke-width="5.76256"/>
<rect x="-2.88128" y="2.88128" width="282.366" height="44.7316" rx="13.9501" transform="matrix(-1 0 0 1 619.845 355.503)" fill="white" stroke="white" stroke-width="5.76256"/>
</svg>
