<svg width="74" height="74" viewBox="0 0 74 74" fill="none" xmlns="http://www.w3.org/2000/svg">
<path d="M30.2169 2.98995C31.2404 3.7957 31.8565 4.67338 32.2313 5.92574C32.2313 6.02113 32.2313 6.11652 32.2313 6.21481C32.3529 6.21253 32.4746 6.21026 32.6 6.20793C33.0555 6.20049 33.5109 6.19508 33.9665 6.19099C34.1628 6.18882 34.3592 6.18587 34.5556 6.1821C36.6095 6.14363 36.6095 6.14363 37.4344 6.6484C37.8654 7.20458 37.8861 7.66214 37.8776 8.34212C37.8755 8.55661 37.8755 8.55661 37.8734 8.77544C37.8716 8.88433 37.8698 8.99323 37.868 9.10543C37.9955 9.10479 38.1229 9.10415 38.2543 9.10349C39.4599 9.09768 40.6654 9.09328 41.871 9.09045C42.4907 9.08895 43.1104 9.08691 43.7301 9.08362C44.3289 9.08047 44.9277 9.07875 45.5266 9.078C45.7542 9.07747 45.9819 9.07644 46.2095 9.07487C48.1452 9.06207 49.818 9.15111 51.3162 10.5349C52.8835 12.2363 52.943 14.1294 52.9321 16.3462C52.932 16.5785 52.932 16.8108 52.9322 17.0431C52.9323 17.6698 52.9306 18.2965 52.9285 18.9232C52.9267 19.5796 52.9266 20.236 52.9262 20.8925C52.9253 22.1337 52.923 23.3749 52.9201 24.6162C52.9168 26.03 52.9152 27.4439 52.9138 28.8578C52.9108 31.7645 52.9057 34.6713 52.8992 37.5781C53.0268 37.5771 53.1544 37.5762 53.2859 37.5752C54.4875 37.5665 55.689 37.5599 56.8907 37.5556C57.5084 37.5534 58.1262 37.5503 58.744 37.5454C59.34 37.5407 59.936 37.5381 60.532 37.5369C60.7596 37.5361 60.9871 37.5346 61.2147 37.5322C61.5331 37.5291 61.8513 37.5287 62.1697 37.5289C62.4417 37.5274 62.4417 37.5274 62.7192 37.5259C63.161 37.5781 63.161 37.5781 63.4364 37.757C63.6382 38.082 63.648 38.2854 63.6467 38.6674C63.6476 38.8689 63.6476 38.8689 63.6485 39.0746C63.6469 39.2217 63.6454 39.3688 63.6438 39.5203C63.6438 39.6755 63.6439 39.8306 63.644 39.9904C63.6437 40.5042 63.6403 41.018 63.6369 41.5318C63.6361 41.8876 63.6355 42.2435 63.635 42.5993C63.6334 43.5367 63.6291 44.474 63.6243 45.4114C63.6199 46.3675 63.6179 47.3237 63.6157 48.2799C63.6111 50.1566 63.6037 52.0334 63.5945 53.9101C63.6917 53.9095 63.7888 53.9088 63.8889 53.9082C64.897 53.9018 65.9051 53.8974 66.9132 53.8942C67.2898 53.8928 67.6663 53.8908 68.0429 53.8883C68.5832 53.8848 69.1234 53.8832 69.6637 53.8819C69.833 53.8804 70.0022 53.8789 70.1765 53.8774C70.3328 53.8773 70.489 53.8773 70.65 53.8773C70.788 53.8767 70.926 53.876 71.0682 53.8754C71.3992 53.9101 71.3992 53.9101 71.6883 54.1992C71.8305 54.6217 71.8515 55.0129 71.8531 55.4565C71.854 55.5925 71.8548 55.7284 71.8556 55.8685C71.8558 56.0166 71.8559 56.1648 71.8561 56.3174C71.8568 56.4742 71.8576 56.6311 71.8583 56.7926C71.8604 57.3115 71.8614 57.8304 71.8622 58.3494C71.863 58.7097 71.8639 59.0701 71.8647 59.4305C71.866 60.0895 71.8669 60.7486 71.8674 61.4076C71.8679 62.2804 71.8697 63.1532 71.8735 64.026C71.8774 64.9629 71.8793 65.8997 71.8796 66.8366C71.88 67.1938 71.8812 67.551 71.8831 67.9082C71.8856 68.4075 71.8853 68.9067 71.8843 69.406C71.8857 69.5538 71.887 69.7017 71.8884 69.854C71.8872 70.0586 71.8872 70.0586 71.8859 70.2673C71.8862 70.3852 71.8864 70.5032 71.8866 70.6247C71.8141 71.0834 71.693 71.3248 71.3992 71.6875C71.0146 71.7616 70.72 71.7845 70.3346 71.778C70.2247 71.779 70.1149 71.78 70.0018 71.7811C69.6306 71.7836 69.2598 71.7809 68.8887 71.7783C68.6211 71.779 68.3536 71.78 68.0861 71.7814C67.3486 71.7841 66.6111 71.7823 65.8736 71.7798C65.0791 71.7779 64.2846 71.7801 63.4901 71.7818C61.9324 71.7845 60.3747 71.7832 58.8169 71.7806C57.5507 71.7786 56.2845 71.778 55.0183 71.7785C54.8383 71.7786 54.6583 71.7787 54.4729 71.7787C54.1073 71.7789 53.7417 71.779 53.376 71.7792C50.0415 71.7805 46.7071 71.7778 43.3726 71.7733C40.3297 71.7693 37.2868 71.7686 34.244 71.7708C33.4655 71.7713 32.6869 71.7719 31.9084 71.7724C31.8126 71.7724 31.7167 71.7725 31.618 71.7726C29.0752 71.7742 26.5325 71.7731 23.9898 71.7712C23.6251 71.771 23.2605 71.7707 22.8958 71.7704C22.7164 71.7703 22.537 71.7702 22.3521 71.7701C21.0881 71.7692 19.824 71.7697 18.56 71.7707C17.0185 71.7718 15.477 71.7708 13.9356 71.7672C13.1491 71.7654 12.3627 71.7645 11.5763 71.7661C10.8559 71.7676 10.1355 71.7663 9.41514 71.763C9.15495 71.7622 8.89475 71.7625 8.63457 71.7638C6.56709 71.7732 5.05834 71.5504 3.52544 70.0547C2.09697 68.4369 2.12504 66.3669 2.13206 64.3131C2.13173 64.0983 2.13127 63.8836 2.13069 63.6688C2.12949 63.0831 2.13008 62.4974 2.13098 61.9117C2.13164 61.2783 2.13062 60.6449 2.12983 60.0115C2.12855 58.7724 2.12882 57.5333 2.12966 56.2941C2.13031 55.2866 2.1304 54.2791 2.13009 53.2716C2.13002 53.0562 2.13002 53.0562 2.12995 52.8364C2.12986 52.5445 2.12976 52.2527 2.12967 51.9609C2.12885 49.2271 2.12979 46.4933 2.13135 43.7595C2.13264 41.4162 2.13241 39.073 2.13108 36.7297C2.12953 34.0056 2.12893 31.2815 2.12981 28.5575C2.12991 28.2667 2.13 27.9759 2.13009 27.6852C2.13013 27.5421 2.13018 27.3991 2.13022 27.2517C2.13047 26.246 2.13005 25.2404 2.12937 24.2347C2.12855 23.0082 2.12878 21.7817 2.13032 20.5552C2.13108 19.93 2.13138 19.3049 2.13042 18.6797C2.12955 18.1063 2.13004 17.533 2.13157 16.9596C2.13189 16.7533 2.13173 16.5469 2.13103 16.3405C2.12535 14.5427 2.12468 12.7936 3.18049 11.2734C3.28184 11.1244 3.38319 10.9753 3.48761 10.8217C4.35393 9.84646 5.51746 9.28251 6.79377 9.10543C7.59516 9.06682 8.39505 9.07167 9.19716 9.0772C9.42861 9.07774 9.66007 9.07815 9.89152 9.07844C10.4967 9.07954 11.1019 9.08237 11.707 9.08558C12.3262 9.08855 12.9453 9.08986 13.5644 9.09132C14.7763 9.0944 15.9882 9.09933 17.2 9.10543C17.1979 9.01803 17.1958 8.93063 17.1937 8.84057C17.192 8.7249 17.1904 8.60922 17.1887 8.49004C17.1866 8.37581 17.1845 8.26158 17.1824 8.14389C17.2164 7.48933 17.4381 6.97626 17.9227 6.52193C18.4942 6.20045 18.9601 6.19788 19.6045 6.20069C19.7922 6.20116 19.98 6.20162 20.1734 6.2021C20.3716 6.20331 20.5699 6.20453 20.7681 6.20577C20.9681 6.2065 21.168 6.20716 21.368 6.20775C21.8576 6.20945 22.3472 6.21183 22.8367 6.21481C22.8635 6.1176 22.8903 6.02039 22.9179 5.92024C22.973 5.72734 22.973 5.72734 23.0293 5.53054C23.0829 5.34002 23.0829 5.34002 23.1375 5.14564C23.5543 3.96504 24.5009 3.21196 25.5484 2.59644C27.0592 1.89185 28.8219 2.22131 30.2169 2.98995ZM24.8602 5.05856C24.4109 5.80375 24.2429 6.51015 24.1375 7.37106C23.7177 7.79091 23.277 7.71135 22.7137 7.71996C22.6018 7.72276 22.4899 7.72556 22.3747 7.72845C22.0168 7.73709 21.659 7.74379 21.3011 7.75045C21.0587 7.75597 20.8163 7.76161 20.5739 7.76739C19.9793 7.78128 19.3846 7.79342 18.7899 7.80465C18.7863 8.37834 18.7837 8.95202 18.7819 9.52572C18.7812 9.72102 18.7802 9.91632 18.779 10.1116C18.7772 10.3918 18.7765 10.672 18.7757 10.9522C18.775 11.1209 18.7742 11.2897 18.7735 11.4636C18.7455 11.8398 18.7455 11.8398 18.9344 11.9961C19.1593 12.0099 19.3849 12.0137 19.6102 12.0134C19.8294 12.0137 19.8294 12.0137 20.053 12.014C20.2147 12.0135 20.3763 12.013 20.5429 12.0125C20.7967 12.0125 20.7967 12.0125 21.0556 12.0125C21.5208 12.0124 21.986 12.0117 22.4513 12.0107C22.937 12.0098 23.4227 12.0097 23.9084 12.0096C24.8287 12.0091 25.7491 12.0079 26.6694 12.0065C27.7169 12.0049 28.7645 12.0041 29.812 12.0033C31.9674 12.0018 34.1228 11.9992 36.2781 11.9961C36.2781 10.6129 36.2781 9.22973 36.2781 7.80465C35.7536 7.79403 35.7536 7.79403 35.2184 7.7832C34.8798 7.77539 34.5411 7.76711 34.2024 7.75878C33.9671 7.75324 33.7317 7.74821 33.4963 7.74368C33.1579 7.73708 32.8197 7.72869 32.4814 7.71996C32.3761 7.71829 32.2709 7.71662 32.1624 7.7149C31.6286 7.69932 31.386 7.67474 30.9305 7.37106C30.8554 7.0357 30.8554 7.0357 30.8131 6.63033C30.6383 5.53577 30.1254 4.86095 29.2503 4.2004C27.7409 3.27799 25.995 3.76038 24.8602 5.05856ZM4.53885 11.9582C3.93921 12.749 3.72268 13.5333 3.72143 14.526C3.7205 14.7136 3.71956 14.9012 3.7186 15.0945C3.71903 15.3017 3.71948 15.5089 3.71996 15.7161C3.71942 15.937 3.71875 16.1579 3.71797 16.3788C3.71621 16.9854 3.71624 17.592 3.71658 18.1987C3.71664 18.8531 3.71505 19.5074 3.71368 20.1618C3.71128 21.4438 3.71048 22.7258 3.71032 24.0078C3.71018 25.0499 3.70959 26.092 3.70867 27.1342C3.70613 30.089 3.70479 33.0438 3.70501 35.9986C3.70502 36.1579 3.70503 36.3172 3.70505 36.4813C3.70506 36.6408 3.70507 36.8003 3.70508 36.9646C3.7052 39.5492 3.70243 42.1338 3.69836 44.7184C3.69421 47.3724 3.69221 50.0264 3.69246 52.6804C3.69256 54.1704 3.69176 55.6603 3.68865 57.1503C3.68602 58.4189 3.68539 59.6875 3.68735 60.9562C3.6883 61.6033 3.68831 62.2503 3.6858 62.8974C3.68353 63.4903 3.68394 64.0832 3.68646 64.676C3.68691 64.89 3.68638 65.104 3.68477 65.318C3.67431 66.8039 3.78263 68.0578 4.7884 69.2124C6.23155 70.4897 7.97429 70.3214 9.78383 70.3078C10.0873 70.3076 10.3909 70.3077 10.6944 70.308C11.5152 70.3082 12.3359 70.3048 13.1567 70.3008C14.0157 70.2971 14.8746 70.2968 15.7336 70.2961C17.3588 70.2943 18.9839 70.2896 20.609 70.2838C22.8061 70.2761 25.0031 70.273 27.2002 70.2696C30.6598 70.2642 34.1193 70.2527 37.5789 70.2421C37.6266 64.9003 37.6743 59.5584 37.7235 54.0546C41.6583 53.9831 41.6583 53.9831 45.6727 53.9101C45.6798 52.7779 45.6868 51.6457 45.6941 50.4792C45.6992 49.7632 45.7044 49.0472 45.7099 48.3313C45.7187 47.1941 45.7271 46.0569 45.7336 44.9197C45.739 44.0032 45.7457 43.0867 45.7533 42.1702C45.756 41.82 45.7582 41.4698 45.7599 41.1196C45.7623 40.6303 45.7665 40.1409 45.7711 39.6516C45.7716 39.433 45.7716 39.433 45.7721 39.2099C45.7737 39.0768 45.7753 38.9436 45.777 38.8064C45.7778 38.6907 45.7786 38.5749 45.7794 38.4556C45.8172 38.1562 45.8172 38.1562 46.1063 37.7226C46.505 37.6738 46.873 37.6519 47.2727 37.6487C47.3878 37.6461 47.5028 37.6435 47.6214 37.6408C47.9896 37.633 48.3577 37.6281 48.7259 37.6233C48.9753 37.6185 49.2246 37.6135 49.474 37.6083C50.0858 37.596 50.6975 37.5863 51.3094 37.5781C51.3195 34.4699 51.3272 31.3616 51.3319 28.2534C51.3341 26.8102 51.3371 25.3669 51.3421 23.9237C51.3464 22.6656 51.3492 21.4075 51.3502 20.1494C51.3508 19.4834 51.3521 18.8174 51.3552 18.1514C51.3582 17.5241 51.3591 16.8968 51.3584 16.2695C51.3586 16.0397 51.3594 15.8099 51.3611 15.5801C51.3715 14.0752 51.3451 12.8118 50.279 11.65C49.2256 10.7461 48.0468 10.5318 46.6955 10.5343C46.5515 10.5343 46.5515 10.5343 46.4046 10.5343C46.0902 10.5344 45.7759 10.5355 45.4615 10.5366C45.2424 10.5369 45.0233 10.5371 44.8042 10.5372C44.2297 10.5378 43.6551 10.5392 43.0806 10.5408C42.4935 10.5423 41.9064 10.543 41.3192 10.5437C40.1688 10.5452 39.0184 10.5477 37.868 10.5507C37.8598 10.6595 37.8515 10.7683 37.843 10.8804C37.8255 11.0948 37.8255 11.0948 37.8076 11.3135C37.7964 11.4551 37.7851 11.5967 37.7736 11.7425C37.7106 12.2424 37.5766 12.5935 37.2899 13.0078C36.8376 13.2974 36.4806 13.3329 35.9493 13.3326C35.7949 13.3332 35.6404 13.3338 35.4814 13.3344C35.3127 13.3336 35.1441 13.3328 34.9703 13.3319C34.7921 13.3322 34.6139 13.3325 34.4303 13.3328C33.9421 13.3332 33.4539 13.3324 32.9657 13.3309C32.4546 13.3296 31.9435 13.3299 31.4324 13.3299C30.5741 13.3298 29.7158 13.3286 28.8576 13.3266C27.8655 13.3243 26.8734 13.3235 25.8813 13.3237C24.8249 13.3238 23.7684 13.3227 22.712 13.3214C22.4077 13.3211 22.1034 13.321 21.7991 13.321C21.2319 13.3208 20.6648 13.3194 20.0977 13.3178C19.929 13.3179 19.7604 13.318 19.5866 13.318C19.4322 13.3174 19.2778 13.3168 19.1187 13.3162C18.9847 13.3159 18.8506 13.3157 18.7125 13.3154C18.3769 13.2979 18.0954 13.2623 17.7781 13.1523C17.6319 12.8994 17.6319 12.8994 17.5342 12.5742C17.5009 12.4698 17.4675 12.3655 17.4332 12.258C17.3539 11.8943 17.3062 11.5453 17.2667 11.1757C17.2541 11.0587 17.2415 10.9416 17.2285 10.821C17.2144 10.6872 17.2144 10.6872 17.2 10.5507C15.9624 10.544 14.7248 10.5389 13.4871 10.5358C12.9123 10.5343 12.3375 10.5322 11.7627 10.5289C11.207 10.5258 10.6513 10.5241 10.0956 10.5233C9.88458 10.5228 9.67359 10.5218 9.4626 10.5202C7.60657 10.5069 5.87791 10.5049 4.53885 11.9582ZM47.2625 39.0234C47.2625 43.936 47.2625 48.8486 47.2625 53.9101C52.1751 53.9101 57.0877 53.9101 62.1492 53.9101C62.1492 48.9975 62.1492 44.0849 62.1492 39.0234C60.9569 39.0234 59.7645 39.0234 58.536 39.0234C58.5306 39.5713 58.5251 40.1193 58.5196 40.6838C58.5129 41.2133 58.5055 41.7428 58.498 42.2724C58.4932 42.6409 58.4892 43.0095 58.4859 43.3781C58.481 43.9073 58.4735 44.4364 58.4654 44.9656C58.4645 45.1309 58.4635 45.2962 58.4626 45.4665C58.4597 45.6199 58.4569 45.7732 58.4539 45.9312C58.4523 46.0663 58.4507 46.2014 58.4491 46.3406C58.3812 46.7444 58.285 46.8774 57.9578 47.1171C57.6292 47.1386 57.6292 47.1386 57.2352 46.9726C56.8813 46.6456 56.5815 46.2799 56.2777 45.9067C56.1133 45.7098 55.9488 45.5129 55.7842 45.3162C55.7124 45.2285 55.6405 45.1409 55.5665 45.0506C55.3622 44.8116 55.148 44.5902 54.9227 44.3711C54.6484 44.6659 54.3744 44.961 54.1007 45.2563C54.024 45.3387 53.9473 45.421 53.8683 45.5059C53.4949 45.909 53.1372 46.3128 52.7999 46.7468C52.6896 46.869 52.5793 46.9912 52.4656 47.1171C51.9869 47.0991 51.9869 47.0991 51.5985 46.9726C51.4554 46.5435 51.4318 46.2483 51.4242 45.7999C51.4214 45.6495 51.4185 45.499 51.4155 45.344C51.4131 45.1819 51.4107 45.0197 51.4082 44.8526C51.4052 44.6864 51.4022 44.5202 51.3991 44.349C51.3896 43.8174 51.3811 43.2857 51.3726 42.7541C51.3664 42.394 51.3601 42.0339 51.3537 41.6738C51.3381 40.7903 51.3238 39.9069 51.3094 39.0234C49.9739 39.0234 48.6385 39.0234 47.2625 39.0234ZM52.8992 39.0234C52.8992 40.7881 52.8992 42.5529 52.8992 44.3711C53.4099 43.8604 53.822 43.4042 54.2401 42.8326C54.4891 42.6367 54.4891 42.6367 54.9023 42.5582C55.5067 42.6627 55.7566 42.9749 56.1241 43.4316C56.3483 43.6981 56.5742 43.9627 56.8016 44.2265C56.8493 44.2265 56.897 44.2265 56.9461 44.2265C56.9461 42.5095 56.9461 40.7925 56.9461 39.0234C55.6106 39.0234 54.2752 39.0234 52.8992 39.0234ZM39.0242 55.3554C39.0242 60.268 39.0242 65.1807 39.0242 70.2421C43.9369 70.2421 48.8495 70.2421 53.911 70.2421C53.911 65.3295 53.911 60.4169 53.911 55.3554C52.6232 55.3554 51.3354 55.3554 50.0086 55.3554C49.9609 57.9787 49.9132 60.6019 49.8641 63.3046C48.9969 63.4492 48.9969 63.4492 48.705 63.2663C48.6195 63.1716 48.534 63.077 48.4459 62.9795C48.3495 62.8744 48.2532 62.7693 48.154 62.661C47.6054 62.0166 47.0662 61.3658 46.5399 60.7031C46.0348 61.2009 45.5513 61.7116 45.0765 62.2387C44.8424 62.4984 44.6077 62.7575 44.3719 63.0156C44.3037 63.1032 44.2355 63.1907 44.1653 63.2809C43.9383 63.4492 43.9383 63.4492 43.0711 63.4492C43.0234 60.7782 42.9757 58.1073 42.9266 55.3554C41.6388 55.3554 40.351 55.3554 39.0242 55.3554ZM44.3719 55.3554C44.3719 57.1202 44.3719 58.8849 44.3719 60.7031C44.988 60.2102 45.3599 59.8069 45.8116 59.1872C46.1063 58.9687 46.1063 58.9687 46.6008 58.9574C47.2398 59.15 47.4301 59.3856 47.8226 59.9172C48.0201 60.18 48.2185 60.4423 48.4188 60.7031C48.4665 60.7031 48.5142 60.7031 48.5633 60.7031C48.5633 58.9384 48.5633 57.1736 48.5633 55.3554C47.1801 55.3554 45.797 55.3554 44.3719 55.3554ZM55.3563 55.3554C55.3563 60.268 55.3563 65.1807 55.3563 70.2421C60.2689 70.2421 65.1815 70.2421 70.243 70.2421C70.243 65.3295 70.243 60.4169 70.243 55.3554C68.9552 55.3554 67.6674 55.3554 66.3406 55.3554C66.2929 57.9787 66.2452 60.6019 66.1961 63.3046C65.3289 63.4492 65.3289 63.4492 65.0687 63.2979C64.9605 63.176 64.9605 63.176 64.8502 63.0517C64.7665 62.9599 64.6829 62.868 64.5967 62.7734C64.1563 62.244 63.7278 61.7055 63.3077 61.1598C63.2116 61.0568 63.1155 60.9538 63.0164 60.8476C62.8733 60.8476 62.7303 60.8476 62.5828 60.8476C62.2646 61.1724 62.2646 61.1724 61.9505 61.5883C61.7775 61.8052 61.7775 61.8052 61.601 62.0265C61.4203 62.2593 61.2411 62.4933 61.0669 62.731C60.7631 63.1349 60.5888 63.2954 60.0987 63.4492C59.9646 63.4492 59.8304 63.4492 59.6922 63.4492C59.3203 63.0773 59.3643 62.9281 59.3571 62.4109C59.3542 62.2546 59.3513 62.0984 59.3484 61.9374C59.3467 61.7682 59.345 61.599 59.3433 61.4246C59.3405 61.2518 59.3377 61.079 59.3348 60.9009C59.3262 60.3472 59.3195 59.7935 59.3128 59.2397C59.3073 58.865 59.3016 58.4903 59.2959 58.1156C59.2817 57.1956 59.2702 56.2755 59.2586 55.3554C57.9708 55.3554 56.6831 55.3554 55.3563 55.3554ZM60.7039 55.3554C60.7039 57.1202 60.7039 58.8849 60.7039 60.7031C61.32 60.2102 61.6919 59.8069 62.1436 59.1872C62.4383 58.9687 62.4383 58.9687 62.9329 58.9574C63.5719 59.15 63.7622 59.3856 64.1546 59.9172C64.3522 60.18 64.5506 60.4423 64.7508 60.7031C64.7985 60.7031 64.8462 60.7031 64.8953 60.7031C64.8953 58.9384 64.8953 57.1736 64.8953 55.3554C63.5122 55.3554 62.129 55.3554 60.7039 55.3554Z" fill="white"/>
<path d="M10.4821 36.9276C10.5773 36.9268 10.6725 36.926 10.7707 36.9252C11.0854 36.9234 11.3999 36.9258 11.7146 36.9284C11.9333 36.9283 12.1519 36.9281 12.3706 36.9277C12.8289 36.9275 13.2872 36.9293 13.7455 36.9326C14.3331 36.9367 14.9206 36.9363 15.5083 36.9345C15.9598 36.9335 16.4114 36.9346 16.863 36.9364C17.0796 36.9371 17.2963 36.9371 17.513 36.9366C17.8157 36.9361 18.1184 36.9385 18.4211 36.9417C18.5935 36.9425 18.7658 36.9432 18.9433 36.944C19.3657 37.0001 19.3657 37.0001 19.6379 37.1615C19.8794 37.5688 19.8555 37.9069 19.8577 38.3782C19.8587 38.4734 19.8597 38.5687 19.8607 38.6668C19.8633 38.9814 19.8628 39.296 19.8619 39.6107C19.8626 39.8294 19.8634 40.048 19.8642 40.2667C19.8655 40.725 19.8652 41.1833 19.8637 41.6416C19.8621 42.2292 19.865 42.8167 19.8692 43.4044C19.8719 43.8559 19.8718 44.3075 19.871 44.7591C19.871 44.9757 19.8719 45.1924 19.8737 45.4091C19.8758 45.7119 19.8743 46.0145 19.8718 46.3173C19.8718 46.4896 19.8717 46.6619 19.8717 46.8395C19.7993 47.2618 19.7993 47.2618 19.5639 47.534C19.1189 47.7435 18.7811 47.7515 18.289 47.7538C18.1 47.7556 17.9109 47.7574 17.7161 47.7593C17.5102 47.759 17.3043 47.7586 17.0983 47.7581C16.8867 47.7587 16.675 47.7595 16.4634 47.7603C16.0202 47.7616 15.577 47.7613 15.1338 47.7599C14.5661 47.7582 13.9985 47.7611 13.4308 47.7653C12.9939 47.768 12.557 47.7679 12.12 47.7671C11.9107 47.7671 11.7014 47.768 11.4921 47.7698C11.1995 47.7719 10.9068 47.77 10.6142 47.7679C10.4478 47.7679 10.2813 47.7678 10.1099 47.7678C9.68209 47.6954 9.68209 47.6954 9.3393 47.46C9.0309 47.0108 9.03153 46.7282 9.03145 46.1851C9.0301 45.9961 9.02874 45.807 9.02734 45.6122C9.02886 45.4063 9.0305 45.2004 9.03226 44.9945C9.03224 44.7828 9.03203 44.5711 9.03163 44.3595C9.03143 43.9163 9.03324 43.4731 9.03653 43.0299C9.04064 42.4622 9.04024 41.8946 9.0384 41.3269C9.03739 40.89 9.03852 40.4531 9.04032 40.0161C9.04097 39.8068 9.04102 39.5975 9.04045 39.3882C9.04003 39.0956 9.04273 38.8029 9.04557 38.5103C9.04635 38.3439 9.04713 38.1774 9.04793 38.006C9.17267 37.0536 9.57432 36.9277 10.4821 36.9276ZM10.6938 38.4454C10.6938 40.9732 10.6938 43.5011 10.6938 46.1055C13.2217 46.1055 15.7495 46.1055 18.354 46.1055C18.354 43.5777 18.354 41.0498 18.354 38.4454C15.8261 38.4454 13.2983 38.4454 10.6938 38.4454Z" fill="#FF8303"/>
<path d="M9.39638 54.0548C9.81329 54.0007 9.81329 54.0007 10.3533 54.001C10.4516 54.0004 10.5499 53.9999 10.6511 53.9994C10.9766 53.9982 11.3021 54.0002 11.6276 54.0023C11.8533 54.0024 12.079 54.0023 12.3048 54.0021C12.7781 54.0021 13.2515 54.0036 13.7248 54.0062C14.3324 54.0095 14.9399 54.0096 15.5475 54.0086C16.0136 54.0081 16.4798 54.0091 16.946 54.0105C17.1701 54.011 17.3941 54.0112 17.6182 54.011C17.931 54.0109 18.2438 54.0127 18.5566 54.0151C18.8239 54.0161 18.8239 54.0161 19.0967 54.0171C19.5136 54.0548 19.5136 54.0548 19.8026 54.3438C19.8393 54.7488 19.8393 54.7488 19.84 55.272C19.8405 55.3672 19.841 55.4624 19.8416 55.5605C19.8428 55.8759 19.842 56.1913 19.841 56.5067C19.8412 56.7256 19.8415 56.9445 19.8419 57.1634C19.8423 57.6226 19.8417 58.0817 19.8403 58.5409C19.8387 59.1296 19.8396 59.7183 19.8414 60.3071C19.8424 60.7592 19.8421 61.2114 19.8413 61.6636C19.8411 61.8807 19.8414 62.0978 19.842 62.3148C19.8428 62.6183 19.8416 62.9217 19.84 63.2251C19.8398 63.3979 19.8396 63.5707 19.8393 63.7487C19.8026 64.172 19.8026 64.172 19.5136 64.6056C19.1031 64.6616 19.1031 64.6616 18.5722 64.664C18.4756 64.665 18.3789 64.6659 18.2794 64.667C17.9593 64.6696 17.6392 64.6691 17.3191 64.6682C17.0969 64.6689 16.8748 64.6697 16.6527 64.6705C16.1867 64.6718 15.7208 64.6715 15.2548 64.67C14.6573 64.6684 14.0599 64.6713 13.4624 64.6755C13.0035 64.6782 12.5446 64.6781 12.0857 64.6773C11.8654 64.6773 11.6451 64.6782 11.4248 64.6799C11.1168 64.6821 10.809 64.6806 10.501 64.6781C10.3257 64.6781 10.1504 64.678 9.96971 64.678C9.54091 64.6056 9.54091 64.6056 9.26747 64.3704C9.05898 63.9239 9.05324 63.5859 9.05351 63.093C9.05261 62.9035 9.05171 62.714 9.05078 62.5187C9.05204 62.3123 9.05338 62.1059 9.05481 61.8996C9.05489 61.6876 9.05481 61.4755 9.0546 61.2635C9.05461 60.8197 9.05611 60.3759 9.05873 59.9321C9.06201 59.3631 9.06209 58.7942 9.06111 58.2253C9.06063 57.7877 9.06159 57.3501 9.06301 56.9126C9.06357 56.7028 9.06373 56.493 9.0635 56.2831C9.06345 55.9901 9.06549 55.6971 9.06762 55.4041C9.06829 55.2373 9.06896 55.0706 9.06964 54.8988C9.10732 54.4884 9.10732 54.4884 9.39638 54.0548ZM10.6972 55.5001C10.6972 58.0279 10.6972 60.5558 10.6972 63.1603C13.225 63.1603 15.7529 63.1603 18.3573 63.1603C18.3573 60.6324 18.3573 58.1045 18.3573 55.5001C15.8295 55.5001 13.3016 55.5001 10.6972 55.5001Z" fill="white"/>
<path d="M9.39638 20.0899C9.81329 20.0359 9.81329 20.0359 10.3533 20.0361C10.4516 20.0356 10.5499 20.0351 10.6511 20.0345C10.9766 20.0334 11.3021 20.0353 11.6276 20.0374C11.8533 20.0375 12.079 20.0374 12.3048 20.0372C12.7781 20.0372 13.2515 20.0387 13.7248 20.0414C14.3324 20.0446 14.9399 20.0447 15.5475 20.0437C16.0136 20.0433 16.4798 20.0442 16.946 20.0456C17.1701 20.0462 17.3941 20.0464 17.6182 20.0461C17.931 20.0461 18.2438 20.0479 18.5566 20.0502C18.8239 20.0512 18.8239 20.0512 19.0967 20.0523C19.5136 20.0899 19.5136 20.0899 19.8026 20.379C19.8393 20.784 19.8393 20.784 19.84 21.3071C19.8405 21.4023 19.841 21.4975 19.8416 21.5956C19.8428 21.9111 19.842 22.2265 19.841 22.5419C19.8412 22.7608 19.8415 22.9797 19.8419 23.1986C19.8423 23.6577 19.8417 24.1169 19.8403 24.576C19.8387 25.1648 19.8396 25.7535 19.8414 26.3422C19.8424 26.7944 19.8421 27.2466 19.8413 27.6988C19.8411 27.9158 19.8414 28.1329 19.842 28.35C19.8428 28.6534 19.8416 28.9568 19.84 29.2603C19.8398 29.4331 19.8396 29.6058 19.8393 29.7838C19.8026 30.2071 19.8026 30.2071 19.5136 30.6407C19.1031 30.6968 19.1031 30.6968 18.5722 30.6991C18.4756 30.7001 18.3789 30.7011 18.2794 30.7021C17.9593 30.7048 17.6392 30.7042 17.3191 30.7034C17.0969 30.704 16.8748 30.7048 16.6527 30.7057C16.1867 30.707 15.7208 30.7066 15.2548 30.7052C14.6573 30.7035 14.0599 30.7064 13.4624 30.7107C13.0035 30.7133 12.5446 30.7133 12.0857 30.7125C11.8654 30.7124 11.6451 30.7133 11.4248 30.7151C11.1168 30.7172 10.809 30.7157 10.501 30.7132C10.3257 30.7132 10.1504 30.7132 9.96971 30.7132C9.54091 30.6407 9.54091 30.6407 9.26747 30.4055C9.05898 29.9591 9.05324 29.621 9.05351 29.1282C9.05261 28.9387 9.05171 28.7491 9.05078 28.5538C9.05204 28.3475 9.05338 28.1411 9.05481 27.9347C9.05489 27.7227 9.05481 27.5107 9.0546 27.2987C9.05461 26.8549 9.05611 26.4111 9.05873 25.9673C9.06201 25.3983 9.06209 24.8294 9.06111 24.2604C9.06063 23.8228 9.06159 23.3853 9.06301 22.9477C9.06357 22.7379 9.06373 22.5281 9.0635 22.3183C9.06345 22.0253 9.06549 21.7323 9.06762 21.4392C9.06829 21.2725 9.06896 21.1057 9.06964 20.9339C9.10732 20.5235 9.10732 20.5235 9.39638 20.0899ZM10.6972 21.5353C10.6972 24.0631 10.6972 26.591 10.6972 29.1954C13.225 29.1954 15.7529 29.1954 18.3573 29.1954C18.3573 26.6676 18.3573 24.1397 18.3573 21.5353C15.8295 21.5353 13.3016 21.5353 10.6972 21.5353Z" fill="white"/>
<path d="M24.244 46.0678C24.4167 46.0668 24.5893 46.0658 24.7672 46.0647C24.9569 46.0651 25.1466 46.0654 25.342 46.0658C25.5435 46.0652 25.7451 46.0644 25.9467 46.0636C26.4943 46.0616 27.042 46.0615 27.5896 46.0619C28.0465 46.0621 28.5034 46.0614 28.9603 46.0607C30.0379 46.0591 31.1155 46.059 32.1931 46.0599C33.3056 46.0607 34.4181 46.059 35.5307 46.0559C36.4853 46.0533 37.4398 46.0525 38.3944 46.0529C38.9648 46.0532 39.5352 46.0528 40.1056 46.0508C40.6419 46.049 41.178 46.0493 41.7143 46.0512C42.0053 46.0517 42.2964 46.05 42.5875 46.0483C42.7602 46.0494 42.9328 46.0504 43.1107 46.0514C43.3363 46.0514 43.3363 46.0514 43.5664 46.0513C43.9391 46.1055 43.9391 46.1055 44.2043 46.3031C44.4453 46.6409 44.4335 46.8566 44.3727 47.2617C44.2043 47.4977 44.2043 47.4977 43.9391 47.6953C43.5664 47.7495 43.5664 47.7495 43.1107 47.7494C42.9381 47.7504 42.7654 47.7515 42.5875 47.7525C42.303 47.7508 42.303 47.7508 42.0128 47.7492C41.8112 47.7495 41.6096 47.75 41.4081 47.7508C40.8604 47.7521 40.3128 47.7507 39.7651 47.7488C39.1924 47.7472 38.6197 47.7478 38.047 47.7481C37.0852 47.7482 36.1234 47.7466 35.1616 47.7439C34.0491 47.7409 32.9366 47.7404 31.8241 47.7413C30.7546 47.7421 29.6851 47.7413 28.6155 47.7397C28.1601 47.739 27.7046 47.7389 27.2491 47.7392C26.7129 47.7394 26.1767 47.7383 25.6405 47.736C25.3494 47.7351 25.0583 47.7356 24.7672 47.7361C24.5082 47.7346 24.5082 47.7346 24.244 47.733C24.0936 47.7327 23.9433 47.7324 23.7883 47.7321C23.4156 47.6953 23.4156 47.6953 22.9821 47.4063C22.9279 46.9004 22.9279 46.9004 22.9821 46.3946C23.4787 46.0635 23.6597 46.069 24.244 46.0678Z" fill="#FF8303"/>
<path d="M23.6719 29.1052C23.9186 29.1053 23.9186 29.1053 24.1702 29.1055C24.3589 29.1039 24.5476 29.1023 24.742 29.1006C24.9515 29.1025 25.1611 29.1044 25.3706 29.1064C25.5909 29.1059 25.8112 29.1051 26.0315 29.104C26.6303 29.1019 27.2289 29.1044 27.8277 29.1078C28.4535 29.1107 29.0793 29.1098 29.7051 29.1095C30.756 29.1095 31.8068 29.1123 32.8577 29.117C34.0738 29.1223 35.2899 29.1236 36.5061 29.1226C37.6747 29.1217 38.8433 29.1232 40.0119 29.126C40.5098 29.1272 41.0078 29.1276 41.5057 29.1274C42.0917 29.1273 42.6776 29.1293 43.2635 29.1331C43.4789 29.1341 43.6944 29.1344 43.9099 29.1339C44.2031 29.1334 44.4963 29.1358 44.7896 29.1383C45.0361 29.1391 45.0361 29.1391 45.2877 29.1399C45.4778 29.1674 45.4778 29.1674 45.6719 29.1953C45.9609 29.6289 45.9609 29.6289 45.9248 30.0806C45.8711 30.2863 45.8711 30.2863 45.8164 30.4961C45.4181 30.6953 45.0965 30.6607 44.6505 30.6629C44.3699 30.6647 44.3699 30.6647 44.0837 30.6666C43.8752 30.6673 43.6667 30.6679 43.4582 30.6685C43.2396 30.6696 43.021 30.6708 42.8023 30.6721C42.0834 30.6759 41.3644 30.6781 40.6455 30.6801C40.3982 30.6809 40.151 30.6817 39.9038 30.6825C38.8758 30.6856 37.8479 30.6883 36.8199 30.6899C35.345 30.6923 33.8702 30.6971 32.3953 30.7053C31.3591 30.7109 30.3229 30.7137 29.2867 30.7145C28.6673 30.715 28.048 30.7168 27.4286 30.7215C26.8462 30.7258 26.2639 30.7267 25.6815 30.725C25.4675 30.725 25.2535 30.7262 25.0395 30.7287C24.7479 30.732 24.4563 30.7304 24.1647 30.7285C23.9197 30.7292 23.9197 30.7292 23.6697 30.73C23.2695 30.6406 23.2695 30.6406 22.9968 30.2738C22.9437 30.1564 22.8906 30.039 22.8359 29.918C23.1499 29.2221 23.1499 29.2221 23.6719 29.1052Z" fill="white"/>
<path d="M24.1461 24.5327C24.4267 24.5312 24.4267 24.5312 24.7129 24.5296C24.9214 24.5299 25.1299 24.5303 25.3384 24.5307C25.557 24.5301 25.7757 24.5293 25.9943 24.5284C26.5891 24.5265 27.184 24.5264 27.7788 24.5268C28.2749 24.5269 28.7709 24.5262 29.2669 24.5255C30.4369 24.5239 31.6069 24.5239 32.7768 24.5248C33.985 24.5256 35.1932 24.5238 36.4013 24.5208C37.4376 24.5182 38.4738 24.5174 39.51 24.5178C40.1293 24.5181 40.7487 24.5177 41.368 24.5157C41.9504 24.5139 42.5327 24.5142 43.1151 24.516C43.3291 24.5164 43.5431 24.516 43.7571 24.5148C44.0487 24.5133 44.3403 24.5147 44.6319 24.5163C44.7953 24.5163 44.9586 24.5162 45.1269 24.5162C45.5271 24.5704 45.5271 24.5704 45.797 24.7674C46.028 25.1012 46.0115 25.3302 45.9607 25.7266C45.5641 26.1232 45.3438 26.052 44.7883 26.0524C44.5056 26.0536 44.5056 26.0536 44.2172 26.0549C44.0071 26.0543 43.797 26.0537 43.5869 26.0531C43.3667 26.0535 43.1464 26.054 42.9261 26.0546C42.3268 26.0559 41.7275 26.0554 41.1282 26.0545C40.502 26.0538 39.8758 26.0545 39.2496 26.0549C38.1978 26.0554 37.1461 26.0547 36.0944 26.0534C34.8772 26.0518 33.66 26.0523 32.4428 26.0539C31.3991 26.0552 30.3554 26.0554 29.3117 26.0546C28.6877 26.0542 28.0638 26.0541 27.4398 26.0551C26.8533 26.0559 26.2668 26.0553 25.6803 26.0537C25.4646 26.0533 25.2489 26.0534 25.0332 26.054C24.7397 26.0548 24.4461 26.0537 24.1526 26.0524C23.9057 26.0522 23.9057 26.0522 23.6539 26.0521C23.2693 26.0157 23.2693 26.0157 22.9802 25.7266C22.9441 25.293 22.9441 25.293 22.9802 24.8594C23.3756 24.464 23.5924 24.5337 24.1461 24.5327Z" fill="white"/>
<path d="M24.1515 20.0522C24.34 20.0512 24.5285 20.0502 24.7227 20.0491C24.9328 20.0495 25.1429 20.0498 25.3529 20.0502C25.5732 20.0496 25.7935 20.0488 26.0138 20.048C26.6131 20.046 27.2124 20.046 27.8117 20.0463C28.3114 20.0465 28.811 20.0458 29.3107 20.0451C30.4889 20.0435 31.6672 20.0434 32.8455 20.0443C34.0627 20.0452 35.2799 20.0434 36.4971 20.0403C37.5408 20.0378 38.5845 20.0369 39.6282 20.0374C40.2521 20.0376 40.8761 20.0372 41.5 20.0352C42.0866 20.0334 42.673 20.0337 43.2595 20.0356C43.4752 20.0359 43.6909 20.0355 43.9066 20.0343C44.2002 20.0328 44.4937 20.0342 44.7873 20.0358C44.9519 20.0358 45.1164 20.0358 45.286 20.0357C45.4129 20.0536 45.5398 20.0715 45.6706 20.0899C45.9597 20.5235 45.9597 20.5235 45.9235 20.8939C45.8151 21.2462 45.8151 21.2462 45.5261 21.5352C45.1464 21.5716 45.1464 21.5716 44.6547 21.5719C44.4689 21.5727 44.283 21.5736 44.0916 21.5744C43.8844 21.5738 43.6773 21.5732 43.4702 21.5726C43.253 21.573 43.0358 21.5735 42.8186 21.5742C42.2276 21.5755 41.6367 21.575 41.0457 21.574C40.4281 21.5733 39.8104 21.574 39.1928 21.5744C38.1553 21.575 37.1178 21.5743 36.0803 21.5729C34.88 21.5713 33.6797 21.5718 32.4794 21.5734C31.4499 21.5747 30.4205 21.5749 29.391 21.5742C28.7757 21.5737 28.1604 21.5737 27.5451 21.5746C26.9665 21.5755 26.388 21.5749 25.8094 21.5732C25.5968 21.5728 25.3842 21.5729 25.1716 21.5736C24.8819 21.5744 24.5922 21.5732 24.3025 21.5719C24.1402 21.5718 23.9779 21.5717 23.8107 21.5716C23.4128 21.5352 23.4128 21.5352 22.9792 21.2462C22.934 20.8126 22.934 20.8126 22.9792 20.379C23.3757 19.9825 23.5962 20.0532 24.1515 20.0522Z" fill="white"/>
<path d="M24.0912 41.5883C24.3538 41.587 24.3538 41.587 24.6218 41.5858C24.8169 41.5863 25.0119 41.5869 25.207 41.5876C25.4116 41.5872 25.6162 41.5866 25.8209 41.586C26.3775 41.5847 26.9341 41.5852 27.4907 41.5861C28.0723 41.5869 28.654 41.5862 29.2356 41.5857C30.2125 41.5852 31.1894 41.5859 32.1662 41.5873C33.2967 41.5888 34.4272 41.5883 35.5578 41.5867C36.5272 41.5854 37.4966 41.5852 38.4661 41.586C39.0456 41.5865 39.6251 41.5865 40.2046 41.5856C40.7494 41.5847 41.2941 41.5853 41.8389 41.587C42.0392 41.5874 42.2395 41.5872 42.4398 41.5866C42.7125 41.5858 42.9851 41.587 43.2578 41.5883C43.4106 41.5884 43.5635 41.5885 43.721 41.5886C44.0807 41.625 44.0807 41.625 44.3698 41.914C44.415 42.3476 44.415 42.3476 44.3698 42.7812C43.8729 43.1125 43.6925 43.1066 43.1078 43.107C42.8489 43.1082 42.8489 43.1082 42.5846 43.1094C42.395 43.1089 42.2053 43.1083 42.0099 43.1077C41.8083 43.1081 41.6068 43.1086 41.4052 43.1092C40.8576 43.1105 40.3099 43.11 39.7623 43.1091C39.1896 43.1084 38.6169 43.109 38.0442 43.1095C37.0824 43.11 36.1206 43.1093 35.1588 43.108C34.0462 43.1064 32.9337 43.1069 31.8212 43.1085C30.8666 43.1098 29.912 43.11 28.9574 43.1092C28.387 43.1088 27.8166 43.1087 27.2462 43.1097C26.71 43.1105 26.1738 43.1099 25.6376 43.1083C25.3465 43.1077 25.0554 43.1085 24.7644 43.1094C24.5917 43.1086 24.419 43.1078 24.2412 43.107C24.0908 43.1069 23.9404 43.1068 23.7854 43.1066C23.4128 43.0703 23.4128 43.0703 22.9792 42.7812C22.934 42.3476 22.934 42.3476 22.9792 41.914C23.3655 41.5277 23.5512 41.5886 24.0912 41.5883Z" fill="#FF8303"/>
<path d="M24.0858 36.9624C24.3463 36.9608 24.3463 36.9608 24.6121 36.9593C24.8055 36.9596 24.999 36.96 25.1925 36.9604C25.3954 36.9597 25.5984 36.959 25.8014 36.9581C26.3535 36.9562 26.9056 36.9561 27.4578 36.9565C27.9183 36.9566 28.3787 36.9559 28.8392 36.9552C29.9253 36.9536 31.0115 36.9536 32.0976 36.9544C33.2191 36.9553 34.3405 36.9535 35.462 36.9505C36.424 36.9479 37.3859 36.947 38.3479 36.9475C38.9228 36.9478 39.4977 36.9474 40.0726 36.9454C40.6132 36.9436 41.1538 36.9438 41.6944 36.9457C41.893 36.9461 42.0916 36.9457 42.2903 36.9445C42.561 36.943 42.8317 36.9444 43.1024 36.946C43.3299 36.9459 43.3299 36.9459 43.5619 36.9459C43.9373 37.0001 43.9373 37.0001 44.2034 37.1971C44.4393 37.5304 44.4219 37.7578 44.3708 38.1563C43.9845 38.5426 43.7988 38.4817 43.2588 38.4821C42.9962 38.4833 42.9962 38.4833 42.7282 38.4846C42.5332 38.484 42.3381 38.4834 42.143 38.4828C41.9384 38.4832 41.7338 38.4837 41.5292 38.4843C40.9726 38.4856 40.416 38.4851 39.8593 38.4842C39.2777 38.4835 38.6961 38.4842 38.1144 38.4846C37.1376 38.4851 36.1607 38.4844 35.1838 38.4831C34.0533 38.4815 32.9228 38.482 31.7923 38.4836C30.8228 38.4849 29.8534 38.4851 28.884 38.4843C28.3045 38.4839 27.7249 38.4838 27.1454 38.4848C26.6007 38.4856 26.0559 38.485 25.5112 38.4834C25.3109 38.483 25.1105 38.4831 24.9102 38.4837C24.6376 38.4845 24.3649 38.4834 24.0922 38.4821C23.9394 38.482 23.7866 38.4819 23.6291 38.4818C23.2693 38.4454 23.2693 38.4454 22.9802 38.1563C22.9441 37.7227 22.9441 37.7227 22.9802 37.2891C23.3653 36.904 23.5477 36.9634 24.0858 36.9624Z" fill="#FF8303"/>
<path d="M24.0892 58.4927C24.261 58.4929 24.261 58.4929 24.4362 58.4931C24.6171 58.4917 24.6171 58.4917 24.8016 58.4902C25.2015 58.4874 25.6014 58.4869 26.0013 58.4865C26.2785 58.4856 26.5557 58.4846 26.8329 58.4836C27.4146 58.4819 27.9962 58.4814 28.5778 58.4815C29.3241 58.4816 30.0702 58.4776 30.8165 58.4726C31.3892 58.4694 31.9618 58.4688 32.5345 58.469C32.8097 58.4687 33.0849 58.4674 33.36 58.4651C33.7445 58.4623 34.1288 58.4631 34.5133 58.4649C34.6275 58.4633 34.7418 58.4616 34.8594 58.46C35.6268 58.4688 35.6268 58.4688 35.9921 58.8043C36.1749 59.2063 36.1223 59.4219 35.988 59.8359C35.7286 60.0953 35.3763 59.9996 35.0308 60.0016C34.9142 60.0015 34.7975 60.0015 34.6774 60.0014C34.4941 60.0021 34.4941 60.0021 34.3071 60.0029C33.9011 60.0043 33.495 60.0045 33.0889 60.0047C32.8079 60.0052 32.5269 60.0056 32.2459 60.0061C31.656 60.007 31.0661 60.0073 30.4762 60.0072C29.7188 60.0072 28.9614 60.0092 28.204 60.0116C27.6233 60.0132 27.0427 60.0135 26.4621 60.0135C26.1828 60.0136 25.9034 60.0143 25.6241 60.0154C25.2341 60.0168 24.8441 60.0164 24.4541 60.0155C24.3378 60.0163 24.2215 60.0171 24.1016 60.018C23.3023 60.0134 23.3023 60.0134 22.9802 59.6914C22.9441 59.2578 22.9441 59.2578 22.9802 58.8242C23.3483 58.4561 23.5872 58.4986 24.0892 58.4927Z" fill="white"/>
<path d="M24.0892 63.1194C24.2037 63.1198 24.3183 63.1201 24.4362 63.1205C24.5568 63.1198 24.6774 63.119 24.8016 63.1183C25.2015 63.1162 25.6014 63.1164 26.0013 63.1167C26.2785 63.1162 26.5557 63.1155 26.8329 63.1148C27.4146 63.1138 27.9962 63.1138 28.5778 63.1146C29.324 63.1154 30.0702 63.113 30.8165 63.1096C31.3892 63.1075 31.9618 63.1073 32.5345 63.1078C32.8097 63.1077 33.0849 63.107 33.36 63.1055C33.7445 63.1037 34.1289 63.1047 34.5133 63.1064C34.6847 63.1047 34.6847 63.1047 34.8594 63.103C35.6251 63.1104 35.6251 63.1104 35.9916 63.3572C36.1326 63.5938 36.1326 63.5938 36.1055 63.9641C35.988 64.3164 35.988 64.3164 35.699 64.6055C35.3044 64.6342 34.9245 64.6449 34.5297 64.6429C34.3485 64.6437 34.3485 64.6437 34.1636 64.6444C33.7631 64.6457 33.3625 64.6449 32.9619 64.6439C32.6843 64.6441 32.4068 64.6444 32.1292 64.6447C31.547 64.6452 30.9647 64.6445 30.3825 64.6432C29.635 64.6415 28.8875 64.6425 28.1399 64.6442C27.5666 64.6453 26.9933 64.6449 26.42 64.6442C26.1443 64.644 25.8686 64.6442 25.5929 64.6449C25.2081 64.6456 24.8233 64.6445 24.4385 64.6429C24.3238 64.6435 24.2091 64.6441 24.0908 64.6447C23.3023 64.6385 23.3023 64.6385 22.9802 64.3164C22.9441 63.8828 22.9441 63.8828 22.9802 63.4492C23.3485 63.081 23.5869 63.1243 24.0892 63.1194Z" fill="white"/>
<path d="M24.099 54.0139C24.2731 54.0145 24.2731 54.0145 24.4508 54.015C24.573 54.0143 24.6952 54.0135 24.8211 54.0128C25.2264 54.0108 25.6316 54.0109 26.0369 54.0112C26.3177 54.0107 26.5985 54.0101 26.8794 54.0094C27.4684 54.0083 28.0574 54.0083 28.6465 54.0091C29.4028 54.0099 30.159 54.0075 30.9153 54.0041C31.4953 54.002 32.0753 54.0019 32.6553 54.0023C32.9342 54.0022 33.2131 54.0015 33.492 54C33.8814 53.9983 34.2706 53.9992 34.66 54.0009C34.7761 53.9998 34.8921 53.9987 35.0117 53.9976C35.3323 54.0006 35.3323 54.0006 35.8425 54.0547C36.1315 54.4883 36.1315 54.4883 36.0954 54.8587C35.987 55.211 35.987 55.211 35.6979 55.5C35.3085 55.5287 34.9339 55.5394 34.5443 55.5374C34.4251 55.5379 34.3059 55.5384 34.1831 55.539C33.7879 55.5402 33.3928 55.5394 32.9976 55.5384C32.7236 55.5386 32.4496 55.5389 32.1756 55.5393C31.6008 55.5397 31.026 55.5391 30.4512 55.5377C29.7137 55.5361 28.9762 55.537 28.2388 55.5387C27.6728 55.5398 27.1068 55.5395 26.5408 55.5387C26.2688 55.5385 25.9969 55.5388 25.725 55.5394C25.345 55.5402 24.9651 55.539 24.5852 55.5374C24.4723 55.538 24.3594 55.5386 24.2431 55.5392C23.6956 55.5349 23.4462 55.5223 22.9792 55.211C22.934 54.7774 22.934 54.7774 22.9792 54.3438C23.3495 53.9735 23.594 54.0188 24.099 54.0139Z" fill="white"/>
<path d="M16.7927 39.8002C16.9269 39.83 17.061 39.8598 17.1992 39.8905C17.3155 40.3444 17.3155 40.3444 17.3438 40.9022C17.1155 41.2371 16.9271 41.4611 16.6392 41.7333C16.491 41.8829 16.3433 42.0329 16.196 42.1833C16.0841 42.2958 16.0841 42.2958 15.9701 42.4106C15.6424 42.7532 15.352 43.1229 15.0583 43.4948C14.1894 44.5651 14.1894 44.5651 13.5859 44.9491C13.1006 44.9297 12.917 44.8618 12.5816 44.5048C11.6952 43.1723 11.6952 43.1723 11.5625 42.4921C11.6102 42.349 11.6579 42.2059 11.707 42.0585C12.1159 41.8541 12.4114 41.8679 12.8633 41.914C13.1582 42.2089 13.2969 42.3596 13.2969 42.7812C14.0172 42.2409 14.5284 41.6225 15.0696 40.9039C15.1524 40.808 15.2351 40.712 15.3203 40.6132C15.4157 40.6132 15.5111 40.6132 15.6094 40.6132C15.6481 40.5238 15.6869 40.4343 15.7268 40.3422C16.0089 39.8374 16.2233 39.7332 16.7927 39.8002Z" fill="#FF8303"/>
<path d="M16.6202 56.7646C17.0538 56.8008 17.0538 56.8008 17.3429 57.0898C17.3448 57.8998 17.1063 58.2935 16.5688 58.8514C16.4844 58.9348 16.4 59.0183 16.3131 59.1042C16.1411 59.2812 15.9693 59.4583 15.7976 59.6355C15.7149 59.7197 15.6321 59.8038 15.5469 59.8905C15.264 60.1821 14.9967 60.4851 14.7323 60.7935C14.6564 60.8803 14.5806 60.9671 14.5025 61.0565C14.334 61.2509 14.1671 61.4466 14.0006 61.6426C13.7296 61.8594 13.7296 61.8594 13.3863 61.9587C12.6722 61.7717 12.3309 61.1431 11.9461 60.5484C11.6807 60.0784 11.5463 59.8113 11.6158 59.2668C11.8507 58.9688 11.8507 58.9688 12.2572 58.7971C12.7179 58.8242 12.7179 58.8242 12.9352 59.0105C13.1159 59.2278 13.2794 59.4592 13.4405 59.6914C13.9968 59.1434 14.53 58.5779 15.0575 58.0022C16.158 56.8032 16.158 56.8032 16.6202 56.7646Z" fill="white"/>
<path d="M16.6202 22.7998C17.0538 22.8359 17.0538 22.8359 17.3429 23.125C17.3448 23.935 17.1063 24.3287 16.5688 24.8865C16.4844 24.97 16.4 25.0534 16.3131 25.1394C16.1411 25.3164 15.9693 25.4935 15.7976 25.6707C15.7149 25.7548 15.6321 25.839 15.5469 25.9256C15.264 26.2173 14.9967 26.5202 14.7323 26.8286C14.6564 26.9154 14.5806 27.0023 14.5025 27.0917C14.334 27.286 14.1671 27.4818 14.0006 27.6777C13.7296 27.8945 13.7296 27.8945 13.3863 27.9939C12.6722 27.8069 12.3309 27.1783 11.9461 26.5836C11.6807 26.1135 11.5463 25.8464 11.6158 25.302C11.8507 25.0039 11.8507 25.0039 12.2572 24.8323C12.7179 24.8594 12.7179 24.8594 12.9352 25.0457C13.1159 25.263 13.2794 25.4944 13.4405 25.7266C13.9968 25.1785 14.53 24.6131 15.0575 24.0374C16.158 22.8383 16.158 22.8383 16.6202 22.7998Z" fill="white"/>
</svg>
