<svg width="73" height="67" viewBox="0 0 73 67" fill="none" xmlns="http://www.w3.org/2000/svg">
<path fill-rule="evenodd" clip-rule="evenodd" d="M24.7081 66.2086H1.14038C0.510793 66.2086 0 65.6978 0 65.0682V44.488C0 43.8585 0.510793 43.3477 1.14038 43.3477H24.7081C25.3377 43.3477 25.8485 43.8585 25.8485 44.488V65.0682C25.8485 65.6978 25.3377 66.2086 24.7081 66.2086ZM2.28075 63.9279H23.5678V45.6284H2.28075V63.9279Z" fill="#215CFF"/>
<path fill-rule="evenodd" clip-rule="evenodd" d="M15.9966 51.7678H9.85522C9.22564 51.7678 8.71484 51.2571 8.71484 50.6275V44.4861C8.71484 43.8565 9.22564 43.3457 9.85522 43.3457H15.9966C16.6262 43.3457 17.137 43.8565 17.137 44.4861V50.6275C17.137 51.259 16.6262 51.7678 15.9966 51.7678ZM10.9956 49.4871H14.8562V45.6265H10.9956V49.4871Z" fill="#215CFF"/>
<path fill-rule="evenodd" clip-rule="evenodd" d="M48.2745 66.2086H24.7068C24.0772 66.2086 23.5664 65.6978 23.5664 65.0682V44.488C23.5664 43.8585 24.0772 43.3477 24.7068 43.3477H48.2745C48.9041 43.3477 49.4149 43.8585 49.4149 44.488V65.0682C49.4149 65.6978 48.9041 66.2086 48.2745 66.2086ZM25.8472 63.9279H47.1342V45.6284H25.8472V63.9279Z" fill="#215CFF"/>
<path fill-rule="evenodd" clip-rule="evenodd" d="M39.563 51.7678H33.4216C32.792 51.7678 32.2812 51.2571 32.2812 50.6275V44.4861C32.2812 43.8565 32.792 43.3457 33.4216 43.3457H39.563C40.1926 43.3457 40.7034 43.8565 40.7034 44.4861V50.6275C40.7034 51.259 40.1926 51.7678 39.563 51.7678ZM34.562 49.4871H38.4226V45.6265H34.562V49.4871Z" fill="#215CFF"/>
<path fill-rule="evenodd" clip-rule="evenodd" d="M71.8448 66.2086H48.2771C47.6475 66.2086 47.1367 65.6978 47.1367 65.0682V44.488C47.1367 43.8585 47.6475 43.3477 48.2771 43.3477H71.8448C72.4744 43.3477 72.9852 43.8585 72.9852 44.488V65.0682C72.9852 65.6978 72.4744 66.2086 71.8448 66.2086ZM49.4175 63.9279H70.7045V45.6284H49.4175V63.9279Z" fill="#215CFF"/>
<path fill-rule="evenodd" clip-rule="evenodd" d="M63.1294 51.7678H56.988C56.3585 51.7678 55.8477 51.2571 55.8477 50.6275V44.4861C55.8477 43.8565 56.3585 43.3457 56.988 43.3457H63.1294C63.759 43.3457 64.2698 43.8565 64.2698 44.4861V50.6275C64.2698 51.259 63.759 51.7678 63.1294 51.7678ZM58.1284 49.4871H61.9891V45.6265H58.1284V49.4871Z" fill="#215CFF"/>
<path fill-rule="evenodd" clip-rule="evenodd" d="M36.4933 45.6285H12.9255C12.2959 45.6285 11.7852 45.1177 11.7852 44.4882V38.4458C11.7852 37.8162 12.2959 37.3054 12.9255 37.3054C13.5551 37.3054 14.0659 37.8162 14.0659 38.4458V43.3478H35.3529V25.0483H31.1438C30.5142 25.0483 30.0034 24.5375 30.0034 23.908C30.0034 23.2784 30.5142 22.7676 31.1438 22.7676H36.4933C37.1229 22.7676 37.6337 23.2784 37.6337 23.908V44.4882C37.6337 45.1177 37.1229 45.6285 36.4933 45.6285Z" fill="#215CFF"/>
<path fill-rule="evenodd" clip-rule="evenodd" d="M60.0597 45.6285H36.4919C35.8624 45.6285 35.3516 45.1177 35.3516 44.4882V23.908C35.3516 23.2784 35.8624 22.7676 36.4919 22.7676H60.0597C60.6893 22.7676 61.2001 23.2784 61.2001 23.908V44.4882C61.2001 45.1177 60.6893 45.6285 60.0597 45.6285ZM37.6323 43.3478H58.9193V25.0483H37.6323V43.3478Z" fill="#215CFF"/>
<path fill-rule="evenodd" clip-rule="evenodd" d="M51.3482 31.1878H45.2068C44.5772 31.1878 44.0664 30.677 44.0664 30.0474V23.906C44.0664 23.2764 44.5772 22.7656 45.2068 22.7656H51.3482C51.9778 22.7656 52.4886 23.2764 52.4886 23.906V30.0474C52.4886 30.677 51.9778 31.1878 51.3482 31.1878ZM46.3472 28.907H50.2078V25.0464H46.3472V28.907Z" fill="#215CFF"/>
<path fill-rule="evenodd" clip-rule="evenodd" d="M24.7358 10.7715H12.1521C11.5225 10.7715 11.0117 10.2607 11.0117 9.63111V5.49131C11.0117 4.24997 12.0214 3.23828 13.2648 3.23828H15.0941C15.7237 3.23828 16.2345 3.74907 16.2345 4.37866C16.2345 5.00824 15.7237 5.51903 15.0941 5.51903H13.2944V8.49074H23.5954V5.51903H21.7958C21.1662 5.51903 20.6554 5.00824 20.6554 4.37866C20.6554 3.74907 21.1662 3.23828 21.7958 3.23828H23.6251C24.8665 3.23828 25.8782 4.24799 25.8782 5.49131V9.63111C25.8762 10.2607 25.3654 10.7715 24.7358 10.7715Z" fill="#215CFF"/>
<path fill-rule="evenodd" clip-rule="evenodd" d="M31.143 39.3918H5.74194C5.11236 39.3918 4.60156 38.881 4.60156 38.2514V6.406C4.60156 5.77642 5.11236 5.26562 5.74194 5.26562H12.1506C12.7802 5.26562 13.291 5.77642 13.291 6.406C13.291 7.03558 12.7802 7.54638 12.1506 7.54638H6.88231V37.111H30.0007V7.54638H24.7324C24.1028 7.54638 23.592 7.03558 23.592 6.406C23.592 5.77642 24.1028 5.26562 24.7324 5.26562H31.141C31.7706 5.26562 32.2814 5.77642 32.2814 6.406V38.2514C32.2834 38.8829 31.7726 39.3918 31.143 39.3918Z" fill="#215CFF"/>
<path fill-rule="evenodd" clip-rule="evenodd" d="M21.7913 7.13073H15.0896C14.46 7.13073 13.9492 6.61994 13.9492 5.99035V1.97924C13.9492 1.34966 14.46 0.838867 15.0896 0.838867H21.7913C22.4209 0.838867 22.9317 1.34966 22.9317 1.97924V5.99035C22.9317 6.61994 22.4209 7.13073 21.7913 7.13073ZM16.23 4.84998H20.6509V3.11962H16.23V4.84998Z" fill="#215CFF"/>
<path fill-rule="evenodd" clip-rule="evenodd" d="M26.2646 16.3325H16.7576C16.128 16.3325 15.6172 15.8217 15.6172 15.1921C15.6172 14.5626 16.128 14.0518 16.7576 14.0518H26.2646C26.8942 14.0518 27.405 14.5626 27.405 15.1921C27.405 15.8217 26.8942 16.3325 26.2646 16.3325Z" fill="#FF8303"/>
<path fill-rule="evenodd" clip-rule="evenodd" d="M11.4123 16.7923C11.1212 16.7923 10.8282 16.6815 10.6065 16.4577L9.81456 15.6658C9.3691 15.2204 9.3691 14.4977 9.81456 14.0523C10.2541 13.6108 10.9668 13.6068 11.4143 14.0384L12.4438 13.0089C12.8892 12.5634 13.6119 12.5634 14.0573 13.0089C14.5028 13.4544 14.5028 14.177 14.0573 14.6225L12.222 16.4577C11.9963 16.6815 11.7053 16.7923 11.4123 16.7923Z" fill="#FF8303"/>
<path fill-rule="evenodd" clip-rule="evenodd" d="M26.2646 22.4722H16.7576C16.128 22.4722 15.6172 21.9614 15.6172 21.3318C15.6172 20.7022 16.128 20.1914 16.7576 20.1914H26.2646C26.8942 20.1914 27.405 20.7022 27.405 21.3318C27.405 21.9614 26.8942 22.4722 26.2646 22.4722Z" fill="#FF8303"/>
<path fill-rule="evenodd" clip-rule="evenodd" d="M11.4123 22.93C11.1094 22.93 10.8203 22.8093 10.6065 22.5954L9.81456 21.8035C9.3691 21.3581 9.3691 20.6354 9.81456 20.19C10.2561 19.7485 10.9668 19.7445 11.4123 20.1761L12.4418 19.1466C12.8872 18.7011 13.6099 18.7011 14.0553 19.1466C14.5008 19.5921 14.5008 20.3147 14.0553 20.7601L12.22 22.5954C12.0042 22.8112 11.7152 22.93 11.4123 22.93Z" fill="#FF8303"/>
<path fill-rule="evenodd" clip-rule="evenodd" d="M26.2646 28.6098H16.7576C16.128 28.6098 15.6172 28.0991 15.6172 27.4695C15.6172 26.8399 16.128 26.3291 16.7576 26.3291H26.2646C26.8942 26.3291 27.405 26.8399 27.405 27.4695C27.405 28.0991 26.8942 28.6098 26.2646 28.6098Z" fill="#FF8303"/>
<path fill-rule="evenodd" clip-rule="evenodd" d="M11.4123 29.0687C11.1094 29.0687 10.8203 28.9479 10.6065 28.7341L9.81456 27.9422C9.3691 27.4967 9.3691 26.7741 9.81456 26.3286C10.2561 25.8871 10.9668 25.8832 11.4123 26.3148L12.4418 25.2853C12.8872 24.8398 13.6099 24.8398 14.0553 25.2853C14.5008 25.7307 14.5008 26.4534 14.0553 26.8988L12.22 28.7341C12.0042 28.9479 11.7152 29.0687 11.4123 29.0687Z" fill="#FF8303"/>
<path fill-rule="evenodd" clip-rule="evenodd" d="M26.2646 34.7495H16.7576C16.128 34.7495 15.6172 34.2387 15.6172 33.6091C15.6172 32.9795 16.128 32.4688 16.7576 32.4688H26.2646C26.8942 32.4688 27.405 32.9795 27.405 33.6091C27.405 34.2387 26.8942 34.7495 26.2646 34.7495Z" fill="#FF8303"/>
<path fill-rule="evenodd" clip-rule="evenodd" d="M11.4123 35.2064C11.1212 35.2064 10.8282 35.0955 10.6065 34.8718L9.81456 34.0799C9.3691 33.6344 9.3691 32.9118 9.81456 32.4663C10.2561 32.0248 10.9668 32.0209 11.4143 32.4525L12.4438 31.423C12.8892 30.9775 13.6119 30.9775 14.0573 31.423C14.5028 31.8684 14.5028 32.5911 14.0573 33.0365L12.222 34.8718C11.9963 35.0955 11.7053 35.2064 11.4123 35.2064Z" fill="#FF8303"/>
</svg>
