<svg width="54" height="51" viewBox="0 0 54 51" fill="none" xmlns="http://www.w3.org/2000/svg">
<path d="M6.96167 0.0291128C7.09744 0.0287688 7.23321 0.0284248 7.37309 0.0280704C7.749 0.0272411 8.12491 0.0269291 8.50081 0.0268435C8.90663 0.0266287 9.31245 0.0257547 9.71826 0.0249755C10.6052 0.0234051 11.4922 0.0227057 12.3792 0.0221957C12.9334 0.0218755 13.4877 0.0213849 14.0419 0.0208638C15.5775 0.0194525 17.1131 0.0182601 18.6488 0.0178682C18.747 0.0178428 18.8452 0.0178174 18.9464 0.0177912C19.0449 0.0177659 19.1433 0.0177406 19.2448 0.0177146C19.4443 0.0176633 19.6438 0.0176116 19.8433 0.0175595C19.9422 0.0175339 20.0412 0.0175082 20.1431 0.0174818C21.7458 0.017025 23.3484 0.0150048 24.951 0.0123081C26.5979 0.00955937 28.2447 0.00811974 29.8916 0.00798489C30.8156 0.00787894 31.7397 0.00721758 32.6637 0.00511145C33.4508 0.00332393 34.2378 0.00273826 35.0248 0.00369185C35.4259 0.00414254 35.827 0.00404428 36.2282 0.00241171C36.6642 0.000937041 37.1001 0.00162072 37.5361 0.00282641C37.6613 0.00189369 37.7865 0.000960979 37.9155 0C39.6582 0.0112211 41.1314 0.525074 42.4 1.72996C43.4432 2.82925 44.0699 4.15006 44.0746 5.67879C44.0753 5.80942 44.0759 5.94005 44.0766 6.07464C44.0767 6.21688 44.0769 6.35913 44.077 6.50569C44.0776 6.65635 44.0781 6.80702 44.0787 6.96225C44.0802 7.3749 44.081 7.78755 44.0815 8.20021C44.0818 8.45844 44.0823 8.71667 44.0828 8.9749C44.0844 9.78406 44.0855 10.5932 44.086 11.4024C44.0865 12.3342 44.0885 13.2659 44.0919 14.1977C44.0944 14.9194 44.0956 15.6411 44.0957 16.3628C44.0958 16.7931 44.0965 17.2234 44.0986 17.6538C44.1009 18.1345 44.1003 18.6152 44.0996 19.096C44.1007 19.2371 44.1017 19.3782 44.1028 19.5235C44.0944 21.25 43.5114 22.6416 42.3217 23.8946C41.6849 24.4436 41.0758 24.9034 40.2378 25.0524C40.2378 25.1288 40.2378 25.2052 40.2378 25.2839C40.3381 25.3173 40.4384 25.3508 40.5417 25.3852C40.9325 25.5155 40.9325 25.5154 41.2649 25.6642C41.6284 25.7867 41.6284 25.7867 41.945 25.5955C42.267 25.3408 42.5874 25.0864 42.9006 24.8208C43.0143 24.7268 43.0143 24.7268 43.1303 24.6309C44.3329 23.5387 45.0635 21.9089 45.2161 20.3057C45.2334 19.8446 45.2339 19.3839 45.2343 18.9226C45.2349 18.7853 45.2355 18.648 45.2361 18.5065C45.2377 18.1319 45.2388 17.7574 45.2397 17.3828C45.241 16.9902 45.2431 16.5976 45.2453 16.205C45.2524 14.8692 45.2587 13.5334 45.2625 12.1976C45.2647 11.4587 45.268 10.7198 45.2727 9.98097C45.2752 9.59033 45.2769 9.19971 45.2772 8.80906C45.2778 8.37418 45.2804 7.93935 45.2836 7.50448C45.2833 7.37493 45.2829 7.24538 45.2826 7.1119C45.2838 6.99375 45.2851 6.8756 45.2865 6.75387C45.2868 6.65109 45.2872 6.5483 45.2876 6.4424C45.3413 6.12544 45.4217 6.02205 45.6792 5.83403C46.2718 5.75994 46.2718 5.75994 46.5664 5.97396C46.7724 6.25001 46.7651 6.42156 46.766 6.76444C46.7677 6.94525 46.7677 6.94525 46.7695 7.12972C46.769 7.26196 46.7684 7.39421 46.7679 7.53046C46.7691 7.73949 46.7691 7.73949 46.7703 7.95274C46.7721 8.33558 46.7722 8.71835 46.7716 9.10118C46.7712 9.42185 46.7719 9.74251 46.7726 10.0632C46.7743 10.8215 46.7741 11.5799 46.7728 12.3382C46.7714 13.1164 46.773 13.8945 46.7762 14.6727C46.7787 15.3431 46.7795 16.0136 46.7788 16.6841C46.7784 17.0834 46.7787 17.4827 46.7807 17.882C46.7932 21.0874 46.372 23.5418 44.0294 25.9062C43.885 26.0464 43.7403 26.1863 43.5952 26.3259C43.4407 26.4801 43.2863 26.6344 43.1321 26.789C43.2576 26.8604 43.2576 26.8604 43.3856 26.9333C44.9607 27.8305 46.5334 28.7311 48.0974 29.6476C48.7299 30.0177 49.3643 30.3841 50.0012 30.7465C50.0733 30.7876 50.1455 30.8286 50.2198 30.8709C50.5699 31.0701 50.9202 31.2689 51.2709 31.4671C53.4442 32.7016 53.4442 32.7016 53.7833 33.0407C53.8378 33.7764 53.8378 33.7764 53.6466 34.0386C53.3786 34.242 53.1407 34.3097 52.8157 34.3973C52.689 34.432 52.5623 34.4668 52.4317 34.5026C52.2266 34.5568 52.2266 34.5568 52.0173 34.6122C51.877 34.6503 51.7367 34.6883 51.5921 34.7275C51.2956 34.8078 50.9989 34.8876 50.702 34.9666C50.3211 35.068 49.9405 35.1706 49.5601 35.2738C49.1974 35.372 48.8346 35.4697 48.4717 35.5674C48.3347 35.6043 48.1977 35.6412 48.0566 35.6792C47.8671 35.7296 47.8671 35.7296 47.6737 35.7811C47.5622 35.8109 47.4506 35.8407 47.3357 35.8714C47.0684 35.935 47.0684 35.935 46.8369 35.935C48.0329 38.1103 48.0329 38.1103 49.2766 40.2585C49.8343 41.1972 50.3724 42.1473 50.9127 43.0962C50.9877 43.2278 51.0627 43.3595 51.1399 43.4951C51.2131 43.6243 51.2863 43.7535 51.3617 43.8866C51.5108 44.1447 51.6638 44.4007 51.8204 44.6544C51.8946 44.7753 51.9688 44.8963 52.0453 45.021C52.1124 45.1275 52.1794 45.2341 52.2485 45.3439C52.4213 45.7193 52.4556 45.946 52.394 46.3546C52.1085 46.723 51.7642 46.9382 51.3633 47.1686C51.252 47.2331 51.1406 47.2976 51.0258 47.3641C50.9066 47.4321 50.7874 47.5001 50.6646 47.5702C50.541 47.6415 50.4173 47.7128 50.2899 47.7863C49.9111 48.0044 49.5318 48.2215 49.1523 48.4385C48.9354 48.5633 48.7185 48.6881 48.5016 48.813C48.1019 49.0428 47.7013 49.2711 47.3 49.4981C46.9089 49.7195 46.5212 49.9457 46.135 50.1756C45.9493 50.284 45.7636 50.3924 45.5779 50.5007C45.4946 50.5516 45.4113 50.6024 45.3256 50.6548C44.919 50.889 44.6803 50.9841 44.2017 51C43.7073 50.8282 43.6185 50.6548 43.3709 50.1968C43.3292 50.1221 43.2876 50.0474 43.2446 49.9705C43.1469 49.7952 43.0503 49.6194 42.9546 49.4431C42.6495 48.8862 42.3307 48.3371 42.0146 47.7864C41.8534 47.5052 41.693 47.2235 41.5326 46.9419C40.4255 44.9985 39.29 43.0714 38.1539 41.1448C37.5808 41.6249 37.0433 42.1249 36.5186 42.6571C36.4498 42.7264 36.381 42.7957 36.3101 42.8672C36.1757 43.0026 36.0414 43.1382 35.9072 43.2739C35.7445 43.4382 35.581 43.6017 35.4174 43.7651C35.2328 43.95 35.0495 44.1362 34.8675 44.3236C34.7796 44.4136 34.6917 44.5036 34.6011 44.5963C34.5123 44.6878 34.4235 44.7793 34.332 44.8735C34.1018 45.0811 34.1018 45.0811 33.8703 45.0811C33.8703 45.1575 33.8703 45.2339 33.8703 45.3126C33.4821 45.7103 33.3042 45.8719 32.7487 45.9566C32.3653 45.8915 32.3653 45.8915 32.1702 45.7006C31.9747 45.3511 31.9752 45.1134 31.9762 44.7135C31.9754 44.4933 31.9754 44.4933 31.9747 44.2687C31.9759 44.1064 31.9772 43.944 31.9785 43.7817C31.9786 43.6105 31.9785 43.4394 31.9783 43.2682C31.9782 42.8037 31.9803 42.3393 31.9827 41.8748C31.9849 41.3893 31.9851 40.9038 31.9855 40.4183C31.9866 39.4991 31.9894 38.5798 31.9929 37.6606C31.9968 36.614 31.9987 35.5674 32.0005 34.5209C32.0041 32.3681 32.0102 30.2153 32.0179 28.0625C31.8869 28.0628 31.7558 28.0631 31.6208 28.0634C28.4363 28.0711 25.2518 28.0768 22.0673 28.0805C20.5273 28.0822 18.9873 28.0847 17.4473 28.0887C16.1055 28.0921 14.7637 28.0944 13.4219 28.0951C12.711 28.0956 12.0002 28.0967 11.2893 28.0992C10.6209 28.1015 9.9525 28.1023 9.2841 28.1017C9.03813 28.1018 8.79217 28.1025 8.54621 28.1039C8.21167 28.1056 7.87719 28.1052 7.54264 28.1042C7.44421 28.1052 7.34578 28.1062 7.24437 28.1073C6.97412 28.1052 6.97412 28.1052 6.54785 28.0625C6.31631 27.7151 6.31631 27.7151 6.33078 27.3027C6.43208 26.9047 6.43208 26.9047 6.60687 26.7658C7.03579 26.628 7.45884 26.6422 7.90462 26.6453C8.00761 26.6451 8.11059 26.6449 8.2167 26.6447C8.56245 26.6444 8.90818 26.6456 9.25394 26.6469C9.50152 26.647 9.7491 26.6469 9.99668 26.6468C10.6695 26.6467 11.3423 26.6481 12.0151 26.6497C12.718 26.6511 13.4209 26.6513 14.1238 26.6516C15.4551 26.6523 16.7864 26.6542 18.1178 26.6565C19.6333 26.6591 21.1488 26.6604 22.6644 26.6615C25.7822 26.664 28.9001 26.668 32.0179 26.6732C32.0179 26.2529 32.0179 25.8327 32.0179 25.3997C31.8808 25.4001 31.7436 25.4005 31.6023 25.401C28.3428 25.411 25.0833 25.4186 21.8237 25.4233C21.422 25.4239 21.0204 25.4245 20.6187 25.4251C20.4988 25.4253 20.4988 25.4253 20.3764 25.4255C19.0837 25.4275 17.7909 25.4311 16.4982 25.4354C15.1706 25.4397 13.843 25.4423 12.5153 25.4432C11.7701 25.4439 11.0249 25.4453 10.2797 25.4486C9.57766 25.4518 8.87564 25.4528 8.17359 25.4521C7.91654 25.4522 7.65949 25.4531 7.40244 25.4549C5.62193 25.4666 4.18302 25.3738 2.72734 24.2419C2.60579 24.1488 2.60579 24.1488 2.48178 24.0538C1.42258 23.1888 0.757282 22.0012 0.527654 20.653C0.516773 20.4324 0.511569 20.2114 0.510616 19.9906C0.509787 19.8583 0.508959 19.7261 0.508105 19.5898C0.507794 19.4458 0.507483 19.3017 0.507162 19.1533C0.506401 19.0008 0.50564 18.8482 0.504857 18.691C0.502428 18.1859 0.501221 17.6808 0.500068 17.1757C0.499599 17.0013 0.499122 16.8268 0.498638 16.6523C0.496434 15.8322 0.494786 15.012 0.49382 14.1918C0.49269 13.248 0.489647 12.3042 0.484963 11.3604C0.48146 10.629 0.479756 9.8977 0.479374 9.16635C0.479103 8.73043 0.478082 8.29455 0.475152 7.85864C0.472436 7.44782 0.471976 7.03706 0.473157 6.62624C0.473241 6.40584 0.471045 6.18544 0.46875 5.96505C0.478898 4.2668 1.08545 2.85188 2.25701 1.62278C3.6059 0.356583 5.16053 0.0276874 6.96167 0.0291128ZM3.19043 2.70815C2.41558 3.69622 1.90474 4.60556 1.90067 5.88396C1.90001 6.00875 1.89935 6.13353 1.89867 6.2621C1.89854 6.39785 1.89841 6.5336 1.89828 6.67347C1.8977 6.81736 1.89713 6.96125 1.89653 7.1095C1.89514 7.5035 1.89427 7.89749 1.89375 8.29148C1.89341 8.53808 1.89294 8.78468 1.89242 9.03127C1.89084 9.80409 1.88972 10.5769 1.88927 11.3497C1.88876 12.2394 1.88673 13.1291 1.88337 14.0188C1.88086 14.7081 1.8797 15.3973 1.87954 16.0866C1.87942 16.4975 1.87875 16.9084 1.87667 17.3193C1.87439 17.7784 1.87491 18.2376 1.87566 18.6967C1.8746 18.8313 1.87353 18.9658 1.87243 19.1045C1.87945 20.4808 2.22544 21.7112 3.17732 22.7419C4.21219 23.6954 5.33618 24.0476 6.72123 24.0382C6.82971 24.0384 6.9382 24.0386 7.04997 24.0388C7.41224 24.0392 7.77449 24.038 8.13677 24.0367C8.39694 24.0366 8.65712 24.0367 8.9173 24.0368C9.62288 24.0369 10.3284 24.0355 11.034 24.0339C11.7717 24.0324 12.5093 24.0323 13.247 24.032C14.4848 24.0314 15.7227 24.0299 16.9605 24.0279C18.2353 24.0257 19.51 24.0241 20.7847 24.0231C20.8634 24.0231 20.942 24.023 21.023 24.0229C21.4175 24.0226 21.812 24.0223 22.2065 24.0221C25.477 24.0197 28.7475 24.0156 32.0179 24.0104C32.0196 23.9392 32.0213 23.868 32.023 23.7946C32.0317 23.4709 32.0429 23.1473 32.0541 22.8237C32.0567 22.7116 32.0593 22.5996 32.062 22.4841C32.0661 22.3759 32.0702 22.2677 32.0745 22.1562C32.0775 22.0568 32.0805 21.9574 32.0836 21.8549C32.1428 21.5293 32.2661 21.3633 32.481 21.1161C33.0859 21.1731 33.4998 21.3092 34.0227 21.6158C34.1231 21.6739 34.1231 21.6739 34.2256 21.7332C34.4384 21.8567 34.65 21.982 34.8616 22.1074C35.0003 22.1884 35.1391 22.2693 35.2779 22.35C35.8456 22.6808 36.4129 23.0117 36.9759 23.3504C37.1197 23.4355 37.2635 23.5206 37.4073 23.6056C37.5351 23.6823 37.6629 23.7589 37.7945 23.8379C38.375 24.1165 38.825 24.0888 39.4274 23.8946C40.7535 23.3719 41.7321 22.671 42.3217 21.3476C42.6372 20.4279 42.7192 19.5801 42.714 18.6125C42.7146 18.4723 42.7152 18.332 42.7158 18.1876C42.7171 17.8067 42.7168 17.4259 42.7157 17.0451C42.7148 16.644 42.7156 16.243 42.7162 15.8419C42.7168 15.1686 42.716 14.4953 42.7143 13.8219C42.7124 13.0469 42.7131 12.2719 42.715 11.4969C42.7166 10.828 42.7168 10.159 42.7159 9.49012C42.7153 9.09214 42.7152 8.69418 42.7164 8.2962C42.7173 7.85188 42.7159 7.40761 42.714 6.96329C42.7151 6.76918 42.715 6.76918 42.7161 6.57115C42.7038 5.02822 42.364 3.82816 41.2852 2.70408C40.0192 1.5303 38.5722 1.398 36.8989 1.40525C36.7682 1.40489 36.6375 1.40452 36.5029 1.40415C36.0688 1.40323 35.6348 1.40396 35.2008 1.40469C34.888 1.40437 34.5753 1.40397 34.2625 1.40346C33.5035 1.40243 32.7446 1.40265 31.9856 1.40332C31.3684 1.40385 30.7511 1.40392 30.1339 1.40366C30.0458 1.40363 29.9577 1.40359 29.867 1.40356C29.688 1.40348 29.509 1.40341 29.33 1.40333C27.6544 1.40267 25.9787 1.40343 24.3031 1.40468C22.8677 1.40571 21.4322 1.40553 19.9968 1.40446C18.3268 1.40322 16.6569 1.40274 14.987 1.40345C14.8087 1.40352 14.6304 1.40359 14.4521 1.40366C14.3644 1.4037 14.2767 1.40374 14.1863 1.40377C13.5703 1.40397 12.9543 1.40364 12.3384 1.40309C11.587 1.40244 10.8356 1.40262 10.0841 1.40385C9.7013 1.40446 9.31847 1.40458 8.93563 1.40393C8.51944 1.4033 8.10328 1.4041 7.6871 1.40525C7.56777 1.40473 7.44843 1.40421 7.32548 1.40368C5.83697 1.41162 4.29262 1.60597 3.19043 2.70815ZM33.523 23.0842C33.523 29.7701 33.523 36.456 33.523 43.3445C34.1609 42.8033 34.1609 42.8033 34.7589 42.2315C34.8284 42.1612 34.8979 42.0908 34.9695 42.0183C35.0389 41.9473 35.1084 41.8764 35.18 41.8033C35.3216 41.6587 35.4634 41.5145 35.6055 41.3705C35.6671 41.3076 35.7286 41.2447 35.792 41.18C35.9542 41.029 35.9542 41.029 36.1858 40.9133C36.1858 40.8369 36.1858 40.7604 36.1858 40.6817C36.2813 40.6446 36.2814 40.6446 36.3789 40.6067C36.8014 40.3618 37.1032 39.984 37.4211 39.6181C37.7237 39.2944 37.9023 39.1803 38.3425 39.1012C38.7328 39.1767 38.7328 39.1767 38.9616 39.4123C39.0246 39.528 39.0876 39.6436 39.1524 39.7628C39.1896 39.8286 39.2267 39.8945 39.265 39.9623C39.3503 40.1142 39.4342 40.2668 39.517 40.4201C39.6731 40.7077 39.8338 40.9923 39.9954 41.2769C40.2516 41.7279 40.5065 42.1796 40.7606 42.6318C41.2184 43.4436 41.6884 44.2482 42.1593 45.0525C42.6945 45.967 43.2254 46.8838 43.7544 47.8018C43.7932 47.8691 43.832 47.9364 43.872 48.0057C44.0886 48.3815 44.305 48.7573 44.5214 49.1332C45.0104 49.1332 45.3447 48.892 45.7588 48.6556C45.8486 48.605 45.9384 48.5544 46.0309 48.5022C47.5881 47.6207 49.1453 46.7329 50.6574 45.7757C50.2124 44.8605 49.7364 43.9737 49.2175 43.0985C49.0742 42.8549 48.931 42.6113 48.7878 42.3677C48.7145 42.2429 48.6411 42.1181 48.5655 41.9896C48.1223 41.2328 47.6863 40.4718 47.25 39.711C46.8948 39.0933 46.5354 38.479 46.1653 37.8702C46.0608 37.6973 46.0608 37.6973 45.9541 37.5209C45.823 37.3047 45.6908 37.0892 45.5572 36.8745C45.2258 36.3269 44.9763 35.8904 44.9845 35.2404C45.2398 34.8987 45.5097 34.8135 45.9133 34.7049C46.0315 34.6724 46.1496 34.64 46.2714 34.6066C46.3988 34.5729 46.5261 34.5393 46.6573 34.5046C46.7879 34.4691 46.9185 34.4336 47.053 34.3971C47.4703 34.2839 47.888 34.1724 48.3058 34.061C48.5887 33.9846 48.8715 33.9081 49.1544 33.8314C49.848 33.6438 50.542 33.4575 51.2363 33.2722C50.8389 32.939 50.4412 32.673 49.9863 32.4248C49.8573 32.3539 49.7282 32.283 49.5953 32.2099C49.5277 32.1731 49.4602 32.1363 49.3906 32.0984C49.0351 31.9046 48.6806 31.7088 48.3261 31.513C48.2563 31.4745 48.1864 31.436 48.1144 31.3963C47.5847 31.1035 47.0604 30.8031 46.5402 30.4937C45.7383 30.0169 44.9319 29.5484 44.1235 29.0827C43.9954 29.0089 43.8674 28.9351 43.7355 28.8591C43.3414 28.6321 42.9474 28.4051 42.5533 28.1782C41.0849 27.3325 39.617 26.486 38.1539 25.6312C37.8128 25.4321 37.4716 25.2331 37.1304 25.0342C36.8717 24.8833 36.6131 24.7323 36.3546 24.5812C36.0047 24.3769 35.6545 24.1731 35.3041 23.9696C35.1038 23.8532 34.9038 23.7362 34.7038 23.6192C34.583 23.5492 34.4623 23.4792 34.3379 23.4071C34.2307 23.3447 34.1235 23.2822 34.013 23.2179C33.7688 23.0665 33.7688 23.0665 33.523 23.0842Z" fill="#215CFF"/>
<path d="M15.2688 6.26795C15.3663 6.26556 15.4639 6.26317 15.5644 6.26071C16.154 6.25702 16.5918 6.28581 17.085 6.64421C17.5294 7.26994 17.7424 7.96579 17.975 8.69195C18.0137 8.81061 18.0525 8.92927 18.0924 9.05153C18.1758 9.30789 18.2589 9.56439 18.3415 9.82102C18.4576 10.1815 18.5746 10.5416 18.6921 10.9016C18.8129 11.272 18.933 11.6426 19.0531 12.0132C19.1222 12.2258 19.1222 12.2258 19.1927 12.4427C19.235 12.574 19.2773 12.7054 19.3209 12.8408C19.3775 13.0161 19.3775 13.0161 19.4353 13.1951C19.5162 13.4748 19.5162 13.4748 19.5162 13.7064C19.63 13.7051 19.7439 13.7038 19.8611 13.7025C20.9326 13.6907 22.0042 13.6821 23.0757 13.6764C23.6267 13.6734 24.1776 13.6692 24.7285 13.6627C25.26 13.6564 25.7914 13.6529 26.3229 13.6514C26.5259 13.6504 26.7288 13.6483 26.9318 13.6452C27.2157 13.641 27.4994 13.6404 27.7833 13.6407C27.8676 13.6386 27.9518 13.6365 28.0387 13.6343C28.2733 13.6368 28.2733 13.6368 28.6623 13.7064C28.8959 13.9764 28.8959 13.9764 29.0096 14.2852C28.93 14.6615 28.93 14.6615 28.7781 14.9799C28.4223 15.1578 28.0485 15.1137 27.658 15.1143C27.5204 15.1152 27.5204 15.1152 27.3801 15.116C27.0759 15.1177 26.7718 15.1185 26.4676 15.1192C26.2565 15.1198 26.0453 15.1205 25.8342 15.1212C25.3911 15.1224 24.948 15.1231 24.5049 15.1235C23.9372 15.1241 23.3697 15.1269 22.802 15.1302C22.3657 15.1323 21.9294 15.1329 21.4931 15.1331C21.2839 15.1335 21.0746 15.1344 20.8654 15.1359C20.5725 15.1379 20.2796 15.1377 19.9867 15.1369C19.9003 15.138 19.814 15.139 19.7251 15.1401C19.2092 15.136 18.8845 15.0651 18.4743 14.7483C18.0587 14.23 17.8672 13.7018 17.6783 13.0764C17.6493 12.9833 17.6202 12.8902 17.5902 12.7943C17.4979 12.4981 17.4072 12.2014 17.3165 11.9046C17.2558 11.7086 17.1948 11.5125 17.1338 11.3165C17.016 10.9374 16.8991 10.558 16.7829 10.1784C16.6819 9.84855 16.5796 9.5192 16.4754 9.19037C16.433 9.05589 16.3906 8.9214 16.347 8.78285C16.3102 8.66749 16.2735 8.55214 16.2357 8.43329C16.1588 8.14926 16.1588 8.14926 16.1588 7.80194C16.0124 7.80597 15.866 7.81 15.7152 7.81415C15.523 7.81741 15.3308 7.82057 15.1386 7.82365C14.9938 7.82801 14.9938 7.82801 14.8462 7.83247C14.7068 7.83415 14.7068 7.83415 14.5647 7.83586C14.4364 7.83859 14.4364 7.83859 14.3056 7.84137C14.009 7.79068 13.9114 7.68817 13.7276 7.45462C13.6175 7.12438 13.588 6.9472 13.6986 6.61527C14.036 6.14303 14.7458 6.2711 15.2688 6.26795Z" fill="#FF8303"/>
<path d="M20.6632 7.42317C20.8197 7.42228 20.8197 7.42228 20.9794 7.42137C21.3242 7.41977 21.669 7.41988 22.0138 7.42014C22.2535 7.41969 22.4931 7.41919 22.7327 7.41864C23.2349 7.41778 23.7371 7.41781 24.2393 7.41842C24.8832 7.41909 25.5271 7.41713 26.171 7.41444C26.6658 7.41274 27.1606 7.41264 27.6554 7.413C27.8929 7.41294 28.1303 7.41233 28.3677 7.41117C28.6995 7.40974 29.0312 7.41052 29.363 7.41186C29.4612 7.41098 29.5595 7.41009 29.6608 7.40918C30.0659 7.41281 30.3258 7.41592 30.685 7.61413C30.9279 7.87585 30.9839 8.02272 30.9754 8.38115C30.7462 8.69239 30.5589 8.92154 30.1706 9.01355C29.892 9.03463 29.6186 9.0369 29.3392 9.03308C29.2337 9.03391 29.1282 9.03474 29.0195 9.03559C28.6715 9.03754 28.3237 9.0353 27.9757 9.03283C27.7337 9.03292 27.4916 9.03321 27.2495 9.03367C26.7426 9.034 26.2357 9.0323 25.7287 9.02912C25.0787 9.02517 24.4287 9.02587 23.7787 9.02804C23.279 9.02927 22.7794 9.02823 22.2797 9.02649C22.04 9.02589 21.8003 9.02595 21.5606 9.02667C21.2257 9.0273 20.8911 9.02495 20.5563 9.02177C20.4571 9.02253 20.3579 9.02329 20.2557 9.02406C19.8146 9.01695 19.5849 9.01012 19.2172 8.75084C19.0508 8.49692 19.0508 8.49692 19.0508 8.07725C19.1666 7.68651 19.1666 7.68651 19.3407 7.5483C19.7767 7.40745 20.2098 7.42184 20.6632 7.42317Z" fill="#FF8303"/>
<path d="M21.3036 10.5487C21.3911 10.5481 21.4787 10.5475 21.5689 10.5469C21.8586 10.5453 22.1482 10.5454 22.4378 10.5456C22.6389 10.5452 22.8401 10.5447 23.0412 10.5441C23.4628 10.5433 23.8844 10.5433 24.306 10.5439C24.8468 10.5446 25.3875 10.5426 25.9283 10.5399C26.3436 10.5382 26.7589 10.5381 27.1743 10.5385C27.3737 10.5384 27.5731 10.5378 27.7725 10.5367C28.0511 10.5352 28.3296 10.536 28.6081 10.5373C28.6908 10.5365 28.7734 10.5356 28.8586 10.5347C29.4166 10.5406 29.4166 10.5406 29.6927 10.7428C29.8453 10.9674 29.9094 11.1193 29.9341 11.3909C29.8194 11.6995 29.7688 11.8208 29.471 11.9697C29.1832 11.9829 28.8986 11.9892 28.6106 11.9902C28.522 11.991 28.4333 11.9917 28.3419 11.9925C28.0479 11.9948 27.7539 11.9962 27.4599 11.9973C27.3596 11.9978 27.2594 11.9983 27.1561 11.9987C26.6257 12.0012 26.0954 12.0028 25.565 12.0039C25.0163 12.0052 24.4676 12.0092 23.919 12.0138C23.4977 12.0168 23.0766 12.0178 22.6553 12.0182C22.453 12.0187 22.2507 12.0201 22.0484 12.0222C21.7656 12.025 21.483 12.0249 21.2003 12.0241C21.1164 12.0256 21.0324 12.0271 20.946 12.0286C20.572 12.0247 20.3756 12.0166 20.0957 11.7574C19.9277 11.4005 19.9803 11.1835 20.0934 10.812C20.5126 10.5325 20.8192 10.547 21.3036 10.5487Z" fill="#FF8303"/>
<path d="M27.3887 16.2538C27.8586 16.4974 28.119 16.6906 28.3149 17.18C28.3823 17.6694 28.3665 18.097 28.1774 18.5548C27.87 18.9152 27.6208 19.1173 27.14 19.1811C26.5915 19.2021 26.2004 19.1697 25.7679 18.8008C25.3991 18.3684 25.3661 17.9771 25.388 17.4287C25.4348 17.0716 25.5295 16.8713 25.7679 16.6011C26.2878 16.2505 26.7761 16.1428 27.3887 16.2538Z" fill="#FF8303"/>
<path d="M20.7877 16.2537C21.2581 16.4976 21.5169 16.6908 21.7139 17.1799C21.7992 17.7252 21.7628 18.1258 21.5113 18.6198C21.1125 19.074 20.9392 19.136 20.3319 19.1842C19.8917 19.1703 19.6285 19.0889 19.2827 18.8007C18.9675 18.4258 18.8312 18.1875 18.7617 17.7009C18.8467 17.1058 19.0852 16.7656 19.5432 16.384C19.9653 16.2113 20.3426 16.1744 20.7877 16.2537Z" fill="#FF8303"/>
</svg>
