<svg width="75" height="75" viewBox="0 0 75 75" fill="none" xmlns="http://www.w3.org/2000/svg">
<path fill-rule="evenodd" clip-rule="evenodd" d="M71.9146 9.21195H65.808V6.77859C65.808 6.28415 65.4061 5.88232 64.9117 5.88232H62.2422C61.8479 3.679 59.9164 2 57.601 2C55.2856 2 53.3541 3.679 52.9612 5.88232H50.2918C49.7973 5.88232 49.3955 6.28415 49.3955 6.77859V9.21195H43.2888C42.1386 9.21195 41.202 10.1485 41.202 11.2988V26.5905H27.6158C26.5671 26.5905 25.7142 27.4435 25.7142 28.4921V43.993C25.7142 44.0304 25.7172 44.0662 25.7202 44.1021H18.8457C17.797 44.1021 16.944 44.955 16.944 46.0037V61.5046C16.944 61.5449 16.947 61.5852 16.95 61.6256H15.268V33.2139C15.268 31.5424 13.9071 30.1816 12.2356 30.1816H2.89628C2.40183 30.1816 2 30.5834 2 31.0778V34.5315C2 35.0259 2.40183 35.4277 2.89628 35.4277H9.49294C9.78423 35.4277 10.0217 35.6652 10.0217 35.955V61.6271H6.42167C5.92722 61.6271 5.52538 62.0289 5.52538 62.5233V65.9769C5.52538 66.4714 5.92722 66.8732 6.42167 66.8732H9.90971C9.34355 67.6186 9.00745 68.5477 9.00745 69.5545C9.00745 72.0058 11.0017 74 13.453 74C15.9044 74 17.8986 72.0058 17.8986 69.5545C17.8986 68.5477 17.5625 67.6186 16.9963 66.8732H44.9649C44.3987 67.6186 44.0626 68.5477 44.0626 69.5545C44.0626 72.0058 46.0568 74 48.5082 74C50.9595 74 52.9538 72.0058 52.9538 69.5545C52.9538 68.5477 52.6177 67.6186 52.0515 66.8732H55.5395C56.034 66.8732 56.4358 66.4714 56.4358 65.9769V62.5233C56.4358 62.0289 56.034 61.6271 55.5395 61.6271H53.8097C53.8127 61.5867 53.8157 61.5464 53.8157 61.5061V48.8792H71.9132C73.0634 48.8792 74 47.9426 74 46.7924V11.2988C74.0015 10.1485 73.0649 9.21195 71.9146 9.21195ZM13.453 72.2075C11.9891 72.2075 10.8 71.0169 10.8 69.5545C10.8 68.0921 11.9906 66.9016 13.453 66.9016C14.9155 66.9016 16.106 68.0921 16.106 69.5545C16.106 71.0169 14.9155 72.2075 13.453 72.2075ZM48.5097 72.2075C47.0458 72.2075 45.8567 71.0169 45.8567 69.5545C45.8567 68.0921 47.0472 66.9016 48.5097 66.9016C49.9721 66.9016 51.1627 68.0921 51.1627 69.5545C51.1627 71.0169 49.9721 72.2075 48.5097 72.2075ZM51.1881 7.67486H53.7843C54.2788 7.67486 54.6806 7.27303 54.6806 6.77859V6.71286C54.6806 5.10257 55.9907 3.79253 57.601 3.79253C59.2113 3.79253 60.5214 5.10257 60.5214 6.71286V6.77859C60.5214 7.27303 60.9232 7.67486 61.4177 7.67486H64.0139V12.5416H51.1866V7.67486H51.1881ZM32.7724 28.3846H37.9873V34.8183L35.8093 33.6277C35.5419 33.4813 35.2178 33.4813 34.9504 33.6277L32.7724 34.8183V28.3846ZM27.5053 43.9945V28.4936C27.5053 28.4354 27.5561 28.3846 27.6143 28.3846H30.9799V36.33C30.9799 36.6466 31.1472 36.9394 31.419 37.1007C31.6909 37.2621 32.0285 37.268 32.3064 37.1157L35.3806 35.4367L38.4549 37.1157C38.5893 37.1889 38.7372 37.2247 38.8851 37.2247C39.0434 37.2247 39.2018 37.1829 39.3422 37.0993C39.6141 36.9379 39.7814 36.6451 39.7814 36.3285V28.3831H43.1469C43.2052 28.3831 43.256 28.4339 43.256 28.4921V43.993C43.256 44.0513 43.2052 44.1021 43.1469 44.1021H36.3859C36.017 44.1021 35.6734 44.2096 35.3806 44.3919C35.0893 44.2096 34.7442 44.1021 34.3753 44.1021H27.6143C27.5561 44.1036 27.5053 44.0528 27.5053 43.9945ZM36.2769 46.0051C36.2769 45.9469 36.3277 45.8961 36.3859 45.8961H39.7515V53.8415C39.7515 54.1582 39.9188 54.451 40.1907 54.6123C40.4625 54.7736 40.8001 54.7796 41.078 54.6272L44.1522 52.9467L47.2265 54.6272C47.3609 54.7004 47.5088 54.7363 47.6567 54.7363C47.8151 54.7363 47.9734 54.6944 48.1138 54.6108C48.3857 54.4495 48.553 54.1567 48.553 53.84V45.8946H51.9185C51.9768 45.8946 52.0276 45.9454 52.0276 46.0037V61.5046C52.0276 61.5628 51.9768 61.6136 51.9185 61.6136H36.3844C36.3262 61.6136 36.2754 61.5628 36.2754 61.5046V46.0051H36.2769ZM46.7574 52.3298L44.5795 51.1393C44.3121 50.9929 43.9879 50.9929 43.7205 51.1393L41.5426 52.3298V45.8961H46.7574V52.3298ZM24.0023 45.8961H29.2172V52.3298L27.0392 51.1393C26.7718 50.9929 26.4476 50.9929 26.1803 51.1393L24.0023 52.3298V45.8961ZM18.7351 46.0051C18.7351 45.9469 18.7859 45.8961 18.8442 45.8961H22.2097V53.8415C22.2097 54.1582 22.377 54.451 22.6489 54.6123C22.9208 54.7736 23.2584 54.7796 23.5362 54.6272L26.6105 52.9467L29.6847 54.6272C29.8192 54.7004 29.9671 54.7363 30.1149 54.7363C30.2733 54.7363 30.4316 54.6944 30.572 54.6108C30.8439 54.4495 31.0112 54.1567 31.0112 53.84V45.8946H34.3768C34.435 45.8946 34.4858 45.9454 34.4858 46.0037V61.5046C34.4858 61.5628 34.435 61.6136 34.3768 61.6136H18.8442C18.7859 61.6136 18.7351 61.5628 18.7351 61.5046V46.0051ZM9.49294 33.6337H3.79257V31.9726H12.2341C12.9182 31.9726 13.4739 32.5283 13.4739 33.2124V61.6256H11.8128V35.955C11.8128 34.6749 10.7716 33.6337 9.49294 33.6337ZM54.6447 65.0807H7.31646V63.4196H54.6447V65.0807ZM72.2089 46.7924C72.2089 46.9522 72.0745 47.0866 71.9146 47.0866H53.8172V46.0051C53.8172 44.9565 52.9642 44.1036 51.9156 44.1036H45.0411C45.0426 44.0677 45.047 44.0319 45.047 43.9945V28.4936C45.047 27.445 44.1941 26.592 43.1454 26.592H42.9931V11.2988C42.9931 11.1389 43.1275 11.0045 43.2873 11.0045H49.394V13.4378C49.394 13.9323 49.7958 14.3341 50.2903 14.3341H64.9102C65.4046 14.3341 65.8065 13.9323 65.8065 13.4378V11.0045H71.9132C72.073 11.0045 72.2074 11.1389 72.2074 11.2988V46.7924H72.2089ZM57.601 19.1814C52.1561 19.1814 47.7254 23.612 47.7254 29.0568C47.7254 34.5016 52.1561 38.9321 57.601 38.9321C63.0459 38.9321 67.4765 34.5016 67.4765 29.0568C67.4765 23.612 63.0459 19.1814 57.601 19.1814ZM57.601 37.1381C53.145 37.1381 49.518 33.5127 49.518 29.0553C49.518 24.5978 53.1435 20.9724 57.601 20.9724C62.057 20.9724 65.684 24.5978 65.684 29.0553C65.684 33.5127 62.0585 37.1381 57.601 37.1381ZM49.406 69.5545C49.406 70.049 49.0041 70.4508 48.5097 70.4508C48.0152 70.4508 47.6134 70.049 47.6134 69.5545C47.6134 69.0601 48.0152 68.6583 48.5097 68.6583C49.0041 68.6583 49.406 69.0586 49.406 69.5545ZM14.3493 69.5545C14.3493 70.049 13.9475 70.4508 13.453 70.4508C12.9586 70.4508 12.5567 70.049 12.5567 69.5545C12.5567 69.0601 12.9586 68.6583 13.453 68.6583C13.9475 68.6583 14.3493 69.0586 14.3493 69.5545Z" fill="white"/>
<path d="M53 29L56.2576 32L62 26" stroke="#FF8303" stroke-width="2" stroke-miterlimit="10" stroke-linecap="round" stroke-linejoin="round"/>
</svg>
