<svg width="75" height="75" viewBox="0 0 75 75" fill="none" xmlns="http://www.w3.org/2000/svg">
<path d="M20.5008 51.1445V72.1395C20.1166 72.1395 19.7325 72.0492 19.3787 71.8686L4.41817 64.2416C3.55028 63.7995 3 62.8838 3 61.8822V43.8217C3 43.3167 3.13986 42.8337 3.39 42.4214L20.5008 51.1445Z" stroke="white" stroke-width="2.11268" stroke-miterlimit="10" stroke-linecap="round" stroke-linejoin="round"/>
<path d="M31.5859 66.7897L37.9997 63.5209V42.2233L20.501 51.1447V72.139C20.8842 72.139 21.2693 72.0488 21.622 71.8682L27.0983 69.0771" stroke="white" stroke-width="2.11268" stroke-miterlimit="10" stroke-linecap="round" stroke-linejoin="round"/>
<path d="M37.9994 42.2233L20.5006 51.1447L3.38867 42.4209C3.62543 42.0325 3.96107 41.7054 4.36994 41.4874L20.5008 32.8181L37.9994 42.2233Z" stroke="white" stroke-width="2.11268" stroke-miterlimit="10" stroke-linecap="round" stroke-linejoin="round"/>
<path d="M55.499 51.1445V72.1395C55.8832 72.1395 56.2673 72.0492 56.6211 71.8686L71.5817 64.2417C72.4496 63.7996 72.9999 62.884 72.9999 61.8823V43.8217C72.9999 43.3167 72.86 42.8337 72.61 42.4214L55.499 51.1445Z" stroke="white" stroke-width="2.11268" stroke-miterlimit="10" stroke-linecap="round" stroke-linejoin="round"/>
<path d="M55.4987 51.1447V72.139C55.1155 72.139 54.7304 72.0488 54.3777 71.8682L38 63.5209V42.2233L55.4987 51.1447Z" stroke="white" stroke-width="2.11268" stroke-miterlimit="10" stroke-linecap="round" stroke-linejoin="round"/>
<path d="M46.4648 37.6736L38 42.2233L55.4987 51.1447L72.6107 42.4209C72.3739 42.0325 72.0383 41.7054 71.6294 41.4874L64.5337 37.6739" stroke="white" stroke-width="2.11268" stroke-miterlimit="10" stroke-linecap="round" stroke-linejoin="round"/>
<path d="M38.0001 20.9885V42.2233L20.5014 32.8181L20.501 13.6664C20.501 13.1613 20.6408 12.6783 20.8908 12.2662L38.0001 20.9885Z" stroke="white" stroke-width="2.11268" stroke-miterlimit="10" stroke-linecap="round" stroke-linejoin="round"/>
<path d="M38 42.2233V20.9885L55.1084 12.2662C55.3584 12.6785 55.4983 13.1614 55.4983 13.6664L55.4985 17.525" stroke="white" stroke-width="2.11268" stroke-miterlimit="10" stroke-linecap="round" stroke-linejoin="round"/>
<path d="M55.1084 12.2661L37.9999 20.9885L20.8906 12.2661C21.1275 11.877 21.4623 11.5506 21.871 11.3318L36.8294 3.29583C36.8334 3.29414 36.8368 3.29161 36.8409 3.28992C37.5722 2.90147 38.4399 2.9033 39.1696 3.29583L54.128 11.3318C54.5367 11.5508 54.8723 11.877 55.1084 12.2661Z" stroke="white" stroke-width="2.11268" stroke-miterlimit="10" stroke-linecap="round" stroke-linejoin="round"/>
<path d="M63.0698 25.9006C61.1947 23.8497 58.4971 22.5632 55.4991 22.5632C49.8354 22.5632 45.2441 27.1544 45.2441 32.8181C45.2441 38.4818 49.8354 43.073 55.4991 43.073C61.1627 43.073 65.754 38.4818 65.754 32.8181C65.754 31.948 65.6457 31.1032 65.4416 30.2964" stroke="white" stroke-width="2.11268" stroke-miterlimit="10" stroke-linecap="round" stroke-linejoin="round"/>
<path d="M50.6895 33.2499L54.1059 36.4155L60.1283 30.0842" stroke="#FF8303" stroke-width="2" stroke-miterlimit="10" stroke-linecap="round" stroke-linejoin="round"/>
</svg>
