<svg width="75" height="75" viewBox="0 0 75 75" fill="none" xmlns="http://www.w3.org/2000/svg">
<path d="M23.1221 30.4756C24.6856 30.9968 24.6856 30.9968 25.3693 31.3115C25.5207 31.381 25.6721 31.4505 25.8282 31.5221C25.982 31.5936 26.1358 31.6651 26.2943 31.7387C26.5188 31.8415 26.5188 31.8415 26.7478 31.9464C27.6406 32.3582 28.5221 32.7887 29.3996 33.2321C30.7039 33.8899 32.0299 34.4949 33.3619 35.0942C33.7053 35.2492 34.0486 35.4045 34.392 35.5597C34.6028 35.655 34.8136 35.7501 35.0245 35.8451C35.7399 36.1675 35.7399 36.1675 36.0809 36.338C36.0809 41.378 36.0809 46.4181 36.0809 51.6109C35.4912 51.4929 35.1169 51.3921 34.5924 51.1463C34.4524 51.0813 34.3124 51.0163 34.1682 50.9494C33.9409 50.8425 33.9409 50.8425 33.709 50.7335C33.3768 50.579 33.0446 50.4248 32.7122 50.2706C32.4456 50.1469 32.4456 50.1469 32.1736 50.0206C31.5797 49.7461 30.9832 49.4776 30.3861 49.21C30.2319 49.1409 30.2319 49.1409 30.0745 49.0704C29.9715 49.0242 29.8685 48.978 29.7623 48.9305C27.9399 48.1136 26.1312 47.2825 24.3562 46.3656C23.949 46.162 23.5417 45.9584 23.1221 45.7486C23.1221 40.7085 23.1221 35.6684 23.1221 30.4756Z" fill="#FF8303"/>
<path d="M50.8901 30.4756C50.9079 32.4389 50.9216 34.4021 50.93 36.3653C50.9341 37.2769 50.9395 38.1884 50.9483 39.1C50.9566 39.9792 50.9613 40.8584 50.9633 41.7377C50.9647 42.0736 50.9675 42.4095 50.9716 42.7454C50.9772 43.215 50.978 43.6843 50.9776 44.1539C50.9804 44.2936 50.9832 44.4333 50.986 44.5773C50.9831 44.9329 50.9745 45.2488 50.8901 45.5943C50.5299 45.8998 50.5299 45.8998 50.1187 46.0571C49.9553 46.141 49.792 46.2248 49.6236 46.3112C49.4351 46.4043 49.2464 46.4969 49.0575 46.5892C48.9537 46.6401 48.8499 46.691 48.743 46.7435C48.4016 46.9106 48.0598 47.0769 47.7179 47.2431C47.6006 47.3002 47.4833 47.3573 47.3625 47.4161C45.2449 48.4456 43.1041 49.417 40.9479 50.3627C40.7789 50.4369 40.7789 50.4369 40.6064 50.5125C40.3974 50.6041 40.1884 50.6953 39.9791 50.7863C39.5317 50.9817 39.095 51.1847 38.6618 51.4103C38.2398 51.6109 38.2398 51.6109 37.777 51.6109C37.7627 49.6477 37.7517 47.6845 37.745 45.7212C37.7418 44.8096 37.7374 43.8981 37.7304 42.9865C37.7237 42.1073 37.72 41.2281 37.7184 40.3488C37.7173 40.0129 37.7151 39.677 37.7117 39.3411C37.7073 38.8716 37.7066 38.4022 37.7069 37.9326C37.7047 37.7929 37.7025 37.6532 37.7002 37.5093C37.7064 36.568 37.7064 36.568 38.0635 36.1844C38.2271 36.1077 38.2271 36.1077 38.3941 36.0294C38.5335 35.9578 38.6729 35.8862 38.8166 35.8124C38.9766 35.7386 39.1367 35.6649 39.3016 35.5889C39.4803 35.5062 39.6591 35.4235 39.8432 35.3383C40.0351 35.2505 40.227 35.1627 40.4189 35.0749C40.6156 34.9842 40.8123 34.8935 41.009 34.8027C42.1837 34.2616 43.3635 33.733 44.5481 33.2139C45.2918 32.8854 46.0193 32.5315 46.744 32.163C47.5925 31.7318 48.448 31.3235 49.3184 30.9385C49.4228 30.8917 49.5271 30.845 49.6346 30.7968C50.0804 30.6024 50.3982 30.4756 50.8901 30.4756ZM46.7729 43.7816C46.5753 43.8732 46.5753 43.8732 46.3737 43.9666C45.4905 44.3875 45.4905 44.3875 44.8735 45.1315C44.9106 45.6514 44.9642 45.8393 45.3363 46.2114C46.2532 46.3549 46.9576 45.9403 47.7564 45.5461C47.8882 45.4837 48.0199 45.4214 48.1557 45.3572C48.9855 44.9692 48.9855 44.9692 49.6559 44.3601C49.722 43.9197 49.7186 43.6898 49.4823 43.3091C48.5899 42.7439 47.6055 43.3752 46.7729 43.7816Z" fill="#FF8303"/>
<path d="M31.532 26.6633C31.6437 26.7151 31.7553 26.7668 31.8703 26.8201C32.2359 26.9898 32.6008 27.161 32.9657 27.3322C33.2202 27.4506 33.4748 27.5689 33.7294 27.687C34.1216 27.869 34.5138 28.051 34.9057 28.2334C36.2255 28.8476 37.5504 29.4503 38.8762 30.0513C39.0845 30.1458 39.2927 30.2403 39.501 30.3349C39.8825 30.5081 40.2641 30.6812 40.6457 30.8543C41.3866 31.1904 42.1273 31.5271 42.868 31.864C42.7137 32.3268 42.7137 32.3268 42.1671 32.604C41.9289 32.7059 41.69 32.8062 41.4506 32.9053C41.1967 33.0137 40.943 33.1226 40.6895 33.2319C40.5626 33.2865 40.4358 33.3412 40.3051 33.3975C39.603 33.7091 38.9237 34.064 38.2422 34.4179C37.0317 34.998 37.0317 34.998 36.4148 34.8316C36.2664 34.7593 36.1179 34.687 35.9649 34.6125C35.7989 34.5336 35.6329 34.4547 35.4618 34.3734C35.2872 34.2866 35.1126 34.1999 34.9326 34.1105C34.7511 34.0234 34.5696 33.9363 34.3826 33.8465C34.0242 33.6743 33.6663 33.501 33.309 33.3264C32.7801 33.0688 32.2473 32.8221 31.7122 32.5775C30.4663 31.9954 29.2299 31.3936 27.9922 30.7945C26.5795 30.1109 25.1644 29.4337 23.7383 28.7785C24.1182 28.3395 24.5113 28.1492 25.0412 27.921C25.2074 27.8487 25.3737 27.7764 25.5449 27.7019C25.7188 27.6277 25.8926 27.5534 26.0716 27.4768C26.4127 27.3292 26.7538 27.1816 27.0949 27.0339C27.3414 26.929 27.3414 26.929 27.5928 26.8219C27.8842 26.6946 28.1735 26.5621 28.4591 26.4222C28.5777 26.3643 28.6962 26.3065 28.8184 26.2469C28.9186 26.1956 29.0188 26.1443 29.1221 26.0914C29.9769 25.8548 30.7722 26.3034 31.532 26.6633Z" fill="#FF8303"/>
<path d="M52.5878 45.2858C53.1346 45.4932 53.638 45.735 54.148 46.021C54.3006 46.1064 54.4533 46.1918 54.6105 46.2799C54.7735 46.3718 54.9364 46.4638 55.1043 46.5585C55.3577 46.7009 55.3577 46.7009 55.6162 46.8462C57.1326 47.7013 58.6373 48.5759 60.1386 49.4571C60.273 49.5357 60.4074 49.6143 60.5458 49.6953C60.7809 49.8333 61.0156 49.972 61.2495 50.112C61.7711 50.4368 61.7711 50.4368 62.3647 50.531C62.7565 50.3904 62.7565 50.3904 63.0608 50.2267C64.1705 49.6708 65.2346 49.5134 66.4379 49.8958C67.54 50.3963 68.1626 51.0752 68.767 52.1027C69.1146 53.2805 69.1167 54.4974 68.5495 55.6057C68.0171 56.371 67.3208 56.9589 66.5012 57.3961C64.9692 57.6364 63.7368 57.5364 62.4322 56.6922C61.674 55.9901 61.2636 55.1423 61.1794 54.116C61.1788 53.5872 61.1928 53.0642 61.227 52.5365C61.0973 52.499 60.9677 52.4614 60.8341 52.4226C60.2385 52.205 59.7216 51.9102 59.1829 51.582C58.9518 51.4436 58.7206 51.3054 58.4893 51.1674C58.3618 51.0912 58.2344 51.015 58.1031 50.9366C57.2814 50.45 56.4527 49.9755 55.625 49.4993C54.3531 48.7673 53.0832 48.0321 51.8164 47.2913C51.8673 47.0877 51.9182 46.884 51.9707 46.6742C52.0725 46.6742 52.1743 46.6742 52.2792 46.6742C52.381 46.216 52.4829 45.7578 52.5878 45.2858Z" fill="white"/>
<path d="M21.2709 45.44C21.309 45.6373 21.3472 45.8346 21.3866 46.0378C21.5053 46.5612 21.5053 46.5612 21.9072 46.9056C22.0027 46.931 22.0981 46.9565 22.1965 46.9827C22.1965 47.0845 22.1965 47.1864 22.1965 47.2913C21.951 47.4329 21.7055 47.5745 21.4601 47.7161C21.2193 47.855 21.2193 47.855 20.9736 47.9967C20.6157 48.2033 20.2577 48.4098 19.8997 48.6163C19.0465 49.1086 18.1932 49.6008 17.3401 50.0932C17.0672 50.2507 16.7944 50.4081 16.5215 50.5656C16.1784 50.7636 15.8354 50.9615 15.4924 51.1595C15.1862 51.3362 14.88 51.5126 14.5737 51.6888C14.3258 51.8319 14.0786 51.976 13.8323 52.1217C13.1267 52.5365 13.1267 52.5365 12.7859 52.5365C12.7931 52.6781 12.8002 52.8197 12.8076 52.9656C12.85 54.4077 12.7457 55.2626 11.8024 56.3547C10.5544 57.4245 9.61664 57.5858 8.00347 57.4732C6.95832 57.1771 6.08863 56.5131 5.47426 55.6165C4.93717 54.5708 4.88758 53.4355 5.16873 52.3021C5.59805 51.177 6.41368 50.5264 7.42495 49.9235C8.58271 49.5955 9.61175 49.5744 10.6839 50.1549C10.7997 50.2283 10.9154 50.3017 11.0347 50.3773C11.5427 50.5925 11.7936 50.5312 12.3231 50.3767C12.7639 50.1654 13.1782 49.9166 13.5958 49.6632C13.8551 49.5094 14.1144 49.3557 14.3738 49.2022C14.5139 49.1187 14.654 49.0353 14.7983 48.9493C15.6431 48.4498 16.4955 47.9633 17.3466 47.4745C17.6779 47.284 18.0091 47.0934 18.3403 46.9026C18.4956 46.8132 18.651 46.7237 18.811 46.6316C19.3783 46.2995 19.9367 45.9538 20.4928 45.6035C20.808 45.44 20.808 45.44 21.2709 45.44Z" fill="white"/>
<path d="M38.7616 2.3887C39.7339 2.94928 40.4697 3.79539 40.7768 4.88597C40.9738 6.24364 40.8351 7.45639 40.003 8.59332C39.3858 9.24946 38.9794 9.42077 38.0866 9.80339C38.0357 13.3671 37.9848 16.9307 37.9324 20.6024C37.3978 20.5261 37.3978 20.5261 36.8525 20.4481C36.3943 20.5245 36.3943 20.5245 35.9268 20.6024C35.8759 17.0387 35.825 13.4751 35.7726 9.80339C35.3653 9.59975 34.958 9.39611 34.5384 9.1863C33.5963 8.40761 33.1167 7.44978 32.9529 6.25032C32.9007 5.19732 33.2133 4.19904 33.8538 3.36254C35.156 1.99329 37.0257 1.63155 38.7616 2.3887Z" fill="white"/>
<path d="M35.9258 53.4622C36.0785 53.5131 36.2312 53.564 36.3886 53.6164C36.9569 53.6367 37.3899 53.6426 37.9313 53.4622C37.9822 57.0767 38.0331 60.6913 38.0856 64.4155C38.4929 64.6191 38.9001 64.8227 39.3198 65.0325C40.2631 65.8123 40.744 66.7723 40.9053 67.974C40.9643 69.1797 40.473 70.1598 39.7434 71.0859C39.0153 71.8205 38.004 72.1416 36.9864 72.1773C35.9694 72.1655 35.1178 71.7677 34.2577 71.2516C33.434 70.3808 33.0471 69.4178 32.9561 68.2337C33.0418 66.947 33.4848 66.1397 34.3324 65.1784C34.6916 64.8783 34.6916 64.8783 35.7715 64.4155C35.8224 60.8009 35.8733 57.1863 35.9258 53.4622Z" fill="white"/>
<path d="M11.5617 18.024C12.3872 18.5925 12.8655 19.1584 13.193 20.121C13.2611 20.5222 13.1962 20.8567 13.143 21.2595C13.14 21.8408 13.1641 22.0586 13.5762 22.4789C14.066 22.8022 14.5696 23.0809 15.0901 23.35C15.2783 23.4533 15.4663 23.5573 15.6538 23.6619C16.0422 23.8771 16.4324 24.0886 16.8244 24.2972C17.3986 24.6034 17.9665 24.92 18.5329 25.2404C19.3297 25.6907 20.1287 26.1367 20.9301 26.5787C21.2045 26.7352 21.4706 26.9062 21.7334 27.0814C21.7113 27.1665 21.6893 27.2516 21.6665 27.3393C21.5721 27.7274 21.4926 28.1166 21.4152 28.5084C21.388 28.646 21.3607 28.7837 21.3327 28.9254C21.3122 29.0297 21.2917 29.1339 21.2706 29.2412C20.3169 28.99 19.5257 28.4787 18.6866 27.9781C18.3572 27.784 18.0277 27.59 17.6982 27.396C17.5266 27.2946 17.355 27.1932 17.1782 27.0888C16.3574 26.6043 15.5344 26.1235 14.71 25.6451C14.4477 25.4926 14.1859 25.3392 13.9242 25.1857C13.684 25.0463 13.684 25.0463 13.4389 24.9041C13.227 24.7805 13.227 24.7805 13.0109 24.6545C12.6664 24.4768 12.3988 24.3475 12.0143 24.3045C11.7047 24.5086 11.3963 24.7145 11.0887 24.9216C9.95497 25.3441 8.86012 25.3444 7.72602 24.9258C6.72801 24.4604 6.12237 23.7328 5.67167 22.7371C5.32364 21.6225 5.37149 20.5185 5.85306 19.4546C6.42631 18.4627 7.19003 17.7912 8.28526 17.4346C9.51793 17.1686 10.4906 17.3558 11.5617 18.024Z" fill="white"/>
<path d="M66.4723 17.9797C67.4777 18.7418 67.9628 19.6339 68.15 20.8819C68.2308 22.0402 67.9466 22.9954 67.2147 23.8999C66.4494 24.7042 65.4813 25.1924 64.3703 25.269C63.5033 25.2578 62.6489 25.0336 61.9598 24.4977C61.6962 24.264 61.6962 24.264 61.3338 24.3445C60.8931 24.4661 60.5663 24.6312 60.1742 24.8653C60.0301 24.9505 59.886 25.0356 59.7375 25.1234C59.5831 25.216 59.4287 25.3086 59.2697 25.404C58.9389 25.5996 58.6081 25.795 58.2772 25.9904C58.0183 26.1439 58.0183 26.1439 57.7542 26.3005C56.9331 26.7869 56.1089 27.2681 55.2834 27.7468C55.0211 27.8992 54.7594 28.0526 54.4977 28.206C54.2575 28.3454 54.2575 28.3454 54.0124 28.4877C53.8711 28.5701 53.7299 28.6524 53.5844 28.7373C53.246 28.9118 52.9597 29.0162 52.5878 29.0873C52.5691 28.9942 52.5504 28.9011 52.5311 28.8052C52.5053 28.6819 52.4794 28.5586 52.4528 28.4316C52.4277 28.3099 52.4027 28.1882 52.3769 28.0628C52.2803 27.7029 52.1416 27.4113 51.9707 27.0817C55.3376 25.0841 55.3376 25.0841 56.99 24.1488C57.4049 23.9107 57.8169 23.6692 58.2278 23.4244C58.3479 23.353 58.4681 23.2815 58.5918 23.2079C58.8274 23.0675 59.0627 22.9265 59.2976 22.7849C60.113 22.2993 60.113 22.2993 60.4557 22.2993C60.3793 22.1466 60.3793 22.1466 60.3014 21.9908C60.1727 20.7981 60.4805 19.9356 61.0052 18.886C62.4439 17.1891 64.5762 16.9141 66.4723 17.9797Z" fill="white"/>
<path d="M38.7458 23.1032C38.8506 23.1531 38.9555 23.2031 39.0635 23.2546C39.4036 23.4169 39.7427 23.5813 40.0818 23.7456C40.4376 23.916 40.7937 24.0859 41.1498 24.2557C41.3874 24.3691 41.6249 24.4827 41.8623 24.5965C42.8449 25.0669 43.8336 25.5228 44.8257 25.9729C46.6017 26.7812 48.3618 27.622 50.1191 28.4701C50.1191 28.572 50.1191 28.6738 50.1191 28.7787C49.5466 29.0634 48.9732 29.3461 48.3988 29.6271C48.2039 29.7227 48.0092 29.819 47.8149 29.9157C47.5341 30.0554 47.2523 30.1931 46.9704 30.3304C46.8016 30.4137 46.6327 30.4969 46.4587 30.5826C45.7499 30.8656 45.1738 31.029 44.4292 30.8043C44.2087 30.6953 44.2087 30.6953 43.9838 30.5841C43.8117 30.5012 43.6395 30.4183 43.4621 30.3329C43.3705 30.2872 43.2789 30.2415 43.1844 30.1945C42.6794 29.9429 42.1699 29.7003 41.6613 29.456C41.5511 29.4028 41.4409 29.3495 41.3274 29.2946C39.7039 28.5125 38.0555 27.7844 36.4113 27.0471C34.897 26.3676 33.3899 25.6846 31.915 24.9219C32.7055 24.2927 33.6124 23.875 34.5087 23.4177C34.6882 23.3229 34.8677 23.228 35.0526 23.1303C35.2273 23.0414 35.402 22.9525 35.582 22.8609C35.7405 22.779 35.8989 22.6971 36.0622 22.6128C37.0453 22.2873 37.8591 22.668 38.7458 23.1032Z" fill="#FF8303"/>
</svg>
