<svg width="75" height="75" viewBox="0 0 75 75" fill="none" xmlns="http://www.w3.org/2000/svg">
<path fill-rule="evenodd" clip-rule="evenodd" d="M25.7081 70.3696H2.14038C1.51079 70.3696 1 69.8588 1 69.2293V48.649C1 48.0195 1.51079 47.5087 2.14038 47.5087H25.7081C26.3377 47.5087 26.8485 48.0195 26.8485 48.649V69.2293C26.8485 69.8588 26.3377 70.3696 25.7081 70.3696ZM3.28075 68.0889H24.5678V49.7894H3.28075V68.0889Z" fill="white"/>
<path fill-rule="evenodd" clip-rule="evenodd" d="M16.9956 55.9289H10.8542C10.2247 55.9289 9.71387 55.4181 9.71387 54.7885V48.6471C9.71387 48.0175 10.2247 47.5067 10.8542 47.5067H16.9956C17.6252 47.5067 18.136 48.0175 18.136 48.6471V54.7885C18.136 55.4201 17.6252 55.9289 16.9956 55.9289ZM11.9946 53.6481H15.8553V49.7875H11.9946V53.6481Z" fill="white"/>
<path fill-rule="evenodd" clip-rule="evenodd" d="M49.2755 70.3696H25.7078C25.0782 70.3696 24.5674 69.8588 24.5674 69.2293V48.649C24.5674 48.0195 25.0782 47.5087 25.7078 47.5087H49.2755C49.9051 47.5087 50.4159 48.0195 50.4159 48.649V69.2293C50.4159 69.8588 49.9051 70.3696 49.2755 70.3696ZM26.8481 68.0889H48.1351V49.7894H26.8481V68.0889Z" fill="white"/>
<path fill-rule="evenodd" clip-rule="evenodd" d="M40.563 55.9289H34.4216C33.792 55.9289 33.2812 55.4181 33.2812 54.7885V48.6471C33.2812 48.0175 33.792 47.5067 34.4216 47.5067H40.563C41.1926 47.5067 41.7034 48.0175 41.7034 48.6471V54.7885C41.7034 55.4201 41.1926 55.9289 40.563 55.9289ZM35.562 53.6481H39.4226V49.7875H35.562V53.6481Z" fill="white"/>
<path fill-rule="evenodd" clip-rule="evenodd" d="M72.8439 70.3696H49.2761C48.6465 70.3696 48.1357 69.8588 48.1357 69.2293V48.649C48.1357 48.0195 48.6465 47.5087 49.2761 47.5087H72.8439C73.4735 47.5087 73.9842 48.0195 73.9842 48.649V69.2293C73.9842 69.8588 73.4735 70.3696 72.8439 70.3696ZM50.4165 68.0889H71.7035V49.7894H50.4165V68.0889Z" fill="white"/>
<path fill-rule="evenodd" clip-rule="evenodd" d="M64.1304 55.9289H57.989C57.3594 55.9289 56.8486 55.4181 56.8486 54.7885V48.6471C56.8486 48.0175 57.3594 47.5067 57.989 47.5067H64.1304C64.76 47.5067 65.2708 48.0175 65.2708 48.6471V54.7885C65.2708 55.4201 64.76 55.9289 64.1304 55.9289ZM59.1294 53.6481H62.99V49.7875H59.1294V53.6481Z" fill="white"/>
<path fill-rule="evenodd" clip-rule="evenodd" d="M37.4923 49.7894H13.9246C13.295 49.7894 12.7842 49.2786 12.7842 48.6491V42.6066C12.7842 41.9771 13.295 41.4663 13.9246 41.4663C14.5541 41.4663 15.0649 41.9771 15.0649 42.6066V47.5087H36.3519V29.2092H32.1428C31.5133 29.2092 31.0025 28.6984 31.0025 28.0688C31.0025 27.4393 31.5133 26.9285 32.1428 26.9285H37.4923C38.1219 26.9285 38.6327 27.4393 38.6327 28.0688V48.6491C38.6327 49.2786 38.1219 49.7894 37.4923 49.7894Z" fill="white"/>
<path fill-rule="evenodd" clip-rule="evenodd" d="M61.0607 49.7894H37.4929C36.8633 49.7894 36.3525 49.2786 36.3525 48.6491V28.0688C36.3525 27.4393 36.8633 26.9285 37.4929 26.9285H61.0607C61.6903 26.9285 62.201 27.4393 62.201 28.0688V48.6491C62.201 49.2786 61.6903 49.7894 61.0607 49.7894ZM38.6333 47.5087H59.9203V29.2092H38.6333V47.5087Z" fill="white"/>
<path fill-rule="evenodd" clip-rule="evenodd" d="M52.3462 35.3486H46.2048C45.5752 35.3486 45.0645 34.8378 45.0645 34.2082V28.0668C45.0645 27.4372 45.5752 26.9265 46.2048 26.9265H52.3462C52.9758 26.9265 53.4866 27.4372 53.4866 28.0668V34.2082C53.4866 34.8378 52.9758 35.3486 52.3462 35.3486ZM47.3452 33.0678H51.2058V29.2072H47.3452V33.0678Z" fill="white"/>
<path fill-rule="evenodd" clip-rule="evenodd" d="M25.7339 14.9328H13.1501C12.5206 14.9328 12.0098 14.422 12.0098 13.7924V9.65263C12.0098 8.41128 13.0195 7.3996 14.2628 7.3996H16.0922C16.7217 7.3996 17.2325 7.91039 17.2325 8.53997C17.2325 9.16955 16.7217 9.68035 16.0922 9.68035H14.2925V12.6521H24.5935V9.68035H22.7938C22.1643 9.68035 21.6535 9.16955 21.6535 8.53997C21.6535 7.91039 22.1643 7.3996 22.7938 7.3996H24.6232C25.8645 7.3996 26.8762 8.4093 26.8762 9.65263V13.7924C26.8742 14.422 26.3634 14.9328 25.7339 14.9328Z" fill="white"/>
<path fill-rule="evenodd" clip-rule="evenodd" d="M32.143 43.553H6.74194C6.11236 43.553 5.60156 43.0422 5.60156 42.4126V10.5673C5.60156 9.93767 6.11236 9.42688 6.74194 9.42688H13.1506C13.7802 9.42688 14.291 9.93767 14.291 10.5673C14.291 11.1968 13.7802 11.7076 13.1506 11.7076H7.88231V41.2723H31.0006V11.7076H25.7324C25.1028 11.7076 24.592 11.1968 24.592 10.5673C24.592 9.93767 25.1028 9.42688 25.7324 9.42688H32.141C32.7706 9.42688 33.2814 9.93767 33.2814 10.5673V42.4126C33.2834 43.0442 32.7726 43.553 32.143 43.553Z" fill="white"/>
<path fill-rule="evenodd" clip-rule="evenodd" d="M22.7923 11.2919H16.0906C15.461 11.2919 14.9502 10.7811 14.9502 10.1515V6.14037C14.9502 5.51079 15.461 5 16.0906 5H22.7923C23.4218 5 23.9326 5.51079 23.9326 6.14037V10.1515C23.9326 10.7811 23.4218 11.2919 22.7923 11.2919ZM17.2309 9.01111H21.6519V7.28075H17.2309V9.01111Z" fill="white"/>
<path fill-rule="evenodd" clip-rule="evenodd" d="M27.2646 20.494H17.7576C17.128 20.494 16.6172 19.9832 16.6172 19.3536C16.6172 18.7241 17.128 18.2133 17.7576 18.2133H27.2646C27.8942 18.2133 28.405 18.7241 28.405 19.3536C28.405 19.9832 27.8942 20.494 27.2646 20.494Z" fill="#FF8303"/>
<path fill-rule="evenodd" clip-rule="evenodd" d="M12.4113 20.9533C12.1203 20.9533 11.8273 20.8425 11.6055 20.6188L10.8136 19.8268C10.3681 19.3814 10.3681 18.6587 10.8136 18.2133C11.2531 17.7718 11.9658 17.7678 12.4133 18.1994L13.4428 17.1699C13.8882 16.7245 14.6109 16.7245 15.0563 17.1699C15.5018 17.6154 15.5018 18.338 15.0563 18.7835L13.221 20.6188C12.9953 20.8425 12.7043 20.9533 12.4113 20.9533Z" fill="#FF8303"/>
<path fill-rule="evenodd" clip-rule="evenodd" d="M27.2646 26.6335H17.7576C17.128 26.6335 16.6172 26.1227 16.6172 25.4932C16.6172 24.8636 17.128 24.3528 17.7576 24.3528H27.2646C27.8942 24.3528 28.405 24.8636 28.405 25.4932C28.405 26.1227 27.8942 26.6335 27.2646 26.6335Z" fill="#FF8303"/>
<path fill-rule="evenodd" clip-rule="evenodd" d="M12.4113 27.0908C12.1084 27.0908 11.8193 26.97 11.6055 26.7562L10.8136 25.9643C10.3681 25.5188 10.3681 24.7962 10.8136 24.3507C11.2551 23.9092 11.9658 23.9053 12.4113 24.3369L13.4408 23.3074C13.8863 22.8619 14.6089 22.8619 15.0544 23.3074C15.4998 23.7528 15.4998 24.4755 15.0544 24.9209L13.2191 26.7562C13.0033 26.972 12.7142 27.0908 12.4113 27.0908Z" fill="#FF8303"/>
<path fill-rule="evenodd" clip-rule="evenodd" d="M27.2646 32.7709H17.7576C17.128 32.7709 16.6172 32.2601 16.6172 31.6305C16.6172 31.0009 17.128 30.4901 17.7576 30.4901H27.2646C27.8942 30.4901 28.405 31.0009 28.405 31.6305C28.405 32.2601 27.8942 32.7709 27.2646 32.7709Z" fill="#FF8303"/>
<path fill-rule="evenodd" clip-rule="evenodd" d="M12.4113 33.2302C12.1084 33.2302 11.8193 33.1094 11.6055 32.8956L10.8136 32.1037C10.3681 31.6582 10.3681 30.9356 10.8136 30.4901C11.2551 30.0486 11.9658 30.0447 12.4113 30.4763L13.4408 29.4468C13.8863 29.0013 14.6089 29.0013 15.0544 29.4468C15.4998 29.8922 15.4998 30.6149 15.0544 31.0603L13.2191 32.8956C13.0033 33.1094 12.7142 33.2302 12.4113 33.2302Z" fill="#FF8303"/>
<path fill-rule="evenodd" clip-rule="evenodd" d="M27.2646 38.9103H17.7576C17.128 38.9103 16.6172 38.3995 16.6172 37.77C16.6172 37.1404 17.128 36.6296 17.7576 36.6296H27.2646C27.8942 36.6296 28.405 37.1404 28.405 37.77C28.405 38.3995 27.8942 38.9103 27.2646 38.9103Z" fill="#FF8303"/>
<path fill-rule="evenodd" clip-rule="evenodd" d="M12.4113 39.3676C12.1203 39.3676 11.8273 39.2568 11.6055 39.0331L10.8136 38.2411C10.3681 37.7957 10.3681 37.073 10.8136 36.6276C11.2551 36.1861 11.9658 36.1821 12.4133 36.6137L13.4428 35.5842C13.8882 35.1388 14.6109 35.1388 15.0563 35.5842C15.5018 36.0297 15.5018 36.7523 15.0563 37.1978L13.221 39.0331C12.9953 39.2568 12.7043 39.3676 12.4113 39.3676Z" fill="#FF8303"/>
</svg>
