<svg width="52" height="51" viewBox="0 0 52 51" fill="none" xmlns="http://www.w3.org/2000/svg">
<path d="M19.25 23.7505H31.75" stroke="#FF8303" stroke-width="1.38889" stroke-linecap="square"/>
<path d="M19.25 26.25H31.75" stroke="#FF8303" stroke-width="1.38889" stroke-linecap="square"/>
<path d="M29.25 30H28L23 20H21.6719V30" stroke="#FF8303" stroke-width="1.38889" stroke-linecap="square"/>
<path d="M29.3281 30V20" stroke="#FF8303" stroke-width="1.38889" stroke-linecap="square"/>
<path d="M40.1451 0.797306C40.3597 0.940795 40.5555 1.08382 40.7552 1.24555C40.8405 1.313 40.8405 1.313 40.9276 1.38181C41.0993 1.51797 41.2698 1.65542 41.44 1.7934C41.5746 1.90222 41.5746 1.90222 41.712 2.01324C41.887 2.15593 42.0615 2.29914 42.2357 2.44281C42.5999 2.74276 42.9662 3.04009 43.3326 3.33734C43.7941 3.71196 44.255 4.08723 44.7147 4.46418C45.1198 4.79613 45.528 5.12404 45.9376 5.45054C46.3605 5.78991 46.7802 6.13326 47.2004 6.47589C47.6379 6.83163 48.0796 7.1811 48.5247 7.52716C49.0179 7.91251 49.5032 8.30635 49.9815 8.71003C50.041 8.75947 50.1004 8.80891 50.1617 8.85985C50.7138 9.33096 50.7138 9.33096 50.8033 9.66254C50.7899 10.0167 50.7524 10.2013 50.5251 10.4761C50.407 10.5757 50.407 10.5757 50.2866 10.6773C50.196 10.7542 50.1055 10.8311 50.0122 10.9104C49.5746 11.2642 49.1335 11.6132 48.6889 11.9582C48.2932 12.2663 47.9045 12.5826 47.5162 12.8998C47.0162 13.3082 46.5127 13.7111 46.0034 14.1076C45.5501 14.4607 45.1074 14.8233 44.6711 15.1971C44.2084 15.5934 43.7349 15.9701 43.2489 16.3379C42.7807 16.6944 42.3283 17.0684 41.8758 17.4445C41.6627 17.6202 41.4494 17.7954 41.2357 17.9703C41.1138 18.0702 40.9921 18.1703 40.8708 18.2708C40.0864 18.9151 40.0864 18.9151 39.5536 18.9573C39.1825 18.7983 39.064 18.6701 38.8502 18.3286C38.816 18.0442 38.8034 17.8002 38.8112 17.5173C38.8118 17.4406 38.8124 17.3639 38.813 17.2849C38.8152 17.0413 38.8202 16.7978 38.8253 16.5543C38.8273 16.3886 38.8291 16.2229 38.8307 16.0572C38.8351 15.6521 38.842 15.2472 38.8502 14.8422C38.7858 14.8425 38.7213 14.8428 38.655 14.8431C37.0888 14.8497 35.5226 14.8546 33.9564 14.8577C33.199 14.8593 32.4416 14.8614 31.6842 14.8648C31.0242 14.8677 30.3641 14.8697 29.7041 14.8703C29.3545 14.8707 29.0049 14.8717 28.6553 14.8738C28.2654 14.8762 27.8754 14.8763 27.4854 14.8762C27.3691 14.8772 27.2529 14.8783 27.133 14.8794C27.027 14.879 26.921 14.8786 26.8118 14.8782C26.7195 14.8784 26.6272 14.8787 26.5322 14.879C26.2547 14.8352 26.1672 14.7656 26.0005 14.5434C25.9539 14.3321 25.9539 14.3321 25.9507 14.1014C25.9477 14.0255 25.9446 13.9496 25.9414 13.8714C26.0296 13.5365 26.2158 13.4382 26.4986 13.2485C26.7685 13.1983 26.7685 13.1983 27.0656 13.1979C27.2353 13.1962 27.2353 13.1962 27.4084 13.1945C27.5932 13.1957 27.5932 13.1957 27.7817 13.1969C27.9121 13.1962 28.0425 13.1955 28.1769 13.1948C28.534 13.193 28.891 13.1937 29.2481 13.195C29.6221 13.196 29.9961 13.195 30.3701 13.1944C30.9981 13.1937 31.6261 13.1946 32.2541 13.1965C32.9798 13.1987 33.7054 13.198 34.4311 13.1958C35.0546 13.194 35.678 13.1937 36.3015 13.1948C36.6737 13.1954 37.0459 13.1955 37.418 13.1942C37.833 13.1928 38.2479 13.1947 38.6628 13.1969C38.786 13.1961 38.9091 13.1953 39.036 13.1945C39.1492 13.1956 39.2623 13.1967 39.3788 13.1979C39.4769 13.198 39.5749 13.1982 39.676 13.1983C40.0221 13.2626 40.1915 13.4066 40.4439 13.6469C40.5653 13.9416 40.5621 14.2469 40.575 14.5636C40.5792 14.6612 40.5834 14.7588 40.5877 14.8593C40.5916 14.9605 40.5955 15.0617 40.5995 15.166C40.6038 15.2687 40.6082 15.3714 40.6126 15.4772C40.6231 15.7304 40.6333 15.9836 40.6431 16.2368C40.742 16.156 40.8409 16.0752 40.9427 15.992C41.6128 15.4456 42.284 14.9014 42.9653 14.3691C43.4592 13.9829 43.9475 13.5907 44.4318 13.1924C45.5159 12.3012 46.6085 11.4218 47.7154 10.559C47.8098 10.4854 47.9041 10.4119 48.0014 10.3361C48.2047 10.1778 48.4082 10.0196 48.6119 9.86176C48.2613 9.49754 47.8929 9.17924 47.4913 8.87189C46.9437 8.44755 46.4059 8.01294 45.8726 7.57074C45.3083 7.10331 44.7387 6.64464 44.1604 6.19472C43.6928 5.82949 43.2352 5.45298 42.7785 5.07428C42.0793 4.49469 41.368 3.93424 40.6431 3.38715C40.6417 3.45394 40.6402 3.52074 40.6387 3.58955C40.6313 3.8936 40.6217 4.19754 40.612 4.50153C40.6086 4.65918 40.6086 4.65918 40.6052 4.82001C40.6017 4.92177 40.5981 5.02353 40.5945 5.12837C40.5919 5.22174 40.5893 5.31511 40.5866 5.41132C40.5354 5.72836 40.4327 5.91732 40.2447 6.17621C39.9082 6.40053 39.796 6.40043 39.4021 6.40073C39.2326 6.40157 39.2326 6.40157 39.0597 6.40243C38.9357 6.40203 38.8116 6.40162 38.6838 6.40121C38.488 6.40173 38.488 6.40173 38.2882 6.40227C37.9299 6.40318 37.5716 6.40282 37.2133 6.40219C36.8384 6.40169 36.4636 6.40215 36.0888 6.40247C35.4591 6.40283 34.8295 6.40235 34.1999 6.4014C33.472 6.40032 32.7441 6.40067 32.0161 6.40177C31.3913 6.40267 30.7665 6.4028 30.1417 6.40228C29.7684 6.40197 29.3952 6.40193 29.022 6.40258C28.6058 6.40327 28.1897 6.40232 27.7735 6.40121C27.6497 6.40161 27.5258 6.40201 27.3982 6.40243C27.2283 6.40159 27.2283 6.40159 27.055 6.40073C26.9074 6.40062 26.9074 6.40062 26.7568 6.4005C26.4878 6.37438 26.326 6.32242 26.1002 6.17621C25.9443 5.86449 25.9311 5.51771 26.0005 5.18012C26.2035 4.92917 26.3231 4.79686 26.644 4.73265C26.7362 4.73302 26.8284 4.73339 26.9234 4.73377C27.0826 4.73294 27.0826 4.73294 27.245 4.73211C27.361 4.73354 27.4769 4.73497 27.5963 4.73645C27.7188 4.73639 27.8413 4.73633 27.9675 4.73627C28.3029 4.7365 28.6383 4.7385 28.9738 4.74128C29.3244 4.74377 29.6751 4.74401 30.0258 4.74448C30.6898 4.74572 31.3537 4.74899 32.0176 4.75299C32.7735 4.75744 33.5294 4.75963 34.2853 4.76163C35.8402 4.76579 37.395 4.7728 38.9498 4.78168C38.9477 4.67514 38.9456 4.5686 38.9434 4.45883C38.9362 4.06306 38.9317 3.6673 38.9279 3.27149C38.9259 3.10028 38.9232 2.92907 38.9197 2.75788C38.9149 2.51159 38.9126 2.2654 38.9109 2.01908C38.9088 1.9427 38.9067 1.86631 38.9046 1.78762C38.9045 1.43622 38.9192 1.23659 39.1327 0.951292C39.4971 0.690893 39.7263 0.666223 40.1451 0.797306Z" fill="#215CFF"/>
<path d="M12.6511 32.1735C12.8673 32.3263 12.8673 32.3263 13.0495 32.5719C13.0843 32.8598 13.0962 33.1084 13.0884 33.3953C13.0879 33.4743 13.0873 33.5533 13.0867 33.6347C13.0845 33.8865 13.0795 34.1381 13.0744 34.3898C13.0724 34.5607 13.0706 34.7317 13.069 34.9026C13.0646 35.3211 13.0577 35.7395 13.0495 36.1579C13.146 36.1573 13.146 36.1573 13.2444 36.1567C14.809 36.148 16.3735 36.1414 17.9381 36.1372C18.6948 36.1352 19.4514 36.1324 20.208 36.1278C20.8674 36.1238 21.5268 36.1213 22.1862 36.1204C22.5355 36.1199 22.8846 36.1186 23.2338 36.1157C23.6235 36.1125 24.0132 36.1124 24.403 36.1126C24.5189 36.1112 24.6348 36.1098 24.7542 36.1083C24.9135 36.1091 24.9135 36.1091 25.0759 36.1099C25.2142 36.1094 25.2142 36.1094 25.3553 36.1088C25.676 36.173 25.7951 36.3063 25.9987 36.5563C26.0552 36.7555 26.0552 36.7555 26.0548 36.9547C26.057 37.0205 26.0591 37.0862 26.0614 37.154C25.9635 37.4652 25.766 37.572 25.5007 37.7516C25.2308 37.8018 25.2308 37.8018 24.9336 37.8022C24.764 37.8039 24.764 37.8039 24.5909 37.8056C24.4677 37.8048 24.3445 37.804 24.2176 37.8032C24.022 37.8042 24.022 37.8042 23.8224 37.8053C23.4653 37.8071 23.1083 37.8064 22.7512 37.8051C22.3772 37.8041 22.0032 37.8051 21.6292 37.8057C21.0012 37.8064 20.3732 37.8055 19.7452 37.8036C19.0195 37.8014 18.2939 37.8021 17.5682 37.8043C16.9447 37.8061 16.3213 37.8063 15.6978 37.8053C15.3256 37.8047 14.9534 37.8046 14.5812 37.8059C14.1663 37.8073 13.7514 37.8054 13.3365 37.8032C13.2133 37.804 13.0901 37.8048 12.9632 37.8056C12.8501 37.8045 12.737 37.8034 12.6205 37.8022C12.5224 37.8021 12.4244 37.8019 12.3233 37.8018C11.9747 37.737 11.8069 37.5988 11.5554 37.3532C11.4563 37.056 11.4363 36.8352 11.4243 36.524C11.4201 36.4216 11.4159 36.3192 11.4116 36.2137C11.4077 36.1069 11.4038 36.0002 11.3997 35.8902C11.3954 35.7822 11.3911 35.6743 11.3867 35.5631C11.3761 35.2965 11.366 35.0299 11.3562 34.7633C11.2573 34.8441 11.1584 34.9249 11.0566 35.0081C10.3865 35.5545 9.71526 36.0987 9.03402 36.631C8.54006 37.0172 8.05183 37.4094 7.56751 37.8076C6.48342 38.6989 5.3908 39.5783 4.2839 40.4411C4.18952 40.5146 4.09515 40.5882 3.99791 40.664C3.79456 40.8223 3.59109 40.9805 3.38741 41.1383C3.738 41.5025 4.10639 41.8209 4.50802 42.1282C5.05562 42.5525 5.5934 42.9871 6.12667 43.4293C6.69095 43.8968 7.26058 44.3555 7.83888 44.8054C8.30646 45.1706 8.76408 45.5471 9.22079 45.9258C9.91996 46.5054 10.6313 47.0659 11.3562 47.6129C11.3576 47.5461 11.3591 47.4794 11.3606 47.4105C11.368 47.1065 11.3776 46.8025 11.3873 46.4986C11.3895 46.3935 11.3918 46.2884 11.3941 46.1801C11.3994 46.0274 11.3994 46.0274 11.4048 45.8717C11.4074 45.7783 11.41 45.685 11.4127 45.5888C11.4639 45.2717 11.5666 45.0828 11.7546 44.8239C12.0906 44.5999 12.2033 44.5994 12.5965 44.598C12.7094 44.5972 12.8222 44.5963 12.9385 44.5954C13.1243 44.5956 13.1243 44.5956 13.3139 44.5957C13.5095 44.5947 13.5095 44.5947 13.709 44.5937C14.0669 44.5919 14.4248 44.5915 14.7827 44.5913C15.0815 44.5911 15.3803 44.5904 15.679 44.5897C16.384 44.5881 17.089 44.5876 17.7939 44.5877C18.521 44.5879 19.2482 44.5858 19.9753 44.5826C20.5996 44.58 21.2239 44.5789 21.8482 44.5791C22.2211 44.5791 22.5939 44.5786 22.9668 44.5764C23.3827 44.5742 23.7986 44.5751 24.2145 44.5763C24.3997 44.5746 24.3997 44.5746 24.5887 44.5729C24.7588 44.5741 24.7588 44.5741 24.9323 44.5754C25.0306 44.5753 25.1289 44.5752 25.2302 44.5751C25.5773 44.6387 25.7467 44.7813 25.9987 45.0231C26.0614 45.2223 26.0614 45.2223 26.0548 45.4215C26.0549 45.4873 26.055 45.553 26.0552 45.6208C25.9736 45.9086 25.8286 46.0286 25.6003 46.2184C25.3568 46.2674 25.3568 46.2674 25.0797 46.2663C24.9217 46.2671 24.9217 46.2671 24.7606 46.268C24.5881 46.2658 24.5881 46.2658 24.4121 46.2636C24.2298 46.2637 24.2298 46.2637 24.0439 46.2638C23.7111 46.2636 23.3784 46.2616 23.0457 46.2588C22.6978 46.2563 22.3498 46.2561 22.0019 46.2556C21.3433 46.2544 20.6847 46.2511 20.0261 46.2471C19.2762 46.2427 18.5263 46.2405 17.7764 46.2385C16.234 46.2343 14.6915 46.2273 13.1491 46.2184C13.1523 46.3729 13.1523 46.3729 13.1555 46.5305C13.1627 46.9139 13.1672 47.2972 13.171 47.6806C13.173 47.8463 13.1757 48.012 13.1792 48.1776C13.184 48.4163 13.1863 48.6548 13.188 48.8935C13.1901 48.9672 13.1922 49.0408 13.1943 49.1168C13.1944 49.4789 13.1603 49.6867 12.9677 49.9971C12.7507 50.2028 12.7507 50.2028 12.427 50.3211C12.0328 50.3014 11.9713 50.2722 11.6791 50.0409C11.5746 49.959 11.5746 49.959 11.468 49.8754C11.3633 49.7909 11.3633 49.7909 11.2566 49.7047C11.1619 49.629 11.1619 49.629 11.0653 49.5517C10.875 49.3983 10.6859 49.2435 10.497 49.0884C9.99044 48.6744 9.48128 48.2645 8.96554 47.862C8.00257 47.1097 7.05803 46.3346 6.11422 45.5585C5.71777 45.2335 5.31649 44.9155 4.91268 44.5998C4.19247 44.0366 3.48299 43.4607 2.77507 42.8822C2.60296 42.7422 2.43005 42.6033 2.25669 42.4648C2.15936 42.3866 2.06203 42.3084 1.96176 42.2278C1.83598 42.1275 1.83598 42.1275 1.70767 42.0251C1.32525 41.6846 1.32525 41.6846 1.19601 41.4372C1.18818 40.9817 1.2426 40.7974 1.55359 40.4601C1.66323 40.371 1.77448 40.2837 1.88705 40.1983C1.97495 40.1279 1.97495 40.1279 2.06462 40.0561C2.23871 39.9172 2.4145 39.7806 2.59054 39.6442C2.76085 39.5074 2.93103 39.3705 3.10104 39.2333C3.18039 39.1704 3.25974 39.1075 3.3415 39.0426C3.60779 38.8305 3.87129 38.6151 4.13448 38.3991C4.48135 38.1146 4.82963 37.8321 5.18038 37.5524C6.07606 36.8375 6.95827 36.1061 7.84267 35.3774C8.33119 34.975 8.82027 34.5732 9.31067 34.1731C9.48467 34.0307 9.65818 33.8877 9.83128 33.7443C11.9519 31.9917 11.9519 31.9917 12.6511 32.1735Z" fill="#215CFF"/>
<path d="M28.8896 43.6898C29.024 43.689 29.024 43.689 29.1612 43.6882C29.4568 43.6869 29.7524 43.6878 30.0481 43.6888C30.2539 43.6886 30.4597 43.6883 30.6655 43.6879C31.0965 43.6875 31.5276 43.6881 31.9586 43.6895C32.511 43.6912 33.0633 43.6902 33.6156 43.6884C34.0405 43.6874 34.4654 43.6877 34.8902 43.6885C35.0939 43.6887 35.2975 43.6884 35.5012 43.6877C35.7859 43.687 36.0705 43.6881 36.3552 43.6898C36.4813 43.6889 36.4813 43.6889 36.6099 43.688C37.0717 43.693 37.3774 43.727 37.7523 44.0273C37.9062 44.3353 37.8811 44.5845 37.8519 44.9238C37.6309 45.2134 37.5013 45.3063 37.1546 45.4218C36.8648 45.4325 36.5773 45.4375 36.2874 45.4379C36.1987 45.4384 36.1101 45.4389 36.0188 45.4394C35.7253 45.4408 35.4318 45.4415 35.1383 45.4421C34.9345 45.4426 34.7306 45.4432 34.5268 45.4438C34.0992 45.4448 33.6717 45.4454 33.2441 45.4458C32.6962 45.4463 32.1484 45.4487 31.6005 45.4515C31.1794 45.4534 30.7583 45.4539 30.3372 45.4541C30.1352 45.4544 29.9332 45.4552 29.7312 45.4565C29.4487 45.4582 29.1661 45.458 28.8836 45.4573C28.8001 45.4582 28.7167 45.4592 28.6308 45.4601C28.171 45.4568 27.8633 45.4258 27.4925 45.123C27.3296 44.7973 27.2744 44.6156 27.3493 44.2576C27.7186 43.6636 28.2591 43.6853 28.8896 43.6898Z" fill="#215CFF"/>
<path d="M15.6122 5.56318C15.7008 5.56285 15.7894 5.56251 15.8807 5.56217C16.1742 5.56122 16.4677 5.56103 16.7612 5.56092C16.9651 5.5606 17.1689 5.56026 17.3727 5.55992C17.8003 5.55932 18.2279 5.55913 18.6554 5.55919C19.2033 5.5592 19.7511 5.55784 20.299 5.55613C20.7201 5.55502 21.1412 5.55482 21.5623 5.55487C21.7643 5.55475 21.9663 5.55431 22.1683 5.55354C22.4509 5.55257 22.7334 5.55285 23.0159 5.55345C23.1411 5.55261 23.1411 5.55261 23.2688 5.55176C23.6906 5.55404 24.0263 5.57196 24.407 5.77687C24.6229 6.0418 24.6058 6.18411 24.5876 6.53017C24.4806 6.98251 24.4806 6.98251 24.2078 7.1714C23.8184 7.3012 23.4477 7.28652 23.0417 7.28706C22.9531 7.28756 22.8645 7.28805 22.7732 7.28856C22.4797 7.29002 22.1862 7.29069 21.8927 7.29124C21.6888 7.29182 21.485 7.29239 21.2811 7.29296C20.8536 7.29401 20.426 7.29459 19.9985 7.29494C19.4506 7.29549 18.9027 7.29788 18.3549 7.30071C17.9338 7.30257 17.5127 7.30309 17.0915 7.30324C16.8896 7.30354 16.6876 7.30434 16.4856 7.30565C16.203 7.30735 15.9205 7.30716 15.6379 7.30652C15.5545 7.30743 15.4711 7.30835 15.3851 7.3093C14.9239 7.30599 14.62 7.27314 14.2469 6.97218C14.0476 6.67335 14.0476 6.67335 14.0663 6.32472C14.1727 5.86653 14.1727 5.86653 14.4461 5.67726C14.8356 5.54741 15.2061 5.56296 15.6122 5.56318Z" fill="#215CFF"/>
<path d="M10.5136 8.71212C10.7086 8.70975 10.7086 8.70975 10.9075 8.70734C11.0486 8.70772 11.1896 8.70822 11.3307 8.70883C11.4762 8.70831 11.6217 8.70769 11.7672 8.70696C12.0716 8.70593 12.376 8.70638 12.6805 8.70784C13.0701 8.70955 13.4595 8.70721 13.8491 8.7037C14.1494 8.70151 14.4496 8.70166 14.7499 8.70248C14.8935 8.70257 15.0371 8.70188 15.1807 8.70041C15.3817 8.69867 15.5826 8.70046 15.7836 8.70239C15.8977 8.70248 16.0119 8.70258 16.1296 8.70268C16.5307 8.78468 16.6807 8.94816 16.9337 9.2633C17.0043 9.63976 16.9722 9.79808 16.7723 10.1247C16.4623 10.4311 16.3055 10.4215 15.8746 10.4219C15.8091 10.4226 15.7436 10.4233 15.6762 10.424C15.4603 10.4257 15.2446 10.4238 15.0287 10.4216C14.8784 10.4217 14.728 10.422 14.5777 10.4224C14.2628 10.4227 13.9481 10.4212 13.6332 10.4185C13.2299 10.4151 12.8267 10.4157 12.4234 10.4175C12.113 10.4186 11.8027 10.4177 11.4923 10.4162C11.3436 10.4157 11.1949 10.4157 11.0462 10.4164C10.8383 10.4169 10.6305 10.4149 10.4226 10.4121C10.2452 10.4112 10.2452 10.4112 10.0642 10.4103C9.70244 10.3489 9.58535 10.2469 9.36343 9.96056C9.30701 9.76135 9.30701 9.76135 9.3074 9.56213C9.30521 9.49638 9.30303 9.43064 9.30078 9.36291C9.47774 8.80016 9.99243 8.71493 10.5136 8.71212Z" fill="#215CFF"/>
<path d="M35.7667 40.579C35.8849 40.5792 36.0032 40.5794 36.125 40.5796C36.1905 40.5791 36.256 40.5785 36.3234 40.5779C36.5393 40.5768 36.755 40.5792 36.9709 40.5818C37.1212 40.5819 37.2716 40.5819 37.4219 40.5817C37.7368 40.5819 38.0516 40.5838 38.3664 40.5869C38.7697 40.5909 39.1729 40.5913 39.5762 40.5906C39.8866 40.5902 40.197 40.5915 40.5073 40.5932C40.656 40.5939 40.8047 40.5942 40.9534 40.5941C41.1613 40.5943 41.3692 40.5964 41.5771 40.5991C41.7544 40.6003 41.7544 40.6003 41.9354 40.6016C42.2638 40.6443 42.403 40.7087 42.6362 40.9397C42.6926 41.151 42.6926 41.151 42.6922 41.3817C42.6944 41.4576 42.6966 41.5335 42.6988 41.6117C42.6053 41.947 42.4246 42.0455 42.1381 42.2346C41.8358 42.2846 41.8358 42.2846 41.4952 42.2846C41.3672 42.2856 41.2392 42.2865 41.1073 42.2875C40.9685 42.2864 40.8296 42.2853 40.6907 42.2841C40.5474 42.2841 40.4042 42.2842 40.2609 42.2845C39.9612 42.2846 39.6614 42.2834 39.3617 42.2811C38.9782 42.2783 38.5947 42.2786 38.2112 42.2798C37.9155 42.2805 37.6199 42.2798 37.3242 42.2785C37.1828 42.2781 37.0414 42.278 36.9 42.2784C36.7022 42.2787 36.5044 42.2769 36.3065 42.2749C36.1379 42.2741 36.1379 42.2741 35.9659 42.2733C35.6275 42.23 35.4381 42.1377 35.1655 41.9358C35.0811 41.7498 35.0811 41.7498 35.0597 41.5498C35.0503 41.4844 35.0409 41.4189 35.0312 41.3514C35.1025 40.9146 35.3393 40.6665 35.7667 40.579Z" fill="#215CFF"/>
<path d="M32.1388 37.5286C32.3615 37.5277 32.5842 37.5246 32.807 37.5214C32.9493 37.5208 33.0915 37.5203 33.2338 37.5199C33.3629 37.519 33.4919 37.518 33.6248 37.5171C33.991 37.5548 34.1754 37.6326 34.4673 37.8514C34.6626 38.1089 34.6678 38.2287 34.6478 38.5549C34.565 38.8544 34.5149 38.966 34.2681 39.1463C33.919 39.2627 33.6018 39.2639 33.2385 39.2662C33.1315 39.267 33.1315 39.267 33.0223 39.2679C32.8714 39.2688 32.7205 39.2695 32.5696 39.2699C32.3396 39.2708 32.1097 39.2739 31.8798 39.2771C31.7329 39.2777 31.5861 39.2782 31.4393 39.2786C31.3709 39.2799 31.3025 39.2811 31.2321 39.2823C30.7993 39.2804 30.5284 39.2118 30.1841 38.9471C30.0301 38.6391 30.0552 38.3899 30.0845 38.0506C30.5958 37.3806 31.3754 37.5307 32.1388 37.5286Z" fill="#215CFF"/>
<path d="M18.7609 11.7335C18.8679 11.7326 18.8679 11.7326 18.9771 11.7317C19.128 11.7308 19.2788 11.7302 19.4297 11.7298C19.6597 11.7288 19.8896 11.7257 20.1196 11.7226C20.2664 11.7219 20.4132 11.7214 20.56 11.721C20.6284 11.7198 20.6968 11.7186 20.7673 11.7173C21.2001 11.7193 21.4709 11.7878 21.8153 12.0525C21.9693 12.3605 21.9441 12.6098 21.9149 12.949C21.6939 13.2386 21.5643 13.3315 21.2176 13.4471C20.7655 13.4698 20.3132 13.4698 19.8606 13.471C19.6378 13.472 19.4151 13.475 19.1924 13.4782C19.0501 13.4788 18.9078 13.4794 18.7655 13.4797C18.6365 13.4807 18.5075 13.4816 18.3745 13.4826C18.0084 13.4448 17.8239 13.367 17.5321 13.1482C17.3367 12.8907 17.3316 12.7709 17.3515 12.4447C17.4344 12.1452 17.4845 12.0337 17.7313 11.8533C18.0803 11.737 18.3975 11.7357 18.7609 11.7335Z" fill="#215CFF"/>
<path d="M37.9546 37.6524C38.1974 37.8641 38.1974 37.8641 38.353 38.1505C38.3605 38.5752 38.318 38.7718 38.0417 39.0968C37.6641 39.2938 37.4637 39.2592 37.0581 39.1466C36.7709 38.9743 36.7571 38.8398 36.6659 38.5116C36.6597 38.1505 36.6597 38.1505 36.834 37.8641C37.2044 37.5142 37.4793 37.5166 37.9546 37.6524Z" fill="#215CFF"/>
<path d="M14.9429 11.8532C15.201 12.0223 15.2381 12.1402 15.3289 12.4384C15.3438 12.8125 15.2699 12.9553 15.0425 13.2477C14.7436 13.4469 14.7436 13.4469 14.4012 13.4407C14.0464 13.3473 14.0464 13.3473 13.7974 13.1356C13.6003 12.758 13.6349 12.5576 13.7476 12.152C14.0702 11.712 14.4443 11.7285 14.9429 11.8532Z" fill="#215CFF"/>
<path d="M6.77635 8.86538C7.02538 9.02102 7.02538 9.02102 7.17479 9.26382C7.23082 9.60623 7.23082 9.60623 7.17479 9.96108C6.93075 10.2984 6.78991 10.4379 6.37791 10.5152C5.99516 10.4434 5.83428 10.3586 5.58104 10.0607C5.48717 9.66236 5.52014 9.36532 5.73045 9.0148C6.08224 8.80373 6.37624 8.78585 6.77635 8.86538Z" fill="#215CFF"/>
<path d="M46.1215 40.6408C46.3207 40.7529 46.3207 40.7529 46.4203 40.9397C46.4723 41.3406 46.4555 41.5681 46.2709 41.9295C45.9679 42.1795 45.7986 42.2038 45.4149 42.1758C45.225 42.135 45.225 42.135 44.976 41.9856C44.7651 41.6341 44.7343 41.339 44.8266 40.9397C45.2135 40.4439 45.5588 40.5047 46.1215 40.6408Z" fill="#215CFF"/>
<path d="M41.3403 43.8283C41.5395 43.9404 41.5395 43.9404 41.6391 44.1272C41.7042 44.5665 41.6902 44.7538 41.4274 45.117C41.1411 45.3225 41.1411 45.3225 40.8422 45.3785C40.4595 45.3067 40.2986 45.222 40.0454 44.924C39.9738 44.6426 39.9751 44.4088 40.0454 44.1272C40.4323 43.6314 40.7776 43.6922 41.3403 43.8283Z" fill="#215CFF"/>
<path d="M11.16 5.61523C11.5691 5.70046 11.7132 5.83874 11.9568 6.17554C12.0045 6.52107 12.0233 6.74813 11.8572 7.05957C11.5389 7.23862 11.2209 7.29294 10.8611 7.27124C10.5623 7.12183 10.5623 7.12183 10.3631 6.8728C10.3008 6.5304 10.3008 6.5304 10.3631 6.17554C10.6067 5.83874 10.7509 5.70046 11.16 5.61523Z" fill="#215CFF"/>
</svg>
