<svg width="74" height="73" viewBox="0 0 74 73" fill="none" xmlns="http://www.w3.org/2000/svg">
<path d="M19.5008 49.9838V70.9788C19.1166 70.9788 18.7325 70.8885 18.3787 70.7079L3.41817 63.0809C2.55028 62.6388 2 61.7231 2 60.7214V42.661C2 42.156 2.13986 41.673 2.39 41.2607L19.5008 49.9838Z" stroke="#215CFF" stroke-width="2.11268" stroke-miterlimit="10" stroke-linecap="round" stroke-linejoin="round"/>
<path d="M30.5849 65.629L36.9987 62.3601V41.0625L19.5 49.9839V70.9783C19.8832 70.9783 20.2683 70.888 20.621 70.7074L26.0973 67.9163" stroke="#215CFF" stroke-width="2.11268" stroke-miterlimit="10" stroke-linecap="round" stroke-linejoin="round"/>
<path d="M37.0013 41.0624L19.5026 49.9838L2.39062 41.26C2.62739 40.8716 2.96302 40.5446 3.37189 40.3265L19.5027 31.6572L37.0013 41.0624Z" stroke="#215CFF" stroke-width="2.11268" stroke-miterlimit="10" stroke-linecap="round" stroke-linejoin="round"/>
<path d="M54.5 49.9838V70.9788C54.8842 70.9788 55.2683 70.8885 55.6221 70.7079L70.5827 63.081C71.4506 62.6389 72.0008 61.7233 72.0008 60.7216V42.661C72.0008 42.156 71.861 41.673 71.611 41.2607L54.5 49.9838Z" stroke="#215CFF" stroke-width="2.11268" stroke-miterlimit="10" stroke-linecap="round" stroke-linejoin="round"/>
<path d="M54.4987 49.9839V70.9783C54.1155 70.9783 53.7304 70.888 53.3777 70.7074L37 62.3601V41.0625L54.4987 49.9839Z" stroke="#215CFF" stroke-width="2.11268" stroke-miterlimit="10" stroke-linecap="round" stroke-linejoin="round"/>
<path d="M45.4648 36.5127L37 41.0624L54.4987 49.9838L71.6107 41.26C71.3739 40.8716 71.0383 40.5445 70.6294 40.3265L63.5337 36.513" stroke="#215CFF" stroke-width="2.11268" stroke-miterlimit="10" stroke-linecap="round" stroke-linejoin="round"/>
<path d="M36.9992 19.8277V41.0625L19.5004 31.6573L19.5 12.5056C19.5 12.0005 19.6399 11.5176 19.8899 11.1055L36.9992 19.8277Z" stroke="#215CFF" stroke-width="2.11268" stroke-miterlimit="10" stroke-linecap="round" stroke-linejoin="round"/>
<path d="M37 41.0625V19.8277L54.1084 11.1055C54.3584 11.5177 54.4983 12.0007 54.4983 12.5056L54.4985 16.3642" stroke="#215CFF" stroke-width="2.11268" stroke-miterlimit="10" stroke-linecap="round" stroke-linejoin="round"/>
<path d="M54.1084 11.105L36.9999 19.8274L19.8906 11.105C20.1275 10.7158 20.4623 10.3895 20.871 10.1706L35.8294 2.1347C35.8334 2.13301 35.8368 2.13048 35.8409 2.12879C36.5722 1.74034 37.4399 1.74217 38.1696 2.1347L53.128 10.1706C53.5367 10.3896 53.8723 10.7158 54.1084 11.105Z" stroke="#215CFF" stroke-width="2.11268" stroke-miterlimit="10" stroke-linecap="round" stroke-linejoin="round"/>
<path d="M62.0678 24.7398C60.1928 22.6888 57.4951 21.4023 54.4971 21.4023C48.8335 21.4023 44.2422 25.9936 44.2422 31.6573C44.2422 37.3209 48.8335 41.9122 54.4971 41.9122C60.1608 41.9122 64.752 37.3209 64.752 31.6573C64.752 30.7871 64.6437 29.9423 64.4397 29.1356" stroke="#215CFF" stroke-width="2.11268" stroke-miterlimit="10" stroke-linecap="round" stroke-linejoin="round"/>
<path d="M49.6875 32.0885L53.104 35.2541L59.1264 28.9229" stroke="#FF8303" stroke-width="2" stroke-miterlimit="10" stroke-linecap="round" stroke-linejoin="round"/>
</svg>
