<svg width="74" height="74" viewBox="0 0 74 74" fill="none" xmlns="http://www.w3.org/2000/svg">
<g clip-path="url(#clip0_76_4956)">
<path d="M26.9562 27.046C27.0937 27.0456 27.2311 27.0453 27.3727 27.045C27.6632 27.0448 27.9536 27.0454 28.2441 27.0468C28.6889 27.0485 29.1336 27.0468 29.5784 27.0447C29.8606 27.0449 30.1427 27.0453 30.4249 27.046C30.5581 27.0453 30.6913 27.0446 30.8285 27.0439C31.468 27.0493 31.7801 27.0573 32.3245 27.4202C32.3685 27.9123 32.3819 28.3698 32.3728 28.8616C32.3721 29.0041 32.3714 29.1466 32.3707 29.2935C32.3679 29.7496 32.3617 30.2057 32.3554 30.6618C32.3529 30.9706 32.3507 31.2795 32.3486 31.5883C32.3432 32.3463 32.3346 33.1041 32.3245 33.8621C32.4928 33.8603 32.6612 33.8586 32.8347 33.8568C33.4584 33.8508 34.082 33.847 34.7057 33.8439C34.9759 33.8422 35.246 33.84 35.5161 33.8371C35.904 33.8331 36.2918 33.8313 36.6797 33.8298C36.8008 33.8281 36.922 33.8264 37.0468 33.8246C37.3449 33.8246 37.643 33.8419 37.9405 33.8621C38.2708 34.1924 38.2708 34.1924 38.3083 34.7454C38.3083 34.9814 38.3064 35.2173 38.3031 35.4532C38.3026 35.5774 38.3021 35.7015 38.3017 35.8295C38.2998 36.2267 38.2957 36.6239 38.2915 37.0211C38.2898 37.2901 38.2883 37.5592 38.2869 37.8282C38.2833 38.4883 38.2776 39.1484 38.2708 39.8084C38.4392 39.8067 38.6076 39.805 38.7811 39.8032C39.4048 39.7972 40.0284 39.7934 40.6521 39.7903C40.9222 39.7886 41.1923 39.7863 41.4625 39.7835C41.8503 39.7795 42.2382 39.7776 42.626 39.7762C42.7472 39.7744 42.8683 39.7727 42.9931 39.771C43.2913 39.7709 43.5893 39.7882 43.8868 39.8084C44.2172 40.1388 44.2172 40.1388 44.2547 40.616C44.2521 40.9144 44.2521 40.9144 44.2494 41.2189C44.2478 41.5414 44.2478 41.5414 44.2462 41.8705C44.2434 42.0985 44.2406 42.3265 44.2378 42.5545C44.2361 42.7837 44.2346 43.013 44.2333 43.2423C44.2294 43.8045 44.2239 44.3667 44.2172 44.9289C44.3856 44.9272 44.554 44.9254 44.7274 44.9236C45.3511 44.9177 45.9748 44.9139 46.5984 44.9107C46.8686 44.9091 47.1387 44.9068 47.4088 44.904C47.7967 44.9 48.1845 44.8981 48.5724 44.8966C48.6935 44.8949 48.8147 44.8932 48.9395 44.8915C49.2376 44.8914 49.5357 44.9087 49.8332 44.9289C50.1635 45.2592 50.1635 45.2592 50.201 45.8274C50.201 46.0703 50.1991 46.3132 50.1958 46.5561C50.1951 46.7479 50.1951 46.7479 50.1944 46.9436C50.1925 47.3526 50.1884 47.7615 50.1842 48.1705C50.1825 48.4475 50.181 48.7245 50.1796 49.0015C50.176 49.6812 50.1703 50.3608 50.1635 51.0404C50.2615 51.0483 50.3595 51.0561 50.4604 51.0642C51.1917 51.1323 51.796 51.2112 52.4553 51.5566C52.803 51.746 52.803 51.746 53.1367 51.8663C53.3002 51.8118 53.4637 51.7573 53.6322 51.7011C54.0887 51.6765 54.5383 51.6629 54.9949 51.6598C55.1779 51.6547 55.1779 51.6547 55.3646 51.6495C56.4004 51.6422 57.177 51.8434 57.9887 52.527C58.4927 53.1472 58.4756 53.7367 58.4223 54.5091C57.5618 56.2383 55.3253 57.4146 53.798 58.5288C53.2696 58.9144 52.7444 59.3037 52.2224 59.698C46.1012 64.3063 39.9031 68.377 31.9109 67.2567C31.2767 67.1615 30.6442 67.0567 30.012 66.949C29.8842 66.9277 29.7564 66.9064 29.6248 66.8845C28.3582 66.6721 27.1174 66.4414 25.8858 66.0708C24.0435 65.5372 22.9415 65.4077 21.1955 66.331C20.5073 66.7372 19.8403 67.165 19.1873 67.6255C18.7865 67.8842 18.4019 68.0576 17.9541 68.2188C18.0359 68.3448 18.1176 68.4709 18.2019 68.6007C18.5301 69.4076 18.6266 70.1687 18.4496 71.0268C17.9548 72.0195 17.1942 72.5381 16.2507 73.0708C16.1316 73.143 16.0125 73.2152 15.8897 73.2896C15.0786 73.7595 14.4338 73.9641 13.4943 73.9999C12.1988 73.6047 11.5393 72.796 10.8683 71.6591C10.8102 71.5614 10.7521 71.4638 10.6922 71.3632C10.5033 71.0452 10.3161 70.7263 10.1289 70.4073C9.99706 70.1849 9.86512 69.9625 9.73307 69.7402C9.46429 69.2874 9.1961 68.8343 8.92835 68.381C8.35964 67.4189 7.78327 66.4614 7.20731 65.5037C7.00683 65.1695 6.80638 64.8352 6.60596 64.501C6.26767 63.9371 5.9288 63.3736 5.5891 62.8105C5.51948 62.695 5.44987 62.5795 5.37815 62.4605C5.20067 62.166 5.02293 61.8718 4.84516 61.5775C4.30742 60.6599 4.09854 60.0408 4.24446 58.9689C4.85968 57.6615 6.31825 56.8453 7.54799 56.1609C8.39497 55.8786 9.39618 55.7829 10.225 56.1628C10.7025 56.4976 11.0236 56.8319 11.347 57.3171C12.0377 57.0741 12.6071 56.7183 13.2053 56.3054C14.3762 55.5131 15.5583 54.7388 16.7463 53.9723C16.9167 53.8611 17.0872 53.7499 17.2629 53.6354C18.7901 52.6528 20.3261 51.736 22.1042 51.3088C22.3124 51.2564 22.5206 51.2041 22.7352 51.1501C23.2535 51.0459 23.7444 51.0289 24.2727 51.0336C24.4199 51.0345 24.5672 51.0355 24.7189 51.0366C24.8861 51.0385 24.8861 51.0385 25.0567 51.0404C25.0562 50.919 25.0558 50.7976 25.0553 50.6724C25.0444 47.7211 25.0362 44.7698 25.031 41.8184C25.0285 40.3912 25.025 38.964 25.0193 37.5368C25.0144 36.2931 25.0112 35.0495 25.0101 33.8059C25.0094 33.1471 25.0079 32.4883 25.0043 31.8295C25.0009 31.2099 24.9999 30.5904 25.0006 29.9708C25.0005 29.7429 24.9995 29.515 24.9976 29.2872C24.9952 28.977 24.996 28.6668 24.9971 28.3566C24.9966 28.1827 24.9962 28.0089 24.9957 27.8297C25.0158 27.6946 25.036 27.5594 25.0567 27.4202C25.693 26.996 26.2187 27.0422 26.9562 27.046ZM26.5433 28.5764C26.5396 31.5025 26.5365 34.4286 26.5347 37.3547C26.5339 38.7132 26.5327 40.0718 26.5308 41.4303C26.5292 42.614 26.5281 43.7976 26.5277 44.9813C26.5275 45.6084 26.527 46.2356 26.5258 46.8627C26.5247 47.4523 26.5243 48.0419 26.5246 48.6315C26.5245 48.9524 26.5236 49.2734 26.5227 49.5943C26.523 49.7835 26.5232 49.9727 26.5234 50.1677C26.5233 50.3332 26.5231 50.4987 26.523 50.6693C26.5016 51.0355 26.5016 51.0355 26.7085 51.2056C27.1176 51.2918 27.5254 51.3701 27.937 51.443C28.9616 51.628 29.9817 51.8272 31.003 52.0315C31.003 44.2913 31.003 36.5511 31.003 28.5764C29.5313 28.5764 28.0596 28.5764 26.5433 28.5764ZM32.3245 35.1835C32.3245 40.8523 32.3245 46.5212 32.3245 52.3618C34.1926 52.5763 34.1926 52.5763 36.9494 52.527C36.9494 46.8036 36.9494 41.0803 36.9494 35.1835C35.4232 35.1835 33.8969 35.1835 32.3245 35.1835ZM38.2708 41.1298C38.2708 44.8909 38.2708 48.652 38.2708 52.527C38.9794 52.636 39.688 52.745 40.4181 52.8574C41.2934 53.1461 42.0749 53.438 42.8957 53.8484C42.8957 49.6513 42.8957 45.4541 42.8957 41.1298C41.3695 41.1298 39.8433 41.1298 38.2708 41.1298ZM44.2172 46.2503C44.2057 47.5139 44.1959 48.7773 44.1899 50.041C44.1875 50.4703 44.1841 50.8997 44.1798 51.329C44.1737 51.9481 44.1709 52.5672 44.1688 53.1864C44.1662 53.3766 44.1637 53.5668 44.161 53.7628C44.1608 54.9213 44.3068 55.8996 44.7127 56.9868C46.1673 56.5539 47.7358 55.916 48.6769 54.6743C49.1575 53.2966 48.9564 51.768 48.8627 50.3384C48.8478 49.9417 48.8343 49.5448 48.8221 49.148C48.792 48.1797 48.734 47.2189 48.6769 46.2503C47.2052 46.2503 45.7335 46.2503 44.2172 46.2503ZM18.2851 54.7188C17.4742 55.2784 16.6395 55.7999 15.8068 56.3261C15.4826 56.5322 15.1585 56.7385 14.8345 56.9448C13.5037 57.7917 13.5037 57.7917 12.1729 58.6385C12.4287 59.605 12.9313 60.3656 13.4634 61.1988C14.0735 62.1647 14.6757 63.1326 15.2468 64.1223C15.3424 64.2877 15.438 64.4531 15.5366 64.6236C15.7208 64.9439 15.9037 65.265 16.0851 65.5869C16.1689 65.7321 16.2528 65.8773 16.3391 66.0269C16.4119 66.1554 16.4848 66.2838 16.5598 66.4161C16.8414 66.79 17.0034 66.9441 17.4586 67.0625C17.9003 66.9039 17.9003 66.9039 18.3496 66.6122C18.5211 66.5097 18.6926 66.4073 18.8693 66.3018C19.0477 66.1917 19.226 66.0816 19.4097 65.9682C19.5861 65.862 19.7625 65.7557 19.9443 65.6463C20.2025 65.4907 20.2025 65.4907 20.4659 65.332C20.6335 65.2317 20.801 65.1313 20.9737 65.0279C21.4081 64.7677 21.4081 64.7677 21.741 64.5151C22.3366 64.092 22.7452 64.066 23.4385 64.1765C23.7723 64.25 24.1053 64.3279 24.4373 64.4094C24.8063 64.4915 25.1753 64.5732 25.5445 64.6546C25.7354 64.6979 25.9262 64.7412 26.1229 64.7859C33.0083 66.3071 38.8548 66.7779 45.043 62.9331C45.8133 62.4388 46.561 61.9139 47.3068 61.3836C47.7345 61.0819 48.1654 60.7852 48.5969 60.489C50.3066 59.3133 51.9899 58.1161 53.6264 56.8403C54.0938 56.4764 54.5676 56.1234 55.0472 55.7757C55.2313 55.6413 55.2313 55.6413 55.4192 55.5042C55.6533 55.3339 55.8885 55.1649 56.1247 54.9974C56.7063 54.5941 56.7063 54.5941 57.0622 54.0046C57.1399 53.6692 57.1399 53.6692 56.8945 53.4045C56.3607 53.0042 55.8473 52.9871 55.2014 52.9709C55.043 52.9647 54.8846 52.9586 54.7214 52.9522C52.3857 53.2289 50.5535 54.8208 48.6834 56.1294C48.2651 56.421 47.8447 56.7091 47.4239 56.9971C47.2998 57.0855 47.1757 57.174 47.0478 57.2651C45.2322 58.5026 43.3922 58.737 41.2356 58.7031C41.0054 58.7018 40.7751 58.7009 40.5449 58.7002C39.9466 58.6977 39.3485 58.6913 38.7503 58.6839C38.1368 58.6771 37.5233 58.6741 36.9097 58.6708C35.7116 58.6638 34.5136 58.6525 33.3155 58.6385C33.1503 57.8539 33.1503 57.8539 33.1503 57.4823C33.3251 57.4834 33.3251 57.4834 33.5033 57.4845C34.6018 57.4911 35.7003 57.4962 36.7988 57.4994C37.3636 57.5011 37.9283 57.5035 38.493 57.5072C39.1424 57.5115 39.7919 57.5131 40.4413 57.5146C40.7451 57.5171 40.7451 57.5171 41.0551 57.5197C41.2435 57.5197 41.432 57.5198 41.6261 57.5198C41.7919 57.5205 41.9577 57.5213 42.1285 57.522C42.5748 57.4814 42.8449 57.3805 43.2261 57.1519C43.3181 56.6264 43.3014 56.2811 43.0151 55.8241C41.9815 54.5725 40.83 54.1146 39.2619 53.8484C38.7761 53.806 38.2937 53.7988 37.8062 53.7974C37.5303 53.7933 37.2544 53.7891 36.9784 53.7849C36.5531 53.7802 36.1278 53.7762 35.7024 53.773C33.2583 53.7516 30.9724 53.4783 28.608 52.8367C27.6999 52.6002 26.8219 52.4034 25.8826 52.3618C25.7467 52.3533 25.6109 52.3448 25.4709 52.336C22.7342 52.2408 20.4783 53.1996 18.2851 54.7188ZM50.1635 52.527C50.1635 52.854 50.1635 53.1811 50.1635 53.5181C50.5451 53.3 50.9266 53.082 51.3197 52.8574C51.3197 52.7483 51.3197 52.6393 51.3197 52.527C50.9382 52.527 50.5566 52.527 50.1635 52.527ZM7.37248 57.9262C7.27145 57.9823 7.17042 58.0384 7.06633 58.0962C6.42619 58.4665 5.9567 58.8327 5.56587 59.4644C5.77146 60.7185 6.51661 61.7191 7.19247 62.7699C7.95585 63.9641 8.66507 65.1916 9.38376 66.413C10.0388 67.5242 10.705 68.6272 11.3833 69.7243C11.6191 70.1064 11.8527 70.4895 12.0839 70.8745C12.1882 71.0474 12.2926 71.2203 12.4 71.3984C12.5069 71.5764 12.6138 71.7544 12.7239 71.9378C12.9594 72.3625 12.9594 72.3625 13.3292 72.5134C14.3038 72.6434 14.8981 72.2597 15.6932 71.7597C15.8735 71.6561 15.8735 71.6561 16.0575 71.5504C16.6658 71.1734 16.9204 70.9852 17.1598 70.2912C17.1218 69.5858 16.9574 69.2733 16.5708 68.6833C16.4327 68.4667 16.2948 68.2499 16.1572 68.0329C16.0771 67.9088 15.997 67.7847 15.9145 67.6568C15.4136 66.8691 14.9343 66.068 14.4515 65.2692C14.2072 64.8653 13.962 64.462 13.7168 64.0586C12.9006 62.7156 12.0903 61.3691 11.2832 60.0206C11.2135 59.9047 11.1438 59.7888 11.0719 59.6694C10.9106 59.3985 10.7517 59.1261 10.5943 58.8529C10.5078 58.7042 10.4213 58.5556 10.3321 58.4024C10.2538 58.2661 10.1755 58.1299 10.0948 57.9895C9.86185 57.6039 9.86185 57.6039 9.36493 57.3171C8.57958 57.1928 8.02769 57.5392 7.37248 57.9262Z" fill="white"/>
<path d="M61.5232 0.353042C62.2496 0.974429 62.731 1.61045 63.2032 2.43731C63.3598 2.70217 63.5166 2.96692 63.6735 3.23157C63.7579 3.37506 63.8422 3.51854 63.9291 3.66637C64.4436 4.53312 64.9757 5.38908 65.5053 6.24669C65.732 6.61488 65.9587 6.98309 66.1854 7.35131C66.7902 8.33279 67.3966 9.31337 68.0036 10.2935C68.1346 10.5052 68.1346 10.5052 68.2682 10.7211C68.6496 11.3373 69.0316 11.9532 69.4153 12.5679C69.5366 12.763 69.6579 12.9581 69.7792 13.1531C69.8806 13.3154 69.9819 13.4776 70.0864 13.6448C70.537 14.4219 70.5853 15.1454 70.4812 16.0231C70.0455 16.9491 69.3286 17.4508 68.4991 18.0052C68.365 18.0965 68.2308 18.1879 68.0926 18.282C67.2228 18.8427 66.5707 19.1785 65.526 19.1614C64.2854 18.7829 63.6642 17.9974 62.8831 17.0141C62.7427 17.1097 62.6023 17.2053 62.4576 17.3037C60.9949 18.2988 59.53 19.2908 58.0632 20.28C57.8008 20.4571 57.5386 20.6346 57.2765 20.8121C55.9034 21.7397 54.5621 22.611 52.9725 23.1257C52.7336 23.2039 52.7336 23.2039 52.4899 23.2837C49.9822 23.9807 47.3774 23.7008 44.8789 23.1257C44.473 23.0356 44.0669 22.9461 43.6607 22.8572C43.4891 22.8176 43.3175 22.778 43.1407 22.7372C41.9594 22.5169 40.8074 22.453 39.6062 22.4662C39.4884 22.4675 39.3706 22.4688 39.2493 22.4701C38.7601 22.4762 38.2709 22.483 37.7818 22.4933C35.7105 22.5341 33.5916 22.535 31.8403 21.2745C31.3144 21.0723 31.014 21.2553 30.5085 21.4739C30.1978 21.6449 29.8916 21.8243 29.5897 22.0107C27.4404 23.2897 25.4529 24.2284 22.9104 23.9515C22.5359 23.806 22.2294 23.6467 21.8994 23.4192C21.4361 23.2276 21.0856 23.3612 20.598 23.456C20.1586 23.4793 19.7262 23.494 19.2869 23.4973C19.119 23.5024 19.119 23.5024 18.9478 23.5076C17.8575 23.516 17.1223 23.2564 16.3137 22.5166C15.864 21.7944 15.8665 21.4869 15.973 20.648C16.3139 19.9484 16.7558 19.5349 17.3564 19.0479C17.4436 18.9768 17.5309 18.9058 17.6207 18.8326C18.5979 18.0417 19.5952 17.2767 20.598 16.5186C20.6984 16.4424 20.7989 16.3662 20.9024 16.2877C27.9565 10.9423 34.0325 6.41156 43.3216 7.62915C45.2642 7.91039 47.1937 8.2646 49.1161 8.66026C50.5996 8.96212 51.4369 9.03925 52.7454 8.24945C52.9173 8.14919 52.9173 8.14919 53.0926 8.04689C53.3261 7.91036 53.5591 7.77292 53.7915 7.63456C54.1071 7.44682 54.424 7.26168 54.7417 7.07773C55.1991 6.81266 55.6554 6.54594 56.1109 6.27766C56.0205 5.72025 55.9366 5.43817 55.6154 4.95625C55.4214 4.07578 55.4338 3.48252 55.7347 2.63668C56.2933 1.78084 57.2412 1.27339 58.1137 0.785541C58.2641 0.698668 58.2641 0.698668 58.4176 0.610041C59.4066 0.0497902 60.4793 -0.315585 61.5232 0.353042ZM58.4647 2.19986C58.3537 2.26662 58.2428 2.33337 58.1285 2.40214C57.6096 2.72192 57.2788 2.95655 56.9368 3.46966C56.9804 4.32264 57.1978 4.89149 57.6452 5.61115C57.7587 5.79582 57.8722 5.98049 57.9891 6.17075C58.1132 6.36815 58.2373 6.56552 58.3614 6.76286C58.4887 6.96841 58.6158 7.17406 58.7427 7.37982C59.0669 7.90405 59.3933 8.42678 59.7208 8.94897C59.9013 9.23708 60.0815 9.52545 60.2614 9.81395C60.6874 10.4968 61.1136 11.1795 61.5415 11.8612C62.1084 12.7646 62.6678 13.6716 63.2135 14.5881C63.6444 15.3111 64.0787 16.0317 64.5246 16.7457C64.6146 16.8901 64.7047 17.0344 64.7975 17.1832C65.0064 17.5299 65.0064 17.5299 65.3608 17.6748C66.2663 17.7859 66.8137 17.4667 67.539 16.9728C67.6407 16.9075 67.7424 16.8421 67.8471 16.7747C68.6283 16.2664 68.6283 16.2664 69.1598 15.5275C69.1342 14.7351 68.8582 14.2512 68.4165 13.6074C67.6045 12.3947 66.848 11.1501 66.0937 9.90122C65.8596 9.51383 65.6254 9.12649 65.3911 8.73917C65.3051 8.59687 65.3051 8.59687 65.2173 8.45168C64.7139 7.62005 64.2049 6.79199 63.6946 5.9646C63.3944 5.47732 63.0957 4.98916 62.7973 4.50072C62.616 4.2052 62.4347 3.90969 62.2534 3.61419C62.1611 3.46259 62.0688 3.31099 61.9737 3.15479C61.8844 3.00958 61.795 2.86436 61.703 2.71475C61.6241 2.58569 61.5451 2.45663 61.4638 2.32367C61.2424 1.99922 61.0364 1.73995 60.7358 1.48754C59.8048 1.33013 59.2212 1.72049 58.4647 2.19986ZM56.2038 7.83264C56.0558 7.9176 55.9078 8.00255 55.7554 8.09008C55.5225 8.22518 55.5225 8.22518 55.285 8.36301C55.0598 8.49236 55.0598 8.49236 54.8301 8.62432C54.6804 8.71056 54.5308 8.79679 54.3765 8.88564C54.2258 8.97235 54.075 9.05906 53.9197 9.14841C53.6183 9.32701 53.3205 9.51197 53.0267 9.70297C52.8862 9.79352 52.7457 9.88406 52.6009 9.97735C52.4157 10.1011 52.4157 10.1011 52.2267 10.2273C51.2335 10.6624 50.1209 10.3331 49.098 10.1296C48.8745 10.0868 48.8745 10.0868 48.6466 10.0431C48.015 9.92208 47.3839 9.79862 46.7528 9.67515C41.5817 8.66769 36.6767 8.0723 31.83 10.5722C31.7228 10.627 31.6156 10.6817 31.5052 10.7381C29.8176 11.6124 28.2738 12.6607 26.7399 13.7788C26.3767 14.0427 26.0114 14.3035 25.6455 14.5636C24.126 15.6466 22.6416 16.7678 21.1754 17.922C20.6671 18.3211 20.1531 18.7108 19.6334 19.095C19.5042 19.1911 19.3751 19.2872 19.2421 19.3863C18.9961 19.5689 18.7491 19.7501 18.5009 19.9296C17.891 20.3847 17.4871 20.7018 17.2944 21.4739C18.1582 22.159 18.8673 22.2181 19.9373 22.1346C21.4106 21.9281 22.5479 21.0578 23.7329 20.2224C24.6199 19.5976 25.5166 18.9865 26.412 18.3739C26.6803 18.1904 26.9481 18.0062 27.216 17.8219C30.2608 15.795 33.6816 16.1644 37.1982 16.1779C37.5761 16.1788 37.954 16.1795 38.3318 16.1802C39.2478 16.182 40.1638 16.1847 41.0798 16.1882C41.143 16.4618 41.1978 16.7374 41.245 17.0141C40.9605 17.2986 40.5781 17.2113 40.1895 17.2205C39.9993 17.2255 39.8091 17.2305 39.6132 17.2357C39.406 17.2405 39.1989 17.2453 38.9855 17.2503C38.6627 17.2593 38.34 17.2684 38.0173 17.2776C37.2186 17.3003 36.4199 17.3214 35.621 17.3402C35.1736 17.3508 34.7263 17.3626 34.2789 17.3759C33.8567 17.3884 33.4345 17.3989 33.0122 17.4074C32.7253 17.4164 32.7253 17.4164 32.4327 17.4257C32.2641 17.43 32.0955 17.4342 31.9218 17.4386C31.4467 17.5186 31.296 17.6314 31.0041 18.0052C31.1658 18.9039 31.4167 19.3639 32.1377 19.9292C33.1297 20.5567 34.306 20.9935 35.4856 21.0044C35.6187 21.0061 35.7517 21.0078 35.8889 21.0096C36.032 21.0108 36.1751 21.012 36.3226 21.0132C36.6314 21.0178 36.9401 21.0226 37.2488 21.0274C37.7311 21.0341 38.2133 21.0402 38.6956 21.0447C40.7551 21.0651 42.699 21.2059 44.7137 21.6391C44.9588 21.6898 44.9588 21.6898 45.2088 21.7415C45.4843 21.7992 45.7595 21.8578 46.0345 21.9177C47.368 22.2059 48.6295 22.4263 49.9994 22.2998C50.1554 22.2861 50.3115 22.2725 50.4723 22.2585C53.2455 21.9059 55.3964 20.4432 57.6443 18.8933C58.1279 18.56 58.6136 18.2301 59.0999 17.9007C59.4103 17.6892 59.7205 17.4776 60.0306 17.2658C60.1748 17.1675 60.319 17.0692 60.4675 16.968C60.6017 16.8754 60.7358 16.7827 60.874 16.6872C60.9913 16.6066 61.1085 16.526 61.2293 16.4429C61.5928 16.1644 61.9055 15.8575 62.2224 15.5275C61.1064 13.5766 59.9318 11.6602 58.7537 9.74636C58.6729 9.61496 58.592 9.48356 58.5087 9.34818C58.3029 9.01535 58.0953 8.68373 57.8865 8.35269C57.7733 8.17234 57.66 7.992 57.5433 7.80619C57.4522 7.68333 57.361 7.56047 57.2671 7.43389C56.8198 7.43389 56.5912 7.60926 56.2038 7.83264ZM28.1858 18.7072C28.0696 18.7801 27.9535 18.8531 27.8339 18.9283C26.7021 19.6473 25.6089 20.4178 24.5196 21.199C23.9908 21.5782 23.4542 21.9424 22.9104 22.2998C23.7364 22.787 24.4758 22.6541 25.3881 22.465C26.6516 22.0379 27.8281 21.4288 28.991 20.7822C29.0909 20.7273 29.1908 20.6723 29.2938 20.6157C29.8933 20.2763 29.8933 20.2763 30.1782 19.6569C30.0903 19.2374 30.0903 19.2374 29.9407 18.8001C29.8933 18.6513 29.8458 18.5024 29.7969 18.3491C29.7592 18.2356 29.7215 18.1221 29.6827 18.0052C29.1102 18.0052 28.6582 18.4083 28.1858 18.7072Z" fill="white"/>
<path d="M50.1201 27.4675C50.2427 27.5065 50.3652 27.5455 50.4915 27.5856C50.6027 27.961 50.6027 27.961 50.6566 28.4115C50.481 28.7183 50.481 28.7183 50.1976 29.0119C50.0899 29.1258 49.9821 29.2396 49.8711 29.357C49.7488 29.481 49.6264 29.6051 49.5004 29.7329C49.371 29.8682 49.2416 30.0034 49.1083 30.1428C48.1569 31.1321 47.1882 32.1047 46.2213 33.0789C45.8661 33.4371 45.5124 33.7966 45.1598 34.1574C44.7312 34.5959 44.3002 35.032 43.8674 35.4664C43.7037 35.6315 43.5408 35.7975 43.3789 35.9643C43.1529 36.1967 42.9235 36.4257 42.6939 36.6545C42.5646 36.7855 42.4353 36.9165 42.3021 37.0515C41.8035 37.4001 41.5073 37.3998 40.9112 37.331C40.746 37.1659 40.746 37.1659 40.668 36.8129C40.7907 36.0693 41.2927 35.7136 41.83 35.2147C42.045 35.0084 42.2596 34.8017 42.4739 34.5947C42.5765 34.4963 42.6791 34.3979 42.7848 34.2965C43.0988 33.9879 43.3864 33.6642 43.6676 33.3255C44.2506 32.6357 44.9194 32.0483 45.5942 31.4499C46.2696 30.8392 46.8967 30.1875 47.5234 29.5277C47.7694 29.2726 48.0155 29.0175 48.2616 28.7625C48.3849 28.6309 48.5081 28.4993 48.6352 28.3638C48.7555 28.2403 48.8758 28.1168 48.9997 27.9895C49.1078 27.8763 49.2158 27.763 49.3272 27.6464C49.6656 27.4205 49.6656 27.4205 50.1201 27.4675Z" fill="#FF8303"/>
<path d="M43.547 27.0436C44.2042 27.3896 44.6205 27.7134 44.873 28.4114C44.9805 29.2904 44.9808 29.9962 44.6046 30.8065C43.9969 31.4461 43.44 31.7366 42.5605 31.7769C41.6924 31.7388 41.1183 31.4459 40.5268 30.8065C40.0591 30.1136 40.0271 29.5644 40.0829 28.7418C40.371 27.9685 40.7222 27.5504 41.4043 27.09C42.1261 26.8494 42.8269 26.7812 43.547 27.0436ZM41.5694 28.7418C41.3901 29.0461 41.3901 29.0461 41.4043 29.4025C41.5592 29.8626 41.5592 29.8626 41.8998 30.2284C42.3783 30.4343 42.3783 30.4343 42.8909 30.3935C43.3577 30.0741 43.5202 29.8724 43.6445 29.3199C43.5817 28.869 43.5817 28.869 43.1696 28.525C42.4767 28.0899 42.1417 28.2077 41.5694 28.7418Z" fill="#FF8303"/>
<path d="M50.0525 33.3874C50.6187 33.7824 50.8642 34.0572 51.1571 34.6882C51.2914 35.4555 51.342 36.1699 50.9571 36.8677C50.5321 37.3833 50.1283 37.7363 49.5054 37.9917C48.5768 38.0666 47.9922 38.023 47.1929 37.4962C46.5173 36.7658 46.3046 36.1973 46.3212 35.1934C46.4258 34.4169 46.9083 33.9678 47.4716 33.47C48.3645 33.032 49.1205 33.0709 50.0525 33.3874ZM48.0601 34.8843C47.6456 35.3062 47.6456 35.3062 47.6781 35.7825C47.8909 36.2582 48.0478 36.437 48.5143 36.6703C48.9824 36.6475 49.2553 36.5589 49.6499 36.309C49.8805 35.9981 49.8805 35.9981 49.8254 35.5141C49.65 34.9528 49.523 34.7947 49.0098 34.523C48.4822 34.4716 48.4822 34.4716 48.0601 34.8843Z" fill="#FF8303"/>
</g>
<defs>
<clipPath id="clip0_76_4956">
<rect width="74" height="74" fill="white"/>
</clipPath>
</defs>
</svg>
