<svg width="52" height="51" viewBox="0 0 52 51" fill="none" xmlns="http://www.w3.org/2000/svg">
<path d="M27.7598 0.695858C28.4506 1.25931 28.9772 1.99166 29.1465 2.88047C29.2621 4.03137 29.074 4.90677 28.368 5.84028C27.8427 6.42988 27.2497 6.75878 26.4959 6.98438C26.4272 6.98438 26.3586 6.98438 26.2878 6.98438C26.2878 8.46028 26.2878 9.93618 26.2878 11.4568C26.94 11.5254 27.5921 11.5941 28.264 11.6648C28.6099 11.7314 28.9301 11.7964 29.2651 11.8923C29.3456 11.9146 29.4261 11.9369 29.509 11.9599C31.5577 12.5499 33.271 13.5566 34.9206 14.8891C35.6217 14.3143 36.2527 13.6728 36.8903 13.0299C37.0022 12.9175 37.1142 12.8051 37.2261 12.6927C37.498 12.4197 37.7696 12.1464 38.0409 11.8728C38.0189 11.7994 37.9969 11.7259 37.9743 11.6502C37.6609 10.5627 37.4939 9.42696 38.0019 8.36495C38.5456 7.46597 39.2292 6.91391 40.2251 6.56834C41.282 6.34613 42.2007 6.48533 43.1236 7.04004C43.8692 7.55213 44.3571 8.18251 44.5935 9.06458C44.7416 10.158 44.6542 11.1763 44.0207 12.102C43.4616 12.8041 42.745 13.1903 41.8893 13.433C41.55 13.4679 41.55 13.4679 41.1937 13.472C41.0775 13.4749 40.9612 13.4779 40.8415 13.4809C40.4332 13.433 40.4332 13.433 39.289 13.0169C38.2937 14.0123 37.2983 15.0077 36.2728 16.0332C36.4443 16.3762 36.6261 16.6491 36.8584 16.9506C38.1415 18.6237 38.9523 20.4584 39.4256 22.5078C39.4505 22.6145 39.4505 22.6145 39.4759 22.7233C39.6233 23.4129 39.6496 24.0486 39.7051 24.77C41.181 24.77 42.6569 24.77 44.1775 24.77C44.332 24.3067 44.332 24.3067 44.4895 23.834C44.9366 22.9915 45.6226 22.4127 46.5242 22.1178C47.567 21.8478 48.3794 21.9294 49.378 22.3778C50.3836 23.0873 50.9095 23.8835 51.1462 25.0821C51.2659 25.9676 50.9652 26.8615 50.4701 27.5909C49.9334 28.2632 49.2888 28.7421 48.4419 28.9304C47.2141 29.0515 46.2203 28.9336 45.2371 28.1374C44.6959 27.6268 44.4101 27.0281 44.1775 26.3302C42.7016 26.2959 41.2257 26.2615 39.7051 26.2262C39.6708 26.7067 39.6364 27.1872 39.6011 27.6823C39.5344 28.0516 39.4644 28.4056 39.3736 28.7679C39.3506 28.861 39.3277 28.9542 39.304 29.0501C38.7889 31.062 37.8232 32.7954 36.5848 34.4429C36.4303 34.6489 36.4303 34.6489 36.2728 34.859C37.2681 35.8544 38.2635 36.8497 39.289 37.8753C39.6666 37.7723 40.0442 37.6693 40.4332 37.5632C41.5177 37.4458 42.4177 37.5347 43.3097 38.1788C44.1434 38.8715 44.6193 39.6517 44.7223 40.7363C44.7509 41.743 44.4818 42.624 43.8403 43.4105C43.1237 44.1367 42.2355 44.5366 41.2197 44.5709C40.0532 44.5318 39.2239 44.0982 38.431 43.2578C37.7993 42.4639 37.6824 41.6816 37.6736 40.6839C37.7289 40.2675 37.7289 40.2675 38.1449 39.1234C37.1496 38.128 36.1542 37.1326 35.1287 36.1071C34.7346 36.3041 34.4551 36.5136 34.1146 36.7897C31.8552 38.5591 29.2277 39.3504 26.3918 39.5394C26.4262 41.0153 26.4605 42.4912 26.4959 44.0118C26.8391 44.1491 27.1823 44.2864 27.536 44.4279C28.4011 44.9717 28.9374 45.8155 29.1644 46.8059C29.2939 47.8466 29.0749 48.7703 28.472 49.6284C27.8436 50.4039 27.0609 50.8218 26.0798 50.9805C25.205 51.0695 24.3388 50.852 23.5994 50.3723C22.7647 49.6785 22.2503 48.822 22.1274 47.7367C22.0917 46.6359 22.4112 45.7725 23.1489 44.9431C23.6876 44.4326 24.0982 44.3052 24.8317 44.0118C24.866 42.5359 24.9003 41.06 24.9357 39.5394C24.4209 39.5051 23.906 39.4708 23.3756 39.4354C20.8221 39.0246 18.6137 37.9196 16.6149 36.3151C16.512 36.2465 16.409 36.1778 16.3029 36.1071C15.3075 37.1025 14.3122 38.0978 13.2866 39.1234C13.3896 39.5009 13.4926 39.8785 13.5987 40.2675C13.7334 41.3981 13.5894 42.3961 12.8954 43.3195C12.3088 43.9572 11.4646 44.4861 10.5856 44.5567C9.52153 44.579 8.66444 44.4599 7.83261 43.7583C7.70694 43.637 7.58312 43.5137 7.46208 43.3878C7.38485 43.3084 7.30762 43.229 7.22806 43.1473C6.61094 42.1996 6.51811 41.2675 6.63 40.1635C6.71944 39.8103 6.84952 39.5329 7.04604 39.2274C7.09015 39.1551 7.13426 39.0829 7.17971 39.0084C7.67707 38.27 8.3706 37.7916 9.23024 37.5632C9.52132 37.5385 9.79759 37.5248 10.0883 37.5242C10.1611 37.5217 10.2339 37.5191 10.3089 37.5165C11.014 37.5127 11.313 37.6891 12.0385 37.9793C13.0339 36.9839 14.0293 35.9885 15.0548 34.963C14.8603 34.5739 14.661 34.3136 14.3852 33.9814C12.6402 31.7776 11.835 29.0931 11.6225 26.3302C10.1122 26.3302 8.60202 26.3302 7.04604 26.3302C7.01172 26.5361 6.97739 26.7421 6.94203 26.9542C6.51954 27.8049 5.83387 28.4973 4.95 28.8581C4.02831 29.0832 2.92856 29.0697 2.06779 28.6517C1.23857 28.1393 0.523752 27.396 0.246405 26.4407C0.0402084 25.3672 0.199114 24.3774 0.772954 23.4439C1.34529 22.6441 2.08231 22.2372 3.02704 22.0057C4.07825 21.8377 5.03103 22.0968 5.90193 22.6898C6.5392 23.2364 6.91867 23.8608 7.15005 24.666C7.15005 24.7347 7.15005 24.8033 7.15005 24.8741C8.62595 24.8741 10.1018 24.8741 11.6225 24.8741C11.6568 24.3935 11.6911 23.913 11.7265 23.4179C11.777 23.1054 11.8296 22.8077 11.902 22.5013C11.9292 22.3842 11.9292 22.3842 11.957 22.2647C12.4414 20.2641 13.2675 18.4856 14.5545 16.8744C14.8713 16.5009 14.8713 16.5009 14.9508 16.0332C14.7444 15.7995 14.5365 15.5828 14.3137 15.3657C14.2168 15.2694 14.2168 15.2694 14.1178 15.1712C13.9108 14.9659 13.7028 14.7617 13.4946 14.5576C13.3543 14.4188 13.214 14.2799 13.0737 14.1409C12.7295 13.8001 12.3842 13.4603 12.0385 13.121C11.965 13.143 11.8916 13.1649 11.8159 13.1876C10.7342 13.4993 9.59686 13.6686 8.53833 13.1685C7.76858 12.6908 7.14471 12.1118 6.83802 11.2488C6.79512 11.1329 6.75221 11.0171 6.70801 10.8977C6.48822 9.83545 6.65234 8.87242 7.22156 7.94647C7.76189 7.18947 8.48525 6.75891 9.36676 6.49684C10.4048 6.37613 11.3421 6.4758 12.2266 7.07986C12.9279 7.66858 13.3117 8.3077 13.5987 9.16859C13.6625 10.0324 13.6662 10.7742 13.2533 11.5555C13.1608 11.7634 13.1608 11.7634 13.2425 11.9492C13.4572 12.2908 13.7391 12.5588 14.0253 12.8398C14.0873 12.9015 14.1493 12.9633 14.2132 13.0269C14.4109 13.2234 14.6093 13.4192 14.8078 13.615C14.9422 13.7484 15.0765 13.8817 15.2108 14.0152C15.5396 14.3417 15.8691 14.6676 16.1989 14.9931C16.2535 14.9521 16.3082 14.911 16.3645 14.8687C18.9499 12.9276 21.4838 11.7812 24.7277 11.4568C24.762 9.94658 24.7963 8.43636 24.8317 6.88037C24.5228 6.82889 24.5228 6.82889 24.2076 6.77636C23.3271 6.33903 22.6799 5.65903 22.3099 4.75021C22.0054 3.73281 22.0832 2.76182 22.563 1.8229C23.1141 0.899519 23.8048 0.441161 24.7992 0.0872387C25.8404 -0.140279 26.9017 0.0822696 27.7598 0.695858ZM24.2145 2.19912C23.8468 2.7088 23.6776 3.13174 23.6876 3.76008C23.8117 4.4935 24.2489 4.89331 24.8317 5.32023C25.2671 5.53791 25.8137 5.46836 26.2878 5.42424C26.8442 5.16123 27.2837 4.74125 27.5213 4.16881C27.6964 3.55592 27.6225 3.0749 27.3279 2.51197C26.9207 2.01904 26.5235 1.73979 25.9043 1.58238C25.262 1.52774 24.6647 1.73531 24.2145 2.19912ZM8.61919 8.74605C8.25106 9.27658 8.11536 9.66098 8.19015 10.3127C8.431 10.9825 8.69065 11.447 9.33425 11.7688C9.85464 11.9423 10.3999 11.9789 10.9212 11.7859C11.4503 11.4861 11.8219 11.0927 12.0385 10.5207C12.1506 9.89664 12.0625 9.37276 11.7472 8.82405C11.4184 8.36145 11.0211 8.15474 10.4784 8.02448C9.72852 7.94116 9.11692 8.17951 8.61919 8.74605ZM39.4126 9.07758C39.1953 9.6035 39.1817 10.1956 39.361 10.7385C39.6404 11.2717 40.0694 11.6822 40.6412 11.8728C41.3283 11.9505 41.8734 11.9269 42.4451 11.5157C42.8802 11.1042 43.1117 10.5745 43.1699 9.98116C43.1187 9.35616 42.8904 8.87047 42.4158 8.45352C41.2549 7.64793 40.271 8.07115 39.4126 9.07758ZM16.2521 17.244C13.9412 19.9036 13.0191 23.1642 13.1826 26.6422C13.3987 29.2964 14.5329 31.8409 16.3029 33.8189C16.3514 33.8731 16.3999 33.9274 16.4499 33.9832C18.525 36.2591 21.5172 37.8061 24.6141 37.998C28.3076 38.1567 31.5772 37.0604 34.3157 34.56C36.6427 32.368 38.0392 29.2664 38.1742 26.0779C38.262 22.5616 37.0176 19.3332 34.6086 16.7613C33.9373 16.09 33.2258 15.5018 32.4244 14.9931C32.319 14.9258 32.2136 14.8585 32.1051 14.7892C26.9369 11.6595 20.2732 12.8127 16.2521 17.244ZM2.3851 24.081C1.96389 24.5864 1.70738 25.0288 1.74154 25.7061C1.86766 26.3196 2.08715 26.747 2.59962 27.1168C3.11526 27.4138 3.53589 27.5403 4.13702 27.4385C4.75806 27.257 5.11212 26.8405 5.48589 26.3302C5.70358 25.8948 5.63402 25.3482 5.5899 24.8741C5.3057 24.2728 4.83823 23.8511 4.22478 23.5934C3.51274 23.4232 2.93195 23.6192 2.3851 24.081ZM46.352 24.033C45.8111 24.6427 45.7 24.9946 45.7088 25.8122C45.7613 26.3764 46.0508 26.6384 46.4267 27.0323C46.8395 27.3533 47.3014 27.4559 47.8178 27.4743C48.5221 27.3555 48.9293 26.9603 49.352 26.4017C49.5989 25.8708 49.652 25.4057 49.469 24.8546C49.2214 24.2806 48.7947 23.893 48.2339 23.6259C47.535 23.4378 46.8925 23.5388 46.352 24.033ZM8.57043 39.8291C8.2537 40.3619 8.13968 40.7959 8.19015 41.4116C8.42649 42.1233 8.8251 42.5456 9.48377 42.9002C10.1325 43.0743 10.6206 42.9743 11.2064 42.6597C11.6674 42.2721 11.9826 41.8814 12.0755 41.2739C12.1079 40.7015 12.024 40.2934 11.685 39.8267C11.2308 39.3271 10.7938 39.0941 10.1143 39.0584C9.46545 39.0917 8.96696 39.3023 8.57043 39.8291ZM39.6421 39.8267C39.3089 40.2868 39.2139 40.6949 39.2452 41.2596C39.3393 41.8085 39.5608 42.2034 39.9521 42.5947C40.4825 42.923 40.9551 43.0361 41.5773 42.9717C42.1885 42.7664 42.5693 42.4612 42.9294 41.9316C43.1876 41.4035 43.1672 40.9319 43.0334 40.3715C42.8255 39.8221 42.5058 39.5109 41.9933 39.2274C41.072 38.9203 40.2931 39.1123 39.6421 39.8267ZM24.1296 46.261C23.8075 46.6787 23.6953 47.1292 23.6876 47.6522C23.7954 48.2733 24.0344 48.6915 24.5457 49.0628C25.0928 49.3761 25.5124 49.4964 26.133 49.3651C26.7604 49.1625 27.0978 48.8773 27.4254 48.3067C27.7002 47.7138 27.6754 47.2349 27.4555 46.6348C27.1982 46.1693 26.7614 45.8088 26.2878 45.572C25.3264 45.4842 24.8348 45.588 24.1296 46.261Z" fill="#215CFF"/>
<path d="M25.9763 15.0974C26.2525 15.2158 26.2525 15.2158 26.5337 15.3838C26.6398 15.4462 26.7458 15.5085 26.8551 15.5727C26.9684 15.6411 27.0817 15.7095 27.1984 15.78C27.3187 15.8512 27.4391 15.9223 27.5596 15.9933C27.8097 16.1407 28.0595 16.2888 28.309 16.4374C28.8801 16.7767 29.4567 17.1067 30.0327 17.4376C30.2552 17.5659 30.4777 17.6943 30.7002 17.8228C31.116 18.0627 31.5319 18.3025 31.9478 18.5422C32.1965 18.6855 32.4452 18.8289 32.6938 18.9722C32.869 19.0732 33.0442 19.1741 33.2194 19.275C33.3258 19.3364 33.4322 19.3977 33.5418 19.4609C33.6351 19.5147 33.7285 19.5685 33.8247 19.6239C33.9119 19.6747 33.9992 19.7255 34.0891 19.7778C34.2315 19.8584 34.2315 19.8584 34.3768 19.9406C34.6091 20.0899 34.6091 20.0899 34.7131 20.2979C34.7239 20.4364 34.7285 20.5754 34.7298 20.7142C34.7314 20.8448 34.7314 20.8448 34.733 20.978C34.7336 21.0737 34.7342 21.1694 34.7348 21.268C34.7358 21.3687 34.7369 21.4693 34.7379 21.573C34.741 21.907 34.7432 22.2411 34.7452 22.5751C34.7459 22.689 34.7466 22.8029 34.7473 22.9203C34.7507 23.5231 34.7532 24.1259 34.7552 24.7288C34.7571 25.2283 34.7607 25.7278 34.7659 26.2273C34.7722 26.8297 34.7754 27.4322 34.7764 28.0347C34.7773 28.2645 34.7792 28.4942 34.7823 28.724C34.7863 29.0455 34.7864 29.3668 34.7856 29.6883C34.7887 29.8309 34.7887 29.8309 34.7919 29.9764C34.7847 30.607 34.7847 30.607 34.5797 30.8701C34.2493 31.1515 33.8636 31.3667 33.4861 31.5789C33.3706 31.6442 33.2552 31.7096 33.1362 31.777C33.0754 31.811 33.0147 31.845 32.9521 31.8801C32.7586 31.9884 32.5655 32.0975 32.3726 32.2067C32.1721 32.3203 31.9716 32.4337 31.771 32.547C31.1112 32.9194 30.4547 33.2972 29.7987 33.6761C29.6342 33.7706 29.6342 33.7706 29.4665 33.8671C28.898 34.1945 28.3325 34.5261 27.7705 34.8645C27.6002 34.9663 27.6002 34.9663 27.4264 35.07C27.2106 35.1992 26.9954 35.3295 26.781 35.461C26.6361 35.5474 26.6361 35.5474 26.4882 35.6356C26.3621 35.7123 26.3621 35.7123 26.2334 35.7904C25.9126 35.9263 25.6982 35.9371 25.3522 35.8993C25.0761 35.7809 25.0761 35.7809 24.7948 35.6129C24.6888 35.5506 24.5827 35.4882 24.4734 35.424C24.3601 35.3556 24.2468 35.2872 24.1301 35.2168C24.0098 35.1455 23.8894 35.0744 23.7689 35.0035C23.5188 34.856 23.269 34.7079 23.0195 34.5593C22.4484 34.22 21.8719 33.8901 21.2959 33.5591C21.0733 33.4308 20.8508 33.3024 20.6283 33.174C20.2125 32.934 19.7966 32.6942 19.3807 32.4545C19.132 32.3112 18.8834 32.1678 18.6347 32.0245C18.4595 31.9235 18.2843 31.8226 18.1091 31.7217C18.0027 31.6603 17.8964 31.599 17.7867 31.5358C17.6934 31.482 17.6 31.4282 17.5038 31.3728C17.4166 31.322 17.3294 31.2712 17.2395 31.2189C17.1445 31.1652 17.0496 31.1114 16.9517 31.0561C16.7194 30.9069 16.7194 30.9069 16.6154 30.6988C16.6051 30.5601 16.6009 30.4209 16.6001 30.2818C16.5994 30.1946 16.5986 30.1074 16.5979 30.0175C16.5976 29.9217 16.5973 29.8258 16.597 29.7271C16.5963 29.6262 16.5956 29.5254 16.5949 29.4216C16.5929 29.087 16.5917 28.7525 16.5906 28.4179C16.5902 28.3039 16.5898 28.1899 16.5894 28.0724C16.5872 27.469 16.5857 26.8656 16.5847 26.2622C16.5836 25.638 16.58 25.0138 16.5759 24.3896C16.5731 23.9105 16.5723 23.4313 16.5719 22.9522C16.5714 22.722 16.5702 22.4919 16.5683 22.2617C16.5657 21.94 16.5658 21.6183 16.5665 21.2966C16.5652 21.2011 16.5639 21.1057 16.5625 21.0074C16.5678 20.3605 16.5678 20.3605 16.8153 20.0349C17.0055 19.9002 17.1882 19.7743 17.3939 19.6649C17.4991 19.6078 17.4991 19.6078 17.6066 19.5496C17.6828 19.5091 17.759 19.4686 17.8375 19.4268C18.5994 19.0126 19.3518 18.5849 20.0997 18.1462C21.1174 17.55 22.1376 16.9586 23.1597 16.3702C23.3175 16.2793 23.3175 16.2793 23.4784 16.1866C23.5813 16.1278 23.6842 16.069 23.7903 16.0083C24.0084 15.8812 24.2245 15.7508 24.4391 15.6178C24.5479 15.551 24.6567 15.4843 24.7688 15.4155C24.8659 15.3546 24.963 15.2936 25.0631 15.2308C25.4029 15.074 25.6057 15.0523 25.9763 15.0974ZM24.9191 17.152C24.8123 17.2144 24.7054 17.2768 24.5953 17.3411C24.4804 17.4094 24.3655 17.4777 24.2471 17.5481C24.1271 17.6186 24.0069 17.689 23.8868 17.7594C23.6357 17.9064 23.3849 18.0538 23.1342 18.2014C22.7602 18.4214 22.3846 18.6385 22.0085 18.8547C21.9183 18.9066 21.9183 18.9066 21.8263 18.9595C21.6495 19.0611 21.4727 19.1627 21.2959 19.2643C20.5285 19.7054 19.7649 20.1516 19.0076 20.6099C19.3987 21.0188 19.8119 21.2902 20.2948 21.5785C20.4106 21.6514 20.4106 21.6514 20.5288 21.7258C20.6047 21.7712 20.6806 21.8165 20.7587 21.8633C20.8269 21.9048 20.8951 21.9462 20.9653 21.989C21.3761 22.1287 21.7105 22.0117 22.0921 21.8318C22.2313 21.7494 22.2313 21.7494 22.3733 21.6654C22.4795 21.6033 22.5857 21.5413 22.6951 21.4773C22.8083 21.4099 22.9214 21.3424 23.038 21.273C23.2182 21.1673 23.3983 21.0616 23.5785 20.9561C23.7661 20.846 23.9535 20.7355 24.1408 20.6249C24.7524 20.2647 25.3678 19.9111 25.9828 19.5568C26.0933 19.4929 26.2038 19.429 26.3177 19.3632C26.9288 19.0101 27.5421 18.6618 28.1605 18.3217C27.7918 17.9228 27.333 17.6879 26.8669 17.4181C26.7328 17.3384 26.7328 17.3384 26.5961 17.257C26.5097 17.2068 26.4233 17.1566 26.3342 17.1049C26.2556 17.0589 26.177 17.013 26.096 16.9656C25.6216 16.7534 25.3328 16.9078 24.9191 17.152ZM29.2294 19.4211C29.0732 19.5084 29.0732 19.5084 28.9137 19.5976C28.8003 19.6613 28.6869 19.7251 28.57 19.7908C28.4537 19.8561 28.3373 19.9215 28.2174 19.9888C26.4834 20.9652 24.7661 21.971 23.064 23.0021C23.4547 23.4269 23.9551 23.6816 24.4487 23.9707C24.5462 24.0306 24.6437 24.0904 24.7442 24.1521C25.2741 24.4772 25.2741 24.4772 25.8719 24.5355C26.0265 24.4458 26.0265 24.4458 26.1843 24.3543C26.2627 24.3111 26.3411 24.2679 26.4219 24.2234C26.7187 24.0577 27.0105 23.8849 27.3024 23.7107C27.5252 23.5793 27.7479 23.4479 27.9708 23.3166C28.1444 23.214 28.1444 23.214 28.3216 23.1093C28.9221 22.7553 29.5263 22.4076 30.1302 22.0595C30.2415 21.9952 30.3528 21.9309 30.4675 21.8646C31.0822 21.51 31.6991 21.16 32.3209 20.8179C32.3209 20.7493 32.3209 20.6806 32.3209 20.6099C32.0835 20.4412 32.0835 20.4412 31.7785 20.2711C31.6663 20.206 31.5542 20.141 31.4386 20.074C31.32 20.0063 31.2015 19.9386 31.0793 19.8688C30.9611 19.8003 30.8429 19.7318 30.7211 19.6612C29.9797 19.1598 29.9797 19.1598 29.2294 19.4211ZM18.0716 22.066C18.0716 24.6403 18.0716 27.2145 18.0716 29.8668C19.5131 30.6905 19.5131 30.6905 20.9838 31.5309C21.4738 31.8122 21.9637 32.0936 22.453 32.376C22.5601 32.4377 22.6672 32.4993 22.7776 32.5629C23.3649 32.9017 23.9475 33.2463 24.5238 33.6038C24.7198 33.7317 24.7198 33.7317 24.9362 33.7151C24.9362 31.1409 24.9362 28.5666 24.9362 25.9144C24.3184 25.5712 23.7006 25.2279 23.064 24.8743C22.6578 24.6396 22.2525 24.404 21.8484 24.1657C20.9765 23.6546 20.1016 23.1493 19.2222 22.6511C19.1186 22.5923 19.0151 22.5334 18.9084 22.4728C18.8137 22.4193 18.7189 22.3658 18.6213 22.3106C18.5375 22.2632 18.4537 22.2159 18.3674 22.1671C18.1964 22.058 18.1964 22.058 18.0716 22.066ZM32.3664 22.4951C32.2422 22.5642 32.2422 22.5642 32.1156 22.6347C31.3337 23.0724 30.5596 23.5233 29.7877 23.9783C28.6639 24.6387 27.5278 25.2726 26.3923 25.9144C26.3923 28.4886 26.3923 31.0629 26.3923 33.7151C26.7558 33.5697 27.0632 33.4325 27.3987 33.2422C27.4922 33.1893 27.5856 33.1365 27.6819 33.082C27.8319 32.9964 27.8319 32.9964 27.985 32.909C28.0896 32.8496 28.1943 32.7902 28.3021 32.729C29.1738 32.2326 30.0412 31.7287 30.9065 31.2212C31.6868 30.7637 32.4714 30.3156 33.257 29.8668C33.257 27.2925 33.257 24.7183 33.257 22.066C32.9727 22.066 32.6173 22.355 32.3664 22.4951Z" fill="#FF8303"/>
</svg>
