<svg width="40" height="40" viewBox="0 0 40 40" fill="none" xmlns="http://www.w3.org/2000/svg">
<path d="M5.04428 21.6558H2.29201C1.57973 21.6558 1 22.235 1 22.9472V38.126C1 38.8383 1.57973 39.418 2.29201 39.418H5.04428C5.75656 39.418 6.33568 38.8383 6.33568 38.126V22.9472C6.33568 22.2349 5.75649 21.6558 5.04428 21.6558ZM5.1351 38.126C5.1351 38.1765 5.09405 38.2175 5.04421 38.2175H2.29201C2.24156 38.2175 2.20059 38.1764 2.20059 38.126V22.9472C2.20059 22.8974 2.24164 22.8563 2.29201 22.8563H5.04428C5.09412 22.8563 5.13517 22.8974 5.13517 22.9472L5.1351 38.126Z" fill="url(#paint0_linear_370_703)"/>
<path d="M13.3138 26.2383H10.5615C9.84926 26.2383 9.26953 26.818 9.26953 27.5303V38.1261C9.26953 38.8384 9.84926 39.4181 10.5615 39.4181H13.3138C14.0261 39.4181 14.6058 38.8384 14.6058 38.1261V27.5303C14.6058 26.818 14.0261 26.2383 13.3138 26.2383ZM13.4053 38.1261C13.4053 38.1765 13.3643 38.2175 13.3139 38.2175H10.5616C10.5112 38.2175 10.4702 38.1764 10.4702 38.1261V27.5303C10.4702 27.4798 10.5112 27.4389 10.5616 27.4389H13.3139C13.3643 27.4389 13.4053 27.4799 13.4053 27.5303V38.1261Z" fill="url(#paint1_linear_370_703)"/>
<path d="M21.5847 21.6558H18.833C18.1207 21.6558 17.541 22.235 17.541 22.9472V38.126C17.541 38.8383 18.1207 39.418 18.833 39.418H21.5847C22.297 39.418 22.8767 38.8383 22.8767 38.126V22.9472C22.8767 22.2349 22.2969 21.6558 21.5847 21.6558ZM21.6761 38.126C21.6761 38.1765 21.6351 38.2175 21.5847 38.2175H18.833C18.7826 38.2175 18.7416 38.1764 18.7416 38.126V22.9472C18.7416 22.8974 18.7827 22.8563 18.833 22.8563H21.5847C21.6351 22.8563 21.6761 22.8974 21.6761 22.9472V38.126Z" fill="url(#paint2_linear_370_703)"/>
<path d="M29.8548 24.2117H27.1026C26.3903 24.2117 25.8105 24.7909 25.8105 25.5031V38.126C25.8105 38.8383 26.3903 39.418 27.1026 39.418H29.8548C30.5671 39.418 31.1468 38.8383 31.1468 38.126V25.5031C31.1468 24.7908 30.567 24.2117 29.8548 24.2117ZM29.9463 38.126C29.9463 38.1764 29.9052 38.2174 29.8548 38.2174H27.1026C27.0521 38.2174 27.0111 38.1764 27.0111 38.126V25.5031C27.0111 25.4532 27.0522 25.4122 27.1026 25.4122H29.8548C29.9053 25.4122 29.9463 25.4532 29.9463 25.5031V38.126Z" fill="url(#paint3_linear_370_703)"/>
<path d="M38.1247 17.2322H35.3725C34.6602 17.2322 34.0811 17.8114 34.0811 18.5236V38.126C34.0811 38.8383 34.6603 39.418 35.3725 39.418H38.1247C38.837 39.418 39.4167 38.8383 39.4167 38.126V18.5236C39.4167 17.8114 38.837 17.2322 38.1247 17.2322ZM38.2162 38.126C38.2162 38.1765 38.1752 38.2175 38.1248 38.2175H35.3725C35.3227 38.2175 35.2816 38.1764 35.2816 38.126V18.5236C35.2816 18.4738 35.3227 18.4328 35.3725 18.4328H38.1248C38.1753 18.4328 38.2162 18.4738 38.2162 18.5236V38.126Z" fill="url(#paint4_linear_370_703)"/>
<path d="M11.5833 23.4039C11.7925 23.5586 12.082 23.5604 12.2938 23.4039L20.2833 17.5371L28.2352 21.072C28.4808 21.1799 28.7699 21.113 28.9422 20.9055L36.1507 12.1781L36.1503 13.9912C36.1503 14.3224 36.4187 14.5914 36.7506 14.5914C37.0818 14.5914 37.3509 14.323 37.3509 13.9912L37.3515 10.5108C37.3515 10.19 37.0523 9.87318 36.6832 9.91476C36.6828 9.91476 36.6824 9.91461 36.682 9.91461L33.2198 10.3168C32.8904 10.3548 32.6547 10.6527 32.6928 10.9821C32.7309 11.3116 33.0282 11.5531 33.3582 11.5091L35.3353 11.2796L28.3068 19.79L20.4527 16.2984C20.2563 16.2116 20.0277 16.2351 19.8535 16.3634L11.9385 22.1757L4.0229 16.3635C3.75443 16.1671 3.37926 16.2252 3.18403 16.4919C2.98765 16.7592 3.04506 17.135 3.31237 17.3307L11.5833 23.4039Z" fill="url(#paint5_linear_370_703)"/>
<path d="M12.7081 15.4572C16.6979 15.4572 19.9437 12.2143 19.9437 8.2286C19.9437 4.24295 16.6979 1 12.7081 1C8.72244 1 5.47949 4.24295 5.47949 8.2286C5.47949 12.2143 8.72237 15.4572 12.7081 15.4572ZM12.7081 2.20051C16.036 2.20051 18.7431 4.9047 18.7431 8.22853C18.7431 11.5524 16.036 14.2565 12.7081 14.2565C9.38427 14.2565 6.68008 11.5524 6.68008 8.22853C6.68008 4.9047 9.38427 2.20051 12.7081 2.20051Z" fill="url(#paint6_linear_370_703)"/>
<path d="M15.74 8.51492H14.7845V7.23287H15.74C15.8836 7.23287 16 7.07055 16 6.87006C16 6.66956 15.8836 6.50714 15.74 6.50714H14.7845V4.72822C14.7845 4.46855 14.7477 4.27795 14.6753 4.16185C14.6064 4.0514 14.5159 4 14.3905 4C14.2708 4 14.1837 4.05104 14.1162 4.1608C14.0446 4.27702 14.0082 4.46798 14.0082 4.72834V6.50736H12.2108L11.4465 4.89287C11.3811 4.74878 11.3196 4.61381 11.2599 4.48426C11.2061 4.36759 11.1537 4.27259 11.1042 4.20166C11.0603 4.13887 11.0103 4.09027 10.9519 4.05291C10.8967 4.01776 10.8266 4.00012 10.7436 4.00012C10.6378 4.00012 10.5418 4.04058 10.4498 4.12372C10.3588 4.20596 10.2959 4.30763 10.2575 4.43456C10.2238 4.55519 10.2059 4.74004 10.2059 4.97864V6.50724H9.25986C9.11631 6.50726 9 6.66968 9 6.87016C9 7.07064 9.11631 7.23296 9.25988 7.23296H10.2059V8.51516H9.25988C9.11631 8.51516 9 8.67754 9 8.87808C9 9.0785 9.11631 9.24076 9.25988 9.24076H10.2059V11.2718C10.2059 11.5238 10.2439 11.7125 10.319 11.8324C10.3904 11.9467 10.481 11.9998 10.604 11.9998C10.7227 11.9998 10.8126 11.9465 10.8871 11.8319C10.9635 11.7146 11.0021 11.5261 11.0021 11.2719V9.24076H12.6285L13.5087 11.1249C13.5699 11.2495 13.6331 11.3752 13.6961 11.4985C13.753 11.6092 13.815 11.7067 13.8805 11.7882C13.9394 11.8618 14.0026 11.9158 14.0683 11.9488C14.1359 11.9828 14.2149 12 14.3026 12C14.5407 12 14.7845 11.8983 14.7845 11.1438V9.24076H15.74C15.8836 9.24076 16 9.07826 16 8.87784C16 8.67742 15.8836 8.51492 15.74 8.51492ZM14.0082 7.23285V8.5149H13.1613L12.5545 7.23285H14.0082ZM11.0021 5.75972L11.3513 6.50714H11.0021V5.75972ZM11.0021 8.51492V7.23287H11.6904L12.2894 8.51492H11.0021ZM14.0082 10.3044L13.5049 9.24076H14.0082V10.3044Z" fill="#FF8303"/>
<defs>
<linearGradient id="paint0_linear_370_703" x1="4.4359" y1="39.418" x2="9.63872" y2="20.852" gradientUnits="userSpaceOnUse">
<stop stop-color="#1D3FF0"/>
<stop offset="1" stop-color="#215CFF"/>
</linearGradient>
<linearGradient id="paint1_linear_370_703" x1="12.7058" y1="39.4181" x2="15.667" y2="25.1756" gradientUnits="userSpaceOnUse">
<stop stop-color="#1D3FF0"/>
<stop offset="1" stop-color="#215CFF"/>
</linearGradient>
<linearGradient id="paint2_linear_370_703" x1="20.9769" y1="39.418" x2="26.1797" y2="20.852" gradientUnits="userSpaceOnUse">
<stop stop-color="#1D3FF0"/>
<stop offset="1" stop-color="#215CFF"/>
</linearGradient>
<linearGradient id="paint3_linear_370_703" x1="29.2468" y1="39.418" x2="33.1353" y2="23.208" gradientUnits="userSpaceOnUse">
<stop stop-color="#1D3FF0"/>
<stop offset="1" stop-color="#215CFF"/>
</linearGradient>
<linearGradient id="paint4_linear_370_703" x1="37.517" y1="39.418" x2="45.3159" y2="17.1369" gradientUnits="userSpaceOnUse">
<stop stop-color="#1D3FF0"/>
<stop offset="1" stop-color="#215CFF"/>
</linearGradient>
<linearGradient id="paint5_linear_370_703" x1="25.1446" y1="23.5206" x2="25.6567" y2="8.19514" gradientUnits="userSpaceOnUse">
<stop stop-color="#1D3FF0"/>
<stop offset="1" stop-color="#215CFF"/>
</linearGradient>
<linearGradient id="paint6_linear_370_703" x1="14.7937" y1="15.4572" x2="16.1554" y2="-0.726421" gradientUnits="userSpaceOnUse">
<stop stop-color="#1D3FF0"/>
<stop offset="1" stop-color="#215CFF"/>
</linearGradient>
</defs>
</svg>
