<svg width="40" height="40" viewBox="0 0 40 40" fill="none" xmlns="http://www.w3.org/2000/svg">
<path d="M18.2435 17.7413C18.2435 17.8747 18.1905 18.0022 18.0964 18.0964L13.7442 22.4485C13.6461 22.5466 13.5176 22.5957 13.3891 22.5957C13.2606 22.5957 13.1322 22.5466 13.0341 22.4485C12.8379 22.2524 12.8379 21.9346 13.0341 21.7385L17.2391 17.5334V7.69783C17.2391 7.42056 17.464 7.19565 17.7413 7.19565C18.0186 7.19565 18.2435 7.42056 18.2435 7.69783V17.7413ZM32.9739 30.3872V35.8196C32.9739 37.5732 31.5471 39 29.7935 39C28.0398 39 26.613 37.5732 26.613 35.8196V32.5104C23.9383 34.1212 20.8944 34.9826 17.7413 34.9826C8.23435 34.9826 0.5 27.2479 0.5 17.7413C0.5 8.23468 8.23435 0.5 17.7413 0.5C25.7387 0.5 32.7603 6.11584 34.534 13.8813C37.2048 15.4947 39 18.4172 39 21.7587C39 25.7162 36.4854 29.0884 32.9739 30.3872ZM26.613 31.3365V30.3872C26.2785 30.2634 25.9526 30.1232 25.6375 29.9629C23.2787 31.491 20.5578 32.3043 17.7413 32.3043C9.71107 32.3043 3.17826 25.7715 3.17826 17.7413C3.17826 9.71107 9.71107 3.17826 17.7413 3.17826C23.8394 3.17826 29.2827 6.99505 31.392 12.7005C32.0603 12.8183 32.7058 13.0019 33.3164 13.2558C31.3435 6.39117 24.9749 1.50435 17.7413 1.50435C8.78815 1.50435 1.50435 8.78848 1.50435 17.7413C1.50435 26.6941 8.78815 33.9783 17.7413 33.9783C20.9146 33.9783 23.9741 33.0612 26.613 31.3365ZM18.2435 29.1239V31.2821C20.5118 31.1978 22.6977 30.5459 24.6443 29.3869C22.1979 27.7303 20.587 24.9292 20.587 21.7587C20.587 16.6821 24.7168 12.5522 29.7935 12.5522C29.9499 12.5522 30.1024 12.5678 30.2569 12.5756C29.6296 11.0564 28.7481 9.69159 27.6665 8.52621L26.1449 10.0478C26.0468 10.1459 25.9186 10.1949 25.7898 10.1949C25.661 10.1949 25.5328 10.1459 25.4347 10.0478C25.2386 9.85162 25.2386 9.53384 25.4347 9.33772L26.9569 7.81554C24.5043 5.53654 21.2401 4.18261 17.7413 4.18261C14.1836 4.18261 10.9515 5.57068 8.53036 7.82009L10.0475 9.33779C10.2437 9.53398 10.2437 9.85175 10.0475 10.0479C9.94944 10.146 9.82095 10.195 9.69246 10.195C9.56397 10.195 9.43548 10.146 9.33739 10.0479L7.82022 8.53016C5.67788 10.836 4.33192 13.8805 4.20799 17.2391H6.35863C6.6359 17.2391 6.8608 17.464 6.8608 17.7413C6.8608 18.0186 6.6359 18.2435 6.35863 18.2435H4.20799C4.33192 21.6021 5.67788 24.6466 7.82022 26.9524L9.33739 25.4347C9.53357 25.2386 9.85135 25.2386 10.0475 25.4347C10.2436 25.6309 10.2436 25.9487 10.0475 26.1448L8.5303 27.6625C10.8361 29.8048 13.8806 31.1506 17.2391 31.2746V29.1239C17.2391 28.8466 17.464 28.6217 17.7412 28.6217C18.0185 28.6217 18.2435 28.8466 18.2435 29.1239ZM31.9696 30.6946C31.2705 30.865 30.5443 30.9652 29.7935 30.9652C29.0427 30.9652 28.3165 30.865 27.6174 30.6946V35.8196C27.6174 37.0194 28.5936 37.9957 29.7935 37.9957C30.9933 37.9957 31.9696 37.0194 31.9696 35.8196V30.6946ZM37.9957 21.7587C37.9957 17.2358 34.3163 13.5565 29.7935 13.5565C25.2706 13.5565 21.5913 17.2358 21.5913 21.7587C21.5913 26.2815 25.2706 29.9609 29.7935 29.9609C34.3163 29.9609 37.9957 26.2815 37.9957 21.7587Z" fill="url(#paint0_linear_370_710)"/>
<path d="M28.8466 26C28.7084 26 28.5702 25.945 28.465 25.8355L25.1584 22.397C24.9472 22.1775 24.9472 21.8226 25.1584 21.6032C25.3694 21.3837 25.7105 21.3837 25.9217 21.6032L28.8466 24.6448L35.0784 18.1646C35.2894 17.9451 35.6306 17.9451 35.8417 18.1646C36.0528 18.3842 36.0528 18.7389 35.8417 18.9585L29.2284 25.8355C29.1231 25.945 28.9848 26 28.8466 26Z" fill="#FF8303"/>
<defs>
<linearGradient id="paint0_linear_370_710" x1="25.292" y1="39" x2="28.9199" y2="-4.09722" gradientUnits="userSpaceOnUse">
<stop stop-color="#1D3FF0"/>
<stop offset="1" stop-color="#215CFF"/>
</linearGradient>
</defs>
</svg>
