<svg width="74" height="74" viewBox="0 0 74 74" fill="none" xmlns="http://www.w3.org/2000/svg">
<path d="M23.9922 30.7852C25.457 31.2734 25.457 31.2734 26.0975 31.5682C26.2394 31.6333 26.3812 31.6985 26.5274 31.7655C26.6715 31.8325 26.8156 31.8995 26.9641 31.9685C27.1744 32.0648 27.1744 32.0648 27.389 32.163C28.2254 32.5489 29.0513 32.9522 29.8734 33.3675C31.0953 33.9838 32.3376 34.5506 33.5854 35.1121C33.9072 35.2574 34.2289 35.4028 34.5505 35.5482C34.748 35.6374 34.9455 35.7266 35.1431 35.8156C35.8133 36.1176 35.8133 36.1176 36.1328 36.2773C36.1328 40.9992 36.1328 45.721 36.1328 50.5859C35.5803 50.4754 35.2297 50.3809 34.7383 50.1507C34.6072 50.0898 34.476 50.0289 34.3409 49.9662C34.1279 49.8661 34.1279 49.8661 33.9106 49.7639C33.5994 49.6192 33.2882 49.4747 32.9768 49.3303C32.7271 49.2143 32.7271 49.2143 32.4722 49.096C31.9158 48.8389 31.3569 48.5873 30.7976 48.3367C30.6531 48.2719 30.6531 48.2719 30.5056 48.2058C30.4091 48.1626 30.3126 48.1193 30.2132 48.0747C28.5058 47.3095 26.8113 46.5308 25.1484 45.6719C24.7669 45.4811 24.3853 45.2903 23.9922 45.0938C23.9922 40.3719 23.9922 35.6501 23.9922 30.7852Z" fill="#FF8303"/>
<path d="M50.0094 30.7852C50.0262 32.6244 50.039 34.4637 50.0469 36.303C50.0506 37.157 50.0558 38.011 50.0639 38.865C50.0718 39.6887 50.0761 40.5124 50.078 41.3362C50.0793 41.6509 50.0819 41.9656 50.0858 42.2802C50.0911 42.7202 50.0918 43.1598 50.0915 43.5998C50.0941 43.7307 50.0967 43.8615 50.0993 43.9964C50.0966 44.3296 50.0885 44.6256 50.0094 44.9492C49.672 45.2355 49.672 45.2355 49.2868 45.3828C49.1337 45.4614 48.9806 45.5399 48.8229 45.6209C48.6463 45.7081 48.4695 45.7949 48.2926 45.8813C48.1953 45.929 48.0981 45.9767 47.9979 46.0259C47.6781 46.1824 47.3578 46.3382 47.0375 46.4939C46.9276 46.5474 46.8178 46.6009 46.7046 46.656C44.7207 47.6205 42.715 48.5305 40.695 49.4165C40.5366 49.486 40.5366 49.486 40.375 49.5569C40.1793 49.6427 39.9834 49.7282 39.7874 49.8134C39.3682 49.9965 38.9591 50.1867 38.5532 50.398C38.1579 50.5859 38.1579 50.5859 37.7243 50.5859C37.7109 48.7467 37.7006 46.9074 37.6943 45.0681C37.6913 44.2141 37.6872 43.3601 37.6807 42.5061C37.6744 41.6824 37.6709 40.8587 37.6694 40.0349C37.6684 39.7202 37.6663 39.4055 37.6631 39.0908C37.659 38.651 37.6584 38.2112 37.6586 37.7713C37.6566 37.6404 37.6545 37.5095 37.6523 37.3747C37.6582 36.4929 37.6582 36.4929 37.9927 36.1334C38.146 36.0616 38.146 36.0616 38.3024 35.9883C38.433 35.9212 38.5637 35.8541 38.6982 35.7849C38.8482 35.7158 38.9981 35.6468 39.1526 35.5756C39.3201 35.4981 39.4875 35.4206 39.6601 35.3408C39.8398 35.2585 40.0196 35.1763 40.1994 35.094C40.3837 35.009 40.568 34.924 40.7522 34.839C41.8527 34.332 42.9581 33.8368 44.0678 33.3505C44.7646 33.0427 45.4462 32.7112 46.1252 32.366C46.9201 31.962 47.7215 31.5795 48.537 31.2188C48.6348 31.175 48.7325 31.1312 48.8332 31.086C49.2508 30.9039 49.5486 30.7852 50.0094 30.7852ZM46.1523 43.251C45.9671 43.3368 45.9671 43.3368 45.7782 43.4243C44.9508 43.8187 44.9508 43.8187 44.3727 44.5156C44.4075 45.0027 44.4577 45.1787 44.8063 45.5273C45.6653 45.6618 46.3253 45.2734 47.0736 44.9041C47.1971 44.8456 47.3205 44.7872 47.4477 44.7271C48.2251 44.3636 48.2251 44.3636 48.8532 43.793C48.9151 43.3804 48.9119 43.165 48.6906 42.8083C47.8545 42.2788 46.9323 42.8702 46.1523 43.251Z" fill="#FF8303"/>
<path d="M31.872 27.2136C31.9766 27.2621 32.0812 27.3106 32.1889 27.3605C32.5314 27.5195 32.8732 27.6799 33.2151 27.8403C33.4535 27.9512 33.6921 28.062 33.9306 28.1727C34.298 28.3431 34.6654 28.5137 35.0327 28.6846C36.2691 29.26 37.5103 29.8246 38.7524 30.3876C38.9476 30.4762 39.1427 30.5648 39.3378 30.6533C39.6952 30.8156 40.0527 30.9778 40.4102 31.1399C41.1044 31.4549 41.7983 31.7703 42.4922 32.0859C42.3477 32.5195 42.3477 32.5195 41.8356 32.7792C41.6124 32.8747 41.3886 32.9687 41.1643 33.0615C40.9264 33.1631 40.6888 33.2651 40.4512 33.3675C40.3324 33.4187 40.2136 33.4699 40.0911 33.5226C39.4334 33.8145 38.7969 34.147 38.1585 34.4786C37.0244 35.0221 37.0244 35.0221 36.4465 34.8662C36.3074 34.7984 36.1683 34.7307 36.025 34.6609C35.8694 34.587 35.7139 34.513 35.5537 34.4369C35.39 34.3556 35.2264 34.2743 35.0579 34.1906C34.8878 34.109 34.7178 34.0274 34.5426 33.9433C34.2068 33.782 33.8715 33.6196 33.5368 33.456C33.0412 33.2146 32.542 32.9836 32.0408 32.7543C30.8736 32.209 29.7152 31.6452 28.5556 31.084C27.2322 30.4435 25.9064 29.8091 24.5703 29.1953C24.9263 28.7839 25.2945 28.6057 25.7909 28.3919C25.9467 28.3241 26.1024 28.2564 26.2629 28.1866C26.4257 28.1171 26.5886 28.0475 26.7563 27.9758C27.0759 27.8375 27.3955 27.6991 27.715 27.5608C27.9459 27.4625 27.9459 27.4625 28.1815 27.3622C28.4545 27.2429 28.7255 27.1188 28.9931 26.9877C29.1041 26.9335 29.2152 26.8793 29.3297 26.8235C29.4236 26.7754 29.5174 26.7273 29.6142 26.6778C30.4151 26.4561 31.1601 26.8764 31.872 27.2136Z" fill="#FF8303"/>
<path d="M51.5977 44.6602C52.1099 44.8545 52.5816 45.0811 53.0593 45.3489C53.2024 45.429 53.3454 45.509 53.4927 45.5915C53.6454 45.6776 53.798 45.7638 53.9553 45.8525C54.1927 45.9859 54.1927 45.9859 54.4349 46.1221C55.8555 46.9231 57.2652 47.7426 58.6718 48.5681C58.7977 48.6418 58.9235 48.7154 59.0532 48.7913C59.2735 48.9205 59.4933 49.0506 59.7125 49.1817C60.2012 49.486 60.2012 49.486 60.7573 49.5742C61.1244 49.4425 61.1244 49.4425 61.4094 49.2891C62.449 48.7684 63.446 48.6208 64.5733 48.9792C65.6058 49.4481 66.1891 50.084 66.7554 51.0466C67.081 52.1501 67.083 53.2902 66.5516 54.3285C66.0528 55.0454 65.4005 55.5963 64.6326 56.0059C63.1973 56.231 62.0427 56.1373 60.8206 55.3464C60.1102 54.6886 59.7257 53.8943 59.6468 52.9329C59.6463 52.4374 59.6594 51.9475 59.6914 51.4531C59.5699 51.4179 59.4485 51.3827 59.3233 51.3464C58.7654 51.1426 58.281 50.8664 57.7764 50.5588C57.5599 50.4292 57.3433 50.2997 57.1265 50.1704C57.0071 50.0991 56.8877 50.0277 56.7647 49.9542C55.9949 49.4983 55.2186 49.0537 54.4431 48.6077C53.2515 47.9219 52.0618 47.2331 50.875 46.5391C50.9227 46.3483 50.9704 46.1575 51.0195 45.9609C51.1149 45.9609 51.2103 45.9609 51.3086 45.9609C51.404 45.5317 51.4994 45.1024 51.5977 44.6602Z" fill="white"/>
<path d="M22.2591 44.8047C22.2949 44.9895 22.3307 45.1743 22.3675 45.3647C22.4788 45.8551 22.4788 45.8551 22.8553 46.1777C22.9448 46.2016 23.0342 46.2254 23.1263 46.25C23.1263 46.3454 23.1263 46.4408 23.1263 46.5391C22.8964 46.6717 22.6664 46.8044 22.4364 46.9371C22.2108 47.0672 22.2108 47.0672 21.9807 47.2C21.6453 47.3935 21.3099 47.587 20.9746 47.7805C20.1752 48.2416 19.3758 48.7028 18.5765 49.1641C18.3209 49.3116 18.0653 49.4591 17.8097 49.6066C17.4883 49.7921 17.1669 49.9776 16.8455 50.1631C16.5587 50.3286 16.2718 50.4939 15.9848 50.659C15.7526 50.793 15.521 50.928 15.2902 51.0645C14.6292 51.4531 14.6292 51.4531 14.3099 51.4531C14.3166 51.5858 14.3233 51.7184 14.3303 51.8551C14.37 53.2062 14.2722 54.0071 13.3885 55.0303C12.2193 56.0325 11.3408 56.1837 9.82946 56.0781C8.8503 55.8007 8.03552 55.1787 7.45994 54.3387C6.95676 53.359 6.9103 52.2953 7.1737 51.2335C7.57591 50.1795 8.34004 49.5699 9.28747 49.0051C10.3721 48.6978 11.3362 48.678 12.3407 49.2219C12.4491 49.2907 12.5576 49.3594 12.6693 49.4303C13.1452 49.6319 13.3803 49.5744 13.8763 49.4297C14.2893 49.2318 14.6774 48.9986 15.0687 48.7612C15.3116 48.6172 15.5546 48.4732 15.7976 48.3293C15.9288 48.2512 16.0601 48.173 16.1953 48.0924C16.9867 47.6244 17.7853 47.1686 18.5826 46.7107C18.8931 46.5323 19.2034 46.3537 19.5136 46.1749C19.6592 46.0911 19.8047 46.0074 19.9546 45.9211C20.4861 45.6099 21.0092 45.2861 21.5302 44.9579C21.8256 44.8047 21.8256 44.8047 22.2591 44.8047Z" fill="white"/>
<path d="M38.6425 4.47158C39.5534 4.99677 40.2428 5.78945 40.5305 6.81118C40.7151 8.08313 40.5851 9.2193 39.8055 10.2844C39.2273 10.8992 38.8466 11.0597 38.0102 11.4181C37.9625 14.7568 37.9148 18.0955 37.8657 21.5353C37.3649 21.4638 37.3649 21.4638 36.8539 21.3908C36.4247 21.4623 36.4247 21.4623 35.9868 21.5353C35.9391 18.1966 35.8914 14.858 35.8422 11.4181C35.4607 11.2273 35.0791 11.0366 34.686 10.84C33.8034 10.1105 33.354 9.21311 33.2006 8.08938C33.1516 7.10286 33.4445 6.16761 34.0446 5.38393C35.2646 4.10114 37.0162 3.76223 38.6425 4.47158Z" fill="white"/>
<path d="M35.9893 52.3203C36.1323 52.368 36.2754 52.4157 36.4229 52.4648C36.9553 52.4839 37.3609 52.4894 37.8682 52.3203C37.9159 55.7067 37.9636 59.093 38.0127 62.582C38.3943 62.7728 38.7758 62.9636 39.1689 63.1602C40.0527 63.8906 40.5032 64.7901 40.6543 65.9158C40.7096 67.0455 40.2494 67.9637 39.5658 68.8313C38.8837 69.5195 37.9363 69.8203 36.9829 69.8538C36.0301 69.8428 35.2323 69.47 34.4265 68.9866C33.6548 68.1707 33.2924 67.2685 33.207 66.1592C33.2874 64.9537 33.7024 64.1975 34.4965 63.2968C34.833 63.0156 34.833 63.0156 35.8447 62.582C35.8924 59.1957 35.9401 55.8093 35.9893 52.3203Z" fill="white"/>
<path d="M13.1599 19.1197C13.9332 19.6524 14.3814 20.1826 14.6882 21.0843C14.752 21.4602 14.6912 21.7736 14.6414 22.1509C14.6386 22.6956 14.6611 22.8996 15.0472 23.2934C15.5061 23.5962 15.9779 23.8574 16.4655 24.1094C16.6419 24.2063 16.8179 24.3037 16.9937 24.4017C17.3575 24.6033 17.723 24.8015 18.0903 24.9969C18.6283 25.2837 19.1603 25.5804 19.6909 25.8805C20.4374 26.3024 21.186 26.7203 21.9368 27.1344C22.1939 27.2809 22.4432 27.4411 22.6894 27.6053C22.6687 27.685 22.648 27.7648 22.6267 27.8469C22.5383 28.2105 22.4637 28.5752 22.3913 28.9422C22.3658 29.0711 22.3402 29.2001 22.3139 29.3329C22.2947 29.4305 22.2756 29.5281 22.2558 29.6287C21.3623 29.3934 20.621 28.9144 19.8349 28.4454C19.5263 28.2635 19.2177 28.0817 18.909 27.9C18.7482 27.805 18.5874 27.7101 18.4218 27.6122C17.6528 27.1583 16.8818 26.7078 16.1094 26.2597C15.8637 26.1168 15.6184 25.9731 15.3732 25.8293C15.1482 25.6987 15.1482 25.6987 14.9186 25.5655C14.7201 25.4497 14.7201 25.4497 14.5176 25.3316C14.1948 25.1652 13.9441 25.044 13.5839 25.0037C13.2938 25.1949 13.0049 25.3879 12.7167 25.5819C11.6546 25.9777 10.6289 25.9779 9.56639 25.5858C8.6314 25.1498 8.064 24.4681 7.64176 23.5353C7.31569 22.491 7.36052 21.4568 7.81169 20.46C8.34875 19.5307 9.06425 18.9016 10.0903 18.5676C11.2452 18.3183 12.1564 18.4937 13.1599 19.1197Z" fill="white"/>
<path d="M64.6055 19.0782C65.5474 19.7922 66.0019 20.628 66.1772 21.7972C66.253 22.8824 65.9867 23.7773 65.301 24.6246C64.584 25.3781 63.6771 25.8355 62.6362 25.9073C61.8239 25.8968 61.0235 25.6868 60.3779 25.1847C60.131 24.9657 60.131 24.9657 59.7914 25.0412C59.3785 25.1551 59.0724 25.3098 58.7051 25.529C58.5701 25.6088 58.435 25.6886 58.2959 25.7709C58.1513 25.8576 58.0067 25.9444 57.8577 26.0338C57.5478 26.217 57.2378 26.4001 56.9278 26.5831C56.6853 26.7269 56.6853 26.7269 56.4378 26.8737C55.6686 27.3293 54.8965 27.7801 54.123 28.2287C53.8773 28.3715 53.6322 28.5151 53.387 28.6588C53.1619 28.7895 53.1619 28.7895 52.9323 28.9227C52.8 28.9999 52.6677 29.0771 52.5313 29.1566C52.2143 29.3201 51.946 29.4179 51.5977 29.4845C51.5801 29.3973 51.5626 29.3101 51.5446 29.2202C51.5204 29.1047 51.4961 28.9892 51.4712 28.8702C51.4477 28.7562 51.4242 28.6422 51.4001 28.5247C51.3096 28.1875 51.1796 27.9144 51.0195 27.6056C54.1738 25.7341 54.1738 25.7341 55.7219 24.8578C56.1106 24.6347 56.4966 24.4085 56.8815 24.1792C56.9941 24.1122 57.1066 24.0453 57.2226 23.9763C57.4433 23.8447 57.6638 23.7127 57.8838 23.58C58.6478 23.1251 58.6478 23.1251 58.9688 23.1251C58.8972 22.982 58.8972 22.982 58.8242 22.836C58.7037 21.7186 58.992 20.9106 59.4836 19.9273C60.8315 18.3376 62.8291 18.0799 64.6055 19.0782Z" fill="white"/>
<path d="M38.6299 23.878C38.7282 23.9248 38.8264 23.9717 38.9276 24.0199C39.2462 24.172 39.5639 24.3259 39.8816 24.4799C40.215 24.6395 40.5486 24.7987 40.8822 24.9578C41.1048 25.0641 41.3273 25.1705 41.5497 25.277C42.4702 25.7178 43.3965 26.1449 44.3259 26.5665C45.9898 27.3239 47.6388 28.1115 49.2852 28.9061C49.2852 29.0015 49.2852 29.0969 49.2852 29.1952C48.7488 29.462 48.2116 29.7268 47.6735 29.99C47.4909 30.0797 47.3085 30.1698 47.1264 30.2605C46.8633 30.3913 46.5994 30.5203 46.3353 30.649C46.1771 30.7269 46.0189 30.8049 45.8559 30.8852C45.1918 31.1504 44.652 31.3035 43.9545 31.0929C43.748 30.9908 43.748 30.9908 43.5372 30.8867C43.3759 30.809 43.2147 30.7313 43.0485 30.6512C42.9626 30.6085 42.8768 30.5657 42.7883 30.5216C42.3151 30.2859 41.8379 30.0587 41.3613 29.8298C41.2581 29.7799 41.1549 29.73 41.0485 29.6786C39.5276 28.9458 37.9832 28.2637 36.4429 27.573C35.0241 26.9363 33.6122 26.2964 32.2305 25.5819C32.9711 24.9925 33.8207 24.6011 34.6604 24.1727C34.8285 24.0839 34.9967 23.995 35.1699 23.9034C35.3336 23.8202 35.4973 23.7369 35.6659 23.6511C35.8144 23.5744 35.9628 23.4976 36.1158 23.4186C37.0368 23.1137 37.7992 23.4703 38.6299 23.878Z" fill="#FF8303"/>
</svg>
