<svg width="64" height="72" viewBox="0 0 64 72" fill="none" xmlns="http://www.w3.org/2000/svg">
<path d="M18.1211 29.3145C19.6846 29.8356 19.6846 29.8356 20.3683 30.1503C20.5197 30.2198 20.6712 30.2893 20.8272 30.3609C20.981 30.4324 21.1348 30.5039 21.2933 30.5776C21.5178 30.6803 21.5178 30.6803 21.7468 30.7852C22.6396 31.197 23.5212 31.6275 24.3986 32.0709C25.7029 32.7287 27.0289 33.3337 28.3609 33.933C28.7043 34.088 29.0477 34.2433 29.391 34.3985C29.6018 34.4938 29.8126 34.5889 30.0235 34.6839C30.7389 35.0063 30.7389 35.0063 31.0799 35.1768C31.0799 40.2168 31.0799 45.2569 31.0799 50.4497C30.4902 50.3318 30.1159 50.2309 29.5914 49.9851C29.4514 49.9201 29.3114 49.8551 29.1672 49.7882C28.9399 49.6813 28.9399 49.6813 28.708 49.5723C28.3758 49.4178 28.0436 49.2636 27.7113 49.1095C27.4447 48.9857 27.4447 48.9857 27.1727 48.8594C26.5787 48.5849 25.9822 48.3164 25.3851 48.0488C25.2309 47.9797 25.2309 47.9797 25.0735 47.9092C24.9705 47.863 24.8675 47.8168 24.7614 47.7693C22.9389 46.9524 21.1302 46.1213 19.3553 45.2044C18.948 45.0008 18.5407 44.7972 18.1211 44.5874C18.1211 39.5473 18.1211 34.5072 18.1211 29.3145Z" fill="#FF8303"/>
<path d="M45.8891 29.3145C45.907 31.2777 45.9207 33.2409 45.9291 35.2042C45.9331 36.1157 45.9386 37.0273 45.9473 37.9388C45.9557 38.818 45.9603 39.6972 45.9623 40.5765C45.9637 40.9124 45.9665 41.2484 45.9707 41.5842C45.9762 42.0538 45.977 42.5231 45.9767 42.9927C45.9794 43.1324 45.9822 43.2721 45.9851 43.4161C45.9821 43.7717 45.9735 44.0876 45.8891 44.4331C45.5289 44.7386 45.5289 44.7386 45.1177 44.8959C44.9544 44.9798 44.791 45.0636 44.6226 45.15C44.4341 45.2431 44.2454 45.3357 44.0565 45.428C43.9527 45.4789 43.849 45.5298 43.7421 45.5823C43.4006 45.7494 43.0588 45.9157 42.7169 46.0819C42.5996 46.139 42.4823 46.1961 42.3615 46.2549C40.2439 47.2844 38.1031 48.2558 35.947 49.2015C35.7779 49.2757 35.7779 49.2757 35.6054 49.3513C35.3964 49.4429 35.1874 49.5341 34.9782 49.6251C34.5308 49.8205 34.0941 50.0235 33.6608 50.2491C33.2388 50.4497 33.2388 50.4497 32.776 50.4497C32.7617 48.4865 32.7507 46.5233 32.744 44.56C32.7408 43.6484 32.7364 42.7369 32.7294 41.8253C32.7228 40.9461 32.7191 40.0669 32.7174 39.1876C32.7163 38.8517 32.7141 38.5158 32.7108 38.1799C32.7063 37.7104 32.7057 37.241 32.7059 36.7714C32.7037 36.6317 32.7015 36.492 32.6992 36.3481C32.7055 35.4068 32.7055 35.4068 33.0625 35.0232C33.2261 34.9465 33.2261 34.9465 33.3931 34.8682C33.5325 34.7966 33.6719 34.725 33.8156 34.6512C33.9757 34.5774 34.1357 34.5037 34.3006 34.4277C34.4794 34.345 34.6581 34.2623 34.8422 34.1771C35.0341 34.0893 35.226 34.0015 35.4179 33.9137C35.6146 33.823 35.8113 33.7323 36.008 33.6415C37.1827 33.1004 38.3625 32.5718 39.5471 32.0527C40.2908 31.7242 41.0184 31.3703 41.743 31.0018C42.5915 30.5706 43.447 30.1623 44.3175 29.7773C44.4218 29.7305 44.5261 29.6838 44.6336 29.6356C45.0794 29.4413 45.3973 29.3145 45.8891 29.3145ZM41.772 42.6204C41.5743 42.712 41.5743 42.712 41.3727 42.8054C40.4895 43.2263 40.4895 43.2263 39.8725 43.9703C39.9096 44.4902 39.9632 44.6781 40.3353 45.0502C41.2522 45.1937 41.9567 44.7791 42.7555 44.3849C42.8872 44.3225 43.019 44.2602 43.1547 44.196C43.9845 43.808 43.9845 43.808 44.6549 43.1989C44.721 42.7585 44.7177 42.5286 44.4814 42.1479C43.5889 41.5827 42.6046 42.214 41.772 42.6204Z" fill="#FF8303"/>
<path d="M26.532 25.5022C26.6437 25.5539 26.7553 25.6057 26.8703 25.659C27.2359 25.8287 27.6008 25.9999 27.9657 26.1711C28.2202 26.2895 28.4748 26.4077 28.7294 26.5259C29.1216 26.7078 29.5138 26.8899 29.9057 27.0723C31.2255 27.6864 32.5504 28.2891 33.8762 28.8901C34.0845 28.9846 34.2927 29.0792 34.501 29.1737C34.8825 29.3469 35.2641 29.52 35.6457 29.6931C36.3866 30.0293 37.1273 30.366 37.868 30.7028C37.7137 31.1656 37.7137 31.1656 37.1671 31.4428C36.9289 31.5448 36.69 31.6451 36.4506 31.7442C36.1967 31.8526 35.943 31.9615 35.6895 32.0708C35.5626 32.1254 35.4358 32.1801 35.3051 32.2363C34.603 32.548 33.9237 32.9028 33.2422 33.2567C32.0317 33.8369 32.0317 33.8369 31.4148 33.6705C31.2664 33.5982 31.1179 33.5259 30.9649 33.4514C30.7989 33.3725 30.6329 33.2935 30.4618 33.2122C30.2872 33.1255 30.1126 33.0388 29.9326 32.9494C29.7511 32.8623 29.5696 32.7751 29.3826 32.6854C29.0242 32.5132 28.6663 32.3399 28.309 32.1653C27.7801 31.9076 27.2473 31.661 26.7122 31.4163C25.4663 30.8343 24.2299 30.2324 22.9922 29.6334C21.5795 28.9498 20.1644 28.2726 18.7383 27.6174C19.1182 27.1783 19.5113 26.9881 20.0412 26.7598C20.2074 26.6876 20.3737 26.6153 20.5449 26.5408C20.7188 26.4665 20.8926 26.3922 21.0716 26.3157C21.4127 26.1681 21.7538 26.0204 22.0949 25.8728C22.3414 25.7678 22.3414 25.7678 22.5928 25.6607C22.8842 25.5334 23.1735 25.4009 23.4591 25.261C23.5777 25.2032 23.6962 25.1454 23.8184 25.0858C23.9186 25.0344 24.0188 24.9831 24.1221 24.9302C24.9769 24.6936 25.7722 25.1423 26.532 25.5022Z" fill="#FF8303"/>
<path d="M47.5878 44.125C48.1346 44.3324 48.638 44.5743 49.148 44.8602C49.3006 44.9456 49.4533 45.0311 49.6105 45.1191C49.7735 45.2111 49.9364 45.303 50.1043 45.3977C50.3577 45.5401 50.3577 45.5401 50.6162 45.6854C52.1326 46.5405 53.6373 47.4152 55.1386 48.2964C55.273 48.375 55.4074 48.4536 55.5458 48.5346C55.7809 48.6725 56.0156 48.8113 56.2495 48.9513C56.7711 49.2761 56.7711 49.2761 57.3647 49.3702C57.7565 49.2296 57.7565 49.2296 58.0608 49.0659C59.1705 48.5101 60.2346 48.3526 61.4379 48.7351C62.54 49.2356 63.1626 49.9144 63.767 50.9419C64.1146 52.1197 64.1167 53.3366 63.5495 54.4449C63.0171 55.2102 62.3208 55.7982 61.5012 56.2353C59.9692 56.4757 58.7368 56.3756 57.4322 55.5315C56.674 54.8293 56.2636 53.9815 56.1794 52.9553C56.1788 52.4264 56.1928 51.9034 56.227 51.3758C56.0973 51.3382 55.9677 51.3006 55.8341 51.2619C55.2385 51.0443 54.7216 50.7495 54.1829 50.4212C53.9518 50.2828 53.7206 50.1446 53.4893 50.0066C53.3618 49.9304 53.2344 49.8543 53.1031 49.7758C52.2814 49.2892 51.4527 48.8147 50.625 48.3385C49.3531 47.6065 48.0832 46.8713 46.8164 46.1305C46.8673 45.9269 46.9182 45.7233 46.9707 45.5134C47.0725 45.5134 47.1743 45.5134 47.2792 45.5134C47.381 45.0553 47.4829 44.5971 47.5878 44.125Z" fill="#215CFF"/>
<path d="M16.2709 44.2793C16.309 44.4766 16.3472 44.6738 16.3866 44.8771C16.5053 45.4005 16.5053 45.4005 16.9072 45.7449C17.0027 45.7703 17.0981 45.7958 17.1965 45.822C17.1965 45.9238 17.1965 46.0257 17.1965 46.1306C16.951 46.2722 16.7055 46.4138 16.4601 46.5554C16.2193 46.6943 16.2193 46.6943 15.9736 46.836C15.6157 47.0426 15.2577 47.2491 14.8997 47.4556C14.0465 47.9479 13.1932 48.4401 12.3401 48.9325C12.0672 49.09 11.7944 49.2474 11.5215 49.4049C11.1784 49.6028 10.8354 49.8008 10.4924 49.9988C10.1862 50.1755 9.88002 50.3519 9.57366 50.5281C9.32585 50.6712 9.0786 50.8153 8.83228 50.961C8.12672 51.3758 8.12672 51.3758 7.7859 51.3758C7.79306 51.5174 7.80022 51.659 7.80759 51.8049C7.85001 53.247 7.74565 54.1019 6.80242 55.194C5.55441 56.2638 4.61663 56.4251 3.00347 56.3125C1.95832 56.0164 1.08863 55.3524 0.47426 54.4558C-0.0628273 53.4101 -0.112419 52.2748 0.168729 51.1414C0.598049 50.0163 1.41368 49.3657 2.42495 48.7628C3.58271 48.4348 4.61175 48.4137 5.68395 48.9942C5.79969 49.0676 5.91543 49.141 6.03467 49.2166C6.54272 49.4318 6.79359 49.3705 7.32308 49.216C7.76385 49.0047 8.17817 48.7559 8.59583 48.5025C8.85509 48.3487 9.11442 48.195 9.37382 48.0415C9.51389 47.958 9.65397 47.8746 9.79829 47.7886C10.6431 47.2891 11.4955 46.8026 12.3466 46.3138C12.6779 46.1233 13.0091 45.9327 13.3403 45.7419C13.4956 45.6525 13.651 45.563 13.811 45.4709C14.3783 45.1388 14.9367 44.7931 15.4928 44.4428C15.808 44.2793 15.808 44.2793 16.2709 44.2793Z" fill="#215CFF"/>
<path d="M33.7596 1.22757C34.7319 1.78815 35.4677 2.63426 35.7748 3.72484C35.9719 5.08251 35.8331 6.29525 35.001 7.43219C34.3838 8.08833 33.9775 8.25964 33.0847 8.64226C33.0338 12.2059 32.9829 15.7696 32.9304 19.4413C32.3959 19.3649 32.3959 19.3649 31.8505 19.287C31.3923 19.3634 31.3923 19.3634 30.9249 19.4413C30.874 15.8776 30.8231 12.3139 30.7706 8.64226C30.3633 8.43862 29.9561 8.23498 29.5364 8.02517C28.5943 7.24648 28.1147 6.28865 27.9509 5.08918C27.8987 4.03618 28.2113 3.0379 28.8519 2.20141C30.1541 0.832157 32.0237 0.470413 33.7596 1.22757Z" fill="#215CFF"/>
<path d="M30.9268 52.3008C31.0795 52.3517 31.2322 52.4026 31.3896 52.4551C31.9579 52.4753 32.3909 52.4813 32.9323 52.3008C32.9832 55.9154 33.0341 59.53 33.0866 63.2541C33.4938 63.4577 33.9011 63.6614 34.3207 63.8712C35.2641 64.6509 35.745 65.611 35.9062 66.8126C35.9652 68.0183 35.474 68.9984 34.7444 69.9245C34.0163 70.6591 33.005 70.9802 31.9874 71.0159C30.9704 71.0041 30.1188 70.6063 29.2587 70.0903C28.435 69.2194 28.0481 68.2564 27.957 67.0723C28.0428 65.7856 28.4858 64.9784 29.3334 64.017C29.6926 63.7169 29.6926 63.7169 30.7725 63.2541C30.8234 59.6395 30.8743 56.0249 30.9268 52.3008Z" fill="#215CFF"/>
<path d="M6.56172 16.863C7.38717 17.4316 7.86548 17.9975 8.19299 18.96C8.26111 19.3612 8.19617 19.6958 8.14301 20.0985C8.14002 20.6799 8.16406 20.8977 8.57622 21.318C9.06602 21.6412 9.56961 21.9199 10.0901 22.189C10.2783 22.2924 10.4663 22.3964 10.6538 22.5009C11.0422 22.7162 11.4324 22.9277 11.8244 23.1363C12.3986 23.4424 12.9665 23.7591 13.5329 24.0794C14.3297 24.5298 15.1287 24.9758 15.9301 25.4178C16.2045 25.5742 16.4706 25.7453 16.7334 25.9205C16.7113 26.0056 16.6893 26.0907 16.6665 26.1784C16.5721 26.5664 16.4926 26.9557 16.4152 27.3475C16.388 27.4851 16.3607 27.6227 16.3327 27.7645C16.3122 27.8687 16.2917 27.9729 16.2706 28.0803C15.3169 27.829 14.5257 27.3178 13.6866 26.8172C13.3572 26.623 13.0277 26.429 12.6982 26.235C12.5266 26.1337 12.355 26.0323 12.1782 25.9278C11.3574 25.4434 10.5344 24.9625 9.71004 24.4842C9.44772 24.3317 9.18594 24.1782 8.92416 24.0248C8.68396 23.8854 8.68396 23.8854 8.4389 23.7432C8.22703 23.6196 8.22703 23.6196 8.01088 23.4935C7.66636 23.3159 7.3988 23.1866 7.01429 23.1436C6.70467 23.3476 6.39629 23.5536 6.08866 23.7607C4.95497 24.1832 3.86012 24.1834 2.72602 23.7649C1.72801 23.2995 1.12237 22.5719 0.671674 21.5761C0.323636 20.4615 0.371489 19.3576 0.853063 18.2937C1.42631 17.3017 2.19003 16.6302 3.28526 16.2737C4.51793 16.0076 5.49058 16.1948 6.56172 16.863Z" fill="#215CFF"/>
<path d="M61.4703 16.8187C62.4757 17.5808 62.9608 18.4729 63.148 19.7209C63.2289 20.8792 62.9447 21.8344 62.2127 22.7389C61.4474 23.5432 60.4794 24.0314 59.3683 24.108C58.5013 24.0968 57.6469 23.8726 56.9579 23.3367C56.6942 23.103 56.6942 23.103 56.3318 23.1835C55.8911 23.3051 55.5644 23.4702 55.1723 23.7043C55.0281 23.7894 54.884 23.8746 54.7355 23.9624C54.5812 24.055 54.4268 24.1476 54.2677 24.243C53.9369 24.4386 53.6061 24.634 53.2752 24.8294C53.0163 24.9829 53.0163 24.9829 52.7522 25.1395C51.9311 25.6259 51.107 26.107 50.2814 26.5858C50.0192 26.7382 49.7574 26.8916 49.4957 27.045C49.2555 27.1844 49.2555 27.1844 49.0104 27.3266C48.8692 27.409 48.728 27.4914 48.5824 27.5763C48.2441 27.7508 47.9577 27.8552 47.5858 27.9263C47.5671 27.8332 47.5485 27.7401 47.5292 27.6442C47.5033 27.5209 47.4775 27.3976 47.4508 27.2706C47.4258 27.1489 47.4007 27.0272 47.3749 26.9018C47.2784 26.5419 47.1396 26.2503 46.9688 25.9207C50.3356 23.9231 50.3356 23.9231 51.988 22.9878C52.4029 22.7497 52.8149 22.5082 53.2258 22.2634C53.346 22.1919 53.4661 22.1205 53.5899 22.0469C53.8255 21.9065 54.0608 21.7655 54.2956 21.6239C55.1111 21.1383 55.1111 21.1383 55.4537 21.1383C55.3773 20.9856 55.3773 20.9856 55.2994 20.8298C55.1708 19.6371 55.4785 18.7746 56.0033 17.725C57.442 16.0281 59.5742 15.7531 61.4703 16.8187Z" fill="#215CFF"/>
<path d="M33.7448 21.9416C33.8497 21.9916 33.9545 22.0415 34.0625 22.093C34.4026 22.2554 34.7417 22.4197 35.0808 22.584C35.4367 22.7544 35.7928 22.9243 36.1488 23.0942C36.3864 23.2076 36.6239 23.3211 36.8614 23.4349C37.8439 23.9053 38.8326 24.3612 39.8247 24.8113C41.6007 25.6197 43.3608 26.4604 45.1181 27.3086C45.1181 27.4104 45.1181 27.5122 45.1181 27.6171C44.5456 27.9019 43.9722 28.1846 43.3978 28.4655C43.2029 28.5612 43.0083 28.6574 42.8139 28.7542C42.5331 28.8938 42.2514 29.0315 41.9694 29.1689C41.8006 29.2521 41.6317 29.3353 41.4578 29.421C40.7489 29.7041 40.1728 29.8675 39.4283 29.6427C39.2078 29.5337 39.2078 29.5337 38.9828 29.4226C38.8107 29.3397 38.6385 29.2567 38.4612 29.1713C38.3695 29.1256 38.2779 29.08 38.1835 29.0329C37.6784 28.7813 37.1689 28.5388 36.6603 28.2945C36.5501 28.2412 36.4399 28.1879 36.3264 28.1331C34.703 27.351 33.0545 26.6228 31.4104 25.8856C29.896 25.206 28.3889 24.523 26.9141 23.7603C27.7046 23.1311 28.6114 22.7134 29.5078 22.2562C29.6872 22.1613 29.8667 22.0665 30.0516 21.9687C30.2263 21.8798 30.401 21.7909 30.581 21.6994C30.7395 21.6175 30.8979 21.5356 31.0612 21.4512C32.0443 21.1258 32.8581 21.5064 33.7448 21.9416Z" fill="#FF8303"/>
</svg>
