<svg width="51" height="51" viewBox="0 0 51 51" fill="none" xmlns="http://www.w3.org/2000/svg">
<g clip-path="url(#clip0_116_5918)">
<path d="M12.5993 0.198715C12.9577 0.383096 13.3022 0.587366 13.6466 0.796566C13.744 0.854861 13.8414 0.913156 13.9418 0.973217C14.4633 1.28564 14.983 1.6008 15.5009 1.91907C16.4286 2.48901 17.3667 3.04028 18.3075 3.58833C18.9574 3.96723 19.6046 4.35005 20.2492 4.73784C20.69 5.00295 21.1317 5.26647 21.5741 5.52879C21.6369 5.56603 21.6997 5.60326 21.7644 5.64163C21.8932 5.718 22.022 5.79436 22.1509 5.87072C23.1963 6.49038 24.2407 7.11185 25.2822 7.73809C26.399 8.40947 27.5197 9.07425 28.6411 9.73788C29.3102 10.1338 29.9788 10.5305 30.6473 10.9274C30.7822 11.0074 30.9171 11.0875 31.052 11.1675C31.81 11.6172 32.5668 12.0686 33.3221 12.5227C33.7234 12.7638 34.1262 13.0022 34.5299 13.2392C34.6338 13.3006 34.7378 13.3619 34.8449 13.4252C35.0546 13.549 35.2648 13.6722 35.4752 13.7948C37.0865 14.7505 37.0865 14.7505 37.447 15.5574C37.4849 15.639 37.5227 15.7205 37.5618 15.8045C37.8993 16.6694 37.8169 17.5109 37.4754 18.3617C37.2911 18.7627 37.0807 19.144 36.8555 19.5231C36.9837 19.5494 37.1119 19.5757 37.2439 19.6028C37.746 19.7147 38.225 19.8705 38.71 20.0406C38.7993 20.0716 38.8886 20.1026 38.9806 20.1345C39.1691 20.2001 39.3574 20.2659 39.5457 20.332C39.8269 20.4305 40.1085 20.5278 40.3901 20.6251C41.299 20.9411 42.199 21.2722 43.087 21.6433C43.1644 21.6755 43.2418 21.7077 43.3216 21.7409C44.6643 22.3135 45.3814 23.2964 46.0321 24.5721C46.062 24.6304 46.0919 24.6888 46.1227 24.7489C46.7141 25.9586 47.1063 27.2153 47.3768 28.5316C47.3928 28.6077 47.4088 28.6838 47.4253 28.7622C48.5502 34.1141 49.4244 39.5209 50.3437 44.9107C50.3678 45.0522 50.3678 45.0522 50.3924 45.1966C50.4817 45.7201 50.5706 46.2436 50.6592 46.7672C50.702 47.0195 50.7451 47.2716 50.7883 47.5238C50.8157 47.6848 50.843 47.8458 50.8703 48.0068C50.8828 48.0793 50.8953 48.1518 50.9082 48.2266C51.1347 49.5689 51.1347 49.5689 50.8507 50.0659C50.4966 50.2606 50.1997 50.2808 49.8048 50.2028C49.4113 49.9543 49.3579 49.6613 49.2541 49.2233C49.1832 48.8978 49.1268 48.571 49.0726 48.2423C49.0545 48.1333 49.0545 48.1333 49.036 48.0221C49.0098 47.8642 48.9838 47.7062 48.9578 47.5483C48.9157 47.2913 48.873 47.0345 48.8303 46.7776C48.7683 46.4048 48.7064 46.032 48.6446 45.6591C48.094 42.3415 47.5236 39.0278 46.9227 35.7189C46.8734 35.4469 46.8243 35.175 46.7753 34.903C46.4526 33.115 46.1189 31.3296 45.7506 29.5504C45.7171 29.3883 45.6838 29.2262 45.6508 29.064C45.4029 27.8517 45.0765 26.7117 44.5255 25.5993C44.4471 25.4342 44.4471 25.4342 44.3671 25.2658C43.4527 23.4638 41.9394 23.0841 40.1364 22.4678C39.8559 22.3712 39.5755 22.2744 39.2951 22.1776C39.1117 22.1143 38.9283 22.0513 38.7448 21.9884C38.3124 21.8402 37.881 21.6901 37.4513 21.5343C37.3737 21.5063 37.296 21.4783 37.216 21.4494C37.0717 21.3972 36.9277 21.3444 36.7838 21.291C36.4502 21.1705 36.22 21.1169 35.8595 21.1169C35.6519 21.3677 35.6519 21.3677 35.4797 21.6896C35.4174 21.7959 35.3551 21.9023 35.291 22.0118C35.148 22.2887 35.148 22.2887 35.1657 22.5145C35.3058 22.8005 35.4882 23.033 35.6851 23.2834C35.7291 23.3395 35.773 23.3957 35.8183 23.4535C36.2227 23.9677 36.6376 24.4733 37.052 24.9794C37.4429 25.4587 37.8209 25.9465 38.194 26.4398C38.6949 27.1017 39.2153 27.7443 39.7462 28.3823C40.2314 28.9672 40.6913 29.567 41.1388 30.1813C40.8548 30.4692 40.5701 30.7487 40.2609 31.0093C40.2007 31.0603 40.1405 31.1113 40.0785 31.1638C40.0339 31.2012 39.9893 31.2385 39.9434 31.277C39.5185 31.1232 39.3026 30.8036 39.0407 30.4553C38.9428 30.3279 38.8449 30.2005 38.747 30.0732C38.6973 30.0081 38.6477 29.943 38.5966 29.876C38.3715 29.5815 38.1429 29.2899 37.9139 28.9985C37.8691 28.9413 37.8244 28.8842 37.7782 28.8253C37.4303 28.3827 37.0751 27.9463 36.7186 27.5106C36.2737 26.9666 35.8414 26.4149 35.4174 25.8545C34.9176 25.1942 34.3989 24.5524 33.8695 23.9155C33.4422 23.4005 33.0327 22.8752 32.6276 22.3425C32.2838 21.8941 31.9245 21.4581 31.5667 21.0208C31.1531 20.5146 30.7478 20.0024 30.35 19.4837C29.8492 18.8376 29.1228 17.9226 28.2596 17.7963C27.6512 17.7866 27.1917 17.8615 26.6954 18.2282C26.2331 18.6804 25.983 19.0125 25.9627 19.6683C25.9696 20.336 26.1573 20.8011 26.465 21.3846C26.514 21.482 26.563 21.5794 26.6135 21.6797C26.7712 21.9914 26.9324 22.3012 27.0938 22.611C27.2003 22.8193 27.3067 23.0275 27.4129 23.2359C28.0151 24.4107 28.6407 25.5724 29.2759 26.7296C29.6124 27.343 29.9439 27.9589 30.2751 28.5751C30.7263 29.4142 31.1784 30.2527 31.6323 31.0903C31.7113 31.2361 31.7113 31.2361 31.7919 31.385C32.0653 31.8897 32.3394 32.3941 32.6144 32.898C33.5883 34.6845 33.5883 34.6845 34.0354 35.554C34.0953 35.67 34.1553 35.7859 34.2171 35.9054C34.5282 36.6445 34.5922 37.349 34.577 38.1442C34.5759 38.2826 34.5759 38.2826 34.5747 38.4237C34.5715 38.8136 34.5659 39.2034 34.5604 39.5933C34.5404 41.1615 34.5775 42.6653 35.0252 44.1827C35.0508 44.2705 35.0765 44.3584 35.1029 44.4489C35.4641 45.6257 36.0327 46.6911 36.8555 47.613C36.9183 47.685 36.9811 47.757 37.0458 47.8313C37.55 48.3731 38.1097 48.7724 38.7341 49.1619C39.0703 49.374 39.3452 49.5549 39.545 49.904C39.5997 50.2714 39.5683 50.4551 39.4018 50.788C39.0867 51.0493 38.9134 51.0909 38.51 51.0658C37.9477 50.9227 37.505 50.5548 37.0548 50.2028C37.0002 50.1607 36.9457 50.1186 36.8895 50.0752C34.8315 48.4676 33.3859 46.0978 33.038 43.4845C33.0136 43.2671 32.991 43.0496 32.9708 42.8317C32.8945 42.8328 32.8183 42.8338 32.7397 42.8349C32.3892 42.8391 32.0388 42.8416 31.6883 42.8442C31.5684 42.8458 31.4485 42.8475 31.3249 42.8492C29.2799 42.8603 28.3488 42.095 26.9382 40.7026C26.4712 40.2357 26.0407 39.7522 25.6312 39.2333C25.4596 39.0204 25.2859 38.8149 25.1044 38.6108C24.1726 37.5608 23.3637 36.5934 23.3877 35.1237C23.4547 34.2763 23.8246 33.766 24.4044 33.1696C23.7437 32.7127 23.0604 32.3026 22.3654 31.9001C21.3112 31.2893 20.2644 30.6672 19.2247 30.0319C18.1429 29.3712 17.0533 28.7247 15.958 28.0866C15.3082 27.7078 14.6611 27.325 14.0166 26.9373C13.5758 26.6722 13.1341 26.4087 12.6917 26.1464C12.6289 26.1091 12.5661 26.0719 12.5014 26.0335C12.3726 25.9572 12.2438 25.8808 12.1149 25.8044C11.0694 25.1848 10.0251 24.5633 8.9836 23.9371C8.1469 23.4341 7.30849 22.9341 6.46847 22.4367C6.35923 22.372 6.24999 22.3072 6.13744 22.2405C5.57632 21.9082 5.0149 21.5764 4.45291 21.2455C4.1655 21.0762 3.87829 20.9065 3.59111 20.7368C3.45289 20.6553 3.31459 20.5739 3.1762 20.4926C0.432429 18.8814 0.432429 18.8814 0.0487195 17.6737C-0.136607 16.7501 -0.0933257 16.0075 0.347159 15.1855C0.382711 15.1169 0.418263 15.0483 0.454892 14.9777C0.839653 14.2447 1.26011 13.5333 1.68722 12.8244C1.7701 12.6858 1.85295 12.5472 1.93575 12.4086C2.50742 11.4529 3.08641 10.5017 3.66661 9.55124C4.23026 8.62734 4.77456 7.69338 5.31184 6.75394C5.84961 5.8169 6.40815 4.89344 6.97167 3.97176C7.4092 3.25586 7.84133 2.53739 8.25475 1.80723C8.60348 1.20166 8.95719 0.717492 9.57503 0.367C9.65952 0.318079 9.74401 0.269158 9.83106 0.218754C10.6259 -0.194856 11.7885 -0.168245 12.5993 0.198715ZM9.73067 2.73272C9.66924 2.83418 9.66924 2.83418 9.60657 2.93768C9.45729 3.18584 9.31056 3.43538 9.16414 3.68524C9.1036 3.7883 9.04306 3.89136 8.98068 3.99754C8.70038 4.47513 8.42044 4.95293 8.14147 5.4313C7.64458 6.28257 7.13796 7.12731 6.62411 7.96844C6.01343 8.96828 5.41588 9.97498 4.82591 10.9872C4.21834 12.029 3.59702 13.0619 2.96794 14.0909C2.77479 14.4071 2.58261 14.7238 2.39071 15.0407C2.32425 15.1493 2.25779 15.2579 2.18932 15.3697C2.12597 15.4751 2.06261 15.5804 1.99733 15.6889C1.94049 15.7827 1.88364 15.8764 1.82508 15.973C1.63108 16.3606 1.57407 16.7143 1.69344 17.1325C1.96046 17.6799 2.17539 17.9361 2.71599 18.2453C2.80825 18.2991 2.80825 18.2991 2.90236 18.354C3.10446 18.4714 3.30785 18.5863 3.51131 18.7014C3.65436 18.7839 3.79729 18.8667 3.94012 18.9497C4.23731 19.1221 4.53495 19.2937 4.83294 19.4648C5.46467 19.8282 6.09064 20.2013 6.71669 20.5744C6.91729 20.6939 7.11803 20.8131 7.31882 20.9323C8.22976 21.4729 9.13848 22.0172 10.0464 22.563C11.0638 23.1741 12.0852 23.7787 13.1066 24.3832C13.8223 24.8067 14.5376 25.2309 15.2528 25.6553C15.3205 25.6955 15.3881 25.7357 15.4579 25.7771C16.333 26.2966 17.2069 26.8181 18.0792 27.3425C19.3444 28.103 20.6138 28.8565 21.8836 29.6094C22.3925 29.9112 22.901 30.2137 23.4095 30.5163C23.6287 30.6468 23.848 30.7773 24.0672 30.9077C24.208 30.9914 24.3486 31.0752 24.4893 31.1591C24.6845 31.2754 24.8798 31.3916 25.0752 31.5078C25.1863 31.574 25.2975 31.6402 25.412 31.7084C25.9084 31.9958 26.3065 32.1921 26.8946 32.0739C27.5948 31.7821 27.8696 31.3233 28.2393 30.6794C28.3214 30.5446 28.3214 30.5446 28.4051 30.407C28.6931 29.9765 28.6931 29.9765 28.7673 29.4869C28.6706 29.2419 28.5586 29.0118 28.4366 28.7782C28.3847 28.6785 28.3328 28.5788 28.2793 28.476C28.1948 28.3155 28.1948 28.3155 28.1086 28.1518C28.0502 28.0402 27.9919 27.9286 27.9317 27.8136C27.564 27.113 27.1886 26.4171 26.8075 25.7238C26.3641 24.9154 25.9276 24.1035 25.5001 23.2866C25.4349 23.1622 25.3693 23.0379 25.3034 22.9138C24.5469 21.4874 23.9551 20.0622 24.4106 18.4337C24.8406 17.3934 25.6346 16.8128 26.6172 16.3259C27.4242 16.0028 28.4048 15.996 29.2168 16.2983C30.5422 16.9176 31.3521 17.8998 32.2262 19.0344C32.4723 19.3525 32.7217 19.668 32.9708 19.9838C33.4494 20.5912 33.4494 20.5912 33.6369 20.8577C33.6801 20.9104 33.7232 20.963 33.7677 21.0173C33.8334 21.0173 33.8991 21.0173 33.9669 21.0173C34.1021 20.8185 34.2235 20.6216 34.3427 20.4134C34.3973 20.32 34.3973 20.32 34.4529 20.2248C34.5301 20.0924 34.607 19.9597 34.6835 19.8269C34.7993 19.626 34.916 19.4257 35.033 19.2255C35.8439 18.008 35.8439 18.008 36.0587 16.6345C35.7275 16.0089 35.2363 15.6686 34.6373 15.3174C34.534 15.2565 34.4307 15.1956 34.3242 15.1329C34.2125 15.0676 34.1007 15.0022 33.9856 14.9349C33.8667 14.865 33.7478 14.795 33.629 14.725C33.3756 14.5757 33.1222 14.4267 32.8687 14.2777C32.2001 13.8845 31.5334 13.4882 30.8665 13.0921C30.7992 13.0521 30.7319 13.0122 30.6625 12.971C29.6752 12.3849 28.6899 11.7956 27.7059 11.2041C26.9701 10.7621 26.2324 10.3232 25.4939 9.88592C25.3833 9.82047 25.2728 9.75502 25.1589 9.68758C24.7445 9.44223 24.33 9.19693 23.9155 8.9517C23.4495 8.67603 22.9837 8.40017 22.518 8.12408C22.451 8.08436 22.384 8.04465 22.315 8.00373C21.3099 7.40768 20.3103 6.80322 19.313 6.19427C18.3897 5.63098 17.4564 5.08682 16.5174 4.55013C15.5699 4.00669 14.6366 3.44144 13.7063 2.8693C12.4308 1.98914 12.4308 1.98914 10.9738 1.63313C10.3653 1.802 10.0361 2.21022 9.73067 2.73272ZM29.6837 31.3766C29.6259 31.4715 29.5681 31.5664 29.5086 31.6642C29.43 31.7904 29.3514 31.9166 29.2728 32.0428C29.2162 32.1363 29.2162 32.1363 29.1584 32.2317C28.8853 32.6664 28.5989 32.9589 28.1895 33.2692C28.3356 33.834 28.6232 34.2374 28.9615 34.7011C29.0126 34.7725 29.0637 34.8439 29.1164 34.9174C29.2196 35.0611 29.3236 35.2042 29.4285 35.3466C29.5324 35.4893 29.6339 35.6338 29.733 35.7799C30.0522 36.2382 30.3071 36.4788 30.8416 36.6871C30.9623 36.7342 31.083 36.7813 31.2074 36.8299C31.7222 37.0042 32.2397 37.1425 32.7716 37.2536C32.7165 36.8139 32.6077 36.4818 32.4027 36.0898C32.3467 35.982 32.2907 35.8742 32.233 35.7632C32.1724 35.6489 32.1118 35.5347 32.0494 35.417C31.9868 35.2979 31.9243 35.1788 31.8617 35.0597C31.4391 34.2577 31.0049 33.4622 30.5615 32.6716C30.5077 32.5753 30.4539 32.4791 30.3985 32.38C30.3482 32.2913 30.2978 32.2026 30.2459 32.1113C30.2021 32.034 30.1583 31.9567 30.1132 31.877C29.9868 31.6821 29.8542 31.5334 29.6837 31.3766ZM25.5997 34.3649C25.2697 34.7306 25.1097 34.9409 25.0767 35.4357C25.1753 36.2072 25.8075 36.7863 26.297 37.3532C26.4009 37.4762 26.5048 37.5993 26.6086 37.7225C28.2096 39.8644 28.2096 39.8644 30.3809 41.1384C30.5786 41.1462 30.7765 41.1491 30.9743 41.1481C31.0851 41.1478 31.1958 41.1474 31.3099 41.1471C31.4818 41.1459 31.4818 41.1459 31.6572 41.1446C31.832 41.1439 31.832 41.1439 32.0103 41.1432C32.2973 41.1421 32.5842 41.1403 32.8712 41.1384C32.8712 40.4481 32.8712 39.7578 32.8712 39.0466C32.6897 38.9888 32.5083 38.931 32.3214 38.8715C32.0792 38.7929 31.8371 38.7143 31.5949 38.6357C31.4163 38.5791 31.4163 38.5791 31.234 38.5213C29.2363 37.8681 28.4235 36.8786 27.3339 35.1513C27.2456 35.0137 27.1573 34.8761 27.0689 34.7385C27.0073 34.6386 27.0073 34.6386 26.9445 34.5367C26.8146 34.3285 26.8146 34.3285 26.5958 34.0661C26.1527 34.0661 25.9744 34.1385 25.5997 34.3649Z" fill="#215CFF"/>
<path d="M11.6939 7.87849C11.7789 7.92659 11.864 7.97468 11.9515 8.02423C12.0478 8.07847 12.144 8.1327 12.2432 8.18858C12.3453 8.24747 12.4475 8.30636 12.5527 8.36703C12.6569 8.42682 12.7611 8.48661 12.8685 8.54821C13.194 8.73682 13.5179 8.92821 13.8414 9.12033C13.9519 9.18472 14.0624 9.24911 14.1762 9.31546C14.2823 9.37857 14.3885 9.44168 14.4978 9.5067C14.6407 9.59098 14.6407 9.59098 14.7865 9.67696C15.1625 9.94707 15.3943 10.218 15.541 10.658C15.69 11.8181 15.0438 12.6874 14.4515 13.6339C14.4017 13.7163 14.352 13.7987 14.3007 13.8837C13.9641 14.4223 13.6522 14.8167 13.02 15.0125C12.95 15.0198 12.88 15.0271 12.8079 15.0346C12.7382 15.0438 12.6685 15.0529 12.5967 15.0623C11.9913 15.009 11.4232 14.6268 10.9029 14.3311C10.8344 14.2923 10.766 14.2534 10.6954 14.2133C10.2242 13.9432 9.75721 13.6667 9.29672 13.3786C9.18745 13.3104 9.07817 13.2423 8.96559 13.172C8.50322 12.8257 8.13707 12.4584 8.03954 11.8658C7.99507 11.1327 8.29517 10.6714 8.66793 10.0604C8.74968 9.91653 8.83097 9.77242 8.9119 9.6281C8.99859 9.4754 9.08536 9.32275 9.1722 9.17013C9.21315 9.09701 9.25409 9.02388 9.29628 8.94854C9.79707 8.08525 10.6689 7.40645 11.6939 7.87849ZM10.9589 9.56234C10.5645 10.2198 10.17 10.8772 9.76364 11.5545C10.2785 11.9664 10.8048 12.2955 11.3698 12.6316C11.5195 12.7228 11.5195 12.7228 11.6722 12.8158C11.7678 12.8727 11.8635 12.9297 11.962 12.9884C12.0927 13.0667 12.0927 13.0667 12.2259 13.1467C12.4617 13.2824 12.4617 13.2824 12.7519 13.1483C12.8946 12.9595 12.8946 12.9595 13.0208 12.7246C13.0693 12.6395 13.1177 12.5544 13.1677 12.4668C13.2174 12.3773 13.2672 12.2879 13.3184 12.1958C13.3694 12.1059 13.4203 12.0161 13.4727 11.9236C13.5985 11.7014 13.7234 11.4788 13.8476 11.2557C13.5755 10.9649 13.3122 10.7575 12.9667 10.5604C12.8754 10.5082 12.7841 10.456 12.6901 10.4022C12.5954 10.349 12.5008 10.2958 12.4033 10.2409C12.2613 10.1594 12.2613 10.1594 12.1165 10.0761C11.7233 9.85299 11.4006 9.67277 10.9589 9.56234Z" fill="#FF8303"/>
<path d="M6.57346 15.1406C6.94416 15.2979 7.27805 15.5069 7.61936 15.7196C7.83259 15.8482 8.04581 15.9769 8.25904 16.1056C8.37391 16.1757 8.48876 16.2459 8.60359 16.3161C8.97748 16.5441 9.35416 16.7672 9.73139 16.9896C11.3703 17.9564 13.0026 18.9341 14.6248 19.9286C14.8483 20.0648 15.0722 20.1993 15.2973 20.3326C15.3562 20.3678 15.415 20.403 15.4756 20.4393C15.6395 20.5374 15.8037 20.6348 15.968 20.7321C16.225 20.9106 16.3751 21.0495 16.5344 21.3164C16.5842 21.609 16.5842 21.609 16.5344 21.914C16.329 22.2004 16.329 22.2004 16.0364 22.4121C15.3311 22.5275 14.8757 22.189 14.2994 21.8331C14.1967 21.7714 14.094 21.7097 13.9881 21.6461C13.7623 21.5105 13.5369 21.3743 13.3119 21.2375C12.933 21.0076 12.5518 20.7815 12.1703 20.5561C10.8163 19.7557 9.46538 18.9503 8.11819 18.1385C7.66333 17.8648 7.20763 17.593 6.74778 17.3277C6.62845 17.2587 6.62845 17.2587 6.50671 17.1883C6.36149 17.1046 6.21594 17.0214 6.06999 16.939C5.75717 16.7587 5.58202 16.6417 5.37815 16.3359C5.31265 15.6482 5.31265 15.6482 5.52756 15.29C5.8783 15.0796 6.17989 15.0721 6.57346 15.1406Z" fill="#FF8303"/>
<path d="M17.7153 21.883C18.0839 21.9363 18.364 22.1069 18.6774 22.3001C18.7447 22.3401 18.812 22.3802 18.8813 22.4214C19.0233 22.5064 19.1648 22.5921 19.3059 22.6785C19.5267 22.8122 19.7501 22.9401 19.9746 23.0674C20.1192 23.1518 20.2637 23.2364 20.4081 23.3211C20.4762 23.3592 20.5443 23.3973 20.6145 23.4366C20.9759 23.6551 21.0988 23.7612 21.2676 24.165C21.317 24.5039 21.317 24.5039 21.2236 24.8339C21.0183 25.1014 20.8744 25.2474 20.5369 25.3121C20.0114 25.2846 19.5669 24.9661 19.1256 24.7032C19.0418 24.6537 18.9579 24.6043 18.8716 24.5533C18.5879 24.3849 18.3056 24.2146 18.0237 24.0433C17.8849 23.9593 17.8849 23.9593 17.7433 23.8736C17.6559 23.8194 17.5686 23.7652 17.4786 23.7094C17.4001 23.661 17.3216 23.6127 17.2408 23.5629C16.9148 23.3193 16.7517 23.1223 16.6914 22.7172C16.7844 22.0662 17.0703 21.8642 17.7153 21.883Z" fill="#FF8303"/>
</g>
<defs>
<clipPath id="clip0_116_5918">
<rect width="51" height="51" fill="white"/>
</clipPath>
</defs>
</svg>
