<svg width="75" height="76" viewBox="0 0 75 76" fill="none" xmlns="http://www.w3.org/2000/svg">
<path fill-rule="evenodd" clip-rule="evenodd" d="M71.9146 10.0508H65.808V7.61746C65.808 7.12302 65.4061 6.72119 64.9117 6.72119H62.2422C61.8479 4.51787 59.9164 2.83887 57.601 2.83887C55.2856 2.83887 53.3541 4.51787 52.9612 6.72119H50.2918C49.7973 6.72119 49.3955 7.12302 49.3955 7.61746V10.0508H43.2888C42.1386 10.0508 41.202 10.9874 41.202 12.1376V27.4294H27.6158C26.5671 27.4294 25.7142 28.2824 25.7142 29.331V44.8319C25.7142 44.8692 25.7172 44.9051 25.7202 44.9409H18.8457C17.797 44.9409 16.944 45.7939 16.944 46.8425V62.3434C16.944 62.3838 16.947 62.4241 16.95 62.4644H15.268V34.0528C15.268 32.3813 13.9071 31.0204 12.2356 31.0204H2.89628C2.40183 31.0204 2 31.4223 2 31.9167V35.3703C2 35.8648 2.40183 36.2666 2.89628 36.2666H9.49294C9.78423 36.2666 10.0217 36.5041 10.0217 36.7939V62.4659H6.42167C5.92722 62.4659 5.52538 62.8678 5.52538 63.3622V66.8158C5.52538 67.3102 5.92722 67.7121 6.42167 67.7121H9.90971C9.34355 68.4575 9.00745 69.3866 9.00745 70.3934C9.00745 72.8447 11.0017 74.8389 13.453 74.8389C15.9044 74.8389 17.8986 72.8447 17.8986 70.3934C17.8986 69.3866 17.5625 68.4575 16.9963 67.7121H44.9649C44.3987 68.4575 44.0626 69.3866 44.0626 70.3934C44.0626 72.8447 46.0569 74.8389 48.5082 74.8389C50.9595 74.8389 52.9538 72.8447 52.9538 70.3934C52.9538 69.3866 52.6177 68.4575 52.0515 67.7121H55.5395C56.034 67.7121 56.4358 67.3102 56.4358 66.8158V63.3622C56.4358 62.8678 56.034 62.4659 55.5395 62.4659H53.8097C53.8127 62.4256 53.8157 62.3853 53.8157 62.3449V49.718H71.9132C73.0634 49.718 74 48.7814 74 47.6312V12.1376C74.0015 10.9874 73.0649 10.0508 71.9146 10.0508ZM13.453 73.0463C11.9891 73.0463 10.8 71.8558 10.8 70.3934C10.8 68.931 11.9906 67.7404 13.453 67.7404C14.9155 67.7404 16.106 68.931 16.106 70.3934C16.106 71.8558 14.9155 73.0463 13.453 73.0463ZM48.5097 73.0463C47.0457 73.0463 45.8567 71.8558 45.8567 70.3934C45.8567 68.931 47.0472 67.7404 48.5097 67.7404C49.9721 67.7404 51.1627 68.931 51.1627 70.3934C51.1627 71.8558 49.9721 73.0463 48.5097 73.0463ZM51.1881 8.51372H53.7843C54.2788 8.51372 54.6806 8.1119 54.6806 7.61746V7.55173C54.6806 5.94144 55.9907 4.6314 57.601 4.6314C59.2113 4.6314 60.5214 5.94144 60.5214 7.55173V7.61746C60.5214 8.1119 60.9232 8.51372 61.4177 8.51372H64.0139V13.3804H51.1866V8.51372H51.1881ZM32.7724 29.2234H37.9873V35.6571L35.8093 34.4666C35.5419 34.3202 35.2178 34.3202 34.9504 34.4666L32.7724 35.6571V29.2234ZM27.5053 44.8334V29.3325C27.5053 29.2742 27.5561 29.2234 27.6143 29.2234H30.9799V37.1688C30.9799 37.4855 31.1472 37.7783 31.419 37.9396C31.6909 38.1009 32.0285 38.1069 32.3064 37.9546L35.3806 36.2755L38.4549 37.9546C38.5893 38.0277 38.7372 38.0636 38.8851 38.0636C39.0434 38.0636 39.2018 38.0218 39.3422 37.9381C39.6141 37.7768 39.7814 37.484 39.7814 37.1673V29.2219H43.1469C43.2052 29.2219 43.256 29.2727 43.256 29.331V44.8319C43.256 44.8902 43.2052 44.9409 43.1469 44.9409H36.3859C36.017 44.9409 35.6734 45.0485 35.3806 45.2307C35.0893 45.0485 34.7442 44.9409 34.3753 44.9409H27.6143C27.5561 44.9424 27.5053 44.8917 27.5053 44.8334ZM36.2769 46.844C36.2769 46.7858 36.3277 46.735 36.3859 46.735H39.7515V54.6804C39.7515 54.997 39.9188 55.2898 40.1907 55.4511C40.4625 55.6125 40.8001 55.6185 41.078 55.4661L44.1522 53.7856L47.2265 55.4661C47.3609 55.5393 47.5088 55.5751 47.6567 55.5751C47.8151 55.5751 47.9734 55.5333 48.1138 55.4497C48.3857 55.2883 48.553 54.9956 48.553 54.6789V46.7335H51.9185C51.9768 46.7335 52.0276 46.7843 52.0276 46.8425V62.3434C52.0276 62.4017 51.9768 62.4525 51.9185 62.4525H36.3844C36.3262 62.4525 36.2754 62.4017 36.2754 62.3434V46.844H36.2769ZM46.7574 53.1687L44.5795 51.9781C44.3121 51.8317 43.9879 51.8317 43.7205 51.9781L41.5426 53.1687V46.735H46.7574V53.1687ZM24.0023 46.735H29.2172V53.1687L27.0392 51.9781C26.7718 51.8317 26.4476 51.8317 26.1803 51.9781L24.0023 53.1687V46.735ZM18.7351 46.844C18.7351 46.7858 18.7859 46.735 18.8442 46.735H22.2097V54.6804C22.2097 54.997 22.377 55.2898 22.6489 55.4511C22.9208 55.6125 23.2584 55.6185 23.5362 55.4661L26.6105 53.7856L29.6847 55.4661C29.8192 55.5393 29.9671 55.5751 30.1149 55.5751C30.2733 55.5751 30.4316 55.5333 30.572 55.4497C30.8439 55.2883 31.0112 54.9956 31.0112 54.6789V46.7335H34.3768C34.435 46.7335 34.4858 46.7843 34.4858 46.8425V62.3434C34.4858 62.4017 34.435 62.4525 34.3768 62.4525H18.8442C18.7859 62.4525 18.7351 62.4017 18.7351 62.3434V46.844ZM9.49294 34.4726H3.79257V32.8115H12.2341C12.9182 32.8115 13.4739 33.3672 13.4739 34.0513V62.4644H11.8128V36.7939C11.8128 35.5137 10.7716 34.4726 9.49294 34.4726ZM54.6447 65.9195H7.31646V64.2585H54.6447V65.9195ZM72.2089 47.6312C72.2089 47.7911 72.0745 47.9255 71.9146 47.9255H53.8172V46.844C53.8172 45.7954 52.9642 44.9424 51.9156 44.9424H45.0411C45.0426 44.9066 45.047 44.8707 45.047 44.8334V29.3325C45.047 28.2838 44.1941 27.4309 43.1454 27.4309H42.9931V12.1376C42.9931 11.9778 43.1275 11.8433 43.2873 11.8433H49.394V14.2767C49.394 14.7711 49.7958 15.173 50.2903 15.173H64.9102C65.4046 15.173 65.8065 14.7711 65.8065 14.2767V11.8433H71.9132C72.073 11.8433 72.2074 11.9778 72.2074 12.1376V47.6312H72.2089ZM57.601 20.0203C52.1561 20.0203 47.7254 24.4508 47.7254 29.8956C47.7254 35.3404 52.1561 39.771 57.601 39.771C63.0459 39.771 67.4765 35.3404 67.4765 29.8956C67.4765 24.4508 63.0459 20.0203 57.601 20.0203ZM57.601 37.977C53.145 37.977 49.518 34.3516 49.518 29.8941C49.518 25.4367 53.1435 21.8113 57.601 21.8113C62.057 21.8113 65.684 25.4367 65.684 29.8941C65.684 34.3516 62.0585 37.977 57.601 37.977ZM49.406 70.3934C49.406 70.8878 49.0041 71.2897 48.5097 71.2897C48.0152 71.2897 47.6134 70.8878 47.6134 70.3934C47.6134 69.899 48.0152 69.4971 48.5097 69.4971C49.0041 69.4971 49.406 69.8975 49.406 70.3934ZM14.3493 70.3934C14.3493 70.8878 13.9475 71.2897 13.453 71.2897C12.9586 71.2897 12.5567 70.8878 12.5567 70.3934C12.5567 69.899 12.9586 69.4971 13.453 69.4971C13.9475 69.4971 14.3493 69.8975 14.3493 70.3934Z" fill="#215CFF"/>
<path d="M53 29.8389L56.2576 32.8389L62 26.8389" stroke="#FF8303" stroke-width="2" stroke-miterlimit="10" stroke-linecap="round" stroke-linejoin="round"/>
</svg>
