<svg width="50" height="50" viewBox="0 0 50 50" fill="none" xmlns="http://www.w3.org/2000/svg">
<path d="M25.3767 42C28.3049 42 31.1835 41.2437 33.7335 39.8042C36.2835 38.3648 38.4185 36.291 39.9315 33.784C41.4445 31.277 42.2843 28.4216 42.3695 25.4946C42.4547 22.5676 41.7824 19.6682 40.4177 17.0775C40.3416 16.9365 40.2128 16.8313 40.0594 16.7849C39.906 16.7385 39.7405 16.7546 39.5989 16.8297C39.4574 16.9048 39.3513 17.0329 39.3037 17.1859C39.2562 17.3389 39.2711 17.5045 39.3452 17.6467C40.5404 19.9133 41.1642 22.4375 41.1624 25C40.2973 45.9386 10.456 45.9388 9.59095 24.9998C9.44474 13.2931 22.4625 5.4465 32.7301 11.0317C32.8724 11.1072 33.0388 11.123 33.1928 11.0758C33.3467 11.0286 33.4756 10.9221 33.5511 10.7799C33.6265 10.6376 33.6424 10.4712 33.5952 10.3172C33.5479 10.1633 33.4415 10.0344 33.2992 9.9589C30.8572 8.67071 28.1376 7.99825 25.3767 7.99994C2.82711 8.93164 2.82737 41.0687 25.3767 42Z" fill="#111111"/>
<path d="M25.3767 20.1428C25.9024 20.1425 26.4245 20.2298 26.9215 20.401C27.0737 20.4534 27.2406 20.4433 27.3853 20.3727C27.53 20.3022 27.6407 20.177 27.6932 20.0248C27.9599 18.9508 26.0689 18.9936 25.3767 18.9284C17.3231 19.2613 17.3235 30.7389 25.3767 31.0714C26.9864 31.0696 28.5297 30.4294 29.6679 29.2911C30.8061 28.1529 31.4463 26.6097 31.4481 25C31.3861 24.2952 31.4272 22.4239 30.3578 22.6896C30.2824 22.7156 30.2129 22.7561 30.1531 22.8089C30.0934 22.8617 30.0447 22.9258 30.0097 22.9975C29.9748 23.0692 29.9543 23.147 29.9495 23.2266C29.9446 23.3062 29.9555 23.386 29.9816 23.4614C30.1505 23.9567 30.2358 24.4766 30.2338 25C29.9904 31.4337 20.763 31.4339 20.5195 24.9999C20.521 23.7122 21.0332 22.4776 21.9438 21.5671C22.8544 20.6565 24.089 20.1443 25.3767 20.1428Z" fill="#111111"/>
<path d="M31.1899 15.7318C31.2286 15.6621 31.2532 15.5855 31.2622 15.5062C31.2712 15.427 31.2646 15.3468 31.2426 15.2702C31.2207 15.1935 31.1838 15.1219 31.1342 15.0596C31.0845 14.9972 31.0231 14.9451 30.9533 14.9065C29.2464 13.9617 27.3277 13.4654 25.3767 13.4642C10.0752 14.0967 10.0754 35.9036 25.3768 36.5357C27.3835 36.5369 29.3557 36.0143 31.0985 35.0195C32.8413 34.0248 34.2943 32.5924 35.3138 30.8639C36.3332 29.1355 36.8839 27.1709 36.9114 25.1644C36.9388 23.1579 36.442 21.179 35.4702 19.4233C35.4317 19.3532 35.3797 19.2915 35.3173 19.2415C35.2549 19.1916 35.1833 19.1545 35.1065 19.1323C35.0297 19.1101 34.9493 19.1033 34.8699 19.1123C34.7904 19.1213 34.7136 19.1459 34.6437 19.1846C34.5738 19.2234 34.5122 19.2756 34.4625 19.3382C34.4128 19.4008 34.376 19.4726 34.3541 19.5495C34.3323 19.6263 34.3258 19.7068 34.3351 19.7862C34.3444 19.8655 34.3692 19.9423 34.4083 20.0121C38.2566 26.6863 33.0869 35.4551 25.3765 35.3213C22.6401 35.3183 20.0166 34.2299 18.0816 32.2949C16.1467 30.3599 15.0583 27.7364 15.0553 25C14.923 17.2899 23.6895 12.1195 30.3647 15.9686C30.4344 16.0074 30.511 16.032 30.5903 16.0411C30.6695 16.0502 30.7498 16.0436 30.8265 16.0216C30.9031 15.9996 30.9747 15.9627 31.0371 15.9129C31.0995 15.8632 31.1514 15.8017 31.1899 15.7318Z" fill="#111111"/>
<path d="M32.3734 14.0097L32.5963 16.9218L24.9474 24.5707C24.8374 24.6854 24.7768 24.8385 24.7784 24.9974C24.78 25.1563 24.8439 25.3082 24.9562 25.4205C25.0686 25.5328 25.2205 25.5967 25.3793 25.5983C25.5382 25.5999 25.6914 25.5392 25.806 25.4292L33.4549 17.7803L36.3669 18.0033C36.4542 18.01 36.5419 17.9977 36.624 17.9673C36.7061 17.9369 36.7806 17.8891 36.8425 17.8272L41.2615 13.4085C41.3419 13.3257 41.3972 13.2219 41.421 13.1089C41.4449 12.996 41.4363 12.8787 41.3962 12.7704C41.3561 12.6622 41.2862 12.5675 41.1946 12.4973C41.103 12.4272 40.9933 12.3844 40.8784 12.3739L38.2074 12.1693L38.0028 9.49823C37.9923 9.38332 37.9494 9.27374 37.8793 9.18215C37.8091 9.09055 37.7144 9.02069 37.6062 8.98063C37.498 8.94058 37.3806 8.93196 37.2677 8.95579C37.1548 8.97961 37.051 9.0349 36.9682 9.11527L32.5495 13.5342C32.4875 13.596 32.4397 13.6706 32.4093 13.7527C32.3789 13.8347 32.3667 13.9224 32.3734 14.0097ZM36.8929 10.9076C37.1358 13.7351 36.6577 13.2373 39.4691 13.4838L36.1814 16.7712L33.7887 16.588L33.6055 14.1953L36.8929 10.9076Z" fill="#111111"/>
</svg>
