<svg width="84" height="84" viewBox="0 0 84 84" fill="none" xmlns="http://www.w3.org/2000/svg">
<path d="M52.5736 31.6551C52.5736 22.0825 40.9496 17.2664 34.1714 24.0445C27.3934 30.8227 32.2094 42.4467 41.7821 42.4467C47.7279 42.4467 52.5736 37.6009 52.5736 31.6551ZM50.4034 23.0636C55.1303 27.8202 55.1303 35.5198 50.4034 40.2467C45.6468 45.0033 37.9469 45.0033 33.1905 40.2467C28.4339 35.5198 28.4339 27.8202 33.1905 23.0636C37.9469 18.3069 45.6468 18.3069 50.4034 23.0636Z" fill="#FF8303"/>
<path d="M48.1488 32.765H46.3353V30.6361H48.1488C48.4213 30.6361 48.6422 30.3664 48.6422 30.0337C48.6422 29.7007 48.4213 29.4309 48.1488 29.4309H46.3353V26.4768C46.3353 26.0456 46.2655 25.7292 46.128 25.5363C45.9974 25.3529 45.8255 25.2676 45.5877 25.2676C45.3605 25.2676 45.1951 25.3523 45.0671 25.5346C44.9311 25.7276 44.8622 26.0447 44.8622 26.477V29.4314H41.451L40.0004 26.7503C39.8764 26.511 39.7597 26.2869 39.6462 26.0718C39.5443 25.878 39.4448 25.7203 39.3507 25.6025C39.2675 25.4982 39.1726 25.4175 39.0617 25.3554C38.9571 25.2971 38.8239 25.2677 38.6665 25.2677C38.4657 25.2677 38.2836 25.335 38.1089 25.473C37.9362 25.6097 37.8168 25.7784 37.7439 25.9893C37.6799 26.1895 37.6461 26.4964 37.6461 26.8926V29.431H35.8506C35.5781 29.4312 35.3574 29.7009 35.3574 30.0338C35.3574 30.3666 35.5781 30.6363 35.8506 30.6363H37.6461V32.7655H35.8506C35.5781 32.7655 35.3574 33.035 35.3574 33.3681C35.3574 33.7009 35.5781 33.9704 35.8506 33.9704H37.6461V37.3431C37.6461 37.7616 37.7181 38.0749 37.8606 38.274C37.9963 38.4638 38.1681 38.552 38.4016 38.552C38.6268 38.552 38.7973 38.4635 38.9388 38.2732C39.0836 38.0784 39.157 37.7654 39.157 37.3433V33.9704H42.2437L43.9141 37.0992C44.0302 37.3061 44.1503 37.5148 44.2698 37.7196C44.3778 37.9034 44.4955 38.0653 44.6197 38.2006C44.7315 38.3228 44.8515 38.4125 44.9761 38.4673C45.1045 38.5238 45.2544 38.5523 45.421 38.5523C45.8726 38.5523 46.3353 38.3835 46.3353 37.1305V33.9704H48.1488C48.4213 33.9704 48.6422 33.7006 48.6422 33.3676C48.6422 33.0348 48.4213 32.765 48.1488 32.765ZM44.8622 30.636V32.765H43.2549L42.1031 30.636H44.8622ZM39.157 28.1897L39.8198 29.4309H39.157V28.1897ZM39.157 32.765V30.6361H40.4634L41.6003 32.765H39.157ZM44.8622 35.7366L43.9068 33.9704H44.8622V35.7366Z" fill="#FF8303"/>
<path d="M28.0478 27.4335C27.7802 28.3254 26.4425 27.9093 26.71 27.0471C28.2261 22.0527 32.1801 18.0988 37.1746 16.5825C38.0367 16.315 38.4529 17.6527 37.561 17.9203C33.0422 19.2879 29.4153 22.9148 28.0478 27.4335Z" fill="#FF8303"/>
<path d="M46.4195 46.7276C45.5573 46.9951 45.141 45.6871 46.0031 45.4196C50.5517 44.052 54.1786 40.4251 55.5461 35.8766C55.8136 35.0146 57.1217 35.4307 56.8839 36.2929C55.338 41.2873 51.4139 45.2115 46.4195 46.7276Z" fill="#FF8303"/>
<path d="M26.71 36.2931C26.4425 35.4012 27.7802 35.0148 28.0478 35.8768C29.4153 40.4253 33.0422 44.0522 37.561 45.4197C38.4529 45.6872 38.0367 46.9953 37.1746 46.7278C32.1801 45.2116 28.2558 41.2875 26.71 36.2931Z" fill="#FF8303"/>
<path d="M46.0031 17.9203C45.141 17.6527 45.5573 16.315 46.4195 16.5825C51.4139 18.0988 55.338 22.0527 56.8839 27.0471C57.1217 27.9093 55.8136 28.3254 55.5461 27.4335C54.1786 22.9148 50.5517 19.2879 46.0031 17.9203Z" fill="#FF8303"/>
<path d="M24.1528 43.2197C24.1528 44.1414 22.7555 44.1414 22.7555 43.2197V34.4795C22.7555 32.4876 19.2178 32.5174 19.2178 34.4795L18.0881 46.9953L27.3041 56.0923C27.423 56.241 27.5121 56.4193 27.5121 56.5977V58.7382C27.5121 59.6598 26.1149 59.6598 26.1149 58.7382V56.8951L16.8692 47.7683V47.7385C16.7206 47.6196 16.6611 47.4116 16.6611 47.2035L17.8206 34.4795C17.9395 31.7148 21.3286 30.7634 23.2014 32.3985C23.7961 32.9337 24.1528 33.6768 24.1528 34.4795V43.2197Z" fill="#215CFF"/>
<path d="M30.7226 49.6116C29.8009 49.4925 30.009 48.125 30.9009 48.2439C35.4196 48.8683 38.8384 52.733 38.8384 57.341C38.8384 58.2626 39.0465 59.4517 38.1547 59.4517C36.4601 59.4517 38.8384 56.0032 35.5385 52.2277C34.3196 50.8304 32.6251 49.8791 30.7226 49.6116Z" fill="#215CFF"/>
<path d="M31.288 48.4521C31.9421 49.106 30.961 50.0871 30.3069 49.433L25.1044 44.2305C24.7477 43.8441 24.1828 43.7252 23.6775 43.8738C22.7558 44.1711 22.31 45.3602 23.1125 46.2224L27.5124 50.6221C28.1664 51.2762 27.1855 52.2573 26.5314 51.6032L22.1314 47.2035C20.645 45.7169 21.2992 43.19 23.2611 42.5658C24.2422 42.2386 25.3422 42.5063 26.0855 43.2494L31.288 48.4521Z" fill="#215CFF"/>
<path d="M38.6606 67.2999H26.2935C25.2529 67.2999 24.4502 66.4674 24.4502 65.4568V59.8975C24.4502 58.8867 25.2529 58.0542 26.2935 58.0542H38.6606C39.7011 58.0542 40.5038 58.8867 40.5038 59.8975V65.4568C40.5038 66.4674 39.7011 67.2999 38.6606 67.2999ZM26.2935 65.9027H38.6606C38.9281 65.9027 39.1362 65.6946 39.1362 65.4568V59.8975C39.1362 59.6299 38.9281 59.4516 38.6606 59.4516V59.4219H26.2935V59.4516C26.0259 59.4516 25.8177 59.6299 25.8177 59.8975V65.4568C25.8177 65.6946 26.0259 65.9027 26.2935 65.9027Z" fill="#215CFF"/>
<path d="M32.4776 61.9788C33.3992 61.9788 33.3992 63.376 32.4776 63.376H25.1346C24.213 63.376 24.213 61.9788 25.1346 61.9788H32.4776Z" fill="#215CFF"/>
<path d="M60.8099 43.2195C60.8099 44.1412 59.4424 44.1412 59.4424 43.2195V34.4793C59.4424 31.3579 64.1693 30.4957 65.5071 33.3496C65.6557 33.7063 65.7449 34.0929 65.7449 34.4793L66.9043 47.2033C66.934 47.4114 66.8448 47.6195 66.7259 47.7384V47.7681L57.4804 56.8949V58.738C57.4804 59.6596 56.083 59.6596 56.083 58.738V56.5975C56.083 56.4191 56.1425 56.2408 56.2912 56.0922L65.5071 46.9951L64.3774 34.4793C64.3774 32.5172 60.8099 32.4874 60.8099 34.4793V43.2195Z" fill="#215CFF"/>
<path d="M52.6927 48.2439C53.5845 48.125 53.7628 49.4925 52.8711 49.6116C49.0361 50.1466 46.1226 53.4168 46.1226 57.341C46.1226 58.2626 46.3307 59.4517 45.4389 59.4517C44.5173 59.4517 44.7551 58.2626 44.7551 57.341C44.7551 52.733 48.1739 48.8683 52.6927 48.2439Z" fill="#215CFF"/>
<path d="M53.2581 49.433C52.6339 50.0871 51.6528 49.106 52.277 48.4521L57.4797 43.2494C58.2228 42.5063 59.3228 42.2386 60.3336 42.5658C62.2957 43.19 62.9497 45.7169 61.4336 47.2035L57.0337 51.6032C56.4094 52.2573 55.4284 51.2762 56.0526 50.6221L60.4822 46.2224C61.2552 45.3602 60.8389 44.1711 59.9174 43.8738C59.412 43.7252 58.8472 43.8441 58.4606 44.2305L53.2581 49.433Z" fill="#215CFF"/>
<path d="M44.9036 65.9027H57.3005C57.5385 65.9027 57.7465 65.6946 57.7465 65.4568V59.8975C57.7465 59.6299 57.5385 59.4516 57.3005 59.4516V59.4219H44.9036V59.4516C44.6658 59.4516 44.4578 59.6299 44.4578 59.8975V65.4568C44.4578 65.6946 44.6658 65.9027 44.9036 65.9027ZM57.3005 67.2999H44.9036C43.8928 67.2999 43.0605 66.4674 43.0605 65.4568V59.8975C43.0605 58.8867 43.8928 58.0542 44.9036 58.0542H57.3005C58.3113 58.0542 59.1438 58.8867 59.1438 59.8975V65.4568C59.1438 66.4674 58.3113 67.2999 57.3005 67.2999Z" fill="#215CFF"/>
<path d="M51.1169 63.376C50.1954 63.376 50.1954 61.9788 51.1169 61.9788H58.4599C59.3518 61.9788 59.3518 63.376 58.4599 63.376H51.1169Z" fill="#215CFF"/>
</svg>
