<svg width="50" height="50" viewBox="0 0 50 50" fill="none" xmlns="http://www.w3.org/2000/svg">
<path d="M31.3676 18.8466C31.3676 13.082 24.3677 10.1818 20.2859 14.2635C16.2042 18.3453 19.1044 25.3452 24.869 25.3452C28.4495 25.3452 31.3676 22.4271 31.3676 18.8466ZM30.0607 13.6728C32.9072 16.5372 32.9072 21.1739 30.0607 24.0204C27.1963 26.8848 22.5595 26.8848 19.6952 24.0204C16.8308 21.1739 16.8308 16.5372 19.6952 13.6728C22.5595 10.8084 27.1963 10.8084 30.0607 13.6728Z" fill="#111111"/>
<path d="M28.7029 19.5149H27.6108V18.2329H28.7029C28.867 18.2329 29 18.0705 29 17.8701C29 17.6696 28.867 17.5071 28.7029 17.5071H27.6108V15.7282C27.6108 15.4685 27.5688 15.278 27.486 15.1618C27.4073 15.0514 27.3038 15 27.1606 15C27.0238 15 26.9242 15.051 26.8471 15.1608C26.7652 15.277 26.7237 15.468 26.7237 15.7283V17.5074H24.6695L23.796 15.8929C23.7213 15.7488 23.651 15.6138 23.5827 15.4843C23.5213 15.3676 23.4614 15.2726 23.4047 15.2017C23.3546 15.1389 23.2975 15.0903 23.2307 15.0529C23.1677 15.0178 23.0875 15.0001 22.9927 15.0001C22.8718 15.0001 22.7621 15.0406 22.6569 15.1237C22.5529 15.206 22.481 15.3076 22.4371 15.4346C22.3986 15.5552 22.3782 15.74 22.3782 15.9786V17.5072H21.297C21.1329 17.5073 21 17.6697 21 17.8702C21 18.0706 21.1329 18.233 21.297 18.233H22.3782V19.5152H21.297C21.1329 19.5152 21 19.6775 21 19.8781C21 20.0785 21.1329 20.2408 21.297 20.2408H22.3782V22.2718C22.3782 22.5238 22.4216 22.7125 22.5074 22.8324C22.5891 22.9467 22.6926 22.9998 22.8332 22.9998C22.9688 22.9998 23.0715 22.9465 23.1567 22.8319C23.2439 22.7146 23.2881 22.5261 23.2881 22.2719V20.2408H25.1469L26.1528 22.1249C26.2227 22.2495 26.295 22.3752 26.367 22.4985C26.432 22.6092 26.5029 22.7067 26.5777 22.7882C26.645 22.8618 26.7173 22.9158 26.7923 22.9488C26.8696 22.9828 26.9599 23 27.0602 23C27.3322 23 27.6108 22.8983 27.6108 22.1438V20.2408H28.7029C28.867 20.2408 29 20.0783 29 19.8778C29 19.6774 28.867 19.5149 28.7029 19.5149ZM26.7237 18.2328V19.5149H25.7558L25.0622 18.2328H26.7237ZM23.2881 16.7597L23.6872 17.5071H23.2881V16.7597ZM23.2881 19.5149V18.2329H24.0748L24.7594 19.5149H23.2881ZM26.7237 21.3044L26.1484 20.2408H26.7237V21.3044Z" fill="#111111"/>
<path d="M16.598 16.3044C16.4369 16.8415 15.6313 16.5909 15.7924 16.0717C16.7054 13.0641 19.0865 10.6831 22.0941 9.77003C22.6133 9.60891 22.8639 10.4145 22.3268 10.5756C19.6056 11.3992 17.4215 13.5833 16.598 16.3044Z" fill="#111111"/>
<path d="M27.6618 27.9231C27.1426 28.0842 26.8919 27.2965 27.4111 27.1354C30.1502 26.3119 32.3343 24.1278 33.1578 21.3887C33.3189 20.8696 34.1066 21.1202 33.9634 21.6394C33.0325 24.647 30.6694 27.0101 27.6618 27.9231Z" fill="#111111"/>
<path d="M15.7924 21.6394C15.6313 21.1023 16.4369 20.8696 16.598 21.3887C17.4215 24.1278 19.6056 26.3119 22.3268 27.1354C22.8639 27.2965 22.6133 28.0842 22.0941 27.9231C19.0865 27.0101 16.7233 24.647 15.7924 21.6394Z" fill="#111111"/>
<path d="M27.4111 10.5756C26.8919 10.4145 27.1426 9.60891 27.6618 9.77003C30.6694 10.6831 33.0325 13.0641 33.9634 16.0717C34.1066 16.5909 33.3189 16.8415 33.1578 16.3044C32.3343 13.5833 30.1502 11.3992 27.4111 10.5756Z" fill="#111111"/>
<path d="M14.2528 25.8106C14.2528 26.3656 13.4114 26.3656 13.4114 25.8106V20.5473C13.4114 19.3478 11.281 19.3657 11.281 20.5473L10.6007 28.0842L16.1505 33.5624C16.2221 33.6519 16.2758 33.7593 16.2758 33.8667V35.1557C16.2758 35.7107 15.4344 35.7107 15.4344 35.1557V34.0458L9.86671 28.5497V28.5318C9.7772 28.4602 9.74139 28.3349 9.74139 28.2096L10.4396 20.5473C10.5112 18.8824 12.5521 18.3095 13.6799 19.2941C14.038 19.6164 14.2528 20.0639 14.2528 20.5473V25.8106Z" fill="#111111"/>
<path d="M18.2093 29.6597C17.6543 29.588 17.7796 28.7645 18.3167 28.8361C21.0378 29.2121 23.0966 31.5394 23.0966 34.3143C23.0966 34.8693 23.2219 35.5854 22.6849 35.5854C21.6644 35.5854 23.0966 33.5087 21.1094 31.2351C20.3754 30.3937 19.355 29.8208 18.2093 29.6597Z" fill="#111111"/>
<path d="M18.5494 28.9615C18.9433 29.3553 18.3525 29.9461 17.9586 29.5522L14.8257 26.4193C14.6109 26.1866 14.2707 26.115 13.9664 26.2045C13.4114 26.3835 13.1429 27.0996 13.6262 27.6188L16.2758 30.2683C16.6696 30.6622 16.0789 31.253 15.685 30.8591L13.0354 28.2096C12.1403 27.3144 12.5342 25.7927 13.7157 25.4168C14.3065 25.2198 14.9689 25.381 15.4165 25.8285L18.5494 28.9615Z" fill="#111111"/>
<path d="M22.9892 40.3116H15.5418C14.9152 40.3116 14.4318 39.8103 14.4318 39.2017V35.8539C14.4318 35.2452 14.9152 34.7439 15.5418 34.7439H22.9892C23.6158 34.7439 24.0992 35.2452 24.0992 35.8539V39.2017C24.0992 39.8103 23.6158 40.3116 22.9892 40.3116ZM15.5418 39.4702H22.9892C23.1503 39.4702 23.2756 39.3449 23.2756 39.2017V35.8539C23.2756 35.6928 23.1503 35.5854 22.9892 35.5854V35.5675H15.5418V35.5854C15.3807 35.5854 15.2553 35.6928 15.2553 35.8539V39.2017C15.2553 39.3449 15.3807 39.4702 15.5418 39.4702Z" fill="#111111"/>
<path d="M19.2655 37.1071C19.8205 37.1071 19.8205 37.9485 19.2655 37.9485H14.8436C14.2886 37.9485 14.2886 37.1071 14.8436 37.1071H19.2655Z" fill="#111111"/>
<path d="M36.3265 25.8106C36.3265 26.3656 35.503 26.3656 35.503 25.8106V20.5473C35.503 18.6676 38.3495 18.1484 39.1551 19.867C39.2446 20.0818 39.2983 20.3146 39.2983 20.5473L39.9965 28.2096C40.0144 28.3349 39.9607 28.4602 39.8891 28.5318V28.5497L34.3215 34.0458V35.1557C34.3215 35.7107 33.48 35.7107 33.48 35.1557V33.8667C33.48 33.7593 33.5158 33.6519 33.6054 33.5624L39.1551 28.0842L38.4748 20.5473C38.4748 19.3657 36.3265 19.3478 36.3265 20.5473V25.8106Z" fill="#111111"/>
<path d="M31.4392 28.8361C31.9762 28.7645 32.0836 29.588 31.5466 29.6597C29.2372 29.9819 27.4827 31.9512 27.4827 34.3143C27.4827 34.8693 27.608 35.5854 27.071 35.5854C26.516 35.5854 26.6592 34.8693 26.6592 34.3143C26.6592 31.5394 28.718 29.2121 31.4392 28.8361Z" fill="#111111"/>
<path d="M31.7793 29.5522C31.4034 29.9461 30.8126 29.3553 31.1885 28.9615L34.3215 25.8285C34.769 25.381 35.4314 25.2198 36.0401 25.4168C37.2217 25.7927 37.6155 27.3144 36.7025 28.2096L34.0529 30.8591C33.677 31.253 33.0862 30.6622 33.4621 30.2683L36.1296 27.6188C36.5951 27.0996 36.3444 26.3835 35.7895 26.2045C35.4851 26.115 35.145 26.1866 34.9122 26.4193L31.7793 29.5522Z" fill="#111111"/>
<path d="M26.7487 39.4702H34.214C34.3573 39.4702 34.4826 39.3449 34.4826 39.2017V35.8539C34.4826 35.6928 34.3573 35.5854 34.214 35.5854V35.5675H26.7487V35.5854C26.6055 35.5854 26.4802 35.6928 26.4802 35.8539V39.2017C26.4802 39.3449 26.6055 39.4702 26.7487 39.4702ZM34.214 40.3116H26.7487C26.14 40.3116 25.6388 39.8103 25.6388 39.2017V35.8539C25.6388 35.2452 26.14 34.7439 26.7487 34.7439H34.214C34.8227 34.7439 35.324 35.2452 35.324 35.8539V39.2017C35.324 39.8103 34.8227 40.3116 34.214 40.3116Z" fill="#111111"/>
<path d="M30.4903 37.9485C29.9354 37.9485 29.9354 37.1071 30.4903 37.1071H34.9122C35.4493 37.1071 35.4493 37.9485 34.9122 37.9485H30.4903Z" fill="#111111"/>
</svg>
