<svg width="74" height="74" viewBox="0 0 74 74" fill="none" xmlns="http://www.w3.org/2000/svg">
<path d="M58.1063 36.209C55.21 33.3263 51.838 31.091 48.0827 29.5657C44.4985 28.1111 40.7148 27.3614 36.8344 27.3324C36.7584 27.3308 36.6825 27.3296 36.6059 27.3296C36.53 27.3296 36.4535 27.3308 36.3777 27.3324C32.497 27.3614 28.7131 28.1111 25.1294 29.5657C21.3738 31.091 18.0028 33.3252 15.1063 36.209C15.0834 36.227 15.0622 36.2465 15.0408 36.2678C14.8736 36.4351 14.79 36.6548 14.791 36.8737C14.79 37.0928 14.8736 37.3126 15.0408 37.4794C15.0622 37.5008 15.0834 37.5204 15.1063 37.5386C18.0028 40.4219 21.3738 42.6562 25.1294 44.1818C28.7131 45.636 32.497 46.3862 36.3777 46.415C36.4535 46.4169 36.53 46.4176 36.6059 46.4176C36.6818 46.4176 36.7584 46.4169 36.8344 46.415C40.7148 46.3862 44.4985 45.636 48.0827 44.1818C51.8484 42.6519 55.2286 40.4092 58.1303 37.5139C58.3115 37.3543 58.4208 37.1208 58.4208 36.8704C58.4208 36.6095 58.3017 36.3685 58.1063 36.209ZM16.8683 36.8737C20.6708 33.2838 25.2851 30.8421 30.2875 29.7276C28.3103 31.4765 27.0618 34.0318 27.0618 36.8737C27.0618 39.7158 28.3103 42.2712 30.2875 44.0196C25.2851 42.9052 20.6708 40.4638 16.8683 36.8737ZM28.7662 36.8737C28.7662 32.5509 32.2828 29.0339 36.6059 29.0339C40.9289 29.0339 44.4456 32.5509 44.4456 36.8737C44.4456 41.1966 40.9289 44.7134 36.6059 44.7134C32.2828 44.7134 28.7662 41.1966 28.7662 36.8737ZM42.9246 44.0196C44.9018 42.2712 46.1498 39.7158 46.1498 36.8737C46.1498 34.0318 44.9018 31.4765 42.9246 29.7276C47.9268 30.8421 52.541 33.2838 56.3433 36.8737C52.541 40.4638 47.9268 42.9052 42.9246 44.0196Z" fill="#215CFF"/>
<path d="M36.6054 41.1342C34.2562 41.1342 32.3447 39.223 32.3447 36.8735C32.3447 34.5243 34.2562 32.6128 36.6054 32.6128C38.9549 32.6128 40.8661 34.5243 40.8661 36.8735C40.8661 39.223 38.9549 41.1342 36.6054 41.1342ZM36.6054 34.317C35.1957 34.317 34.0489 35.4639 34.0489 36.8735C34.0489 38.2832 35.1957 39.4298 36.6054 39.4298C38.0152 39.4298 39.1618 38.2832 39.1618 36.8735C39.1618 35.4639 38.0152 34.317 36.6054 34.317Z" fill="#FF8303"/>
<path d="M15.6432 29.545C15.1726 29.545 14.791 29.1637 14.791 28.6928V15.9108C14.791 15.4402 15.1726 15.0586 15.6432 15.0586H28.4253C28.8961 15.0586 29.2774 15.4402 29.2774 15.9108C29.2774 16.3816 28.8961 16.7629 28.4253 16.7629H16.4952V28.6928C16.4952 29.1637 16.1139 29.545 15.6432 29.545Z" fill="#215CFF"/>
<path d="M28.4253 58.6883H15.6432C15.1726 58.6883 14.791 58.307 14.791 57.8361V45.0539C14.791 44.5834 15.1726 44.2019 15.6432 44.2019C16.114 44.2019 16.4954 44.5834 16.4954 45.0539V56.984H28.4253C28.8961 56.984 29.2774 57.3656 29.2774 57.8361C29.2774 58.307 28.8961 58.6883 28.4253 58.6883Z" fill="#215CFF"/>
<path d="M57.4829 58.6883H44.7008C44.2303 58.6883 43.8486 58.307 43.8486 57.8361C43.8486 57.3656 44.2303 56.984 44.7008 56.984H56.6307V45.0539C56.6307 44.5834 57.0123 44.2019 57.4829 44.2019C57.9537 44.2019 58.335 44.5834 58.335 45.0539V57.8361C58.335 58.307 57.9537 58.6883 57.4829 58.6883Z" fill="#215CFF"/>
<path d="M57.563 29.545C57.0925 29.545 56.7108 29.1637 56.7108 28.6928V16.7629H47.7633C47.2928 16.7629 46.9111 16.3816 46.9111 15.9108C46.9111 15.4402 47.2928 15.0586 47.7633 15.0586H57.563C58.0333 15.0586 58.415 15.4402 58.415 15.9108V28.6928C58.415 29.1637 58.0333 29.545 57.563 29.545Z" fill="#215CFF"/>
<path d="M44.782 16.7629C44.3117 16.7629 43.9297 16.3816 43.9297 15.9108C43.9297 15.4402 44.3107 15.0586 44.7816 15.0586C45.2524 15.0586 45.6342 15.4402 45.6342 15.9108C45.6342 16.3816 45.2531 16.7629 44.782 16.7629Z" fill="#215CFF"/>
</svg>
