<svg width="57" height="55" viewBox="0 0 57 55" fill="none" xmlns="http://www.w3.org/2000/svg">
<path d="M51.4287 0.202637L51.4326 0.203613C51.6469 0.23553 51.8355 0.373043 51.9316 0.569824V0.570801L53.3154 3.3374L53.3438 3.39404L53.3994 3.42334L56.3916 5.021H56.3926C56.5847 5.12162 56.7126 5.30443 56.7451 5.52197C56.7773 5.73802 56.7039 5.9548 56.5518 6.10693L51.8027 10.856C51.6752 10.9835 51.5004 11.0532 51.3193 11.0532C51.2418 11.0532 51.1746 11.0437 51.1094 11.022L51.1074 11.021L47.8252 9.9585L47.7148 9.92334L47.6299 10.0005L45.7363 11.728L45.5947 11.8579L45.7197 12.0034C49.5311 16.4629 51.834 22.2474 51.834 28.5562C51.834 42.6409 40.3757 54.0991 26.291 54.0991C12.2065 54.0989 0.749023 42.6407 0.749023 28.5562C0.749082 14.4716 12.2065 3.01438 26.291 3.01416C33.4303 3.01416 39.8986 5.96494 44.541 10.7134L44.6748 10.8501L44.8164 10.7212L46.6865 9.01123L46.7764 8.9292L46.7441 8.81201L45.9121 5.80811H45.9131C45.8487 5.57321 45.9125 5.32045 46.0869 5.146L50.8369 0.396973C50.995 0.239062 51.2156 0.166459 51.4287 0.202637ZM26.291 4.38037C12.9612 4.3806 2.11627 15.2263 2.11621 28.5562C2.11621 41.886 12.9612 52.7317 26.291 52.7319C39.621 52.7319 50.4668 41.8862 50.4668 28.5562C50.4668 22.6005 48.2998 17.1477 44.7148 12.9282L44.582 12.771L44.4307 12.9097L40.5059 16.4956L40.3662 16.6226L40.4873 16.7681C43.1482 19.9694 44.7519 24.0749 44.752 28.5503C44.752 38.7288 36.4695 47.0103 26.291 47.0103C16.1126 47.01 7.83105 38.7344 7.83105 28.5562C7.83111 18.3778 16.1127 10.0964 26.291 10.0962C31.3653 10.0962 35.9701 12.1572 39.3125 15.4878L39.4463 15.6216L39.5859 15.4937L43.5166 11.9087L43.668 11.77L43.5244 11.6226C39.1374 7.15776 33.0311 4.38037 26.291 4.38037ZM26.291 11.4624C16.8674 11.4626 9.1983 19.1325 9.19824 28.5562C9.19824 37.9798 16.8674 45.6497 26.291 45.6499C35.7148 45.6499 43.3848 37.98 43.3848 28.5562C43.3847 24.4422 41.9253 20.6642 39.4932 17.7095L39.3604 17.5483L39.2061 17.689L35.2646 21.2856L35.1289 21.4097L35.2422 21.5542C36.7598 23.492 37.6699 25.9135 37.6699 28.5562C37.6699 34.8284 32.5633 39.9341 26.291 39.9341C20.0189 39.9339 14.9131 34.8283 14.9131 28.5562C14.9131 22.284 20.0189 17.1784 26.291 17.1782C29.3012 17.1782 32.0381 18.3624 34.0752 20.2769L34.209 20.4028L34.3447 20.2788L38.2861 16.6812L38.4404 16.5405L38.292 16.394C35.1994 13.3495 30.9641 11.4624 26.291 11.4624ZM26.2852 18.5513C20.7679 18.5515 16.2745 23.0386 16.2744 28.562C16.2744 34.0795 20.7677 38.5735 26.2852 38.5737C31.8027 38.5737 36.2969 34.0856 36.2969 28.562C36.2968 26.2843 35.5266 24.1943 34.2432 22.5112L34.1123 22.3394L33.9521 22.4849L29.999 26.0942L29.8789 26.2046L29.9629 26.3433C30.355 26.9912 30.5869 27.7459 30.5869 28.5562C30.5869 30.9282 28.6572 32.8579 26.2852 32.8579C23.9133 32.8577 21.9834 30.9281 21.9834 28.5562C21.9835 26.1843 23.9133 24.2546 26.2852 24.2544C27.2374 24.2544 28.1115 24.5719 28.8281 25.0952L28.959 25.1909L29.0781 25.0815L33.0322 21.478L33.1924 21.3315L33.0322 21.1851C31.2524 19.5567 28.8839 18.5513 26.2852 18.5513ZM26.2852 25.6216C24.668 25.6218 23.3506 26.939 23.3506 28.5562C23.3506 30.1733 24.668 31.4905 26.2852 31.4907C27.9025 31.4907 29.2207 30.1735 29.2207 28.5562C29.2207 28.1357 29.1306 27.7407 28.9717 27.3784L28.8613 27.1255L28.6572 27.312L26.7451 29.0571L26.7441 29.0581C26.6164 29.1767 26.4514 29.2368 26.2852 29.2368C26.1176 29.2367 25.957 29.1796 25.8311 29.0679L25.7793 29.0171C25.5249 28.7347 25.5451 28.302 25.8242 28.0503L25.8252 28.0493L27.7246 26.3159L27.9277 26.1313L27.6885 25.9966C27.2704 25.7622 26.7975 25.6216 26.2852 25.6216ZM50.9365 2.22412L47.416 5.75049L47.334 5.83252L47.3652 5.94385L48.0771 8.51416L48.1055 8.6167L48.207 8.6499L51.0156 9.55811L51.1309 9.59521L54.9316 5.79443L54.6963 5.66846L52.5049 4.49854C52.3787 4.42763 52.2783 4.32652 52.2148 4.19971L51.2539 2.27588L51.1309 2.02979L50.9365 2.22412Z" fill="#215CFF" stroke="#215CFF" stroke-width="0.396309"/>
<line x1="46.862" y1="9.75862" x2="26.3362" y2="28.5537" stroke="#FF8303" stroke-width="1.8" stroke-linecap="round"/>
</svg>
