<svg width="50" height="50" viewBox="0 0 50 50" fill="none" xmlns="http://www.w3.org/2000/svg">
<path d="M39.5675 24.4374C37.5905 22.4696 35.2887 20.9438 32.7253 19.9026C30.2787 18.9097 27.6959 18.3979 25.0471 18.3781C24.9952 18.377 24.9434 18.3762 24.8911 18.3762C24.8393 18.3762 24.7871 18.377 24.7353 18.3781C22.0863 18.3979 19.5034 18.9097 17.0571 19.9026C14.4935 20.9438 12.1924 22.4689 10.2152 24.4374C10.1996 24.4497 10.1851 24.463 10.1705 24.4775C10.0564 24.5917 9.99928 24.7417 10 24.8911C9.99928 25.0407 10.0564 25.1907 10.1705 25.3046C10.1851 25.3192 10.1996 25.3326 10.2152 25.345C12.1924 27.3132 14.4935 28.8383 17.0571 29.8797C19.5034 30.8724 22.0863 31.3845 24.7353 31.4041C24.7871 31.4054 24.8393 31.4059 24.8911 31.4059C24.9429 31.4059 24.9952 31.4054 25.0471 31.4041C27.6959 31.3845 30.2787 30.8724 32.7253 29.8797C35.2958 28.8354 37.6032 27.3045 39.5839 25.3281C39.7076 25.2192 39.7822 25.0598 39.7822 24.8889C39.7822 24.7108 39.7009 24.5463 39.5675 24.4374ZM11.418 24.8911C14.0136 22.4406 17.1634 20.7739 20.5781 20.0131C19.2284 21.2069 18.3762 22.9512 18.3762 24.8911C18.3762 26.8312 19.2284 28.5755 20.5781 29.769C17.1634 29.0083 14.0136 27.3418 11.418 24.8911ZM19.5396 24.8911C19.5396 21.9403 21.9401 19.5396 24.8911 19.5396C27.842 19.5396 30.2426 21.9403 30.2426 24.8911C30.2426 27.842 27.842 30.2426 24.8911 30.2426C21.9401 30.2426 19.5396 27.842 19.5396 24.8911ZM29.2043 29.769C30.554 28.5755 31.4059 26.8312 31.4059 24.8911C31.4059 22.9512 30.554 21.2069 29.2043 20.0131C32.6189 20.7739 35.7686 22.4406 38.3641 24.8911C35.7686 27.3418 32.6189 29.0083 29.2043 29.769Z" fill="#111111"/>
<path d="M24.8911 27.7995C23.2875 27.7995 21.9827 26.4949 21.9827 24.8911C21.9827 23.2875 23.2875 21.9827 24.8911 21.9827C26.4949 21.9827 27.7995 23.2875 27.7995 24.8911C27.7995 26.4949 26.4949 27.7995 24.8911 27.7995ZM24.8911 23.146C23.9288 23.146 23.146 23.9289 23.146 24.8911C23.146 25.8534 23.9288 26.6361 24.8911 26.6361C25.8534 26.6361 26.6361 25.8534 26.6361 24.8911C26.6361 23.9289 25.8534 23.146 24.8911 23.146Z" fill="#111111"/>
<path d="M10.5819 19.8886C10.2607 19.8886 10.0002 19.6283 10.0002 19.3069V10.5817C10.0002 10.2605 10.2607 10 10.5819 10H19.3071C19.6285 10 19.8888 10.2605 19.8888 10.5817C19.8888 10.9031 19.6285 11.1634 19.3071 11.1634H11.1635V19.3069C11.1635 19.6283 10.9032 19.8886 10.5819 19.8886Z" fill="#111111"/>
<path d="M19.3069 39.7822H10.5817C10.2605 39.7822 10 39.5219 10 39.2005V30.4752C10 30.154 10.2605 29.8936 10.5817 29.8936C10.9031 29.8936 11.1634 30.154 11.1634 30.4752V38.6188H19.3069C19.6283 38.6188 19.8886 38.8793 19.8886 39.2005C19.8886 39.5219 19.6283 39.7822 19.3069 39.7822Z" fill="#111111"/>
<path d="M39.1423 39.7822H30.4171C30.0959 39.7822 29.8354 39.5219 29.8354 39.2005C29.8354 38.8793 30.0959 38.6188 30.4171 38.6188H38.5606V30.4752C38.5606 30.154 38.8211 29.8936 39.1423 29.8936C39.4637 29.8936 39.724 30.154 39.724 30.4752V39.2005C39.724 39.5219 39.4637 39.7822 39.1423 39.7822Z" fill="#111111"/>
<path d="M39.1969 19.8886C38.8757 19.8886 38.6152 19.6283 38.6152 19.3069V11.1634H32.5075C32.1863 11.1634 31.9258 10.9031 31.9258 10.5817C31.9258 10.2605 32.1863 10 32.5075 10H39.1969C39.5179 10 39.7785 10.2605 39.7785 10.5817V19.3069C39.7785 19.6283 39.5179 19.8886 39.1969 19.8886Z" fill="#111111"/>
<path d="M30.4725 11.1634C30.1515 11.1634 29.8907 10.9031 29.8907 10.5817C29.8907 10.2605 30.1508 10 30.4722 10H30.4725C30.7939 10 31.0542 10.2605 31.0542 10.5817C31.0542 10.9031 30.7941 11.1634 30.4725 11.1634Z" fill="#111111"/>
</svg>
