<svg width="72" height="73" viewBox="0 0 72 73" fill="none" xmlns="http://www.w3.org/2000/svg">
<path d="M71.5665 16.3591L52.4848 1.18047C52.0511 0.855209 51.509 0.855209 51.1837 1.18047L32.102 16.3591C31.7767 16.6844 31.5599 17.118 31.7767 17.5517C31.8852 17.9854 32.3188 18.3107 32.7525 18.3107H34.9209V33.164H33.5114C32.8609 33.164 32.4273 33.5977 32.4273 34.2482V38.9103C32.4273 39.5608 32.8609 39.9944 33.5114 39.9944H70.157C70.8076 39.9944 71.2412 39.5608 71.2412 38.9103V34.2482C71.2412 33.5977 70.8076 33.164 70.157 33.164H68.7476V18.3107H70.916C71.3496 18.3107 71.7833 17.9854 71.8917 17.5517C72.1086 17.118 72.0002 16.6844 71.5665 16.3591ZM51.8342 3.45726L67.7718 16.1423H67.6634C61.1583 16.1423 42.5102 16.1423 35.8967 16.1423L51.8342 3.45726ZM55.4121 33.164V18.3107H61.5919V33.164H55.4121ZM42.0765 33.164V18.3107H48.2564V33.164H42.0765ZM50.4248 18.3107H53.2437V33.164H50.4248V18.3107ZM37.0893 18.3107H39.9082V33.164H37.0893V18.3107ZM69.0728 37.8261H34.5956V35.3324H69.0728V37.8261ZM66.5792 33.164H63.7603V18.3107H66.5792V33.164Z" fill="#215CFF"/>
<path d="M21.3676 33.7059C20.9339 33.3806 20.3918 33.3806 20.0665 33.7059L0.984806 48.8845C0.659549 49.2098 0.442712 49.6434 0.65955 50.0771C0.65955 50.5108 1.09323 50.836 1.5269 50.836H3.69528V65.6894H2.28583C1.63532 65.6894 1.20164 66.1231 1.20164 66.7736V71.4356C1.20164 72.0862 1.63532 72.5198 2.28583 72.5198H38.9314C39.5819 72.5198 40.0156 72.0862 40.0156 71.4356V66.7736C40.0156 66.1231 39.5819 65.6894 38.9314 65.6894H37.522V50.836H39.6904C40.124 50.836 40.5577 50.5108 40.6661 50.0771C40.7745 49.6434 40.6661 49.2098 40.3409 48.8845L21.3676 33.7059ZM20.6086 35.9827L36.6546 48.6677H36.4378C-14.4107 48.6677 55.9532 48.6677 4.77947 48.6677H4.67105L20.6086 35.9827ZM24.1865 65.6894V50.836H30.3663V65.6894H24.1865ZM10.8509 65.6894V50.836H17.0308V65.6894H10.8509ZM19.1992 50.836H22.0181V65.6894H19.1992V50.836ZM5.86366 50.836H8.68255V65.6894H5.86366V50.836ZM37.9557 70.3514H3.37002V67.8578H37.8472V70.3514H37.9557ZM35.3536 65.6894H32.5347V50.836H35.3536V65.6894Z" fill="#215CFF"/>
<path d="M61.6989 42.5968C61.482 42.3799 61.1568 42.1631 60.8315 42.1631C60.5063 42.1631 60.2894 42.2715 60.0726 42.4883L53.7843 49.5356C53.3506 49.9692 53.459 50.6198 53.8927 51.0534C54.3264 51.4871 54.9769 51.3787 55.4106 50.945L59.7473 45.9577V67.8584H43.9182C43.2677 67.8584 42.834 68.292 42.834 68.9426C42.834 69.5931 43.2677 70.0267 43.9182 70.0267H60.9399C61.5905 70.0267 62.0241 69.5931 62.0241 68.9426V46.1746L66.3609 51.1619C66.7946 51.5955 67.4451 51.704 67.8788 51.2703C68.3124 50.8366 68.4208 50.1861 67.9872 49.7524L61.6989 42.5968Z" fill="#FF8303"/>
<path d="M8.68185 37.935C9.33236 37.935 9.76603 37.5013 9.76603 36.8508V11.2639H28.4141L23.4268 15.6007C22.9931 16.0344 22.8847 16.6849 23.3184 17.1186C23.7521 17.5522 24.4026 17.6607 24.8363 17.227C24.8363 17.227 31.8835 10.9387 31.9919 10.9387C32.2087 10.7218 32.3172 10.3966 32.3172 10.1798C32.3172 9.8545 32.1003 9.52924 31.9919 9.42082L24.8363 3.13252C24.4026 2.69885 23.7521 2.80727 23.3184 3.24094C22.8847 3.67462 22.9931 4.32513 23.4268 4.75881L28.4141 9.09556H8.68185C8.03133 9.09556 7.59766 9.52924 7.59766 10.1798V36.9592C7.59766 37.5013 8.03133 37.935 8.68185 37.935Z" fill="#FF8303"/>
<path d="M20.6091 46.9331C22.7775 46.9331 24.4038 45.1984 24.4038 43.1384C24.4038 40.97 22.6691 39.3438 20.6091 39.3438C18.5492 39.3438 16.8145 41.0785 16.8145 43.1384C16.8145 45.1984 18.5492 46.9331 20.6091 46.9331ZM20.6091 41.4037C21.4765 41.4037 22.2354 42.1626 22.2354 43.03C22.2354 43.8973 21.4765 44.6563 20.6091 44.6563C19.7418 44.6563 18.9828 43.8973 18.9828 43.03C18.9828 42.1626 19.7418 41.4037 20.6091 41.4037Z" fill="#215CFF"/>
<path d="M51.8328 14.5161C54.0011 14.5161 55.6274 12.7814 55.6274 10.7214C55.6274 8.55304 53.8927 6.92676 51.8328 6.92676C49.7728 6.92676 47.9297 8.55304 47.9297 10.613C47.9297 12.7814 49.6644 14.5161 51.8328 14.5161ZM51.8328 8.98672C52.7001 8.98672 53.4591 9.74565 53.4591 10.613C53.4591 11.4804 52.7001 12.2393 51.8328 12.2393C50.9654 12.2393 50.2065 11.4804 50.2065 10.613C50.2065 9.74565 50.857 8.98672 51.8328 8.98672Z" fill="#215CFF"/>
</svg>
