<svg width="48" height="73" viewBox="0 0 48 73" fill="none" xmlns="http://www.w3.org/2000/svg">
<path d="M14.9755 32.8489L20.7043 37.467C20.8517 37.5857 20.9545 37.7445 20.9982 37.9206C21.0418 38.0967 21.024 38.281 20.9474 38.4472L15.8938 49.3983C15.8118 49.5761 15.7973 49.7743 15.8528 49.9607C15.9082 50.1471 16.0303 50.3106 16.1992 50.4246C16.3681 50.5386 16.5737 50.5965 16.7827 50.5887C16.9917 50.5809 17.1917 50.5079 17.3501 50.3817L32.5695 38.2507C32.6655 38.1742 32.7435 38.0802 32.7986 37.9747C32.8537 37.8692 32.8847 37.7543 32.8898 37.6372C32.8949 37.5202 32.8739 37.4034 32.8281 37.2941C32.7823 37.1848 32.7127 37.0854 32.6236 37.002L26.2649 31.0501C26.1386 30.9319 26.0523 30.7822 26.0165 30.6194C25.9807 30.4566 25.997 30.2877 26.0634 30.1333L30.6084 19.564C30.6869 19.3814 30.695 19.1794 30.6313 18.9919C30.5677 18.8044 30.4361 18.6429 30.2588 18.5345C30.0814 18.4261 29.8691 18.3775 29.6575 18.3967C29.4458 18.4159 29.2478 18.5019 29.0967 18.6401L14.9327 31.5962C14.8423 31.6789 14.7712 31.778 14.7241 31.8873C14.6769 31.9965 14.6547 32.1136 14.6587 32.2311C14.6627 32.3487 14.6929 32.4642 14.7474 32.5705C14.8019 32.6768 14.8795 32.7716 14.9755 32.8489Z" fill="#FF8303"/>
<path d="M32.6245 37.0019L26.2657 31.0501C26.1394 30.9319 26.0531 30.7822 26.0173 30.6194C25.9816 30.4566 25.9979 30.2877 26.0642 30.1333L30.6092 19.564C30.6877 19.3814 30.6958 19.1794 30.6322 18.9919C30.5685 18.8044 30.437 18.6429 30.2596 18.5345C30.0822 18.4261 29.8699 18.3775 29.6583 18.3967C29.4467 18.4159 29.2487 18.5019 29.0975 18.6401L24.6138 22.7412L21.4352 30.133C21.3688 30.2874 21.3525 30.4564 21.3882 30.6192C21.424 30.782 21.5103 30.9317 21.6367 31.05L27.9954 37.0019C28.0845 37.0853 28.1541 37.1847 28.1999 37.2939C28.2457 37.4032 28.2667 37.52 28.2616 37.6371C28.2566 37.7541 28.2255 37.869 28.1704 37.9745C28.1154 38.0801 28.0374 38.174 27.9414 38.2506L17.0226 46.9536L15.8945 49.3982C15.8125 49.576 15.798 49.7742 15.8534 49.9606C15.9089 50.1469 16.031 50.3104 16.1999 50.4245C16.3687 50.5385 16.5744 50.5963 16.7834 50.5885C16.9924 50.5807 17.1924 50.5078 17.3508 50.3816L32.5702 38.2506C32.6662 38.174 32.7441 38.0801 32.7992 37.9746C32.8543 37.869 32.8854 37.7542 32.8905 37.6371C32.8955 37.52 32.8745 37.4032 32.8288 37.294C32.783 37.1847 32.7134 37.0853 32.6243 37.0019H32.6245Z" fill="#FF8303"/>
<path d="M41.7363 0.5L42.001 0.505859C43.2299 0.563408 44.3944 1.01264 45.2979 1.76855L45.4873 1.93457C46.4129 2.78987 46.9516 3.92315 47.0166 5.10938L47.0234 5.34766V67.6533C47.0218 68.8456 46.5407 69.9994 45.667 70.8906L45.4873 71.0654C44.4987 71.9788 43.15 72.4985 41.7363 72.5H5.78711C4.46166 72.4986 3.1935 72.0413 2.22559 71.2314L2.03613 71.0654C1.11054 70.2101 0.571833 69.0768 0.506836 67.8906L0.5 67.6523V5.34766C0.501443 4.15514 0.982587 3.00074 1.85645 2.10938L2.03613 1.93457C2.96296 1.07828 4.2059 0.567511 5.52246 0.505859L5.78711 0.5H41.7363ZM1.81445 67.6543C1.81568 68.5881 2.19287 69.478 2.85645 70.1553L2.99316 70.2881C3.69338 70.9351 4.6203 71.311 5.59082 71.3564L5.78516 71.3613H41.7383C42.7138 71.3602 43.6581 71.0247 44.3877 70.4141L44.5303 70.2881C45.2318 69.6398 45.6533 68.7673 45.7041 67.8398L45.709 67.6543V59.668H1.81445V67.6543ZM22.6123 63.0176C23.0916 62.8342 23.6146 62.7687 24.1289 62.8271L24.3486 62.8604C24.9323 62.9677 25.4636 63.2314 25.877 63.6133C26.2384 63.9473 26.4958 64.3576 26.6289 64.8018L26.6777 64.9941C26.7751 65.4465 26.7442 65.9137 26.5879 66.3516L26.5127 66.5381C26.2928 67.0286 25.9174 67.4545 25.4277 67.7568C24.9377 68.0593 24.3578 68.2217 23.7617 68.2217C23.0617 68.2208 22.3922 67.9965 21.8643 67.5967L21.6475 67.415C21.0942 66.9038 20.7911 66.2193 20.79 65.5146C20.79 64.9883 20.9587 64.4701 21.2803 64.0254C21.5619 63.6359 21.9505 63.3166 22.4102 63.1025L22.6123 63.0176ZM23.7607 63.9453C23.3873 63.9458 23.0217 64.0655 22.7266 64.2891L22.6045 64.3916C22.3294 64.6458 22.1533 64.9859 22.1133 65.3545L22.1045 65.5137V65.5146C22.1045 65.7944 22.183 66.0659 22.3281 66.3027L22.3945 66.4014C22.5811 66.6593 22.8418 66.8546 23.1396 66.9688V66.9697C23.4376 67.0838 23.7641 67.1134 24.0781 67.0557C24.3529 67.0051 24.612 66.8888 24.8291 66.7158L24.9189 66.6377C25.1239 66.4483 25.2757 66.21 25.3555 65.9443L25.3857 65.8281C25.4529 65.5158 25.4176 65.1927 25.2871 64.9014C25.173 64.6468 24.9919 64.4292 24.7666 64.2666L24.667 64.2002C24.3959 64.0328 24.081 63.9453 23.7617 63.9453H23.7607ZM1.81445 58.5293H45.709V10.1934H1.81445V58.5293ZM20.6992 4.77734H26.8242C27.0107 4.77735 27.182 4.84647 27.3027 4.95801C27.4222 5.06838 27.4814 5.209 27.4814 5.34668C27.4814 5.48436 27.4222 5.62498 27.3027 5.73535C27.182 5.84689 27.0107 5.91601 26.8242 5.91602H20.6992C20.5128 5.91601 20.3415 5.84689 20.2207 5.73535C20.1013 5.62498 20.042 5.48436 20.042 5.34668C20.042 5.209 20.1013 5.06838 20.2207 4.95801C20.3415 4.84647 20.5128 4.77735 20.6992 4.77734ZM45.709 5.3457C45.7076 4.34962 45.2784 3.40327 44.5303 2.71191C43.8301 2.06495 42.9031 1.68901 41.9326 1.64355L41.7383 1.63867H5.78516C4.80966 1.63978 3.86532 1.9753 3.13574 2.58594L2.99316 2.71191C2.29159 3.3602 1.87015 4.2327 1.81934 5.16016L1.81445 5.3457V9.05469H45.709V5.3457Z" stroke="white"/>
</svg>
