<svg width="75" height="75" viewBox="0 0 75 75" fill="none" xmlns="http://www.w3.org/2000/svg">
<path d="M29.5547 36.1656L34.8987 40.4734C35.0361 40.5842 35.1321 40.7323 35.1728 40.8966C35.2135 41.0608 35.1969 41.2328 35.1254 41.3878L30.4114 51.6031C30.3349 51.769 30.3214 51.9539 30.3731 52.1277C30.4248 52.3016 30.5387 52.4541 30.6962 52.5605C30.8538 52.6668 31.0456 52.7208 31.2406 52.7135C31.4355 52.7062 31.6221 52.6382 31.7698 52.5204L45.9666 41.2045C46.0562 41.1331 46.1289 41.0455 46.1803 40.947C46.2317 40.8486 46.2607 40.7415 46.2654 40.6322C46.2702 40.523 46.2506 40.4141 46.2079 40.3122C46.1651 40.2102 46.1002 40.1175 46.0171 40.0397L40.0856 34.4877C39.9678 34.3774 39.8873 34.2378 39.8539 34.0859C39.8206 33.9341 39.8358 33.7765 39.8977 33.6325L44.1373 23.7733C44.2105 23.603 44.2181 23.4146 44.1587 23.2397C44.0993 23.0648 43.9766 22.9141 43.8112 22.813C43.6457 22.7119 43.4477 22.6665 43.2503 22.6844C43.0529 22.7024 42.8682 22.7825 42.7272 22.9115L29.5149 34.9971C29.4305 35.0743 29.3642 35.1667 29.3202 35.2686C29.2762 35.3705 29.2555 35.4797 29.2592 35.5894C29.263 35.699 29.2911 35.8068 29.342 35.9059C29.3928 36.0051 29.4652 36.0935 29.5547 36.1656Z" fill="#FF8303"/>
<path d="M46.0169 40.0396L40.0854 34.4877C39.9676 34.3774 39.8871 34.2378 39.8537 34.0859C39.8203 33.9341 39.8355 33.7765 39.8974 33.6325L44.137 23.7733C44.2103 23.603 44.2179 23.4146 44.1585 23.2397C44.0991 23.0648 43.9764 22.9141 43.8109 22.813C43.6455 22.7119 43.4474 22.6665 43.25 22.6844C43.0526 22.7024 42.8679 22.7825 42.727 22.9115L38.5445 26.7371L35.5794 33.6322C35.5175 33.7763 35.5022 33.9339 35.5356 34.0857C35.569 34.2376 35.6495 34.3773 35.7674 34.4876L41.6989 40.0396C41.782 40.1174 41.8469 40.2101 41.8896 40.312C41.9323 40.4139 41.9519 40.5229 41.9472 40.6321C41.9425 40.7413 41.9135 40.8484 41.8621 40.9469C41.8108 41.0453 41.738 41.133 41.6485 41.2044L31.4633 49.3226L30.411 51.603C30.3345 51.7688 30.321 51.9537 30.3727 52.1276C30.4244 52.3014 30.5383 52.4539 30.6958 52.5603C30.8534 52.6667 31.0452 52.7206 31.2402 52.7134C31.4351 52.7061 31.6217 52.638 31.7694 52.5203L45.9662 41.2044C46.0558 41.133 46.1285 41.0453 46.1799 40.9469C46.2313 40.8485 46.2603 40.7413 46.265 40.6321C46.2698 40.5229 46.2502 40.4139 46.2075 40.312C46.1648 40.2101 46.0998 40.1174 46.0168 40.0396H46.0169Z" fill="#FF8303"/>
<path d="M21.3574 2.84778H54.6426C55.9432 2.84925 57.1875 3.35307 58.1035 4.24524C59.0191 5.13697 59.5317 6.34311 59.5332 7.59875V68.4015C59.5316 69.6571 59.019 70.8633 58.1035 71.755C57.1875 72.6471 55.9431 73.151 54.6426 73.1525H21.3574L21.1143 73.1466C19.9026 73.0868 18.7552 72.5914 17.8965 71.755C17.0381 70.919 16.5336 69.8064 16.4727 68.6359L16.4668 68.4005V7.59875L16.4727 7.36438C16.5335 6.19381 17.038 5.08134 17.8965 4.24524C18.7553 3.40884 19.9025 2.9135 21.1143 2.85364L21.3574 2.84778ZM17.6768 68.4015L17.6816 68.5812C17.7281 69.4731 18.1118 70.3173 18.7598 70.9484C19.4074 71.5791 20.2689 71.9496 21.1748 71.9943L21.3564 71.9982H54.6436C55.6153 71.997 56.5495 71.6211 57.2402 70.9484C57.8882 70.3173 58.2719 69.4731 58.3184 68.5812L58.3232 68.4025V60.63H17.6768V68.4015ZM36.9443 63.8546C37.4479 63.6515 38.0027 63.5986 38.5381 63.7023C39.0734 63.806 39.5637 64.0612 39.9473 64.4347C40.3307 64.8081 40.5902 65.2826 40.6953 65.797C40.8004 66.3113 40.7464 66.8449 40.54 67.3302C40.3336 67.8155 39.9832 68.2323 39.5312 68.5265C39.079 68.8208 38.5461 68.9777 38 68.9777C37.2676 68.9767 36.5679 68.6933 36.0537 68.1925C35.54 67.6921 35.253 67.0167 35.252 66.3146C35.252 65.7905 35.4116 65.2768 35.7119 64.839C36.0124 64.401 36.4408 64.0578 36.9443 63.8546ZM38 64.8048C37.5963 64.8052 37.2061 64.9608 36.917 65.2423C36.6637 65.489 36.5056 65.8149 36.4697 66.1632L36.4619 66.3136V66.3146C36.462 66.6159 36.5541 66.9098 36.7246 67.1583C36.895 67.4065 37.1357 67.5983 37.415 67.7111C37.6945 67.8238 38.0019 67.8533 38.2979 67.796C38.5937 67.7387 38.8672 67.5969 39.083 67.3868C39.2989 67.1765 39.4475 66.9067 39.5078 66.6115C39.5681 66.3161 39.5369 66.01 39.4189 65.7325C39.301 65.4553 39.1023 65.2202 38.8496 65.0558C38.6285 64.9119 38.3744 64.8276 38.1123 64.8087L38 64.8048ZM17.6768 59.4757H58.3232V12.3497H17.6768V59.4757ZM21.3564 4.00208C20.3847 4.00318 19.4505 4.37909 18.7598 5.05188C18.1118 5.68302 17.7281 6.5271 17.6816 7.41907L17.6768 7.59778V11.1954H58.3232V7.59778C58.322 6.6404 57.9313 5.72503 57.2402 5.05188C56.5926 4.42113 55.731 4.05071 54.8252 4.00598L54.6436 4.00208H21.3564ZM35.165 7.02161H40.835C40.9992 7.02161 41.155 7.08495 41.2676 7.19446C41.3797 7.30369 41.4404 7.44972 41.4404 7.59875C41.4404 7.74768 41.3796 7.89289 41.2676 8.00208C41.155 8.11172 40.9993 8.1759 40.835 8.1759H35.165C35.0007 8.1759 34.845 8.11172 34.7324 8.00208C34.6204 7.89289 34.5596 7.74768 34.5596 7.59875C34.5596 7.44972 34.6203 7.30369 34.7324 7.19446C34.845 7.08495 35.0008 7.02161 35.165 7.02161Z" stroke="white" stroke-width="0.932812"/>
</svg>
