<svg width="75" height="75" viewBox="0 0 75 75" fill="none" xmlns="http://www.w3.org/2000/svg">
<path d="M65.636 3H9.36408C7.50882 3 6 4.50153 6 6.34782V16.0869C6 17.9332 7.50882 19.4348 9.36408 19.4348H20.6796V46.5217C20.6796 49.0385 22.738 51.0869 25.267 51.0869H42.4875L43.8292 52.8036C43.4501 54.2692 42.6411 58.7014 45.5189 61.9465C44.5643 62.5378 43.9223 63.5833 43.9223 64.7826V69.6522C43.9223 71.4985 45.4311 73 47.2864 73H64.4126C66.2679 73 67.7767 71.4985 67.7767 69.6522V64.7826C67.7767 63.3837 66.9089 62.1862 65.682 61.6862C67.0455 58.0238 68.7782 49.4472 66.4877 43.747C64.5403 38.9073 57.5187 31.2632 54.3204 27.9319V19.4349H65.6359C67.4912 19.4349 69 17.9333 69 16.0871V6.34782C69 4.50153 67.4913 3 65.636 3ZM22.5146 46.5217V41.3951C26.6741 41.8224 29.989 45.1214 30.4185 49.2608H25.267C23.7499 49.2608 22.5146 48.0315 22.5146 46.5217ZM32.2545 49.2608C31.8128 44.115 27.6854 40.0075 22.5146 39.5679V12.1304H52.4855V39.5976C51.1396 39.7106 49.8351 40.0671 48.6324 40.6631L47.13 38.9343C45.2365 36.7552 41.931 36.3878 39.5991 38.0901C38.3746 38.9854 37.5837 40.3038 37.3747 41.8017C37.1644 43.3008 37.5634 44.7858 38.4977 45.9818L41.0604 49.2607L32.2545 49.2608ZM49.8673 42.0845C50.6971 41.7243 51.5803 41.5025 52.4855 41.409V45.0974L49.8673 42.0845ZM65.9419 69.6521C65.9419 70.4915 65.2562 71.1738 64.4127 71.1738H47.2865C46.443 71.1738 45.7574 70.4915 45.7574 69.6521V64.7825C45.7574 63.9431 46.443 63.2608 47.2865 63.2608H64.4127C65.2562 63.2608 65.9419 63.9431 65.9419 64.7825V69.6521ZM64.7842 44.4257C66.9981 49.9328 64.9874 58.5576 63.8175 61.4347H47.6268C43.9563 58.4106 45.6359 53.1236 45.7109 52.8952C45.8064 52.6063 45.7515 52.2877 45.564 52.0475L39.9456 44.8609C39.3184 44.0572 39.0508 43.061 39.1918 42.054C39.3327 41.0482 39.8631 40.1637 40.6863 39.5621C42.25 38.416 44.472 38.6668 45.7419 40.1279L53.9323 49.5532C54.2645 49.9349 54.8438 49.9753 55.2261 49.6471C55.6096 49.3165 55.6514 48.74 55.3204 48.3596L54.2726 47.1539C54.303 46.9504 54.3205 46.7401 54.3205 46.5217V30.5978C57.5161 34.0243 63.174 40.424 64.7842 44.4257ZM67.1652 16.0869C67.1652 16.9263 66.4795 17.6087 65.636 17.6087H54.3205V12.1304H61.9661C62.4727 12.1304 62.8836 11.7215 62.8836 11.2174C62.8836 10.7133 62.4727 10.3043 61.9661 10.3043H13.034C12.5274 10.3043 12.1165 10.7133 12.1165 11.2174C12.1165 11.7215 12.5274 12.1304 13.034 12.1304H20.6796V17.6087H9.36408C8.52062 17.6087 7.83495 16.9263 7.83495 16.0869V6.34782C7.83495 5.50843 8.52062 4.82608 9.36408 4.82608H65.636C66.4795 4.82608 67.1652 5.50843 67.1652 6.34782V16.0869Z" fill="white"/>
<path d="M46.3315 26.1586H43.8744V23.2739H46.3315C46.7007 23.2739 47 22.9087 47 22.4576C47 22.0065 46.7007 21.6411 46.3315 21.6411H43.8744V17.6385C43.8744 17.0542 43.7799 16.6254 43.5936 16.3642C43.4165 16.1156 43.1837 16 42.8612 16C42.5536 16 42.3295 16.1148 42.1559 16.3618C41.9717 16.6233 41.8783 17.0529 41.8783 17.6388V21.6416H37.2563L35.2911 18.009C35.1229 17.6848 34.9648 17.3811 34.8112 17.0896C34.6729 16.8271 34.5381 16.6133 34.4107 16.4537C34.2979 16.3125 34.1694 16.2031 34.0191 16.1191C33.8773 16.04 33.697 16.0003 33.4837 16.0003C33.2116 16.0003 32.9646 16.0913 32.7281 16.2784C32.4941 16.4634 32.3323 16.6922 32.2335 16.9778C32.1468 17.2492 32.1009 17.6651 32.1009 18.2019V21.6413H29.6682C29.2991 21.6413 29 22.0068 29 22.4579C29 22.9089 29.2991 23.2742 29.6683 23.2742H32.101V26.1591H29.6683C29.2991 26.1591 29 26.5245 29 26.9757C29 27.4266 29.2991 27.7917 29.6683 27.7917H32.101V32.3616C32.101 32.9286 32.1985 33.3531 32.3917 33.6229C32.5754 33.8801 32.8083 33.9995 33.1246 33.9995C33.4298 33.9995 33.661 33.8795 33.8526 33.6218C34.0489 33.3579 34.1481 32.9336 34.1481 32.3617V27.7917H38.3305L40.5938 32.0311C40.7512 32.3113 40.9137 32.5942 41.0757 32.8716C41.2219 33.1206 41.3815 33.3401 41.5497 33.5233C41.7013 33.6891 41.8638 33.8106 42.0327 33.8848C42.2066 33.9612 42.4098 34 42.6354 34C43.2475 34 43.8743 33.7711 43.8743 32.0736V27.7917H46.3314C46.7007 27.7917 46.9999 27.4261 46.9999 26.9751C47 26.5242 46.7007 26.1586 46.3315 26.1586ZM41.8782 23.2739V26.1585H39.7005L38.14 23.2739H41.8782ZM34.1482 19.9594L35.0463 21.6411H34.1482V19.9594ZM34.1482 26.1586V23.2739H35.9183L37.4586 26.1586H34.1482ZM41.8782 30.1848L40.584 27.7917H41.8782V30.1848Z" fill="#FF8303"/>
</svg>
