<svg width="75" height="75" viewBox="0 0 75 75" fill="none" xmlns="http://www.w3.org/2000/svg">
<path d="M63.1444 37.9965V8.83333C63.1444 4.21917 59.4057 3 57.4295 3H18.5693C14.0489 3 12.8544 6.052 12.8544 7.66667V37.9965H6V51.9965H70V37.9965H63.1444ZM24.2122 5.33333H51.782C52.3112 10.1913 56.0979 14.0577 60.8585 14.5978V49.6527H52.2427C54.8258 46.3697 56.2877 42.2595 56.2877 38C56.2877 27.7077 48.0834 19.3333 38 19.3333C27.9166 19.3333 19.7123 27.7077 19.7123 38C19.7123 42.2595 21.1753 46.3697 23.7573 49.6527H15.1404V13.4522C20.1581 13.0345 23.6933 9.86 24.2122 5.33333ZM26.8308 49.6527C23.7619 46.603 21.9983 42.3878 21.9983 38C21.9983 28.9933 29.1762 21.6667 38 21.6667C46.8238 21.6667 54.0017 28.9933 54.0017 38C54.0017 42.389 52.2381 46.603 49.1703 49.6527H26.8308ZM60.8585 8.83333V12.24C57.3621 11.7267 54.5961 8.90333 54.092 5.33333H57.4227C57.9964 5.34033 60.8585 5.541 60.8585 8.83333ZM18.5693 5.33333H21.9046C21.3696 8.92667 18.3785 10.756 15.1404 11.1002V7.683C15.1518 7.291 15.3701 5.33333 18.5693 5.33333ZM8.28596 40.3298H12.8544V49.662H8.28596V40.3298ZM67.714 49.662H63.1444V40.3298H67.714V49.662ZM46.0969 61.3333H42.6702V55.5C42.6702 54.8548 42.1593 54.3333 41.5272 54.3333H32.3788C31.7479 54.3333 31.2358 54.8548 31.2358 55.5V61.3333H27.8092C27.3474 61.3333 26.9302 61.6168 26.7531 62.0532C26.5759 62.4895 26.6742 62.9912 27.0011 63.3248L36.1449 72.6582C36.3678 72.8857 36.6604 73 36.953 73C37.2456 73 37.5382 72.8857 37.7611 72.6582L46.905 63.3248C47.2319 62.9912 47.3301 62.4895 47.153 62.0532C46.977 61.6168 46.5586 61.3333 46.0969 61.3333ZM36.953 70.1837L30.5683 63.6667H32.3777C33.0086 63.6667 33.5207 63.1452 33.5207 62.5V56.6667H40.3831V62.5C40.3831 63.1452 40.894 63.6667 41.5261 63.6667H43.3366L36.953 70.1837Z" fill="white"/>
<path d="M47.2572 38.2873H44.5271V35.0822H47.2572C47.6675 35.0822 48 34.6764 48 34.1752C48 33.6739 47.6675 33.2679 47.2572 33.2679H44.5271V28.8206C44.5271 28.1714 44.4221 27.6949 44.2151 27.4046C44.0183 27.1285 43.7596 27 43.4014 27C43.0595 27 42.8106 27.1276 42.6176 27.402C42.413 27.6926 42.3092 28.1699 42.3092 28.8209V33.2684H37.1737L34.9901 29.2322C34.8032 28.872 34.6275 28.5345 34.4569 28.2107C34.3032 27.919 34.1534 27.6815 34.0119 27.5042C33.8866 27.3472 33.7438 27.2257 33.5768 27.1323C33.4192 27.0444 33.2189 27.0003 32.9818 27.0003C32.6795 27.0003 32.4051 27.1015 32.1424 27.3093C31.8823 27.5149 31.7026 27.7691 31.5928 28.0864C31.4965 28.388 31.4455 28.8501 31.4455 29.4466V33.2681H28.7425C28.3323 33.2682 28 33.6742 28 34.1754C28 34.6766 28.3323 35.0824 28.7425 35.0824H31.4455V38.2879H28.7425C28.3323 38.2879 28 38.6938 28 39.1952C28 39.6963 28.3323 40.1019 28.7425 40.1019H31.4455V45.1796C31.4455 45.8096 31.5539 46.2812 31.7685 46.581C31.9727 46.8667 32.2315 46.9994 32.5829 46.9994C32.922 46.9994 33.1788 46.8661 33.3918 46.5798C33.6099 46.2865 33.7202 45.8151 33.7202 45.1796V40.1019H38.3672L40.882 44.8123C41.0569 45.1237 41.2374 45.438 41.4175 45.7462C41.5799 46.0229 41.7572 46.2667 41.9442 46.4704C42.1126 46.6546 42.2931 46.7896 42.4808 46.872C42.674 46.9569 42.8998 47 43.1504 47C43.8305 47 44.527 46.7457 44.527 44.8595V40.1019H47.2572C47.6674 40.1019 47.9999 39.6957 47.9999 39.1946C48 38.6935 47.6675 38.2873 47.2572 38.2873ZM42.3091 35.0821V38.2873H39.8894L38.1556 35.0821H42.3091ZM33.7202 31.3993L34.7181 33.2679H33.7202V31.3993ZM33.7202 38.2873V35.0822H35.687L37.3984 38.2873H33.7202ZM42.3091 42.7609L40.8711 40.1019H42.3091V42.7609Z" fill="#FF8303"/>
</svg>
