<svg width="63" height="71" viewBox="0 0 63 71" fill="none" xmlns="http://www.w3.org/2000/svg">
<path d="M59.636 0.338867H3.36408C1.50882 0.338867 0 1.84039 0 3.68669V13.4258C0 15.2721 1.50882 16.7736 3.36408 16.7736H14.6796V43.8605C14.6796 46.3774 16.738 48.4257 19.267 48.4257H36.4875L37.8292 50.1425C37.4501 51.6081 36.6411 56.0403 39.5189 59.2853C38.5643 59.8766 37.9223 60.9221 37.9223 62.1215V66.9911C37.9223 68.8373 39.4311 70.3389 41.2864 70.3389H58.4126C60.2679 70.3389 61.7767 68.8373 61.7767 66.9911V62.1215C61.7767 60.7226 60.9089 59.525 59.682 59.0251C61.0455 55.3627 62.7782 46.786 60.4877 41.0859C58.5403 36.2461 51.5187 28.602 48.3204 25.2708V16.7737H59.6359C61.4912 16.7737 63 15.2722 63 13.4259V3.68669C63 1.84039 61.4913 0.338867 59.636 0.338867ZM16.5146 43.8605V38.734C20.6741 39.1613 23.989 42.4603 24.4185 46.5997H19.267C17.7499 46.5997 16.5146 45.3703 16.5146 43.8605ZM26.2545 46.5997C25.8128 41.4539 21.6854 37.3464 16.5146 36.9068V9.46929H46.4855V36.9365C45.1396 37.0495 43.8351 37.4059 42.6324 38.002L41.13 36.2732C39.2365 34.094 35.931 33.7266 33.5991 35.429C32.3746 36.3243 31.5837 37.6427 31.3747 39.1406C31.1644 40.6397 31.5634 42.1247 32.4977 43.3206L35.0604 46.5995L26.2545 46.5997ZM43.8673 39.4234C44.6971 39.0632 45.5803 38.8414 46.4855 38.7479V42.4363L43.8673 39.4234ZM59.9419 66.9909C59.9419 67.8303 59.2562 68.5127 58.4127 68.5127H41.2865C40.443 68.5127 39.7574 67.8303 39.7574 66.9909V62.1214C39.7574 61.282 40.443 60.5996 41.2865 60.5996H58.4127C59.2562 60.5996 59.9419 61.282 59.9419 62.1214V66.9909ZM58.7842 41.7646C60.9981 47.2717 58.9874 55.8965 57.8175 58.7736H41.6268C37.9563 55.7494 39.6359 50.4624 39.7109 50.2341C39.8064 49.9452 39.7515 49.6266 39.564 49.3864L33.9456 42.1998C33.3184 41.396 33.0508 40.3999 33.1918 39.3928C33.3327 38.387 33.8631 37.5026 34.6863 36.901C36.25 35.7549 38.472 36.0057 39.7419 37.4668L47.9323 46.8921C48.2645 47.2737 48.8438 47.3141 49.2261 46.9859C49.6096 46.6554 49.6514 46.0789 49.3204 45.6984L48.2726 44.4927C48.303 44.2893 48.3205 44.0789 48.3205 43.8605V27.9367C51.5161 31.3632 57.174 37.7629 58.7842 41.7646ZM61.1652 13.4258C61.1652 14.2652 60.4795 14.9475 59.636 14.9475H48.3205V9.46929H55.9661C56.4727 9.46929 56.8836 9.06037 56.8836 8.55624C56.8836 8.05212 56.4727 7.6432 55.9661 7.6432H7.03399C6.52742 7.6432 6.11652 8.05212 6.11652 8.55624C6.11652 9.06037 6.52742 9.46929 7.03399 9.46929H14.6796V14.9475H3.36408C2.52062 14.9475 1.83495 14.2652 1.83495 13.4258V3.68669C1.83495 2.8473 2.52062 2.16495 3.36408 2.16495H59.636C60.4795 2.16495 61.1652 2.8473 61.1652 3.68669V13.4258Z" fill="#215CFF"/>
<path d="M40.3315 23.4974H37.8744V20.6128H40.3315C40.7007 20.6128 41 20.2476 41 19.7965C41 19.3454 40.7007 18.9799 40.3315 18.9799H37.8744V14.9774C37.8744 14.3931 37.7799 13.9643 37.5936 13.703C37.4165 13.4545 37.1837 13.3389 36.8612 13.3389C36.5536 13.3389 36.3295 13.4537 36.1559 13.7007C35.9717 13.9622 35.8783 14.3918 35.8783 14.9776V18.9804H31.2563L29.2911 15.3478C29.1229 15.0236 28.9648 14.7199 28.8112 14.4285C28.6729 14.1659 28.5381 13.9522 28.4107 13.7926C28.2979 13.6513 28.1694 13.542 28.0191 13.4579C27.8773 13.3788 27.697 13.3391 27.4837 13.3391C27.2116 13.3391 26.9646 13.4302 26.7281 13.6172C26.4941 13.8023 26.3323 14.031 26.2335 14.3166C26.1468 14.588 26.1009 15.004 26.1009 15.5408V18.9802H23.6682C23.2991 18.9802 23 19.3456 23 19.7967C23 20.2478 23.2991 20.613 23.6683 20.613H26.101V23.498H23.6683C23.2991 23.498 23 23.8633 23 24.3145C23 24.7655 23.2991 25.1306 23.6683 25.1306H26.101V29.7005C26.101 30.2675 26.1985 30.692 26.3917 30.9617C26.5754 31.2189 26.8083 31.3383 27.1246 31.3383C27.4298 31.3383 27.661 31.2184 27.8526 30.9607C28.0489 30.6967 28.1481 30.2725 28.1481 29.7005V25.1306H32.3305L34.5938 29.37C34.7512 29.6502 34.9137 29.9331 35.0757 30.2104C35.2219 30.4595 35.3815 30.6789 35.5497 30.8622C35.7013 31.028 35.8638 31.1495 36.0327 31.2236C36.2066 31.3001 36.4098 31.3389 36.6354 31.3389C37.2475 31.3389 37.8743 31.11 37.8743 29.4125V25.1306H40.3314C40.7007 25.1306 40.9999 24.765 40.9999 24.314C41 23.8631 40.7007 23.4974 40.3315 23.4974ZM35.8782 20.6128V23.4974H33.7005L32.14 20.6128H35.8782ZM28.1482 17.2982L29.0463 18.9799H28.1482V17.2982ZM28.1482 23.4974V20.6128H29.9183L31.4586 23.4974H28.1482ZM35.8782 27.5237L34.584 25.1306H35.8782V27.5237Z" fill="#FF8303"/>
</svg>
