<svg width="97" height="73" viewBox="0 0 97 73" fill="none" xmlns="http://www.w3.org/2000/svg">
<g clip-path="url(#clip0_76_4906)">
<mask id="path-1-inside-1_76_4906" fill="white">
<path d="M81.9775 45.7136C82.3593 45.7138 82.7327 45.8261 83.0512 46.0366C83.3698 46.2471 83.6195 46.5465 83.7695 46.8977L96.7707 69.7425C97.1259 70.4293 96.968 71.8107 96.9522 72.608H0.0390625V70.6345C0.0434624 70.28 0.144442 69.9334 0.331136 69.632L13.5139 46.7398C13.678 46.4276 13.9244 46.1662 14.2263 45.984C14.5282 45.8017 14.8742 45.7055 15.2269 45.7057H39.469L34.1091 36.4619C33.7969 36.0789 33.5145 35.6725 33.2644 35.2463L32.4277 33.7859C32.3547 33.8595 32.2725 33.9232 32.1829 33.9754L30.7936 34.7648L30.5489 34.8753C29.7743 35.2333 28.9034 35.3269 28.0704 35.1414C27.2374 34.956 26.4885 34.5019 25.9389 33.8491C25.8392 33.9859 25.713 34.1014 25.5679 34.1885L24.1785 34.9779C24.1006 35.0201 24.0186 35.0545 23.9338 35.0805C23.1002 35.4622 22.1597 35.5417 21.2739 35.3055C20.388 35.0692 19.612 34.532 19.0791 33.7859C19.0415 33.8442 18.9964 33.8973 18.9449 33.9438L17.5556 34.7332L17.3109 34.8437C13.1587 36.4225 10.9958 32.6334 9.29069 29.5548L8.82495 28.7654L6.72518 25.2605L6.66203 25.15C5.06746 22.103 5.13062 19.4427 5.20166 16.4115C5.20166 15.8984 5.20166 15.3853 5.20166 14.6669C5.20166 14.6669 5.20166 14.6669 5.20166 14.6196C5.16581 13.1471 5.4598 11.6852 6.06209 10.3411C6.61933 9.1426 7.67721 8.65537 8.82495 7.99995L20.9995 0.999914C21.6367 0.677736 21.6367 0.768424 22.3866 0.623257C23.0348 0.60517 23.3093 0.623344 23.8458 0.999895C25.0758 1.68469 26.1933 2.84581 26.9995 3.99987L41.1109 9.61486H41.1662C41.3398 9.69379 41.5293 9.77273 41.7345 9.87535L47.9233 6.31521L70.6735 45.7136H81.9775ZM40.2584 38.5538L47.3629 50.9788C47.8167 50.7157 48.318 50.5447 48.838 50.4757C49.3581 50.4067 49.8866 50.441 50.3934 50.5767C50.9001 50.7123 51.3751 50.9467 51.7911 51.2663C52.2071 51.5859 52.5559 51.9845 52.8175 52.4392L62.0771 47.095C61.5499 46.1774 61.4076 45.0884 61.6813 44.0662C61.9549 43.044 62.6223 42.1718 63.5374 41.6403L48.7048 15.8984C47.7861 16.4259 46.6959 16.5685 45.6724 16.2948C44.6489 16.0212 43.7752 15.3537 43.2423 14.438L36.1378 18.5507L36.422 19.0323L42.1845 29.0496C42.8014 28.3167 43.5413 27.6969 44.3711 27.2182C45.7335 26.4302 47.2989 26.0639 48.8695 26.1656C50.44 26.2674 51.9451 26.8326 53.1944 27.7898C54.4438 28.747 55.3812 30.0532 55.8881 31.5431C56.395 33.0331 56.4487 34.6399 56.0423 36.1604C55.636 37.6809 54.7879 39.0467 53.6052 40.0852C52.4226 41.1236 50.9586 41.788 49.3983 41.9944C47.838 42.2007 46.2516 41.9397 44.8397 41.2444C43.4278 40.5491 42.2538 39.4507 41.4661 38.0881L41.4109 37.9934L41.1899 38.1197C40.8831 38.2994 40.5575 38.445 40.2189 38.5538H40.2584ZM33.7696 14.4854L38.6796 11.6357L25.9941 6.31521C25.8202 6.23423 25.6705 6.10902 25.56 5.9521C24.9295 4.99959 24.1033 4.1923 23.1366 3.58393C22.9099 3.4483 22.6508 3.37668 22.3866 3.37668C22.1225 3.37668 21.8634 3.4483 21.6367 3.58393L10.1274 10.2622C9.3949 10.6912 8.81308 11.3364 8.46183 12.1093C8.04346 12.9776 8.16976 13.8854 8.16976 15.2037C8.17322 15.2273 8.17322 15.2512 8.16976 15.2748C8.16976 15.7721 8.16976 16.4194 8.16976 17.043C8.10661 19.7506 7.75928 21.3057 9.07756 23.8633L11.13 27.2498C11.1703 27.2907 11.2025 27.3389 11.2247 27.3919C11.2247 27.4392 11.4378 27.7629 11.6825 28.1813C12.9692 30.4626 14.548 33.2886 16.8293 32.4361L17.8477 31.844C17.4924 31.1967 17.153 30.5257 16.8293 29.8784C16.5057 29.2311 16.2689 28.7338 15.9689 28.2207C15.8927 28.0896 15.8431 27.9447 15.8229 27.7944C15.8027 27.6441 15.8123 27.4913 15.8511 27.3447C15.89 27.1981 15.9573 27.0606 16.0493 26.94C16.1413 26.8194 16.2562 26.7182 16.3873 26.642C16.5184 26.5658 16.6633 26.5161 16.8136 26.4959C16.9639 26.4757 17.1167 26.4853 17.2633 26.5242C17.4099 26.563 17.5474 26.6304 17.668 26.7224C17.7886 26.8144 17.8899 26.9292 17.9661 27.0603C18.266 27.5813 18.5818 28.2049 18.9054 28.8522C20.0106 31.0704 21.2736 33.5886 23.1445 32.9255L24.4706 32.1361C24.5474 32.0972 24.6265 32.0629 24.7074 32.0335C24.2496 31.2441 23.8312 30.4547 23.4365 29.6653C23.1445 29.0812 22.8761 28.5286 22.5761 28.0076C22.4805 27.8779 22.4132 27.7296 22.3785 27.5723C22.3437 27.415 22.3424 27.2521 22.3745 27.0942C22.4066 26.9363 22.4714 26.7869 22.5648 26.6557C22.6582 26.5244 22.7781 26.4142 22.9167 26.3321C23.0554 26.25 23.2097 26.1979 23.3697 26.1792C23.5297 26.1604 23.6919 26.1754 23.8458 26.2232C23.9996 26.271 24.1417 26.3505 24.263 26.4567C24.3842 26.5628 24.4818 26.6931 24.5496 26.8393C24.8495 27.3524 25.1574 27.9839 25.4889 28.6312C26.5862 30.8415 27.8571 33.3675 29.7201 32.7045L31.0541 31.9151C31.1421 31.861 31.238 31.821 31.3383 31.7967L29.0885 27.9445C28.9347 27.6796 28.8923 27.3645 28.9708 27.0684C29.0492 26.7723 29.2421 26.5196 29.5069 26.3657C29.7718 26.2118 30.0869 26.1694 30.383 26.2479C30.679 26.3263 30.9318 26.5192 31.0857 26.784L35.3089 34.0938C36.3193 35.8462 37.6771 36.5488 38.8612 36.4619C39.2812 36.4406 39.69 36.3188 40.0531 36.1067C40.2377 36.0035 40.4076 35.8761 40.5584 35.7278C40.5584 35.6331 40.6452 35.5857 40.7478 35.5305C40.8274 35.4453 40.8988 35.3528 40.9609 35.2542C41.2812 34.6869 41.4495 34.0466 41.4495 33.3952C41.4495 32.7438 41.2812 32.1034 40.9609 31.5362V31.473C40.882 31.3072 40.7873 31.1336 40.6925 30.9599L31.8514 15.7879C31.7065 15.5337 31.6629 15.2341 31.7294 14.9492C31.796 14.6642 31.9677 14.4149 32.2103 14.2512C32.4528 14.0875 32.7483 14.0215 33.0374 14.0664C33.3266 14.1113 33.5881 14.2638 33.7696 14.4933V14.4854ZM41.6635 49.6053H16.3557L5.16219 68.6769H91.8686L80.8171 49.5737H67.2318L54.3016 57.0729H66.2371C66.5031 57.0559 66.7697 57.0937 67.0205 57.1838C67.2713 57.2739 67.5009 57.4145 67.6953 57.5968C67.8896 57.7792 68.0445 57.9994 68.1504 58.244C68.2563 58.4885 68.3109 58.7522 68.3109 59.0187C68.3109 59.2852 68.2563 59.5489 68.1504 59.7934C68.0445 60.038 67.8896 60.2582 67.6953 60.4406C67.5009 60.6229 67.2713 60.7635 67.0205 60.8536C66.7697 60.9437 66.5031 60.9815 66.2371 60.9646H33.6038C33.3389 60.9815 33.0734 60.9439 32.8236 60.8542C32.5738 60.7644 32.345 60.6244 32.1514 60.4428C31.9579 60.2612 31.8036 60.0418 31.6981 59.7982C31.5926 59.5547 31.5382 59.292 31.5382 59.0266C31.5382 58.7612 31.5926 58.4985 31.6981 58.255C31.8036 58.0114 31.9579 57.792 32.1514 57.6104C32.345 57.4288 32.5738 57.2888 32.8236 57.199C33.0734 57.1093 33.3389 57.0717 33.6038 57.0887H46.013L41.6951 49.621L41.6635 49.6053Z"/>
</mask>
<path d="M81.9775 45.7136C82.3593 45.7138 82.7327 45.8261 83.0512 46.0366C83.3698 46.2471 83.6195 46.5465 83.7695 46.8977L96.7707 69.7425C97.1259 70.4293 96.968 71.8107 96.9522 72.608H0.0390625V70.6345C0.0434624 70.28 0.144442 69.9334 0.331136 69.632L13.5139 46.7398C13.678 46.4276 13.9244 46.1662 14.2263 45.984C14.5282 45.8017 14.8742 45.7055 15.2269 45.7057H39.469L34.1091 36.4619C33.7969 36.0789 33.5145 35.6725 33.2644 35.2463L32.4277 33.7859C32.3547 33.8595 32.2725 33.9232 32.1829 33.9754L30.7936 34.7648L30.5489 34.8753C29.7743 35.2333 28.9034 35.3269 28.0704 35.1414C27.2374 34.956 26.4885 34.5019 25.9389 33.8491C25.8392 33.9859 25.713 34.1014 25.5679 34.1885L24.1785 34.9779C24.1006 35.0201 24.0186 35.0545 23.9338 35.0805C23.1002 35.4622 22.1597 35.5417 21.2739 35.3055C20.388 35.0692 19.612 34.532 19.0791 33.7859C19.0415 33.8442 18.9964 33.8973 18.9449 33.9438L17.5556 34.7332L17.3109 34.8437C13.1587 36.4225 10.9958 32.6334 9.29069 29.5548L8.82495 28.7654L6.72518 25.2605L6.66203 25.15C5.06746 22.103 5.13062 19.4427 5.20166 16.4115C5.20166 15.8984 5.20166 15.3853 5.20166 14.6669C5.20166 14.6669 5.20166 14.6669 5.20166 14.6196C5.16581 13.1471 5.4598 11.6852 6.06209 10.3411C6.61933 9.1426 7.67721 8.65537 8.82495 7.99995L20.9995 0.999914C21.6367 0.677736 21.6367 0.768424 22.3866 0.623257C23.0348 0.60517 23.3093 0.623344 23.8458 0.999895C25.0758 1.68469 26.1933 2.84581 26.9995 3.99987L41.1109 9.61486H41.1662C41.3398 9.69379 41.5293 9.77273 41.7345 9.87535L47.9233 6.31521L70.6735 45.7136H81.9775ZM40.2584 38.5538L47.3629 50.9788C47.8167 50.7157 48.318 50.5447 48.838 50.4757C49.3581 50.4067 49.8866 50.441 50.3934 50.5767C50.9001 50.7123 51.3751 50.9467 51.7911 51.2663C52.2071 51.5859 52.5559 51.9845 52.8175 52.4392L62.0771 47.095C61.5499 46.1774 61.4076 45.0884 61.6813 44.0662C61.9549 43.044 62.6223 42.1718 63.5374 41.6403L48.7048 15.8984C47.7861 16.4259 46.6959 16.5685 45.6724 16.2948C44.6489 16.0212 43.7752 15.3537 43.2423 14.438L36.1378 18.5507L36.422 19.0323L42.1845 29.0496C42.8014 28.3167 43.5413 27.6969 44.3711 27.2182C45.7335 26.4302 47.2989 26.0639 48.8695 26.1656C50.44 26.2674 51.9451 26.8326 53.1944 27.7898C54.4438 28.747 55.3812 30.0532 55.8881 31.5431C56.395 33.0331 56.4487 34.6399 56.0423 36.1604C55.636 37.6809 54.7879 39.0467 53.6052 40.0852C52.4226 41.1236 50.9586 41.788 49.3983 41.9944C47.838 42.2007 46.2516 41.9397 44.8397 41.2444C43.4278 40.5491 42.2538 39.4507 41.4661 38.0881L41.4109 37.9934L41.1899 38.1197C40.8831 38.2994 40.5575 38.445 40.2189 38.5538H40.2584ZM33.7696 14.4854L38.6796 11.6357L25.9941 6.31521C25.8202 6.23423 25.6705 6.10902 25.56 5.9521C24.9295 4.99959 24.1033 4.1923 23.1366 3.58393C22.9099 3.4483 22.6508 3.37668 22.3866 3.37668C22.1225 3.37668 21.8634 3.4483 21.6367 3.58393L10.1274 10.2622C9.3949 10.6912 8.81308 11.3364 8.46183 12.1093C8.04346 12.9776 8.16976 13.8854 8.16976 15.2037C8.17322 15.2273 8.17322 15.2512 8.16976 15.2748C8.16976 15.7721 8.16976 16.4194 8.16976 17.043C8.10661 19.7506 7.75928 21.3057 9.07756 23.8633L11.13 27.2498C11.1703 27.2907 11.2025 27.3389 11.2247 27.3919C11.2247 27.4392 11.4378 27.7629 11.6825 28.1813C12.9692 30.4626 14.548 33.2886 16.8293 32.4361L17.8477 31.844C17.4924 31.1967 17.153 30.5257 16.8293 29.8784C16.5057 29.2311 16.2689 28.7338 15.9689 28.2207C15.8927 28.0896 15.8431 27.9447 15.8229 27.7944C15.8027 27.6441 15.8123 27.4913 15.8511 27.3447C15.89 27.1981 15.9573 27.0606 16.0493 26.94C16.1413 26.8194 16.2562 26.7182 16.3873 26.642C16.5184 26.5658 16.6633 26.5161 16.8136 26.4959C16.9639 26.4757 17.1167 26.4853 17.2633 26.5242C17.4099 26.563 17.5474 26.6304 17.668 26.7224C17.7886 26.8144 17.8899 26.9292 17.9661 27.0603C18.266 27.5813 18.5818 28.2049 18.9054 28.8522C20.0106 31.0704 21.2736 33.5886 23.1445 32.9255L24.4706 32.1361C24.5474 32.0972 24.6265 32.0629 24.7074 32.0335C24.2496 31.2441 23.8312 30.4547 23.4365 29.6653C23.1445 29.0812 22.8761 28.5286 22.5761 28.0076C22.4805 27.8779 22.4132 27.7296 22.3785 27.5723C22.3437 27.415 22.3424 27.2521 22.3745 27.0942C22.4066 26.9363 22.4714 26.7869 22.5648 26.6557C22.6582 26.5244 22.7781 26.4142 22.9167 26.3321C23.0554 26.25 23.2097 26.1979 23.3697 26.1792C23.5297 26.1604 23.6919 26.1754 23.8458 26.2232C23.9996 26.271 24.1417 26.3505 24.263 26.4567C24.3842 26.5628 24.4818 26.6931 24.5496 26.8393C24.8495 27.3524 25.1574 27.9839 25.4889 28.6312C26.5862 30.8415 27.8571 33.3675 29.7201 32.7045L31.0541 31.9151C31.1421 31.861 31.238 31.821 31.3383 31.7967L29.0885 27.9445C28.9347 27.6796 28.8923 27.3645 28.9708 27.0684C29.0492 26.7723 29.2421 26.5196 29.5069 26.3657C29.7718 26.2118 30.0869 26.1694 30.383 26.2479C30.679 26.3263 30.9318 26.5192 31.0857 26.784L35.3089 34.0938C36.3193 35.8462 37.6771 36.5488 38.8612 36.4619C39.2812 36.4406 39.69 36.3188 40.0531 36.1067C40.2377 36.0035 40.4076 35.8761 40.5584 35.7278C40.5584 35.6331 40.6452 35.5857 40.7478 35.5305C40.8274 35.4453 40.8988 35.3528 40.9609 35.2542C41.2812 34.6869 41.4495 34.0466 41.4495 33.3952C41.4495 32.7438 41.2812 32.1034 40.9609 31.5362V31.473C40.882 31.3072 40.7873 31.1336 40.6925 30.9599L31.8514 15.7879C31.7065 15.5337 31.6629 15.2341 31.7294 14.9492C31.796 14.6642 31.9677 14.4149 32.2103 14.2512C32.4528 14.0875 32.7483 14.0215 33.0374 14.0664C33.3266 14.1113 33.5881 14.2638 33.7696 14.4933V14.4854ZM41.6635 49.6053H16.3557L5.16219 68.6769H91.8686L80.8171 49.5737H67.2318L54.3016 57.0729H66.2371C66.5031 57.0559 66.7697 57.0937 67.0205 57.1838C67.2713 57.2739 67.5009 57.4145 67.6953 57.5968C67.8896 57.7792 68.0445 57.9994 68.1504 58.244C68.2563 58.4885 68.3109 58.7522 68.3109 59.0187C68.3109 59.2852 68.2563 59.5489 68.1504 59.7934C68.0445 60.038 67.8896 60.2582 67.6953 60.4406C67.5009 60.6229 67.2713 60.7635 67.0205 60.8536C66.7697 60.9437 66.5031 60.9815 66.2371 60.9646H33.6038C33.3389 60.9815 33.0734 60.9439 32.8236 60.8542C32.5738 60.7644 32.345 60.6244 32.1514 60.4428C31.9579 60.2612 31.8036 60.0418 31.6981 59.7982C31.5926 59.5547 31.5382 59.292 31.5382 59.0266C31.5382 58.7612 31.5926 58.4985 31.6981 58.255C31.8036 58.0114 31.9579 57.792 32.1514 57.6104C32.345 57.4288 32.5738 57.2888 32.8236 57.199C33.0734 57.1093 33.3389 57.0717 33.6038 57.0887H46.013L41.6951 49.621L41.6635 49.6053Z" stroke="white" stroke-width="3" mask="url(#path-1-inside-1_76_4906)"/>
<path d="M55 33.5001C53.4314 25.7033 45 26.5 42.5 31C43 32.5 42.6667 35.3333 42 36.5001C47.5 45.0001 55.9998 38.4698 55 33.5001Z" fill="#FF8303"/>
</g>
<defs>
<clipPath id="clip0_76_4906">
<rect width="97" height="72.6079" fill="white"/>
</clipPath>
</defs>
</svg>
