<svg width="64" height="71" viewBox="0 0 64 71" fill="none" xmlns="http://www.w3.org/2000/svg">
<path d="M57.1444 35.3354V6.1722C57.1444 1.55803 53.4057 0.338867 51.4295 0.338867H12.5693C8.04886 0.338867 6.85445 3.39087 6.85445 5.00553V35.3354H0V49.3354H64V35.3354H57.1444ZM18.2122 2.6722H45.782C46.3112 7.5302 50.0979 11.3965 54.8585 11.9367V46.9915H46.2427C48.8258 43.7085 50.2877 39.5984 50.2877 35.3389C50.2877 25.0465 42.0834 16.6722 32 16.6722C21.9166 16.6722 13.7123 25.0465 13.7123 35.3389C13.7123 39.5984 15.1753 43.7085 17.7573 46.9915H9.14041V10.791C14.1581 10.3734 17.6933 7.19887 18.2122 2.6722ZM20.8308 46.9915C17.7619 43.9419 15.9983 39.7267 15.9983 35.3389C15.9983 26.3322 23.1762 19.0055 32 19.0055C40.8238 19.0055 48.0017 26.3322 48.0017 35.3389C48.0017 39.7279 46.2381 43.9419 43.1703 46.9915H20.8308ZM54.8585 6.1722V9.57887C51.3621 9.06553 48.5961 6.2422 48.092 2.6722H51.4227C51.9964 2.6792 54.8585 2.87987 54.8585 6.1722ZM12.5693 2.6722H15.9046C15.3696 6.26553 12.3785 8.09487 9.14041 8.43903V5.02187C9.15184 4.62987 9.37015 2.6722 12.5693 2.6722ZM2.28596 37.6687H6.85445V47.0009H2.28596V37.6687ZM61.714 47.0009H57.1444V37.6687H61.714V47.0009ZM40.0969 58.6722H36.6702V52.8389C36.6702 52.1937 36.1593 51.6722 35.5272 51.6722H26.3788C25.7479 51.6722 25.2358 52.1937 25.2358 52.8389V58.6722H21.8092C21.3474 58.6722 20.9302 58.9557 20.7531 59.392C20.5759 59.8284 20.6742 60.33 21.0011 60.6637L30.1449 69.997C30.3678 70.2245 30.6604 70.3389 30.953 70.3389C31.2456 70.3389 31.5382 70.2245 31.7611 69.997L40.905 60.6637C41.2318 60.33 41.3301 59.8284 41.153 59.392C40.977 58.9557 40.5586 58.6722 40.0969 58.6722ZM30.953 67.5225L24.5683 61.0055H26.3777C27.0086 61.0055 27.5207 60.484 27.5207 59.8389V54.0055H34.3831V59.8389C34.3831 60.484 34.894 61.0055 35.5261 61.0055H37.3366L30.953 67.5225Z" fill="#215CFF"/>
<path d="M41.2572 35.6262H38.5271V32.421H41.2572C41.6675 32.421 42 32.0152 42 31.514C42 31.0128 41.6675 30.6067 41.2572 30.6067H38.5271V26.1594C38.5271 25.5102 38.4221 25.0337 38.2151 24.7435C38.0183 24.4674 37.7596 24.3389 37.4014 24.3389C37.0595 24.3389 36.8106 24.4665 36.6176 24.7409C36.413 25.0314 36.3092 25.5088 36.3092 26.1597V30.6073H31.1737L28.9901 26.571C28.8032 26.2108 28.6275 25.8734 28.4569 25.5495C28.3032 25.2578 28.1534 25.0204 28.0119 24.843C27.8866 24.686 27.7438 24.5645 27.5768 24.4711C27.4192 24.3833 27.2189 24.3392 26.9818 24.3392C26.6795 24.3392 26.4051 24.4403 26.1424 24.6482C25.8823 24.8538 25.7026 25.1079 25.5928 25.4253C25.4965 25.7268 25.4455 26.189 25.4455 26.7855V30.607H22.7425C22.3323 30.607 22 31.0131 22 31.5143C22 32.0155 22.3323 32.4213 22.7425 32.4213H25.4455V35.6268H22.7425C22.3323 35.6268 22 36.0327 22 36.5341C22 37.0351 22.3323 37.4408 22.7425 37.4408H25.4455V42.5185C25.4455 43.1484 25.5539 43.6201 25.7685 43.9198C25.9727 44.2056 26.2315 44.3383 26.5829 44.3383C26.922 44.3383 27.1788 44.205 27.3918 43.9187C27.6099 43.6254 27.7202 43.154 27.7202 42.5185V37.4408H32.3672L34.882 42.1512C35.0569 42.4626 35.2374 42.7769 35.4175 43.085C35.5799 43.3618 35.7572 43.6056 35.9442 43.8093C36.1126 43.9935 36.2931 44.1285 36.4808 44.2108C36.674 44.2958 36.8998 44.3389 37.1504 44.3389C37.8305 44.3389 38.527 44.0845 38.527 42.1984V37.4408H41.2572C41.6674 37.4408 41.9999 37.0345 41.9999 36.5335C42 36.0324 41.6675 35.6262 41.2572 35.6262ZM36.3091 32.421V35.6261H33.8894L32.1556 32.421H36.3091ZM27.7202 28.7382L28.7181 30.6067H27.7202V28.7382ZM27.7202 35.6262V32.421H29.687L31.3984 35.6262H27.7202ZM36.3091 40.0998L34.8711 37.4408H36.3091V40.0998Z" fill="#FF8303"/>
</svg>
