<svg width="44" height="72" viewBox="0 0 44 72" fill="none" xmlns="http://www.w3.org/2000/svg">
<path d="M13.5557 34.5045L18.8997 38.8123C19.0371 38.9231 19.133 39.0712 19.1738 39.2355C19.2145 39.3998 19.1979 39.5717 19.1264 39.7267L14.4124 49.9421C14.3358 50.1079 14.3223 50.2928 14.3741 50.4666C14.4258 50.6405 14.5397 50.793 14.6972 50.8994C14.8547 51.0058 15.0466 51.0597 15.2416 51.0524C15.4365 51.0452 15.623 50.9771 15.7708 50.8594L29.9676 39.5434C30.0572 39.472 30.1299 39.3844 30.1813 39.286C30.2327 39.1875 30.2617 39.0804 30.2664 38.9712C30.2711 38.862 30.2515 38.753 30.2088 38.6511C30.1661 38.5492 30.1012 38.4564 30.0181 38.3786L24.0866 32.8266C23.9688 32.7163 23.8883 32.5767 23.8549 32.4249C23.8215 32.273 23.8367 32.1155 23.8987 31.9714L28.1382 22.1123C28.2115 21.9419 28.2191 21.7535 28.1597 21.5786C28.1003 21.4037 27.9776 21.2531 27.8121 21.1519C27.6467 21.0508 27.4486 21.0054 27.2512 21.0234C27.0538 21.0413 26.8691 21.1215 26.7282 21.2504L13.5158 33.336C13.4315 33.4132 13.3652 33.5056 13.3212 33.6075C13.2772 33.7094 13.2565 33.8186 13.2602 33.9283C13.2639 34.038 13.2921 34.1457 13.343 34.2449C13.3938 34.344 13.4662 34.4324 13.5557 34.5045Z" fill="#FF8303"/>
<path d="M30.0169 38.3785L24.0854 32.8266C23.9676 32.7163 23.8871 32.5767 23.8537 32.4249C23.8203 32.273 23.8355 32.1155 23.8974 31.9714L28.137 22.1123C28.2103 21.9419 28.2179 21.7535 28.1585 21.5786C28.0991 21.4037 27.9764 21.2531 27.8109 21.1519C27.6455 21.0508 27.4474 21.0054 27.25 21.0234C27.0526 21.0413 26.8679 21.1215 26.727 21.2504L22.5445 25.076L19.5794 31.9712C19.5175 32.1152 19.5022 32.2728 19.5356 32.4247C19.569 32.5766 19.6495 32.7162 19.7674 32.8265L25.6989 38.3785C25.782 38.4563 25.8469 38.549 25.8896 38.6509C25.9323 38.7529 25.9519 38.8618 25.9472 38.971C25.9425 39.0802 25.9135 39.1874 25.8621 39.2858C25.8108 39.3843 25.738 39.4719 25.6485 39.5433L15.4633 47.6615L14.411 49.9419C14.3345 50.1078 14.321 50.2927 14.3727 50.4665C14.4244 50.6403 14.5383 50.7929 14.6958 50.8993C14.8534 51.0056 15.0452 51.0596 15.2402 51.0523C15.4351 51.045 15.6217 50.977 15.7694 50.8592L29.9662 39.5433C30.0558 39.4719 30.1285 39.3843 30.1799 39.2858C30.2313 39.1874 30.2603 39.0802 30.265 38.971C30.2698 38.8618 30.2502 38.7529 30.2075 38.651C30.1648 38.549 30.0998 38.4563 30.0168 38.3785H30.0169Z" fill="#FF8303"/>
<path d="M5.35742 1.18652H38.6426C39.9432 1.188 41.1875 1.69181 42.1035 2.58398C43.0191 3.47572 43.5317 4.68185 43.5332 5.9375V66.7402C43.5316 67.9958 43.019 69.2021 42.1035 70.0938C41.1875 70.9859 39.9431 71.4897 38.6426 71.4912H5.35742L5.11426 71.4854C3.90256 71.4255 2.75525 70.9301 1.89648 70.0938C1.03808 69.2577 0.53356 68.1451 0.472656 66.9746L0.466797 66.7393V5.9375L0.472656 5.70312C0.533516 4.53255 1.03803 3.42008 1.89648 2.58398C2.75526 1.74758 3.90251 1.25224 5.11426 1.19238L5.35742 1.18652ZM1.67676 66.7402L1.68164 66.9199C1.7281 67.8119 2.11179 68.656 2.75977 69.2871C3.45054 69.9599 4.38471 70.3358 5.35645 70.3369H38.6436C39.6153 70.3358 40.5495 69.9599 41.2402 69.2871C41.9313 68.614 42.322 67.6986 42.3232 66.7412V58.9688H1.67676V66.7402ZM20.9443 62.1934C21.4479 61.9902 22.0027 61.9373 22.5381 62.041C23.0734 62.1447 23.5637 62.4 23.9473 62.7734C24.3307 63.1469 24.5902 63.6213 24.6953 64.1357C24.8004 64.6501 24.7464 65.1837 24.54 65.6689C24.3336 66.1542 23.9832 66.5711 23.5312 66.8652C23.079 67.1595 22.5461 67.3164 22 67.3164C21.2676 67.3155 20.5679 67.0321 20.0537 66.5312C19.54 66.0309 19.253 65.3554 19.252 64.6533C19.252 64.1292 19.4116 63.6156 19.7119 63.1777C20.0124 62.7398 20.4408 62.3965 20.9443 62.1934ZM22 63.1436C21.5963 63.144 21.2061 63.2995 20.917 63.5811C20.6275 63.863 20.4624 64.2482 20.4619 64.6523V64.6533C20.462 64.9547 20.5541 65.2485 20.7246 65.4971C20.895 65.7453 21.1357 65.937 21.415 66.0498C21.6945 66.1625 22.0019 66.1921 22.2979 66.1348C22.5937 66.0774 22.8672 65.9356 23.083 65.7256C23.2989 65.5153 23.4475 65.2454 23.5078 64.9502C23.5681 64.6548 23.5369 64.3487 23.4189 64.0713C23.301 63.794 23.1023 63.559 22.8496 63.3945C22.6285 63.2507 22.3744 63.1663 22.1123 63.1475L22 63.1436ZM1.67676 57.8145H42.3232V10.6885H1.67676V57.8145ZM5.35645 2.34082C4.38471 2.34192 3.45054 2.71784 2.75977 3.39062C2.06866 4.06378 1.67793 4.97914 1.67676 5.93652V9.53418H42.3232V5.93652C42.322 4.97915 41.9313 4.06377 41.2402 3.39062C40.5495 2.71785 39.6153 2.34196 38.6436 2.34082H5.35645ZM19.165 5.36035H24.835C24.9992 5.36035 25.155 5.42369 25.2676 5.5332C25.3797 5.64244 25.4404 5.78847 25.4404 5.9375C25.4404 6.08643 25.3796 6.23163 25.2676 6.34082C25.155 6.45046 24.9993 6.51465 24.835 6.51465H19.165C19.0007 6.51465 18.845 6.45046 18.7324 6.34082C18.6204 6.23163 18.5596 6.08643 18.5596 5.9375C18.5596 5.78847 18.6203 5.64244 18.7324 5.5332C18.845 5.42369 19.0008 5.36035 19.165 5.36035Z" stroke="#215CFF" stroke-width="0.932812"/>
</svg>
