<svg width="40" height="40" viewBox="0 0 40 40" fill="none" xmlns="http://www.w3.org/2000/svg">
<path fill-rule="evenodd" clip-rule="evenodd" d="M32.7966 35.5568H8.16232C7.52199 35.5568 7 35.0359 7 34.3945V28.6957C7 28.0554 7.52199 27.5334 8.16232 27.5334H32.7966C33.4369 27.5334 33.9589 28.0543 33.9589 28.6957V34.3945C33.9589 35.0359 33.4369 35.5568 32.7966 35.5568ZM32.6672 34.2651V28.824H8.29171V34.2651H32.6672Z" fill="url(#paint0_linear_361_558)"/>
<path fill-rule="evenodd" clip-rule="evenodd" d="M29.878 38.6092H11.0796C10.1639 38.6092 9.41853 37.8638 9.41853 36.9481V34.9121C9.41853 34.556 9.70718 34.2663 10.0644 34.2663C10.4205 34.2663 10.7102 34.5549 10.7102 34.9121V36.9481C10.7102 37.1483 10.8794 37.3175 11.0796 37.3175H29.878C30.0782 37.3175 30.2474 37.1483 30.2474 36.9481V34.9121C30.2474 34.556 30.536 34.2663 30.8932 34.2663C31.2493 34.2663 31.5391 34.5549 31.5391 34.9121V36.9481C31.5391 37.8638 30.7937 38.6092 29.878 38.6092Z" fill="url(#paint1_linear_361_558)"/>
<path fill-rule="evenodd" clip-rule="evenodd" d="M28.7644 28.8241C28.4083 28.8241 28.1186 28.5355 28.1186 28.1783V26.442C28.1186 25.8404 27.6298 25.3515 27.0281 25.3515H13.9286C13.3269 25.3515 12.8381 25.8404 12.8381 26.442V28.1783C12.8381 28.5344 12.5495 28.8241 12.1923 28.8241C11.8362 28.8241 11.5464 28.5355 11.5464 28.1783V26.442C11.5464 25.1281 12.6147 24.0598 13.9286 24.0598H27.0281C28.342 24.0598 29.4103 25.1281 29.4103 26.442V28.1783C29.4103 28.5355 29.1216 28.8241 28.7644 28.8241Z" fill="url(#paint2_linear_361_558)"/>
<path fill-rule="evenodd" clip-rule="evenodd" d="M23.7736 24.8934C22.3547 20.2308 22.7484 15.1038 24.9426 9.65717C25.3175 8.74479 25.4977 8.16197 25.511 7.31595C25.5541 4.53568 23.2649 2.29067 20.4758 2.29067C17.6999 2.29067 15.4405 4.54895 15.4405 7.3259C15.4405 8.58001 15.8873 9.36853 16.0001 9.64058C17.983 14.5586 18.6521 19.8305 17.1425 24.8912C17.0408 25.2329 16.6814 25.4275 16.3396 25.3247C15.9979 25.2229 15.8033 24.8635 15.905 24.5218C17.2299 20.0793 16.8627 15.2432 14.8124 10.1471C12.7211 5.92802 15.8033 1.00006 20.4758 1.00006C23.9826 1.00006 26.8558 3.8301 26.8016 7.33586C26.7839 8.48269 26.4908 9.28669 26.1381 10.1438C24.0578 15.3062 23.6774 20.1435 25.0078 24.5174C25.1118 24.8591 24.9193 25.2196 24.5776 25.3236C24.2315 25.4275 23.8753 25.2296 23.7736 24.8934Z" fill="url(#paint3_linear_361_558)"/>
<path fill-rule="evenodd" clip-rule="evenodd" d="M20.4762 10.8938C18.5298 10.8938 16.9473 9.31121 16.9473 7.36479C16.9473 5.41838 18.5309 3.83582 20.4762 3.83582C22.4227 3.83582 24.0052 5.41949 24.0052 7.36479C24.0063 9.31121 22.4227 10.8938 20.4762 10.8938ZM20.4762 5.12642C19.242 5.12642 18.2379 6.13059 18.2379 7.36479C18.2379 8.599 19.242 9.60317 20.4762 9.60317C21.7104 9.60317 22.7146 8.599 22.7146 7.36479C22.7146 6.13059 21.7104 5.12642 20.4762 5.12642Z" fill="#FF8303"/>
<defs>
<linearGradient id="paint0_linear_361_558" x1="24.3601" y1="38.6092" x2="29.2715" y2="-3.21235" gradientUnits="userSpaceOnUse">
<stop stop-color="#1D3FF0"/>
<stop offset="1" stop-color="#215CFF"/>
</linearGradient>
<linearGradient id="paint1_linear_361_558" x1="24.3601" y1="38.6092" x2="29.2715" y2="-3.21235" gradientUnits="userSpaceOnUse">
<stop stop-color="#1D3FF0"/>
<stop offset="1" stop-color="#215CFF"/>
</linearGradient>
<linearGradient id="paint2_linear_361_558" x1="24.3601" y1="38.6092" x2="29.2715" y2="-3.21235" gradientUnits="userSpaceOnUse">
<stop stop-color="#1D3FF0"/>
<stop offset="1" stop-color="#215CFF"/>
</linearGradient>
<linearGradient id="paint3_linear_361_558" x1="24.3601" y1="38.6092" x2="29.2715" y2="-3.21235" gradientUnits="userSpaceOnUse">
<stop stop-color="#1D3FF0"/>
<stop offset="1" stop-color="#215CFF"/>
</linearGradient>
</defs>
</svg>
