<svg width="32" height="32" viewBox="0 0 32 32" fill="none" xmlns="http://www.w3.org/2000/svg">
<path d="M21.2499 23.3748V25.9998H24.7187C25.3643 25.9998 26.383 26.8242 26.5918 27.4392C26.713 27.7961 26.7574 29.4029 26.6862 29.7798C26.6524 29.9561 26.4093 30.1617 26.2224 30.1286L5.65742 30.1236C5.52555 30.0986 5.3393 29.9148 5.31367 29.7798C5.2418 29.4029 5.2868 27.7961 5.40805 27.4392C5.6168 26.8242 6.63555 25.9998 7.28117 25.9998H10.7499V23.3748H3.28117C1.9143 23.3748 0.622422 22.2011 0.501172 20.8423L0.498047 4.40356C0.637422 3.08419 1.6468 2.03669 2.9668 1.87231H28.9718C30.2818 1.97856 31.2918 3.00981 31.4937 4.28731L31.5024 20.7829C31.3887 22.1698 30.1237 23.3742 28.7187 23.3742H21.2499V23.3748ZM2.98367 2.88981C2.12742 3.08856 1.5743 3.70544 1.49742 4.59106V20.5954C1.57805 21.5279 2.21617 22.2242 3.15367 22.3142C11.8537 22.2561 20.5787 22.4198 29.2637 22.2317C29.9918 21.9879 30.4393 21.3554 30.5024 20.5954V4.65356C30.4512 3.71544 29.7949 2.95419 28.8462 2.87231L2.98367 2.88981ZM20.1874 23.3748H11.8124V25.9998H20.1874V23.3748ZM25.6874 29.1248V27.9061C25.6874 27.8786 25.4468 27.4923 25.3999 27.4436C25.1349 27.1661 24.598 27.0198 24.2212 26.9973L7.6568 27.0004C7.3343 27.0579 6.96055 27.1492 6.70305 27.3592C6.60805 27.4367 6.31242 27.8248 6.31242 27.9061V29.1248H25.6874Z" fill="url(#paint0_linear_76_4889)"/>
<path d="M29.3537 4.02106C29.4243 4.09106 29.4743 4.22419 29.5337 4.30981L29.5299 19.1861L29.3112 19.4048H2.68867L2.46992 19.1861L2.43555 4.46731C2.49742 3.95481 3.0018 3.75294 3.46555 3.74731H28.5337C28.7962 3.75294 29.1643 3.83356 29.3537 4.02106ZM28.5624 4.81231H3.43742V18.4373H28.5624V4.81231Z" fill="url(#paint1_linear_76_4889)"/>
<path d="M12.2257 12.6594C12.2345 11.8237 11.3178 11.187 11.2263 10.4131C11.1432 9.71007 11.4572 9.01293 12.1019 8.69521C12.7079 8.39638 13.4449 8.60791 14.0984 8.55125C15.2493 8.45136 15.7277 7.23462 17.0645 7.59641C18.2737 7.92379 18.5889 9.56527 17.6437 10.3757C16.7766 11.1194 15.8129 10.5197 14.8195 10.8672C14.3406 11.0351 14.3725 11.1111 14.4657 11.5799C14.6965 12.7387 16.176 13.6024 15.1003 14.9254C14.0783 16.1824 12.969 15.0664 11.8282 15.0949C10.9099 15.1176 10.2388 15.8353 9.24994 15.369C7.93373 14.7482 8.0672 12.7618 9.46902 12.358C10.5044 12.0596 11.215 12.8755 12.2257 12.6589V12.6594ZM16.416 8.22514C16.0287 8.28012 15.5036 8.76404 15.1271 8.95039C14.1542 9.4318 13.6355 9.11744 12.7117 9.22111C11.7879 9.32477 11.5923 10.6171 12.4108 10.9914C13.1776 11.3419 13.6728 10.6431 14.2995 10.3472C15.2169 9.91404 15.6774 10.1499 16.5722 10.1025C17.9278 10.0303 17.7633 8.03333 16.4165 8.22514H16.416ZM13.7819 11.5299C13.4332 11.6407 13.1104 11.8011 12.7323 11.8032C12.8141 12.1079 12.9203 12.4084 12.9421 12.7265C12.9887 13.4006 12.6378 14.2442 13.3312 14.6878C13.9511 15.0844 14.7888 14.6433 14.7888 13.9013C14.7888 13.2247 13.6749 12.3345 13.7819 11.5299ZM12.229 13.3766H11.4945C11.1273 13.3766 10.491 13.0161 10.0986 12.9678C8.66654 12.7911 8.68837 15.0517 10.1326 14.8267C10.5053 14.7688 11.16 14.4259 11.4941 14.4259H12.2706C12.2185 14.0784 12.2253 13.7284 12.2286 13.3766H12.229Z" fill="#FF8303"/>
<path d="M22.6274 9.06309C22.8755 9.01734 23.1143 9.04672 23.3242 9.18607C23.448 9.26875 23.892 9.70735 23.9818 9.82948C24.2026 10.1313 24.2186 10.514 24.0171 10.8301C23.9092 10.9992 22.5246 12.3851 22.3592 12.4879C22.0965 12.6512 21.843 12.6457 21.5601 12.545C21.4795 12.5165 21.378 12.4103 21.3163 12.4098C21.2634 12.4098 21.0325 12.6323 20.9994 12.6814C20.905 12.822 21.0477 12.8791 21.0947 13.0105C21.1925 13.2841 21.2017 13.5212 21.0531 13.7831C20.9587 13.9498 19.6173 15.2953 19.428 15.4317C19.117 15.6559 18.7174 15.671 18.4027 15.4502C18.2528 15.3453 17.6971 14.772 17.6426 14.6154C17.5569 14.3711 17.5779 14.0677 17.7185 13.8478C17.8432 13.6522 19.2009 12.2877 19.3932 12.1647C19.64 12.0073 19.8905 11.9914 20.1621 12.0955C20.301 12.1488 20.3879 12.2923 20.5213 12.2025C20.5709 12.1694 20.7933 11.9385 20.7929 11.8856C20.7925 11.8327 20.6775 11.6938 20.646 11.6116C20.5419 11.3404 20.5574 11.0899 20.7152 10.8427C20.8731 10.5954 22.0415 9.44671 22.303 9.24063C22.4004 9.16382 22.5019 9.08534 22.6279 9.06183L22.6274 9.06309ZM21.7994 11.907L22.0323 11.8676L23.4572 10.4376C23.4929 10.3801 23.4845 10.3302 23.4572 10.2714C23.4413 10.2379 22.9653 9.76149 22.9313 9.74554C22.8604 9.71238 22.8012 9.7107 22.7412 9.76443L21.3171 11.1944L21.3163 11.4034C21.553 11.1877 22.0541 10.4674 22.3395 11.0105C22.5305 11.3744 21.9609 11.6355 21.7994 11.907ZM19.9526 12.7473L19.7197 12.7867L18.2948 14.2167C18.2591 14.2742 18.2675 14.3241 18.2948 14.3829C18.3107 14.4165 18.7867 14.8928 18.8207 14.9088C18.8916 14.942 18.9508 14.9436 19.0108 14.8899L20.4349 13.46L20.4357 13.2509C20.1994 13.4663 19.6979 14.1869 19.4129 13.6442C19.2156 13.2686 19.7906 13.0298 19.9531 12.7477L19.9526 12.7473Z" fill="#FF8303"/>
<path d="M12.7219 9.73289C13.3792 9.58935 13.464 10.6479 12.7534 10.5668C12.3022 10.5156 12.3052 9.82396 12.7219 9.73289Z" fill="#FF8303"/>
<path d="M16.4998 8.72587C17.0508 8.62975 17.1805 9.44609 16.7319 9.5485C16.0813 9.69707 15.9751 8.81778 16.4998 8.72587Z" fill="#FF8303"/>
<path d="M13.8143 13.4695C14.4598 13.4095 14.3595 14.5267 13.711 14.3106C13.2443 14.1553 13.3589 13.5119 13.8143 13.4695Z" fill="#FF8303"/>
<path d="M9.91104 13.4681C10.3265 13.4148 10.5956 14.0309 10.1692 14.2756C9.57947 14.6139 9.25587 13.5525 9.91104 13.4681Z" fill="#FF8303"/>
<defs>
<linearGradient id="paint0_linear_76_4889" x1="16.0002" y1="1.87231" x2="16.0002" y2="30.1321" gradientUnits="userSpaceOnUse">
<stop stop-color="#047CF4"/>
<stop offset="1" stop-color="#0431D7"/>
</linearGradient>
<linearGradient id="paint1_linear_76_4889" x1="15.9846" y1="3.74731" x2="15.9846" y2="19.4048" gradientUnits="userSpaceOnUse">
<stop stop-color="#047CF4"/>
<stop offset="1" stop-color="#0431D7"/>
</linearGradient>
</defs>
</svg>
