<svg width="40" height="40" viewBox="0 0 40 40" fill="none" xmlns="http://www.w3.org/2000/svg">
<path d="M27.3149 11.9486C27.5053 12.0297 27.7097 12.0727 27.9166 12.0752H34.2502C34.6702 12.0752 35.0729 11.9084 35.3699 11.6115C35.6668 11.3145 35.8337 10.9118 35.8337 10.4918C35.8337 10.0719 35.6668 9.66913 35.3699 9.37218C35.0729 9.07523 34.6702 8.90841 34.2502 8.90841H31.7326L36.9579 3.69898C37.256 3.40082 37.4235 2.99642 37.4235 2.57476C37.4235 2.15309 37.256 1.74869 36.9579 1.45053C36.6597 1.15237 36.2553 0.984863 35.8337 0.984863C35.412 0.984863 35.0076 1.15237 34.7094 1.45053L29.5 6.6758V4.15817C29.5 3.73822 29.3332 3.33547 29.0362 3.03853C28.7393 2.74158 28.3365 2.57476 27.9166 2.57476C27.4966 2.57476 27.0939 2.74158 26.7969 3.03853C26.5 3.33547 26.3332 3.73822 26.3332 4.15817V10.4918C26.3357 10.6987 26.3787 10.9032 26.4598 11.0935C26.6205 11.4804 26.928 11.7879 27.3149 11.9486ZM38.6838 16.5405C38.6082 16.1205 38.3689 15.7478 38.0185 15.5043C37.6681 15.2608 37.2353 15.1665 36.8154 15.2421C36.3954 15.3177 36.0227 15.557 35.7792 15.9074C35.5357 16.2578 35.4414 16.6905 35.517 17.1105C35.7032 18.0605 35.8091 19.0245 35.8337 19.9923C35.8337 23.124 34.905 26.1854 33.1651 28.7893C31.4252 31.3932 28.9523 33.4227 26.059 34.6211C23.1657 35.8196 19.982 36.1332 16.9104 35.5222C13.8389 34.9112 11.0175 33.4032 8.8031 31.1887C6.58865 28.9743 5.0806 26.1529 4.46963 23.0814C3.85867 20.0099 4.17224 16.8262 5.37069 13.9328C6.56914 11.0395 8.59864 8.56658 11.2025 6.8267C13.8065 5.08682 16.8678 4.15817 19.9995 4.15817C20.4795 4.13409 20.9604 4.13409 21.4404 4.15817C21.8484 4.19883 22.2563 4.07963 22.5782 3.82565C22.9001 3.57167 23.111 3.20271 23.1663 2.79643C23.1859 2.58834 23.1641 2.37842 23.1022 2.1788C23.0402 1.97917 22.9393 1.79379 22.8054 1.63334C22.6714 1.47289 22.507 1.34055 22.3217 1.24395C22.1363 1.14735 21.9337 1.08841 21.7254 1.07051C21.1554 1.07051 20.5854 1.07051 19.9995 1.07051C16.0935 1.07041 12.2824 2.27408 9.08502 4.51765C5.88765 6.76122 3.4594 9.93566 2.13088 13.6088C0.802353 17.2819 0.638113 21.2752 1.66052 25.045C2.68293 28.8148 4.8423 32.178 7.84463 34.6765C10.847 37.1751 14.5464 38.6877 18.4392 39.0083C22.332 39.329 26.2291 38.4421 29.5998 36.4685C32.9705 34.4949 35.651 31.5304 37.2765 27.9787C38.902 24.427 39.3934 20.4606 38.6838 16.6196V16.5405Z" fill="url(#paint0_linear_361_576)"/>
<path d="M28.3315 22.1586H25.8744V19.2739H28.3315C28.7007 19.2739 29 18.9087 29 18.4576C29 18.0065 28.7007 17.6411 28.3315 17.6411H25.8744V13.6385C25.8744 13.0542 25.7799 12.6254 25.5936 12.3642C25.4165 12.1156 25.1837 12 24.8612 12C24.5536 12 24.3295 12.1148 24.1559 12.3618C23.9717 12.6233 23.8783 13.0529 23.8783 13.6388V17.6416H19.2563L17.2911 14.009C17.1229 13.6848 16.9648 13.3811 16.8112 13.0896C16.6729 12.8271 16.5381 12.6133 16.4107 12.4537C16.2979 12.3125 16.1694 12.2031 16.0191 12.1191C15.8773 12.04 15.697 12.0003 15.4837 12.0003C15.2116 12.0003 14.9646 12.0913 14.7281 12.2784C14.4941 12.4634 14.3323 12.6922 14.2335 12.9778C14.1468 13.2492 14.1009 13.6651 14.1009 14.2019V17.6413H11.6682C11.2991 17.6413 11 18.0068 11 18.4579C11 18.9089 11.2991 19.2742 11.6683 19.2742H14.101V22.1591H11.6683C11.2991 22.1591 11 22.5245 11 22.9757C11 23.4266 11.2991 23.7917 11.6683 23.7917H14.101V28.3616C14.101 28.9286 14.1985 29.3531 14.3917 29.6229C14.5754 29.8801 14.8083 29.9995 15.1246 29.9995C15.4298 29.9995 15.661 29.8795 15.8526 29.6218C16.0489 29.3579 16.1481 28.9336 16.1481 28.3617V23.7917H20.3305L22.5938 28.0311C22.7512 28.3113 22.9137 28.5942 23.0757 28.8716C23.2219 29.1206 23.3815 29.3401 23.5497 29.5233C23.7013 29.6891 23.8638 29.8106 24.0327 29.8848C24.2066 29.9612 24.4098 30 24.6354 30C25.2475 30 25.8743 29.7711 25.8743 28.0736V23.7917H28.3314C28.7007 23.7917 28.9999 23.4261 28.9999 22.9751C29 22.5242 28.7007 22.1586 28.3315 22.1586ZM23.8782 19.2739V22.1585H21.7005L20.14 19.2739H23.8782ZM16.1482 15.9594L17.0463 17.6411H16.1482V15.9594ZM16.1482 22.1586V19.2739H17.9183L19.4586 22.1586H16.1482ZM23.8782 26.1848L22.584 23.7917H23.8782V26.1848Z" fill="#FF8303"/>
<defs>
<linearGradient id="paint0_linear_361_576" x1="25.4693" y1="39.0724" x2="29.0664" y2="-3.56176" gradientUnits="userSpaceOnUse">
<stop stop-color="#1D3FF0"/>
<stop offset="1" stop-color="#215CFF"/>
</linearGradient>
</defs>
</svg>
