<svg width="98" height="98" viewBox="0 0 98 98" fill="none" xmlns="http://www.w3.org/2000/svg">
<rect x="0.485352" y="0.0454102" width="97.0303" height="97.0303" rx="30" fill="#111111"/>
<path d="M33.8504 63.9403L33.8527 63.9421C34.9334 64.8124 36.2849 65.2836 37.6896 65.2836H50.6355C51.1227 65.2836 51.5249 64.8815 51.5249 64.3943C51.5249 63.9071 51.1227 63.505 50.6355 63.505H42.0669C39.9689 63.505 37.936 62.0668 37.5728 59.8732L37.5727 59.8727C37.1234 57.15 39.2245 54.778 41.8809 54.778H59.3902C62.5436 54.778 65.5909 55.8644 68.0413 57.8481L68.0418 57.8485L72.8932 61.7818H78.6504C80.0893 61.7818 81.263 62.9554 81.263 64.3943V74.8999C81.263 76.3388 80.0893 77.5124 78.6504 77.5124H39.6047C37.8235 77.5124 36.0907 76.9104 34.6898 75.7921L34.689 75.7915L18.1444 62.5514C18.1442 62.5512 18.1439 62.551 18.1437 62.5508C16.0709 60.9 15.9088 57.7369 17.9606 55.8873C19.61 54.3922 22.1017 54.534 23.7402 55.8543C23.7406 55.8546 23.7411 55.855 23.7415 55.8554L33.8504 63.9403Z" stroke="white" stroke-width="1.72322"/>
<path d="M52.8607 37.6477C52.674 37.6477 52.5045 37.6204 52.3571 37.5672C52.2106 37.515 52.0704 37.4293 51.9409 37.3134C51.8107 37.1973 51.6865 37.0582 51.5733 36.8999C51.4579 36.7384 51.3425 36.574 51.231 36.4111L49.7022 34.0674H47.1134V36.4707C47.1134 36.8604 47.0231 37.1571 46.8453 37.3537C46.6655 37.5513 46.4414 37.6474 46.1604 37.6474C45.8695 37.6474 45.6435 37.5502 45.4692 37.3506C45.2952 37.1521 45.2071 36.8559 45.2071 36.4707V34.0674H43.7254C43.3378 34.0674 43.0225 33.752 43.0225 33.3644C43.0225 32.9769 43.3378 32.6615 43.7254 32.6615H45.2071V31.4618H43.7254C43.3378 31.4619 43.0225 31.1466 43.0225 30.7592C43.0225 30.3717 43.3378 30.0562 43.7254 30.0562H45.2071V28.3045C45.2071 27.966 45.2439 27.6999 45.3164 27.5142C45.407 27.2992 45.5496 27.1331 45.7547 27.0004C45.9598 26.8674 46.1753 26.8027 46.4133 26.8027C46.5972 26.8027 46.7568 26.8327 46.8867 26.8923C47.0202 26.9532 47.1332 27.0324 47.2325 27.1343C47.3337 27.2378 47.4382 27.3736 47.5437 27.5374C47.6521 27.706 47.7639 27.8815 47.8826 28.069L49.196 30.0562H52.0953V27.9797C52.0953 27.5847 52.1799 27.2862 52.3466 27.0921C52.5139 26.8974 52.7342 26.8027 53.0197 26.8027C53.3148 26.8027 53.5411 26.8975 53.7109 27.0926C53.8799 27.2865 53.9654 27.5852 53.9654 27.9797V30.0562H55.4646C55.8522 30.0562 56.1675 30.3716 56.1675 30.7592C56.1675 31.1467 55.8522 31.4619 55.4646 31.4619H53.9654V32.6618H55.4646C55.8522 32.6618 56.1675 32.977 56.1675 33.3648C56.1675 33.7523 55.8522 34.0674 55.4646 34.0674H53.9654V36.3049C53.9654 37.2084 53.6042 37.6477 52.8607 37.6477ZM46.8814 33.6034H49.8279C49.9062 33.6034 49.9793 33.643 50.0222 33.7086L51.6171 36.1536C51.7235 36.3098 51.8376 36.4715 51.9507 36.6301C52.0441 36.7602 52.1449 36.8737 52.2504 36.9678C52.3353 37.0439 52.4238 37.0986 52.5144 37.1309C52.6117 37.1664 52.728 37.184 52.8608 37.184C53.131 37.184 53.5016 37.184 53.5016 36.305V33.8354C53.5016 33.7073 53.6057 33.6034 53.7336 33.6034H55.4647C55.5967 33.6034 55.7037 33.4962 55.7037 33.3644C55.7037 33.2327 55.5967 33.1255 55.4647 33.1255H53.7335C53.6054 33.1255 53.5015 33.0216 53.5015 32.8935V31.2299C53.5015 31.1019 53.6054 30.998 53.7335 30.998H55.4646C55.5964 30.998 55.7035 30.8909 55.7035 30.7592C55.7035 30.6274 55.5964 30.5202 55.4646 30.5202H53.7335C53.6054 30.5202 53.5015 30.4163 53.5015 30.2882V27.9797C53.5015 27.6317 53.4251 27.4709 53.3607 27.3971C53.3046 27.3325 53.2203 27.2666 53.0197 27.2666C52.8695 27.2666 52.7766 27.3035 52.6986 27.3943C52.6354 27.4684 52.5596 27.6299 52.5596 27.9796V30.2881C52.5596 30.4161 52.4556 30.52 52.3276 30.52H49.0712C48.9932 30.52 48.9204 30.4809 48.8775 30.416L47.4931 28.3211C47.3723 28.1308 47.2611 27.9562 47.1533 27.7886C47.0649 27.6507 46.9797 27.5397 46.9002 27.4583C46.8415 27.3979 46.7743 27.351 46.6938 27.3142C46.6259 27.2831 46.5287 27.2666 46.4133 27.2666C46.2656 27.2666 46.1366 27.3057 46.007 27.3897C45.8808 27.4715 45.7979 27.5666 45.7462 27.6888C45.7196 27.7568 45.6711 27.9366 45.6711 28.3045V30.2881C45.6711 30.4161 45.5671 30.52 45.4391 30.52H43.7254C43.5936 30.5202 43.4864 30.6274 43.4864 30.7592C43.4864 30.8909 43.5936 30.998 43.7254 30.998H45.4391C45.5671 30.998 45.6711 31.1019 45.6711 31.2299V32.8937C45.6711 33.0217 45.5671 33.1256 45.4391 33.1256H43.7254C43.5936 33.1255 43.4864 33.2328 43.4864 33.3644C43.4864 33.4961 43.5936 33.6034 43.7254 33.6034H45.4391C45.5671 33.6034 45.6711 33.7073 45.6711 33.8354V36.4707C45.6711 36.7365 45.7221 36.9353 45.8184 37.0453C45.903 37.1422 46.0051 37.1837 46.1604 37.1837C46.3093 37.1837 46.4111 37.1415 46.5014 37.0419C46.5981 36.9354 46.6495 36.7378 46.6495 36.4711V33.8354C46.6495 33.7073 46.7534 33.6034 46.8814 33.6034ZM52.3273 35.4476C52.2509 35.4476 52.1774 35.4095 52.1336 35.3434L51.2217 33.9631C51.1749 33.8918 51.1707 33.8004 51.2114 33.7254C51.2519 33.6503 51.3306 33.6034 51.4154 33.6034H52.3273C52.4553 33.6034 52.5593 33.7073 52.5593 33.8354V35.2156C52.5593 35.318 52.4918 35.4083 52.3941 35.4378C52.372 35.4443 52.3494 35.4476 52.3273 35.4476ZM51.8467 34.0674L52.0953 34.4435V34.0674H51.8467ZM52.3273 33.1255H50.793C50.7151 33.1255 50.6422 33.0864 50.5994 33.0214L49.5002 31.3577C49.453 31.2864 49.4488 31.195 49.4894 31.1198C49.5299 31.0448 49.6085 30.9978 49.6935 30.9978H52.3273C52.4553 30.9978 52.5593 31.1017 52.5593 31.2298V32.8935C52.5593 33.0217 52.4553 33.1255 52.3273 33.1255ZM50.9178 32.6615H52.0953V31.4618H50.1249L50.9178 32.6615ZM49.2134 33.1255H46.8814C46.7534 33.1255 46.6495 33.0216 46.6495 32.8935V31.2299C46.6495 31.1019 46.7534 30.998 46.8814 30.998H48.1285C48.2067 30.998 48.2799 31.0375 48.3227 31.1033L49.4079 32.767C49.4544 32.8383 49.458 32.9292 49.4176 33.0041C49.3769 33.0791 49.2987 33.1255 49.2134 33.1255ZM47.1134 32.6615H48.7852L48.0027 31.4618H47.1134V32.6615ZM47.514 30.5204H46.8814C46.7534 30.5204 46.6495 30.4164 46.6495 30.2884V29.3185C46.6495 29.2158 46.7169 29.1253 46.8152 29.0961C46.9135 29.067 47.0197 29.1057 47.0757 29.1917L47.7083 30.1615C47.7548 30.2328 47.7587 30.3239 47.7182 30.3988C47.6775 30.4735 47.5992 30.5204 47.514 30.5204Z" fill="white"/>
<circle cx="49.5947" cy="32.2253" r="12.7207" stroke="white"/>
</svg>
