<svg width="99" height="98" viewBox="0 0 99 98" fill="none" xmlns="http://www.w3.org/2000/svg">
<rect x="0.984863" y="0.0302734" width="97.0303" height="97.0303" rx="30" fill="#7A78FF"/>
<path d="M49.52 32.2617H22.8426C20.9415 32.2617 19.4004 33.8029 19.4004 35.704V70.8044C19.4004 72.7055 20.9415 74.2467 22.8426 74.2467H71.8946C73.7957 74.2467 75.3368 72.7055 75.3368 70.8044V54.7536" stroke="white" stroke-width="1.72823" stroke-linecap="round"/>
<path d="M37.1868 40.6235C40.951 40.6236 44.0674 43.8249 44.0676 47.856C44.0676 51.8872 40.9512 55.0893 37.1868 55.0894C33.4223 55.0894 30.3059 51.8872 30.3059 47.856C30.3061 43.8249 33.4225 40.6235 37.1868 40.6235Z" stroke="white" stroke-width="1.72823"/>
<path d="M39.4804 54.7539H35.1776C30.4249 54.7539 26.572 58.6068 26.572 63.3595V63.9071C26.572 65.8082 28.1132 67.3494 30.0143 67.3494H44.6438C46.5449 67.3494 48.086 65.8082 48.086 63.9071V63.3595C48.086 58.6068 44.2332 54.7539 39.4804 54.7539Z" stroke="white" stroke-width="1.72823" stroke-linecap="round"/>
<path d="M55.2573 59.2522H63.8629" stroke="white" stroke-width="1.72823" stroke-linecap="round"/>
<path d="M55.2573 66.7495H68.1657" stroke="white" stroke-width="1.72823" stroke-linecap="round"/>
<path d="M54.1931 25.8955C59.429 24.8802 62.5399 23.4257 68.0906 18.9477C68.2134 18.8487 68.3964 18.8664 68.4974 18.9875C71.9785 23.1559 74.8207 24.6992 81.0061 25.8964C81.1328 25.9209 81.2304 26.0304 81.2407 26.1589C82.4064 40.7346 79.5991 47.0097 68.4587 54.5262C68.3712 54.5852 68.2541 54.5915 68.1608 54.5421C56.9963 48.6194 53.0095 43.1276 53.9587 26.1657C53.9661 26.0343 54.0639 25.9206 54.1931 25.8955Z" stroke="white" stroke-width="1.72823" stroke-linecap="round"/>
<path d="M66.9702 42.3334L66.9033 42.3309C66.7354 42.3209 66.5714 42.2742 66.4219 42.1937C66.2724 42.1132 66.1408 42.0007 66.0356 41.8636L61.2547 35.6158C61.078 35.3552 61.0033 35.0339 61.0458 34.7176C61.0884 34.4013 61.245 34.1139 61.4835 33.9143C61.7221 33.7148 62.0245 33.618 62.3291 33.644C62.6336 33.6699 62.9171 33.8166 63.1216 34.0539L67.0682 39.212L74.4906 31.4523C74.716 31.2247 75.0179 31.0988 75.3313 31.1016C75.6447 31.1045 75.9445 31.2359 76.1661 31.4675C76.3877 31.6992 76.5134 32.0126 76.5161 32.3403C76.5188 32.6679 76.3983 32.9835 76.1806 33.2192L67.8141 41.9661C67.7038 42.0828 67.5724 42.1755 67.4275 42.2386C67.2826 42.3016 67.1272 42.3339 66.9702 42.3334Z" fill="white"/>
</svg>
