<svg width="98" height="98" viewBox="0 0 98 98" fill="none" xmlns="http://www.w3.org/2000/svg">
<rect x="0.485352" y="0.924316" width="97.0303" height="97.0303" rx="30" fill="#FF8100"/>
<path d="M63.2974 73.1785C62.4801 73.1785 61.738 73.0593 61.0928 72.8264C60.4516 72.5976 59.8374 72.2224 59.2707 71.7153C58.7006 71.2068 58.1569 70.5981 57.6612 69.9047C57.1561 69.1978 56.651 68.4781 56.1628 67.7651L49.4697 57.5044H38.1365V68.0258C38.1365 69.7321 37.741 71.0307 36.9624 71.8913C36.1756 72.7567 35.1945 73.1771 33.9642 73.1771C32.6906 73.1771 31.7013 72.7519 30.9382 71.8778C30.1765 71.0091 29.7906 69.7124 29.7906 68.0258V57.5044H23.304C21.6072 57.5044 20.2266 56.1238 20.2266 54.427C20.2266 52.7302 21.6072 51.3496 23.304 51.3496H29.7906V46.0973H23.304C21.6072 46.098 20.2266 44.7174 20.2266 43.0213C20.2266 41.3251 21.6072 39.9439 23.304 39.9439H29.7906V32.2751C29.7906 30.7929 29.9517 29.6283 30.2693 28.8151C30.666 27.8739 31.2903 27.1467 32.1882 26.5658C33.086 25.9835 34.0292 25.7004 35.0712 25.7004C35.8763 25.7004 36.5751 25.8318 37.1438 26.0925C37.7282 26.3593 38.2231 26.7059 38.6578 27.1521C39.1006 27.6051 39.5584 28.1996 40.0201 28.9167C40.4948 29.6547 40.9843 30.4232 41.5037 31.2438L47.2536 39.9439H59.9464V30.8531C59.9464 29.1238 60.3168 27.817 61.0467 26.9673C61.7793 26.1148 62.7435 25.7004 63.9935 25.7004C65.2854 25.7004 66.2759 26.1155 67.0194 26.9693C67.7595 27.8184 68.1339 29.1259 68.1339 30.8531V39.9439H74.697C76.3938 39.9439 77.7744 41.3245 77.7744 43.0213C77.7744 44.7181 76.3938 46.098 74.697 46.098H68.1339V51.3509H74.697C76.3938 51.3509 77.7744 52.7308 77.7744 54.4283C77.7744 56.1251 76.3938 57.5044 74.697 57.5044H68.1339V67.2999C68.1339 71.2555 66.5522 73.1785 63.2974 73.1785ZM37.1208 55.4731H50.0202C50.3628 55.4731 50.6831 55.6464 50.8706 55.9335L57.8529 66.6377C58.3187 67.3216 58.8184 68.0292 59.3134 68.7239C59.7223 69.2933 60.1638 69.7903 60.6256 70.202C60.9973 70.5351 61.3846 70.7748 61.7814 70.9163C62.2073 71.0714 62.7164 71.1486 63.2981 71.1486C64.481 71.1486 66.1033 71.1486 66.1033 67.3006V56.4887C66.1033 55.9281 66.559 55.4731 67.1189 55.4731H74.6977C75.2752 55.4731 75.7438 55.0039 75.7438 54.427C75.7438 53.8501 75.2752 53.3809 74.6977 53.3809H67.1183C66.5576 53.3809 66.1026 52.9258 66.1026 52.3652V45.0823C66.1026 44.5217 66.5576 44.0667 67.1183 44.0667H74.697C75.2739 44.0667 75.7431 43.5982 75.7431 43.0213C75.7431 42.4444 75.2739 41.9751 74.697 41.9751H67.1183C66.5576 41.9751 66.1026 41.5201 66.1026 40.9595V30.8531C66.1026 29.3297 65.7681 28.6255 65.4865 28.3025C65.2407 28.0195 64.8717 27.7311 63.9935 27.7311C63.336 27.7311 62.9291 27.8929 62.5878 28.2903C62.3109 28.6147 61.9791 29.3216 61.9791 30.8525V40.9588C61.9791 41.5195 61.5241 41.9745 60.9634 41.9745H46.7072C46.3659 41.9745 46.047 41.8032 45.8594 41.5188L39.7987 32.3475C39.2699 31.5147 38.7831 30.7502 38.3112 30.0163C37.9239 29.413 37.5508 28.9268 37.2027 28.5707C36.9461 28.3059 36.6516 28.1007 36.2995 27.9396C36.0023 27.8035 35.5764 27.7311 35.0712 27.7311C34.4246 27.7311 33.8599 27.9024 33.2925 28.27C32.74 28.6282 32.3771 29.0446 32.1509 29.5795C32.0345 29.8775 31.8219 30.6642 31.8219 32.2751V40.9588C31.8219 41.5195 31.3668 41.9745 30.8062 41.9745H23.304C22.7271 41.9751 22.2579 42.4444 22.2579 43.0213C22.2579 43.5982 22.7271 44.0667 23.304 44.0667H30.8062C31.3668 44.0667 31.8219 44.5217 31.8219 45.0823V52.3659C31.8219 52.9265 31.3668 53.3815 30.8062 53.3815H23.304C22.7271 53.3809 22.2579 53.8508 22.2579 54.427C22.2579 55.0032 22.7271 55.4731 23.304 55.4731H30.8062C31.3668 55.4731 31.8219 55.9281 31.8219 56.4887V68.0258C31.8219 69.1897 32.0453 70.0598 32.4671 70.5412C32.8375 70.9657 33.2844 71.1472 33.9642 71.1472C34.6162 71.1472 35.0618 70.9624 35.4572 70.5263C35.8804 70.0605 36.1052 69.1951 36.1052 68.0278V56.4887C36.1052 55.9281 36.5602 55.4731 37.1208 55.4731ZM60.9621 63.5468C60.6276 63.5468 60.306 63.3802 60.1144 63.0904L56.1222 57.048C55.917 56.7359 55.8988 56.3357 56.0768 56.0073C56.2542 55.6782 56.5989 55.4731 56.9699 55.4731H60.9621C61.5227 55.4731 61.9777 55.9281 61.9777 56.4887V62.5311C61.9777 62.9794 61.6825 63.3748 61.2546 63.5041C61.1578 63.5326 61.0589 63.5468 60.9621 63.5468ZM58.8583 57.5044L59.9464 59.1511V57.5044H58.8583ZM60.9621 53.3809H54.2453C53.904 53.3809 53.5851 53.2095 53.3976 52.9252L48.5854 45.6416C48.3789 45.3295 48.3606 44.9293 48.538 44.6003C48.7154 44.2719 49.0594 44.066 49.4318 44.066H60.9621C61.5227 44.066 61.9777 44.521 61.9777 45.0817V52.3652C61.9777 52.9265 61.5227 53.3809 60.9621 53.3809ZM54.7917 51.3496H59.9464V46.0973H51.3202L54.7917 51.3496ZM47.3301 53.3809H37.1208C36.5602 53.3809 36.1052 52.9258 36.1052 52.3652V45.0823C36.1052 44.5217 36.5602 44.0667 37.1208 44.0667H42.5803C42.9229 44.0667 43.2431 44.24 43.4307 44.5278L48.1812 51.8113C48.385 52.1235 48.4006 52.5216 48.2239 52.8493C48.0458 53.1777 47.7032 53.3809 47.3301 53.3809ZM38.1365 51.3496H45.4552L42.0298 46.0973H38.1365V51.3496ZM39.8901 41.9758H37.1208C36.5602 41.9758 36.1052 41.5208 36.1052 40.9602V36.7141C36.1052 36.2645 36.4004 35.8684 36.831 35.7404C37.261 35.6131 37.7261 35.7824 37.9713 36.1589L40.7406 40.405C40.9444 40.7171 40.9613 41.1159 40.7839 41.4436C40.6058 41.7707 40.2632 41.9758 39.8901 41.9758Z" fill="white"/>
</svg>
