<svg width="98" height="98" viewBox="0 0 98 98" fill="none" xmlns="http://www.w3.org/2000/svg">
<rect x="0.485352" y="0.95459" width="97.0303" height="97.0303" rx="30" fill="#215CFF"/>
<g clip-path="url(#clip0_2874_1994)">
<path fill-rule="evenodd" clip-rule="evenodd" d="M37.8786 42.0304L64.5741 42.0304L59.2597 47.3448C58.7654 47.8392 58.7654 48.6054 59.2597 49.1023C59.7541 49.5991 60.5203 49.5966 61.0172 49.1023L68.4326 41.6621C68.5314 41.5385 68.6303 41.415 68.6798 41.2666C68.8034 40.9657 68.8034 40.6283 68.6798 40.3274C68.6303 40.179 68.5314 40.0555 68.4326 39.9566L61.0172 32.5412C60.5228 32.0468 59.7565 32.0468 59.2597 32.5412C58.7629 33.0355 58.7654 33.8018 59.2597 34.2986L64.5741 39.613L37.8786 39.613C37.1865 39.613 36.6427 40.1568 36.6427 40.8489C36.6427 41.541 37.1865 42.0848 37.8786 42.0848L37.8786 42.0354L37.8786 42.0304ZM29.2273 57.6275C29.1037 57.9284 29.1037 58.2659 29.2273 58.5668C29.3015 58.7151 29.3756 58.8634 29.4992 58.9623L36.9146 66.3777C37.409 66.872 38.1752 66.872 38.6721 66.3777C39.1689 65.8833 39.1664 65.1171 38.6721 64.6227L33.3577 59.3083L60.0532 59.3083C60.7453 59.3083 61.2891 58.7645 61.2891 58.0724C61.2891 57.3803 60.7453 56.8365 60.0532 56.8365L33.3577 56.8365L38.6721 51.5221C39.1664 51.0278 39.1664 50.2615 38.6721 49.7647C38.1777 49.2679 37.4115 49.2703 36.9146 49.7647L29.4992 57.1801C29.4003 57.3037 29.3015 57.4273 29.2273 57.5756L29.2273 57.6275Z" fill="white"/>
</g>
<defs>
<clipPath id="clip0_2874_1994">
<rect width="39.5488" height="39.5488" fill="white" transform="translate(68.7754 29.6958) rotate(90)"/>
</clipPath>
</defs>
</svg>
