<svg width="99" height="99" viewBox="0 0 99 99" fill="none" xmlns="http://www.w3.org/2000/svg">
<rect x="0.985291" y="0.984863" width="97.0303" height="97.0303" rx="30" fill="#35C771"/>
<path d="M24.3576 50.7181L24.3576 50.718L24.3528 50.7134C23.4222 49.8073 22.9054 48.5556 22.9054 47.2512V27.8236C22.9054 25.1193 25.1201 22.9045 27.8245 22.9045H47.252C48.5572 22.9045 49.8114 23.4221 50.7189 24.3296L74.6443 48.255C76.5912 50.2019 76.5879 53.2994 74.6714 55.2159L55.2439 74.6434C53.3257 76.5616 50.2011 76.5616 48.2829 74.6434L24.3576 50.7181ZM51.3963 71.5301L51.7499 71.8836L52.1034 71.5301L71.5309 52.1026L71.8845 51.749L71.5309 51.3955L47.6056 27.4701L47.4591 27.3236H47.252H27.8245H27.3245V27.8236V47.2512V47.4583L27.471 47.6047L51.3963 71.5301Z" fill="white" stroke="#35C771"/>
<path d="M34.5984 38.6619C36.8431 38.6619 38.6627 36.8422 38.6627 34.5975C38.6627 32.3529 36.8431 30.5332 34.5984 30.5332C32.3537 30.5332 30.5341 32.3529 30.5341 34.5975C30.5341 36.8422 32.3537 38.6619 34.5984 38.6619Z" fill="white"/>
</svg>
