<svg width="128" height="116" viewBox="0 0 128 116" fill="none" xmlns="http://www.w3.org/2000/svg">
<g clip-path="url(#clip0_76_4691)">
<path d="M20.6643 53.0287C20.6643 24.9125 20.6978 23.9734 21.7921 22.2003C23.227 19.8748 25.8791 18.7811 30.1057 18.7811C33.4445 18.7811 33.4445 18.7811 33.612 15.3287C33.7795 11.8763 33.7795 11.8763 38.9441 11.7161L44.1087 11.5559V27.6633C33.7795 27.343 33.7795 27.343 33.5003 24.3049C33.2212 21.2668 33.2212 21.2668 29.6311 21.3275C24.2934 21.4159 22.7803 23.2056 23.0093 29.1713L23.1712 33.4191L95.4753 33.7009C95.4307 23.5205 94.381 21.9849 89.892 21.2668C86.7933 20.7696 86.5085 20.6094 86.9049 19.5931C87.7424 17.4277 94.7942 19.2671 96.6087 22.123C98.3173 24.813 98.3173 54.6858 96.6032 54.6858C95.5591 54.6858 95.4921 54.2273 95.3469 45.4334L95.1962 36.1811H23.1712C22.9032 68.7163 22.9646 79.206 23.1265 80.4875C23.6681 84.7464 23.6904 84.7519 45.4766 85.0668C61.8804 85.3043 64.4878 85.459 64.4878 86.1715C64.4878 86.8896 61.8972 87.0167 45.0858 87.1382C28.5647 87.2542 25.4771 87.1492 24.2767 86.4367C20.5749 84.2382 20.6643 85.0778 20.6643 53.0287ZM41.5962 19.6096C41.5962 14.0858 41.5962 14.0858 39.1283 13.9091C37.4198 13.7931 36.5209 13.9809 36.2083 14.5277C35.9626 14.9641 35.8788 17.5879 36.024 20.3664C36.292 25.4096 36.292 25.4096 38.9441 25.2715C41.5962 25.1334 41.5962 25.1334 41.5962 19.6096Z" fill="white"/>
<path d="M67.2852 81.4707C67.2852 75.3831 69.7295 69.5448 74.0805 65.2402C78.4315 60.9356 84.3327 58.5173 90.4859 58.5173C96.6391 58.5173 102.54 60.9356 106.891 65.2402C111.242 69.5448 113.687 75.3831 113.687 81.4707C113.687 87.5583 111.242 93.3966 106.891 97.7012C102.54 102.006 96.6391 104.424 90.4859 104.424C84.3327 104.424 78.4315 102.006 74.0805 97.7012C69.7295 93.3966 67.2852 87.5583 67.2852 81.4707ZM69.9652 81.4685C69.9652 86.8697 72.1339 92.0496 75.9943 95.8688C79.8546 99.6881 85.0904 101.834 90.5498 101.834C96.0092 101.834 101.245 99.6881 105.105 95.8688C108.966 92.0496 111.134 86.8697 111.134 81.4685C111.134 76.0673 108.966 70.8873 105.105 67.0681C101.245 63.2489 96.0092 61.1033 90.5498 61.1033C85.0904 61.1033 79.8546 63.2489 75.9943 67.0681C72.1339 70.8873 69.9652 76.0673 69.9652 81.4685Z" fill="white"/>
<path d="M50.5286 20.9905C48.0719 20.8413 46.1233 20.5265 46.2015 20.3C46.2797 20.0735 46.3411 19.6482 46.3411 19.3554C46.3411 19.0682 48.2897 18.7533 50.6682 18.6649C54.9952 18.5047 54.9952 18.5047 55.1627 15.0303C55.3302 11.5613 55.3302 11.5613 60.4669 11.716L65.6036 11.8762V27.3428C55.2744 27.619 55.2744 27.619 55.1348 24.4428C54.9952 21.2666 54.9952 21.2666 50.5286 20.9905ZM62.9738 19.4383C63.1302 13.7487 63.1302 13.7487 60.4613 13.9145C57.7869 14.0857 57.7869 14.0857 57.6138 18.7809C57.5189 21.3661 57.5803 23.9125 57.7534 24.4428C57.9991 25.1941 58.5909 25.3764 60.439 25.2714C62.8119 25.1333 62.8119 25.1333 62.9738 19.4383Z" fill="white"/>
<path d="M70.7687 21.1009C67.4578 20.9573 67 20.8081 67 19.858C67 18.8914 67.402 18.7809 70.9083 18.7809C74.8167 18.7809 74.8167 18.7809 74.8167 15.1683C74.8167 11.5557 74.8167 11.5557 79.9812 11.7159L85.1458 11.8761V27.3428C74.8167 27.619 74.8167 27.619 74.6771 24.4428C74.5375 21.2666 74.5375 21.2666 70.7687 21.1009ZM82.8567 21.2058C83.6774 14.8424 83.2307 13.71 79.9868 13.9144C77.3292 14.0856 77.3292 14.0856 77.1561 18.7809C77.0612 21.366 77.1226 23.9125 77.2957 24.4428C77.5413 25.194 78.1332 25.3763 79.9812 25.2713C82.3542 25.1333 82.3542 25.1333 82.8567 21.2058Z" fill="white"/>
<path d="M32.9414 63.5239H46.3414V76.7811H32.9414V63.5239ZM35.7331 74.5715H43.5497V66.2858H35.7331V74.5715Z" fill="white"/>
<path d="M32.9414 43.0857H46.3414V56.3428H32.9414V43.0857ZM35.1747 54.1333H43.5497V45.8476H35.1747V54.1333Z" fill="white"/>
<path d="M53.5996 63.5239H66.9996V76.7811H53.5996V63.5239ZM64.0907 70.2906C64.2582 66.2858 64.2582 66.2858 60.0428 66.2858C55.8329 66.2858 55.8329 66.2858 55.8329 69.7934C55.8329 72.2626 56.0786 73.4889 56.6704 73.9363C57.1339 74.2898 58.9373 74.5108 60.7184 74.4334C63.9288 74.2954 63.9288 74.2954 64.0907 70.2906Z" fill="white"/>
<path d="M53.5996 43.0857H66.9996V56.3428H53.5996V43.0857ZM56.3913 54.1333H64.2079V45.8476H56.3913L56.3913 54.1333Z" fill="white"/>
<path d="M74.2578 43.0857H87.6578V56.3428H74.2578V43.0857ZM76.9995 54L84.8661 54.1333V45.8476H77.0495L76.9995 54Z" fill="white"/>
<path d="M82.0742 84.9949V84.2381C82.0742 83.5918 84.5141 84.0448 86.5409 85.0667C89.7066 86.6631 89.5838 86.7735 92.7495 79.5429C94.9494 74.5217 95.9041 72.9143 96.6802 72.9143C98.238 72.9143 97.9811 73.9417 94.4022 82.0231C92.1633 87.0663 90.8066 89.4857 90.2147 89.4857C89.729 89.4857 87.7022 88.5854 85.7034 87.4806C83.7101 86.3814 82.0742 85.26 82.0742 84.9949Z" fill="white"/>
</g>
<defs>
<clipPath id="clip0_76_4691">
<rect width="128" height="116" fill="white"/>
</clipPath>
</defs>
</svg>
