<svg width="102" height="101" viewBox="0 0 102 101" fill="none" xmlns="http://www.w3.org/2000/svg">
<g clip-path="url(#clip0_76_4669)">
<path d="M29.4503 71.9771C1.84368 71.9771 2.17841 72.0042 1.96557 70.8529C1.69662 69.396 1.0736 69.4618 15.1884 69.4618C23.4445 69.4618 27.8289 69.394 28.0766 69.2605C28.4365 69.069 28.45 68.7652 28.45 60.4569V51.8545C11.7966 51.8467 11.6186 51.8274 11.2452 50.9238C11.0536 50.4633 11.3032 49.7532 11.7831 49.3895C12.0249 49.2056 14.0546 49.1476 20.2752 49.1476L28.45 49.1457C28.45 33.7422 28.4016 32.113 28.1849 31.8557C27.9431 31.5674 26.7435 31.5384 15.2891 31.5384C1.04264 31.5384 1.71984 31.61 1.97525 30.1414C2.17454 28.9979 1.84948 29.0231 16.2139 29.0289L29.3207 29.0327C52.4927 15.6686 59.1621 11.7041 59.0944 11.6015C59.017 11.4874 56.165 11.4158 51.7535 11.4158C47.0712 11.4158 44.4069 11.3442 44.1573 11.2126C43.2343 10.7212 43.5826 9.18681 44.6642 8.98172C44.9506 8.9256 49.6716 8.90626 55.1512 8.93915L65.1157 8.99719C96.4992 27.1327 100.412 29.4758 100.588 29.8744C100.922 30.6271 100.913 70.3905 100.576 71.1257C100.388 71.5359 96.6308 73.7881 82.7733 81.7907C73.1106 87.3709 64.9474 91.9739 64.6281 92.0184C64.1464 92.0861 61.2112 90.4473 46.7519 82.0384L29.4503 71.9771ZM63.2776 88.4234V51.274L30.9653 32.6993V70.0422L63.2776 88.4234ZM97.9814 69.7539C98.1981 69.187 98.1265 33.301 97.9078 33.0824C97.666 32.8405 88.3341 38.1556 88.0419 38.7013C87.9259 38.918 87.8504 41.8783 87.8504 46.2356C87.8504 52.2376 87.804 53.4914 87.564 53.888C87.3899 54.1763 85.4841 55.3972 82.7211 56.9915C75.8678 60.9464 76.2412 61.2076 76.2412 52.464C76.2412 47.2708 76.1909 46.0344 75.9723 45.837C75.682 45.57 67.128 50.2892 66.2283 51.2121C65.7929 51.6591 65.7929 51.6591 65.7929 70.0403C65.7929 86.2467 65.8278 88.4138 66.0812 88.3402C66.8281 88.1274 97.8711 70.0383 97.9814 69.7539ZM78.7565 56.1112L85.3351 52.4349V40.0518L78.7565 43.728V56.1112ZM74.6933 43.1476L42.768 24.3794L32.3197 30.184L64.245 48.9522L74.6933 43.1476ZM83.7872 37.9234L51.8619 19.1552L45.2833 22.8315L77.4021 41.5997L83.7872 37.9234ZM96.7508 30.5709L65.019 11.8028L54.3772 17.6073L86.3025 36.1821L96.7508 30.5709Z" fill="white" fill-opacity="0.988235"/>
<path d="M11.4838 9.32016C12.2635 8.58878 33.4677 8.67392 34.0482 9.40917C34.5512 10.0515 34.5571 10.5333 34.0617 11.0286C33.6844 11.4059 33.4174 11.4156 22.646 11.4156C11.6173 11.4156 11.6173 11.4156 11.3271 10.9803C10.9149 10.3611 10.9672 9.80581 11.4838 9.32016Z" fill="white" fill-opacity="0.988235"/>
</g>
<defs>
<clipPath id="clip0_76_4669">
<rect width="101" height="101" fill="white" transform="translate(0.78125)"/>
</clipPath>
</defs>
</svg>
