<svg width="116" height="60" viewBox="0 0 116 60" fill="none" xmlns="http://www.w3.org/2000/svg">
<path fill-rule="evenodd" clip-rule="evenodd" d="M0.778042 0.382157L0.259766 0.780346L2.86079 19.4848L5.46159 38.1893L2.89264 48.5037C0.145839 59.5315 0.133953 59.6205 1.35463 59.9112C2.72063 60.2364 2.72466 60.2257 5.4219 49.5465L7.91505 39.675H19.079H30.2429L32.8823 49.561C35.5743 59.6447 35.7049 59.9995 36.7235 59.9995C37.1426 59.9995 38.0262 59.2934 38.0262 58.9584C38.0262 58.8541 36.8152 54.1031 35.335 48.4007C32.6715 38.1393 32.6439 38.0073 32.6439 35.5405C32.6439 32.1918 32.3021 31.1294 30.7522 29.6586C28.8509 27.8543 28.9215 27.8634 16.9581 27.8634H6.73587L4.87335 14.296C3.20369 2.13177 2.96351 0.69011 2.55265 0.356193C1.96239 -0.123295 1.4255 -0.11542 0.778042 0.382157ZM112.876 0.356193C112.621 0.629881 112.044 4.20146 110.703 13.8172C109.7 21.0159 108.829 27.1211 108.77 27.3846L108.661 27.8634H98.3892C86.5061 27.8634 86.6879 27.8391 84.7498 29.6784C83.2172 31.1328 82.8792 32.2005 82.8792 35.5874C82.8792 38.1263 82.8792 38.1265 80.1881 48.2681C78.7079 53.846 77.4969 58.6217 77.4969 58.8805C77.4969 59.9059 79.4327 60.3294 79.9252 59.4117C80.0342 59.2082 81.2726 54.6594 82.677 49.3033L85.23 39.5648L96.4195 39.6199L107.609 39.675L110.071 49.4648C111.441 54.915 112.686 59.4198 112.879 59.6271C113.069 59.8318 113.461 59.9995 113.75 59.9995C114.314 59.9995 115.173 59.3223 115.173 58.8786C115.173 58.73 114.008 54.0164 112.585 48.4037L109.996 38.1989L112.628 19.4882L115.26 0.77758L114.743 0.380667C114.095 -0.117549 113.329 -0.127764 112.876 0.356193ZM18.5459 7.93669C16.5394 8.62581 15.1377 10.5631 15.1102 12.685C15.0799 15.0275 16.0476 16.7571 17.9202 17.7073L18.8516 18.18L35.5032 18.2385L52.1549 18.2969V30.9636C52.1549 41.6738 52.1002 43.8814 51.801 45.2565C51.1334 48.3235 49.4054 50.6792 47.109 51.6531C44.6241 52.707 44.8746 52.2449 44.8044 55.905C44.747 58.9103 44.7744 59.1674 45.1969 59.5683C45.642 59.9908 45.8986 59.9995 57.7616 59.9995C69.5729 59.9995 69.8829 59.9891 70.3204 59.5739C70.7263 59.1887 70.7689 58.8645 70.7689 56.1547C70.7689 54.5083 70.6727 52.9906 70.5552 52.7823C70.4377 52.5739 69.8575 52.2302 69.2657 52.0185C66.7389 51.1146 65.0107 49.2741 63.9845 46.3942C63.4938 45.0168 63.4853 44.7923 63.4177 31.6463L63.3493 18.2971L79.916 18.2385L96.4827 18.18L97.5805 17.536C99.201 16.5849 100.008 15.2305 100.112 13.2887C100.177 12.0599 100.095 11.544 99.6899 10.6517C99.1091 9.37026 97.8516 8.25082 96.5913 7.89242C95.3078 7.52743 19.6123 7.57043 18.5459 7.93669ZM96.1183 10.5221C97.3549 11.1288 97.8624 13.0934 97.13 14.4375C96.3746 15.8237 99.156 15.7326 57.5483 15.7326C15.9332 15.7326 18.9314 15.8341 18.1463 14.3988C17.7031 13.5886 17.654 12.208 18.0435 11.517C18.1954 11.248 18.641 10.8417 19.0341 10.6142C19.734 10.2092 20.5161 10.2007 57.6046 10.2001C91.0044 10.1992 95.5379 10.2373 96.1183 10.5221ZM60.677 31.0647C60.677 45.4453 60.708 45.7945 62.2529 48.8906C63.3047 50.9988 65.08 52.8738 66.8595 53.7562L68.0766 54.3597L68.0773 55.9027L68.0778 57.4456H57.7616H47.4454V55.8997V54.3538L48.6169 53.826C50.4503 53 52.2218 51.2046 53.2639 49.116C54.8174 46.0031 54.8461 45.6774 54.8461 31.1711V18.2864H57.7616H60.677V31.0647ZM28.2967 30.9625C29.625 31.904 29.8345 32.3993 29.917 34.795L29.9935 37.0147H19.0151H8.03661L7.6502 34.0884C7.43759 32.4791 7.21423 30.9917 7.15345 30.7835C7.04872 30.4239 7.56139 30.4079 17.3604 30.4643C27.3804 30.522 27.6955 30.5362 28.2967 30.9625ZM108.367 30.7897C108.308 30.9944 108.086 32.4791 107.873 34.0884L107.487 37.0147H96.5285H85.5704V35.1132C85.5704 33.0599 85.7756 32.2958 86.5386 31.5076C87.5664 30.4454 87.6848 30.4345 98.4246 30.4256C107.891 30.4177 108.469 30.439 108.367 30.7897Z" fill="white"/>
</svg>
