<svg width="102" height="102" viewBox="0 0 102 102" fill="none" xmlns="http://www.w3.org/2000/svg">
<path d="M51.0863 5.49092C51.2997 5.48707 51.5131 5.48322 51.733 5.47925C53.2622 5.70799 54.2551 6.75553 55.2995 7.81031C55.4452 7.9551 55.5909 8.09988 55.7411 8.24905C56.2273 8.7329 56.7113 9.21884 57.1954 9.70482C57.5442 10.0528 57.8932 10.4007 58.2422 10.7484C59.0904 11.5941 59.9371 12.4412 60.7832 13.2891C61.4708 13.978 62.159 14.6664 62.8476 15.3544C62.9458 15.4524 63.0439 15.5504 63.145 15.6514C63.3443 15.8506 63.5436 16.0497 63.743 16.2488C65.6103 18.1145 67.4759 19.982 69.3408 21.8501C70.9408 23.4528 72.5424 25.054 74.1452 26.654C76.0074 28.513 77.8686 30.3729 79.7282 32.2344C79.9265 32.4329 80.1248 32.6313 80.3231 32.8298C80.4206 32.9274 80.5182 33.0251 80.6187 33.1257C81.3061 33.8136 81.9941 34.5008 82.6825 35.1877C83.6086 36.112 84.5331 37.0378 85.4565 37.9647C85.7961 38.305 86.1361 38.6448 86.4766 38.9841C86.9406 39.4464 87.4027 39.9106 87.8644 40.3752C88.0003 40.5098 88.1361 40.6443 88.2761 40.7829C89.1611 41.679 89.6387 42.2879 89.6601 43.5915C89.4873 44.6625 88.7988 45.2802 88.0539 46.0195C87.9157 46.1648 87.7775 46.3102 87.6352 46.4599C86.6182 47.515 86.0195 48.0361 84.5068 48.1035C83.2912 47.8483 82.3691 46.7658 81.5279 45.9164C81.3975 45.7864 81.2672 45.6564 81.1328 45.5224C80.6979 45.0881 80.2643 44.6523 79.8307 44.2166C79.5186 43.9043 79.2063 43.5921 78.894 43.28C78.0473 42.4335 77.2019 41.5857 76.3567 40.7377C75.4728 39.8514 74.5878 38.9661 73.703 38.0808C72.2182 36.5949 70.7342 35.1084 69.2507 33.6213C67.7229 32.09 66.1948 30.559 64.6661 29.0286C64.5718 28.9342 64.4775 28.8398 64.3803 28.7425C63.9072 28.2689 63.4341 27.7953 62.961 27.3217C59.0389 23.3954 55.1182 19.4677 51.1984 15.539C50.2409 16.3375 49.3385 17.172 48.4603 18.0566C48.3327 18.1844 48.205 18.3122 48.0734 18.4438C47.6492 18.8687 47.2257 19.2942 46.8022 19.7197C46.4968 20.0258 46.1914 20.3319 45.8859 20.6379C45.23 21.295 44.5745 21.9525 43.9191 22.6102C42.8835 23.6495 41.847 24.6879 40.8103 25.7262C37.8632 28.6781 34.9173 31.6312 31.9722 34.5851C30.3443 36.2179 28.7157 37.85 27.0863 39.4813C26.0549 40.514 25.0243 41.5477 23.9944 42.582C23.3551 43.2236 22.715 43.8644 22.0746 44.505C21.777 44.803 21.4798 45.1014 21.1829 45.4001C20.7789 45.8066 20.3736 46.2118 19.9681 46.6167C19.8498 46.7362 19.7316 46.8558 19.6098 46.9789C18.7362 47.8471 18.2037 48.0256 16.9787 48.0965C15.438 47.8024 13.8941 46.0242 12.9484 44.8242C12.6281 44.21 12.4641 43.7215 12.55 43.0312C12.973 41.7852 13.6291 41.0422 14.5577 40.1268C14.7022 39.9812 14.8466 39.8356 14.9955 39.6856C15.479 39.1994 15.9653 38.716 16.4517 38.2326C16.7994 37.8842 17.1469 37.5356 17.4942 37.1868C18.3396 36.339 19.1867 35.4931 20.0348 34.648C21.0227 33.6635 22.0087 32.6769 22.9945 31.6902C24.7539 29.9297 26.5152 28.1712 28.2776 26.4138C29.987 24.7091 31.6947 23.0028 33.4007 21.2948C35.2593 19.4338 37.119 17.5738 38.9802 15.7154C39.1788 15.5172 39.3773 15.319 39.5758 15.1207C39.6735 15.0232 39.7712 14.9257 39.8718 14.8252C40.5595 14.1385 41.2465 13.4511 41.9332 12.7635C42.8578 11.8379 43.7839 10.9139 44.7112 9.99092C45.0514 9.6518 45.3911 9.31218 45.7303 8.97202C46.193 8.5081 46.6576 8.04606 47.1226 7.58446C47.2567 7.44917 47.3908 7.31389 47.5289 7.1745C48.6082 6.10969 49.5213 5.4928 51.0863 5.49092ZM49.4375 7.98348C49.2999 8.11068 49.1624 8.23788 49.0207 8.36893C48.8847 8.49983 48.7487 8.63072 48.6086 8.76558C48.487 8.88196 48.3654 8.99834 48.2402 9.11825C47.865 9.48304 47.4945 9.85208 47.125 10.2225C46.9846 10.3624 46.8443 10.5023 46.6997 10.6464C46.2339 11.111 45.7687 11.5763 45.3036 12.0416C44.9681 12.3765 44.6326 12.7114 44.297 13.0462C43.389 13.9524 42.4817 14.8593 41.5745 15.7663C41.0079 16.3328 40.441 16.8992 39.8742 17.4656C37.999 19.339 36.1242 21.2128 34.25 23.0872C34.0988 23.2384 34.0988 23.2384 33.9445 23.3927C33.7931 23.5441 33.7931 23.5441 33.6387 23.6986C31.9991 25.3382 30.3586 26.9768 28.7176 28.615C27.0314 30.2984 25.3458 31.9825 23.6611 33.6675C22.7157 34.6129 21.77 35.5581 20.8235 36.5025C19.9348 37.3892 19.0472 38.2768 18.1602 39.1652C17.834 39.4917 17.5073 39.8178 17.1804 40.1436C16.7355 40.5869 16.292 41.0314 15.8487 41.4762C15.7178 41.6061 15.5869 41.7359 15.4521 41.8697C15.2749 42.0482 15.2749 42.0482 15.0942 42.2303C14.9917 42.3328 14.8891 42.4353 14.7835 42.5409C14.4951 42.853 14.4951 42.853 14.3429 43.4296C14.7363 44.0191 15.2502 44.5101 15.7375 45.0234C15.8981 45.2098 15.8981 45.2098 16.062 45.4C16.3867 45.7782 16.3867 45.7782 16.9328 46.2187C17.6602 46.2336 18.0411 45.961 18.5552 45.4884C18.7967 45.249 19.0359 45.0074 19.2734 44.7641C19.406 44.6314 19.5386 44.4988 19.6753 44.3622C20.12 43.9164 20.5619 43.4678 21.0039 43.0191C21.3218 42.6993 21.64 42.3797 21.9583 42.0603C22.6438 41.3715 23.3281 40.6816 24.0115 39.9907C25.0916 38.8988 26.1749 37.8101 27.2588 36.7218C28.7777 35.1961 30.2955 33.6695 31.8122 32.1416C31.9084 32.0446 32.0046 31.9477 32.1038 31.8478C33.1775 30.7661 34.2511 29.6841 35.3244 28.602C35.7137 28.2096 36.103 27.8171 36.4923 27.4247C36.5883 27.3279 36.6844 27.2311 36.7833 27.1313C38.3849 25.517 39.9884 23.9046 41.5934 22.2937C42.6713 21.2115 43.7468 20.1269 44.8207 19.0406C45.4887 18.3658 46.1587 17.693 46.8294 17.0209C47.1404 16.7083 47.4506 16.3948 47.7599 16.0805C48.1815 15.6521 48.6062 15.2268 49.0317 14.8022C49.1539 14.6766 49.2761 14.551 49.402 14.4215C49.9189 13.9113 50.325 13.5795 50.9982 13.2922C51.9315 13.3786 52.3507 13.9169 52.9818 14.5729C53.1163 14.7071 53.2509 14.8413 53.3895 14.9796C53.8411 15.4317 54.2876 15.8886 54.7342 16.3456C55.0563 16.6701 55.3787 16.9942 55.7014 17.318C56.3964 18.0168 57.0892 18.7177 57.7804 19.4202C58.8724 20.5302 59.9697 21.6349 61.0677 22.7389C62.606 24.2865 64.1422 25.836 65.6763 27.3876C65.7737 27.486 65.8711 27.5845 65.9714 27.686C66.4648 28.1849 66.9581 28.684 67.4515 29.183C68.4389 30.1818 69.4266 31.1803 70.4144 32.1787C70.5604 32.3263 70.5604 32.3263 70.7093 32.4768C72.3305 34.1153 73.9542 35.7514 75.5794 37.3859C76.6715 38.4847 77.7606 39.5864 78.8474 40.6904C79.5229 41.3755 80.2009 42.0581 80.8796 42.7401C81.1947 43.0578 81.5089 43.3765 81.8219 43.6964C82.248 44.1315 82.6776 44.5628 83.1083 44.9934C83.2325 45.122 83.3566 45.2506 83.4846 45.3832C84.1336 46.0595 84.1336 46.0595 85.0154 46.2251C85.6661 45.9269 86.121 45.47 86.6095 44.9611C86.7079 44.8642 86.8062 44.7672 86.9076 44.6674C87.4175 44.1484 87.7863 43.7666 87.8546 43.0312C87.6573 42.685 87.6573 42.685 87.3265 42.3799C87.2036 42.2549 87.0807 42.1299 86.9541 42.0011C86.8158 41.8656 86.6775 41.7301 86.5351 41.5905C86.3907 41.4451 86.2463 41.2998 86.0976 41.15C85.6102 40.6605 85.1193 40.1747 84.6284 39.6887C84.2795 39.3398 83.9308 38.9906 83.5823 38.6412C82.7316 37.7895 81.8787 36.9402 81.0247 36.0918C80.031 35.1045 79.0401 34.1144 78.0493 33.1243C76.2819 31.358 74.5121 29.5941 72.741 27.8315C71.021 26.1198 69.3023 24.4067 67.5853 22.6921C67.4266 22.5337 67.4266 22.5337 67.2648 22.3721C66.8398 21.9476 66.4148 21.5232 65.9898 21.0988C64.1582 19.2698 62.3256 17.4418 60.4928 15.614C60.1956 15.3177 59.8984 15.0212 59.6013 14.7248C58.4733 13.5997 57.3448 12.4751 56.2155 11.3513C55.8727 11.0101 55.5301 10.6687 55.1877 10.3271C54.722 9.86263 54.2557 9.39878 53.7892 8.9351C53.6522 8.79824 53.5153 8.66139 53.3742 8.52039C53.2498 8.39696 53.1253 8.27353 52.9971 8.14636C52.8356 7.98554 52.8356 7.98554 52.6708 7.82147C52.077 7.28312 51.4812 7.26511 50.7078 7.28102C50.1053 7.38833 49.8812 7.56904 49.4375 7.98348Z" fill="white"/>
<path d="M11.6537 63.2643C13.5061 65.0704 13.5061 65.0704 13.5724 66.1792C13.5731 66.3489 13.5738 66.5186 13.5745 66.6934C13.5759 66.8862 13.5773 67.0791 13.5788 67.2777C13.5796 67.4857 13.5804 67.6936 13.5813 67.9078C13.5859 68.3471 13.5907 68.7864 13.5957 69.2257C13.6027 69.9191 13.6085 70.6125 13.6112 71.3059C13.6143 71.9746 13.6223 72.643 13.6311 73.3116C13.6307 73.5192 13.6303 73.7267 13.6299 73.9406C13.6303 75.0317 13.6303 75.0317 14.0768 75.9938C14.622 76.3532 15.1641 76.7016 15.7299 77.0283C15.8452 77.0954 15.9606 77.1625 16.0794 77.2316C16.4546 77.4496 16.8307 77.6658 17.2069 77.882C17.4668 78.0326 17.7266 78.1834 17.9863 78.3342C18.5114 78.6392 19.0367 78.9437 19.5623 79.2478C20.6488 79.8774 21.7295 80.5167 22.8099 81.1567C22.988 81.2619 23.1661 81.3672 23.3495 81.4757C23.5145 81.5733 23.6796 81.6709 23.8496 81.7714C23.9998 81.8601 24.1501 81.9487 24.3049 82.0401C24.6331 82.2359 24.9578 82.4375 25.2815 82.6407C25.8632 82.9674 26.2372 82.9707 26.8939 82.8749C27.4935 82.6077 27.4935 82.6077 27.89 82.0781C28.0476 81.2901 28.0935 80.827 27.6807 80.1318C27.3083 79.6901 26.9099 79.2935 26.4955 78.8906C26.1155 78.5183 25.7361 78.1455 25.3578 77.7716C25.091 77.5088 24.8224 77.2479 24.5519 76.989C23.3971 75.8624 22.8118 74.8575 22.6994 73.2299C22.7303 71.7688 23.2871 70.8069 24.3212 69.8082C25.1584 69.1914 25.9299 69.0664 26.9562 69.0541C27.1691 69.0485 27.382 69.0428 27.6013 69.037C29.6135 69.3059 30.8527 70.7786 32.2113 72.149C32.4334 72.3705 32.6556 72.5919 32.8779 72.8132C33.3421 73.2763 33.8049 73.7408 34.2667 74.2063C34.8538 74.798 35.4445 75.386 36.0362 75.973C36.4956 76.4295 36.953 76.8878 37.4099 77.3468C37.6267 77.5641 37.844 77.7808 38.062 77.9969C40.3269 80.2466 42.1974 82.6225 42.3242 85.9451C42.3241 86.3962 42.3197 86.8472 42.3116 87.2982C42.3105 87.538 42.3093 87.7778 42.3082 88.0249C42.3037 88.782 42.2938 89.5388 42.2836 90.2958C42.2796 90.8128 42.2759 91.3298 42.2727 91.8468C42.2639 93.1062 42.2507 94.3656 42.2338 95.6249C41.6421 95.6249 41.0504 95.6249 40.4408 95.6249C40.4397 95.4338 40.4397 95.4338 40.4386 95.2388C40.4302 93.9039 40.4164 92.5691 40.3995 91.2342C40.3939 90.7371 40.3896 90.2399 40.3868 89.7428C40.3825 89.0251 40.3732 88.3076 40.363 87.59C40.3626 87.2606 40.3626 87.2606 40.3622 86.9244C40.295 83.3107 38.3614 81.0969 35.8938 78.654C35.6877 78.448 35.4816 78.2418 35.2757 78.0356C34.8475 77.6074 34.4183 77.1803 33.9883 76.7539C33.438 76.2081 32.8899 75.6601 32.3425 75.1114C31.9189 74.6872 31.4944 74.2639 31.0694 73.8409C30.8669 73.6391 30.6646 73.4371 30.4626 73.2347C30.1809 72.953 29.8979 72.6728 29.6147 72.3926C29.4544 72.2332 29.294 72.0737 29.1288 71.9094C28.2907 71.1698 27.6276 71.0279 26.5328 71.0603C25.8393 71.1569 25.5435 71.3815 25.101 71.9179C24.721 72.725 24.6361 73.2649 24.8706 74.1358C25.3939 75.2659 26.4038 76.068 27.2924 76.9108C27.6548 77.2562 28.016 77.603 28.3756 77.9513C28.5356 78.1031 28.6956 78.2548 28.8604 78.4112C29.8209 79.4967 30.005 80.4769 29.9631 81.8835C29.8164 82.9586 29.3885 83.6781 28.5351 84.3442C27.506 84.9454 26.4631 85.124 25.3002 84.8671C24.2541 84.4176 23.287 83.8586 22.3119 83.2734C22.0964 83.146 21.881 83.0186 21.659 82.8874C21.32 82.6849 20.9811 82.4823 20.6441 82.2767C19.7366 81.7234 18.8199 81.187 17.8995 80.6555C17.5089 80.4292 17.1183 80.2028 16.7277 79.9765C16.4687 79.8268 16.2094 79.6776 15.9499 79.5289C12.4698 77.5344 12.4698 77.5344 11.9525 76.4999C11.931 76.2063 11.9214 75.9117 11.9179 75.6173C11.9152 75.4344 11.9126 75.2514 11.9098 75.063C11.9077 74.8646 11.9056 74.6662 11.9035 74.4618C11.8969 74.0428 11.8903 73.6237 11.8836 73.2046C11.8742 72.5432 11.8654 71.8818 11.8575 71.2204C11.8496 70.5826 11.8393 69.9448 11.8288 69.307C11.8271 69.1107 11.8254 68.9143 11.8237 68.712C11.8009 66.8489 11.8009 66.8489 10.9315 65.2565C10.1809 64.8486 9.60151 64.7793 8.76501 64.9452C8.13797 65.2997 7.85242 65.5644 7.54655 66.2153C7.28761 67.2773 7.31373 68.3128 7.31756 69.402C7.31699 69.7593 7.31699 69.7593 7.31641 70.1238C7.31614 70.6267 7.31687 71.1295 7.31854 71.6323C7.32067 72.4001 7.31856 73.1677 7.31601 73.9354C7.31627 74.4247 7.31678 74.9141 7.31756 75.4034C7.31676 75.6322 7.31595 75.8609 7.31512 76.0965C7.26626 78.0336 7.26626 78.0336 8.14056 79.6771C8.38225 79.8374 8.38225 79.8374 8.62883 80.001C8.82634 80.1347 9.02386 80.2683 9.22736 80.406C9.47165 80.565 9.71597 80.7239 9.96032 80.8827C10.2642 81.0847 10.5679 81.287 10.8715 81.4894C11.7631 82.0823 12.6582 82.6698 13.5541 83.2562C14.5327 83.8972 15.5094 84.541 16.4863 85.1846C16.6791 85.3116 16.8719 85.4386 17.0705 85.5694C17.4465 85.8171 17.8226 86.0649 18.1986 86.3126C18.5345 86.534 18.8706 86.7552 19.2067 86.9764C20.0152 87.5086 20.8223 88.0428 21.6266 88.5812C21.8557 88.7341 22.0853 88.8861 22.3155 89.0373C24.031 90.1648 25.7036 91.3765 26.2963 93.4335C26.34 94.1672 26.3321 94.8911 26.2963 95.6249C25.7046 95.6249 25.1129 95.6249 24.5033 95.6249C24.4741 95.0024 24.4741 95.0024 24.4449 94.3798C24.0299 92.7657 22.9591 91.8716 21.61 91.0009C21.4421 90.8889 21.2743 90.7768 21.1014 90.6614C20.5522 90.2959 20.0002 89.9348 19.4481 89.5737C19.0654 89.3196 18.6828 89.0652 18.3005 88.8105C17.1169 88.0233 15.9296 87.2415 14.7416 86.4609C13.4613 85.6193 12.1816 84.7768 10.9037 83.9316C10.4055 83.6033 9.90566 83.2778 9.40557 82.9525C9.09938 82.7508 8.79325 82.5491 8.4872 82.3473C8.2823 82.2157 8.2823 82.2157 8.07327 82.0814C7.00159 81.369 5.99419 80.539 5.57751 79.289C5.55367 78.8557 5.54171 78.4217 5.53593 77.9877C5.53398 77.8565 5.53203 77.7252 5.53002 77.5899C5.52406 77.1555 5.51979 76.7211 5.51603 76.2867C5.51473 76.1378 5.51342 75.989 5.51207 75.8356C5.50558 75.0469 5.50071 74.2582 5.49682 73.4694C5.49328 72.819 5.48636 72.1687 5.4764 71.5183C5.46435 70.7309 5.45827 69.9437 5.45635 69.1563C5.45465 68.8575 5.45092 68.5587 5.44504 68.2599C5.41187 66.4774 5.48739 65.0983 6.77282 63.7499C8.10071 62.6157 10.0819 62.5626 11.6537 63.2643Z" fill="white"/>
<path d="M93.8325 62.9532C94.9154 63.3833 95.6802 64.029 96.2509 65.0558C96.6487 66.1864 96.5356 67.4503 96.5282 68.6371C96.5287 68.94 96.5295 69.2429 96.5305 69.5457C96.5316 70.1787 96.5299 70.8116 96.5262 71.4446C96.5217 72.2531 96.5243 73.0615 96.5291 73.87C96.5319 74.4949 96.531 75.1197 96.5289 75.7446C96.5284 76.0426 96.5291 76.3406 96.5309 76.6386C96.5461 79.7488 96.5461 79.7488 95.3263 80.9874C94.4363 81.7986 93.4233 82.4452 92.4154 83.0984C92.241 83.2126 92.0665 83.3268 91.8868 83.4445C91.5133 83.689 91.1395 83.9331 90.7655 84.1769C89.7798 84.8198 88.7971 85.4673 87.8139 86.1139C86.679 86.8597 85.5438 87.605 84.4075 88.3487C83.613 88.8692 82.8207 89.3928 82.03 89.9191C81.7413 90.1105 81.4519 90.3006 81.1616 90.4896C79.5179 91.5603 78.1612 92.4495 77.5113 94.3799C77.4859 94.5279 77.4605 94.6758 77.4343 94.8282C77.4063 94.9802 77.3783 95.1322 77.3495 95.2889C77.3322 95.3998 77.315 95.5108 77.2973 95.6251C76.7714 95.6251 76.2454 95.6251 75.7036 95.6251C75.5629 93.9804 75.7568 92.8108 76.6997 91.4415C77.7886 90.3204 79.0379 89.4319 80.3471 88.5894C80.521 88.4757 80.6948 88.362 80.874 88.2449C81.245 88.0024 81.6165 87.7607 81.9883 87.5195C82.9681 86.8837 83.9444 86.2428 84.9213 85.6026C85.1178 85.4741 85.3143 85.3455 85.5168 85.213C87.2609 84.0712 88.9973 82.9184 90.726 81.7532C91.0194 81.5557 91.3131 81.3585 91.6071 81.1618C92.0119 80.891 92.4157 80.6187 92.8193 80.3459C92.9375 80.2671 93.0558 80.1883 93.1777 80.1071C93.8721 79.6344 94.3318 79.2654 94.5526 78.4238C94.6322 77.875 94.6574 77.3523 94.6614 76.7978C94.6634 76.583 94.6653 76.3682 94.6672 76.1469C94.6681 75.9168 94.6689 75.6866 94.6698 75.4495C94.671 75.211 94.6721 74.9725 94.6733 74.7268C94.6751 74.2228 94.6764 73.7187 94.6772 73.2147C94.6791 72.4452 94.6853 71.6758 94.6916 70.9064C94.6929 70.4161 94.694 69.9258 94.6947 69.4356C94.6984 69.0916 94.6984 69.0916 94.7022 68.7406C94.6983 67.3522 94.6436 66.2456 93.6955 65.157C93.0109 64.8425 92.3715 64.8176 91.6411 64.9454C90.9386 65.3271 90.703 65.5875 90.4223 66.336C90.1663 67.3077 90.1948 68.2807 90.1991 69.2792C90.196 69.6959 90.1927 70.1126 90.1893 70.5293C90.1861 71.1816 90.1843 71.8338 90.1857 72.4861C90.1862 73.1189 90.1806 73.7514 90.1742 74.3841C90.1762 74.5784 90.1782 74.7727 90.1803 74.9728C90.168 75.8308 90.155 76.4898 89.6146 77.1834C89.0571 77.69 88.5332 78.0686 87.8793 78.4409C87.7669 78.5058 87.6546 78.5707 87.5389 78.6375C87.1726 78.8486 86.8046 79.0564 86.4365 79.2642C86.1799 79.4113 85.9235 79.5587 85.6672 79.7063C85.2706 79.9347 84.8739 80.1629 84.4767 80.3902C83.5591 80.9157 82.647 81.4498 81.7385 81.991C81.6163 82.0638 81.4941 82.1366 81.3682 82.2116C80.7852 82.5591 80.2024 82.9073 79.6198 83.2555C79.4104 83.3801 79.201 83.5047 78.9852 83.633C78.8029 83.7419 78.6206 83.8507 78.4328 83.9629C77.1185 84.7125 76.2195 85.0706 74.7075 84.8672C73.7615 84.6057 73.1024 84.1615 72.5161 83.3731C71.9523 82.3453 71.8762 81.2221 72.1176 80.086C72.8507 78.4503 74.2785 77.3085 75.567 76.1148C76.5672 75.1543 77.1633 74.5182 77.2973 73.1133C77.0846 72.3924 76.8573 71.9067 76.3759 71.3328C75.6383 71.0028 74.9001 70.9587 74.1098 71.1212C73.2985 71.6186 72.6177 72.1627 71.9414 72.8301C71.7585 73.0098 71.5757 73.1894 71.3873 73.3746C71.1909 73.5696 70.9947 73.7648 70.7986 73.96C70.5937 74.1631 70.3888 74.3662 70.1839 74.5692C69.7554 74.9945 69.3277 75.4206 68.9005 75.8472C68.3581 76.3885 67.8127 76.9265 67.2663 77.4638C66.8419 77.8822 66.4198 78.3029 65.9982 78.7243C65.7984 78.9233 65.5977 79.1215 65.3962 79.3189C62.8842 81.7825 61.7119 84.0014 61.6758 87.5123C61.6719 87.7447 61.668 87.9771 61.6641 88.2165C61.6522 88.9553 61.6429 89.6941 61.6337 90.4329C61.6261 90.9352 61.6184 91.4376 61.6104 91.9399C61.5913 93.1683 61.5744 94.3966 61.559 95.6251C60.9674 95.6251 60.3757 95.6251 59.7661 95.6251C59.7457 94.1084 59.7318 92.5918 59.7223 91.075C59.7183 90.5599 59.7129 90.0448 59.7059 89.5297C59.6962 88.7859 59.6917 88.0422 59.6882 87.2983C59.6841 87.071 59.68 86.8437 59.6758 86.6094C59.6748 83.1318 61.2721 80.6718 63.6591 78.2736C63.8762 78.0579 64.0934 77.8424 64.3107 77.6269C64.5378 77.3993 64.7647 77.1716 64.9915 76.9438C65.4638 76.4704 65.9374 75.9984 66.4121 75.5275C67.0183 74.9258 67.6209 74.3206 68.2225 73.7142C68.689 73.2448 69.1574 72.7774 69.6264 72.3104C69.8494 72.088 70.0717 71.865 70.2935 71.6413C70.6037 71.3291 70.9163 71.0196 71.2297 70.7107C71.4064 70.5346 71.5832 70.3585 71.7653 70.177C73.1449 69.0505 74.5706 68.9722 76.3012 69.129C77.4701 69.4753 78.2025 70.3454 78.8911 71.3204C79.3772 72.4142 79.4182 73.5584 79.0903 74.7071C78.4084 76.1413 77.2793 77.1795 76.1518 78.2681C75.808 78.6034 75.4645 78.939 75.1215 79.2751C74.9703 79.4215 74.8191 79.5678 74.6633 79.7186C74.0736 80.3302 74.029 80.8372 74.0413 81.6844C74.0853 82.1348 74.0853 82.1348 74.5332 82.5762C75.2083 82.9285 75.5472 82.9433 76.3012 82.8751C76.893 82.6242 76.893 82.6242 77.4786 82.2533C77.5896 82.1872 77.7006 82.1212 77.815 82.0532C78.1793 81.8356 78.5414 81.6146 78.9035 81.3934C79.1573 81.2408 79.4112 81.0885 79.6652 80.9365C80.0616 80.6991 80.4579 80.4615 80.8535 80.2229C81.8065 79.6484 82.766 79.0863 83.7299 78.5304C83.9963 78.3763 84.2627 78.2222 84.5291 78.0681C84.9145 77.8452 85.3001 77.6226 85.6863 77.4011C86.0437 77.1959 86.4001 76.989 86.7563 76.7818C86.9595 76.6646 87.1627 76.5474 87.372 76.4266C87.9014 76.1157 87.9014 76.1157 88.2543 75.504C88.3154 75.0579 88.3154 75.0579 88.3084 74.559C88.3104 74.3675 88.3124 74.1759 88.3145 73.9786C88.315 73.7719 88.3154 73.5652 88.3158 73.3522C88.3208 72.9148 88.3259 72.4773 88.331 72.0398C88.3367 71.35 88.3415 70.6601 88.3453 69.9702C88.3496 69.3046 88.3574 68.639 88.3656 67.9733C88.3657 67.7679 88.3657 67.5624 88.3657 67.3507C88.3848 65.9597 88.5788 65.0816 89.5244 64.0115C90.8757 62.8211 92.0671 62.7144 93.8325 62.9532Z" fill="white"/>
<path d="M50.3564 37.3834C50.7514 37.3801 51.1463 37.3747 51.5412 37.3671C52.1113 37.3561 52.6811 37.3518 53.2513 37.3489C53.4269 37.3444 53.6025 37.3399 53.7835 37.3352C54.6434 37.3381 55.2078 37.3808 55.8904 37.9328C56.6441 38.7284 56.606 39.2762 56.5984 40.3247C56.5981 40.4701 56.5978 40.6154 56.5975 40.7652C56.5964 41.23 56.5939 41.6949 56.5914 42.1597C56.5904 42.4746 56.5894 42.7895 56.5886 43.1044C56.5864 43.8769 56.583 44.6494 56.5789 45.4219C56.7718 45.4167 56.9647 45.4115 57.1634 45.4061C57.8829 45.388 58.6024 45.3766 59.3221 45.3672C59.6328 45.3622 59.9435 45.3554 60.2541 45.3468C60.7022 45.3346 61.15 45.329 61.5983 45.3246C61.7359 45.3195 61.8735 45.3144 62.0154 45.3091C62.7815 45.3086 63.2503 45.4272 63.8355 45.9011C64.9665 47.0409 64.6081 48.833 64.6174 50.3557C64.6207 50.7507 64.6261 51.1456 64.6337 51.5405C64.6447 52.1106 64.649 52.6804 64.6519 53.2506C64.6564 53.4262 64.661 53.6018 64.6656 53.7827C64.6627 54.6427 64.62 55.2071 64.068 55.8897C63.2724 56.6434 62.7246 56.6052 61.6761 56.5976C61.5307 56.5973 61.3854 56.5971 61.2356 56.5968C60.7708 56.5957 60.3059 56.5932 59.8411 56.5906C59.5262 56.5896 59.2113 56.5887 58.8964 56.5879C58.1239 56.5857 57.3514 56.5823 56.5789 56.5782C56.5841 56.7711 56.5893 56.964 56.5947 57.1627C56.6128 57.8822 56.6242 58.6017 56.6336 59.3213C56.6386 59.632 56.6454 59.9428 56.654 60.2534C56.6662 60.7015 56.6718 61.1493 56.6762 61.5975C56.6813 61.7352 56.6865 61.8728 56.6918 62.0146C56.6922 62.7808 56.5736 63.2496 56.0997 63.8348C54.9599 64.9658 53.1679 64.6073 51.6451 64.6167C51.2502 64.62 50.8552 64.6254 50.4603 64.633C49.8902 64.6439 49.3204 64.6483 48.7502 64.6512C48.5746 64.6557 48.399 64.6602 48.2181 64.6649C47.3582 64.6619 46.7938 64.6193 46.1112 64.0673C45.3574 63.2717 45.3956 62.7239 45.4032 61.6754C45.4035 61.53 45.4038 61.3847 45.4041 61.2349C45.4052 60.77 45.4077 60.3052 45.4102 59.8404C45.4112 59.5255 45.4121 59.2106 45.4129 58.8956C45.4151 58.1231 45.4186 57.3507 45.4227 56.5782C45.2298 56.5834 45.0369 56.5886 44.8381 56.594C44.1186 56.6121 43.3992 56.6235 42.6795 56.6329C42.3688 56.6379 42.0581 56.6447 41.7474 56.6533C41.2993 56.6655 40.8515 56.6711 40.4033 56.6754C40.2656 56.6806 40.128 56.6857 39.9862 56.691C39.22 56.6915 38.7513 56.5729 38.1661 56.0989C37.035 54.9592 37.3935 53.1671 37.3842 51.6444C37.3809 51.2494 37.3754 50.8545 37.3678 50.4596C37.3569 49.8895 37.3525 49.3197 37.3496 48.7495C37.3428 48.4861 37.3428 48.4861 37.3359 48.2174C37.3389 47.3574 37.3816 46.793 37.9336 46.1104C38.7291 45.3567 39.277 45.3949 40.3255 45.4025C40.5435 45.4029 40.5435 45.4029 40.7659 45.4033C41.2308 45.4044 41.6956 45.4069 42.1604 45.4095C42.4754 45.4105 42.7903 45.4114 43.1052 45.4122C43.8777 45.4144 44.6502 45.4178 45.4227 45.4219C45.4174 45.229 45.4122 45.0361 45.4068 44.8374C45.3887 44.1179 45.3774 43.3984 45.3679 42.6788C45.3629 42.368 45.3562 42.0573 45.3475 41.7467C45.3353 41.2986 45.3298 40.8508 45.3254 40.4025C45.3202 40.2649 45.3151 40.1273 45.3098 39.9855C45.3094 39.2193 45.428 38.7505 45.9019 38.1653C47.0416 37.0343 48.8337 37.3927 50.3564 37.3834ZM47.3322 39.3518C46.8943 40.034 46.8963 40.6608 46.895 41.4469C46.8917 41.6005 46.8884 41.7542 46.885 41.9125C46.8754 42.4016 46.8711 42.8907 46.867 43.3799C46.8614 43.7122 46.8554 44.0445 46.8491 44.3768C46.8344 45.19 46.8245 46.0031 46.8172 46.8165C46.6101 46.8183 46.4031 46.8202 46.1898 46.8221C45.4204 46.83 44.6512 46.8431 43.8819 46.8578C43.5492 46.8634 43.2164 46.8676 42.8837 46.8704C42.4049 46.8747 41.9263 46.884 41.4476 46.8943C41.2992 46.8945 41.1508 46.8948 40.9979 46.895C40.3417 46.9135 39.9094 46.974 39.3525 47.3314C38.9327 47.9939 38.9445 48.4753 38.9418 49.2569C38.9411 49.3954 38.9403 49.5338 38.9395 49.6765C38.939 49.9685 38.9404 50.2606 38.9438 50.5526C38.948 50.9987 38.9438 51.4442 38.9387 51.8903C38.9392 52.1746 38.9403 52.4589 38.9418 52.7432C38.9427 53.001 38.9436 53.2589 38.9445 53.5245C39.0024 54.1869 39.0024 54.1869 39.3525 54.6687C40.0348 55.1065 40.6615 55.1045 41.4476 55.1058C41.6013 55.1091 41.7549 55.1124 41.9132 55.1158C42.4024 55.1255 42.8914 55.1297 43.3807 55.1338C43.713 55.1394 44.0452 55.1454 44.3775 55.1517C45.1907 55.1664 46.0039 55.1763 46.8172 55.1836C46.819 55.3907 46.8209 55.5977 46.8228 55.8111C46.8308 56.5804 46.8439 57.3496 46.8585 58.1189C46.8641 58.4516 46.8684 58.7844 46.8712 59.1171C46.8754 59.596 46.8847 60.0745 46.895 60.5532C46.8952 60.7016 46.8955 60.85 46.8957 61.0029C46.9142 61.6591 46.9748 62.0914 47.3322 62.6483C47.9946 63.0681 48.476 63.0563 49.2576 63.059C49.4653 63.0601 49.4653 63.0601 49.6773 63.0613C49.9693 63.0619 50.2613 63.0604 50.5533 63.0571C50.9994 63.0528 51.4449 63.057 51.891 63.0621C52.1753 63.0616 52.4596 63.0606 52.7439 63.059C53.0018 63.0581 53.2596 63.0572 53.5253 63.0563C54.1876 62.9984 54.1876 62.9984 54.6694 62.6483C55.1072 61.9661 55.1053 61.3393 55.1066 60.5532C55.1098 60.3996 55.1131 60.2459 55.1165 60.0876C55.1262 59.5985 55.1304 59.1094 55.1346 58.6202C55.1402 58.2879 55.1461 57.9556 55.1525 57.6233C55.1672 56.8101 55.1771 55.9969 55.1844 55.1836C55.4949 55.1808 55.4949 55.1808 55.8118 55.178C56.5812 55.17 57.3504 55.1569 58.1196 55.1423C58.4524 55.1367 58.7851 55.1325 59.1179 55.1297C59.5967 55.1254 60.0752 55.1161 60.5539 55.1058C60.7765 55.1055 60.7765 55.1055 61.0037 55.1051C61.6598 55.0866 62.0922 55.026 62.649 54.6687C63.0688 54.0062 63.057 53.5248 63.0597 52.7432C63.0605 52.6047 63.0613 52.4662 63.062 52.3236C63.0626 52.0315 63.0611 51.7395 63.0578 51.4475C63.0535 51.0014 63.0578 50.5559 63.0628 50.1098C63.0623 49.8255 63.0613 49.5412 63.0597 49.2569C63.0588 48.999 63.0579 48.7412 63.057 48.4756C62.9992 47.8132 62.9992 47.8132 62.649 47.3314C61.9668 46.8936 61.3401 46.8956 60.5539 46.8943C60.3235 46.8893 60.3235 46.8893 60.0884 46.8843C59.5992 46.8746 59.1101 46.8704 58.6209 46.8663C58.2886 46.8606 57.9563 46.8547 57.624 46.8484C56.8108 46.8336 55.9977 46.8238 55.1844 46.8165C55.1825 46.6094 55.1806 46.4024 55.1787 46.189C55.1708 45.4197 55.1577 44.6505 55.143 43.8812C55.1374 43.5485 55.1332 43.2157 55.1304 42.8829C55.1261 42.4041 55.1168 41.9256 55.1066 41.4469C55.1063 41.2985 55.1061 41.1501 55.1058 40.9972C55.0873 40.341 55.0268 39.9087 54.6694 39.3518C54.0069 38.932 53.5255 38.9438 52.7439 38.9411C52.5362 38.9399 52.5362 38.9399 52.3243 38.9388C52.0323 38.9382 51.7402 38.9397 51.4482 38.943C51.0021 38.9473 50.5566 38.9431 50.1105 38.938C49.8262 38.9385 49.5419 38.9395 49.2576 38.9411C48.8709 38.9424 48.8709 38.9424 48.4763 38.9438C47.8139 39.0016 47.8139 39.0016 47.3322 39.3518Z" fill="white"/>
<path d="M68.9141 8.72723C69.056 8.7256 69.1979 8.72397 69.3442 8.7223C69.8149 8.71734 70.2855 8.71405 70.7563 8.71118C70.917 8.71012 71.0778 8.70906 71.2435 8.70797C72.0948 8.70264 72.9461 8.69878 73.7975 8.69591C74.676 8.6926 75.5543 8.68368 76.4328 8.67352C77.1089 8.66681 77.785 8.66452 78.4611 8.66339C78.7849 8.66206 79.1086 8.65903 79.4323 8.65425C79.8863 8.64794 80.34 8.64794 80.794 8.64941C81.0521 8.6478 81.3101 8.64619 81.576 8.64453C82.4971 8.80375 82.8159 9.1079 83.472 9.76175C83.9021 10.6218 83.7348 11.7555 83.7459 12.7002C83.7571 13.0531 83.7571 13.0531 83.7685 13.4131C83.7882 15.3585 83.7882 15.3585 83.1934 16.0901C82.2243 16.9224 82.2234 16.7344 80.683 16.7344C80.683 20.8762 80.683 25.0179 80.683 29.2852C80.0913 29.2852 79.4996 29.2852 78.89 29.2852C78.89 25.1434 78.89 21.0017 78.89 16.7344C76.326 16.7344 73.7621 16.7344 71.1205 16.7344C71.1205 17.7205 71.1205 18.7067 71.1205 19.7227C70.5288 19.7227 69.9371 19.7227 69.3275 19.7227C69.3275 18.7366 69.3275 17.7504 69.3275 16.7344C68.9207 16.7652 68.9207 16.7652 68.5057 16.7967C67.7859 16.8001 67.394 16.7243 66.8373 16.2613C65.8674 15.243 66.0813 14.1484 66.0653 12.7998C66.0578 12.5646 66.0504 12.3294 66.0427 12.087C66.023 10.1416 66.023 10.1416 66.6178 9.41C67.4245 8.7172 67.8575 8.73775 68.9141 8.72723ZM67.7337 11.1563C67.6539 11.7202 67.6219 12.1889 67.6341 12.75C67.631 12.8918 67.628 13.0335 67.6248 13.1796C67.6297 13.8328 67.6656 14.2524 68.0608 14.7825C68.6683 15.2456 69.0194 15.2416 69.7788 15.2438C70.1578 15.2475 70.1578 15.2475 70.5444 15.2514C70.8194 15.25 71.0945 15.2483 71.3695 15.2465C71.6523 15.247 71.9351 15.2478 72.2179 15.2488C72.8101 15.25 73.4022 15.2483 73.9943 15.2445C74.7527 15.24 75.5109 15.2426 76.2693 15.2474C76.8531 15.2503 77.4369 15.2494 78.0207 15.2473C78.3003 15.2468 78.5799 15.2474 78.8595 15.2493C79.2504 15.2513 79.6414 15.2477 80.0324 15.2438C80.3659 15.2428 80.3659 15.2428 80.7061 15.2418C81.4154 15.1169 81.6509 14.916 82.0775 14.3438C82.1574 13.7799 82.1893 13.3111 82.1771 12.75C82.1802 12.6083 82.1833 12.4665 82.1864 12.3205C82.1816 11.6673 82.1456 11.2476 81.7505 10.7176C81.1429 10.2544 80.7918 10.2585 80.0324 10.2563C79.7798 10.2538 79.5271 10.2513 79.2668 10.2487C78.9918 10.2501 78.7168 10.2517 78.4417 10.2536C78.1589 10.253 77.8761 10.2523 77.5933 10.2513C77.0011 10.2501 76.4091 10.2518 75.8169 10.2555C75.0585 10.2601 74.3003 10.2574 73.542 10.2527C72.9581 10.2498 72.3743 10.2507 71.7905 10.2528C71.5109 10.2533 71.2313 10.2527 70.9518 10.2508C70.5608 10.2488 70.1698 10.2524 69.7788 10.2563C69.4454 10.2572 69.4454 10.2572 69.1051 10.2582C68.3959 10.3831 68.1603 10.5841 67.7337 11.1563Z" fill="white"/>
<path d="M82.0781 49.8047C82.6041 49.8047 83.13 49.8047 83.6719 49.8047C83.6952 53.1867 83.7127 56.5688 83.7235 59.9509C83.7286 61.5213 83.7356 63.0917 83.747 64.662C83.757 66.0309 83.7634 67.3998 83.7656 68.7687C83.7669 69.4935 83.7699 70.2181 83.7772 70.9428C83.7852 71.7522 83.7854 72.5615 83.785 73.371C83.7885 73.6107 83.7921 73.8504 83.7958 74.0974C83.7846 75.9091 83.7846 75.9091 83.1917 76.6458C82.5171 77.2366 82.229 77.3218 81.356 77.3093C81.1931 77.3075 81.0303 77.3057 80.8626 77.3039C80.6754 77.3004 80.6754 77.3004 80.4844 77.2969C80.4844 76.7709 80.4844 76.245 80.4844 75.7031C80.7741 75.6168 80.7741 75.6168 81.0696 75.5288C81.7009 75.376 81.7009 75.376 81.8789 74.9062C81.8998 74.5731 81.9081 74.2392 81.9104 73.9054C81.9124 73.6936 81.9143 73.4819 81.9163 73.2637C81.9175 73.0304 81.9186 72.7971 81.9198 72.5568C81.9228 72.1894 81.9228 72.1894 81.9258 71.8147C81.931 71.1422 81.9354 70.4696 81.9393 69.7971C81.9437 69.0947 81.9491 68.3922 81.9545 67.6897C81.9644 66.3591 81.9734 65.0284 81.982 63.6978C81.9918 62.183 82.0028 60.6683 82.0138 59.1536C82.0365 56.0373 82.0578 52.921 82.0781 49.8047Z" fill="white"/>
<path d="M18.3275 49.8047C18.8535 49.8047 19.3794 49.8047 19.9213 49.8047C19.9217 49.9335 19.9222 50.0623 19.9227 50.195C19.9345 53.3275 19.9495 56.4598 19.9682 59.5922C19.9772 61.107 19.985 62.6218 19.9903 64.1366C19.9949 65.4567 20.0015 66.7768 20.0107 68.0969C20.0154 68.796 20.0192 69.4952 20.0204 70.1944C20.0218 70.9743 20.0279 71.7542 20.0344 72.5342C20.0341 72.7667 20.0338 72.9993 20.0335 73.2389C20.036 73.4509 20.0385 73.663 20.0411 73.8814C20.0424 74.1583 20.0424 74.1583 20.0438 74.4407C20.1351 74.9949 20.2758 75.1687 20.7181 75.5039C21.1372 75.6462 21.1372 75.6462 21.515 75.7031C21.515 76.2291 21.515 76.755 21.515 77.2969C19.9982 77.4486 19.9982 77.4486 19.3438 77.0891C18.9173 76.7344 18.577 76.4014 18.3275 75.9023C18.309 75.5565 18.3032 75.21 18.3036 74.8637C18.3033 74.6435 18.303 74.4234 18.3027 74.1966C18.3035 73.954 18.3042 73.7114 18.3049 73.4614C18.3049 73.2068 18.3048 72.9522 18.3048 72.6899C18.3048 71.9906 18.3059 71.2913 18.3073 70.5921C18.3086 69.8617 18.3087 69.1313 18.3089 68.4009C18.3095 67.0174 18.3112 65.6338 18.3132 64.2502C18.3154 62.6753 18.3165 61.1003 18.3175 59.5254C18.3196 56.2852 18.3231 53.0449 18.3275 49.8047Z" fill="white"/>
<path d="M39.4453 75.7031C47.0714 75.7031 54.6975 75.7031 62.5547 75.7031C62.5547 76.2291 62.5547 76.755 62.5547 77.2969C54.9286 77.2969 47.3025 77.2969 39.4453 77.2969C39.4453 76.7709 39.4453 76.245 39.4453 75.7031Z" fill="white"/>
</svg>
