<svg width="904" height="904" viewBox="0 0 904 904" fill="none" xmlns="http://www.w3.org/2000/svg">
<path d="M628.919 686.428C643.439 686.428 655.562 691.277 665.549 700.996L666.022 701.463C676.041 711.51 681.044 723.78 681.044 738.552C681.044 753.3 676.04 765.561 666.016 775.611C655.966 785.66 643.693 790.677 628.919 790.677C614.172 790.677 601.911 785.662 591.86 775.611C581.81 765.56 576.795 753.299 576.795 738.552C576.795 723.809 581.808 711.535 591.857 701.459C601.907 691.433 614.169 686.428 628.919 686.428ZM275.847 686.428C290.623 686.428 302.883 691.434 312.905 701.456C322.928 711.479 327.947 723.753 327.971 738.559C327.994 753.354 322.979 765.606 312.915 775.6C302.836 785.61 290.566 790.628 275.838 790.676C261.068 790.674 248.798 785.658 238.75 775.611C228.701 765.562 223.698 753.303 223.722 738.559C223.745 723.803 228.752 711.522 238.76 701.445C248.806 691.428 261.076 686.428 275.847 686.428ZM165.286 98.8754L199.861 171.663L201.03 174.125H693.634C708.543 174.125 719.411 180.086 726.839 192.098L726.844 192.106C734.293 204.092 734.708 216.19 728.014 229.005L620.557 424.82C615.464 433.371 608.9 440.016 600.854 444.839C592.839 449.643 584.04 452.052 574.363 452.052H303.084L301.858 454.301L256.214 538.075C253.96 541.523 252.707 545.26 252.628 549.231C252.548 553.252 253.673 557.234 255.752 561.117C257.844 565.025 260.584 568.177 264.055 570.341C267.537 572.513 271.514 573.538 275.831 573.553H681.044V602.552H275.847C255.387 602.552 240.448 594.071 230.433 576.922C220.381 559.712 220.148 542.741 229.694 525.418L286.267 424.613L287.36 422.664L286.399 420.647L148.052 130.332L146.881 127.875H80.4453V98.8754H165.286ZM218.26 209.289L318.682 420.591L319.851 423.053H572.219C577.314 423.053 581.989 421.759 586.104 419.091L586.105 419.092C590.086 416.527 593.412 413.035 596.114 408.729L596.179 408.624L596.238 408.517L694.665 229.798L694.672 229.786L694.679 229.774C698.057 223.546 698.709 217.176 695.318 211.419L695.314 211.412C691.934 205.696 686.222 203.125 679.299 203.125H215.331L218.26 209.289Z" fill="white" stroke="#FBFBFB" stroke-width="8.6257"/>
</svg>
