<svg width="19" height="38" viewBox="0 0 19 38" fill="none" xmlns="http://www.w3.org/2000/svg">
<path fill-rule="evenodd" clip-rule="evenodd" d="M1.55273 25.1328H17.8527H1.55273Z" fill="url(#paint0_linear_1_7240)"/>
<path d="M1.55273 25.1328H17.8527" stroke="url(#paint1_linear_1_7240)" stroke-width="1.25" stroke-linecap="square"/>
<path d="M16.8386 1C17.6697 1 18.343 1.67344 18.343 2.50442V29.4956C18.343 30.3265 17.6697 31 16.8386 31H2.80325C1.97227 31 1.29883 30.3265 1.29883 29.4956V2.50442C1.29883 1.67344 1.97227 1 2.80325 1H16.8386Z" stroke="url(#paint2_linear_1_7240)" stroke-width="1.25" stroke-linecap="round" stroke-linejoin="round"/>
<path fill-rule="evenodd" clip-rule="evenodd" d="M2.04883 6.32764H17.0931H2.04883Z" fill="url(#paint3_linear_1_7240)"/>
<path d="M2.04883 6.32764H17.0931" stroke="url(#paint4_linear_1_7240)" stroke-width="1.25" stroke-linecap="square"/>
<path d="M12.5824 3.01758C12.9979 3.01758 13.3346 3.3543 13.3346 3.76979C13.3346 4.18528 12.9979 4.522 12.5824 4.522H6.56471C6.14922 4.522 5.8125 4.18528 5.8125 3.76979C5.8125 3.3543 6.14922 3.01758 6.56471 3.01758H12.5824Z" fill="url(#paint5_linear_1_7240)"/>
<g filter="url(#filter0_d_1_7240)">
<path fill-rule="evenodd" clip-rule="evenodd" d="M8.82031 28.1416C8.82031 27.3107 9.49387 26.6372 10.3247 26.6372C11.1556 26.6372 11.8292 27.3107 11.8292 28.1416C11.8292 28.9725 11.1556 29.6461 10.3247 29.6461C9.49387 29.6461 8.82031 28.9725 8.82031 28.1416Z" stroke="url(#paint6_linear_1_7240)" stroke-width="0.75"/>
</g>
<mask id="mask0_1_7240" style="mask-type:luminance" maskUnits="userSpaceOnUse" x="6" y="11" width="8" height="9">
<path d="M6.10352 11.8857H13.3338V19.116H6.10352V11.8857Z" fill="white"/>
</mask>
<g mask="url(#mask0_1_7240)">
<path fill-rule="evenodd" clip-rule="evenodd" d="M10.9783 16.1152C10.857 15.9816 10.7107 15.9101 10.5557 15.9101C10.4019 15.9101 10.2544 15.9802 10.1281 16.1138L9.733 16.5305C9.70049 16.512 9.66798 16.4948 9.63672 16.4776C9.59172 16.4538 9.54921 16.4313 9.51294 16.4075C9.14286 16.1588 8.80652 15.8347 8.48395 15.4154C8.32766 15.2064 8.22264 15.0305 8.14637 14.8519C8.2489 14.7527 8.34392 14.6495 8.43644 14.5503C8.47145 14.5133 8.50645 14.4749 8.54146 14.4379C8.80402 14.1601 8.80402 13.8003 8.54146 13.5225L8.20013 13.1614C8.16137 13.1204 8.12136 13.078 8.08385 13.0357C8.00883 12.9537 7.93007 12.869 7.8488 12.7897C7.72752 12.6627 7.58248 12.5952 7.42995 12.5952C7.27741 12.5952 7.12987 12.6627 7.00484 12.7897L7.00234 12.7923L6.57724 13.246C6.4172 13.4153 6.32593 13.6217 6.30593 13.8611C6.27592 14.2474 6.38344 14.6072 6.46596 14.8426C6.66851 15.4207 6.97109 15.9564 7.42244 16.5305C7.97008 17.2223 8.62899 17.7687 9.38167 18.1536C9.66924 18.2978 10.0531 18.4684 10.4819 18.4975C10.5082 18.4988 10.5357 18.5002 10.5607 18.5002C10.8495 18.5002 11.0921 18.3904 11.2821 18.1721C11.2834 18.1695 11.2859 18.1681 11.2871 18.1655C11.3521 18.0822 11.4272 18.0068 11.5059 17.9261C11.5597 17.8718 11.6147 17.815 11.6685 17.7554C11.7922 17.6192 11.8573 17.4604 11.8573 17.2977C11.8573 17.1337 11.791 16.9763 11.6647 16.844L10.9783 16.1152ZM11.4259 17.5081C11.3772 17.5636 11.3271 17.6139 11.2734 17.6694C11.1921 17.7515 11.1096 17.8374 11.0321 17.934C10.9058 18.0769 10.757 18.1443 10.562 18.1443C10.5432 18.1443 10.5232 18.1443 10.5044 18.143C10.1331 18.1179 9.78803 17.9644 9.52921 17.8335C8.82154 17.471 8.20015 16.9564 7.68378 16.3043C7.25742 15.7606 6.97235 15.258 6.78355 14.7183C6.66727 14.3889 6.62476 14.1323 6.64352 13.8902C6.65602 13.7355 6.71229 13.6071 6.81606 13.4974L7.24241 13.0463C7.30368 12.9854 7.36869 12.9524 7.43246 12.9524C7.51123 12.9524 7.575 13.0026 7.61501 13.045L7.61875 13.0489C7.69502 13.1243 7.76754 13.2024 7.84381 13.2857C7.88256 13.328 7.92257 13.3704 7.96258 13.414L8.30392 13.7751C8.43645 13.9154 8.43645 14.045 8.30392 14.1852C8.26766 14.2236 8.23265 14.2619 8.19639 14.299C8.09137 14.4127 7.99134 14.5186 7.88256 14.6217C7.88007 14.6244 7.87757 14.6257 7.87631 14.6283C7.76879 14.7421 7.78879 14.8532 7.8113 14.9286C7.81255 14.9326 7.8138 14.9366 7.81505 14.9405C7.90382 15.168 8.02885 15.3823 8.2189 15.6376L8.22015 15.6389C8.56523 16.0887 8.92907 16.4392 9.33042 16.7078C9.38168 16.7422 9.43419 16.7699 9.4842 16.7964C9.52921 16.8202 9.57173 16.8427 9.60798 16.8665C9.61298 16.8692 9.61799 16.8731 9.62299 16.8758C9.66549 16.8982 9.7055 16.9088 9.74676 16.9088C9.85053 16.9088 9.91556 16.84 9.93681 16.8176L10.3644 16.3652C10.4069 16.3202 10.4744 16.266 10.5532 16.266C10.6307 16.266 10.6945 16.3175 10.7333 16.3625L10.7358 16.3652L11.4247 17.094C11.5534 17.229 11.5534 17.3678 11.4259 17.5081Z" fill="#FF8303"/>
<path d="M11.4259 17.5081V17.5081ZM11.4259 17.5081C11.3772 17.5636 11.3271 17.6139 11.2734 17.6694C11.1921 17.7515 11.1096 17.8374 11.0321 17.934C10.9058 18.0769 10.757 18.1443 10.562 18.1443C10.5432 18.1443 10.5232 18.1443 10.5044 18.143C10.1331 18.1179 9.78803 17.9644 9.52921 17.8335C8.82154 17.471 8.20015 16.9564 7.68378 16.3043C7.25742 15.7606 6.97235 15.258 6.78355 14.7183C6.66727 14.3889 6.62476 14.1323 6.64352 13.8902C6.65602 13.7355 6.71229 13.6071 6.81606 13.4974L7.24241 13.0463C7.30368 12.9854 7.36869 12.9524 7.43246 12.9524C7.51123 12.9524 7.575 13.0026 7.61501 13.045L7.61875 13.0489C7.69502 13.1243 7.76754 13.2024 7.84381 13.2857C7.88256 13.328 7.92257 13.3704 7.96258 13.414L8.30392 13.7751C8.43645 13.9154 8.43645 14.045 8.30392 14.1852C8.26766 14.2236 8.23265 14.2619 8.19639 14.299C8.09137 14.4127 7.99134 14.5186 7.88256 14.6217C7.88007 14.6244 7.87757 14.6257 7.87631 14.6283C7.76879 14.7421 7.78879 14.8532 7.8113 14.9286C7.81255 14.9326 7.8138 14.9366 7.81505 14.9405C7.90382 15.168 8.02885 15.3823 8.2189 15.6376L8.22015 15.6389C8.56523 16.0887 8.92907 16.4392 9.33042 16.7078C9.38168 16.7422 9.43419 16.7699 9.4842 16.7964C9.52921 16.8202 9.57173 16.8427 9.60798 16.8665C9.61298 16.8692 9.61799 16.8731 9.62299 16.8758C9.66549 16.8982 9.7055 16.9088 9.74676 16.9088C9.85053 16.9088 9.91556 16.84 9.93681 16.8176L10.3644 16.3652C10.4069 16.3202 10.4744 16.266 10.5532 16.266C10.6307 16.266 10.6945 16.3175 10.7333 16.3625L10.7358 16.3652L11.4247 17.094C11.5534 17.229 11.5534 17.3678 11.4259 17.5081ZM10.9783 16.1152C10.857 15.9816 10.7107 15.9101 10.5557 15.9101C10.4019 15.9101 10.2544 15.9802 10.1281 16.1138L9.733 16.5305C9.70049 16.512 9.66798 16.4948 9.63672 16.4776C9.59172 16.4538 9.54921 16.4313 9.51294 16.4075C9.14286 16.1588 8.80652 15.8347 8.48395 15.4154C8.32766 15.2064 8.22264 15.0305 8.14637 14.8519C8.2489 14.7527 8.34392 14.6495 8.43644 14.5503C8.47145 14.5133 8.50645 14.4749 8.54146 14.4379C8.80402 14.1601 8.80402 13.8003 8.54146 13.5225L8.20013 13.1614C8.16137 13.1204 8.12136 13.078 8.08385 13.0357C8.00883 12.9537 7.93007 12.869 7.8488 12.7897C7.72752 12.6627 7.58248 12.5952 7.42995 12.5952C7.27741 12.5952 7.12987 12.6627 7.00484 12.7897L7.00234 12.7923L6.57724 13.246C6.4172 13.4153 6.32593 13.6217 6.30593 13.8611C6.27592 14.2474 6.38344 14.6072 6.46596 14.8426C6.66851 15.4207 6.97109 15.9564 7.42244 16.5305C7.97008 17.2223 8.62899 17.7687 9.38167 18.1536C9.66924 18.2978 10.0531 18.4684 10.4819 18.4975C10.5082 18.4988 10.5357 18.5002 10.5607 18.5002C10.8495 18.5002 11.0921 18.3904 11.2821 18.1721C11.2834 18.1695 11.2859 18.1681 11.2871 18.1655C11.3521 18.0822 11.4272 18.0068 11.5059 17.9261C11.5597 17.8718 11.6147 17.815 11.6685 17.7554C11.7922 17.6192 11.8573 17.4604 11.8573 17.2977C11.8573 17.1337 11.791 16.9763 11.6647 16.844L10.9783 16.1152Z" stroke="#FF8303" stroke-width="0.375"/>
<path fill-rule="evenodd" clip-rule="evenodd" d="M9.59998 13.8754C9.95542 13.9388 10.2783 14.1176 10.5361 14.3915C10.7938 14.6655 10.9607 15.0086 11.0218 15.3863C11.0367 15.4815 11.114 15.5478 11.2022 15.5478C11.213 15.5478 11.2225 15.5464 11.2334 15.5449C11.3338 15.5276 11.4003 15.4267 11.384 15.32C11.3107 14.863 11.1072 14.4463 10.7966 14.1161C10.4859 13.786 10.0938 13.5697 9.66374 13.4919C9.56335 13.4746 9.46974 13.5452 9.4521 13.6505C9.43447 13.7557 9.49958 13.8581 9.59998 13.8754Z" fill="#FF8303" stroke="#FF8303" stroke-width="0.375"/>
<path fill-rule="evenodd" clip-rule="evenodd" d="M12.5474 15.2638C12.4267 14.5112 12.0929 13.8264 11.5801 13.2814C11.0673 12.7364 10.4229 12.3818 9.71468 12.2535C9.61566 12.2347 9.52204 12.3068 9.5044 12.412C9.48813 12.5187 9.5546 12.6182 9.65499 12.637C10.2872 12.7509 10.8638 13.0695 11.3223 13.5554C11.7809 14.0427 12.0794 14.6554 12.1865 15.3273C12.2015 15.4224 12.2788 15.4887 12.367 15.4887C12.3778 15.4887 12.3873 15.4873 12.3982 15.4859C12.4972 15.47 12.565 15.3691 12.5474 15.2638Z" fill="#FF8303" stroke="#FF8303" stroke-width="0.375"/>
</g>
<defs>
<filter id="filter0_d_1_7240" x="3.44531" y="23.7622" width="13.7598" height="13.7588" filterUnits="userSpaceOnUse" color-interpolation-filters="sRGB">
<feFlood flood-opacity="0" result="BackgroundImageFix"/>
<feColorMatrix in="SourceAlpha" type="matrix" values="0 0 0 0 0 0 0 0 0 0 0 0 0 0 0 0 0 0 127 0" result="hardAlpha"/>
<feOffset dy="2.5"/>
<feGaussianBlur stdDeviation="2.5"/>
<feColorMatrix type="matrix" values="0 0 0 0 0.392157 0 0 0 0 0.392157 0 0 0 0 0.392157 0 0 0 0.498039 0"/>
<feBlend mode="normal" in2="BackgroundImageFix" result="effect1_dropShadow_1_7240"/>
<feBlend mode="normal" in="SourceGraphic" in2="effect1_dropShadow_1_7240" result="shape"/>
</filter>
<linearGradient id="paint0_linear_1_7240" x1="9.70273" y1="25.1328" x2="9.70273" y2="26.1328" gradientUnits="userSpaceOnUse">
<stop stop-color="#047CF4"/>
<stop offset="1" stop-color="#0431D7"/>
</linearGradient>
<linearGradient id="paint1_linear_1_7240" x1="1.55273" y1="25.6328" x2="17.8527" y2="25.6328" gradientUnits="userSpaceOnUse">
<stop stop-color="#047CF4"/>
<stop offset="1" stop-color="#0431D7"/>
</linearGradient>
<linearGradient id="paint2_linear_1_7240" x1="9.82093" y1="1" x2="9.82093" y2="31" gradientUnits="userSpaceOnUse">
<stop stop-color="#047CF4"/>
<stop offset="1" stop-color="#0431D7"/>
</linearGradient>
<linearGradient id="paint3_linear_1_7240" x1="9.57094" y1="6.32764" x2="9.57094" y2="7.32764" gradientUnits="userSpaceOnUse">
<stop stop-color="#047CF4"/>
<stop offset="1" stop-color="#0431D7"/>
</linearGradient>
<linearGradient id="paint4_linear_1_7240" x1="2.04883" y1="6.82764" x2="17.0931" y2="6.82764" gradientUnits="userSpaceOnUse">
<stop stop-color="#047CF4"/>
<stop offset="1" stop-color="#0431D7"/>
</linearGradient>
<linearGradient id="paint5_linear_1_7240" x1="9.57356" y1="3.01758" x2="9.57356" y2="4.522" gradientUnits="userSpaceOnUse">
<stop stop-color="#047CF4"/>
<stop offset="1" stop-color="#0431D7"/>
</linearGradient>
<linearGradient id="paint6_linear_1_7240" x1="10.3247" y1="26.6372" x2="10.3247" y2="29.6461" gradientUnits="userSpaceOnUse">
<stop stop-color="#0431D7"/>
<stop offset="1" stop-color="#047CF4"/>
</linearGradient>
</defs>
</svg>
