<svg width="30" height="30" viewBox="0 0 30 30" fill="none" xmlns="http://www.w3.org/2000/svg">
<path d="M15.0586 9.16504V14.4029" stroke="url(#paint0_linear_1_7312)" stroke-width="1.25" stroke-linecap="round"/>
<rect x="1.25" y="15.144" width="27.5" height="9.69129" rx="4.375" stroke="url(#paint1_linear_1_7312)" stroke-width="1.25"/>
<path d="M10.7512 25.1284C10.7512 26.4382 9.63073 27.5 8.24862 27.5C6.86651 27.5 5.74609 26.4382 5.74609 25.1284C5.74609 23.8186 6.69192 24.9629 8.07403 24.9629C9.45614 24.9629 10.7512 23.8186 10.7512 25.1284Z" fill="url(#paint2_linear_1_7312)"/>
<path d="M24.3703 25.1284C24.3703 26.4382 23.2499 27.5 21.8678 27.5C20.4857 27.5 19.3652 26.4382 19.3652 25.1284C19.3652 23.8186 20.3111 24.9629 21.6932 24.9629C23.0753 24.9629 24.3703 23.8186 24.3703 25.1284Z" fill="url(#paint3_linear_1_7312)"/>
<circle cx="19.6569" cy="20.3972" r="1.33856" fill="url(#paint4_linear_1_7312)"/>
<circle cx="23.8464" cy="20.3972" r="1.33856" fill="url(#paint5_linear_1_7312)"/>
<path fill-rule="evenodd" clip-rule="evenodd" d="M15.06 2.51025C13.1303 2.50712 11.2561 3.12554 9.74174 4.26513C9.67384 4.3188 9.59535 4.35898 9.5109 4.38331C9.42645 4.40764 9.33775 4.41562 9.25001 4.40678C9.16228 4.39795 9.07728 4.37247 9.00004 4.33186C8.92279 4.29125 8.85485 4.23633 8.80023 4.17032C8.7456 4.10431 8.70539 4.02855 8.68195 3.94751C8.65852 3.86646 8.65235 3.78177 8.66379 3.69842C8.67523 3.61507 8.70407 3.53474 8.74859 3.46217C8.79311 3.38959 8.85242 3.32624 8.92303 3.27584C10.6706 1.96089 12.8332 1.24702 15.06 1.25001C17.2868 1.24702 19.4494 1.96089 21.197 3.27584C21.2676 3.32624 21.3269 3.38959 21.3715 3.46217C21.416 3.53474 21.4448 3.61507 21.4563 3.69842C21.4677 3.78177 21.4615 3.86646 21.4381 3.94751C21.4147 4.02855 21.3745 4.10431 21.3198 4.17032C21.2652 4.23633 21.1973 4.29125 21.12 4.33186C21.0428 4.37247 20.9578 4.39795 20.87 4.40678C20.7823 4.41562 20.6936 4.40764 20.6092 4.38331C20.5247 4.35898 20.4462 4.3188 20.3783 4.26513C18.8639 3.12554 16.9897 2.50712 15.06 2.51025ZM15.06 5.03072C14.2683 5.02969 13.4843 5.17969 12.7543 5.47188C12.0244 5.76407 11.3632 6.19254 10.8098 6.73204C10.687 6.85145 10.5195 6.91949 10.344 6.92121C10.1686 6.92292 9.99965 6.85816 9.87433 6.74118C9.74901 6.6242 9.6776 6.46457 9.6758 6.29742C9.67401 6.13027 9.74197 5.96928 9.86474 5.84988C10.5414 5.19062 11.3496 4.66702 12.2418 4.30991C13.1341 3.9528 14.0923 3.76939 15.06 3.77048C16.0278 3.76939 16.986 3.9528 17.8782 4.30991C18.7704 4.66702 19.5787 5.19062 20.2553 5.84988C20.3161 5.909 20.3641 5.97895 20.3965 6.05574C20.4289 6.13253 20.4451 6.21466 20.4442 6.29742C20.4434 6.38019 20.4254 6.46197 20.3913 6.53811C20.3572 6.61425 20.3078 6.68326 20.2457 6.74118C20.1837 6.7991 20.1103 6.84482 20.0297 6.8757C19.9491 6.90659 19.8629 6.92206 19.776 6.92121C19.6892 6.92036 19.6033 6.90322 19.5234 6.87076C19.4435 6.8383 19.3711 6.79117 19.3103 6.73204C18.7569 6.19254 18.0957 5.76407 17.3657 5.47188C16.6357 5.17969 15.8518 5.02969 15.06 5.03072ZM15.06 7.5512C14.0813 7.5512 13.2017 7.95573 12.596 8.60098C12.4785 8.7237 12.3149 8.79725 12.1408 8.80565C11.9667 8.81404 11.7961 8.75659 11.6663 8.64579C11.5364 8.53499 11.4577 8.37981 11.4473 8.21401C11.4368 8.0482 11.4955 7.88517 11.6106 7.7604C12.0444 7.29764 12.576 6.9275 13.1704 6.67426C13.7649 6.42101 14.4088 6.29039 15.06 6.29096C16.4309 6.29096 17.6636 6.85996 18.5101 7.76103C18.569 7.82253 18.6145 7.89453 18.644 7.97288C18.6735 8.05123 18.6864 8.13437 18.682 8.21751C18.6776 8.30064 18.6559 8.38212 18.6183 8.45723C18.5806 8.53234 18.5277 8.59961 18.4626 8.65513C18.3975 8.71065 18.3216 8.75334 18.2391 8.78072C18.1566 8.8081 18.0692 8.81964 17.982 8.81466C17.8948 8.80969 17.8095 8.7883 17.731 8.75173C17.6525 8.71516 17.5824 8.66413 17.5247 8.60161C17.215 8.27068 16.8352 8.00599 16.4104 7.82495C15.9856 7.6439 15.5254 7.55061 15.06 7.5512Z" fill="#FF8303"/>
<defs>
<linearGradient id="paint0_linear_1_7312" x1="15.5586" y1="9.16504" x2="15.5586" y2="14.4029" gradientUnits="userSpaceOnUse">
<stop stop-color="#047CF4"/>
<stop offset="1" stop-color="#0431D7"/>
</linearGradient>
<linearGradient id="paint1_linear_1_7312" x1="15" y1="14.519" x2="15" y2="25.4603" gradientUnits="userSpaceOnUse">
<stop stop-color="#047CF4"/>
<stop offset="1" stop-color="#0431D7"/>
</linearGradient>
<linearGradient id="paint2_linear_1_7312" x1="8.24862" y1="24.5" x2="8.24862" y2="27.5" gradientUnits="userSpaceOnUse">
<stop stop-color="#0431D7"/>
<stop offset="1" stop-color="#047CF4"/>
</linearGradient>
<linearGradient id="paint3_linear_1_7312" x1="21.8678" y1="24.5" x2="21.8678" y2="27.5" gradientUnits="userSpaceOnUse">
<stop stop-color="#0431D7"/>
<stop offset="1" stop-color="#047CF4"/>
</linearGradient>
<linearGradient id="paint4_linear_1_7312" x1="19.6569" y1="19.0586" x2="19.6569" y2="21.7357" gradientUnits="userSpaceOnUse">
<stop stop-color="#047CF4"/>
<stop offset="1" stop-color="#0431D7"/>
</linearGradient>
<linearGradient id="paint5_linear_1_7312" x1="23.8464" y1="19.0586" x2="23.8464" y2="21.7357" gradientUnits="userSpaceOnUse">
<stop stop-color="#047CF4"/>
<stop offset="1" stop-color="#0431D7"/>
</linearGradient>
</defs>
</svg>
