<svg width="75" height="75" viewBox="0 0 75 75" fill="none" xmlns="http://www.w3.org/2000/svg">
<path d="M38.9699 51.5284L36.7321 51.8276C36.8236 52.5197 36.871 53.2298 36.871 53.9355H39.1291C39.1291 53.1293 39.076 52.3198 38.9699 51.5284Z" fill="white"/>
<path d="M69.6129 8.77419H68.4839V5.3871C68.4839 3.51968 66.9642 2 65.0968 2H62.8387C60.9713 2 59.4516 3.51968 59.4516 5.3871V8.77419H27.8387V5.3871C27.8387 3.51968 26.319 2 24.4516 2H22.1935C20.3261 2 18.8065 3.51968 18.8065 5.3871V8.77419H17.6774C15.81 8.77419 14.2903 10.2939 14.2903 12.1613V37.201C7.67871 39.8869 3 46.371 3 53.9355C3 63.8958 11.1042 72 21.0645 72C28.5376 72 35.0905 67.3721 37.7979 60.7097H69.6129C71.4803 60.7097 73 59.19 73 57.3226V12.1613C73 10.2939 71.4803 8.77419 69.6129 8.77419ZM61.7097 5.3871C61.7097 4.765 62.2166 4.25806 62.8387 4.25806H65.0968C65.7189 4.25806 66.2258 4.765 66.2258 5.3871V14.4194C66.2258 15.0415 65.7189 15.5484 65.0968 15.5484H62.8387C62.2166 15.5484 61.7097 15.0415 61.7097 14.4194V5.3871ZM21.0645 5.3871C21.0645 4.765 21.5715 4.25806 22.1935 4.25806H24.4516C25.0737 4.25806 25.5806 4.765 25.5806 5.3871V14.4194C25.5806 15.0415 25.0737 15.5484 24.4516 15.5484H22.1935C21.5715 15.5484 21.0645 15.0415 21.0645 14.4194V5.3871ZM36.731 56.0445C35.6911 63.8529 28.9565 69.7419 21.0645 69.7419C12.3484 69.7419 5.25806 62.6516 5.25806 53.9355C5.25806 45.2194 12.3484 38.129 21.0645 38.129C28.1526 38.129 34.4198 42.8958 36.3031 49.7197L38.4798 49.119C36.3268 41.3186 29.1653 35.871 21.0645 35.871C19.5031 35.871 17.9947 36.0911 16.5484 36.466V12.1613C16.5484 11.5392 17.0553 11.0323 17.6774 11.0323H18.8065V14.4194C18.8065 16.2868 20.3261 17.8065 22.1935 17.8065H24.4516C26.319 17.8065 27.8387 16.2868 27.8387 14.4194V11.0323H59.4516V14.4194C59.4516 16.2868 60.9713 17.8065 62.8387 17.8065H65.0968C66.9642 17.8065 68.4839 16.2868 68.4839 14.4194V11.0323H69.6129C70.235 11.0323 70.7419 11.5392 70.7419 12.1613V22.3226H23.3226V24.5806H70.7419V47.0247L67.1448 41.9892C66.9619 41.7329 66.6808 41.5658 66.3692 41.5252C66.0598 41.4879 65.7437 41.576 65.5021 41.7781L61.7085 44.9394V40.3871H68.4827V38.129H60.5795C59.9563 38.129 59.4505 38.6348 59.4505 39.2581V46.8203L45.4945 58.4516H38.5431C38.7215 57.7618 38.8739 57.0629 38.9698 56.3426L36.731 56.0445ZM66.0135 44.2913L70.1481 50.0787L51.309 58.4516H49.0216L66.0135 44.2913ZM69.6129 58.4516H56.8684L70.7419 52.286V57.3226C70.7419 57.9447 70.235 58.4516 69.6129 58.4516Z" fill="white"/>
<path d="M18.8065 22.3226H21.0645V24.5806H18.8065V22.3226Z" fill="white"/>
<path d="M27.8387 34.7419V27.9677C27.8387 27.3445 27.3329 26.8387 26.7097 26.8387H19.9355C19.3123 26.8387 18.8065 27.3445 18.8065 27.9677V34.7419C18.8065 35.3651 19.3123 35.8709 19.9355 35.8709H21.0645H26.7097C27.3329 35.8709 27.8387 35.3651 27.8387 34.7419ZM25.5807 33.6129H21.0645V29.0967H25.5807V33.6129Z" fill="white"/>
<path d="M40.2581 35.8709C40.8813 35.8709 41.3871 35.3651 41.3871 34.7419V27.9677C41.3871 27.3445 40.8813 26.8387 40.2581 26.8387H33.4839C32.8607 26.8387 32.3549 27.3445 32.3549 27.9677V34.7419C32.3549 35.3651 32.8607 35.8709 33.4839 35.8709H40.2581ZM34.6129 29.0967H39.1291V33.6129H34.6129V29.0967Z" fill="white"/>
<path d="M47.0322 35.8709H53.8064C54.4296 35.8709 54.9355 35.3651 54.9355 34.7419V27.9677C54.9355 27.3445 54.4296 26.8387 53.8064 26.8387H47.0322C46.409 26.8387 45.9032 27.3445 45.9032 27.9677V34.7419C45.9032 35.3651 46.409 35.8709 47.0322 35.8709ZM48.1613 29.0967H52.6774V33.6129H48.1613V29.0967Z" fill="white"/>
<path d="M60.5807 35.8709H67.3549C67.9781 35.8709 68.4839 35.3651 68.4839 34.7419V27.9677C68.4839 27.3445 67.9781 26.8387 67.3549 26.8387H60.5807C59.9575 26.8387 59.4517 27.3445 59.4517 27.9677V34.7419C59.4517 35.3651 59.9575 35.8709 60.5807 35.8709ZM61.7097 29.0967H66.2259V33.6129H61.7097V29.0967Z" fill="white"/>
<path d="M39.129 47.1613H41.3871V39.2581C41.3871 38.6348 40.8813 38.129 40.2581 38.129H33.4839V40.3871H39.129V47.1613Z" fill="white"/>
<path d="M47.0322 47.1613H53.8064C54.4296 47.1613 54.9355 46.6555 54.9355 46.0323V39.2581C54.9355 38.6348 54.4296 38.129 53.8064 38.129H47.0322C46.409 38.129 45.9032 38.6348 45.9032 39.2581V46.0323C45.9032 46.6555 46.409 47.1613 47.0322 47.1613ZM48.1613 40.3871H52.6774V44.9032H48.1613V40.3871Z" fill="white"/>
<path d="M27.0698 64C26.731 64 26.4234 63.9507 26.1559 63.8543C25.89 63.7596 25.6355 63.6044 25.4005 63.3945C25.1642 63.1841 24.9388 62.9322 24.7333 62.6453C24.5239 62.3528 24.3145 62.0549 24.1121 61.7599L21.3374 57.5139H16.6391V61.8678C16.6391 62.5738 16.4751 63.1113 16.1523 63.4674C15.8262 63.8255 15.4194 63.9995 14.9094 63.9995C14.3814 63.9995 13.9713 63.8235 13.6549 63.4618C13.3392 63.1023 13.1792 62.5657 13.1792 61.8678V57.5139H10.4901C9.78664 57.5139 9.21429 56.9426 9.21429 56.2404C9.21429 55.5382 9.78664 54.9669 10.4901 54.9669H13.1792V52.7935H10.4901C9.78664 52.7937 9.21429 52.2224 9.21429 51.5206C9.21429 50.8187 9.78664 50.2471 10.4901 50.2471H13.1792V47.0736C13.1792 46.4603 13.246 45.9784 13.3776 45.6418C13.5421 45.2524 13.8009 44.9515 14.1731 44.7111C14.5453 44.4701 14.9363 44.353 15.3683 44.353C15.7021 44.353 15.9918 44.4073 16.2276 44.5152C16.4698 44.6256 16.675 44.7691 16.8552 44.9537C17.0388 45.1411 17.2285 45.3872 17.42 45.6839C17.6167 45.9893 17.8197 46.3073 18.035 46.6469L20.4187 50.2471H25.6806V46.4852C25.6806 45.7696 25.8342 45.2288 26.1368 44.8772C26.4405 44.5244 26.8402 44.353 27.3584 44.353C27.894 44.353 28.3046 44.5247 28.6128 44.878C28.9196 45.2294 29.0749 45.7705 29.0749 46.4852V50.2471H31.7957C32.4991 50.2471 33.0714 50.8184 33.0714 51.5206C33.0714 52.2227 32.4991 52.7937 31.7957 52.7937H29.0749V54.9675H31.7957C32.4991 54.9675 33.0714 55.5385 33.0714 56.2409C33.0714 56.9431 32.4991 57.5139 31.7957 57.5139H29.0749V61.5674C29.0749 63.2043 28.4191 64 27.0698 64ZM16.218 56.6733H21.5656C21.7076 56.6733 21.8404 56.745 21.9182 56.8638L24.8127 61.2934C25.0058 61.5764 25.213 61.8692 25.4182 62.1566C25.5877 62.3923 25.7707 62.5979 25.9622 62.7683C26.1163 62.9062 26.2768 63.0053 26.4413 63.0639C26.6179 63.1281 26.829 63.16 27.0701 63.16C27.5605 63.16 28.233 63.16 28.233 61.5677V57.0936C28.233 56.8616 28.4219 56.6733 28.6541 56.6733H31.7959C32.0354 56.6733 32.2296 56.4791 32.2296 56.2404C32.2296 56.0017 32.0354 55.8075 31.7959 55.8075H28.6538C28.4214 55.8075 28.2328 55.6192 28.2328 55.3872V52.3735C28.2328 52.1415 28.4214 51.9532 28.6538 51.9532H31.7957C32.0348 51.9532 32.2293 51.7593 32.2293 51.5206C32.2293 51.2818 32.0348 51.0877 31.7957 51.0877H28.6538C28.4214 51.0877 28.2328 50.8994 28.2328 50.6674V46.4852C28.2328 45.8548 28.0941 45.5634 27.9773 45.4297C27.8754 45.3126 27.7224 45.1933 27.3584 45.1933C27.0858 45.1933 26.9171 45.2602 26.7756 45.4247C26.6608 45.5589 26.5233 45.8514 26.5233 46.4849V50.6671C26.5233 50.8991 26.3347 51.0874 26.1023 51.0874H20.1921C20.0507 51.0874 19.9185 51.0165 19.8407 50.8988L17.3282 47.1036C17.1089 46.759 16.9071 46.4426 16.7115 46.1389C16.5509 45.8893 16.3963 45.6881 16.252 45.5407C16.1456 45.4311 16.0235 45.3462 15.8775 45.2796C15.7543 45.2232 15.5777 45.1933 15.3683 45.1933C15.1003 45.1933 14.8662 45.2642 14.6309 45.4163C14.4019 45.5645 14.2514 45.7368 14.1577 45.9582C14.1094 46.0815 14.0213 46.4071 14.0213 47.0736V50.6671C14.0213 50.8991 13.8326 51.0874 13.6002 51.0874H10.4901C10.2509 51.0877 10.0564 51.2818 10.0564 51.5206C10.0564 51.7593 10.2509 51.9532 10.4901 51.9532H13.6002C13.8326 51.9532 14.0213 52.1415 14.0213 52.3735V55.3875C14.0213 55.6195 13.8326 55.8078 13.6002 55.8078H10.4901C10.2509 55.8075 10.0564 56.0019 10.0564 56.2404C10.0564 56.4788 10.2509 56.6733 10.4901 56.6733H13.6002C13.8326 56.6733 14.0213 56.8616 14.0213 57.0936V61.8678C14.0213 62.3494 14.1139 62.7095 14.2888 62.9087C14.4423 63.0844 14.6276 63.1595 14.9094 63.1595C15.1797 63.1595 15.3644 63.083 15.5283 62.9025C15.7038 62.7097 15.797 62.3517 15.797 61.8686V57.0936C15.797 56.8616 15.9856 56.6733 16.218 56.6733ZM26.1017 60.0143C25.963 60.0143 25.8297 59.9454 25.7503 59.8254L24.0953 57.325C24.0102 57.1958 24.0026 57.0303 24.0764 56.8944C24.15 56.7582 24.2929 56.6733 24.4467 56.6733H26.1017C26.3341 56.6733 26.5227 56.8616 26.5227 57.0936V59.594C26.5227 59.7795 26.4004 59.9431 26.223 59.9966C26.1828 60.0084 26.1418 60.0143 26.1017 60.0143ZM25.2296 57.5139L25.6806 58.1953V57.5139H25.2296ZM26.1017 55.8075H23.3172C23.1757 55.8075 23.0435 55.7366 22.9657 55.6189L20.9708 52.6049C20.8852 52.4757 20.8776 52.3101 20.9511 52.174C21.0247 52.0381 21.1673 51.9529 21.3217 51.9529H26.1017C26.3341 51.9529 26.5227 52.1412 26.5227 52.3732V55.3872C26.5227 55.6195 26.3341 55.8075 26.1017 55.8075ZM23.5437 54.9669H25.6806V52.7935H22.1045L23.5437 54.9669ZM20.4504 55.8075H16.218C15.9856 55.8075 15.797 55.6192 15.797 55.3872V52.3735C15.797 52.1415 15.9856 51.9532 16.218 51.9532H18.4813C18.6233 51.9532 18.7561 52.0249 18.8338 52.144L20.8032 55.158C20.8877 55.2872 20.8942 55.4519 20.8209 55.5875C20.7471 55.7234 20.605 55.8075 20.4504 55.8075ZM16.6391 54.9669H19.6731L18.2531 52.7935H16.6391V54.9669ZM17.3661 51.0879H16.218C15.9856 51.0879 15.797 50.8997 15.797 50.6677V48.9106C15.797 48.7245 15.9193 48.5606 16.0979 48.5077C16.2761 48.455 16.469 48.525 16.5706 48.6808L17.7186 50.4379C17.8031 50.5671 17.8101 50.7321 17.7366 50.8677C17.6628 51.003 17.5207 51.0879 17.3661 51.0879Z" fill="#FF8303"/>
</svg>
