<svg width="75" height="75" viewBox="0 0 75 75" fill="none" xmlns="http://www.w3.org/2000/svg">
<path d="M35.5808 42.8062C35.8261 43.0515 36.1589 43.1894 36.506 43.1894C36.853 43.1894 37.1858 43.0515 37.4311 42.8062C37.6765 42.5608 37.8144 42.228 37.8144 41.881C37.8144 41.534 37.6765 41.2012 37.4311 40.9558C36.4529 39.9752 35.9036 38.6466 35.9036 37.2616C35.9036 35.8765 36.4529 34.5479 37.4311 33.5673L41.0927 29.9058C42.0934 29.0407 43.3848 28.5869 44.7067 28.6357C46.0286 28.6846 47.283 29.2325 48.2171 30.1691C49.1512 31.1058 49.6958 32.3616 49.7412 33.6836C49.7865 35.0057 49.3293 36.2958 48.4615 37.2942L45.65 40.1058C45.4046 40.3512 45.2668 40.684 45.2668 41.031C45.2668 41.378 45.4046 41.7108 45.65 41.9562C45.8954 42.2015 46.2282 42.3394 46.5752 42.3394C46.9222 42.3394 47.255 42.2015 47.5004 41.9562L50.3119 39.1446C51.7859 37.6706 52.614 35.6715 52.614 33.5869C52.614 31.5024 51.7859 29.5032 50.3119 28.0292C48.8379 26.5553 46.8388 25.7272 44.7542 25.7272C42.6697 25.7272 40.6705 26.5553 39.1965 28.0292L35.535 31.6908C34.8065 32.4227 34.2297 33.2913 33.8376 34.2466C33.4455 35.202 33.2459 36.2253 33.2501 37.258C33.2544 38.2906 33.4624 39.3123 33.8624 40.2644C34.2623 41.2165 34.8463 42.0802 35.5808 42.8062Z" fill="#FF8303"/>
<path d="M30.7423 40.2104C30.9877 39.965 31.1256 39.6322 31.1256 39.2852C31.1256 38.9382 30.9877 38.6054 30.7423 38.36C30.497 38.1146 30.1641 37.9768 29.8171 37.9768C29.4701 37.9768 29.1373 38.1146 28.8919 38.36L26.2766 40.9754C24.8026 42.4494 23.9745 44.4485 23.9745 46.5331C23.9745 48.6176 24.8026 50.6168 26.2766 52.0908C27.7505 53.5647 29.7497 54.3928 31.8342 54.3928C33.9188 54.3928 35.918 53.5647 37.3919 52.0908L41.06 48.4292C41.7915 47.7003 42.3719 46.8341 42.7679 45.8804C43.1639 44.9267 43.3677 43.9042 43.3677 42.8715C43.3677 41.8389 43.1639 40.8163 42.7679 39.8626C42.3719 38.9089 41.7915 38.0428 41.06 37.3138C40.9385 37.1923 40.7943 37.096 40.6355 37.0302C40.4768 36.9644 40.3067 36.9306 40.1348 36.9306C39.963 36.9306 39.7929 36.9644 39.6341 37.0302C39.4754 37.096 39.3311 37.1923 39.2096 37.3138C39.0881 37.4353 38.9918 37.5796 38.926 37.7383C38.8603 37.8971 38.8264 38.0672 38.8264 38.239C38.8264 38.4108 38.8603 38.581 38.926 38.7397C38.9918 38.8985 39.0881 39.0427 39.2096 39.1642C40.1879 40.1448 40.7372 41.4734 40.7372 42.8584C40.7372 44.2435 40.1879 45.5721 39.2096 46.5527L35.5481 50.2142C35.0703 50.7315 34.493 51.147 33.8507 51.4358C33.2085 51.7246 32.5145 51.8807 31.8105 51.8948C31.1065 51.909 30.4068 51.7808 29.7535 51.518C29.1002 51.2552 28.5067 50.8632 28.0085 50.3655C27.5103 49.8678 27.1178 49.2746 26.8544 48.6215C26.5911 47.9684 26.4623 47.2689 26.4758 46.5648C26.4893 45.8608 26.6448 45.1667 26.933 44.5242C27.2212 43.8817 27.6362 43.304 28.1531 42.8258L30.7423 40.2104Z" fill="#FF8303"/>
<path d="M4 37C4 38.7341 4.68887 40.3972 5.91507 41.6234C7.14127 42.8496 8.80435 43.5384 10.5385 43.5384H21.0392C21.3861 43.5384 21.7187 43.4007 21.9639 43.1554C22.2091 42.9102 22.3469 42.5776 22.3469 42.2308C22.3469 41.8839 22.2091 41.5513 21.9639 41.3061C21.7187 41.0608 21.3861 40.9231 21.0392 40.9231H10.5385C9.498 40.9231 8.50015 40.5097 7.76443 39.774C7.02871 39.0383 6.61538 38.0405 6.61538 37V10.8461C6.61538 9.80568 7.02871 8.80782 7.76443 8.0721C8.50015 7.33639 9.498 6.92306 10.5385 6.92306H52.3846C53.4251 6.92306 54.4229 7.33639 55.1586 8.0721C55.8944 8.80782 56.3077 9.80568 56.3077 10.8461V37C56.3077 38.0405 55.8944 39.0383 55.1586 39.774C54.4229 40.5097 53.4251 40.9231 52.3846 40.9231C52.0378 40.9231 51.7052 41.0608 51.4599 41.3061C51.2147 41.5513 51.0769 41.8839 51.0769 42.2308C51.0769 42.5776 51.2147 42.9102 51.4599 43.1554C51.7052 43.4007 52.0378 43.5384 52.3846 43.5384C53.2433 43.5384 54.0935 43.3693 54.8868 43.0407C55.6801 42.7121 56.4009 42.2305 57.008 41.6234C57.6152 41.0162 58.0968 40.2954 58.4254 39.5021C58.754 38.7089 58.9231 37.8586 58.9231 37V10.8461C58.9231 9.9875 58.754 9.13726 58.4254 8.34398C58.0968 7.5507 57.6152 6.8299 57.008 6.22275C56.4009 5.6156 55.6801 5.13398 54.8868 4.80539C54.0935 4.4768 53.2433 4.30768 52.3846 4.30768H10.5385C8.80435 4.30768 7.14127 4.99655 5.91507 6.22275C4.68887 7.44895 4 9.11203 4 10.8461V37Z" fill="white"/>
<path d="M72 37C72 35.2659 71.3111 33.6028 70.0849 32.3766C68.8587 31.1504 67.1956 30.4615 65.4615 30.4615H62.8461C62.4993 30.4615 62.1667 30.5993 61.9215 30.8446C61.6762 31.0898 61.5384 31.4224 61.5384 31.7692C61.5384 32.1161 61.6762 32.4487 61.9215 32.6939C62.1667 32.9392 62.4993 33.0769 62.8461 33.0769H65.4615C66.502 33.0769 67.4998 33.4903 68.2355 34.226C68.9713 34.9617 69.3846 35.9595 69.3846 37V63.1539C69.3846 64.1943 68.9713 65.1922 68.2355 65.9279C67.4998 66.6636 66.502 67.0769 65.4615 67.0769H23.6154C22.5749 67.0769 21.5771 66.6636 20.8413 65.9279C20.1056 65.1922 19.6923 64.1943 19.6923 63.1539V47.4615C19.6923 47.1147 19.5545 46.7821 19.3093 46.5369C19.064 46.2916 18.7314 46.1539 18.3846 46.1539C18.0378 46.1539 17.7052 46.2916 17.4599 46.5369C17.2147 46.7821 17.0769 47.1147 17.0769 47.4615V63.1539C17.0769 64.888 17.7658 66.551 18.992 67.7772C20.2182 69.0034 21.8813 69.6923 23.6154 69.6923H65.4615C67.1956 69.6923 68.8587 69.0034 70.0849 67.7772C71.3111 66.551 72 64.888 72 63.1539V37Z" fill="white"/>
<path d="M23.6154 17.3846H13.1538C12.807 17.3846 12.4744 17.5224 12.2291 17.7676C11.9839 18.0128 11.8461 18.3455 11.8461 18.6923V26.5384C11.8461 26.8853 11.9839 27.2179 12.2291 27.4631C12.4744 27.7083 12.807 27.8461 13.1538 27.8461H23.6154C23.9622 27.8461 24.2948 27.7083 24.54 27.4631C24.7853 27.2179 24.9231 26.8853 24.9231 26.5384V18.6923C24.9231 18.3455 24.7853 18.0128 24.54 17.7676C24.2948 17.5224 23.9622 17.3846 23.6154 17.3846ZM22.3077 25.2307H14.4615V20H22.3077V25.2307Z" fill="white"/>
<path d="M26.2308 59.2308C25.884 59.2308 25.5513 59.3685 25.3061 59.6138C25.0609 59.859 24.9231 60.1916 24.9231 60.5385C24.9231 60.8853 25.0609 61.2179 25.3061 61.4631C25.5513 61.7084 25.884 61.8462 26.2308 61.8462H36.6923C37.0391 61.8462 37.3718 61.7084 37.617 61.4631C37.8622 61.2179 38 60.8853 38 60.5385C38 60.1916 37.8622 59.859 37.617 59.6138C37.3718 59.3685 37.0391 59.2308 36.6923 59.2308H26.2308Z" fill="white"/>
<path d="M40.6154 60.5385C40.6154 60.8853 40.7531 61.2179 40.9984 61.4631C41.2436 61.7084 41.5762 61.8462 41.923 61.8462H62.8461C63.1929 61.8462 63.5256 61.7084 63.7708 61.4631C64.016 61.2179 64.1538 60.8853 64.1538 60.5385C64.1538 60.1916 64.016 59.859 63.7708 59.6138C63.5256 59.3685 63.1929 59.2308 62.8461 59.2308H41.923C41.5762 59.2308 41.2436 59.3685 40.9984 59.6138C40.7531 59.859 40.6154 60.1916 40.6154 60.5385Z" fill="white"/>
<path d="M49.7692 14.7692C50.1161 14.7692 50.4487 14.6314 50.6939 14.3862C50.9391 14.1409 51.0769 13.8083 51.0769 13.4615C51.0769 13.1147 50.9391 12.7821 50.6939 12.5368C50.4487 12.2916 50.1161 12.1538 49.7692 12.1538H39.3077C38.9609 12.1538 38.6283 12.2916 38.383 12.5368C38.1378 12.7821 38 13.1147 38 13.4615C38 13.8083 38.1378 14.1409 38.383 14.3862C38.6283 14.6314 38.9609 14.7692 39.3077 14.7692H49.7692Z" fill="white"/>
</svg>
