<svg width="75" height="75" viewBox="0 0 75 75" fill="none" xmlns="http://www.w3.org/2000/svg">
<path d="M68 37.2773V28.001C68 24.8555 65.5602 22.2974 62.4776 22.0493L53.8629 7.00247C53.0646 5.61085 51.7755 4.61621 50.233 4.20319C48.6978 3.79299 47.0924 4.00843 45.7183 4.80816L16.1867 22.001H11C7.691 22.001 5 24.6918 5 28.001V64.0009C5 67.31 7.69086 70.001 11 70.001H62C65.3091 70.001 68 67.3101 68 64.0009V54.7246C69.7422 54.1033 71 52.454 71 50.501V41.501C71 39.548 69.7422 37.8986 68 37.2773ZM58.9916 22.001H45.9176L55.7232 16.2921L58.9916 22.001ZM54.2327 13.6888L39.9552 22.001H34.0331L52.752 11.1025L54.2327 13.6888ZM47.2285 7.40086C47.9067 7.00388 48.6992 6.89841 49.4566 7.10063C50.2227 7.30566 50.8614 7.8008 51.2584 8.49366L51.2615 8.49914L28.071 22.001H22.1492L47.2285 7.40086ZM65 64.0009C65 65.6547 63.6538 67.0009 62 67.0009H11C9.34629 67.0009 8.00009 65.6547 8.00009 64.0009V28.001C8.00009 26.3472 9.34629 25.001 11 25.001H62C63.6538 25.001 65 26.3472 65 28.001V37.001H56C51.037 37.001 47 41.038 47 46.001C47 50.9639 51.037 55.001 56 55.001H65V64.0009ZM68 50.501C68 51.3285 67.3277 52.001 66.5 52.001H56C52.6909 52.001 49.9999 49.3101 49.9999 46.001C49.9999 42.6919 52.6908 40.0009 56 40.0009H66.5C67.3276 40.0009 68 40.6733 68 41.501V50.501Z" fill="white"/>
<path d="M55.9999 43.0007C54.3462 43.0007 53 44.3469 53 46.0007C53 47.6544 54.3462 49.0006 55.9999 49.0006C57.6537 49.0006 58.9999 47.6544 58.9999 46.0007C59 44.3469 57.6538 43.0007 55.9999 43.0007Z" fill="white"/>
<rect x="14" y="31.9001" width="3" height="28.5" rx="1.5" fill="#FF8303"/>
<rect x="20" y="36.0999" width="3" height="21" rx="1.5" fill="#FF8303"/>
</svg>
