<svg width="51" height="51" viewBox="0 0 51 51" fill="none" xmlns="http://www.w3.org/2000/svg">
<g clip-path="url(#clip0_116_6165)">
<path d="M29.2134 1.06435C29.8132 1.52237 30.2632 2.10652 30.732 2.69272C30.9503 2.9544 31.1761 3.2 31.4117 3.44556C32.0803 4.14646 32.4816 4.69861 32.516 5.68996C32.4685 6.86466 31.7736 7.50417 30.9534 8.26112C30.5021 8.66499 30.0368 9.04792 29.5655 9.42803C29.2107 9.72378 28.8738 10.0362 28.5357 10.3508C28.2159 10.6467 27.8878 10.9269 27.548 11.1996C27.072 11.5825 26.6262 11.9897 26.1807 12.4069C25.7634 12.7956 25.3283 13.1555 24.8835 13.5124C24.5636 13.7789 24.2596 14.059 23.9559 14.3435C23.4816 14.7877 22.9932 15.2039 22.4862 15.6108C22.1865 15.8594 21.9 16.1203 21.615 16.3855C21.2456 16.7293 20.8695 17.0594 20.4758 17.3754C19.9997 17.7582 19.554 18.1655 19.1085 18.5827C18.6912 18.9714 18.256 19.3313 17.8112 19.6882C17.4914 19.9547 17.1874 20.2348 16.8836 20.5193C16.4094 20.9634 15.9209 21.3797 15.414 21.7866C15.1142 22.0352 14.8277 22.2961 14.5428 22.5613C14.1734 22.9051 13.7972 23.2352 13.4035 23.5512C12.9866 23.8864 12.5921 24.2379 12.2019 24.6033C11.7277 25.0474 11.2393 25.4637 10.7323 25.8706C10.4326 26.1192 10.1461 26.3801 9.86113 26.6453C9.40459 27.0701 8.93285 27.4676 8.44558 27.8573C8.19054 28.0706 7.95111 28.2923 7.71138 28.5222C6.9898 29.2095 6.43978 29.5926 5.42228 29.6336C4.28624 29.5951 3.76839 28.9932 3.02735 28.2033C0.750864 25.7584 0.750864 25.7584 0.77605 24.5243C0.863679 23.5901 1.33967 22.9962 2.03634 22.4041C2.21926 22.2558 2.40296 22.1085 2.58731 21.9621C2.91586 21.6921 3.22604 21.4079 3.53593 21.117C4.00789 20.6748 4.4943 20.2612 4.99894 19.8563C5.31879 19.5897 5.62277 19.3097 5.92656 19.0252C6.40609 18.5762 6.89934 18.1531 7.41175 17.7415C7.80787 17.4183 8.18677 17.0766 8.5662 16.7341C8.4654 16.7402 8.4654 16.7402 8.36256 16.7464C8.05282 16.7644 7.743 16.7804 7.43315 16.7964C7.27463 16.806 7.27463 16.806 7.11292 16.8159C5.98107 16.8714 4.85854 16.7393 3.97989 15.9548C2.8133 14.6887 2.80699 13.1822 2.86858 11.5426C2.93575 10.5735 3.24331 9.6713 3.78495 8.865C3.86816 8.73249 3.86816 8.73249 3.95304 8.5973C4.64401 7.90634 5.49023 7.57135 6.45573 7.53273C8.07985 7.56606 9.57135 8.15864 11.0564 8.76539C11.0419 8.70266 11.0273 8.63993 11.0123 8.57529C10.9458 8.28802 10.8797 8.00065 10.8136 7.71327C10.7907 7.61459 10.7678 7.51591 10.7442 7.41425C10.4177 5.98979 10.0771 4.12058 10.8572 2.78883C11.5169 1.8164 12.4133 1.32298 13.5467 1.09547C13.9359 1.05474 14.3197 1.04788 14.7109 1.05189C14.8148 1.05265 14.9188 1.0534 15.0259 1.05418C16.4033 1.08325 17.7114 1.33736 18.754 2.30129C19.4859 3.0703 19.7238 3.82529 19.7225 4.88063C19.6514 5.73468 19.4749 6.55252 19.2244 7.37086C19.3169 7.29074 19.4093 7.21062 19.5046 7.12807C19.8111 6.86459 20.1237 6.60971 20.4384 6.35609C20.8975 5.98244 21.3335 5.59086 21.7665 5.18792C22.0864 4.89194 22.4145 4.61176 22.7543 4.339C23.1712 4.00372 23.5657 3.65226 23.9559 3.28688C24.4383 2.8352 24.9339 2.40846 25.4504 1.99546C25.6823 1.80641 25.9022 1.60917 26.1224 1.40675C26.9589 0.682755 28.225 0.461304 29.2134 1.06435ZM26.969 2.93202C26.8748 3.02357 26.7805 3.11512 26.6834 3.20945C26.6357 3.2562 26.588 3.30296 26.5388 3.35113C26.3235 3.555 26.0929 3.73755 25.8609 3.92189C25.3832 4.30703 24.9351 4.71613 24.4876 5.13522C24.068 5.52599 23.6307 5.88858 23.1835 6.24753C22.8837 6.49612 22.5972 6.75703 22.3123 7.02223C21.9429 7.36604 21.5667 7.69611 21.173 8.0121C20.6978 8.39434 20.2526 8.8008 19.8079 9.21748C19.3713 9.62429 18.9186 10.0031 18.4517 10.3751C18.2655 10.5279 18.0954 10.6831 17.9295 10.8572C18.0789 11.2006 18.2785 11.4373 18.5334 11.7101C18.8551 12.0605 19.1631 12.4163 19.461 12.7871C19.9538 13.3968 20.4826 13.97 21.0174 14.5427C21.6182 14.1221 22.1434 13.6457 22.6757 13.1439C23.113 12.7337 23.5663 12.3518 24.0345 11.977C24.3333 11.7299 24.6184 11.4699 24.9021 11.2058C25.2716 10.862 25.6477 10.5319 26.0414 10.216C26.5174 9.8331 26.9632 9.42584 27.4087 9.00861C27.7421 8.6981 28.0827 8.40324 28.4383 8.11793C29.0292 7.64309 29.5887 7.13493 30.1362 6.61076C30.2765 6.47871 30.4223 6.35266 30.5682 6.22691C30.7989 5.99192 30.7989 5.99192 30.8437 5.68801C30.7557 5.26655 30.5285 5.01927 30.2437 4.71254C30.1898 4.65227 30.136 4.592 30.0805 4.52991C29.9162 4.34674 29.7501 4.16542 29.5838 3.98414C29.4879 3.87753 29.3922 3.7708 29.2966 3.66392C29.0623 3.4034 28.8271 3.14429 28.5877 2.88844C28.5271 2.81268 28.4665 2.73693 28.404 2.65887C28.1891 2.46141 28.1891 2.46141 27.8484 2.43748C27.4133 2.50161 27.2761 2.62262 26.969 2.93202ZM12.5008 3.43007C11.7607 4.69439 12.2061 6.33225 12.5506 7.66969C12.8843 8.87939 13.263 10.2117 14.2439 11.0564C14.3097 11.1222 14.3754 11.1879 14.4432 11.2556C14.9373 11.2337 15.1769 11.0822 15.5389 10.7576C16.8587 9.13678 18.1562 6.58177 18.0131 4.44289C17.9205 3.95828 17.7101 3.68913 17.3318 3.38649C16.0724 2.55478 13.6528 2.3068 12.5008 3.43007ZM5.0896 9.986C4.61528 10.7405 4.55929 11.5532 4.5507 12.4198C4.54781 12.515 4.54492 12.6102 4.54195 12.7083C4.53565 13.4184 4.64818 14.0394 5.1104 14.6013C5.57698 15.0374 6.07265 15.1339 6.68452 15.147C8.62669 15.077 11.4791 14.5182 12.8681 13.0424C13.0752 12.7721 13.0752 12.7721 13.0268 12.5058C12.7378 11.5621 11.6793 10.9981 10.8572 10.5584C7.87465 9.06172 7.87465 9.06172 5.0896 9.986ZM16.535 12.0525C16.4246 12.1555 16.4246 12.1555 16.312 12.2607C15.7193 12.8108 15.116 13.3367 14.4856 13.8439C14.1851 14.0935 13.9149 14.3592 13.6463 14.6423C13.8019 15.0089 14.0284 15.2565 14.3 15.5451C14.6458 15.9169 14.977 16.2951 15.2961 16.6906C15.7237 17.2205 16.1742 17.7266 16.6346 18.2283C17.1348 18.0793 17.4284 17.7802 17.7925 17.4252C18.318 16.9223 18.8537 16.4592 19.4322 16.0174C19.4951 15.9581 19.558 15.8988 19.6228 15.8377C19.6228 15.0865 18.5509 14.245 18.0399 13.6967C17.6419 13.2674 17.2745 12.8188 16.9112 12.3595C16.7507 12.1442 16.7507 12.1442 16.535 12.0525ZM12.2518 15.8377C11.6496 16.3155 11.0693 16.8065 10.5086 17.3318C10.0344 17.7759 9.54589 18.1922 9.03896 18.5991C8.73921 18.8477 8.45271 19.1086 8.16777 19.3738C7.79835 19.7176 7.42218 20.0477 7.02848 20.3637C6.55232 20.7466 6.10637 21.154 5.66078 21.5714C5.33171 21.8779 4.99579 22.1685 4.64409 22.4492C4.17384 22.829 3.72118 23.2251 3.27446 23.6321C3.20828 23.6909 3.1421 23.7498 3.07392 23.8104C2.7106 24.1451 2.7106 24.1451 2.48848 24.5788C2.49271 25.187 3.15881 25.7072 3.54177 26.1243C3.86604 26.4869 4.16737 26.8662 4.46821 27.2484C4.77316 27.5967 5.00337 27.8547 5.46781 27.9488C5.8922 27.8687 6.13616 27.6401 6.44328 27.355C6.50405 27.3008 6.56483 27.2465 6.62745 27.1907C6.81026 27.027 6.99116 26.8613 7.17167 26.6951C7.2702 26.6051 7.36877 26.5153 7.46739 26.4254C7.64676 26.2618 7.82588 26.0978 8.00473 25.9336C8.26465 25.7014 8.53115 25.4815 8.80278 25.2632C9.28046 24.878 9.72853 24.469 10.176 24.0499C10.5957 23.6591 11.0329 23.2965 11.4802 22.9375C11.8332 22.6448 12.1677 22.3338 12.5032 22.0215C12.8209 21.7276 13.1466 21.4496 13.4844 21.1792C14.1684 20.6294 14.8017 20.0258 15.4393 19.4236C15.4009 19.3792 15.3625 19.3348 15.323 19.289C15.0191 18.9361 14.7215 18.5797 14.4307 18.2158C13.7509 17.3817 13.0166 16.5942 12.2518 15.8377Z" fill="#215CFF"/>
<path d="M11.8745 29.1357C11.9943 29.1352 12.1141 29.1346 12.2375 29.134C12.5679 29.1329 12.8982 29.1336 13.2285 29.135C13.5856 29.1361 13.9427 29.1349 14.2998 29.134C14.9984 29.1326 15.6971 29.1334 16.3957 29.1349C17.2098 29.1366 18.0239 29.1363 18.838 29.1359C20.2907 29.1353 21.7434 29.1367 23.1961 29.1392C24.605 29.1415 26.0138 29.1423 27.4226 29.1412C28.9578 29.1401 30.493 29.1399 32.0283 29.1413C32.192 29.1415 32.3558 29.1416 32.5196 29.1418C32.6001 29.1418 32.6807 29.1419 32.7637 29.142C33.3308 29.1425 33.898 29.1423 34.4651 29.1419C35.1564 29.1414 35.8477 29.142 36.539 29.1439C36.8915 29.1449 37.244 29.1454 37.5966 29.1447C37.979 29.1438 38.3614 29.1453 38.7439 29.147C38.9104 29.1461 38.9104 29.1461 39.0803 29.1452C39.7867 29.151 40.3631 29.2212 40.9587 29.6347C41.0105 29.6878 41.0624 29.741 41.1159 29.7957C41.1688 29.8474 41.2217 29.899 41.2762 29.9522C41.904 30.8341 41.8952 31.706 41.8896 32.7476C41.8901 32.9161 41.8908 33.0846 41.8917 33.253C41.8935 33.7085 41.8928 34.1639 41.8916 34.6193C41.8905 35.0971 41.8915 35.5748 41.8921 36.0526C41.8928 36.8548 41.8919 37.6569 41.89 38.4591C41.8878 39.3851 41.8885 40.311 41.8907 41.237C41.8925 42.0335 41.8928 42.8301 41.8917 43.6267C41.8911 44.1017 41.891 44.5768 41.8923 45.0519C41.8935 45.4986 41.8927 45.9453 41.8904 46.3921C41.8899 46.5555 41.89 46.719 41.8909 46.8825C41.895 47.723 41.8974 48.4686 41.4396 49.2071C41.3841 49.2975 41.3287 49.3879 41.2715 49.481C40.5679 50.1657 39.8725 50.2758 38.9191 50.2658C38.7376 50.2668 38.7376 50.2668 38.5524 50.2679C38.2186 50.2694 37.885 50.2686 37.5512 50.2669C37.1904 50.2655 36.8297 50.2671 36.4689 50.2682C35.7631 50.2701 35.0572 50.2692 34.3514 50.2674C33.7776 50.266 33.2039 50.2656 32.6301 50.266C32.5075 50.2661 32.5075 50.2661 32.3824 50.2661C32.2163 50.2662 32.0502 50.2663 31.8841 50.2664C30.4164 50.2673 28.9488 50.2656 27.4812 50.2627C26.0578 50.2598 24.6345 50.2591 23.2112 50.2606C21.6602 50.2623 20.1092 50.2627 18.5583 50.261C18.3928 50.2608 18.2274 50.2606 18.0619 50.2604C17.9805 50.2603 17.8991 50.2602 17.8153 50.2601C17.2423 50.2596 16.6693 50.2599 16.0964 50.2606C15.398 50.2613 14.6996 50.2607 14.0012 50.2582C13.645 50.2569 13.2889 50.2563 12.9327 50.2574C12.5463 50.2586 12.16 50.2567 11.7736 50.2545C11.6614 50.2553 11.5492 50.2561 11.4337 50.257C10.6674 50.2489 10.148 50.1224 9.54397 49.6231C9.49119 49.5618 9.43842 49.5006 9.38405 49.4375C9.30296 49.3475 9.30296 49.3475 9.22024 49.2558C8.68318 48.3897 8.72495 47.4711 8.72905 46.4893C8.72864 46.3259 8.72811 46.1625 8.72746 45.9991C8.7261 45.5575 8.72662 45.1158 8.72757 44.6742C8.72833 44.2107 8.72763 43.7472 8.72716 43.2837C8.72662 42.5054 8.72733 41.7271 8.72876 40.9488C8.73038 40.0508 8.72986 39.1528 8.72821 38.2548C8.72685 37.482 8.72666 36.7092 8.72744 35.9364C8.72791 35.4756 8.72798 35.0149 8.72699 34.5541C8.72612 34.1207 8.72673 33.6873 8.72845 33.2539C8.72884 33.0954 8.72873 32.937 8.72807 32.7785C8.72008 30.6728 8.72008 30.6728 9.37782 29.9452C9.45525 29.8546 9.45525 29.8546 9.53424 29.7623C10.26 29.1989 10.9795 29.128 11.8745 29.1357ZM10.7022 31.0686C10.4495 31.4415 10.4482 31.6696 10.4471 32.1212C10.4468 32.1882 10.4465 32.2551 10.4462 32.324C10.4453 32.5494 10.4452 32.7747 10.445 33.0001C10.4446 33.1612 10.4441 33.3224 10.4435 33.4835C10.4422 33.9221 10.4416 34.3607 10.4411 34.7993C10.4408 35.0731 10.4404 35.347 10.44 35.6209C10.4386 36.4775 10.4377 37.334 10.4373 38.1905C10.4368 39.18 10.4351 40.1694 10.4322 41.1588C10.43 41.9231 10.429 42.6874 10.4289 43.4517C10.4288 43.9084 10.4282 44.3651 10.4264 44.8218C10.4248 45.2515 10.4246 45.6811 10.4255 46.1107C10.4255 46.2684 10.4251 46.4261 10.4241 46.5838C10.4228 46.7991 10.4234 47.0144 10.4245 47.2297C10.4242 47.4104 10.4242 47.4104 10.424 47.5948C10.4648 47.9439 10.5512 48.1304 10.7599 48.4102C11.2121 48.6959 11.7487 48.636 12.2654 48.6321C12.4196 48.6321 12.4196 48.6321 12.5768 48.6322C12.9088 48.632 13.2407 48.6305 13.5727 48.6289C13.7779 48.6286 13.9831 48.6284 14.1883 48.6283C14.9485 48.6273 15.7086 48.6245 16.4688 48.6219C19.0173 48.6158 19.0173 48.6158 21.6173 48.6095C21.6173 42.7584 21.6173 36.9074 21.6173 30.879C18.9917 30.8667 18.9917 30.8667 16.3131 30.8541C15.7603 30.8505 15.2075 30.8468 14.638 30.8431C14.1427 30.8418 14.1427 30.8418 13.6474 30.841C13.4267 30.8404 13.206 30.839 12.9853 30.8369C12.6511 30.834 12.317 30.8336 11.9827 30.8338C11.8351 30.8316 11.8351 30.8316 11.6845 30.8294C11.1563 30.8256 11.1563 30.8256 10.7022 31.0686ZM23.3107 30.879C23.3107 36.7301 23.3107 42.5811 23.3107 48.6095C24.6255 48.6095 25.9404 48.6095 27.2951 48.6095C27.2951 42.7584 27.2951 36.9074 27.2951 30.879C25.9802 30.879 24.6654 30.879 23.3107 30.879ZM28.9884 30.879C28.9884 36.7301 28.9884 42.5811 28.9884 48.6095C30.6874 48.6136 32.3865 48.6177 34.137 48.6219C34.6733 48.6237 35.2096 48.6255 35.7621 48.6274C36.2432 48.6281 36.2432 48.6281 36.7243 48.6285C36.9385 48.6288 37.1526 48.6295 37.3667 48.6305C37.6913 48.632 38.0158 48.6322 38.3403 48.6321C38.4832 48.6332 38.4832 48.6332 38.629 48.6343C39.2635 48.6384 39.2635 48.6384 39.8458 48.4102C40.1766 48.0693 40.1825 47.801 40.184 47.3357C40.1846 47.2678 40.1852 47.1999 40.1858 47.1299C40.1875 46.9024 40.187 46.675 40.1865 46.4475C40.1872 46.2843 40.1881 46.1212 40.1891 45.958C40.1913 45.5149 40.1916 45.0719 40.1914 44.6288C40.1914 44.2589 40.1922 43.8891 40.193 43.5193C40.195 42.6468 40.1952 41.7744 40.1946 40.902C40.1939 40.0017 40.1962 39.1015 40.1999 38.2013C40.2029 37.4285 40.2041 36.6558 40.2037 35.883C40.2035 35.4214 40.204 34.9598 40.2065 34.4982C40.2087 34.0641 40.2085 33.6301 40.2065 33.1961C40.2061 33.0368 40.2066 32.8775 40.2081 32.7182C40.2099 32.5006 40.2086 32.2833 40.2066 32.0658C40.2066 31.9441 40.2067 31.8224 40.2068 31.697C40.1261 31.2814 39.9796 31.1337 39.6466 30.879C39.4201 30.8072 39.4201 30.8072 39.1821 30.8191C39.0468 30.8181 39.0468 30.8181 38.9088 30.817C38.8108 30.8188 38.7127 30.8206 38.6117 30.8225C38.506 30.8224 38.4003 30.8223 38.2914 30.8223C37.9497 30.8226 37.6082 30.8264 37.2665 30.8304C37.0554 30.8311 36.8442 30.8316 36.6331 30.8319C35.8509 30.8345 35.0686 30.8414 34.2864 30.8479C31.6639 30.8633 31.6639 30.8633 28.9884 30.879Z" fill="#215CFF"/>
<path d="M38.7034 7.07847C39.1256 7.41408 39.5669 7.79645 39.8616 8.25134C40.0082 8.46248 40.1326 8.61351 40.3407 8.76561C40.7255 8.82745 41.0888 8.78187 41.4738 8.73448C42.2261 8.64986 42.795 8.59815 43.4286 9.06444C43.8461 9.4635 44.0395 9.83767 44.0636 10.4154C44.0552 11.2447 43.5909 11.904 43.1119 12.5523C42.9892 12.8491 43.0501 13.0396 43.1298 13.3476C43.2266 13.5739 43.3286 13.798 43.4348 14.02C43.7264 14.6679 43.9054 15.2496 43.6539 15.9402C43.3987 16.4369 43.0563 16.7239 42.5632 16.9647C41.9887 17.084 41.4558 17.0015 40.8979 16.8281C40.5332 16.7199 40.2236 16.6413 39.8427 16.6347C39.4366 16.8664 39.1605 17.1896 38.8466 17.5312C38.3052 17.9747 37.8616 18.2397 37.1532 18.2285C36.5425 18.0877 36.0442 17.8159 35.6956 17.2822C35.5674 16.9538 35.5445 16.7969 35.5497 16.4562C35.5921 15.4841 35.5921 15.4841 35.1826 14.6458C34.7441 14.3123 34.2617 14.0868 33.7645 13.8551C33.3934 13.65 33.2191 13.3509 33.0381 12.9803C32.9149 12.3867 32.9657 11.8613 33.2373 11.3181C33.6334 10.8685 34.0758 10.6395 34.6341 10.4564C35.2398 10.2647 35.2398 10.2647 35.7124 9.86481C35.7902 9.6295 35.8272 9.40995 35.8583 9.16404C36.191 7.65205 36.191 7.65205 36.8544 7.14073C37.4573 6.80158 38.0653 6.81389 38.7034 7.07847ZM37.7509 8.56639C37.7379 8.62663 37.7249 8.68686 37.7115 8.74892C37.6512 9.02457 37.589 9.29973 37.5267 9.57493C37.5063 9.66969 37.4859 9.76446 37.4649 9.86209C37.1986 11.0242 37.1986 11.0242 36.6812 11.3724C36.4789 11.4846 36.2742 11.5833 36.0637 11.6792C35.9937 11.7128 35.9236 11.7465 35.8515 11.7811C35.4935 11.9516 35.1329 12.1099 34.7626 12.2519C34.8778 12.5976 34.9212 12.6117 35.2283 12.7733C35.3026 12.8142 35.3769 12.855 35.4534 12.8971C35.6097 12.9808 35.7664 13.0638 35.9235 13.1461C36.5089 13.4703 36.8185 13.7752 37.0099 14.4377C37.0552 14.6499 37.0838 14.858 37.1069 15.0737C37.1156 15.1533 37.1242 15.2329 37.1332 15.3149C37.1418 15.3971 37.1505 15.4793 37.1594 15.5639C37.1685 15.6477 37.1775 15.7314 37.1869 15.8176C37.2091 16.0236 37.231 16.2296 37.2528 16.4355C37.6346 16.2776 37.8802 16.0305 38.1742 15.7445C38.6814 15.2726 39.0815 14.9494 39.7909 14.9371C40.5206 14.9824 41.2277 15.1612 41.9345 15.3398C41.9673 15.2741 42.0002 15.2083 42.0341 15.1406C41.9282 14.8848 41.8165 14.6371 41.6979 14.3873C41.3452 13.6057 41.0848 13.0084 41.3866 12.1648C41.6058 11.6723 41.893 11.2285 42.1944 10.7827C42.3504 10.5742 42.3504 10.5742 42.3329 10.3594C42.2647 10.3645 42.1964 10.3696 42.1261 10.3748C41.8133 10.3969 41.5004 10.4155 41.1874 10.4341C41.08 10.4422 40.9727 10.4502 40.8621 10.4586C40.1906 10.4954 39.697 10.4676 39.1454 10.0605C38.889 9.82123 38.889 9.82123 38.6785 9.56871C38.3823 9.21837 38.0788 8.88748 37.7509 8.56639Z" fill="#FF8303"/>
<path d="M29.8066 17.8737C30.192 18.2328 30.3745 18.6451 30.5786 19.1251C30.6161 19.2115 30.6536 19.2979 30.6922 19.3869C30.7778 19.6231 30.7778 19.6231 30.7778 19.9219C30.9292 19.9474 30.9292 19.9474 31.0836 19.9733C31.2183 19.9976 31.3529 20.022 31.4875 20.0464C31.5538 20.0574 31.62 20.0683 31.6883 20.0795C32.2815 20.19 32.6909 20.4264 33.1062 20.8744C33.3363 21.3613 33.342 21.7832 33.268 22.3126C33.1105 22.6877 32.9456 22.8639 32.5992 23.0752C32.2545 23.2988 32.0197 23.4747 31.7739 23.8067C31.6914 24.2325 31.7156 24.6533 31.7532 25.0834C31.7901 25.5259 31.8051 25.7393 31.5934 26.144C31.2777 26.5098 31.0235 26.7452 30.5377 26.8436C29.8101 26.897 29.3557 26.6584 28.7584 26.26C28.4806 26.094 28.3108 26.0141 27.9887 25.9981C27.6963 26.0937 27.6963 26.0937 27.4035 26.2409C26.8641 26.477 26.4711 26.6235 25.8911 26.4265C25.4081 26.2165 25.1344 25.9859 24.9009 25.5001C24.7376 24.8688 24.8528 24.4085 25.0409 23.79C25.1071 23.4745 25.1072 23.3133 25.0005 23.0098C24.799 22.7248 24.799 22.7248 24.5522 22.4495C24.1399 21.9733 23.9652 21.6831 23.9771 21.0367C24.025 20.653 24.1541 20.3183 24.4028 20.0215C24.9484 19.6318 25.379 19.5601 26.0401 19.5484C26.1225 19.5454 26.2049 19.5425 26.2897 19.5394C26.4908 19.5325 26.6919 19.5278 26.893 19.5235C26.9201 19.4507 26.9472 19.3779 26.9751 19.3029C27.2354 18.6863 27.6149 18.0924 28.188 17.7305C28.743 17.5513 29.2815 17.6415 29.8066 17.8737ZM28.7856 19.5235C28.5838 19.8213 28.3917 20.1247 28.1985 20.4281C27.9295 20.8009 27.7253 20.9726 27.2915 21.1172C26.9834 21.1439 26.6753 21.1615 26.3666 21.1791C26.0818 21.1912 26.0818 21.1912 25.8969 21.4161C25.9533 21.4857 26.0097 21.5553 26.0678 21.627C26.1408 21.7176 26.2139 21.8083 26.2892 21.9017C26.362 21.9918 26.4348 22.0819 26.5098 22.1748C26.9002 22.6783 26.8258 23.1894 26.7934 23.8067C26.744 24.1138 26.6745 24.4021 26.5942 24.7032C26.6664 24.6756 26.7385 24.648 26.8129 24.6195C27.7229 24.2786 28.2734 24.1096 29.1841 24.504C29.4893 24.6598 29.7865 24.8261 30.0805 25.002C30.0759 24.8962 30.0713 24.7904 30.0665 24.6814C30.018 23.1328 30.018 23.1328 30.479 22.6114C30.7639 22.3568 31.0602 22.1297 31.3755 21.9141C31.3262 21.8155 31.3262 21.8155 31.2759 21.7149C31.0521 21.6408 30.8252 21.5758 30.5973 21.5157C29.7148 21.2816 29.7148 21.2816 29.4829 21.1172C29.3716 20.892 29.3716 20.892 29.2837 20.6192C29.2309 20.4765 29.2309 20.4765 29.1771 20.3309C29.1424 20.235 29.1077 20.139 29.072 20.0402C29.0368 19.943 29.0016 19.8458 28.9654 19.7457C28.9389 19.6724 28.9125 19.599 28.8852 19.5235C28.8524 19.5235 28.8195 19.5235 28.7856 19.5235Z" fill="#FF8303"/>
<path d="M47.5528 19.6914C48.0535 20.1324 48.2593 20.4469 48.3373 21.117C48.3522 21.2362 48.367 21.3553 48.3824 21.4781C48.4071 21.759 48.4184 22.0307 48.412 22.3123C48.4941 22.3349 48.5763 22.3575 48.661 22.3808C49.2473 22.6007 49.7998 22.9219 50.2049 23.408C50.3975 23.9859 50.4035 24.5932 50.1427 25.145C49.8145 25.4991 49.5044 25.7391 49.0369 25.8812C48.7126 25.989 48.4802 26.0819 48.2127 26.2967C48.0735 26.6853 48.0223 27.0127 47.9797 27.4232C47.8906 27.9213 47.6862 28.2471 47.2976 28.5691C46.7708 28.7915 46.3127 28.8398 45.7599 28.6873C45.2448 28.3821 44.857 27.9998 44.5397 27.492C44.3535 27.2734 44.3535 27.2734 44.1397 27.2846C43.9862 27.3031 43.8333 27.3257 43.6809 27.3516C43.0198 27.4599 42.4065 27.4863 41.8377 27.0936C41.386 26.593 41.2952 26.2718 41.2969 25.6084C41.3593 25.1596 41.5575 24.8338 41.7969 24.4547C41.9461 24.1893 42.0177 24.0106 42.037 23.7069C41.9455 23.4333 41.9455 23.4333 41.8004 23.1652C41.5219 22.5825 41.3705 22.1958 41.5451 21.559C41.7351 21.0374 42.0373 20.7682 42.535 20.5194C43.1185 20.4751 43.6294 20.5134 44.191 20.675C44.4603 20.7441 44.4603 20.7441 44.7264 20.7186C45.0802 20.4667 45.3393 20.1483 45.6229 19.8221C46.2133 19.4076 46.912 19.3709 47.5528 19.6914ZM46.5194 21.3162C46.3952 21.4411 46.2731 21.5681 46.1521 21.696C45.7115 22.1381 45.3896 22.3899 44.7513 22.4431C44.2688 22.4253 43.8012 22.3204 43.3319 22.2127C43.3832 22.511 43.4276 22.7045 43.5871 22.966C43.8508 23.5964 43.8451 24.2104 43.5961 24.8469C43.4508 25.1376 43.2989 25.4199 43.1327 25.6991C43.259 25.6848 43.259 25.6848 43.3879 25.6703C44.1995 25.5909 44.7546 25.642 45.5233 25.8983C45.55 25.9558 45.5767 26.0133 45.6042 26.0726C45.7774 26.4008 46.029 26.5669 46.3202 26.7948C46.416 26.5147 46.5094 26.2368 46.5816 25.9496C46.7586 25.2699 46.7586 25.2699 47.0174 24.9707C47.4683 24.717 47.9365 24.5077 48.412 24.3045C48.1044 23.9791 47.8061 23.7732 47.4159 23.5613C47.0148 23.2527 46.8407 22.9153 46.7357 22.4252C46.7201 22.2923 46.7061 22.1592 46.6937 22.026C46.686 21.9574 46.6783 21.8888 46.6704 21.8182C46.6518 21.651 46.6352 21.4837 46.619 21.3162C46.5861 21.3162 46.5533 21.3162 46.5194 21.3162Z" fill="#FF8303"/>
</g>
<defs>
<clipPath id="clip0_116_6165">
<rect width="51" height="51" fill="white"/>
</clipPath>
</defs>
</svg>
