<svg width="26" height="35" viewBox="0 0 26 35" fill="none" xmlns="http://www.w3.org/2000/svg">
<path d="M12.6969 0.515847C12.5684 0.652133 12.3839 0.704661 12.3448 0.906961C12.293 1.17812 12.3008 2.45225 12.3391 2.75038C12.4158 3.34096 13.3762 3.44814 13.477 2.607C13.5253 2.20594 13.5253 1.02692 13.335 0.709629C13.2903 0.634388 13.1526 0.616642 13.1214 0.515137H12.6969V0.515847Z" fill="#FF8303"/>
<path d="M13.7729 5.21229C6.09893 4.47407 1.01444 12.2665 4.68637 19.0518C5.71065 20.9442 6.46378 22.0252 6.74203 24.2903C6.85276 25.1911 6.70086 26.2381 6.82579 27.0395C6.86057 27.2631 7.00963 27.4277 7.22613 27.4888L17.9729 27.5072C18.271 27.52 18.5195 27.3411 18.567 27.0395C18.66 26.446 18.5294 25.6248 18.572 24.9902C18.7779 21.9287 20.0903 20.6411 21.1799 18.1084C23.5813 12.5271 19.8454 5.79577 13.7729 5.21158V5.21229ZM8.0254 26.3708C7.98139 24.8589 7.84723 23.447 7.40714 21.9954C6.76971 19.8929 5.27482 18.3221 4.8042 16.2423C3.86013 12.0706 6.31471 7.80103 10.4168 6.62839C17.0587 4.7289 22.8807 11.4602 20.0704 17.7769C19.0227 20.1314 17.8671 21.3396 17.52 24.1498C17.4285 24.8929 17.4597 25.6305 17.3681 26.3708H15.3153V17.0203H17.0494C17.7664 17.0203 18.7062 16.0663 18.9056 15.4068C19.5019 13.4292 18.1113 11.6426 16.0202 12.0231C15.2259 12.1679 14.1831 13.1907 14.1831 14.0099V15.8867C12.7294 15.6162 12.7259 17.2722 14.1831 17.0203V26.3708H11.2104V17.0203C12.6677 17.273 12.6641 15.6162 11.2104 15.8867V14.0099C11.2104 13.1822 10.1726 12.1686 9.37336 12.0231C7.27795 11.6419 5.89024 13.4257 6.48791 15.4068C6.68666 16.0663 7.62718 17.0203 8.34411 17.0203H10.0782V26.3708H8.0254ZM15.3153 15.8874V14.2228C15.3153 13.836 15.7994 13.2724 16.1778 13.173C17.4029 12.8514 18.0723 13.8275 17.8317 14.9703C17.7536 15.3401 17.2219 15.8874 16.8365 15.8874H15.3146H15.3153ZM10.0775 14.2228C10.1485 14.7247 10.0257 15.3685 10.0775 15.8874H8.55564C8.53647 15.8874 8.23906 15.7837 8.18724 15.7603C7.28363 15.3543 7.27653 13.6741 8.19008 13.2539C9.00851 12.8777 9.94832 13.305 10.0775 14.2221V14.2228Z" fill="url(#paint0_linear_1_7343)"/>
<path d="M17.3904 28.7231L8.13141 28.7061C7.4159 28.7763 7.41448 29.7715 8.13141 29.8425H17.2655C17.9121 29.7878 18.0008 28.9268 17.3904 28.7224V28.7231Z" fill="url(#paint1_linear_1_7343)"/>
<path d="M17.3904 31.0615L8.13141 31.0444C7.4159 31.1147 7.41448 32.1099 8.13141 32.1809H17.2655C17.9121 32.1262 18.0008 31.2652 17.3904 31.0608V31.0615Z" fill="#047CF4"/>
<path d="M14.699 33.398L10.7517 33.3853C10.1796 33.6188 10.1803 34.2825 10.7517 34.5153H14.6415C15.1938 34.2754 15.2172 33.6976 14.699 33.398Z" fill="url(#paint2_linear_1_7343)"/>
<path d="M0.544393 13.1031C0.799221 13.3189 2.17132 13.3132 2.52481 13.2494C3.24883 13.1187 3.25025 12.2095 2.52481 12.0788C2.14718 12.0107 0.790702 11.9958 0.528066 12.2428C0.315828 12.443 0.327187 12.9193 0.545103 13.1031H0.544393Z" fill="#FF8303"/>
<path d="M4.71581 3.86197C4.22816 3.73208 3.77387 4.14874 3.97191 4.60516C4.0145 4.70241 5.24605 5.96519 5.33549 6.00352C5.8487 6.22215 6.33564 5.78844 6.1454 5.26459C6.06874 5.05377 4.92237 3.91734 4.71581 3.86197Z" fill="#FF8303"/>
<path d="M21.1593 4.09202C21.0429 4.08918 20.9016 4.13532 20.8015 4.19778C20.7015 4.26025 19.6176 5.36403 19.5743 5.44779C19.274 6.03127 19.7858 6.5466 20.37 6.24421C20.4864 6.18388 21.5277 5.13617 21.6072 5.00344C21.8507 4.59742 21.6512 4.1048 21.1593 4.09131V4.09202Z" fill="#FF8303"/>
<path d="M22.4873 13.4559C22.5668 13.5432 22.7315 13.6085 22.8515 13.6227C23.1545 13.6596 24.3378 13.6653 24.609 13.6042C25.1605 13.4807 25.1477 12.5877 24.6225 12.4877C24.3833 12.4422 22.9622 12.4493 22.7279 12.5011C22.2957 12.5977 22.2091 13.1499 22.488 13.4551L22.4873 13.4559Z" fill="#FF8303"/>
<defs>
<linearGradient id="paint0_linear_1_7343" x1="12.6916" y1="5.16357" x2="12.6916" y2="32.1178" gradientUnits="userSpaceOnUse">
<stop stop-color="#047CF4"/>
<stop offset="1" stop-color="#0431D7"/>
</linearGradient>
<linearGradient id="paint1_linear_1_7343" x1="12.6985" y1="28.7061" x2="12.6985" y2="30.0769" gradientUnits="userSpaceOnUse">
<stop stop-color="#047CF4"/>
<stop offset="1" stop-color="#0431D7"/>
</linearGradient>
<linearGradient id="paint2_linear_1_7343" x1="12.6976" y1="33.3853" x2="12.6976" y2="34.7484" gradientUnits="userSpaceOnUse">
<stop stop-color="#047CF4"/>
<stop offset="1" stop-color="#0431D7"/>
</linearGradient>
</defs>
</svg>
