<svg width="52" height="51" viewBox="0 0 52 51" fill="none" xmlns="http://www.w3.org/2000/svg">
<path d="M16.0709 0.00351129C16.3051 0.00293117 16.5393 0.00216939 16.7735 0.00124056C17.4069 -0.000702428 18.0404 4.4266e-05 18.6739 0.00140266C19.3382 0.00248864 20.0026 0.00148034 20.6669 0.0008099C21.8537 -1.68324e-05 23.0405 0.00130842 24.2273 0.00348657C25.3014 0.00539688 26.3754 0.00506495 27.4495 0.00309368C28.6995 0.000808662 29.9495 -4.41345e-05 31.1995 0.00121736C31.8602 0.00188254 32.5209 0.00197706 33.1816 0.000560314C33.8029 -0.000678949 34.4242 0.000189197 35.0454 0.00265324C35.2728 0.00321655 35.5003 0.00305993 35.7277 0.00211329C37.3143 -0.00388035 38.6521 0.0527992 39.8431 1.23482C40.6348 2.19286 41.0316 3.08744 41.0334 4.33548C41.0337 4.40993 41.0339 4.48438 41.0342 4.56108C41.0349 4.81114 41.0349 5.06118 41.0348 5.31124C41.0352 5.4921 41.0356 5.67296 41.036 5.85382C41.0371 6.35132 41.0375 6.84881 41.0378 7.3463C41.0382 7.88268 41.0392 8.41906 41.0401 8.95543C41.0422 10.251 41.0433 11.5465 41.0443 12.842C41.0447 13.4521 41.0453 14.0622 41.0459 14.6723C41.0477 16.7004 41.0492 18.7284 41.05 20.7565C41.0502 21.2827 41.0504 21.809 41.0506 22.3352C41.0507 22.466 41.0507 22.5968 41.0508 22.7315C41.0517 24.8507 41.0544 26.9697 41.0579 29.0888C41.0614 31.2645 41.0633 33.4401 41.0637 35.6157C41.0639 36.8373 41.0648 38.0588 41.0676 39.2803C41.0699 40.3206 41.0707 41.3608 41.0697 42.401C41.0692 42.9316 41.0694 43.4622 41.0715 43.9928C41.0734 44.479 41.0733 44.9651 41.0716 45.4513C41.0714 45.6268 41.0718 45.8023 41.0731 45.9777C41.0832 47.4662 40.8244 48.7207 39.78 49.8471C38.8946 50.6658 37.931 50.9626 36.7523 50.9624C36.6063 50.963 36.6063 50.963 36.4574 50.9636C36.1305 50.9648 35.8037 50.9652 35.4768 50.9656C35.2427 50.9662 35.0086 50.967 34.7745 50.9677C34.0051 50.97 33.2356 50.9711 32.4661 50.9721C32.2011 50.9726 31.9361 50.973 31.6711 50.9734C30.4974 50.9754 29.3237 50.9769 28.15 50.9777C27.9353 50.9779 27.7206 50.9781 27.5059 50.9782C27.4349 50.9783 27.3638 50.9783 27.2906 50.9784C26.1404 50.9792 24.9901 50.982 23.8399 50.9854C22.6578 50.989 21.4757 50.9909 20.2936 50.9912C19.6304 50.9915 18.9672 50.9924 18.3039 50.9951C17.6796 50.9976 17.0553 50.9981 16.431 50.997C16.2023 50.9969 15.9737 50.9976 15.7451 50.9991C14.2111 51.0084 12.9145 50.9689 11.7265 49.8776C10.8731 49.0182 10.4175 48.0825 10.4161 46.8525C10.4157 46.7773 10.4154 46.702 10.415 46.6245C10.414 46.3731 10.4145 46.1216 10.415 45.8702C10.4146 45.6878 10.4141 45.5054 10.4136 45.3231C10.4123 44.8224 10.4123 44.3217 10.4125 43.8211C10.4126 43.2809 10.4114 42.7407 10.4104 42.2006C10.4086 41.1425 10.408 40.0844 10.4079 39.0263C10.4078 38.1661 10.4074 37.306 10.4067 36.4459C10.4048 34.007 10.4038 31.5682 10.404 29.1293C10.404 28.9979 10.404 28.8664 10.404 28.7309C10.404 28.5993 10.404 28.4677 10.404 28.3321C10.4041 26.1988 10.4021 24.0656 10.3991 21.9323C10.396 19.7417 10.3945 17.5511 10.3947 15.3605C10.3948 14.1307 10.3942 12.9009 10.3919 11.6711C10.3899 10.624 10.3895 9.57699 10.3909 8.52991C10.3916 7.99583 10.3916 7.46176 10.3898 6.92768C10.3881 6.43835 10.3884 5.94906 10.3903 5.45973C10.3906 5.28312 10.3902 5.1065 10.389 4.92988C10.3793 3.39621 10.6369 2.26549 11.7265 1.12792C12.974 -0.0583739 14.4558 -0.00321161 16.0709 0.00351129ZM12.6273 2.71482C11.7137 3.95036 12.1541 4.65827 12.1541 6.58018C21.1151 6.58018 30.0761 6.58018 39.3086 6.58018C39.5237 3.92477 39.5237 3.92477 38.774 2.62462C38.01 1.86064 37.2462 1.65232 36.1894 1.64765C36.0634 1.6479 36.0634 1.6479 35.9348 1.64816C35.8442 1.64791 35.7535 1.64767 35.6601 1.64742C35.357 1.64675 35.054 1.64683 34.7509 1.64692C34.5333 1.6466 34.3157 1.64624 34.0981 1.64583C33.5074 1.64489 32.9168 1.64464 32.3261 1.64457C31.9569 1.64449 31.5878 1.64427 31.2186 1.64398C29.9303 1.64299 28.642 1.64256 27.3536 1.64264C26.1534 1.64271 24.9532 1.64158 23.753 1.63989C22.7219 1.63849 21.6909 1.63792 20.6598 1.63799C20.0443 1.63801 19.4288 1.63771 18.8133 1.63658C18.2342 1.63554 17.6552 1.63553 17.0761 1.63631C16.864 1.63642 16.6518 1.63617 16.4396 1.63552C16.1493 1.6347 15.8589 1.6352 15.5686 1.63602C15.4853 1.63547 15.402 1.63492 15.3162 1.63435C14.2237 1.64115 13.3566 1.86066 12.6273 2.71482ZM12.1541 8.2907C12.1541 19.7565 12.1541 31.2223 12.1541 43.0355C21.1151 43.0355 30.0761 43.0355 39.3086 43.0355C39.3086 31.5697 39.3086 20.1039 39.3086 8.2907C30.3476 8.2907 21.3866 8.2907 12.1541 8.2907ZM12.1541 44.6391C11.9763 46.7891 11.9763 46.7891 12.7768 48.5204C12.8425 48.5758 12.9083 48.6312 12.976 48.6882C13.0403 48.7453 13.1047 48.8023 13.171 48.8611C13.8627 49.2803 14.5734 49.3905 15.3696 49.3838C15.5087 49.3845 15.5087 49.3845 15.6507 49.3853C15.9589 49.3866 16.2671 49.3856 16.5754 49.3845C16.7974 49.385 17.0195 49.3855 17.2415 49.3862C17.8427 49.3877 18.4439 49.3871 19.0452 49.3861C19.6751 49.3853 20.3051 49.3861 20.9351 49.3866C21.9927 49.3872 23.0504 49.3864 24.108 49.3849C25.3301 49.3831 26.5521 49.3837 27.7741 49.3854C28.8243 49.3869 29.8745 49.3871 30.9247 49.3863C31.5515 49.3858 32.1783 49.3857 32.8052 49.3868C33.3944 49.3877 33.9836 49.387 34.5729 49.3852C34.7889 49.3848 35.0049 49.3849 35.2208 49.3856C35.5162 49.3865 35.8114 49.3854 36.1067 49.3838C36.1917 49.3845 36.2768 49.3852 36.3644 49.3859C37.2051 49.3772 37.8888 49.1135 38.5602 48.5947C39.6569 47.4354 39.3086 46.2901 39.3086 44.6391C30.3476 44.6391 21.3866 44.6391 12.1541 44.6391Z" fill="black"/>
<path d="M3.73976 18.3125C4.13398 18.3392 4.13398 18.3392 4.38788 18.4528C4.65207 18.7678 4.66851 19.0014 4.66851 19.4083C4.50688 19.7248 4.31728 19.9678 4.07551 20.2272C2.38506 22.0534 1.81408 24.3777 1.8551 26.8079C1.94023 28.9846 2.93917 30.8935 4.367 32.4931C4.5886 32.8103 4.64141 33.03 4.66851 33.4131C4.58364 33.6909 4.50251 33.8036 4.27429 33.9811C3.88541 34.0967 3.67036 34.0652 3.27872 33.9477C1.48848 32.6397 0.482332 30.0553 0.115589 27.9652C-0.285281 25.0096 0.351642 22.1485 2.10274 19.729C3.24313 18.35 3.24313 18.35 3.73976 18.3125Z" fill="black"/>
<path d="M47.89 18.2466C48.764 18.4505 49.3364 19.3493 49.8139 20.0673C51.4465 22.7143 52.113 25.7506 51.3912 28.8304C51.136 29.8242 50.7298 30.7126 50.2152 31.5966C50.1546 31.704 50.094 31.8113 50.0315 31.9219C49.5915 32.6577 49.068 33.408 48.3978 33.9486C47.9834 34.0475 47.7456 34.0889 47.3421 33.9486C47.1149 33.7348 47.1149 33.7348 47.0013 33.3806C47.0114 32.7901 47.2751 32.5269 47.6486 32.1036C49.4187 30.0518 49.9442 27.6295 49.7876 24.9684C49.5916 23.1593 48.6825 21.2096 47.3354 19.9771C47.0702 19.6797 47.0058 19.4748 46.9805 19.0818C47.008 18.8747 47.008 18.8747 47.2218 18.5539C47.5426 18.3401 47.5426 18.3401 47.89 18.2466Z" fill="black"/>
<path d="M26.9492 13.4824C27.4781 13.7865 27.7878 14.241 27.9781 14.812C27.994 15.0992 28.0035 15.3833 28.0074 15.6706C28.0094 15.8083 28.0094 15.8083 28.0114 15.9488C28.015 16.2648 28.0169 16.5807 28.0182 16.8967C28.019 17.0622 28.019 17.0622 28.0197 17.2311C28.0237 19.816 27.8879 22.3952 27.7488 24.9757C27.7309 25.309 27.7136 25.6424 27.6964 25.9758C27.6687 26.5079 27.6394 27.0399 27.6089 27.5718C27.5976 27.7705 27.5868 27.9692 27.5765 28.1679C27.562 28.443 27.5458 28.7178 27.5291 28.9928C27.5252 29.0726 27.5214 29.1525 27.5174 29.2349C27.4749 29.8817 27.3222 30.3835 26.9158 30.8949C26.3932 31.1615 25.8796 31.1396 25.3055 31.0619C24.9561 30.931 24.7396 30.7423 24.5237 30.4338C24.3397 29.8651 24.3159 29.2703 24.2821 28.6774C24.2743 28.5466 24.2743 28.5466 24.2663 28.4132C24.2491 28.1246 24.2325 27.836 24.2159 27.5473C24.2101 27.4474 24.2043 27.3474 24.1983 27.2444C24.1542 26.4857 24.1115 25.727 24.0694 24.9682C24.0632 24.8576 24.057 24.7471 24.0507 24.6332C23.7547 19.2965 23.7547 19.2965 23.7553 16.8165C23.7549 16.7193 23.7544 16.6221 23.754 16.5219C23.7534 16.2564 23.7554 15.9912 23.7587 15.7258C23.7604 15.5856 23.7621 15.4454 23.7639 15.3009C23.839 14.6617 24.0501 14.1731 24.5571 13.7563C24.6299 13.6949 24.7026 13.6334 24.7776 13.5701C25.3751 13.1436 26.2983 13.1923 26.9492 13.4824ZM24.664 14.7051C24.5298 15.1077 24.539 15.4848 24.5377 15.9043C24.5372 15.9941 24.5366 16.084 24.5361 16.1765C24.5347 16.4759 24.5345 16.7752 24.5346 17.0746C24.5345 17.1784 24.5345 17.2822 24.5344 17.3891C24.5362 19.7889 24.6539 22.1795 24.7924 24.5747C24.8177 25.0194 24.8414 25.4643 24.865 25.9091C24.8882 26.3418 24.9122 26.7745 24.9366 27.2072C24.948 27.4113 24.9591 27.6155 24.9701 27.8197C24.9853 28.1012 25.0016 28.3827 25.0183 28.6642C25.0225 28.7465 25.0268 28.8287 25.0311 28.9135C25.0599 29.3753 25.1179 29.7817 25.3055 30.2067C25.6588 30.3951 25.8494 30.4426 26.2409 30.3537C26.5307 30.1765 26.5769 30.0951 26.6953 29.779C26.7297 29.4937 26.7535 29.2167 26.7686 28.9304C26.7738 28.8448 26.7791 28.7592 26.7845 28.671C26.8016 28.3863 26.8174 28.1015 26.8331 27.8167C26.8447 27.6156 26.8565 27.4146 26.8682 27.2135C26.8993 26.6762 26.9289 26.1389 26.9579 25.6014C26.9758 25.2699 26.994 24.9383 27.0122 24.6067C27.1507 22.0646 27.2833 19.5234 27.2899 16.9769C27.2908 16.8714 27.2917 16.7658 27.2927 16.6571C27.2945 16.3677 27.2932 16.0786 27.2903 15.7892C27.2909 15.7085 27.2914 15.6278 27.2919 15.5446C27.2797 15.0049 27.1403 14.6944 26.8022 14.2775C26.4367 14.0295 26.0939 14.0069 25.6608 14.0148C25.228 14.0999 24.9382 14.3697 24.664 14.7051Z" fill="black"/>
<path d="M45.2953 21.4404C46.2701 22.276 47.1273 23.7065 47.3077 24.9955C47.4406 27.0702 47.1371 28.8465 45.7898 30.5142C45.464 30.8533 45.2498 31.024 44.7741 31.0487C44.4772 31.0109 44.3541 30.971 44.1126 30.7881C43.9744 30.4288 43.9789 30.1629 44.0124 29.7792C44.2079 29.4631 44.2079 29.4631 44.4668 29.1578C45.3581 28.0394 45.6199 26.9198 45.5091 25.5029C45.3451 24.6821 45.0675 24.0034 44.5653 23.3334C44.44 23.1509 44.44 23.1509 44.44 22.9371C44.3695 22.9371 44.2989 22.9371 44.2262 22.9371C43.9559 22.5317 43.9469 22.2369 44.0124 21.7612C44.3361 21.2833 44.7769 21.2953 45.2953 21.4404Z" fill="black"/>
<path d="M7.34329 21.4402C7.62745 21.6865 7.66098 21.85 7.72415 22.222C7.65696 22.6624 7.51556 22.8124 7.21467 23.1269C6.28599 24.2757 6.06603 25.5658 6.16731 26.9994C6.36871 27.9811 6.8218 28.7862 7.49029 29.5251C7.73117 29.8772 7.71715 30.1098 7.66401 30.5273C7.56379 30.7879 7.56379 30.7879 7.34329 30.955C6.92735 31.0579 6.55849 31.058 6.18193 30.8393C5.06739 29.8272 4.40613 28.1716 4.32817 26.695C4.29355 24.8665 4.70414 23.2831 5.86663 21.8345C6.3509 21.3717 6.68893 21.2411 7.34329 21.4402Z" fill="black"/>
<path d="M27.2267 33.3069C27.8194 33.6944 28.1074 34.132 28.2958 34.8036C28.4109 35.6505 28.2257 36.2559 27.7412 36.9618C27.195 37.508 26.72 37.7142 25.9438 37.7435C25.2527 37.7166 24.7661 37.5629 24.2601 37.0862C23.6758 36.443 23.5403 35.88 23.5593 35.0178C23.6177 34.4418 23.7959 34.0506 24.2195 33.6543C25.1642 32.9115 26.1362 32.7374 27.2267 33.3069ZM24.4471 34.5029C24.2835 34.9633 24.2713 35.3902 24.3402 35.8727C24.5893 36.3899 24.892 36.6927 25.4093 36.9417C25.9574 37.0387 26.4257 37.0246 26.8993 36.7146C27.3627 36.3244 27.5273 35.947 27.5942 35.3448C27.5725 34.8721 27.4279 34.5211 27.1198 34.1621C26.7104 33.8107 26.2847 33.6562 25.7359 33.6861C25.2085 33.8024 24.8058 34.1107 24.4471 34.5029Z" fill="black"/>
<path d="M24.7698 3.35135C24.8953 3.35043 24.8953 3.35043 25.0234 3.3495C25.2004 3.34849 25.3775 3.34779 25.5545 3.34738C25.8246 3.34634 26.0946 3.34303 26.3646 3.33965C26.5368 3.33896 26.709 3.3384 26.8812 3.33798C27.0018 3.336 27.0018 3.336 27.1249 3.33398C27.6076 3.33602 27.917 3.39222 28.2985 3.69378C28.5124 4.01451 28.5124 4.01451 28.499 4.38868C28.4054 4.76286 28.4054 4.76286 28.2457 4.94347C27.8437 5.15373 27.467 5.13358 27.0194 5.13369C26.9264 5.1345 26.8333 5.13532 26.7375 5.13616C26.5409 5.13731 26.3444 5.13762 26.1479 5.13714C25.8477 5.13703 25.5478 5.14148 25.2477 5.14622C25.0565 5.14678 24.8653 5.14706 24.6741 5.14705C24.54 5.14968 24.54 5.14968 24.4031 5.15237C23.9414 5.14691 23.754 5.12306 23.3735 4.83656C23.167 4.54904 23.167 4.54904 23.167 4.1615C23.3107 3.67654 23.3107 3.67654 23.5946 3.47997C23.9897 3.34827 24.3581 3.35366 24.7698 3.35135Z" fill="black"/>
<path d="M25.8326 46.2957C26.0292 46.2907 26.0292 46.2907 26.2298 46.2856C26.5877 46.3491 26.5877 46.3491 26.8491 46.5955C27.0153 46.8837 27.0153 46.8837 27.0086 47.2712C26.8756 47.75 26.8756 47.75 26.5877 47.9527C26.244 48.0028 26.244 48.0028 25.846 48.0062C25.6494 48.0111 25.6494 48.0111 25.4488 48.0162C25.091 47.9527 25.091 47.9527 24.8295 47.7063C24.6633 47.4182 24.6633 47.4182 24.67 47.0307C24.8606 46.3444 25.1429 46.3015 25.8326 46.2957Z" fill="black"/>
<rect width="26.8316" height="33.2712" transform="translate(12.1494 8.86719)" fill="white"/>
<g clip-path="url(#clip0_116_6145)">
<path d="M31.7337 26.2426V23.3561C31.7337 20.7666 29.9748 18.5852 27.5922 17.9291C27.3564 17.3351 26.78 16.9165 26.099 16.9165C25.418 16.9165 24.8417 17.3351 24.6058 17.9291C22.2232 18.586 20.4644 20.7666 20.4644 23.3561V26.2426L19.0903 27.6167C18.9394 27.7676 18.8545 27.9723 18.8545 28.1858V29.7957C18.8545 30.0092 18.9393 30.2139 19.0903 30.3649C19.2412 30.5158 19.446 30.6006 19.6594 30.6006H32.5386C32.7521 30.6006 32.9568 30.5158 33.1078 30.3649C33.2588 30.2139 33.3436 30.0092 33.3436 29.7957V28.1858C33.3435 27.9723 33.2587 27.7676 33.1077 27.6167L31.7337 26.2426ZM31.7337 28.9907H20.4644V28.519L21.8384 27.145C21.9894 26.9941 22.0742 26.7893 22.0743 26.5759V23.3561C22.0743 21.1368 23.8798 19.3313 26.099 19.3313C28.3183 19.3313 30.1238 21.1368 30.1238 23.3561V26.5759C30.1238 26.79 30.2083 26.9945 30.3596 27.145L31.7337 28.519V28.9907ZM26.099 33.0155C26.5975 33.0161 27.0838 32.8614 27.4904 32.5729C27.8969 32.2844 28.2034 31.8763 28.3674 31.4056H23.8307C23.9946 31.8763 24.3012 32.2844 24.7077 32.5729C25.1142 32.8614 25.6005 33.0161 26.099 33.0155Z" fill="black"/>
</g>
<defs>
<clipPath id="clip0_116_6145">
<rect width="19.3188" height="19.3188" fill="white" transform="translate(17.5146 16.3799)"/>
</clipPath>
</defs>
</svg>
