<svg width="72" height="72" viewBox="0 0 72 72" fill="none" xmlns="http://www.w3.org/2000/svg">
<path d="M2.56641 67.4998L4.49942 61.9189L5.89172 59.2603C5.99852 59.0566 6.29852 58.9189 6.63656 58.9189H35.3622C35.7003 58.9189 38.9994 58.9303 38.9994 58.9303" stroke="white" stroke-width="3" stroke-linecap="round" stroke-linejoin="round"/>
<path fill-rule="evenodd" clip-rule="evenodd" d="M10.5 27.2505H28.5V58.9304H10.5V27.2505Z" stroke="white" stroke-width="3" stroke-linecap="round" stroke-linejoin="round"/>
<path d="M46.5 67.5703H1.5" stroke="white" stroke-width="3" stroke-linecap="round" stroke-linejoin="round"/>
<path d="M19.5059 27.2505V58.9304" stroke="white" stroke-width="3" stroke-linecap="round" stroke-linejoin="round"/>
<path d="M28.5059 27.2505V58.9304" stroke="white" stroke-width="3" stroke-linecap="round" stroke-linejoin="round"/>
<path d="M43.5059 27.2505V42.2504" stroke="white" stroke-width="3" stroke-linecap="round" stroke-linejoin="round"/>
<path d="M52.5059 27.2505V37.4999" stroke="white" stroke-width="3" stroke-linecap="round" stroke-linejoin="round"/>
<path d="M60.0059 29.1248V39.6246" stroke="white" stroke-width="3" stroke-linecap="round" stroke-linejoin="round"/>
<path fill-rule="evenodd" clip-rule="evenodd" d="M67.1082 19.731C67.3341 19.0801 67.0503 18.3667 66.4302 18.026L36.7422 1.72808C36.2781 1.47085 35.7063 1.47085 35.2422 1.72808L5.5422 18.0145C4.92204 18.3552 4.63833 19.0686 4.8642 19.7194L7.1562 26.2657C7.36014 26.8535 7.93284 27.2502 8.5782 27.2506H63.4182C64.0635 27.2502 64.6362 26.8535 64.8402 26.2657L67.1082 19.731Z" stroke="white" stroke-width="3" stroke-linecap="round" stroke-linejoin="round"/>
<path d="M66.9993 18.6108H4.98633" stroke="white" stroke-width="3" stroke-linecap="round" stroke-linejoin="round"/>
<path fill-rule="evenodd" clip-rule="evenodd" d="M56.8903 53.4685L56.9606 53.5388C57.5758 54.1538 58.5733 54.1538 59.1886 53.5388L62.3115 50.4142C63.2295 49.4896 63.2295 47.9979 62.3115 47.0733L60.9263 45.6894C60.0023 44.7702 58.509 44.7702 57.585 45.6894L54.4614 48.8111C53.8462 49.4262 53.8462 50.4233 54.4614 51.0384L54.5317 51.1086L56.8903 53.4685Z" stroke="#FF8303" stroke-width="3" stroke-linecap="round" stroke-linejoin="round"/>
<path fill-rule="evenodd" clip-rule="evenodd" d="M51.1106 54.5315L51.0404 54.4612C50.4252 53.8463 49.4277 53.8463 48.8125 54.4612L45.6891 57.5856C44.7703 58.5098 44.7703 60.002 45.6891 60.9262L47.0734 62.3101C47.9973 63.23 49.4914 63.23 50.4153 62.3101L53.538 59.1885C53.8338 58.8933 54 58.4927 54 58.075C54 57.6572 53.8338 57.2566 53.538 56.9614L53.4678 56.8912L51.1106 54.5315Z" stroke="#FF8303" stroke-width="3" stroke-linecap="round" stroke-linejoin="round"/>
<path d="M51 57L57 51" stroke="#FF8303" stroke-width="3" stroke-linecap="round" stroke-linejoin="round"/>
<path fill-rule="evenodd" clip-rule="evenodd" d="M39 54C39 45.7157 45.7157 39 54 39C62.2843 39 69 45.7157 69 54C69 62.2843 62.2843 69 54 69C45.7157 69 39 62.2843 39 54Z" stroke="white" stroke-width="3" stroke-linecap="round" stroke-linejoin="round"/>
</svg>
