<svg width="68" height="66" viewBox="0 0 68 66" fill="none" xmlns="http://www.w3.org/2000/svg">
<path d="M31.5807 38.8065C31.8261 39.0519 32.1589 39.1898 32.5059 39.1898C32.8529 39.1898 33.1857 39.0519 33.4311 38.8065C33.6765 38.5612 33.8143 38.2284 33.8143 37.8813C33.8143 37.5343 33.6765 37.2015 33.4311 36.9562C32.4529 35.9756 31.9035 34.647 31.9035 33.2619C31.9035 31.8768 32.4529 30.5483 33.4311 29.5677L37.0926 25.9061C38.0934 25.041 39.3847 24.5872 40.7067 24.6361C42.0286 24.685 43.2829 25.2329 44.217 26.1695C45.1512 27.1061 45.6958 28.3619 45.7411 29.684C45.7865 31.006 45.3292 32.2962 44.4615 33.2946L41.6499 36.1061C41.4046 36.3515 41.2667 36.6843 41.2667 37.0313C41.2667 37.3784 41.4046 37.7112 41.6499 37.9565C41.8953 38.2019 42.2281 38.3398 42.5751 38.3398C42.9221 38.3398 43.2549 38.2019 43.5003 37.9565L46.3119 35.145C47.7858 33.671 48.6139 31.6718 48.6139 29.5873C48.6139 27.5028 47.7858 25.5036 46.3119 24.0296C44.8379 22.5556 42.8387 21.7275 40.7542 21.7275C38.6696 21.7275 36.6705 22.5556 35.1965 24.0296L31.5349 27.6911C30.8065 28.4231 30.2296 29.2916 29.8375 30.247C29.4455 31.2023 29.2458 32.2257 29.2501 33.2583C29.2543 34.291 29.4624 35.3127 29.8623 36.2648C30.2623 37.2168 30.8462 38.0806 31.5807 38.8065Z" fill="#FF8303"/>
<path d="M26.7424 36.2104C26.9878 35.9651 27.1257 35.6323 27.1257 35.2852C27.1257 34.9382 26.9878 34.6054 26.7424 34.36C26.4971 34.1147 26.1643 33.9768 25.8173 33.9768C25.4702 33.9768 25.1374 34.1147 24.8921 34.36L22.2767 36.9754C20.8027 38.4494 19.9746 40.4486 19.9746 42.5331C19.9746 44.6177 20.8027 46.6168 22.2767 48.0908C23.7507 49.5648 25.7498 50.3929 27.8344 50.3929C29.9189 50.3929 31.9181 49.5648 33.3921 48.0908L37.0601 44.4293C37.7916 43.7003 38.372 42.8342 38.768 41.8805C39.164 40.9268 39.3679 39.9042 39.3679 38.8716C39.3679 37.8389 39.164 36.8164 38.768 35.8627C38.372 34.909 37.7916 34.0428 37.0601 33.3139C36.9386 33.1924 36.7944 33.096 36.6357 33.0303C36.4769 32.9645 36.3068 32.9307 36.1349 32.9307C35.9631 32.9307 35.793 32.9645 35.6342 33.0303C35.4755 33.096 35.3313 33.1924 35.2098 33.3139C35.0883 33.4354 34.9919 33.5796 34.9261 33.7384C34.8604 33.8971 34.8265 34.0673 34.8265 34.2391C34.8265 34.4109 34.8604 34.581 34.9261 34.7398C34.9919 34.8985 35.0883 35.0428 35.2098 35.1643C36.188 36.1449 36.7373 37.4734 36.7373 38.8585C36.7373 40.2436 36.188 41.5721 35.2098 42.5527L31.5482 46.2143C31.0704 46.7316 30.4931 47.1471 29.8509 47.4359C29.2086 47.7246 28.5147 47.8808 27.8106 47.8949C27.1066 47.909 26.4069 47.7809 25.7536 47.5181C25.1003 47.2553 24.5068 46.8633 24.0086 46.3655C23.5105 45.8678 23.1179 45.2747 22.8546 44.6216C22.5912 43.9685 22.4624 43.269 22.4759 42.5649C22.4894 41.8608 22.6449 41.1668 22.9331 40.5243C23.2214 39.8818 23.6363 39.3041 24.1532 38.8258L26.7424 36.2104Z" fill="#FF8303"/>
<path d="M0 32.9999C0 34.734 0.688872 36.3971 1.91507 37.6233C3.14127 38.8495 4.80435 39.5384 6.53846 39.5384H17.0392C17.3861 39.5384 17.7187 39.4006 17.9639 39.1554C18.2091 38.9101 18.3469 38.5775 18.3469 38.2307C18.3469 37.8839 18.2091 37.5513 17.9639 37.306C17.7187 37.0608 17.3861 36.923 17.0392 36.923H6.53846C5.498 36.923 4.50015 36.5097 3.76443 35.774C3.02871 35.0382 2.61538 34.0404 2.61538 32.9999V6.84608C2.61538 5.80561 3.02871 4.80776 3.76443 4.07204C4.50015 3.33632 5.498 2.923 6.53846 2.923H48.3846C49.4251 2.923 50.4229 3.33632 51.1586 4.07204C51.8944 4.80776 52.3077 5.80561 52.3077 6.84608V32.9999C52.3077 34.0404 51.8944 35.0382 51.1586 35.774C50.4229 36.5097 49.4251 36.923 48.3846 36.923C48.0378 36.923 47.7052 37.0608 47.4599 37.306C47.2147 37.5513 47.0769 37.8839 47.0769 38.2307C47.0769 38.5775 47.2147 38.9101 47.4599 39.1554C47.7052 39.4006 48.0378 39.5384 48.3846 39.5384C49.2433 39.5384 50.0935 39.3693 50.8868 39.0407C51.6801 38.7121 52.4009 38.2305 53.008 37.6233C53.6152 37.0162 54.0968 36.2954 54.4254 35.5021C54.754 34.7088 54.9231 33.8586 54.9231 32.9999V6.84608C54.9231 5.98744 54.754 5.1372 54.4254 4.34392C54.0968 3.55064 53.6152 2.82984 53.008 2.22269C52.4009 1.61554 51.6801 1.13392 50.8868 0.805327C50.0935 0.476739 49.2433 0.307617 48.3846 0.307617H6.53846C4.80435 0.307617 3.14127 0.996489 1.91507 2.22269C0.688872 3.44889 0 5.11197 0 6.84608V32.9999Z" fill="#215CFF"/>
<path d="M68.0002 33.0004C68.0002 31.2663 67.3114 29.6032 66.0852 28.377C64.859 27.1508 63.1959 26.4619 61.4618 26.4619H58.8464C58.4996 26.4619 58.1669 26.5997 57.9217 26.8449C57.6765 27.0902 57.5387 27.4228 57.5387 27.7696C57.5387 28.1164 57.6765 28.449 57.9217 28.6943C58.1669 28.9395 58.4996 29.0773 58.8464 29.0773H61.4618C62.5022 29.0773 63.5001 29.4906 64.2358 30.2263C64.9715 30.9621 65.3848 31.9599 65.3848 33.0004V59.1542C65.3848 60.1947 64.9715 61.1925 64.2358 61.9283C63.5001 62.664 62.5022 63.0773 61.4618 63.0773H19.6156C18.5751 63.0773 17.5773 62.664 16.8416 61.9283C16.1059 61.1925 15.6925 60.1947 15.6925 59.1542V43.4619C15.6925 43.1151 15.5548 42.7825 15.3095 42.5372C15.0643 42.292 14.7317 42.1542 14.3848 42.1542C14.038 42.1542 13.7054 42.292 13.4602 42.5372C13.2149 42.7825 13.0771 43.1151 13.0771 43.4619V59.1542C13.0771 60.8883 13.766 62.5514 14.9922 63.7776C16.2184 65.0038 17.8815 65.6927 19.6156 65.6927H61.4618C63.1959 65.6927 64.859 65.0038 66.0852 63.7776C67.3114 62.5514 68.0002 60.8883 68.0002 59.1542V33.0004Z" fill="#215CFF"/>
<path d="M19.6149 13.3848H9.1534C8.80657 13.3848 8.47396 13.5225 8.22872 13.7678C7.98348 14.013 7.8457 14.3456 7.8457 14.6925V22.5386C7.8457 22.8854 7.98348 23.2181 8.22872 23.4633C8.47396 23.7085 8.80657 23.8463 9.1534 23.8463H19.6149C19.9618 23.8463 20.2944 23.7085 20.5396 23.4633C20.7849 23.2181 20.9226 22.8854 20.9226 22.5386V14.6925C20.9226 14.3456 20.7849 14.013 20.5396 13.7678C20.2944 13.5225 19.9618 13.3848 19.6149 13.3848ZM18.3072 21.2309H10.4611V16.0002H18.3072V21.2309Z" fill="#215CFF"/>
<path d="M22.2305 55.2305C21.8837 55.2305 21.5511 55.3682 21.3059 55.6135C21.0606 55.8587 20.9229 56.1913 20.9229 56.5382C20.9229 56.885 21.0606 57.2176 21.3059 57.4628C21.5511 57.7081 21.8837 57.8459 22.2305 57.8459H32.6921C33.0389 57.8459 33.3715 57.7081 33.6168 57.4628C33.862 57.2176 33.9998 56.885 33.9998 56.5382C33.9998 56.1913 33.862 55.8587 33.6168 55.6135C33.3715 55.3682 33.0389 55.2305 32.6921 55.2305H22.2305Z" fill="#215CFF"/>
<path d="M36.6152 56.5382C36.6152 56.885 36.753 57.2176 36.9982 57.4628C37.2435 57.7081 37.5761 57.8459 37.9229 57.8459H58.846C59.1928 57.8459 59.5254 57.7081 59.7707 57.4628C60.0159 57.2176 60.1537 56.885 60.1537 56.5382C60.1537 56.1913 60.0159 55.8587 59.7707 55.6135C59.5254 55.3682 59.1928 55.2305 58.846 55.2305H37.9229C37.5761 55.2305 37.2435 55.3682 36.9982 55.6135C36.753 55.8587 36.6152 56.1913 36.6152 56.5382Z" fill="#215CFF"/>
<path d="M45.7692 10.7687C46.1161 10.7687 46.4487 10.6309 46.6939 10.3857C46.9391 10.1405 47.0769 9.80783 47.0769 9.46101C47.0769 9.11419 46.9391 8.78157 46.6939 8.53633C46.4487 8.29109 46.1161 8.15332 45.7692 8.15332H35.3077C34.9609 8.15332 34.6283 8.29109 34.383 8.53633C34.1378 8.78157 34 9.11419 34 9.46101C34 9.80783 34.1378 10.1405 34.383 10.3857C34.6283 10.6309 34.9609 10.7687 35.3077 10.7687H45.7692Z" fill="#215CFF"/>
</svg>
