<svg width="72" height="72" viewBox="0 0 72 72" fill="none" xmlns="http://www.w3.org/2000/svg">
<path d="M66 36.2773V27.001C66 23.8555 63.5602 21.2974 60.4776 21.0493L51.8629 6.00247C51.0646 4.61085 49.7755 3.61621 48.233 3.20319C46.6978 2.79299 45.0924 3.00843 43.7183 3.80816L14.1867 21.001H9.00004C5.691 21.001 3 23.6918 3 27.001V63.0009C3 66.31 5.69086 69.001 9.00004 69.001H60C63.3091 69.001 66 66.3101 66 63.0009V53.7246C67.7422 53.1033 69 51.454 69 49.501V40.501C69 38.548 67.7422 36.8986 66 36.2773ZM56.9916 21.001H43.9176L53.7232 15.2921L56.9916 21.001ZM52.2327 12.6888L37.9552 21.001H32.0331L50.752 10.1025L52.2327 12.6888ZM45.2285 6.40086C45.9067 6.00388 46.6992 5.89841 47.4566 6.10063C48.2227 6.30566 48.8614 6.8008 49.2584 7.49366L49.2615 7.49914L26.071 21.001H20.1492L45.2285 6.40086ZM63 63.0009C63 64.6547 61.6538 66.0009 60 66.0009H9.00004C7.34629 66.0009 6.00009 64.6547 6.00009 63.0009V27.001C6.00009 25.3472 7.34629 24.001 9.00004 24.001H60C61.6538 24.001 63 25.3472 63 27.001V36.001H54C49.037 36.001 45 40.038 45 45.001C45 49.9639 49.037 54.001 54 54.001H63V63.0009ZM66 49.501C66 50.3285 65.3277 51.001 64.5 51.001H54C50.6909 51.001 47.9999 48.3101 47.9999 45.001C47.9999 41.6919 50.6908 39.0009 54 39.0009H64.5C65.3276 39.0009 66 39.6733 66 40.501V49.501Z" fill="white"/>
<path d="M53.9999 42.0007C52.3462 42.0007 51 43.3469 51 45.0007C51 46.6544 52.3462 48.0006 53.9999 48.0006C55.6537 48.0006 56.9999 46.6544 56.9999 45.0007C57 43.3469 55.6538 42.0007 53.9999 42.0007Z" fill="white"/>
<rect x="12" y="30.9001" width="3" height="28.5" rx="1.5" fill="#FF8303"/>
<rect x="18" y="35.0999" width="3" height="21" rx="1.5" fill="#FF8303"/>
</svg>
