<svg width="54" height="51" viewBox="0 0 54 51" fill="none" xmlns="http://www.w3.org/2000/svg">
<path d="M1.92758 0.00378186C2.06453 0.00253384 2.20149 0.00128583 2.3426 0C2.49362 0.0012214 2.64464 0.0024428 2.80024 0.00370121C2.96023 0.00299744 3.12023 0.00229367 3.28507 0.00156858C3.73005 -0.00031382 4.17497 0.000990598 4.61994 0.00280672C5.09947 0.00421551 5.579 0.00270214 6.05853 0.00155518C6.99829 -0.000219474 7.93802 0.000746539 8.87777 0.00265839C9.97141 0.00479891 11.065 0.00439459 12.1587 0.00391806C14.1096 0.00316998 16.0605 0.00497474 18.0114 0.00810775C19.9059 0.0111497 21.8003 0.0120504 23.6948 0.0107156C25.7561 0.00926576 27.8175 0.00901807 29.8788 0.0108552C30.0985 0.0110493 30.3182 0.0112426 30.5378 0.0114352C30.7 0.0115798 30.7 0.0115798 30.8654 0.0117272C31.6283 0.0123311 32.3912 0.0120943 33.1541 0.0115541C34.0834 0.0109285 35.0127 0.0116844 35.942 0.014211C36.4165 0.015469 36.8909 0.0161128 37.3653 0.0151148C37.8789 0.0140566 38.3924 0.0159392 38.906 0.0181374C39.057 0.0173732 39.208 0.0166089 39.3636 0.0158215C39.5006 0.0168947 39.6375 0.017968 39.7786 0.0190738C39.9566 0.0192701 39.9566 0.0192701 40.1381 0.0194703C40.4935 0.0766555 40.6073 0.160947 40.8177 0.448924C40.8646 0.7878 40.8646 0.7878 40.8635 1.20446C40.8643 1.44117 40.8643 1.44117 40.8651 1.68267C40.8638 1.85784 40.8624 2.03301 40.861 2.20819C40.8609 2.39241 40.8609 2.57663 40.8611 2.76085C40.8613 3.26133 40.859 3.76178 40.8563 4.26225C40.854 4.78514 40.8537 5.30803 40.8533 5.83092C40.8521 6.82126 40.849 7.81158 40.8451 8.80191C40.8409 9.92929 40.8388 11.0567 40.8369 12.1841C40.8329 14.5033 40.8262 16.8226 40.8177 19.1419C40.9172 19.1805 41.0168 19.2192 41.1194 19.259C41.4407 19.3909 41.6872 19.538 41.9691 19.7389C42.1155 19.8424 42.1155 19.8424 42.2649 19.948C42.3696 20.023 42.4742 20.0979 42.5821 20.1751C42.8108 20.337 43.0397 20.499 43.2685 20.6609C43.3878 20.7455 43.5071 20.8301 43.63 20.9173C44.2372 21.3464 44.8483 21.7699 45.4591 22.1938C46.4957 22.914 47.5303 23.637 48.5636 24.3618C49.2243 24.8246 49.8879 25.2829 50.5536 25.7384C52.8516 27.3143 52.8516 27.3143 53.0253 27.6618C53.0629 28.1643 53.0606 28.668 53.065 29.1718C53.0687 29.312 53.0724 29.4521 53.0762 29.5965C53.0773 29.7314 53.0783 29.8663 53.0794 30.0053C53.0822 30.1907 53.0822 30.1907 53.0851 30.3798C53.0253 30.7137 53.0253 30.7137 52.5166 31.2223C51.8872 31.2223 51.2577 31.2223 50.6092 31.2223C50.6092 35.083 50.6092 38.9437 50.6092 42.9213C51.2387 42.9213 51.8681 42.9213 52.5166 42.9213C53.0253 43.43 53.0253 43.43 53.0891 43.7598C53.0889 43.8817 53.0886 44.0037 53.0884 44.1294C53.0885 44.2631 53.0886 44.3969 53.0886 44.5347C53.0861 44.6737 53.0836 44.8127 53.0809 44.9559C53.0818 45.0949 53.0827 45.2339 53.0837 45.3771C53.0758 46.3709 53.0757 46.3709 52.9019 46.7532C52.4952 47.1272 52.0391 47.057 51.5149 47.0483C51.3995 47.0483 51.2841 47.0484 51.1652 47.0485C50.7833 47.0481 50.4015 47.0442 50.0196 47.0402C49.755 47.0392 49.4904 47.0385 49.2258 47.038C48.529 47.0361 47.8322 47.0311 47.1355 47.0254C46.4246 47.0202 45.7137 47.0179 45.0029 47.0154C43.6078 47.0099 42.2127 47.0012 40.8177 46.9905C40.8197 47.0964 40.8217 47.2022 40.8237 47.3113C40.8302 47.7045 40.835 48.0976 40.8386 48.4908C40.8415 48.7445 40.8463 48.9982 40.8512 49.2519C40.8524 49.4113 40.8537 49.5707 40.8549 49.7349C40.8569 49.8821 40.8589 50.0293 40.861 50.1809C40.8177 50.5511 40.8177 50.5511 40.6653 50.7619C40.357 50.9915 40.1614 50.9805 39.7786 50.9809C39.6417 50.982 39.5047 50.9831 39.3636 50.9842C39.1371 50.983 39.1371 50.983 38.906 50.9819C38.666 50.9829 38.666 50.9829 38.4211 50.9839C37.9762 50.9858 37.5312 50.9852 37.0863 50.9843C36.6067 50.9837 36.1272 50.9853 35.6477 50.9866C34.7079 50.9888 33.7682 50.9889 32.8284 50.9882C32.0649 50.9877 31.3014 50.9879 30.5378 50.9886C30.375 50.9887 30.375 50.9887 30.2089 50.9889C29.9885 50.989 29.768 50.9892 29.5475 50.9894C27.4786 50.9912 25.4097 50.9905 23.3408 50.989C21.4465 50.9878 19.5522 50.9894 17.6579 50.9925C15.7144 50.9956 13.7709 50.9968 11.8274 50.9959C10.7356 50.9955 9.64388 50.9958 8.55212 50.998C7.6228 50.9999 6.6935 51 5.76418 50.9977C5.28973 50.9967 4.81532 50.9964 4.34087 50.9983C3.8273 51.0004 3.31381 50.9986 2.80024 50.9963C2.64922 50.9975 2.49819 50.9987 2.3426 51C2.20564 50.9988 2.06868 50.9975 1.92758 50.9962C1.74964 50.9962 1.74964 50.9962 1.56811 50.9962C1.27003 50.9326 1.27003 50.9326 1.04119 50.7267C0.839961 50.3275 0.840719 50.0313 0.840536 49.5843C0.839981 49.4997 0.839427 49.4151 0.838856 49.3279C0.837458 49.0432 0.83879 48.7585 0.8401 48.4738C0.839661 48.2681 0.839055 48.0624 0.838297 47.8567C0.8367 47.2905 0.837493 46.7243 0.838673 46.1581C0.839534 45.5478 0.838205 44.9375 0.837155 44.3273C0.835455 43.1314 0.835826 41.9356 0.83693 40.7397C0.837791 39.768 0.837909 38.7964 0.837494 37.8247C0.837435 37.6866 0.837377 37.5485 0.837316 37.4062C0.837194 37.1256 0.837071 36.845 0.836945 36.5644C0.835857 33.9315 0.83711 31.2986 0.839158 28.6657C0.840863 26.4051 0.840567 24.1444 0.838808 21.8838C0.836768 19.2605 0.835962 16.6372 0.837134 14.014C0.837255 13.7344 0.837375 13.4548 0.837494 13.1753C0.837552 13.0377 0.837611 12.9001 0.837672 12.7584C0.838002 11.7876 0.837444 10.8168 0.836548 9.84593C0.835479 8.66331 0.835764 7.4807 0.837799 6.29808C0.838804 5.69434 0.839191 5.09061 0.837933 4.48687C0.8368 3.93467 0.837415 3.3825 0.83945 2.83031C0.839878 2.63007 0.839656 2.42983 0.838735 2.2296C0.837582 1.95828 0.838758 1.68706 0.840536 1.41575C0.840598 1.26479 0.84066 1.11383 0.840724 0.958301C0.932409 0.225467 1.20432 0.00386508 1.92758 0.00378186ZM2.4145 1.59339C2.4145 17.3718 2.4145 33.1501 2.4145 49.4066C14.584 49.4066 26.7535 49.4066 39.2917 49.4066C39.2917 48.6093 39.2917 47.812 39.2917 46.9905C38.7563 46.9877 38.7563 46.9877 38.2102 46.9849C37.0331 46.9785 35.8561 46.97 34.6791 46.9605C33.9652 46.9548 33.2513 46.9499 32.5374 46.9465C31.849 46.9432 31.1605 46.938 30.472 46.9316C30.2089 46.9295 29.9458 46.928 29.6826 46.9272C29.3151 46.926 28.9476 46.9225 28.58 46.9183C28.4704 46.9185 28.3607 46.9187 28.2477 46.9189C27.9451 46.9141 27.9451 46.9141 27.4656 46.8634C27.1953 46.458 27.1474 46.1938 27.0841 45.7189C26.977 45.7186 26.8698 45.7183 26.7595 45.718C24.1551 45.7105 21.5508 45.7009 18.9465 45.6889C17.6871 45.6832 16.4277 45.6782 15.1683 45.6748C14.0708 45.6719 12.9733 45.6677 11.8759 45.6618C11.2946 45.6588 10.7133 45.6564 10.1319 45.6556C9.5851 45.6548 9.03831 45.6523 8.4915 45.6484C8.2905 45.6473 8.0895 45.6468 7.8885 45.647C7.61462 45.6473 7.34085 45.6451 7.06698 45.6424C6.91354 45.6418 6.76011 45.6413 6.60202 45.6407C6.22938 45.5917 6.22938 45.5917 5.98926 45.4633C5.75943 45.0519 5.79607 44.6217 5.80031 44.1628C5.7998 44.0547 5.7993 43.9467 5.79877 43.8353C5.79755 43.4718 5.79906 43.1084 5.80055 42.745C5.80024 42.4849 5.79977 42.2249 5.79914 41.9649C5.79794 41.2576 5.79915 40.5504 5.80084 39.8431C5.80227 39.104 5.80175 38.3649 5.80151 37.6258C5.80139 36.3845 5.8028 35.1432 5.80514 33.9018C5.80784 32.4653 5.80828 31.0288 5.80749 29.5923C5.80676 28.2122 5.80748 26.832 5.80891 25.4519C5.8095 24.8637 5.80961 24.2756 5.80934 23.6875C5.8091 22.9952 5.81013 22.303 5.81215 21.6108C5.81269 21.3563 5.8128 21.1018 5.81244 20.8473C5.81203 20.5008 5.81318 20.1543 5.81474 19.8078C5.81426 19.7063 5.81378 19.6047 5.81329 19.5001C5.81716 19.0158 5.82691 18.7918 6.10222 18.3789C6.49357 18.3409 6.85939 18.3281 7.25109 18.3313C7.3716 18.3308 7.49211 18.3303 7.61627 18.3298C8.02261 18.3285 8.42889 18.33 8.83523 18.3315C9.12551 18.3312 9.41578 18.3308 9.70606 18.3301C10.4963 18.3289 11.2866 18.3301 12.0769 18.3318C12.9023 18.3333 13.7276 18.3327 14.553 18.3325C15.9393 18.3324 17.3256 18.3338 18.712 18.3361C20.1394 18.3385 21.5668 18.3394 22.9943 18.3387C24.7128 18.3379 26.4314 18.3383 28.15 18.3399C28.8071 18.3405 29.4642 18.3406 30.1213 18.3403C30.8945 18.3401 31.6677 18.3411 32.4408 18.3431C32.7254 18.3437 33.0099 18.3438 33.2944 18.3434C33.6813 18.343 34.0682 18.3442 34.4551 18.3457C34.569 18.3452 34.6829 18.3448 34.8002 18.3443C35.575 18.3498 35.575 18.3498 35.8583 18.6332C35.8989 18.9072 35.8989 18.9072 35.911 19.2422C35.9159 19.3619 35.9208 19.4815 35.9259 19.6048C35.9298 19.73 35.9337 19.8553 35.9378 19.9843C35.9427 20.1105 35.9476 20.2367 35.9527 20.3668C35.9647 20.679 35.9756 20.9913 35.9855 21.3036C37.1016 20.6028 38.1945 19.8733 39.2917 19.1419C39.2917 13.3509 39.2917 7.55987 39.2917 1.59339C27.1222 1.59339 14.9528 1.59339 2.4145 1.59339ZM7.24668 19.7777C7.24668 20.1553 7.24668 20.533 7.24668 20.9221C9.13505 20.9221 11.0234 20.9221 12.969 20.9221C12.969 20.5445 12.969 20.1668 12.969 19.7777C11.0806 19.7777 9.19228 19.7777 7.24668 19.7777ZM14.495 19.7777C14.495 20.1553 14.495 20.533 14.495 20.9221C16.3414 20.9221 18.1878 20.9221 20.0901 20.9221C20.0901 20.5445 20.0901 20.1668 20.0901 19.7777C18.2437 19.7777 16.3973 19.7777 14.495 19.7777ZM21.6161 19.7777C21.6161 20.1553 21.6161 20.533 21.6161 20.9221C25.8544 20.9221 30.0928 20.9221 34.4595 20.9221C34.4595 20.5445 34.4595 20.1668 34.4595 19.7777C30.2212 19.7777 25.9829 19.7777 21.6161 19.7777ZM38.9897 21.0652C38.7917 21.2067 38.5937 21.3481 38.3956 21.4894C38.2919 21.5636 38.1883 21.6378 38.0814 21.7143C37.5705 22.0787 37.0562 22.4383 36.5418 22.7978C36.4371 22.871 36.3323 22.9443 36.2244 23.0198C36.0054 23.1728 35.7864 23.3258 35.5674 23.4788C35.33 23.6446 35.0926 23.8106 34.8552 23.9765C32.1538 25.8649 32.1538 25.8649 30.9197 26.6662C30.7412 26.783 30.5654 26.904 30.3903 27.026C30.3903 27.0679 30.3903 27.1099 30.3903 27.1531C36.7688 27.1531 43.1473 27.1531 49.7191 27.1531C49.1922 26.7308 49.1922 26.7308 48.6511 26.3325C48.5306 26.2475 48.5306 26.2475 48.4076 26.1608C48.3211 26.1001 48.2346 26.0394 48.1454 25.9769C48.0522 25.9112 47.9589 25.8456 47.8629 25.778C46.5776 24.875 45.2868 23.9799 43.9967 23.0839C43.4668 22.7158 42.937 22.3475 42.4072 21.9792C42.2262 21.8535 42.2262 21.8535 42.0415 21.7252C41.9275 21.6459 41.8134 21.5666 41.6959 21.4849C41.5888 21.4106 41.4818 21.3363 41.3715 21.2597C41.0981 21.0677 40.8286 20.8711 40.5594 20.6733C39.8792 20.2052 39.5819 20.6371 38.9897 21.0652ZM7.24668 22.4481C7.24668 23.8749 7.24668 25.3016 7.24668 26.7716C9.13505 26.7716 11.0234 26.7716 12.969 26.7716C12.969 25.3449 12.969 23.9181 12.969 22.4481C11.0806 22.4481 9.19228 22.4481 7.24668 22.4481ZM14.495 22.4481C14.495 23.8749 14.495 25.3016 14.495 26.7716C16.3414 26.7716 18.1878 26.7716 20.0901 26.7716C20.0901 25.3449 20.0901 23.9181 20.0901 22.4481C18.2437 22.4481 16.3973 22.4481 14.495 22.4481ZM21.6161 22.4481C21.6161 23.8749 21.6161 25.3016 21.6161 26.7716C22.5212 26.804 23.4242 26.8317 24.3295 26.8485C24.6364 26.8554 24.9432 26.8649 25.2499 26.8771C27.2135 26.9533 28.5519 26.887 30.0531 25.5545C30.3699 25.2805 30.7143 25.0517 31.0614 24.818C31.4234 24.5656 31.7852 24.313 32.147 24.0602C32.8023 23.6034 33.4608 23.1542 34.1315 22.7202C34.1978 22.6724 34.2641 22.6245 34.3324 22.5753C34.3324 22.5333 34.3324 22.4913 34.3324 22.4481C30.136 22.4481 25.9396 22.4481 21.6161 22.4481ZM7.24668 28.2976C7.24668 29.7243 7.24668 31.1511 7.24668 32.6211C9.13505 32.6211 11.0234 32.6211 12.969 32.6211C12.969 31.1944 12.969 29.7676 12.969 28.2976C11.0806 28.2976 9.19228 28.2976 7.24668 28.2976ZM14.495 28.2976C14.495 29.7243 14.495 31.1511 14.495 32.6211C16.3414 32.6211 18.1878 32.6211 20.0901 32.6211C20.0901 31.1944 20.0901 29.7676 20.0901 28.2976C18.2437 28.2976 16.3973 28.2976 14.495 28.2976ZM21.6161 28.2976C21.6161 29.7243 21.6161 31.1511 21.6161 32.6211C24.2178 32.6211 26.8196 32.6211 29.5002 32.6211C29.5002 32.1595 29.5002 31.6979 29.5002 31.2223C29.3669 31.2176 29.2336 31.2128 29.0963 31.2079C28.921 31.1996 28.7456 31.1911 28.5703 31.1826C28.4825 31.1797 28.3947 31.1768 28.3043 31.1739C27.7494 31.1444 27.6217 31.1242 27.2112 30.7137C27.1693 29.9164 27.1273 29.1191 27.0841 28.2976C25.2796 28.2976 23.4752 28.2976 21.6161 28.2976ZM28.61 28.6791C28.61 29.0148 28.61 29.3505 28.61 29.6964C36.1635 29.6964 43.717 29.6964 51.4993 29.6964C51.4993 29.3607 51.4993 29.025 51.4993 28.6791C43.9459 28.6791 36.3924 28.6791 28.61 28.6791ZM31.0261 31.2223C31.0261 35.083 31.0261 38.9437 31.0261 42.9213C32.1592 42.9213 33.2922 42.9213 34.4595 42.9213C34.4595 39.0606 34.4595 35.2 34.4595 31.2223C33.3265 31.2223 32.1935 31.2223 31.0261 31.2223ZM35.9855 31.2223C35.9855 35.083 35.9855 38.9437 35.9855 42.9213C38.6712 42.9213 41.3568 42.9213 44.1239 42.9213C44.1239 39.0606 44.1239 35.2 44.1239 31.2223C41.4382 31.2223 38.7525 31.2223 35.9855 31.2223ZM45.6499 31.2223C45.6499 35.083 45.6499 38.9437 45.6499 42.9213C46.7829 42.9213 47.9159 42.9213 49.0833 42.9213C49.0833 39.0606 49.0833 35.2 49.0833 31.2223C47.9502 31.2223 46.8172 31.2223 45.6499 31.2223ZM7.24668 34.0199C7.24668 35.4467 7.24668 36.8734 7.24668 38.3434C9.13505 38.3434 11.0234 38.3434 12.969 38.3434C12.969 36.9167 12.969 35.4899 12.969 34.0199C11.0806 34.0199 9.19228 34.0199 7.24668 34.0199ZM14.495 34.0199C14.495 35.4467 14.495 36.8734 14.495 38.3434C16.3414 38.3434 18.1878 38.3434 20.0901 38.3434C20.0901 36.9167 20.0901 35.4899 20.0901 34.0199C18.2437 34.0199 16.3973 34.0199 14.495 34.0199ZM21.6161 34.0199C21.6161 35.4467 21.6161 36.8734 21.6161 38.3434C24.2178 38.3434 26.8196 38.3434 29.5002 38.3434C29.5002 36.9167 29.5002 35.4899 29.5002 34.0199C26.8984 34.0199 24.2967 34.0199 21.6161 34.0199ZM7.24668 39.8694C7.24668 41.2962 7.24668 42.7229 7.24668 44.1929C9.13505 44.1929 11.0234 44.1929 12.969 44.1929C12.969 42.7662 12.969 41.3394 12.969 39.8694C11.0806 39.8694 9.19228 39.8694 7.24668 39.8694ZM14.495 39.8694C14.495 41.2962 14.495 42.7229 14.495 44.1929C16.3414 44.1929 18.1878 44.1929 20.0901 44.1929C20.0901 42.7662 20.0901 41.3394 20.0901 39.8694C18.2437 39.8694 16.3973 39.8694 14.495 39.8694ZM21.6161 39.8694C21.6161 41.2962 21.6161 42.7229 21.6161 44.1929C23.4205 44.1929 25.225 44.1929 27.0841 44.1929C27.168 43.8572 27.2519 43.5215 27.3384 43.1756C27.7251 42.9823 28.1372 43.0009 28.5624 42.9769C29.0266 42.9494 29.0266 42.9494 29.5002 42.9213C29.5002 41.9142 29.5002 40.907 29.5002 39.8694C26.8984 39.8694 24.2967 39.8694 21.6161 39.8694ZM28.61 44.4473C28.61 44.783 28.61 45.1187 28.61 45.4646C36.1635 45.4646 43.717 45.4646 51.4993 45.4646C51.4993 45.1289 51.4993 44.7931 51.4993 44.4473C43.9459 44.4473 36.3924 44.4473 28.61 44.4473Z" fill="#111111"/>
<path d="M9.02691 4.84424C9.40839 4.89987 9.40839 4.89987 9.62149 5.05286C9.84884 5.36137 9.82848 5.56223 9.81373 5.94102C9.80856 6.11289 9.80856 6.11289 9.80329 6.28823C9.79887 6.3756 9.79444 6.46297 9.78988 6.55299C9.93085 6.54856 10.0718 6.54414 10.2171 6.53958C10.4032 6.536 10.5893 6.53253 10.7754 6.52915C10.9146 6.52435 10.9146 6.52435 11.0565 6.51946C11.4712 6.5138 11.7712 6.52465 12.1409 6.72138C12.3331 6.93448 12.3331 6.93448 12.3888 7.31597C12.3331 7.69745 12.3331 7.69745 12.1978 7.90881C11.8254 8.16619 11.4467 8.1325 11.0099 8.1306C10.8723 8.13267 10.8723 8.13267 10.732 8.13478C10.34 8.14061 9.94801 8.14207 9.55599 8.14395C9.26964 8.14595 8.98339 8.15014 8.69708 8.15445C8.56414 8.15387 8.56414 8.15387 8.42852 8.15328C8.0614 8.15898 7.81424 8.16432 7.50964 8.38021C7.30899 8.68651 7.30237 8.86629 7.37379 9.22341C7.96116 9.74 8.66164 9.66168 9.40045 9.66848C11.0994 9.68418 11.0994 9.68418 11.7793 10.3043C12.3789 11.0744 12.4067 11.7069 12.3331 12.6568C12.1129 13.3175 11.7578 13.6616 11.1887 14.0556C10.685 14.2379 10.3266 14.3099 9.78988 14.3099C9.79652 14.441 9.79652 14.441 9.80329 14.5747C9.80674 14.6893 9.81018 14.8038 9.81373 14.9219C9.82036 15.0923 9.82036 15.0923 9.82714 15.2661C9.78988 15.5815 9.78988 15.5815 9.62149 15.81C9.28803 16.0495 9.04284 16.021 8.64542 15.963C8.40699 15.7802 8.40699 15.7802 8.26393 15.4544C8.2342 15.0706 8.24177 14.6939 8.26393 14.3099C8.12296 14.3158 7.98199 14.3217 7.83674 14.3278C7.65064 14.3326 7.46453 14.3372 7.27842 14.3417C7.18564 14.346 7.09286 14.3502 6.99727 14.3546C6.54076 14.3629 6.28417 14.3508 5.91291 14.074C5.72067 13.8013 5.72067 13.8013 5.66504 13.4754C5.73329 13.0951 5.78826 13.007 6.10216 12.784C6.42583 12.7449 6.72009 12.7279 7.04396 12.7278C7.13566 12.7262 7.22736 12.7245 7.32183 12.7227C7.61468 12.7175 7.90747 12.7148 8.20035 12.7124C8.49321 12.7094 8.78603 12.7058 9.07886 12.7008C9.26099 12.6977 9.44314 12.6958 9.62529 12.6952C10.0894 12.688 10.2828 12.6673 10.68 12.4025C10.7118 11.9468 10.7118 11.9468 10.68 11.5123C10.2672 11.268 9.95766 11.2262 9.48092 11.2232C9.282 11.2193 9.282 11.2193 9.07906 11.2153C8.80157 11.212 8.52406 11.2097 8.24654 11.2083C7.45303 11.1907 6.9557 11.1626 6.35649 10.6222C5.82415 9.91722 5.62965 9.34306 5.72067 8.46043C5.94271 7.80543 6.20644 7.14601 6.84726 6.81079C7.32688 6.61696 7.74063 6.50393 8.26393 6.55299C8.25729 6.43792 8.25729 6.43792 8.25052 6.32052C8.2228 5.50221 8.2228 5.50221 8.40699 5.08267C8.64542 4.89987 8.64542 4.89987 9.02691 4.84424Z" fill="#111111"/>
<path d="M17.0466 6.75759C17.2079 6.75633 17.3693 6.75507 17.5355 6.75377C17.7147 6.75431 17.8938 6.75489 18.073 6.75551C18.2614 6.75478 18.4498 6.7539 18.6382 6.75286C19.1503 6.75058 19.6623 6.75073 20.1744 6.75146C20.6017 6.75185 21.0289 6.75108 21.4562 6.75031C22.4641 6.74852 23.4719 6.74872 24.4798 6.75017C25.52 6.75163 26.5602 6.74984 27.6005 6.74643C28.4931 6.74361 29.3858 6.74277 30.2785 6.74352C30.8119 6.74394 31.3452 6.74363 31.8785 6.74145C32.3801 6.73948 32.8816 6.73998 33.3831 6.74238C33.5672 6.74285 33.7514 6.74245 33.9355 6.74112C34.1867 6.73945 34.4379 6.74121 34.6892 6.74315C34.8298 6.74318 34.9704 6.74321 35.1153 6.74323C35.5615 6.82182 35.712 6.96076 35.9854 7.31554C36.047 7.67673 36.0523 7.85598 35.84 8.15839C35.4991 8.41025 35.2432 8.38123 34.822 8.38214C34.6583 8.3834 34.4946 8.38466 34.326 8.38596C34.1442 8.38542 33.9624 8.38484 33.7806 8.38422C33.5895 8.38495 33.3984 8.38583 33.2073 8.38687C32.6879 8.38915 32.1685 8.389 31.6491 8.38827C31.2158 8.38788 30.7825 8.38865 30.3492 8.38942C29.3273 8.39121 28.3055 8.39101 27.2836 8.38956C26.2285 8.3881 25.1734 8.38989 24.1183 8.3933C23.2131 8.39612 22.3078 8.39696 21.4026 8.39622C20.8617 8.39579 20.3208 8.3961 19.7798 8.39828C19.2713 8.40024 18.7628 8.39975 18.2543 8.39735C18.0674 8.39688 17.8806 8.39728 17.6937 8.39861C17.4391 8.40028 17.1845 8.39852 16.9299 8.39658C16.716 8.39654 16.716 8.39654 16.4977 8.3965C16.148 8.33284 16.148 8.33284 15.9074 8.0949C15.7665 7.82419 15.7665 7.82419 15.7824 7.49834C16.0259 6.81998 16.3545 6.75911 17.0466 6.75759Z" fill="#111111"/>
<path d="M16.9155 9.82588C17.079 9.82498 17.2425 9.82408 17.4109 9.82315C17.5932 9.82344 17.7754 9.82376 17.9576 9.8241C18.1487 9.82355 18.3398 9.82289 18.5309 9.82214C19.0509 9.82043 19.5708 9.82036 20.0908 9.82068C20.5244 9.82082 20.9579 9.8202 21.3915 9.81959C22.4142 9.81817 23.4369 9.81812 24.4595 9.81889C25.5156 9.81966 26.5716 9.81809 27.6277 9.81538C28.5334 9.81315 29.4392 9.81238 30.3449 9.81279C30.8863 9.81302 31.4276 9.81268 31.969 9.81092C32.4781 9.80933 32.9871 9.80957 33.4961 9.81123C33.6832 9.81153 33.8702 9.81118 34.0573 9.81013C34.3122 9.80881 34.5671 9.81006 34.822 9.81144C34.9647 9.81142 35.1075 9.8114 35.2547 9.81138C35.6047 9.85903 35.6047 9.85903 35.8459 10.0239C35.9862 10.2405 35.9862 10.2405 35.9624 10.7015C35.9283 10.8431 35.8942 10.9847 35.8591 11.1307C35.5096 11.3054 35.2294 11.275 34.8381 11.2765C34.6746 11.2774 34.5111 11.2784 34.3426 11.2793C34.1604 11.2797 33.9782 11.28 33.7959 11.2803C33.6048 11.2811 33.4137 11.282 33.2226 11.2829C32.7027 11.2851 32.1827 11.2864 31.6628 11.2875C31.3382 11.2881 31.0136 11.2889 30.689 11.2897C29.6742 11.2921 28.6593 11.2939 27.6445 11.295C26.4716 11.2962 25.2988 11.2996 24.1259 11.3047C23.2202 11.3085 22.3144 11.3104 21.4087 11.3109C20.8673 11.3112 20.3259 11.3123 19.7845 11.3155C19.2755 11.3184 18.7665 11.319 18.2575 11.3177C18.0704 11.3176 17.8833 11.3184 17.6963 11.3202C17.4414 11.3224 17.1865 11.3212 16.9316 11.3198C16.7888 11.3201 16.646 11.3205 16.4989 11.3208C16.1488 11.2578 16.1488 11.2578 15.9077 11.0205C15.7673 10.7492 15.7673 10.7492 15.7912 10.4154C16.0053 9.78962 16.3121 9.82698 16.9155 9.82588Z" fill="#111111"/>
<path d="M17.2224 12.751C17.3186 12.7505 17.4148 12.7501 17.5139 12.7496C17.832 12.7485 18.1501 12.7493 18.4682 12.7501C18.6891 12.75 18.91 12.7497 19.131 12.7494C19.594 12.749 20.0571 12.7496 20.5202 12.7507C21.1142 12.7522 21.7081 12.7514 22.3021 12.7498C22.7583 12.7489 23.2145 12.7492 23.6707 12.7499C23.8897 12.75 24.1087 12.7498 24.3278 12.7492C24.6337 12.7486 24.9396 12.7496 25.2456 12.751C25.3364 12.7505 25.4271 12.75 25.5207 12.7494C25.9858 12.7534 26.1765 12.7726 26.5748 13.0382C26.694 13.4038 26.694 13.4038 26.702 13.8012C26.5082 14.0763 26.5082 14.0763 26.1933 14.3099C25.8557 14.3601 25.5706 14.3795 25.2332 14.3757C25.0892 14.377 25.0892 14.377 24.9423 14.3784C24.6254 14.3806 24.3087 14.3791 23.9918 14.3774C23.7714 14.3778 23.551 14.3782 23.3305 14.3789C22.8687 14.3796 22.407 14.3785 21.9452 14.3762C21.3533 14.3733 20.7616 14.3749 20.1698 14.378C19.7146 14.3798 19.2595 14.3792 18.8044 14.3779C18.5862 14.3776 18.368 14.378 18.1498 14.3792C17.8447 14.3805 17.5399 14.3785 17.2348 14.3757C17.1447 14.3767 17.0546 14.3777 16.9617 14.3788C16.5339 14.3714 16.3073 14.3341 15.9598 14.0763C15.766 13.8012 15.766 13.8012 15.7739 13.4038C16.0128 12.6712 16.5629 12.7473 17.2224 12.751Z" fill="#111111"/>
</svg>
