<svg width="56" height="54" viewBox="0 0 56 54" fill="none" xmlns="http://www.w3.org/2000/svg">
<rect x="1.07715" y="1.6499" width="39.7393" height="50.6958" rx="3" stroke="#215CFF" stroke-width="2"/>
<path d="M10.0269 6.84424C10.4084 6.89987 10.4084 6.89987 10.6215 7.05286C10.8488 7.36137 10.8285 7.56223 10.8137 7.94102C10.8086 8.11289 10.8086 8.11289 10.8033 8.28823C10.7989 8.3756 10.7944 8.46297 10.7899 8.55299C10.9309 8.54856 11.0718 8.54414 11.2171 8.53958C11.4032 8.536 11.5893 8.53253 11.7754 8.52915C11.9146 8.52435 11.9146 8.52435 12.0565 8.51946C12.4712 8.5138 12.7712 8.52465 13.1409 8.72138C13.3331 8.93448 13.3331 8.93448 13.3888 9.31597C13.3331 9.69745 13.3331 9.69745 13.1978 9.90881C12.8254 10.1662 12.4467 10.1325 12.0099 10.1306C11.8723 10.1327 11.8723 10.1327 11.732 10.1348C11.34 10.1406 10.948 10.1421 10.556 10.144C10.2696 10.1459 9.98339 10.1501 9.69708 10.1544C9.56414 10.1539 9.56414 10.1539 9.42852 10.1533C9.0614 10.159 8.81424 10.1643 8.50964 10.3802C8.30899 10.6865 8.30237 10.8663 8.37379 11.2234C8.96116 11.74 9.66164 11.6617 10.4004 11.6685C12.0994 11.6842 12.0994 11.6842 12.7793 12.3043C13.3789 13.0744 13.4067 13.7069 13.3331 14.6568C13.1129 15.3175 12.7578 15.6616 12.1887 16.0556C11.685 16.2379 11.3266 16.3099 10.7899 16.3099C10.7965 16.441 10.7965 16.441 10.8033 16.5747C10.8067 16.6893 10.8102 16.8038 10.8137 16.9219C10.8204 17.0923 10.8204 17.0923 10.8271 17.2661C10.7899 17.5815 10.7899 17.5815 10.6215 17.81C10.288 18.0495 10.0428 18.021 9.64542 17.963C9.40699 17.7802 9.40699 17.7802 9.26393 17.4544C9.2342 17.0706 9.24177 16.6939 9.26393 16.3099C9.12296 16.3158 8.98199 16.3217 8.83674 16.3278C8.65064 16.3326 8.46453 16.3372 8.27842 16.3417C8.18564 16.346 8.09286 16.3502 7.99727 16.3546C7.54076 16.3629 7.28417 16.3508 6.91291 16.074C6.72067 15.8013 6.72067 15.8013 6.66504 15.4754C6.73329 15.0951 6.78826 15.007 7.10216 14.784C7.42583 14.7449 7.72009 14.7279 8.04396 14.7278C8.13566 14.7262 8.22736 14.7245 8.32183 14.7227C8.61468 14.7175 8.90747 14.7148 9.20035 14.7124C9.49321 14.7094 9.78603 14.7058 10.0789 14.7008C10.261 14.6977 10.4431 14.6958 10.6253 14.6952C11.0894 14.688 11.2828 14.6673 11.68 14.4025C11.7118 13.9468 11.7118 13.9468 11.68 13.5123C11.2672 13.268 10.9577 13.2262 10.4809 13.2232C10.282 13.2193 10.282 13.2193 10.0791 13.2153C9.80157 13.212 9.52406 13.2097 9.24654 13.2083C8.45303 13.1907 7.9557 13.1626 7.35649 12.6222C6.82415 11.9172 6.62965 11.3431 6.72067 10.4604C6.94271 9.80543 7.20644 9.14601 7.84726 8.81079C8.32688 8.61696 8.74063 8.50393 9.26393 8.55299C9.25729 8.43792 9.25729 8.43792 9.25052 8.32052C9.2228 7.50221 9.2228 7.50221 9.40699 7.08267C9.64542 6.89987 9.64542 6.89987 10.0269 6.84424Z" fill="#215CFF"/>
<path d="M18.0466 8.75759C18.2079 8.75633 18.3693 8.75507 18.5355 8.75377C18.7147 8.75431 18.8938 8.75489 19.073 8.75551C19.2614 8.75478 19.4498 8.7539 19.6382 8.75286C20.1503 8.75058 20.6623 8.75073 21.1744 8.75146C21.6017 8.75185 22.0289 8.75108 22.4562 8.75031C23.4641 8.74852 24.4719 8.74872 25.4798 8.75017C26.52 8.75163 27.5602 8.74984 28.6005 8.74643C29.4931 8.74361 30.3858 8.74277 31.2785 8.74352C31.8119 8.74394 32.3452 8.74363 32.8785 8.74145C33.3801 8.73948 33.8816 8.73998 34.3831 8.74238C34.5672 8.74285 34.7514 8.74245 34.9355 8.74112C35.1867 8.73945 35.4379 8.74121 35.6892 8.74315C35.8298 8.74318 35.9704 8.74321 36.1153 8.74323C36.5615 8.82182 36.712 8.96076 36.9854 9.31554C37.047 9.67673 37.0523 9.85598 36.84 10.1584C36.4991 10.4102 36.2432 10.3812 35.822 10.3821C35.6583 10.3834 35.4946 10.3847 35.326 10.386C35.1442 10.3854 34.9624 10.3848 34.7806 10.3842C34.5895 10.3849 34.3984 10.3858 34.2073 10.3869C33.6879 10.3892 33.1685 10.389 32.6491 10.3883C32.2158 10.3879 31.7825 10.3887 31.3492 10.3894C30.3273 10.3912 29.3055 10.391 28.2836 10.3896C27.2285 10.3881 26.1734 10.3899 25.1183 10.3933C24.2131 10.3961 23.3078 10.397 22.4026 10.3962C21.8617 10.3958 21.3208 10.3961 20.7798 10.3983C20.2713 10.4002 19.7628 10.3998 19.2543 10.3974C19.0674 10.3969 18.8806 10.3973 18.6937 10.3986C18.4391 10.4003 18.1845 10.3985 17.9299 10.3966C17.716 10.3965 17.716 10.3965 17.4977 10.3965C17.148 10.3328 17.148 10.3328 16.9074 10.0949C16.7665 9.82419 16.7665 9.82419 16.7824 9.49834C17.0259 8.81998 17.3545 8.75911 18.0466 8.75759Z" fill="#215CFF"/>
<path d="M17.9155 11.8259C18.079 11.825 18.2425 11.8241 18.4109 11.8232C18.5932 11.8234 18.7754 11.8238 18.9576 11.8241C19.1487 11.8236 19.3398 11.8229 19.5309 11.8221C20.0509 11.8204 20.5708 11.8204 21.0908 11.8207C21.5244 11.8208 21.9579 11.8202 22.3915 11.8196C23.4142 11.8182 24.4369 11.8181 25.4595 11.8189C26.5156 11.8197 27.5716 11.8181 28.6277 11.8154C29.5334 11.8131 30.4392 11.8124 31.3449 11.8128C31.8863 11.813 32.4276 11.8127 32.969 11.8109C33.4781 11.8093 33.9871 11.8096 34.4961 11.8112C34.6832 11.8115 34.8702 11.8112 35.0573 11.8101C35.3122 11.8088 35.5671 11.8101 35.822 11.8114C35.9647 11.8114 36.1075 11.8114 36.2547 11.8114C36.6047 11.859 36.6047 11.859 36.8459 12.0239C36.9862 12.2405 36.9862 12.2405 36.9624 12.7015C36.9283 12.8431 36.8942 12.9847 36.8591 13.1307C36.5096 13.3054 36.2294 13.275 35.8381 13.2765C35.6746 13.2774 35.5111 13.2784 35.3426 13.2793C35.1604 13.2797 34.9782 13.28 34.7959 13.2803C34.6048 13.2811 34.4137 13.282 34.2226 13.2829C33.7027 13.2851 33.1827 13.2864 32.6628 13.2875C32.3382 13.2881 32.0136 13.2889 31.689 13.2897C30.6742 13.2921 29.6593 13.2939 28.6445 13.295C27.4716 13.2962 26.2988 13.2996 25.1259 13.3047C24.2202 13.3085 23.3144 13.3104 22.4087 13.3109C21.8673 13.3112 21.3259 13.3123 20.7845 13.3155C20.2755 13.3184 19.7665 13.319 19.2575 13.3177C19.0704 13.3176 18.8833 13.3184 18.6963 13.3202C18.4414 13.3224 18.1865 13.3212 17.9316 13.3198C17.7888 13.3201 17.646 13.3205 17.4989 13.3208C17.1488 13.2578 17.1488 13.2578 16.9077 13.0205C16.7673 12.7492 16.7673 12.7492 16.7912 12.4154C17.0053 11.7896 17.3121 11.827 17.9155 11.8259Z" fill="#215CFF"/>
<path d="M18.2224 14.751C18.3186 14.7505 18.4148 14.7501 18.5139 14.7496C18.832 14.7485 19.1501 14.7493 19.4682 14.7501C19.6891 14.75 19.91 14.7497 20.131 14.7494C20.594 14.749 21.0571 14.7496 21.5202 14.7507C22.1142 14.7522 22.7081 14.7514 23.3021 14.7498C23.7583 14.7489 24.2145 14.7492 24.6707 14.7499C24.8897 14.75 25.1087 14.7498 25.3278 14.7492C25.6337 14.7486 25.9396 14.7496 26.2456 14.751C26.3364 14.7505 26.4271 14.75 26.5207 14.7494C26.9858 14.7534 27.1765 14.7726 27.5748 15.0382C27.694 15.4038 27.694 15.4038 27.702 15.8012C27.5082 16.0763 27.5082 16.0763 27.1933 16.3099C26.8557 16.3601 26.5706 16.3795 26.2332 16.3757C26.0892 16.377 26.0892 16.377 25.9423 16.3784C25.6254 16.3806 25.3087 16.3791 24.9918 16.3774C24.7714 16.3778 24.551 16.3782 24.3305 16.3789C23.8687 16.3796 23.407 16.3785 22.9452 16.3762C22.3533 16.3733 21.7616 16.3749 21.1698 16.378C20.7146 16.3798 20.2595 16.3792 19.8044 16.3779C19.5862 16.3776 19.368 16.378 19.1498 16.3792C18.8447 16.3805 18.5399 16.3785 18.2348 16.3757C18.1447 16.3767 18.0546 16.3777 17.9617 16.3788C17.5339 16.3714 17.3073 16.3341 16.9598 16.0763C16.766 15.8012 16.766 15.8012 16.7739 15.4038C17.0128 14.6712 17.5629 14.7473 18.2224 14.751Z" fill="#215CFF"/>
<rect x="5.3584" y="19.7544" width="31.0254" height="28.1221" rx="3" stroke="#215CFF" stroke-width="2"/>
<line x1="15.4619" y1="20.8755" x2="15.4619" y2="46.8765" stroke="#215CFF" stroke-width="2"/>
<line x1="15.4619" y1="19.9077" x2="15.4619" y2="46.8765" stroke="#215CFF" stroke-width="2"/>
<line x1="25.2578" y1="19.9077" x2="25.2578" y2="46.8765" stroke="#215CFF" stroke-width="2"/>
<line x1="36.2305" y1="28.834" x2="5.68945" y2="28.834" stroke="#215CFF" stroke-width="2"/>
<line x1="36.2305" y1="38.6299" x2="5.68945" y2="38.6299" stroke="#215CFF" stroke-width="2"/>
<path fill-rule="evenodd" clip-rule="evenodd" d="M31.3096 35.2314H51.5244V47.8924H31.3096V35.2314Z" fill="white" stroke="#FF8303" stroke-width="1.19895" stroke-linecap="round" stroke-linejoin="round"/>
<path fill-rule="evenodd" clip-rule="evenodd" d="M34.9092 35.2314V47.8924V35.2314Z" fill="white"/>
<path d="M34.9092 35.2314V47.8924" stroke="#FF8303" stroke-width="1.19895" stroke-linecap="round" stroke-linejoin="round"/>
<path fill-rule="evenodd" clip-rule="evenodd" d="M38.5059 35.2314V47.8924V35.2314Z" fill="white"/>
<path d="M38.5059 35.2314V47.8924" stroke="#FF8303" stroke-width="1.19895" stroke-linecap="round" stroke-linejoin="round"/>
<path fill-rule="evenodd" clip-rule="evenodd" d="M44.501 35.2314V47.8938V35.2314Z" fill="white"/>
<path d="M44.501 35.2314V47.8938" stroke="#FF8303" stroke-width="1.19895" stroke-linecap="round" stroke-linejoin="round"/>
<path fill-rule="evenodd" clip-rule="evenodd" d="M48.0977 35.2314V47.8278V35.2314Z" fill="white"/>
<path d="M48.0977 35.2314V47.8278" stroke="#FF8303" stroke-width="1.19895" stroke-linecap="round" stroke-linejoin="round"/>
<path fill-rule="evenodd" clip-rule="evenodd" d="M53.9341 32.2266C54.0243 31.9665 53.9109 31.6814 53.6631 31.5452L41.7982 25.0317C41.6128 24.9289 41.3842 24.9289 41.1988 25.0317L29.3291 31.5406C29.0813 31.6768 28.9679 31.9619 29.0582 32.222L29.9742 34.8382C30.0557 35.0731 30.2845 35.2316 30.5425 35.2318H52.4593C52.7172 35.2316 52.9461 35.0731 53.0276 34.8382L53.9341 32.2266Z" fill="white" stroke="#FF8303" stroke-width="1.19895" stroke-linecap="round" stroke-linejoin="round"/>
<path fill-rule="evenodd" clip-rule="evenodd" d="M28.2398 50.7155C28.1436 50.9545 28.2645 51.2164 28.5286 51.3415L40.8555 51.3414L54.4616 51.3457C54.7257 51.2206 54.8466 50.9587 54.7504 50.7197L53.7742 48.3164C53.6873 48.1006 53.4434 47.9549 53.1685 47.9548H29.8115C29.5366 47.9549 29.2927 48.1006 29.2058 48.3164L28.2398 50.7155Z" fill="white" stroke="#FF8303" stroke-width="1.19895" stroke-linecap="round" stroke-linejoin="round"/>
<path fill-rule="evenodd" clip-rule="evenodd" d="M53.89 31.7788H29.1064H53.89Z" fill="white"/>
<path d="M53.89 31.7788H29.1064" stroke="#FF8303" stroke-width="1.19895" stroke-linecap="round" stroke-linejoin="round"/>
</svg>
