<svg width="50" height="50" viewBox="0 0 50 50" fill="none" xmlns="http://www.w3.org/2000/svg">
<path d="M1.7549 1.7324C1.88137 1.73125 2.00785 1.7301 2.13815 1.72891C2.27761 1.73004 2.41707 1.73117 2.56076 1.73233C2.70851 1.73168 2.85625 1.73103 3.00847 1.73036C3.41939 1.72862 3.83025 1.72983 4.24116 1.7315C4.68399 1.73281 5.12681 1.73141 5.56963 1.73035C6.43744 1.72871 7.30524 1.7296 8.17305 1.73137C9.18297 1.73334 10.1929 1.73297 11.2028 1.73253C13.0044 1.73184 14.806 1.73351 16.6075 1.7364C18.357 1.73921 20.1064 1.74004 21.8558 1.73881C23.7594 1.73747 25.6629 1.73724 27.5665 1.73894C27.7693 1.73912 27.9722 1.73929 28.175 1.73947C28.3248 1.73961 28.3248 1.73961 28.4775 1.73974C29.182 1.7403 29.8865 1.74008 30.591 1.73958C31.4492 1.739 32.3074 1.7397 33.1655 1.74204C33.6037 1.7432 34.0418 1.74379 34.4799 1.74287C34.9541 1.74189 35.4283 1.74363 35.9026 1.74566C36.042 1.74496 36.1815 1.74425 36.3252 1.74352C36.4517 1.74451 36.5781 1.7455 36.7084 1.74653C36.8728 1.74671 36.8728 1.74671 37.0404 1.74689C37.3686 1.7997 37.4737 1.87754 37.6679 2.14347C37.7113 2.45641 37.7113 2.45641 37.7103 2.84117C37.711 3.05976 37.711 3.05976 37.7118 3.28277C37.7105 3.44453 37.7092 3.6063 37.7079 3.76806C37.7078 3.93818 37.7079 4.1083 37.7081 4.27842C37.7082 4.74059 37.7061 5.20272 37.7037 5.66489C37.7015 6.14775 37.7013 6.63061 37.7008 7.11348C37.6997 8.028 37.6968 8.94251 37.6933 9.85703C37.6894 10.8981 37.6874 11.9392 37.6857 12.9803C37.682 15.122 37.6758 17.2637 37.6679 19.4055C37.7599 19.4412 37.8518 19.4769 37.9466 19.5136C38.2433 19.6355 38.4709 19.7713 38.7312 19.9568C38.8664 20.0524 38.8664 20.0524 39.0044 20.1499C39.101 20.2191 39.1977 20.2883 39.2973 20.3596C39.5085 20.5092 39.7198 20.6587 39.9312 20.8082C40.0414 20.8863 40.1515 20.9645 40.265 21.045C40.8257 21.4412 41.39 21.8323 41.9541 22.2237C42.9113 22.8889 43.8667 23.5565 44.821 24.2258C45.431 24.6532 46.0438 25.0764 46.6586 25.4971C48.7806 26.9523 48.7806 26.9523 48.9411 27.2732C48.9758 27.7373 48.9737 28.2024 48.9778 28.6676C48.9812 28.797 48.9846 28.9265 48.9881 29.0598C48.9891 29.1844 48.9901 29.309 48.9911 29.4373C48.9936 29.6085 48.9936 29.6085 48.9963 29.7831C48.9411 30.0914 48.9411 30.0914 48.4714 30.5612C47.8901 30.5612 47.3088 30.5612 46.7099 30.5612C46.7099 34.1263 46.7099 37.6914 46.7099 41.3646C47.2912 41.3646 47.8725 41.3646 48.4714 41.3646C48.9411 41.8343 48.9411 41.8343 49 42.1389C48.9998 42.2515 48.9996 42.3641 48.9993 42.4801C48.9994 42.6037 48.9995 42.7272 48.9996 42.8545C48.9972 42.9828 48.9949 43.1112 48.9924 43.2434C48.9933 43.3718 48.9941 43.5002 48.995 43.6324C48.9877 44.5501 48.9877 44.5501 48.8271 44.9031C48.4515 45.2485 48.0304 45.1837 47.5463 45.1756C47.4397 45.1757 47.3332 45.1758 47.2234 45.1758C46.8707 45.1755 46.5181 45.1718 46.1654 45.1682C45.9211 45.1673 45.6768 45.1666 45.4324 45.1661C44.789 45.1644 44.1455 45.1597 43.5021 45.1545C42.8457 45.1497 42.1892 45.1476 41.5328 45.1452C40.2445 45.1402 38.9562 45.1322 37.6679 45.1223C37.6698 45.22 37.6716 45.3178 37.6735 45.4185C37.6795 45.7816 37.684 46.1446 37.6873 46.5077C37.6899 46.742 37.6944 46.9763 37.6989 47.2105C37.7 47.3578 37.7012 47.505 37.7023 47.6566C37.7042 47.7925 37.706 47.9284 37.7079 48.0685C37.6679 48.4103 37.6679 48.4103 37.5272 48.605C37.2425 48.817 37.0619 48.8068 36.7084 48.8072C36.582 48.8082 36.4555 48.8092 36.3252 48.8102C36.116 48.8092 36.116 48.8092 35.9026 48.8081C35.681 48.809 35.681 48.809 35.4549 48.81C35.044 48.8117 34.6331 48.8112 34.2222 48.8103C33.7794 48.8098 33.3365 48.8113 32.8937 48.8125C32.0259 48.8145 31.1581 48.8146 30.2903 48.814C29.5852 48.8135 28.8801 48.8137 28.175 48.8143C28.0247 48.8144 28.0247 48.8144 27.8713 48.8146C27.6677 48.8147 27.4641 48.8149 27.2605 48.8151C25.35 48.8167 23.4395 48.8161 21.5289 48.8147C19.7796 48.8136 18.0303 48.8151 16.281 48.8179C14.4863 48.8207 12.6916 48.8219 10.8969 48.8211C9.88869 48.8207 8.88052 48.821 7.87233 48.823C7.01415 48.8247 6.15599 48.8248 5.29781 48.8228C4.85968 48.8218 4.42158 48.8215 3.98345 48.8233C3.50919 48.8252 3.03502 48.8235 2.56076 48.8214C2.4213 48.8226 2.28184 48.8237 2.13815 48.8248C2.01168 48.8237 1.88521 48.8225 1.7549 48.8214C1.59058 48.8213 1.59058 48.8213 1.42295 48.8213C1.14769 48.7626 1.14769 48.7626 0.936367 48.5725C0.750542 48.2039 0.751242 47.9303 0.751072 47.5175C0.75056 47.4394 0.750048 47.3612 0.749521 47.2807C0.748231 47.0178 0.74946 46.7549 0.75067 46.492C0.750264 46.302 0.749705 46.1121 0.749005 45.9222C0.74753 45.3993 0.748263 44.8764 0.749352 44.3535C0.750147 43.79 0.74892 43.2265 0.74795 42.6629C0.746381 41.5586 0.746723 40.4543 0.747743 39.35C0.748538 38.4527 0.748647 37.5554 0.748263 36.6582C0.748209 36.5306 0.748155 36.403 0.7481 36.2716C0.747987 36.0125 0.747873 35.7534 0.747757 35.4943C0.746752 33.063 0.747909 30.6316 0.7498 28.2003C0.751374 26.1127 0.751101 24.0251 0.749477 21.9375C0.747593 19.515 0.746848 17.0926 0.747931 14.6701C0.748043 14.4119 0.748154 14.1538 0.748263 13.8956C0.748317 13.7686 0.748372 13.6415 0.748428 13.5107C0.748732 12.6142 0.748218 11.7176 0.74739 10.8211C0.746403 9.72905 0.746666 8.63696 0.748545 7.54487C0.749473 6.98735 0.74983 6.42984 0.748669 5.87231C0.747623 5.36238 0.74819 4.85248 0.75007 4.34256C0.750465 4.15765 0.75026 3.97274 0.749409 3.78783C0.748345 3.53728 0.74943 3.28683 0.751072 3.03628C0.75113 2.89688 0.751187 2.75748 0.751246 2.61386C0.835913 1.93712 1.08701 1.73248 1.7549 1.7324ZM2.20455 3.20033C2.20455 17.7709 2.20455 32.3414 2.20455 47.3534C13.4424 47.3534 24.6804 47.3534 36.2588 47.3534C36.2588 46.6172 36.2588 45.8809 36.2588 45.1223C35.7644 45.1197 35.7644 45.1197 35.26 45.1171C34.1731 45.1112 33.0862 45.1034 31.9993 45.0946C31.34 45.0893 30.6808 45.0847 30.0216 45.0816C29.3858 45.0786 28.75 45.0738 28.1143 45.0679C27.8713 45.0659 27.6283 45.0646 27.3853 45.0639C27.0459 45.0627 26.7065 45.0594 26.3671 45.0556C26.2658 45.0558 26.1646 45.056 26.0602 45.0561C25.7808 45.0517 25.7808 45.0517 25.338 45.0049C25.0884 44.6305 25.0441 44.3866 24.9857 43.948C24.8867 43.9477 24.7878 43.9474 24.6859 43.9472C22.2809 43.9402 19.876 43.9314 17.471 43.9203C16.308 43.915 15.145 43.9104 13.982 43.9073C12.9685 43.9046 11.9551 43.9007 10.9417 43.8953C10.4048 43.8925 9.86803 43.8903 9.3312 43.8896C8.82624 43.8889 8.32131 43.8865 7.81635 43.8829C7.63074 43.8819 7.44513 43.8815 7.25951 43.8817C7.00659 43.8819 6.75378 43.8799 6.50088 43.8774C6.35919 43.8769 6.2175 43.8763 6.07151 43.8758C5.7274 43.8306 5.7274 43.8306 5.50566 43.712C5.29342 43.3321 5.32726 42.9348 5.33117 42.511C5.3307 42.4112 5.33024 42.3114 5.32976 42.2086C5.32862 41.873 5.33002 41.5374 5.33139 41.2017C5.33111 40.9616 5.33067 40.7215 5.3301 40.4814C5.32899 39.8283 5.3301 39.1752 5.33166 38.522C5.33299 37.8395 5.33251 37.157 5.33228 36.4745C5.33217 35.3282 5.33348 34.1818 5.33564 33.0355C5.33812 31.709 5.33853 30.3825 5.3378 29.0559C5.33713 27.7814 5.3378 26.5069 5.33911 25.2325C5.33966 24.6893 5.33976 24.1462 5.33952 23.6031C5.33929 22.9639 5.34024 22.3247 5.34211 21.6854C5.34261 21.4504 5.3427 21.2154 5.34238 20.9803C5.342 20.6603 5.34306 20.3404 5.3445 20.0204C5.34406 19.9267 5.34361 19.8329 5.34316 19.7363C5.34674 19.289 5.35574 19.0822 5.60997 18.7009C5.97136 18.6658 6.30918 18.654 6.6709 18.6569C6.78218 18.6565 6.89347 18.656 7.00813 18.6555C7.38336 18.6544 7.75854 18.6558 8.13377 18.6572C8.40182 18.6569 8.66988 18.6564 8.93794 18.6559C9.66773 18.6548 10.3975 18.6559 11.1273 18.6574C11.8895 18.6588 12.6517 18.6583 13.4139 18.658C14.6941 18.6579 15.9742 18.6592 17.2544 18.6614C18.5726 18.6636 19.8908 18.6645 21.2089 18.6638C22.7959 18.663 24.3829 18.6634 25.9699 18.6649C26.5767 18.6654 27.1835 18.6655 27.7904 18.6653C28.5044 18.6651 29.2184 18.666 29.9324 18.6679C30.1951 18.6684 30.4578 18.6685 30.7206 18.6681C31.0779 18.6678 31.4351 18.6688 31.7924 18.6703C31.8976 18.6698 32.0028 18.6694 32.1111 18.6689C32.8266 18.6741 32.8266 18.6741 33.0882 18.9357C33.1257 19.1888 33.1257 19.1888 33.1369 19.4981C33.1414 19.6086 33.1459 19.7191 33.1506 19.833C33.1542 19.9486 33.1579 20.0643 33.1616 20.1834C33.1662 20.3 33.1707 20.4165 33.1754 20.5366C33.1865 20.825 33.1965 21.1133 33.2057 21.4017C34.2364 20.7546 35.2456 20.0809 36.2588 19.4055C36.2588 14.0578 36.2588 8.71007 36.2588 3.20033C25.0209 3.20033 13.783 3.20033 2.20455 3.20033ZM6.66683 19.9926C6.66683 20.3414 6.66683 20.6901 6.66683 21.0495C8.41064 21.0495 10.1545 21.0495 11.9511 21.0495C11.9511 20.7007 11.9511 20.3519 11.9511 19.9926C10.2073 19.9926 8.46348 19.9926 6.66683 19.9926ZM13.3602 19.9926C13.3602 20.3414 13.3602 20.6901 13.3602 21.0495C15.0653 21.0495 16.7704 21.0495 18.5271 21.0495C18.5271 20.7007 18.5271 20.3519 18.5271 19.9926C16.822 19.9926 15.117 19.9926 13.3602 19.9926ZM19.9362 19.9926C19.9362 20.3414 19.9362 20.6901 19.9362 21.0495C23.8501 21.0495 27.764 21.0495 31.7965 21.0495C31.7965 20.7007 31.7965 20.3519 31.7965 19.9926C27.8826 19.9926 23.9687 19.9926 19.9362 19.9926ZM35.9799 21.1816C35.7971 21.3122 35.6142 21.4428 35.4313 21.5733C35.3356 21.6418 35.2398 21.7104 35.1412 21.781C34.6693 22.1175 34.1944 22.4496 33.7194 22.7815C33.6227 22.8492 33.5259 22.9168 33.4263 22.9865C33.2241 23.1278 33.0219 23.2691 32.8196 23.4104C32.6003 23.5636 32.3811 23.7168 32.1619 23.87C29.6673 25.6139 29.6673 25.6139 28.5276 26.3538C28.3628 26.4617 28.2005 26.5734 28.0388 26.686C28.0388 26.7248 28.0388 26.7635 28.0388 26.8034C33.929 26.8034 39.8192 26.8034 45.8879 26.8034C45.4014 26.4134 45.4014 26.4134 44.9017 26.0457C44.7904 25.9672 44.7904 25.9672 44.6769 25.8871C44.597 25.831 44.5171 25.775 44.4348 25.7172C44.3486 25.6566 44.2625 25.5961 44.1738 25.5336C42.987 24.6998 41.795 23.8732 40.6036 23.0457C40.1143 22.7058 39.625 22.3657 39.1358 22.0256C38.9687 21.9095 38.9687 21.9095 38.7981 21.7911C38.6928 21.7178 38.5875 21.6446 38.4789 21.5692C38.3801 21.5005 38.2812 21.4319 38.1794 21.3612C37.9269 21.1838 37.678 21.0023 37.4294 20.8196C36.8013 20.3874 36.5268 20.7862 35.9799 21.1816ZM6.66683 22.4586C6.66683 23.7761 6.66683 25.0937 6.66683 26.4512C8.41064 26.4512 10.1545 26.4512 11.9511 26.4512C11.9511 25.1336 11.9511 23.8161 11.9511 22.4586C10.2073 22.4586 8.46348 22.4586 6.66683 22.4586ZM13.3602 22.4586C13.3602 23.7761 13.3602 25.0937 13.3602 26.4512C15.0653 26.4512 16.7704 26.4512 18.5271 26.4512C18.5271 25.1336 18.5271 23.8161 18.5271 22.4586C16.822 22.4586 15.117 22.4586 13.3602 22.4586ZM19.9362 22.4586C19.9362 23.7761 19.9362 25.0937 19.9362 26.4512C20.7721 26.4811 21.606 26.5067 22.4419 26.5221C22.7253 26.5286 23.0087 26.5373 23.2919 26.5486C25.1051 26.6189 26.3412 26.5577 27.7274 25.3272C28.02 25.0742 28.338 24.8629 28.6585 24.6471C28.9928 24.414 29.3269 24.1807 29.661 23.9473C30.2661 23.5255 30.8742 23.1106 31.4936 22.7099C31.5548 22.6657 31.616 22.6215 31.6791 22.576C31.6791 22.5373 31.6791 22.4985 31.6791 22.4586C27.804 22.4586 23.9288 22.4586 19.9362 22.4586ZM6.66683 27.8603C6.66683 29.1779 6.66683 30.4954 6.66683 31.8529C8.41064 31.8529 10.1545 31.8529 11.9511 31.8529C11.9511 30.5353 11.9511 29.2178 11.9511 27.8603C10.2073 27.8603 8.46348 27.8603 6.66683 27.8603ZM13.3602 27.8603C13.3602 29.1779 13.3602 30.4954 13.3602 31.8529C15.0653 31.8529 16.7704 31.8529 18.5271 31.8529C18.5271 30.5353 18.5271 29.2178 18.5271 27.8603C16.822 27.8603 15.117 27.8603 13.3602 27.8603ZM19.9362 27.8603C19.9362 29.1779 19.9362 30.4954 19.9362 31.8529C22.3388 31.8529 24.7414 31.8529 27.2168 31.8529C27.2168 31.4266 27.2168 31.0003 27.2168 30.5612C27.0937 30.5568 26.9707 30.5524 26.8439 30.5479C26.682 30.5401 26.52 30.5323 26.3581 30.5245C26.2771 30.5218 26.196 30.5192 26.1125 30.5164C25.6001 30.4892 25.4822 30.4705 25.1031 30.0914C25.0643 29.3552 25.0256 28.6189 24.9857 27.8603C23.3194 27.8603 21.653 27.8603 19.9362 27.8603ZM26.3948 28.2126C26.3948 28.5226 26.3948 28.8326 26.3948 29.152C33.3701 29.152 40.3453 29.152 47.5319 29.152C47.5319 28.842 47.5319 28.532 47.5319 28.2126C40.5567 28.2126 33.5814 28.2126 26.3948 28.2126ZM28.6259 30.5612C28.6259 34.1263 28.6259 37.6914 28.6259 41.3646C29.6722 41.3646 30.7185 41.3646 31.7965 41.3646C31.7965 37.7995 31.7965 34.2343 31.7965 30.5612C30.7502 30.5612 29.7039 30.5612 28.6259 30.5612ZM33.2057 30.5612C33.2057 34.1263 33.2057 37.6914 33.2057 41.3646C35.6857 41.3646 38.1658 41.3646 40.7211 41.3646C40.7211 37.7995 40.7211 34.2343 40.7211 30.5612C38.241 30.5612 35.7609 30.5612 33.2057 30.5612ZM42.1302 30.5612C42.1302 34.1263 42.1302 37.6914 42.1302 41.3646C43.1765 41.3646 44.2228 41.3646 45.3008 41.3646C45.3008 37.7995 45.3008 34.2343 45.3008 30.5612C44.2545 30.5612 43.2082 30.5612 42.1302 30.5612ZM6.66683 33.1446C6.66683 34.4621 6.66683 35.7797 6.66683 37.1372C8.41064 37.1372 10.1545 37.1372 11.9511 37.1372C11.9511 35.8196 11.9511 34.5021 11.9511 33.1446C10.2073 33.1446 8.46348 33.1446 6.66683 33.1446ZM13.3602 33.1446C13.3602 34.4621 13.3602 35.7797 13.3602 37.1372C15.0653 37.1372 16.7704 37.1372 18.5271 37.1372C18.5271 35.8196 18.5271 34.5021 18.5271 33.1446C16.822 33.1446 15.117 33.1446 13.3602 33.1446ZM19.9362 33.1446C19.9362 34.4621 19.9362 35.7797 19.9362 37.1372C22.3388 37.1372 24.7414 37.1372 27.2168 37.1372C27.2168 35.8196 27.2168 34.5021 27.2168 33.1446C24.8142 33.1446 22.4116 33.1446 19.9362 33.1446ZM6.66683 38.5463C6.66683 39.8638 6.66683 41.1814 6.66683 42.5389C8.41064 42.5389 10.1545 42.5389 11.9511 42.5389C11.9511 41.2213 11.9511 39.9038 11.9511 38.5463C10.2073 38.5463 8.46348 38.5463 6.66683 38.5463ZM13.3602 38.5463C13.3602 39.8638 13.3602 41.1814 13.3602 42.5389C15.0653 42.5389 16.7704 42.5389 18.5271 42.5389C18.5271 41.2213 18.5271 39.9038 18.5271 38.5463C16.822 38.5463 15.117 38.5463 13.3602 38.5463ZM19.9362 38.5463C19.9362 39.8638 19.9362 41.1814 19.9362 42.5389C21.6026 42.5389 23.2689 42.5389 24.9857 42.5389C25.0632 42.2289 25.1407 41.9188 25.2205 41.5994C25.5776 41.4209 25.9582 41.4381 26.3508 41.416C26.7795 41.3905 26.7795 41.3905 27.2168 41.3646C27.2168 40.4345 27.2168 39.5045 27.2168 38.5463C24.8142 38.5463 22.4116 38.5463 19.9362 38.5463ZM26.3948 42.7737C26.3948 43.0837 26.3948 43.3937 26.3948 43.7131C33.3701 43.7131 40.3453 43.7131 47.5319 43.7131C47.5319 43.4031 47.5319 43.0931 47.5319 42.7737C40.5567 42.7737 33.5814 42.7737 26.3948 42.7737Z" fill="#111111"/>
<path d="M15.7164 7.96921C15.8654 7.96805 16.0144 7.96689 16.1679 7.96569C16.3334 7.96619 16.4988 7.96672 16.6643 7.96729C16.8383 7.96662 17.0123 7.9658 17.1862 7.96485C17.6591 7.96274 18.132 7.96288 18.6048 7.96355C18.9994 7.96391 19.3939 7.9632 19.7885 7.96249C20.7192 7.96084 21.6499 7.96102 22.5806 7.96236C23.5412 7.96371 24.5018 7.96205 25.4624 7.95891C26.2868 7.95631 27.1111 7.95553 27.9354 7.95622C28.428 7.95661 28.9205 7.95632 29.413 7.95431C29.8761 7.95249 30.3392 7.95295 30.8024 7.95517C30.9724 7.9556 31.1424 7.95523 31.3125 7.954C31.5445 7.95246 31.7765 7.95409 32.0084 7.95588C32.1383 7.95591 32.2682 7.95593 32.402 7.95596C32.814 8.02853 32.953 8.15683 33.2054 8.48445C33.2624 8.81799 33.2673 8.98353 33.0712 9.26278C32.7564 9.49536 32.5201 9.46856 32.1311 9.4694C31.9799 9.47057 31.8288 9.47173 31.6731 9.47293C31.5052 9.47243 31.3373 9.4719 31.1695 9.47133C30.993 9.472 30.8165 9.47281 30.64 9.47377C30.1604 9.47588 29.6807 9.47574 29.2011 9.47507C28.801 9.4747 28.4009 9.47542 28.0007 9.47613C27.0571 9.47778 26.1134 9.47759 25.1698 9.47626C24.1954 9.47491 23.2211 9.47656 22.2468 9.47971C21.4108 9.48231 20.5749 9.48309 19.739 9.4824C19.2395 9.482 18.74 9.48229 18.2404 9.48431C17.7708 9.48612 17.3013 9.48567 16.8317 9.48345C16.6591 9.48302 16.4866 9.48339 16.314 9.48461C16.0789 9.48615 15.8438 9.48453 15.6087 9.48274C15.4111 9.4827 15.4111 9.4827 15.2096 9.48266C14.8866 9.42388 14.8866 9.42388 14.6644 9.20415C14.5343 8.95417 14.5343 8.95417 14.549 8.65326C14.7739 8.02683 15.0773 7.97062 15.7164 7.96921Z" fill="#111111"/>
<path d="M15.5956 10.8025C15.7466 10.8017 15.8976 10.8008 16.0531 10.8C16.2214 10.8003 16.3897 10.8005 16.558 10.8009C16.7344 10.8004 16.9109 10.7997 17.0874 10.799C17.5675 10.7975 18.0477 10.7974 18.5278 10.7977C18.9282 10.7978 19.3286 10.7973 19.729 10.7967C20.6734 10.7954 21.6178 10.7953 22.5621 10.7961C23.5374 10.7968 24.5125 10.7953 25.4878 10.7928C26.3242 10.7907 27.1606 10.79 27.997 10.7904C28.4969 10.7906 28.9969 10.7903 29.4968 10.7887C29.9669 10.7872 30.4369 10.7874 30.907 10.789C31.0797 10.7893 31.2524 10.7889 31.4252 10.788C31.6606 10.7867 31.8959 10.7879 32.1313 10.7892C32.2632 10.7892 32.395 10.7891 32.5309 10.7891C32.8542 10.8331 32.8542 10.8331 33.0769 10.9854C33.2065 11.1854 33.2065 11.1854 33.1845 11.6111C33.153 11.7419 33.1215 11.8727 33.089 12.0074C32.7663 12.1688 32.5076 12.1407 32.1462 12.1421C31.9952 12.143 31.8443 12.1438 31.6887 12.1447C31.5204 12.145 31.3521 12.1453 31.1838 12.1456C31.0074 12.1464 30.8309 12.1471 30.6544 12.148C30.1743 12.15 29.6941 12.1512 29.214 12.1522C28.9143 12.1528 28.6145 12.1535 28.3148 12.1543C27.3776 12.1565 26.4404 12.1582 25.5033 12.1592C24.4202 12.1603 23.3371 12.1634 22.2541 12.1681C21.4176 12.1717 20.5812 12.1734 19.7448 12.1738C19.2449 12.1741 18.745 12.1751 18.245 12.1781C17.775 12.1808 17.3049 12.1813 16.8348 12.1801C16.6621 12.1801 16.4894 12.1808 16.3166 12.1824C16.0813 12.1845 15.8459 12.1834 15.6105 12.1821C15.4786 12.1824 15.3468 12.1827 15.2109 12.183C14.8876 12.1248 14.8876 12.1248 14.6649 11.9057C14.5353 11.6551 14.5353 11.6551 14.5574 11.3469C14.755 10.769 15.0384 10.8035 15.5956 10.8025Z" fill="#111111"/>
<path d="M15.8786 13.5037C15.9674 13.5032 16.0562 13.5028 16.1477 13.5024C16.4415 13.5014 16.7352 13.5021 17.029 13.5029C17.233 13.5027 17.437 13.5025 17.641 13.5022C18.0687 13.5018 18.4963 13.5023 18.9239 13.5034C19.4724 13.5048 20.0209 13.504 20.5694 13.5026C20.9907 13.5017 21.412 13.502 21.8332 13.5026C22.0355 13.5028 22.2378 13.5026 22.44 13.502C22.7226 13.5014 23.005 13.5023 23.2876 13.5037C23.3714 13.5032 23.4552 13.5027 23.5416 13.5022C23.9712 13.5059 24.1472 13.5236 24.5151 13.7689C24.6252 14.1065 24.6252 14.1065 24.6325 14.4735C24.4535 14.7275 24.4535 14.7275 24.1628 14.9432C23.8509 14.9896 23.5877 15.0075 23.2761 15.004C23.1431 15.0052 23.1431 15.0052 23.0075 15.0065C22.7149 15.0085 22.4224 15.0072 22.1298 15.0056C21.9262 15.0059 21.7227 15.0063 21.5191 15.0069C21.0927 15.0076 20.6663 15.0066 20.2398 15.0044C19.6933 15.0017 19.1469 15.0033 18.6003 15.0061C18.18 15.0078 17.7598 15.0073 17.3395 15.006C17.138 15.0057 16.9365 15.0061 16.735 15.0072C16.4533 15.0084 16.1717 15.0066 15.89 15.004C15.8068 15.0049 15.7236 15.0059 15.6379 15.0068C15.2428 15.0001 15.0335 14.9656 14.7126 14.7275C14.5337 14.4735 14.5337 14.4735 14.541 14.1065C14.7616 13.43 15.2696 13.5002 15.8786 13.5037Z" fill="#111111"/>
<path d="M12.6658 11.5149H11.4372V10.2329H12.6658C12.8504 10.2329 13 10.0705 13 9.87006C13 9.66956 12.8504 9.50714 12.6658 9.50714H11.4372V7.72822C11.4372 7.46855 11.3899 7.27795 11.2968 7.16185C11.2082 7.0514 11.0918 7 10.9306 7C10.7768 7 10.6648 7.05104 10.5779 7.1608C10.4859 7.27702 10.4391 7.46798 10.4391 7.72834V9.50736H8.12815L7.14554 7.89287C7.06145 7.74878 6.98238 7.61381 6.90559 7.48426C6.83646 7.36759 6.76903 7.27259 6.70534 7.20166C6.64896 7.13887 6.5847 7.09027 6.50955 7.05291C6.43864 7.01776 6.34849 7.00012 6.24183 7.00012C6.10579 7.00012 5.98231 7.04058 5.86407 7.12372C5.74706 7.20596 5.66617 7.30763 5.61677 7.43456C5.57341 7.55519 5.55047 7.74004 5.55047 7.97864V9.50724H4.33411C4.14955 9.50726 4 9.66968 4 9.87016C4 10.0706 4.14955 10.233 4.33413 10.233H5.55048V11.5152H4.33413C4.14955 11.5152 4 11.6775 4 11.8781C4 12.0785 4.14955 12.2408 4.33413 12.2408H5.55048V14.2718C5.55048 14.5238 5.59925 14.7125 5.69584 14.8324C5.7877 14.9467 5.90416 14.9998 6.06232 14.9998C6.21492 14.9998 6.33048 14.9465 6.42631 14.8319C6.52444 14.7146 6.57407 14.5261 6.57407 14.2719V12.2408H8.66525L9.79689 14.1249C9.87558 14.2495 9.95683 14.3752 10.0379 14.4985C10.111 14.6092 10.1907 14.7067 10.2749 14.7882C10.3507 14.8618 10.4319 14.9158 10.5164 14.9488C10.6033 14.9828 10.7049 15 10.8177 15C11.1237 15 11.4372 14.8983 11.4372 14.1438V12.2408H12.6657C12.8503 12.2408 13 12.0783 13 11.8778C13 11.6774 12.8504 11.5149 12.6658 11.5149ZM10.4391 10.2328V11.5149H9.35023L8.57002 10.2328H10.4391ZM6.57409 8.75972L7.02313 9.50714H6.57409V8.75972ZM6.57409 11.5149V10.2329H7.45914L8.22929 11.5149H6.57409ZM10.4391 13.3044L9.79198 12.2408H10.4391V13.3044Z" fill="black"/>
</svg>
