<svg width="40" height="40" viewBox="0 0 40 40" fill="none" xmlns="http://www.w3.org/2000/svg">
<path d="M21.4168 35.0508C21.4168 35.3789 21.1511 35.6438 20.8238 35.6438H19.1747C18.8466 35.6438 18.5817 35.3781 18.5817 35.0508C18.5817 34.7235 18.8474 34.4578 19.1747 34.4578H20.8238C21.1511 34.4578 21.4168 34.7235 21.4168 35.0508ZM15.2151 5.54219H24.7834C25.1114 5.54219 25.3764 5.27648 25.3764 4.94918C25.3764 4.62187 25.1107 4.35617 24.7834 4.35617H15.2151C14.8871 4.35617 14.6221 4.62187 14.6221 4.94918C14.6221 5.27648 14.8871 5.54219 15.2151 5.54219ZM19.9992 13.6068C23.5246 13.6068 26.3932 16.4746 26.3932 20C26.3932 23.5254 23.5254 26.3939 19.9992 26.3939C16.4731 26.3939 13.6053 23.5254 13.6053 20C13.6053 16.4746 16.4739 13.6068 19.9992 13.6068ZM19.9992 14.7928C17.1277 14.7928 14.7921 17.1285 14.7921 20C14.7921 22.8715 17.1277 25.2072 19.9992 25.2072C22.8708 25.2072 25.2064 22.8715 25.2064 20C25.2057 17.1292 22.87 14.7928 19.9992 14.7928ZM36.8306 11.2088L33.7676 14.4002C33.651 14.5219 33.4952 14.5828 33.3393 14.5828C33.1916 14.5828 33.0439 14.5279 32.9289 14.4173C32.6921 14.1902 32.6847 13.8146 32.9118 13.5786L35.0115 11.3914H31.1476V35.1035C31.1476 37.2521 29.3998 39 27.2512 39H12.7473C10.5987 39 8.85085 37.2521 8.85085 35.1035V29.7932H4.98925L7.08889 31.9804C7.316 32.2172 7.30784 32.5927 7.07182 32.8191C6.95678 32.9296 6.80909 32.9846 6.66139 32.9846C6.50553 32.9846 6.34968 32.9237 6.23315 32.802L3.17014 29.6106C2.94971 29.3812 2.94971 29.0183 3.17014 28.789L6.23315 25.5976C6.46026 25.3608 6.83581 25.3534 7.07182 25.5805C7.30858 25.8076 7.316 26.1832 7.08889 26.4192L4.98925 28.6064H8.85085V4.89648C8.85085 2.74785 10.5987 1 12.7473 1H27.2512C29.3998 1 31.1476 2.74785 31.1476 4.89648V10.2046H35.0115L32.9118 8.01738C32.6847 7.78063 32.6929 7.40508 32.9289 7.17871C33.1649 6.95234 33.5405 6.95977 33.7676 7.19578L36.8306 10.3872C37.051 10.6165 37.051 10.9795 36.8306 11.2088ZM29.9609 11.3914H22.5108C22.1828 11.3914 21.9178 11.1257 21.9178 10.7984C21.9178 10.4711 22.1835 10.2054 22.5108 10.2054H29.9601V4.89648C29.9601 3.40246 28.7444 2.18676 27.2504 2.18676H12.7473C11.2533 2.18676 10.0376 3.40246 10.0376 4.89648V28.6064H17.4877C17.8157 28.6064 18.0807 28.8721 18.0807 29.1994C18.0807 29.5267 17.815 29.7924 17.4877 29.7924H10.0376V35.1028C10.0376 36.5968 11.2533 37.8125 12.7473 37.8125H27.2512C28.7452 37.8125 29.9609 36.5968 29.9609 35.1028V11.3914Z" fill="url(#paint0_linear_165_1480)"/>
<path d="M21.4906 23C21.4054 23 21.328 22.9849 21.2608 22.9555C21.1939 22.9266 21.1299 22.8792 21.0708 22.8151C21.0113 22.7508 20.9547 22.6739 20.903 22.5863C20.8503 22.4969 20.7977 22.406 20.7468 22.3159L20.0489 21.0192H18.8673V22.3488C18.8673 22.5645 18.8261 22.7286 18.7449 22.8373C18.6629 22.9467 18.5606 22.9998 18.4323 22.9998C18.2995 22.9998 18.1964 22.9461 18.1168 22.8356C18.0374 22.7258 17.9972 22.562 17.9972 22.3488V21.0192H17.3209C17.1439 21.0192 17 20.8447 17 20.6303C17 20.4159 17.1439 20.2414 17.3209 20.2414H17.9972V19.5776H17.3209C17.1439 19.5777 17 19.4033 17 19.1889C17 18.9746 17.1439 18.8 17.3209 18.8H17.9972V17.8309C17.9972 17.6436 18.014 17.4964 18.0471 17.3936C18.0884 17.2747 18.1535 17.1828 18.2471 17.1094C18.3407 17.0358 18.4391 17 18.5477 17C18.6317 17 18.7045 17.0166 18.7638 17.0495C18.8247 17.0833 18.8763 17.1271 18.9217 17.1835C18.9678 17.2407 19.0156 17.3158 19.0637 17.4064C19.1132 17.4997 19.1642 17.5968 19.2184 17.7005L19.8179 18.8H21.1412V17.6512C21.1412 17.4326 21.1799 17.2675 21.256 17.1601C21.3323 17.0524 21.4329 17 21.5632 17C21.6979 17 21.8012 17.0525 21.8787 17.1604C21.9558 17.2677 21.9949 17.4329 21.9949 17.6512V18.8H22.6791C22.8561 18.8 23 18.9745 23 19.1889C23 19.4033 22.8561 19.5777 22.6791 19.5777H21.9949V20.2416H22.6791C22.8561 20.2416 23 20.4159 23 20.6305C23 20.8449 22.8561 21.0192 22.6791 21.0192H21.9949V22.2571C21.9949 22.757 21.83 23 21.4906 23ZM18.7614 20.7625H20.1063C20.142 20.7625 20.1754 20.7844 20.195 20.8207L20.923 22.1734C20.9715 22.2598 21.0236 22.3493 21.0752 22.437C21.1179 22.509 21.1639 22.5718 21.212 22.6238C21.2508 22.6659 21.2912 22.6962 21.3325 22.7141C21.377 22.7337 21.43 22.7435 21.4907 22.7435C21.614 22.7435 21.7832 22.7435 21.7832 22.2572V20.8908C21.7832 20.82 21.8307 20.7625 21.889 20.7625H22.6792C22.7394 20.7625 22.7883 20.7032 22.7883 20.6303C22.7883 20.5574 22.7394 20.4981 22.6792 20.4981H21.889C21.8305 20.4981 21.7831 20.4406 21.7831 20.3697V19.4494C21.7831 19.3785 21.8305 19.321 21.889 19.321H22.6791C22.7393 19.321 22.7882 19.2618 22.7882 19.1889C22.7882 19.116 22.7393 19.0567 22.6791 19.0567H21.889C21.8305 19.0567 21.7831 18.9992 21.7831 18.9284V17.6512C21.7831 17.4586 21.7482 17.3697 21.7188 17.3288C21.6932 17.2931 21.6547 17.2566 21.5632 17.2566C21.4946 17.2566 21.4522 17.2771 21.4166 17.3273C21.3878 17.3683 21.3532 17.4576 21.3532 17.6511V18.9283C21.3532 18.9991 21.3057 19.0566 21.2473 19.0566H19.7609C19.7253 19.0566 19.6921 19.035 19.6725 18.999L19.0406 17.84C18.9855 17.7348 18.9347 17.6382 18.8855 17.5454C18.8451 17.4692 18.8062 17.4077 18.77 17.3627C18.7432 17.3293 18.7125 17.3033 18.6758 17.283C18.6448 17.2658 18.6004 17.2566 18.5477 17.2566C18.4803 17.2566 18.4214 17.2783 18.3623 17.3247C18.3047 17.37 18.2668 17.4226 18.2432 17.4902C18.2311 17.5279 18.2089 17.6273 18.2089 17.8309V18.9283C18.2089 18.9991 18.1615 19.0566 18.103 19.0566H17.3209C17.2607 19.0567 17.2118 19.116 17.2118 19.1889C17.2118 19.2618 17.2607 19.321 17.3209 19.321H18.103C18.1615 19.321 18.2089 19.3785 18.2089 19.4494V20.3698C18.2089 20.4407 18.1615 20.4982 18.103 20.4982H17.3209C17.2607 20.4981 17.2118 20.5575 17.2118 20.6303C17.2118 20.7031 17.2607 20.7625 17.3209 20.7625H18.103C18.1615 20.7625 18.2089 20.82 18.2089 20.8908V22.3488C18.2089 22.4959 18.2322 22.6059 18.2762 22.6667C18.3148 22.7204 18.3614 22.7433 18.4323 22.7433C18.5003 22.7433 18.5467 22.7199 18.588 22.6648C18.6321 22.606 18.6555 22.4966 18.6555 22.3491V20.8908C18.6555 20.82 18.703 20.7625 18.7614 20.7625ZM21.2471 21.7828C21.2123 21.7828 21.1787 21.7618 21.1587 21.7251L20.7425 20.9615C20.7211 20.9221 20.7192 20.8715 20.7378 20.83C20.7563 20.7884 20.7922 20.7625 20.8309 20.7625H21.2471C21.3056 20.7625 21.353 20.82 21.353 20.8908V21.6544C21.353 21.7111 21.3222 21.7611 21.2776 21.7774C21.2675 21.781 21.2572 21.7828 21.2471 21.7828ZM21.0278 21.0192L21.1412 21.2273V21.0192H21.0278ZM21.2471 20.4981H20.5468C20.5112 20.4981 20.478 20.4764 20.4584 20.4405L19.9567 19.5201C19.9352 19.4806 19.9333 19.43 19.9518 19.3884C19.9703 19.3469 20.0061 19.3209 20.045 19.3209H21.2471C21.3056 19.3209 21.353 19.3784 21.353 19.4493V20.3697C21.353 20.4407 21.3056 20.4981 21.2471 20.4981ZM20.6038 20.2414H21.1412V19.5776H20.2419L20.6038 20.2414ZM19.8258 20.4981H18.7614C18.703 20.4981 18.6555 20.4406 18.6555 20.3697V19.4494C18.6555 19.3785 18.703 19.321 18.7614 19.321H19.3306C19.3663 19.321 19.3997 19.3429 19.4193 19.3793L19.9146 20.2997C19.9358 20.3392 19.9375 20.3895 19.919 20.4309C19.9005 20.4724 19.8647 20.4981 19.8258 20.4981ZM18.8673 20.2414H19.6304L19.2732 19.5776H18.8673V20.2414ZM19.0501 19.0568H18.7614C18.703 19.0568 18.6555 18.9993 18.6555 18.9284V18.3918C18.6555 18.335 18.6863 18.285 18.7312 18.2688C18.776 18.2527 18.8245 18.2741 18.8501 18.3217L19.1388 18.8583C19.1601 18.8977 19.1618 18.9481 19.1433 18.9895C19.1248 19.0309 19.089 19.0568 19.0501 19.0568Z" fill="#FF8303"/>
<defs>
<linearGradient id="paint0_linear_165_1480" x1="24.8933" y1="39" x2="28.8894" y2="-3.46288" gradientUnits="userSpaceOnUse">
<stop stop-color="#1D3FF0"/>
<stop offset="1" stop-color="#215CFF"/>
</linearGradient>
</defs>
</svg>
