<svg width="685" height="684" viewBox="0 0 685 684" fill="none" xmlns="http://www.w3.org/2000/svg">
<rect x="3.29983" y="3.08108" width="677.838" height="677.838" rx="338.919" stroke="white" stroke-width="6.16216"/>
<path d="M458.547 535.148C451.897 535.148 445.859 534.178 440.609 532.283C435.392 530.421 430.395 527.369 425.784 523.243C421.146 519.106 416.722 514.153 412.689 508.512C408.579 502.76 404.47 496.904 400.498 491.103L346.041 407.619H253.83V493.224C253.83 507.107 250.612 517.673 244.277 524.675C237.875 531.716 229.893 535.137 219.883 535.137C209.52 535.137 201.472 531.677 195.263 524.565C189.065 517.497 185.925 506.947 185.925 493.224V407.619H133.148C119.342 407.619 108.109 396.386 108.109 382.58C108.109 368.774 119.342 357.541 133.148 357.541H185.925V314.807H133.148C119.342 314.813 108.109 303.58 108.109 289.78C108.109 275.979 119.342 264.741 133.148 264.741H185.925V202.345C185.925 190.286 187.236 180.81 189.82 174.194C193.048 166.536 198.128 160.62 205.433 155.893C212.738 151.155 220.412 148.852 228.89 148.852C235.44 148.852 241.126 149.921 245.753 152.042C250.508 154.212 254.535 157.033 258.072 160.664C261.675 164.349 265.399 169.186 269.156 175.02C273.018 181.025 277.001 187.278 281.226 193.955L328.009 264.741H431.282V190.776C431.282 176.706 434.296 166.074 440.235 159.16C446.195 152.224 454.04 148.852 464.21 148.852C474.721 148.852 482.781 152.229 488.83 159.176C494.852 166.085 497.898 176.723 497.898 190.776V264.741H551.297C565.103 264.741 576.336 275.974 576.336 289.78C576.336 303.585 565.103 314.813 551.297 314.813H497.898V357.552H551.297C565.103 357.552 576.336 368.78 576.336 382.591C576.336 396.397 565.103 407.619 551.297 407.619H497.898V487.318C497.898 519.502 485.029 535.148 458.547 535.148ZM245.566 391.091H350.519C353.307 391.091 355.913 392.502 357.439 394.838L414.248 481.93C418.039 487.495 422.104 493.252 426.131 498.904C429.459 503.537 433.051 507.581 436.808 510.93C439.832 513.641 442.984 515.591 446.212 516.742C449.677 518.004 453.82 518.632 458.552 518.632C468.177 518.632 481.376 518.632 481.376 487.324V399.355C481.376 394.794 485.084 391.091 489.64 391.091H551.303C556.002 391.091 559.814 387.274 559.814 382.58C559.814 377.886 556.002 374.068 551.303 374.068H489.634C485.073 374.068 481.371 370.366 481.371 365.805V306.549C481.371 301.988 485.073 298.286 489.634 298.286H551.297C555.991 298.286 559.809 294.473 559.809 289.78C559.809 285.086 555.991 281.268 551.297 281.268H489.634C485.073 281.268 481.371 277.566 481.371 273.005V190.776C481.371 178.381 478.649 172.651 476.358 170.024C474.358 167.721 471.355 165.374 464.21 165.374C458.861 165.374 455.55 166.691 452.773 169.924C450.52 172.563 447.821 178.315 447.821 190.771V272.999C447.821 277.561 444.118 281.263 439.557 281.263H323.564C320.787 281.263 318.192 279.869 316.666 277.555L267.355 202.935C263.052 196.159 259.091 189.939 255.251 183.967C252.1 179.058 249.064 175.103 246.233 172.205C244.145 170.051 241.748 168.382 238.884 167.071C236.465 165.963 233 165.374 228.89 165.374C223.629 165.374 219.034 166.768 214.418 169.759C209.922 172.673 206.97 176.061 205.13 180.414C204.182 182.838 202.452 189.239 202.452 202.345V272.999C202.452 277.561 198.75 281.263 194.189 281.263H133.148C128.454 281.268 124.637 285.086 124.637 289.78C124.637 294.473 128.454 298.286 133.148 298.286H194.189C198.75 298.286 202.452 301.988 202.452 306.549V365.81C202.452 370.372 198.75 374.074 194.189 374.074H133.148C128.454 374.068 124.637 377.892 124.637 382.58C124.637 387.268 128.454 391.091 133.148 391.091H194.189C198.75 391.091 202.452 394.794 202.452 399.355V493.224C202.452 502.694 204.27 509.773 207.702 513.69C210.716 517.144 214.352 518.621 219.883 518.621C225.188 518.621 228.813 517.117 232.03 513.569C235.474 509.779 237.303 502.738 237.303 493.241V399.355C237.303 394.794 241.005 391.091 245.566 391.091ZM439.546 456.782C436.824 456.782 434.208 455.426 432.649 453.068L400.167 403.906C398.498 401.366 398.349 398.11 399.798 395.438C401.241 392.761 404.046 391.091 407.065 391.091H439.546C444.107 391.091 447.81 394.794 447.81 399.355V448.518C447.81 452.165 445.408 455.382 441.926 456.435C441.138 456.666 440.334 456.782 439.546 456.782ZM422.429 407.619L431.282 421.017V407.619H422.429ZM439.546 374.068H384.896C382.119 374.068 379.525 372.675 377.999 370.361L338.846 311.1C337.165 308.56 337.017 305.304 338.46 302.627C339.903 299.955 342.702 298.28 345.732 298.28H439.546C444.107 298.28 447.81 301.982 447.81 306.544V365.805C447.81 370.372 444.107 374.068 439.546 374.068ZM389.342 357.541H431.282V314.807H361.097L389.342 357.541ZM328.632 374.068H245.566C241.005 374.068 237.303 370.366 237.303 365.805V306.549C237.303 301.988 241.005 298.286 245.566 298.286H289.986C292.773 298.286 295.379 299.696 296.905 302.037L335.557 361.298C337.215 363.838 337.342 367.077 335.904 369.744C334.455 372.416 331.667 374.068 328.632 374.068ZM253.83 357.541H313.377L285.507 314.807H253.83V357.541ZM268.098 281.274H245.566C241.005 281.274 237.303 277.572 237.303 273.01V238.463C237.303 234.805 239.705 231.582 243.208 230.541C246.707 229.505 250.491 230.882 252.486 233.945L275.018 268.493C276.676 271.032 276.814 274.277 275.37 276.944C273.921 279.604 271.134 281.274 268.098 281.274Z" fill="white"/>
</svg>
