<svg width="40" height="40" viewBox="0 0 40 40" fill="none" xmlns="http://www.w3.org/2000/svg">
<path d="M38.4233 31.1247H34.2146V8.55847C34.2129 7.13561 33.647 5.7715 32.6409 4.76538C31.6348 3.75926 30.2706 3.1933 28.8478 3.19165H6.46159C5.03886 3.19351 3.67495 3.75956 2.669 4.76565C1.66305 5.77175 1.0972 7.13574 1.09555 8.55847C1.09555 8.63421 1.11047 8.70921 1.13945 8.77918C1.16844 8.84916 1.21092 8.91274 1.26447 8.96629C1.31803 9.01985 1.38161 9.06233 1.45158 9.09131C1.52156 9.1203 1.59655 9.13521 1.67229 9.13521H10.7911V31.7014C10.7925 33.1242 11.3583 34.4883 12.3643 35.4945C13.3703 36.5006 14.7343 37.0666 16.1571 37.0682H33.634C35.0567 37.0664 36.4206 36.5003 37.4265 35.4942C38.4325 34.4882 38.9983 33.1242 39 31.7014C39 31.5485 38.9392 31.4018 38.8311 31.2936C38.7229 31.1854 38.5762 31.1247 38.4233 31.1247ZM6.46159 4.34514H6.57772C7.59229 4.34868 8.57143 4.71862 9.33489 5.38684C10.0983 6.05505 10.5947 6.97657 10.7326 7.98173H2.28878C2.42898 6.97432 2.92848 6.05151 3.69526 5.38325C4.46205 4.715 5.44448 4.34633 6.46159 4.34514ZM11.9445 31.7014V8.55847C11.9419 7.74384 11.7528 6.94062 11.3919 6.21031C11.0309 5.48001 10.5076 4.842 9.86203 4.34514H28.8439C29.9609 4.34658 31.0317 4.79095 31.8216 5.58079C32.6114 6.37063 33.0558 7.44147 33.0572 8.55847V31.1247H21.061C20.908 31.1247 20.7613 31.1854 20.6531 31.2936C20.545 31.4018 20.4842 31.5485 20.4842 31.7014C20.4828 32.8184 20.0384 33.8893 19.2486 34.6791C18.4587 35.469 17.3879 35.9133 16.2709 35.9148H16.154C15.0372 35.9131 13.9666 35.4686 13.1771 34.6788C12.3875 33.889 11.9434 32.8182 11.9422 31.7014H11.9445ZM33.634 35.9148H19.5614C20.1292 35.4768 20.6031 34.9292 20.9551 34.3045C21.3071 33.6798 21.53 32.9907 21.6104 32.2782H37.8068C37.6666 33.2856 37.1671 34.2084 36.4003 34.8766C35.6335 35.5449 34.6511 35.9136 33.634 35.9148Z" fill="url(#paint0_linear_165_1486)"/>
<path d="M14.9584 22.6131H30.0441C30.1971 22.6131 30.3438 22.5523 30.4519 22.4442C30.5601 22.336 30.6208 22.1893 30.6208 22.0363C30.6208 21.8834 30.5601 21.7367 30.4519 21.6285C30.3438 21.5204 30.1971 21.4596 30.0441 21.4596H14.9584C14.8054 21.4596 14.6587 21.5204 14.5506 21.6285C14.4424 21.7367 14.3817 21.8834 14.3817 22.0363C14.3817 22.1893 14.4424 22.336 14.5506 22.4442C14.6587 22.5523 14.8054 22.6131 14.9584 22.6131Z" fill="url(#paint1_linear_165_1486)"/>
<path d="M27.6779 26.6768C27.6779 26.5238 27.6171 26.3771 27.509 26.269C27.4008 26.1608 27.2541 26.1 27.1012 26.1H14.9584C14.8054 26.1 14.6587 26.1608 14.5506 26.269C14.4424 26.3771 14.3817 26.5238 14.3817 26.6768C14.3817 26.8297 14.4424 26.9764 14.5506 27.0846C14.6587 27.1928 14.8054 27.2535 14.9584 27.2535H27.1012C27.2541 27.2535 27.4008 27.1928 27.509 27.0846C27.6171 26.9764 27.6779 26.8297 27.6779 26.6768Z" fill="url(#paint2_linear_165_1486)"/>
<path d="M24.2875 17.4009C24.1682 17.4009 24.0599 17.3798 23.9657 17.3386C23.8721 17.2981 23.7824 17.2317 23.6997 17.142C23.6165 17.052 23.5371 16.9443 23.4648 16.8216C23.391 16.6966 23.3173 16.5692 23.246 16.4431L22.269 14.6275H20.6145V16.4892C20.6145 16.7911 20.5568 17.0209 20.4431 17.1732C20.3283 17.3263 20.185 17.4007 20.0054 17.4007C19.8195 17.4007 19.6751 17.3254 19.5637 17.1708C19.4525 17.017 19.3962 16.7876 19.3962 16.4892V14.6275H18.4492C18.2015 14.6275 18 14.3832 18 14.083C18 13.7827 18.2015 13.5384 18.4492 13.5384H19.3962V12.6091H18.4492C18.2015 12.6092 18 12.3649 18 12.0648C18 11.7647 18.2015 11.5203 18.4492 11.5203H19.3962V10.1633C19.3962 9.90107 19.4197 9.695 19.466 9.55112C19.524 9.38458 19.6151 9.25591 19.7462 9.15311C19.8772 9.05008 20.0149 9 20.167 9C20.2846 9 20.3866 9.02324 20.4696 9.06937C20.5549 9.11657 20.6272 9.17791 20.6906 9.25687C20.7553 9.33702 20.8221 9.44221 20.8895 9.56909C20.9588 9.69968 21.0302 9.83566 21.1061 9.98087L21.9454 11.5203H23.7984V9.91174C23.7984 9.60575 23.8524 9.37452 23.959 9.22416C24.0659 9.07332 24.2067 9 24.3892 9C24.5777 9 24.7224 9.07344 24.8309 9.22452C24.9389 9.37476 24.9936 9.60611 24.9936 9.91174V11.5203H25.9517C26.1994 11.5203 26.4009 11.7646 26.4009 12.0648C26.4009 12.365 26.1994 12.6092 25.9517 12.6092H24.9936V13.5387H25.9517C26.1994 13.5387 26.4009 13.7828 26.4009 14.0832C26.4009 14.3834 26.1994 14.6275 25.9517 14.6275H24.9936V16.3607C24.9936 17.0607 24.7627 17.4009 24.2875 17.4009ZM20.4662 14.2681H22.3493C22.3993 14.2681 22.4461 14.2987 22.4735 14.3495L23.4927 16.2436C23.5607 16.3646 23.6337 16.4898 23.7059 16.6127C23.7656 16.7135 23.8301 16.8014 23.8975 16.8742C23.9518 16.9332 24.0083 16.9756 24.0662 17.0006C24.1284 17.0281 24.2027 17.0417 24.2876 17.0417C24.4603 17.0417 24.6971 17.0417 24.6971 16.3609V14.4478C24.6971 14.3486 24.7637 14.2681 24.8454 14.2681H25.9518C26.0361 14.2681 26.1045 14.185 26.1045 14.083C26.1045 13.9809 26.0361 13.8979 25.9518 13.8979H24.8453C24.7635 13.8979 24.697 13.8173 24.697 13.7181V12.4295C24.697 12.3303 24.7635 12.2498 24.8453 12.2498H25.9517C26.0359 12.2498 26.1044 12.1669 26.1044 12.0648C26.1044 11.9627 26.0359 11.8797 25.9517 11.8797H24.8453C24.7635 11.8797 24.697 11.7992 24.697 11.7V9.91174C24.697 9.64217 24.6482 9.51757 24.6071 9.46042C24.5712 9.41034 24.5174 9.3593 24.3892 9.3593C24.2932 9.3593 24.2338 9.38794 24.184 9.45826C24.1435 9.51565 24.0951 9.64073 24.0951 9.91162V11.6999C24.0951 11.7991 24.0287 11.8796 23.9468 11.8796H21.8657C21.8159 11.8796 21.7693 11.8493 21.7419 11.7989L20.8572 10.1762C20.78 10.0288 20.7089 9.89353 20.64 9.76365C20.5835 9.65691 20.529 9.57088 20.4782 9.50786C20.4407 9.46102 20.3977 9.42472 20.3463 9.3962C20.303 9.37212 20.2408 9.3593 20.167 9.3593C20.0727 9.3593 19.9902 9.38961 19.9074 9.45467C19.8267 9.51805 19.7737 9.59173 19.7407 9.68638C19.7237 9.73909 19.6927 9.87831 19.6927 10.1633V11.6999C19.6927 11.7991 19.6263 11.8796 19.5444 11.8796H18.4492C18.365 11.8797 18.2965 11.9627 18.2965 12.0648C18.2965 12.1669 18.365 12.2498 18.4492 12.2498H19.5444C19.6263 12.2498 19.6927 12.3303 19.6927 12.4295V13.7183C19.6927 13.8175 19.6263 13.898 19.5444 13.898H18.4492C18.365 13.8979 18.2965 13.981 18.2965 14.083C18.2965 14.1849 18.365 14.2681 18.4492 14.2681H19.5444C19.6263 14.2681 19.6927 14.3486 19.6927 14.4478V16.4892C19.6927 16.6951 19.7253 16.8491 19.7869 16.9343C19.841 17.0094 19.9062 17.0415 20.0054 17.0415C20.1006 17.0415 20.1657 17.0088 20.2234 16.9316C20.2852 16.8492 20.318 16.6961 20.318 16.4895V14.4478C20.318 14.3486 20.3844 14.2681 20.4662 14.2681ZM23.9466 15.6966C23.8978 15.6966 23.8508 15.6672 23.8229 15.6159L23.2401 14.5467C23.2101 14.4915 23.2075 14.4207 23.2335 14.3626C23.2594 14.3044 23.3097 14.2681 23.3638 14.2681H23.9466C24.0285 14.2681 24.0949 14.3486 24.0949 14.4478V15.5169C24.0949 15.5962 24.0518 15.6662 23.9893 15.6891C23.9752 15.6941 23.9608 15.6966 23.9466 15.6966ZM23.6395 14.6275L23.7984 14.9189V14.6275H23.6395ZM23.9466 13.8979H22.9661C22.9163 13.8979 22.8697 13.8675 22.8423 13.8172L22.1399 12.5285C22.1097 12.4732 22.107 12.4024 22.1329 12.3442C22.1588 12.2861 22.2091 12.2497 22.2634 12.2497H23.9466C24.0285 12.2497 24.0949 12.3302 24.0949 12.4294V13.7181C24.0949 13.8175 24.0285 13.8979 23.9466 13.8979ZM23.0459 13.5384H23.7984V12.6091H22.5391L23.0459 13.5384ZM21.9566 13.8979H20.4662C20.3844 13.8979 20.318 13.8173 20.318 13.7181V12.4295C20.318 12.3303 20.3844 12.2498 20.4662 12.2498H21.2632C21.3132 12.2498 21.36 12.2805 21.3874 12.3314L22.0809 13.6201C22.1106 13.6754 22.1129 13.7458 22.0871 13.8038C22.0611 13.8619 22.0111 13.8979 21.9566 13.8979ZM20.6145 13.5384H21.6829L21.1829 12.6091H20.6145V13.5384ZM20.8705 11.8798H20.4662C20.3844 11.8798 20.318 11.7993 20.318 11.7001V10.9488C20.318 10.8692 20.3611 10.7992 20.4239 10.7765C20.4867 10.754 20.5546 10.7839 20.5904 10.8505L20.9947 11.6019C21.0244 11.6571 21.0269 11.7277 21.001 11.7856C20.975 11.8435 20.925 11.8798 20.8705 11.8798Z" fill="#FF8303"/>
<defs>
<linearGradient id="paint0_linear_165_1486" x1="25.504" y1="37.0682" x2="28.3611" y2="-0.90727" gradientUnits="userSpaceOnUse">
<stop stop-color="#1D3FF0"/>
<stop offset="1" stop-color="#215CFF"/>
</linearGradient>
<linearGradient id="paint1_linear_165_1486" x1="24.8389" y1="22.6131" x2="24.8466" y2="21.3128" gradientUnits="userSpaceOnUse">
<stop stop-color="#1D3FF0"/>
<stop offset="1" stop-color="#215CFF"/>
</linearGradient>
<linearGradient id="paint2_linear_165_1486" x1="22.9437" y1="27.2535" x2="22.9532" y2="25.9532" gradientUnits="userSpaceOnUse">
<stop stop-color="#1D3FF0"/>
<stop offset="1" stop-color="#215CFF"/>
</linearGradient>
</defs>
</svg>
