<svg width="51" height="51" viewBox="0 0 51 51" fill="none" xmlns="http://www.w3.org/2000/svg">
<path d="M2.30015 29.4021C2.38502 29.4018 2.46989 29.4015 2.55733 29.4013C2.83714 29.4011 3.11675 29.4048 3.39654 29.4086C3.59179 29.4094 3.78705 29.4099 3.98231 29.4102C4.49622 29.4116 5.01005 29.4165 5.52393 29.4219C5.94189 29.4258 6.35984 29.4272 6.77782 29.4285C7.27811 29.4301 7.7784 29.4329 8.27869 29.4359C8.37338 29.4364 8.46808 29.437 8.56565 29.4375C8.83584 29.4393 9.10601 29.4419 9.37619 29.4447C9.45483 29.4451 9.53347 29.4456 9.61449 29.4461C10.9551 29.4629 10.9551 29.4629 11.4217 29.7299C11.6852 30.1783 11.6328 30.6204 11.6143 31.1295C11.6123 31.2316 11.6103 31.3337 11.6083 31.4389C11.6032 31.6904 11.596 31.9417 11.587 32.1932C11.6562 32.1908 11.7254 32.1883 11.7967 32.1858C12.5278 32.1614 13.2588 32.1451 13.9902 32.1332C14.2618 32.1278 14.5334 32.1204 14.8049 32.1109C16.5716 32.0504 17.8527 32.1644 19.3454 33.1501C19.624 33.3316 19.9149 33.485 20.2096 33.6387C20.3925 33.7386 20.5753 33.8386 20.7581 33.9387C20.8468 33.9871 20.9354 34.0355 21.0268 34.0853C21.1194 34.136 21.212 34.1866 21.3074 34.2388C21.4588 34.3178 21.4588 34.3178 21.6132 34.3985C21.8716 34.5474 22.0886 34.6944 22.3234 34.8738C23.9123 36.0107 25.7567 35.8184 27.6213 35.7844C28.3315 35.7723 29.0417 35.7689 29.7519 35.767C29.997 35.7653 30.2419 35.7606 30.487 35.7553C31.7579 35.7381 32.7623 35.9643 33.748 36.7919C34.3428 37.3792 34.6963 38.2446 34.7292 39.0767C34.7276 39.1921 34.726 39.3076 34.7244 39.4265C34.7231 39.5432 34.7219 39.66 34.7206 39.7803C34.7191 39.8687 34.7175 39.9572 34.7158 40.0483C37.1627 39.0922 39.6093 38.1357 42.0527 37.1708C42.1383 37.137 42.2239 37.1032 42.3121 37.0684C42.5558 36.9721 42.7995 36.8759 43.0431 36.7796C43.1176 36.7501 43.1921 36.7207 43.2688 36.6904C43.7632 36.495 44.2563 36.2967 44.7481 36.095C45.9395 35.6496 47.5704 35.5682 48.7746 36.0078C49.6666 36.4399 50.3212 37.1396 50.7397 38.0368C51.0464 38.9679 51.0005 40.1195 50.5739 41.002C49.6123 42.6037 47.7575 43.3301 46.1159 44.0697C45.8388 44.1963 45.5633 44.3263 45.2879 44.4566C44.3383 44.9043 43.3768 45.3188 42.4073 45.7214C42.3242 45.756 42.2411 45.7906 42.1555 45.8262C40.207 46.6362 38.2382 47.3915 36.2652 48.1394C35.8994 48.2783 35.5339 48.4181 35.1684 48.5579C34.53 48.8018 33.8907 49.0435 33.251 49.2839C32.9788 49.3864 32.7069 49.4893 32.4352 49.5929C32.0707 49.7317 31.7058 49.8692 31.3405 50.0059C31.1382 50.0819 30.9364 50.1592 30.7346 50.2365C29.3332 50.7577 27.9743 51.018 26.4789 50.999C26.3508 50.9979 26.2227 50.9968 26.0907 50.9956C23.7911 50.9546 21.7673 50.1002 19.6751 49.2212C19.3864 49.1001 19.0974 48.98 18.8082 48.8601C17.9505 48.504 17.0939 48.1458 16.2423 47.7753C15.912 47.6319 15.5809 47.4904 15.2497 47.3491C15.0974 47.2835 14.9455 47.2169 14.794 47.1492C13.7078 46.6642 12.7712 46.4882 11.587 46.4851C11.5913 46.6254 11.5913 46.6254 11.5957 46.7686C11.605 47.1166 11.6118 47.4647 11.617 47.8128C11.6197 47.9633 11.6234 48.1138 11.6282 48.2642C11.6348 48.4808 11.6376 48.6975 11.6403 48.9142C11.6431 49.0445 11.646 49.1747 11.6489 49.3089C11.587 49.6489 11.587 49.6489 11.3688 49.8848C10.9462 50.1437 10.5878 50.1466 10.1069 50.1418C9.96767 50.1429 9.96767 50.1429 9.82559 50.1441C9.51945 50.146 9.21342 50.1447 8.90728 50.1433C8.69412 50.1435 8.48096 50.144 8.26779 50.1445C7.82134 50.1452 7.37493 50.1442 6.92849 50.1422C6.35653 50.1397 5.78467 50.1411 5.21271 50.1437C4.77263 50.1453 4.33257 50.1448 3.89249 50.1437C3.68162 50.1434 3.47074 50.1438 3.25987 50.1448C2.96501 50.1459 2.67029 50.1442 2.37545 50.1418C2.28849 50.1426 2.20154 50.1435 2.11195 50.1444C1.73321 50.1387 1.47531 50.1054 1.1458 49.9133C0.805476 49.554 0.826808 49.345 0.826106 48.8546C0.82483 48.7343 0.82483 48.7343 0.823528 48.6116C0.821351 48.3428 0.823075 48.0741 0.824791 47.8053C0.824052 47.6127 0.823081 47.42 0.821895 47.2274C0.819405 46.704 0.820373 46.1806 0.822101 45.6572C0.823481 45.1097 0.822202 44.5622 0.821345 44.0147C0.820352 43.095 0.821662 42.1754 0.824258 41.2558C0.827226 40.1925 0.826266 39.1292 0.823262 38.0659C0.820787 37.1532 0.820437 36.2406 0.821865 35.328C0.822716 34.7828 0.822828 34.2376 0.821027 33.6924C0.819451 33.1797 0.820544 32.6671 0.823697 32.1544C0.824418 31.9662 0.82421 31.778 0.823008 31.5898C0.821517 31.3329 0.823386 31.0763 0.826106 30.8194C0.826312 30.6756 0.826518 30.5319 0.826729 30.3838C0.980489 29.5492 1.53665 29.3848 2.30015 29.4021ZM2.75005 31.3204C2.75005 36.9008 2.75005 42.4811 2.75005 48.2306C5.0542 48.2306 7.35836 48.2306 9.73234 48.2306C9.73234 42.6502 9.73234 37.0699 9.73234 31.3204C7.42818 31.3204 5.12402 31.3204 2.75005 31.3204ZM11.587 34.0478C11.587 37.5401 11.587 41.0323 11.587 44.6304C12.2711 44.6664 12.9551 44.7024 13.6599 44.7395C14.7415 45.1022 14.7415 45.1022 15.1114 45.2701C15.1936 45.3069 15.2759 45.3437 15.3606 45.3816C15.4451 45.4195 15.5297 45.4573 15.6168 45.4963C15.7978 45.5743 15.9789 45.6519 16.1602 45.7292C16.5442 45.8931 16.9274 46.0585 17.3104 46.2249C18.2565 46.6342 19.2109 47.0236 20.1652 47.4136C20.4705 47.5387 20.7754 47.6647 21.0802 47.791C25.4536 49.5953 28.4167 49.1502 32.741 47.4929C32.9428 47.4158 33.1445 47.3387 33.3463 47.2617C33.4474 47.2231 33.5486 47.1844 33.6527 47.1446C34.1135 46.969 34.5749 46.7951 35.0363 46.621C38.2286 45.4151 41.4118 44.1912 44.521 42.7825C44.6296 42.7335 44.6296 42.7335 44.7404 42.6835C45.5259 42.3277 46.2986 41.9535 47.0601 41.5488C47.1612 41.4951 47.1612 41.4951 47.2642 41.4403C48.3745 40.8581 48.3745 40.8581 49.0077 39.8301C49.0775 39.2896 49.067 38.8725 48.8441 38.3709C48.2829 37.7817 47.7824 37.6207 46.9689 37.5935C45.8054 37.6329 44.8074 38.0586 43.7437 38.4876C42.7584 38.8834 41.7704 39.2721 40.7809 39.6571C40.3032 39.843 39.8258 40.0292 39.3483 40.2153C39.2483 40.2543 39.1484 40.2932 39.0454 40.3333C37.9231 40.7708 36.8012 41.2096 35.6794 41.6486C35.4563 41.7359 35.2331 41.8232 35.0099 41.9106C34.6977 42.0327 34.3854 42.1549 34.0732 42.2771C33.9804 42.3134 33.8877 42.3497 33.7921 42.3871C33.7059 42.4208 33.6198 42.4545 33.531 42.4893C33.4565 42.5184 33.3821 42.5475 33.3054 42.5776C33.0751 42.664 33.0751 42.664 32.8481 42.785C32.3741 42.9356 31.9134 42.9151 31.419 42.913C31.307 42.9134 31.195 42.9138 31.0796 42.9142C30.7098 42.9152 30.3399 42.9145 29.9701 42.9138C29.7129 42.9139 29.4557 42.9141 29.1985 42.9144C28.6596 42.9147 28.1207 42.9143 27.5818 42.9133C26.891 42.912 26.2002 42.9127 25.5094 42.914C24.9784 42.9148 24.4474 42.9146 23.9163 42.914C23.6616 42.9139 23.4069 42.914 23.1521 42.9145C22.7962 42.9151 22.4403 42.9143 22.0843 42.913C21.979 42.9135 21.8737 42.9139 21.7652 42.9144C20.8437 42.9085 20.8437 42.9085 20.424 42.6666C20.2553 42.3293 20.2828 42.0563 20.3149 41.6847C20.4708 41.4451 20.4708 41.4451 20.7513 41.2483C21.0947 41.1845 21.4335 41.1913 21.7819 41.1957C21.8862 41.1953 21.9906 41.1948 22.0981 41.1944C22.3246 41.1938 22.5511 41.1941 22.7776 41.1953C23.1363 41.1972 23.4948 41.1964 23.8534 41.1949C24.7442 41.1916 25.6349 41.1931 26.5257 41.1943C27.2782 41.1952 28.0306 41.1944 28.7831 41.1912C29.1362 41.1904 29.4892 41.1922 29.8423 41.1941C30.0592 41.1935 30.2762 41.1927 30.4931 41.1919C30.5911 41.1931 30.689 41.1943 30.79 41.1956C31.5043 41.1887 31.8682 41.0316 32.386 40.5285C32.8217 39.9821 32.9348 39.5425 32.8612 38.8482C32.6517 38.3478 32.3045 38.0761 31.8793 37.7572C31.4974 37.6299 31.201 37.636 30.798 37.6378C30.6397 37.6381 30.4815 37.6384 30.3232 37.6387C30.2393 37.639 30.1554 37.6393 30.0689 37.6397C29.622 37.6409 29.175 37.6387 28.728 37.637C28.1604 37.635 27.5928 37.634 27.0252 37.6372C26.5657 37.6397 26.1063 37.6384 25.6468 37.6347C25.473 37.634 25.2992 37.6346 25.1253 37.6366C23.8651 37.6504 23.0375 37.4288 21.9513 36.7753C21.747 36.662 21.5425 36.549 21.3377 36.4365C21.242 36.3816 21.1463 36.3267 21.0477 36.2702C20.8402 36.1512 20.6314 36.0343 20.4218 35.9191C19.9005 35.6308 19.4084 35.3415 18.9388 34.9743C16.8316 33.4353 14.0444 33.9698 11.587 34.0478Z" fill="black"/>
<path d="M34.1712 0.445222C34.2768 0.473305 34.2768 0.473305 34.3846 0.501955C34.9034 0.643108 35.4106 0.809532 35.9167 0.990713C35.9915 1.01712 36.0663 1.04352 36.1434 1.07073C37.791 1.66436 39.2757 2.58158 40.608 3.71817C40.7039 3.7996 40.7998 3.88103 40.8986 3.96492C43.9025 6.60053 45.6175 10.351 45.9538 14.3007C46.1568 18.0911 45.1021 21.9839 42.5717 24.8832C42.493 24.9739 42.4142 25.0647 42.3331 25.1581C42.0891 25.4339 41.8407 25.7047 41.5898 25.9742C41.5163 26.0549 41.4427 26.1357 41.367 26.2188C38.7885 28.9376 34.924 30.4667 31.217 30.5802C29.8053 30.6077 28.4553 30.5553 27.0798 30.2291C26.9906 30.2085 26.9014 30.188 26.8095 30.1669C23.9011 29.4775 21.4352 27.9715 19.3338 25.8651C19.2389 25.7715 19.1439 25.6778 19.0461 25.5813C16.2529 22.6784 15.0809 18.7016 15.0713 14.7536C15.1059 13.201 15.4167 11.7168 15.9517 10.2641C16 10.1289 16.0482 9.99377 16.0979 9.85452C17.5002 6.05869 20.4598 3.09368 24.1051 1.40529C24.9681 1.01617 25.8304 0.66924 26.7525 0.445222C26.8835 0.412735 27.0146 0.380249 27.1497 0.346778C29.3272 -0.128572 32.0172 -0.133343 34.1712 0.445222ZM20.8066 5.92059C18.2695 8.56693 16.8684 12.0269 16.9396 15.6996C17.0851 18.7196 18.1248 21.4261 19.9884 23.7923C20.0604 23.9003 20.1324 24.0083 20.2066 24.1195C20.2786 24.1195 20.3506 24.1195 20.4248 24.1195C20.4484 24.1796 20.472 24.2397 20.4964 24.3015C20.6911 24.6395 20.9557 24.8778 21.243 25.1355C21.3018 25.1886 21.3606 25.2417 21.4212 25.2963C24.4219 27.9629 28.1649 28.8937 32.0983 28.7017C34.6812 28.4646 37.2261 27.3258 39.1897 25.6469C39.2766 25.5732 39.3635 25.4995 39.4531 25.4236C42.1313 23.0853 43.7469 20.0324 44.0991 16.4827C44.3013 13.0632 43.3639 9.49176 41.0806 6.86838C40.7852 6.53815 40.4791 6.21905 40.1716 5.90014C40.1 5.82166 40.0284 5.74319 39.9546 5.66234C37.6856 3.24266 34.1807 1.99123 30.9251 1.86009C27.0252 1.84515 23.6346 3.25268 20.8066 5.92059Z" fill="black"/>
<path d="M33.6234 4.37304C33.7475 4.41144 33.8715 4.44983 33.9993 4.48938C35.5654 5.01083 36.8321 5.73493 38.0965 6.7732C38.1901 6.84465 38.2838 6.91609 38.3803 6.9897C38.8666 7.3984 39.2333 7.91167 39.6238 8.40968C39.6987 8.50081 39.7735 8.59194 39.8506 8.68583C41.538 10.8383 42.2058 13.7891 41.9733 16.483C41.6414 19.2023 40.4792 21.551 38.5329 23.4652C38.4417 23.5562 38.3506 23.6472 38.2567 23.741C35.9615 25.9207 32.9519 26.6867 29.874 26.653C27.4397 26.5873 25.1544 25.6142 23.2591 24.1198C23.1764 24.062 23.0937 24.0042 23.0085 23.9447C22.9472 23.8945 22.8859 23.8443 22.8227 23.7925C22.8227 23.7205 22.8227 23.6485 22.8227 23.5743C22.7276 23.5338 22.7276 23.5338 22.6305 23.4925C21.0252 22.596 19.9961 20.1043 19.4976 18.4148C18.7051 15.5764 19.0058 12.5701 20.4139 9.97621C20.7969 9.29948 21.2267 8.67395 21.7317 8.08238C21.8387 7.9518 21.8387 7.9518 21.9478 7.81859C24.6753 4.6141 29.5774 3.06467 33.6234 4.37304ZM23.5864 8.73697C21.6511 10.7972 20.8708 13.3052 20.9532 16.099C21.0756 18.3636 22.203 20.6948 23.8864 22.2174C24.0396 22.3441 24.1943 22.469 24.3501 22.5925C24.4349 22.6619 24.5197 22.7314 24.6071 22.803C26.7407 24.4621 29.3371 25.0238 32.001 24.7506C34.4745 24.3887 36.8084 22.944 38.3147 20.956C39.8102 18.8508 40.4268 16.3594 40.044 13.7998C39.614 11.3699 38.2768 9.13328 36.2622 7.6869C36.0747 7.56246 35.886 7.43976 35.6963 7.3187C35.5977 7.25344 35.4991 7.18819 35.3976 7.12095C31.6539 4.77041 26.633 5.67588 23.5864 8.73697Z" fill="black"/>
<path d="M30.8946 9.06388C31.3748 9.46076 31.6178 9.89664 31.8765 10.4481C31.9515 10.6033 32.0265 10.7586 32.1015 10.9139C32.1374 10.9891 32.1732 11.0642 32.2102 11.1417C32.3894 11.5139 32.5805 11.8801 32.7697 12.2473C32.8584 12.4459 32.8584 12.4459 32.8584 12.6641C32.9367 12.6682 33.015 12.6723 33.0957 12.6765C33.859 12.725 34.6114 12.8104 35.3676 12.9232C35.4563 12.9357 35.5449 12.9481 35.6362 12.9609C36.121 13.0364 36.4966 13.1215 36.895 13.4278C37.1132 13.7551 37.1132 13.7551 37.12 14.1029C36.9618 14.6705 36.6481 14.9796 36.2404 15.3916C36.1863 15.4498 36.1321 15.508 36.0763 15.568C35.9547 15.6965 35.8255 15.8177 35.6949 15.9371C35.6229 15.9371 35.5509 15.9371 35.4767 15.9371C35.4767 16.0091 35.4767 16.0811 35.4767 16.1553C35.2896 16.3398 35.2896 16.3398 35.0472 16.5439C34.9275 16.6454 34.9275 16.6454 34.8055 16.7489C34.739 16.805 34.6725 16.8611 34.6039 16.919C34.5679 16.955 34.5319 16.991 34.4948 17.0281C34.5017 17.8499 34.6706 18.6718 34.8203 19.4776C34.9164 20.0157 34.9647 20.5178 34.9312 21.0647C34.6994 21.392 34.6994 21.392 34.3857 21.6102C33.7646 21.699 33.3725 21.4567 32.8516 21.1602C32.7695 21.1166 32.6874 21.073 32.6028 21.0282C32.2255 20.8279 31.8635 20.6251 31.5168 20.3752C31.1373 20.1323 30.9098 20.012 30.4582 19.9737C29.7592 20.202 29.151 20.6191 28.5373 21.0147C27.9976 21.3436 27.5098 21.6137 26.8716 21.6034C26.3781 21.4553 26.3781 21.4553 26.2034 21.1738C26.0703 20.6482 26.1267 20.318 26.295 19.8075C26.7515 18.3697 26.7515 18.3697 26.5399 16.9328C26.1237 16.3094 25.5579 15.8244 24.9805 15.355C24.919 15.3047 24.8576 15.2544 24.7943 15.2025C24.623 15.0656 24.4468 14.9349 24.2704 14.8046C24.0064 14.5015 23.9825 14.4439 23.9746 14.0649C24.0214 13.646 24.0214 13.646 24.1782 13.3869C24.7554 13.0209 25.4037 12.9819 26.0747 12.9897C26.8228 12.9755 27.5101 12.9425 28.1671 12.555C28.9081 11.7626 29.2881 10.6001 29.6595 9.60037C29.9255 9.01294 30.298 8.99189 30.8946 9.06388ZM30.4582 12.1186C30.4292 12.1803 30.4001 12.2419 30.3702 12.3055C30.2363 12.5855 30.0985 12.8634 29.9604 13.1414C29.892 13.287 29.892 13.287 29.8222 13.4355C29.4635 14.1474 29.4635 14.1474 29.0024 14.3586C28.8708 14.3754 28.7392 14.3923 28.6035 14.4097C28.4975 14.4267 28.4975 14.4267 28.3894 14.4441C28.1725 14.4785 27.9556 14.5063 27.7376 14.5324C27.663 14.5419 27.5884 14.5513 27.5115 14.561C27.3301 14.5838 27.1486 14.6059 26.9671 14.6279C27.0571 14.7337 27.1471 14.8394 27.2398 14.9484C27.2986 15.0184 27.3574 15.0884 27.4179 15.1606C27.6214 15.3973 27.6214 15.3973 27.8595 15.6226C28.5514 16.3145 28.5514 16.3145 28.5626 16.8849C28.5461 17.0787 28.5225 17.272 28.4944 17.4645C28.4773 17.5993 28.4601 17.7342 28.4424 17.8731C28.392 18.247 28.3363 18.6194 28.2762 18.9918C28.3627 18.9455 28.3627 18.9455 28.4509 18.8982C28.7163 18.7582 28.9837 18.6228 29.2513 18.4873C29.3873 18.4143 29.3873 18.4143 29.526 18.3398C30.1048 18.0515 30.4834 17.9511 31.1101 18.1414C31.4158 18.2614 31.6964 18.4014 31.9788 18.5691C32.3416 18.8057 32.3416 18.8057 32.7493 18.8827C32.7335 18.7643 32.7178 18.6459 32.7015 18.5239C32.6811 18.3662 32.6606 18.2085 32.6402 18.0509C32.6298 17.9731 32.6194 17.8953 32.6086 17.8152C32.4538 16.6096 32.4538 16.6096 32.6674 16.2584C32.7305 16.1929 32.7935 16.1273 32.8584 16.0598C32.9271 15.9868 32.9959 15.9138 33.0668 15.8386C33.7258 15.1771 33.7258 15.1771 34.0035 14.9079C34.1801 14.7634 34.1801 14.7634 34.1675 14.6279C34.1043 14.6208 34.0411 14.6138 33.9759 14.6065C33.6871 14.5729 33.399 14.5357 33.1107 14.4983C32.9614 14.4818 32.9614 14.4818 32.8091 14.4649C32.3459 14.4026 32.053 14.3504 31.6719 14.0688C31.3964 13.696 31.178 13.316 30.9696 12.9028C30.9304 12.8272 30.8913 12.7516 30.8509 12.6737C30.7555 12.4892 30.6613 12.304 30.5673 12.1186C30.5313 12.1186 30.4953 12.1186 30.4582 12.1186Z" fill="black"/>
</svg>
