<svg width="192" height="40" viewBox="0 0 192 40" fill="none" xmlns="http://www.w3.org/2000/svg">
<path d="M179.852 19.4281L179.405 21.5242H173.764L174.128 19.7535C174.592 17.4788 172.853 15.3502 170.531 15.3502H155.629L156.743 9.77213H171.989C177.079 9.77213 180.884 14.4455 179.852 19.4281Z" fill="#215CFF"/>
<path fill-rule="evenodd" clip-rule="evenodd" d="M172.732 26.6142L172.565 27.4305C172.497 26.937 172.025 26.6485 171.427 26.6485H158.561C157.487 26.6485 156.556 27.1481 156.322 28.1977L155.448 32.1161C155.223 33.119 155.987 34.0716 157.014 34.0716H169.308C170.382 34.0716 171.313 33.3253 171.547 32.2769L171.898 30.7019L171.517 32.5777C171.298 33.6457 170.359 34.4129 169.269 34.4129H151.835C151.424 37.1651 153.556 39.673 156.373 39.673H153.889C150.982 39.673 148.808 37.0043 149.396 34.1575L150.835 27.1862C150.874 26.9959 150.919 26.8106 150.972 26.6289L152.478 26.6142H172.732Z" fill="#43CAFF"/>
<path fill-rule="evenodd" clip-rule="evenodd" d="M178.363 26.6142L176.872 33.8089L176.791 34.1821C176.321 36.4543 174.765 38.2699 172.732 39.1316C172.575 39.1979 172.415 39.2581 172.254 39.3133C171.93 39.4226 171.596 39.5085 171.255 39.5686C171.254 39.5674 171.253 39.5674 171.251 39.5686C171.153 39.5858 171.055 39.6006 170.956 39.6141C170.66 39.6534 170.357 39.673 170.051 39.673H156.371C153.554 39.673 151.421 37.1651 151.833 34.4129H169.267C170.357 34.4129 171.296 33.6457 171.514 32.5777L171.896 30.7019L172.544 27.8C172.574 27.6674 172.578 27.5434 172.563 27.4305L172.729 26.6142H178.363Z" fill="#43CAFF"/>
<path d="M109.189 19.4976L108.827 21.3144C107.108 21.2445 105.298 21.1499 103.415 21.0272L103.664 19.8156C104.133 17.5384 102.395 15.4049 100.07 15.4049H83.9774L85.0761 9.89929H101.316C106.379 9.89929 110.18 14.5321 109.189 19.4976Z" fill="#215CFF"/>
<path d="M107.629 27.3217L105.139 39.8036H99.5479L102.075 27.5304C104.035 27.453 105.888 27.3843 107.629 27.3217Z" fill="#43CAFF"/>
<path d="M88.1569 19.5188C86.5475 19.3027 84.9222 19.0646 83.2871 18.8043L83.8064 16.2645C85.9018 16.2645 87.6118 17.6676 88.1569 19.5188Z" fill="#215CFF"/>
<path d="M86.9215 28.1942L84.5462 39.8033H78.9902L81.3091 28.4729C83.2266 28.3747 85.0986 28.2826 86.9215 28.1942Z" fill="#43CAFF"/>
<path d="M131.88 15.479L122.956 15.4385L121.672 21.4659H118.035C117.398 21.4745 116.726 21.4794 116.023 21.4794L117.315 15.414L112.555 15.3919L113.8 9.75244L118.517 9.77331L120.571 0.135696H126.216L124.158 9.79909L127.462 9.81382C130.422 9.82732 132.589 12.6053 131.88 15.479Z" fill="#215CFF"/>
<path d="M128.323 34.2282L127.134 39.8013H122.039C116.931 39.8013 113.122 35.0949 114.186 30.0999L114.832 27.0715C117.104 27.0064 119.01 26.961 120.508 26.9316L119.899 29.793C119.412 32.0775 121.154 34.2282 123.489 34.2282H128.323Z" fill="#43CAFF"/>
<path d="M138.884 26.7392L136.179 39.8018H130.532L133.299 26.7969L138.884 26.7392Z" fill="#43CAFF"/>
<path d="M153.545 9.77213L152.366 15.3084H145.922C143.203 15.3084 140.857 17.2185 140.306 19.8811L139.977 21.4671H134.434L135.57 16.1297C136.359 12.4224 139.633 9.77213 143.422 9.77213H153.545Z" fill="#215CFF"/>
<path fill-rule="evenodd" clip-rule="evenodd" d="M79.8839 18.1264L79.8643 18.2271C77.6068 17.8257 75.3444 17.3788 73.093 16.8817C73.1041 16.8952 73.1139 16.9087 73.1237 16.9222C72.4584 16.0641 71.4174 15.5019 70.2254 15.5019H67.3762C63.5585 14.4953 59.8267 13.3303 56.2815 11.9874C54.9214 11.4718 53.5649 10.9636 52.2158 10.4652C53.0579 10.0994 53.9835 9.89929 54.9496 9.89929H73.1348C77.4767 9.89929 80.7334 13.8705 79.8839 18.1264Z" fill="#215CFF"/>
<path fill-rule="evenodd" clip-rule="evenodd" d="M77.7838 28.6568L76.6655 34.2668C76.0235 37.4854 73.1976 39.8031 69.9163 39.8031H51.73C47.3893 39.8031 44.1326 35.8319 44.982 31.5747L45.1428 30.7657C46.994 30.5988 48.9016 30.4404 50.8658 30.2931C50.867 30.2698 50.8694 30.2465 50.8719 30.2231C50.6779 32.3431 52.3499 34.2201 54.5276 34.2201H68.1253C69.8955 34.2201 71.414 32.9569 71.7344 31.2162L72.1505 28.9649C74.0643 28.8569 75.9437 28.755 77.7838 28.6568Z" fill="#43CAFF"/>
<path fill-rule="evenodd" clip-rule="evenodd" d="M139.976 21.4657L138.885 26.7393L133.299 26.797L134.434 21.4657H139.976Z" fill="#161D6F"/>
<path fill-rule="evenodd" clip-rule="evenodd" d="M121.67 21.4657L120.505 26.932C119.008 26.9615 117.101 27.0069 114.829 27.0719L116.021 21.4792C116.725 21.4792 117.396 21.4743 118.033 21.4657H121.67Z" fill="#161D6F"/>
<path d="M41.4313 31.1229L39.7004 39.803H34.1101L35.7686 31.7477C37.5878 31.5304 39.4758 31.3205 41.4313 31.1229Z" fill="#43CAFF"/>
<path d="M6.05756 37.3503L5.55549 39.803H-0.000473022L0.0412637 39.6005C1.21482 38.9805 3.21575 38.2023 6.05756 37.3503Z" fill="#43CAFF"/>
<path d="M23.8305 33.438L22.528 39.8029H16.9733L18.0634 34.4777C19.8593 34.1266 21.7805 33.778 23.8305 33.438Z" fill="#43CAFF"/>
<path fill-rule="evenodd" clip-rule="evenodd" d="M35.8778 9.8993H6.10567L5.00701 15.4049H34.6331C36.9568 15.4049 38.6963 17.5384 38.2274 19.8156L35.7698 31.7475C37.589 31.5302 39.477 31.3203 41.4325 31.1227L43.7514 19.4976C44.7421 14.5321 40.9427 9.8993 35.8778 9.8993ZM21.7903 16.2642L18.0622 34.4776H18.0634C19.8593 34.1265 21.7805 33.7779 23.8305 33.4379L26.2316 21.706C26.8073 18.8961 24.6591 16.2642 21.7903 16.2642ZM4.81796 16.2642L0.0427322 39.6002C1.21628 38.9803 3.21722 38.202 6.05903 37.3501L9.26052 21.706C9.83502 18.8961 7.68801 16.2642 4.81796 16.2642Z" fill="#161D6F"/>
<path fill-rule="evenodd" clip-rule="evenodd" d="M88.339 20.6481C88.339 20.6199 88.3377 20.5904 88.3353 20.561C88.334 20.5229 88.3316 20.4849 88.3279 20.4481C88.3254 20.41 88.3218 20.3732 88.3181 20.3351C88.3144 20.2971 88.3107 20.2602 88.3058 20.2234C88.3021 20.1866 88.2972 20.1498 88.2898 20.1129C88.2849 20.081 88.28 20.0503 88.2751 20.0184C88.269 19.9767 88.2604 19.9349 88.2518 19.8932C88.2371 19.8208 88.2199 19.7483 88.2015 19.6771C88.1941 19.644 88.1843 19.6121 88.1757 19.5802C88.1745 19.574 88.1732 19.5679 88.1708 19.5618C88.1671 19.547 88.1622 19.5335 88.1585 19.5188H88.1573C86.5479 19.3027 84.9226 19.0646 83.2875 18.8043L81.3087 28.4726C83.2261 28.3744 85.0982 28.2824 86.9211 28.194L88.2481 21.7063C88.2592 21.6486 88.2702 21.5909 88.28 21.532C88.2899 21.4743 88.2984 21.4166 88.3058 21.3589C88.3156 21.2816 88.3242 21.2055 88.3291 21.1294C88.334 21.0545 88.3377 20.9796 88.3402 20.9047V20.8998C88.3402 20.8593 88.3402 20.8188 88.3402 20.7783C88.3402 20.7353 88.3402 20.6911 88.3377 20.6481H88.339ZM103.416 21.0275L102.077 27.5299C104.036 27.4525 105.889 27.3838 107.63 27.3212L108.828 21.3147C107.11 21.2447 105.299 21.1502 103.416 21.0275Z" fill="#161D6F"/>
<path fill-rule="evenodd" clip-rule="evenodd" d="M184.875 26.6461H152.469L150.969 26.6289C151.006 26.5025 151.045 26.3797 151.087 26.2582C151.098 26.2275 151.109 26.1968 151.12 26.1661C151.156 26.0667 151.195 25.9685 151.234 25.8715C151.236 25.8715 151.236 25.8703 151.236 25.8703C151.276 25.7733 151.319 25.6775 151.363 25.583C151.385 25.5364 151.407 25.4897 151.431 25.4431C151.449 25.4087 151.466 25.3743 151.484 25.34C151.514 25.2823 151.545 25.227 151.577 25.1706C151.601 25.1264 151.627 25.0822 151.653 25.038C151.679 24.9938 151.706 24.9508 151.733 24.9079C151.76 24.8649 151.787 24.8219 151.815 24.7802C151.842 24.7372 151.87 24.6955 151.9 24.655C151.959 24.5691 152.02 24.4843 152.083 24.4021C152.112 24.3653 152.14 24.3285 152.17 24.2929C152.269 24.1689 152.372 24.0486 152.48 23.9332C152.509 23.9025 152.537 23.873 152.565 23.8436C152.642 23.7638 152.721 23.6864 152.802 23.6103C152.866 23.5502 152.932 23.4913 152.998 23.4336C153.077 23.3648 153.159 23.2985 153.241 23.2335C153.283 23.2003 153.325 23.1684 153.367 23.1377C153.439 23.0825 153.513 23.0297 153.589 22.9769C153.6 22.9683 153.611 22.9609 153.623 22.9536C153.664 22.9253 153.705 22.8983 153.746 22.8701C153.926 22.7535 154.112 22.6442 154.303 22.5423C154.346 22.519 154.39 22.4957 154.435 22.4736C154.462 22.4589 154.49 22.4454 154.517 22.4319C154.556 22.4122 154.597 22.3926 154.637 22.3742C154.96 22.2207 155.296 22.0881 155.645 21.9764C155.688 21.9617 155.731 21.9482 155.774 21.9359C155.891 21.8991 156.008 21.866 156.129 21.8353C156.183 21.8205 156.237 21.807 156.291 21.7948C156.346 21.7812 156.4 21.769 156.455 21.7567C156.51 21.7444 156.566 21.7321 156.621 21.7211C156.661 21.7125 156.703 21.7039 156.745 21.6966C156.79 21.688 156.836 21.6794 156.881 21.672C156.934 21.6622 156.988 21.6536 157.041 21.645C157.087 21.6376 157.134 21.6303 157.182 21.6241C157.276 21.6094 157.372 21.5971 157.468 21.5873C157.524 21.5799 157.581 21.5738 157.639 21.5689C157.696 21.5627 157.754 21.5578 157.813 21.5529C157.835 21.5505 157.858 21.5492 157.882 21.548C157.975 21.5406 158.068 21.5345 158.163 21.5296C158.22 21.5272 158.279 21.5247 158.338 21.5235C158.387 21.521 158.435 21.5198 158.483 21.5198C158.553 21.5186 158.624 21.5173 158.694 21.5173H173.768H179.418H185.654H185.714L185.723 21.4658L186.251 18.6792L191.875 24.0719L184.384 29.3295L184.875 26.6461Z" fill="#161D6F"/>
<path fill-rule="evenodd" clip-rule="evenodd" d="M56.2805 11.9877C54.9204 11.4722 53.5639 10.9639 52.2148 10.4655C52.2075 10.4692 52.1989 10.4729 52.1915 10.4754C52.1363 10.4999 52.081 10.5245 52.027 10.5502C51.9644 10.5797 51.903 10.6104 51.8417 10.6411C51.7803 10.6718 51.7201 10.7037 51.66 10.7368C51.6035 10.7675 51.547 10.7982 51.4918 10.8314C51.358 10.9087 51.2266 10.9909 51.099 11.0769C51.0536 11.1076 51.0081 11.1395 50.9639 11.1714C50.9124 11.207 50.8621 11.2438 50.8117 11.2819C50.6399 11.4108 50.4754 11.547 50.317 11.6931C50.2691 11.7348 50.2225 11.779 50.1758 11.8245C49.9917 12 49.8186 12.1866 49.6554 12.383C49.6271 12.4174 49.5989 12.4517 49.5719 12.4861C49.567 12.491 49.5621 12.4972 49.5584 12.5033C49.5301 12.5389 49.5031 12.5733 49.4761 12.6089C49.4454 12.6469 49.416 12.6862 49.389 12.7255C49.362 12.7623 49.335 12.7991 49.3092 12.836C49.3055 12.8409 49.3018 12.8458 49.2981 12.8519C49.2724 12.89 49.2466 12.928 49.2208 12.9661C49.1668 13.0471 49.114 13.1294 49.0637 13.2128C49.0379 13.2546 49.0133 13.2975 48.9888 13.3393C48.9397 13.4252 48.8918 13.5111 48.8464 13.5983C48.8243 13.6413 48.8022 13.6855 48.7801 13.7296C48.758 13.7738 48.7371 13.8193 48.715 13.8634C48.6917 13.9138 48.6684 13.9641 48.6463 14.0144C48.6095 14.1004 48.5739 14.1863 48.5395 14.2735C48.5076 14.3557 48.4769 14.438 48.4487 14.5214C48.3738 14.7338 48.3099 14.9523 48.2572 15.1745C48.2486 15.2089 48.2412 15.2432 48.2326 15.2788C48.2216 15.3316 48.2105 15.3832 48.1995 15.436L45.1416 30.7658C46.9928 30.5988 48.9004 30.4405 50.8645 30.2932C50.8657 30.2698 50.8682 30.2465 50.8706 30.2232C50.8756 30.168 50.8817 30.1127 50.8903 30.0563C50.8891 30.055 50.8903 30.0526 50.8915 30.0501C50.8976 29.9949 50.9062 29.9396 50.9173 29.8844L53.0164 18.5061C53.3381 16.7654 54.8566 15.5022 56.6267 15.5022H67.3753C63.5575 14.4956 59.8257 13.3307 56.2805 11.9877ZM73.092 16.882C73.1031 16.8955 73.1129 16.909 73.1227 16.9225C73.1411 16.9459 73.1595 16.9692 73.1755 16.9925C73.1939 17.0158 73.2111 17.0392 73.2271 17.0637C73.2958 17.1595 73.3584 17.2589 73.4161 17.3608C73.4284 17.3817 73.4394 17.4025 73.4517 17.4234C73.4836 17.4823 73.5143 17.5425 73.5413 17.6026C73.5536 17.6272 73.5646 17.6517 73.5757 17.6763C73.5904 17.7057 73.6027 17.7352 73.615 17.7659C73.6248 17.788 73.6334 17.8113 73.642 17.8346C73.6579 17.8714 73.6714 17.9083 73.6837 17.9451C73.6972 17.9819 73.7095 18.0175 73.7205 18.0544C73.7279 18.074 73.734 18.0936 73.739 18.1133C73.7512 18.1538 73.7635 18.1943 73.7733 18.2348C73.7856 18.2802 73.7967 18.3269 73.8077 18.3723C73.82 18.4239 73.8298 18.4754 73.8384 18.5282C73.8433 18.554 73.847 18.5797 73.8507 18.6055C73.8531 18.6129 73.8543 18.6203 73.8543 18.6276C73.8593 18.6546 73.8629 18.6804 73.8654 18.7074C73.8715 18.7442 73.8752 18.7811 73.8777 18.8191C73.8801 18.8424 73.8826 18.8658 73.8838 18.8891C73.8875 18.9321 73.8912 18.9763 73.8912 19.0204C73.8936 19.0683 73.8949 19.1174 73.8949 19.1653C73.8949 19.3863 73.8752 19.6109 73.8335 19.838L72.1493 28.965C74.063 28.8569 75.9424 28.755 77.7826 28.6568L79.8633 18.2274C77.6058 17.826 75.3434 17.3792 73.092 16.882Z" fill="#161D6F"/>
</svg>
