<svg width="453" height="95" viewBox="0 0 453 95" fill="none" xmlns="http://www.w3.org/2000/svg">
<path d="M424.476 46.0206L423.423 50.9634H410.119L410.977 46.7877C412.072 41.4236 407.973 36.404 402.496 36.404H367.355L369.981 23.25H405.935C417.937 23.25 426.91 34.2705 424.476 46.0206Z" fill="white"/>
<path fill-rule="evenodd" clip-rule="evenodd" d="M407.684 62.9658L407.29 64.8909C407.131 63.7272 406.016 63.0469 404.607 63.0469H374.266C371.733 63.0469 369.539 64.2251 368.986 66.7001L366.925 75.9404C366.395 78.3055 368.196 80.5518 370.619 80.5518H399.61C402.143 80.5518 404.337 78.7918 404.89 76.3196L405.718 72.6056L404.818 77.0288C404.303 79.5473 402.088 81.3566 399.517 81.3566H358.405C357.436 87.8467 362.464 93.7608 369.107 93.7608H363.248C356.393 93.7608 351.267 87.4675 352.653 80.7545L356.046 64.3148C356.139 63.8661 356.246 63.429 356.37 63.0006L359.922 62.9658H407.684Z" fill="white"/>
<path fill-rule="evenodd" clip-rule="evenodd" d="M420.963 62.9658L417.449 79.9323L417.258 80.8123C416.149 86.1706 412.478 90.4521 407.684 92.4842C407.314 92.6405 406.938 92.7824 406.558 92.9127C405.794 93.1703 405.007 93.3729 404.202 93.5148C404.199 93.5119 404.196 93.5119 404.193 93.5148C403.962 93.5553 403.73 93.59 403.496 93.6219C402.798 93.7145 402.083 93.7608 401.362 93.7608H369.102C362.459 93.7608 357.431 87.8467 358.4 81.3566H399.512C402.083 81.3566 404.298 79.5473 404.813 77.0288L405.713 72.6056L407.242 65.7622C407.311 65.4496 407.323 65.1572 407.285 64.8909L407.679 62.9658H420.963Z" fill="white"/>
<path d="M257.844 46.1843L256.991 50.4687C252.938 50.3037 248.668 50.0808 244.227 49.7913L244.815 46.9341C245.921 41.5642 241.822 36.533 236.339 36.533H198.391L200.982 23.5498H239.277C251.218 23.5498 260.181 34.4748 257.844 46.1843Z" fill="white"/>
<path d="M254.166 64.6348L248.295 94.0692H235.109L241.07 65.1269C245.69 64.9445 250.061 64.7824 254.166 64.6348Z" fill="white"/>
<path d="M208.249 46.2337C204.454 45.7242 200.622 45.1626 196.766 44.5489L197.99 38.5596C202.932 38.5596 206.964 41.8683 208.249 46.2337Z" fill="white"/>
<path d="M205.333 66.6924L199.732 94.0686H186.63L192.098 67.3495C196.62 67.1179 201.034 66.9008 205.333 66.6924Z" fill="white"/>
<path d="M311.354 36.7077L290.309 36.6121L287.281 50.8257H278.703C277.201 50.8459 275.617 50.8575 273.959 50.8575L277.007 36.5542L265.78 36.5021L268.716 23.2033L279.841 23.2526L284.684 0.525391H297.997L293.143 23.3133L300.935 23.3481C307.915 23.3799 313.024 29.9309 311.354 36.7077Z" fill="white"/>
<path d="M302.966 80.9216L300.164 94.064H288.148C276.103 94.064 267.12 82.9653 269.63 71.1863L271.152 64.0448C276.511 63.8914 281.006 63.7843 284.538 63.7148L283.102 70.4626C281.953 75.8499 286.061 80.9216 291.567 80.9216H302.966Z" fill="white"/>
<path d="M327.864 63.2617L321.484 94.0654H308.168L314.693 63.3978L327.864 63.2617Z" fill="white"/>
<path d="M362.436 23.25L359.657 36.3056H344.459C338.047 36.3056 332.515 40.8099 331.215 47.0888L330.439 50.8289H317.369L320.047 38.2422C321.908 29.4999 329.629 23.25 338.565 23.25H362.436Z" fill="white"/>
<path fill-rule="evenodd" clip-rule="evenodd" d="M188.738 42.9508L188.692 43.1882C183.368 42.2416 178.033 41.1879 172.724 40.0155C172.75 40.0473 172.773 40.0792 172.797 40.111C171.228 38.0876 168.773 36.7617 165.962 36.7617H159.243C150.24 34.388 141.44 31.6408 133.08 28.4739C129.872 27.2581 126.674 26.0596 123.492 24.8843C125.478 24.0217 127.661 23.5498 129.939 23.5498H172.823C183.062 23.5498 190.742 32.9145 188.738 42.9508Z" fill="white"/>
<path fill-rule="evenodd" clip-rule="evenodd" d="M183.786 67.7832L181.148 81.0125C179.634 88.6027 172.97 94.0681 165.233 94.0681H122.346C112.11 94.0681 104.43 84.7034 106.433 74.6642L106.812 72.7565C111.178 72.3628 115.676 71.9894 120.308 71.642C120.311 71.587 120.317 71.532 120.323 71.477C119.865 76.4763 123.808 80.9025 128.943 80.9025H161.009C165.183 80.9025 168.764 77.9237 169.52 73.8189L170.501 68.5098C175.014 68.2551 179.446 68.0148 183.786 67.7832Z" fill="white"/>
<path fill-rule="evenodd" clip-rule="evenodd" d="M330.44 50.8252L327.867 63.2613L314.696 63.3973L317.37 50.8252H330.44Z" fill="white"/>
<path fill-rule="evenodd" clip-rule="evenodd" d="M287.279 50.8252L284.532 63.7158C281 63.7853 276.505 63.8924 271.146 64.0458L273.957 50.857C275.616 50.857 277.199 50.8455 278.702 50.8252H287.279Z" fill="white"/>
<path d="M98.0625 73.5967L93.9808 94.0659H80.7979L84.7087 75.0702C88.9989 74.5578 93.4511 74.0627 98.0625 73.5967Z" fill="white"/>
<path d="M14.6443 88.2812L13.4603 94.0651H0.358398L0.456821 93.5874C3.22426 92.1255 7.94281 90.2902 14.6443 88.2812Z" fill="white"/>
<path d="M56.5552 79.0557L53.4838 94.0653H40.3848L42.9554 81.5076C47.1905 80.6796 51.7208 79.8575 56.5552 79.0557Z" fill="white"/>
<path fill-rule="evenodd" clip-rule="evenodd" d="M84.9634 23.5479H14.7555L12.1646 36.5311H82.028C87.5079 36.5311 91.6099 41.5623 90.5041 46.9322L84.7086 75.0697C88.9987 74.5574 93.451 74.0623 98.0624 73.5962L103.531 46.1824C105.867 34.4729 96.9074 23.5479 84.9634 23.5479ZM51.7425 38.5574L42.951 81.5078H42.9539C47.189 80.6799 51.7193 79.8578 56.5537 79.0559L62.2159 51.3902C63.5736 44.7639 58.5077 38.5574 51.7425 38.5574ZM11.7188 38.5574L0.458008 93.5878C3.22545 92.126 7.944 90.2907 14.6455 88.2817L22.1952 51.3902C23.5499 44.7639 18.4869 38.5574 11.7188 38.5574Z" fill="white"/>
<path fill-rule="evenodd" clip-rule="evenodd" d="M208.676 48.8968C208.676 48.8303 208.673 48.7608 208.668 48.6913C208.665 48.6016 208.659 48.5118 208.65 48.425C208.644 48.3352 208.636 48.2484 208.627 48.1587C208.618 48.0689 208.61 47.9821 208.598 47.8952C208.589 47.8084 208.578 47.7216 208.561 47.6347C208.549 47.5594 208.537 47.4871 208.526 47.4118C208.511 47.3134 208.491 47.2149 208.471 47.1165C208.436 46.9457 208.396 46.775 208.352 46.6071C208.335 46.5289 208.312 46.4536 208.291 46.3784C208.288 46.3639 208.286 46.3494 208.28 46.3349C208.271 46.3002 208.259 46.2683 208.251 46.2336H208.248C204.453 45.7241 200.62 45.1625 196.764 44.5488L192.098 67.3484C196.619 67.1168 201.034 66.8997 205.333 66.6912L208.462 51.3922C208.488 51.2561 208.514 51.12 208.537 50.9811C208.561 50.845 208.581 50.709 208.598 50.5729C208.621 50.3906 208.642 50.2111 208.653 50.0316C208.665 49.855 208.673 49.6784 208.679 49.5018V49.4903C208.679 49.3948 208.679 49.2992 208.679 49.2037C208.679 49.1024 208.679 48.9982 208.673 48.8968H208.676ZM244.23 49.7913L241.072 65.1252C245.692 64.9428 250.063 64.7807 254.168 64.633L256.994 50.4687C252.941 50.3037 248.671 50.0808 244.23 49.7913Z" fill="white"/>
<path fill-rule="evenodd" clip-rule="evenodd" d="M436.322 63.0412H359.905L356.367 63.0007C356.454 62.7025 356.547 62.413 356.645 62.1265C356.671 62.0541 356.697 61.9817 356.723 61.9093C356.807 61.6749 356.9 61.4433 356.992 61.2146C356.995 61.2146 356.995 61.2117 356.995 61.2117C357.091 60.983 357.192 60.7572 357.296 60.5343C357.349 60.4243 357.401 60.3143 357.456 60.2043C357.499 60.1233 357.54 60.0422 357.58 59.9611C357.653 59.8251 357.725 59.6948 357.8 59.5617C357.858 59.4574 357.919 59.3532 357.98 59.249C358.04 59.1448 358.104 59.0435 358.168 58.9422C358.231 58.8408 358.295 58.7395 358.362 58.6411C358.425 58.5398 358.492 58.4414 358.561 58.3459C358.7 58.1432 358.845 57.9435 358.993 57.7495C359.062 57.6627 359.129 57.5758 359.198 57.4919C359.433 57.1995 359.676 56.9158 359.931 56.6437C359.997 56.5713 360.064 56.5019 360.13 56.4324C360.313 56.2442 360.498 56.0618 360.689 55.8824C360.84 55.7405 360.996 55.6016 361.152 55.4655C361.338 55.3034 361.532 55.1471 361.725 54.9937C361.824 54.9155 361.922 54.8402 362.021 54.7679C362.192 54.6376 362.365 54.5131 362.545 54.3886C362.571 54.3684 362.597 54.351 362.626 54.3336C362.721 54.2671 362.82 54.2034 362.915 54.1368C363.341 53.8618 363.778 53.6042 364.23 53.3639C364.331 53.3089 364.435 53.2539 364.539 53.2018C364.603 53.167 364.67 53.1352 364.733 53.1033C364.826 53.057 364.921 53.0107 365.017 52.9673C365.778 52.6055 366.571 52.2928 367.394 52.0293C367.495 51.9946 367.596 51.9628 367.697 51.9338C367.972 51.847 368.25 51.7688 368.534 51.6965C368.661 51.6617 368.789 51.6299 368.916 51.6009C369.046 51.5691 369.174 51.5402 369.304 51.5112C369.434 51.4823 369.565 51.4533 369.695 51.4272C369.79 51.407 369.889 51.3867 369.987 51.3694C370.094 51.3491 370.202 51.3288 370.309 51.3114C370.433 51.2883 370.56 51.268 370.685 51.2478C370.795 51.2304 370.905 51.213 371.018 51.1985C371.241 51.1638 371.467 51.1349 371.692 51.1117C371.826 51.0943 371.959 51.0799 372.095 51.0683C372.231 51.0538 372.367 51.0422 372.506 51.0307C372.558 51.0249 372.613 51.022 372.668 51.0191C372.888 51.0017 373.108 50.9872 373.331 50.9757C373.467 50.9699 373.606 50.9641 373.745 50.9612C373.861 50.9554 373.973 50.9525 374.086 50.9525C374.251 50.9496 374.419 50.9467 374.584 50.9467H410.13H423.454H438.16H438.3L438.322 50.8251L439.567 44.2539L452.831 56.9708L435.164 69.3693L436.322 63.0412Z" fill="white"/>
<path fill-rule="evenodd" clip-rule="evenodd" d="M133.077 28.4743C129.869 27.2585 126.671 26.0601 123.489 24.8848C123.472 24.8935 123.452 24.9021 123.434 24.9079C123.304 24.9658 123.174 25.0237 123.046 25.0845C122.899 25.154 122.754 25.2264 122.609 25.2987C122.465 25.3711 122.323 25.4464 122.181 25.5245C122.048 25.5969 121.915 25.6693 121.784 25.7474C121.469 25.9298 121.159 26.1238 120.858 26.3264C120.751 26.3988 120.644 26.474 120.54 26.5493C120.418 26.6332 120.299 26.7201 120.181 26.8098C119.775 27.1138 119.387 27.4351 119.014 27.7796C118.901 27.878 118.791 27.9822 118.681 28.0893C118.247 28.5033 117.839 28.9433 117.454 29.4065C117.387 29.4875 117.32 29.5686 117.257 29.6496C117.245 29.6612 117.234 29.6757 117.225 29.6902C117.158 29.7741 117.095 29.8552 117.031 29.9391C116.959 30.0289 116.889 30.1215 116.825 30.2141C116.762 30.301 116.698 30.3878 116.637 30.4746C116.629 30.4862 116.62 30.4978 116.611 30.5123C116.55 30.602 116.49 30.6918 116.429 30.7815C116.302 30.9726 116.177 31.1665 116.058 31.3634C115.998 31.4618 115.94 31.5631 115.882 31.6615C115.766 31.8642 115.653 32.0668 115.546 32.2723C115.494 32.3737 115.442 32.4779 115.39 32.5821C115.338 32.6863 115.288 32.7934 115.236 32.8976C115.181 33.0163 115.126 33.135 115.074 33.2537C114.987 33.4563 114.903 33.6589 114.822 33.8645C114.747 34.0584 114.675 34.2524 114.608 34.4492C114.431 34.95 114.281 35.4653 114.156 35.9893C114.136 36.0703 114.119 36.1514 114.099 36.2353C114.072 36.3598 114.046 36.4814 114.02 36.6059L106.809 72.7563C111.175 72.3626 115.673 71.9891 120.305 71.6418C120.308 71.5868 120.314 71.5318 120.32 71.4768C120.331 71.3465 120.346 71.2162 120.366 71.0831C120.363 71.0802 120.366 71.0744 120.369 71.0686C120.383 70.9383 120.403 70.8081 120.43 70.6778L125.38 43.8458C126.138 39.7409 129.719 36.7622 133.893 36.7622H159.24C150.237 34.3884 141.437 31.6413 133.077 28.4743ZM172.721 40.016C172.747 40.0478 172.771 40.0796 172.794 40.1115C172.837 40.1665 172.881 40.2215 172.918 40.2765C172.962 40.3315 173.002 40.3865 173.04 40.4444C173.202 40.6702 173.35 40.9047 173.486 41.1449C173.515 41.1942 173.541 41.2433 173.57 41.2926C173.645 41.4315 173.717 41.5734 173.781 41.7152C173.81 41.7731 173.836 41.831 173.862 41.8889C173.897 41.9584 173.926 42.0279 173.955 42.1002C173.978 42.1523 173.998 42.2073 174.018 42.2623C174.056 42.3492 174.088 42.436 174.117 42.5229C174.149 42.6097 174.177 42.6937 174.204 42.7805C174.221 42.8268 174.235 42.8731 174.247 42.9194C174.276 43.015 174.305 43.1105 174.328 43.206C174.357 43.3132 174.383 43.4232 174.409 43.5303C174.438 43.6518 174.461 43.7734 174.481 43.8979C174.493 43.9587 174.502 44.0195 174.51 44.0803C174.516 44.0976 174.519 44.115 174.519 44.1324C174.531 44.1961 174.539 44.2569 174.545 44.3205C174.56 44.4074 174.568 44.4942 174.574 44.584C174.58 44.639 174.586 44.694 174.589 44.749C174.597 44.8503 174.606 44.9545 174.606 45.0587C174.612 45.1716 174.615 45.2874 174.615 45.4003C174.615 45.9214 174.568 46.4511 174.47 46.9867L170.498 68.5096C175.011 68.2549 179.443 68.0146 183.782 67.783L188.689 43.1887C183.366 42.2421 178.03 41.1884 172.721 40.016Z" fill="white"/>
</svg>
