<svg width="40" height="36" viewBox="0 0 40 36" fill="none" xmlns="http://www.w3.org/2000/svg">
<path d="M15.8484 35.907C14.4987 35.5593 13.6715 34.4313 13.6885 32.9927C12.3127 32.7503 11.327 31.5177 11.4632 30.0657C10.0396 29.889 9.08474 28.5859 9.16399 27.1363C7.51887 26.8669 6.58243 25.3222 7.05488 23.6555C7.13337 23.3775 7.47347 22.9037 7.48194 22.8222C7.51733 22.4601 6.4647 21.8098 6.13075 21.6973C5.3559 23.1509 4.38175 23.3434 2.97209 22.6423C1.11767 21.7211 -0.492826 20.9701 0.679843 18.596C2.48194 14.9473 4.78034 11.385 6.67938 7.77668C7.2988 7.22296 7.89283 6.99719 8.70693 7.25544C9.21555 7.41704 11.3501 8.64568 11.6563 9.04096C12.1503 9.67865 12.1711 10.4098 11.9348 11.1632L13.8462 11.6828C14.1563 11.4285 14.481 11.2051 14.8511 11.0507C16.003 10.5714 19.7219 10.2054 21.0323 10.2126C21.3385 10.2142 21.8356 10.3377 22.1449 10.4177C23.046 10.649 25.2566 11.728 25.9469 11.728C26.1315 11.728 27.8159 11.2558 27.8728 11.1711C27.9405 10.9445 27.7759 10.7465 27.7513 10.497C27.6866 9.84263 27.9859 9.13286 28.4946 8.73202C28.9024 8.40961 30.4744 7.50497 30.9546 7.31168C31.7132 7.0067 32.5504 7.13741 33.1275 7.75212C33.4676 8.11414 34.321 9.70638 34.551 10.2165C34.6157 10.3599 34.7296 10.5817 34.7296 10.7338C34.7296 11.4309 33.887 11.7882 33.393 11.3295C32.9521 10.9208 32.5096 9.51705 32.0711 8.97522C31.9833 8.86669 31.9241 8.75975 31.771 8.73519C31.3377 8.97442 29.5603 9.78084 29.3718 10.1135C29.3341 10.1801 29.294 10.2435 29.304 10.3258L35.2143 21.1531C35.3482 21.3994 35.5444 21.523 35.8168 21.4082C36.1785 21.1111 37.9059 20.3712 38.0113 20.0235C38.0544 19.8825 38.019 19.8492 37.9836 19.7304C37.7605 18.9897 36.8795 17.9813 36.5986 17.1994C36.3554 16.3558 37.2542 15.8092 37.8875 16.3463L39.5772 19.4682V20.3379C39.3995 20.7261 39.2825 21.1008 38.9586 21.4002C38.6862 21.6529 36.4547 22.9196 36.1261 22.9901C34.9527 23.2404 34.2333 22.701 33.6954 21.6862C33.3699 21.8185 32.3196 22.4641 32.3542 22.8237C32.3619 22.9053 32.702 23.3798 32.7813 23.6571C33.256 25.3317 32.3196 26.8495 30.676 27.1418C30.7391 28.6081 29.8065 29.8843 28.3722 30.0665C28.5123 32.0936 26.7863 33.3753 24.9142 32.9103C24.5472 34.7014 22.5958 35.5339 21.0577 34.615C20.8645 34.4994 19.9673 33.685 19.8888 33.6993C18.8816 34.4748 18.0075 35.5308 16.7686 35.907H15.8468H15.8484ZM8.06519 8.73361L7.86667 8.84055L1.80788 19.8405C1.78788 19.9268 1.81327 20.0013 1.84943 20.0773C2.0041 20.4029 3.7 21.1364 4.07858 21.4264L4.40407 21.4018L10.5167 10.3765L10.3159 9.94403L8.06519 8.73281V8.73361ZM32.8913 20.3292L28.7539 12.6263C28.6485 12.5621 26.7433 13.2347 26.3878 13.2814C24.8334 13.485 23.0598 12.1597 21.5347 11.9141C20.5814 11.7612 16.1746 12.1644 15.3344 12.5748C14.2733 13.0937 15.4382 14.5203 16.19 14.8063C17.5774 15.3339 19.2248 14.594 20.7237 14.7247C22.5497 14.8847 24.2356 16.3106 25.6698 17.38C27.5297 18.7655 29.321 20.2548 31.0923 21.7567C31.6225 21.199 32.1588 20.6089 32.8913 20.3284V20.3292ZM19.7373 30.0062C19.8896 30.1599 20.1735 30.5671 20.2636 30.7691C20.4305 31.1438 20.4998 32.088 20.6037 32.237C20.6683 32.3297 21.8902 33.2747 22.0126 33.3159C23.0829 33.6819 23.8762 32.5427 23.1845 31.6357C22.8975 31.2594 21.8756 30.6867 21.7433 30.3524C21.4547 29.6228 22.0318 28.9725 22.7566 29.2307C23.253 29.4074 24.5003 30.739 25.0704 31.1169C26.3439 31.9613 27.3581 30.5505 26.554 29.5904C26.0761 29.02 24.995 28.4013 24.4133 27.8421C24.1409 27.5799 23.8631 27.3787 23.9139 26.943C23.977 26.4003 24.5703 26.1183 25.0443 26.3235C25.7968 26.8471 26.4847 27.5862 27.2203 28.1138C27.6281 28.4061 27.8959 28.5946 28.4222 28.4148C29.1178 28.1779 29.274 27.2479 28.8277 26.6958C28.3237 26.0724 26.9718 25.399 26.534 24.7883C26.0153 24.0666 26.6909 23.2182 27.502 23.5557C28.0606 23.7878 29.0717 24.9729 29.6772 25.3476C30.3705 25.7769 31.2639 25.5195 31.3562 24.633C31.4124 24.0904 31.13 23.8306 30.7837 23.4979C29.8134 22.5655 28.4338 21.5547 27.3604 20.6984C25.7999 19.4523 22.3542 16.4651 20.4936 16.3043C19.3948 16.2092 18.2976 16.6647 17.1888 16.6227C15.1712 16.5459 13.6662 15.3323 13.3153 13.2584L11.0861 12.6215L6.94485 20.3276C7.67738 20.6081 8.2137 21.1982 8.74387 21.7559C10.1882 20.654 11.4001 18.8225 13.4307 19.7003C14.2356 20.048 14.608 20.7419 14.9704 21.5111C16.961 20.8069 18.947 22.533 18.423 24.6845C18.3384 25.0315 18.1391 25.2913 18.0775 25.6272C19.284 26.1762 19.775 27.6028 19.3594 28.8885C19.2794 29.1365 19.1055 29.2893 19.0701 29.5389C19.2979 29.6617 19.5541 29.8193 19.738 30.0047L19.7373 30.0062ZM12.2973 21.0612C12.1264 21.0818 11.861 21.2347 11.7079 21.3305C11.2523 21.6149 8.97394 23.4773 8.70616 23.8535C8.00441 24.8398 9.02164 25.9884 10.0658 25.4109L13.2368 22.7469C13.7223 22.0395 13.1591 20.9598 12.2973 21.062V21.0612ZM15.7529 22.9616C15.6098 22.983 15.4413 23.0693 15.3159 23.1477L11.0446 26.6554C10.2728 27.625 11.1877 28.9115 12.2903 28.3332L16.6571 24.7653C17.3057 23.9866 16.7633 22.8119 15.7529 22.9616ZM13.2637 29.6102C12.5781 30.5029 13.3653 31.7141 14.4318 31.326L17.7328 28.6382C18.333 27.6892 17.5143 26.535 16.4616 27.0143L13.2637 29.611V29.6102ZM17.7489 30.8649C17.6297 30.8855 17.5258 30.9489 17.4204 31.0044C17.178 31.1311 15.536 32.4817 15.4321 32.6735C14.9173 33.624 15.8014 34.6903 16.8233 34.1841C17.0587 34.0676 18.6923 32.6988 18.7985 32.5023C19.2217 31.7229 18.6577 30.7105 17.7489 30.8657V30.8649Z" fill="url(#paint0_linear_1_3150)"/>
<path d="M19.7444 0.355003C20.2422 0.256775 20.6277 0.572847 20.6877 1.08696C20.777 1.85852 20.7916 4.53047 20.6808 5.27273C20.5469 6.175 19.2642 6.19876 19.148 5.20064C19.058 4.42829 19.0442 1.75792 19.155 1.01487C19.2019 0.6988 19.4343 0.415999 19.7451 0.355003H19.7444Z" fill="#FF8303"/>
<path d="M14.259 7.42692L12.0421 3.82022C11.7213 2.9433 12.727 2.30561 13.3433 2.95518L15.5047 6.50009C15.7625 7.37068 14.9707 7.93073 14.2582 7.42692H14.259Z" fill="#FF8303"/>
<path d="M25.5757 7.42688C24.9332 7.98456 24.0345 7.31519 24.3292 6.50005L26.5483 2.89652C27.2285 2.36974 28.0749 2.96069 27.7918 3.82097L25.5749 7.42767L25.5757 7.42688Z" fill="#FF8303"/>
<path d="M35.0727 13.248C35.7544 12.5462 36.8963 13.5649 36.2007 14.3697C35.5013 15.1785 34.3471 13.995 35.0727 13.248Z" fill="#FF8303"/>
<defs>
<linearGradient id="paint0_linear_1_3150" x1="19.9292" y1="7.14893" x2="19.9292" y2="41.8402" gradientUnits="userSpaceOnUse">
<stop stop-color="#047CF4"/>
<stop offset="1" stop-color="#0431D7"/>
</linearGradient>
</defs>
</svg>
