<svg width="40" height="40" viewBox="0 0 40 40" fill="none" xmlns="http://www.w3.org/2000/svg">
<path d="M7.22055 29.1687C6.57688 29.1687 6.05298 29.6926 6.05298 30.3362V31.7123H5.14622C4.18287 31.7123 3.39932 32.4959 3.39932 33.4592V35.5476C3.39932 35.8725 3.6627 36.1359 3.98755 36.1359H25.7496C26.7756 37.1211 28.0592 38.0061 29.6416 38.791C29.8831 38.9107 30.1499 38.9708 30.4165 38.9708C30.6569 38.9708 30.897 38.9219 31.1176 38.8231C34.2797 37.4083 36.3839 35.2173 37.5503 32.1259C37.6255 31.9263 37.6637 31.7146 37.6637 31.4963V25.2165C37.6637 24.3918 37.0844 23.6732 36.2859 23.5075C33.8882 23.0118 31.4806 22.8219 29.0875 22.9283V22.2181C29.0875 21.8933 28.8241 21.6299 28.4993 21.6299C28.1744 21.6299 27.911 21.8933 27.911 22.2181V23.009C27.1381 23.0754 26.3673 23.1716 25.5992 23.3011V20.5531H29.2176C29.8613 20.5531 30.3849 20.0292 30.3849 19.3855V17.9827H30.5696C31.5326 17.9827 32.3162 17.1992 32.3162 16.2361V15.1774H32.5256C34.0214 15.1774 34.6722 13.2868 33.4955 12.366L30.2585 9.83099C30.0026 9.63051 29.6332 9.6756 29.4328 9.93123C29.2323 10.1872 29.2774 10.5568 29.533 10.757L32.77 13.2923C33.0677 13.525 32.9047 14.0009 32.5256 14.0009C13.5828 14.0009 37.0621 14.0009 3.91229 14.0009C3.53376 14.0009 3.37002 13.5254 3.66815 13.292L17.5104 2.45163C17.9277 2.12448 18.511 2.12505 18.9278 2.45163L27.3397 9.0394C27.596 9.24017 27.965 9.1945 28.1655 8.93916C28.366 8.68324 28.3209 8.31359 28.0653 8.11339L19.6533 1.52562C18.8092 0.864144 17.6296 0.863568 16.7848 1.52562L2.94263 12.3658C1.76454 13.2883 2.41867 15.1774 3.9123 15.1774H4.12169V16.2361C4.12169 17.1992 4.90524 17.9827 5.86859 17.9827H6.05299V19.3855C6.05299 20.0292 6.57689 20.5531 7.22055 20.5531H7.34981V29.1687H7.22055ZM7.22055 30.3451C7.91735 30.3438 12.0488 30.3361 11.9893 30.3362V31.7123H7.22675L7.22055 30.3451ZM4.57579 33.4592C4.57579 33.1447 4.83171 32.8888 5.14622 32.8888C30.8078 32.889 21.2277 32.8955 23.4878 32.8888C23.789 33.62 24.1777 34.3119 24.6735 34.9594H4.57579V33.4592ZM15.7215 30.3451C16.301 30.3441 20.721 30.336 20.6351 30.3362V31.7123H15.7277L15.7215 30.3451ZM15.7304 17.9847H20.6377L20.644 19.3766C20.0645 19.3777 15.6445 19.3857 15.7304 19.3855L15.7304 17.9847ZM17.0272 20.5531H19.3383V29.1687H17.0272V20.5531ZM36.0472 24.6595C36.3023 24.7124 36.4873 24.9467 36.4873 25.2165V31.4963C36.4873 31.571 36.4743 31.6451 36.4496 31.7103C35.3995 34.4935 33.4981 36.469 30.6371 37.7492C30.4897 37.8152 30.3125 37.8109 30.1643 37.7368C28.5922 36.9572 27.3513 36.1039 26.3977 35.1492C26.3857 35.1363 26.3727 35.1257 26.3596 35.1139C25.3649 34.1077 24.6902 32.988 24.3075 31.7149C24.2912 31.6603 24.2828 31.6 24.2828 31.536V25.2147C24.2828 24.9447 24.4672 24.7104 24.7211 24.6572C26.5844 24.2669 28.4671 24.0719 30.3573 24.0719C32.2513 24.0719 34.153 24.2678 36.0472 24.6595ZM24.3041 19.3855V17.9847H29.2113L29.2176 19.3766C29.046 19.3769 24.0851 19.3859 24.3041 19.3855ZM24.2949 20.5531H24.4227V23.5228C23.6574 23.7118 23.1064 24.4114 23.1064 25.2147V31.536C23.1064 31.5957 23.1133 31.6539 23.1188 31.7123H21.8116V30.3362C21.8116 29.6925 21.2876 29.1687 20.644 29.1687H20.5147V20.5531H20.644C21.2877 20.5531 21.8116 20.0292 21.8116 19.3855V17.9827H23.1276V19.3855C23.1276 20.0292 23.6512 20.5531 24.2949 20.5531ZM5.29815 16.2361V15.1774H31.1397V16.2361C31.1397 16.5506 30.8841 16.8062 30.5696 16.8062H5.86858C5.55407 16.8062 5.29815 16.5506 5.29815 16.2361ZM7.22945 17.9847H11.9919L11.9982 19.3766C11.3014 19.3779 7.17 19.3856 7.22945 19.3855V17.9847ZM8.52627 20.5531H10.6925V22.0673C10.6925 22.3922 10.9559 22.6556 11.2808 22.6556C11.6056 22.6556 11.869 22.3922 11.869 22.0673V20.5531H11.9982C12.6419 20.5531 13.1658 20.0292 13.1658 19.3855V17.9827H14.554V19.3855C14.554 20.0292 15.0779 20.5531 15.7215 20.5531H15.8508V29.1687H15.7215C15.0778 29.1687 14.554 29.6926 14.554 30.3362V31.7123H13.1658V30.3362C13.1658 29.6926 12.6419 29.1687 11.9982 29.1687H11.869V24.2856C11.869 23.9607 11.6056 23.6973 11.2807 23.6973C10.9559 23.6973 10.6925 23.9607 10.6925 24.2856V29.1687H8.52626L8.52627 20.5531Z" fill="url(#paint0_linear_153_1431)"/>
<path d="M15.2525 9.03051C15.2525 10.6634 16.5832 11.9921 18.2189 11.9921C19.8547 11.9921 21.1857 10.6634 21.1857 9.03051C21.1857 7.39189 19.8547 6.05859 18.2189 6.05859C16.5832 6.05859 15.2525 7.39189 15.2525 9.03051ZM20.0092 9.03051C20.0092 10.0148 19.2061 10.8156 18.2189 10.8156C17.232 10.8156 16.429 10.0148 16.429 9.03051C16.429 8.04044 17.232 7.23506 18.2189 7.23506C19.2061 7.23506 20.0092 8.04044 20.0092 9.03051Z" fill="url(#paint1_linear_153_1431)"/>
<path d="M30.1586 36.4512C30.3218 36.5385 30.5233 36.546 30.6997 36.4578C32.9125 35.3451 34.4187 33.726 35.3045 31.5087C35.3321 31.4392 35.3464 31.3651 35.3464 31.2904V26.1761C35.3464 25.8894 35.1396 25.6444 34.8573 25.5962C31.8543 25.0838 28.8819 25.0809 25.9125 25.5916C25.6302 25.6398 25.4237 25.8848 25.4237 26.1712V31.3708C25.4237 31.4334 25.4337 31.4958 25.4533 31.5552C26.0961 33.5034 27.635 35.105 30.1586 36.4512ZM26.6001 26.6718C29.1197 26.2887 31.6237 26.2918 34.1699 26.677V31.1755C33.4186 32.9959 32.2274 34.3039 30.4418 35.2659C28.3712 34.1124 27.1444 32.8365 26.6001 31.2737V26.6718Z" fill="#FF8303"/>
<path d="M29.2047 32.0814C29.434 32.3107 29.8064 32.3115 30.0365 32.0814L32.6836 29.434C32.9133 29.2042 32.9133 28.832 32.6836 28.6022C32.4538 28.3724 32.0815 28.3724 31.8518 28.6022L29.6206 30.8337L28.9178 30.1308C28.688 29.901 28.3157 29.901 28.086 30.1308C27.8562 30.3606 27.8562 30.7328 28.086 30.9626L29.2047 32.0814Z" fill="#FF8303"/>
<defs>
<linearGradient id="paint0_linear_153_1431" x1="25.0853" y1="38.9707" x2="28.921" y2="-3.45542" gradientUnits="userSpaceOnUse">
<stop stop-color="#1D3FF0"/>
<stop offset="1" stop-color="#215CFF"/>
</linearGradient>
<linearGradient id="paint1_linear_153_1431" x1="19.0732" y1="11.9921" x2="19.6323" y2="5.35009" gradientUnits="userSpaceOnUse">
<stop stop-color="#1D3FF0"/>
<stop offset="1" stop-color="#215CFF"/>
</linearGradient>
</defs>
</svg>
