<svg width="40" height="40" viewBox="0 0 40 40" fill="none" xmlns="http://www.w3.org/2000/svg">
<g clip-path="url(#clip0_153_1432)">
<path d="M26.7879 20C26.7879 16.2424 23.7576 13.2121 20 13.2121C16.2424 13.2121 13.2121 16.2424 13.2121 20C13.2121 23.7576 16.2424 26.7879 20 26.7879C23.7576 26.7879 26.7879 23.7576 26.7879 20ZM20 25.6363C16.9091 25.6363 14.3636 23.0909 14.3636 20C14.3636 16.9091 16.9091 14.4242 20 14.4242C23.0909 14.4242 25.5758 16.9091 25.5758 20C25.6364 23.0909 23.0909 25.6363 20 25.6363Z" fill="url(#paint0_linear_153_1432)"/>
<path d="M22.2705 24.1765C22.1326 24.1765 22.0073 24.1564 21.8984 24.1172C21.7901 24.0786 21.6865 24.0154 21.5908 23.93C21.4946 23.8443 21.4028 23.7417 21.3191 23.6249C21.2338 23.5058 21.1486 23.3845 21.0662 23.2644L19.9363 21.5354H18.0233V23.3083C18.0233 23.5958 17.9565 23.8146 17.8251 23.9596C17.6923 24.1054 17.5266 24.1763 17.319 24.1763C17.104 24.1763 16.937 24.1046 16.8082 23.9573C16.6796 23.811 16.6144 23.5925 16.6144 23.3083V21.5354H15.5195C15.2331 21.5354 15 21.3028 15 21.0169C15 20.731 15.2331 20.4984 15.5195 20.4984H16.6144V19.6134H15.5195C15.2331 19.6135 15 19.3808 15 19.0951C15 18.8093 15.2331 18.5765 15.5195 18.5765H16.6144V17.2843C16.6144 17.0346 16.6416 16.8384 16.6952 16.7013C16.7622 16.5427 16.8676 16.4202 17.0192 16.3223C17.1707 16.2242 17.3299 16.1765 17.5058 16.1765C17.6417 16.1765 17.7597 16.1986 17.8557 16.2426C17.9543 16.2875 18.0379 16.3459 18.1113 16.4211C18.186 16.4974 18.2633 16.5976 18.3412 16.7184C18.4213 16.8428 18.504 16.9723 18.5917 17.1106L19.5623 18.5765H21.7049V17.0447C21.7049 16.7534 21.7674 16.5332 21.8906 16.39C22.0143 16.2463 22.177 16.1765 22.388 16.1765C22.6061 16.1765 22.7733 16.2465 22.8988 16.3903C23.0237 16.5334 23.0869 16.7537 23.0869 17.0447V18.5765H24.1948C24.4812 18.5765 24.7143 18.8091 24.7143 19.0951C24.7143 19.381 24.4812 19.6135 24.1948 19.6135H23.0869V20.4986H24.1948C24.4812 20.4986 24.7143 20.7311 24.7143 21.0171C24.7143 21.303 24.4812 21.5354 24.1948 21.5354H23.0869V23.186C23.0869 23.8525 22.8199 24.1765 22.2705 24.1765ZM17.8518 21.1932H20.0293C20.0871 21.1932 20.1412 21.2224 20.1728 21.2707L21.3515 23.0744C21.4301 23.1896 21.5144 23.3089 21.598 23.4259C21.667 23.5219 21.7415 23.6056 21.8195 23.675C21.8822 23.7311 21.9476 23.7715 22.0146 23.7953C22.0865 23.8215 22.1724 23.8345 22.2706 23.8345C22.4703 23.8345 22.7442 23.8345 22.7442 23.1861V21.3643C22.7442 21.2698 22.8211 21.1932 22.9156 21.1932H24.1949C24.2924 21.1932 24.3715 21.1141 24.3715 21.0169C24.3715 20.9197 24.2924 20.8406 24.1949 20.8406H22.9155C22.8208 20.8406 22.744 20.764 22.744 20.6695V19.4423C22.744 19.3479 22.8208 19.2712 22.9155 19.2712H24.1948C24.2922 19.2712 24.3714 19.1923 24.3714 19.0951C24.3714 18.9978 24.2922 18.9188 24.1948 18.9188H22.9155C22.8208 18.9188 22.744 18.8421 22.744 18.7476V17.0447C22.744 16.788 22.6876 16.6694 22.64 16.615C22.5985 16.5673 22.5362 16.5187 22.388 16.5187C22.277 16.5187 22.2083 16.5459 22.1507 16.6129C22.104 16.6676 22.048 16.7867 22.048 17.0446V18.7475C22.048 18.842 21.9712 18.9187 21.8765 18.9187H19.47C19.4124 18.9187 19.3586 18.8898 19.3269 18.8419L18.3039 17.2965C18.2146 17.1562 18.1324 17.0274 18.0527 16.9037C17.9874 16.8021 17.9244 16.7202 17.8656 16.6601C17.8223 16.6155 17.7726 16.581 17.7132 16.5538C17.663 16.5309 17.5911 16.5187 17.5058 16.5187C17.3967 16.5187 17.3014 16.5475 17.2056 16.6095C17.1123 16.6698 17.051 16.74 17.0129 16.8301C16.9932 16.8803 16.9573 17.0129 16.9573 17.2843V18.7475C16.9573 18.842 16.8805 18.9187 16.7859 18.9187H15.5195C15.4221 18.9188 15.3429 18.9978 15.3429 19.0951C15.3429 19.1923 15.4221 19.2712 15.5195 19.2712H16.7859C16.8805 19.2712 16.9573 19.3479 16.9573 19.4423V20.6696C16.9573 20.7641 16.8805 20.8407 16.7859 20.8407H15.5195C15.4221 20.8406 15.3429 20.9198 15.3429 21.0169C15.3429 21.114 15.4221 21.1932 15.5195 21.1932H16.7859C16.8805 21.1932 16.9573 21.2698 16.9573 21.3643V23.3083C16.9573 23.5044 16.995 23.651 17.0663 23.7321C17.1288 23.8037 17.2042 23.8342 17.319 23.8342C17.429 23.8342 17.5042 23.8031 17.571 23.7296C17.6424 23.6511 17.6804 23.5053 17.6804 23.3086V21.3643C17.6804 21.2698 17.7572 21.1932 17.8518 21.1932ZM21.8763 22.5536C21.8198 22.5536 21.7655 22.5255 21.7332 22.4767L21.0593 21.4585C21.0247 21.4059 21.0216 21.3385 21.0517 21.2832C21.0816 21.2277 21.1398 21.1932 21.2024 21.1932H21.8763C21.9709 21.1932 22.0477 21.2698 22.0477 21.3643V22.3824C22.0477 22.458 21.9979 22.5246 21.9257 22.5464C21.9093 22.5512 21.8926 22.5536 21.8763 22.5536ZM21.5212 21.5354L21.7049 21.8129V21.5354H21.5212ZM21.8763 20.8406H20.7425C20.6849 20.8406 20.631 20.8118 20.5994 20.7638L19.7871 19.5366C19.7522 19.484 19.7491 19.4166 19.7791 19.3611C19.809 19.3058 19.8671 19.2711 19.9299 19.2711H21.8763C21.9709 19.2711 22.0477 19.3478 22.0477 19.4422V20.6695C22.0477 20.7641 21.9709 20.8406 21.8763 20.8406ZM20.8347 20.4984H21.7049V19.6134H20.2487L20.8347 20.4984ZM19.5752 20.8406H17.8518C17.7572 20.8406 17.6804 20.764 17.6804 20.6695V19.4423C17.6804 19.3479 17.7572 19.2712 17.8518 19.2712H18.7734C18.8312 19.2712 18.8853 19.3004 18.9169 19.3489L19.7188 20.5762C19.7532 20.6288 19.7559 20.6958 19.726 20.7511C19.696 20.8064 19.6381 20.8406 19.5752 20.8406ZM18.0233 20.4984H19.2587L18.6805 19.6134H18.0233V20.4984ZM18.3193 18.9189H17.8518C17.7572 18.9189 17.6804 18.8422 17.6804 18.7478V18.0323C17.6804 17.9565 17.7302 17.8898 17.8029 17.8682C17.8755 17.8468 17.954 17.8753 17.9954 17.9387L18.4628 18.6542C18.4972 18.7068 18.5001 18.774 18.4702 18.8292C18.4401 18.8843 18.3823 18.9189 18.3193 18.9189Z" fill="#FF8303"/>
<path d="M39.1515 7.21211L31.1515 0.727263C30.9697 0.606051 30.7273 0.545445 30.5455 0.666657C30.303 0.787869 30.1818 0.969687 30.1818 1.21211V3.75757H20.6061C20.303 3.75757 20 3.99999 20 4.36363C20 4.66666 20.2424 4.96969 20.6061 4.96969H30.7273C31.0303 4.96969 31.3333 4.72726 31.3333 4.36363V2.42423L37.8788 7.69696L31.3333 12.9697V11.0303C31.3333 10.7273 31.0909 10.4242 30.7273 10.4242H20.6061C20.303 10.4242 20 10.6667 20 11.0303C20 11.3333 20.2424 11.6364 20.6061 11.6364H30.1212V14.1818C30.1212 14.4242 30.2424 14.6061 30.4848 14.7273C30.6667 14.8485 30.9091 14.7879 31.0909 14.6667L39.1515 8.18181C39.2727 8.0606 39.3939 7.87878 39.3939 7.69696C39.3939 7.51514 39.3333 7.33332 39.1515 7.21211Z" fill="url(#paint1_linear_153_1432)"/>
<path d="M8.78788 5.51515C9.33333 4.96969 8.48485 4.12121 7.93939 4.66666C7.81818 4.78788 7.75758 4.90909 7.75758 5.09091C7.75758 5.57575 8.42424 5.81818 8.78788 5.51515Z" fill="url(#paint2_linear_153_1432)"/>
<path d="M11.2727 5.63638H18.2424C18.5455 5.63638 18.8485 5.39395 18.8485 5.03032C18.8485 4.72729 18.6061 4.42426 18.2424 4.42426H11.2727C10.9697 4.42426 10.6667 4.66668 10.6667 5.03032C10.7273 5.39395 10.9697 5.63638 11.2727 5.63638Z" fill="url(#paint3_linear_153_1432)"/>
<path d="M7.57576 8.12118H12.2424C12.5455 8.12118 12.8485 7.87875 12.8485 7.51512C12.8485 7.21209 12.6061 6.90906 12.2424 6.90906H7.57576C7.27273 6.90906 6.9697 7.15148 6.9697 7.51512C6.9697 7.87875 7.21212 8.12118 7.57576 8.12118Z" fill="url(#paint4_linear_153_1432)"/>
<path d="M13.8788 9.27271C13.5758 9.27271 13.2727 9.51513 13.2727 9.87877C13.2727 10.2424 13.5152 10.4848 13.8788 10.4848H16.1818C16.4848 10.4848 16.7879 10.2424 16.7879 9.87877C16.7879 9.51513 16.5455 9.27271 16.1818 9.27271H13.8788Z" fill="url(#paint5_linear_153_1432)"/>
<path d="M5.0303 8.00001C5.57575 7.45456 4.72727 6.60607 4.18181 7.15153C4.0606 7.27274 3.99999 7.39395 3.99999 7.57577C4.0606 8.06062 4.66666 8.36365 5.0303 8.00001Z" fill="url(#paint6_linear_153_1432)"/>
<path d="M10.5454 9.45452C10.4242 9.57574 10.3636 9.69695 10.3636 9.87876C10.3636 10.4242 11.0303 10.6666 11.3939 10.303C11.5151 10.1818 11.5758 10.0606 11.5758 9.87876C11.5758 9.33331 10.9091 9.09089 10.5454 9.45452Z" fill="url(#paint7_linear_153_1432)"/>
<path d="M9.27272 29.5757H19.3939C19.697 29.5757 20 29.3333 20 28.9696C20 28.6666 19.7576 28.3636 19.3939 28.3636H9.81818V25.8181C9.81818 25.5757 9.69697 25.3939 9.45454 25.2727C9.27272 25.1515 9.0303 25.2121 8.84848 25.3333L0.84848 31.8787C0.666662 31.9393 0.606056 32.1212 0.606056 32.303C0.606056 32.4848 0.666662 32.6666 0.84848 32.7878L8.90909 39.2727C9.0909 39.3939 9.33333 39.4545 9.51515 39.3333C9.69697 39.2121 9.87878 39.0303 9.87878 38.7878V36.2424H19.3939C19.697 36.2424 20 35.9999 20 35.6363C20 35.3333 19.7576 35.0303 19.3939 35.0303H9.27272C8.96969 35.0303 8.66666 35.2727 8.66666 35.6363V37.5757L2.12121 32.303L8.66666 27.0302V28.9696C8.66666 29.2727 8.90909 29.5757 9.27272 29.5757Z" fill="url(#paint8_linear_153_1432)"/>
<path d="M31.2121 34.4848C31.0909 34.606 31.0303 34.7272 31.0303 34.9091C31.0303 35.0909 31.0909 35.2121 31.2121 35.3333C31.3333 35.4545 31.4545 35.5151 31.6364 35.5151C31.8182 35.5151 31.9394 35.4545 32.0606 35.3333C32.1818 35.2121 32.2424 35.0909 32.2424 34.9091C32.2424 34.7272 32.1818 34.606 32.0606 34.4848C31.8182 34.303 31.4545 34.303 31.2121 34.4848Z" fill="url(#paint9_linear_153_1432)"/>
<path d="M28.7273 34.3636H21.697C21.3939 34.3636 21.0909 34.6061 21.0909 34.9697C21.0909 35.2727 21.3333 35.5758 21.697 35.5758H28.6667C28.9697 35.5758 29.2727 35.3333 29.2727 34.9697C29.2727 34.6061 29.0303 34.3636 28.7273 34.3636Z" fill="url(#paint10_linear_153_1432)"/>
<path d="M32.4242 31.8788H27.7576C27.4545 31.8788 27.1515 32.1212 27.1515 32.4848C27.1515 32.7879 27.3939 33.0909 27.7576 33.0909H32.4242C32.7273 33.0909 33.0303 32.8485 33.0303 32.4848C33.0303 32.1212 32.7879 31.8788 32.4242 31.8788Z" fill="url(#paint11_linear_153_1432)"/>
<path d="M23.8182 29.5151C23.5152 29.5151 23.2121 29.7576 23.2121 30.1212C23.2121 30.4242 23.4545 30.7273 23.8182 30.7273H26.1212C26.4242 30.7273 26.7273 30.4848 26.7273 30.1212C26.7273 29.8182 26.4848 29.5151 26.1212 29.5151H23.8182Z" fill="url(#paint12_linear_153_1432)"/>
<path d="M34.9697 32C34.8485 32.1212 34.7879 32.2424 34.7879 32.4243C34.7879 32.6061 34.8485 32.7273 34.9697 32.8485C35.0909 32.9697 35.2121 33.0303 35.3939 33.0303C35.5758 33.0303 35.697 32.9697 35.8182 32.8485C35.9394 32.7273 36 32.6061 36 32.4243C36 32.2424 35.9394 32.1212 35.8182 32C35.5757 31.8182 35.1515 31.8182 34.9697 32Z" fill="url(#paint13_linear_153_1432)"/>
<path d="M29.4545 30.5454C29.5758 30.4242 29.6364 30.303 29.6364 30.1212C29.6364 29.9394 29.5758 29.8182 29.4545 29.697C29.2727 29.4545 28.8485 29.4545 28.6061 29.697C28.4848 29.8182 28.4242 29.9394 28.4242 30.1212C28.4242 30.303 28.4848 30.4242 28.6061 30.5454C28.7273 30.6667 28.8485 30.7273 29.0303 30.7273C29.2121 30.7273 29.3333 30.6667 29.4545 30.5454Z" fill="url(#paint14_linear_153_1432)"/>
</g>
<defs>
<linearGradient id="paint0_linear_153_1432" x1="21.9542" y1="26.7879" x2="23.2335" y2="11.591" gradientUnits="userSpaceOnUse">
<stop stop-color="#1D3FF0"/>
<stop offset="1" stop-color="#215CFF"/>
</linearGradient>
<linearGradient id="paint1_linear_153_1432" x1="32.4887" y1="14.7933" x2="33.4706" y2="-1.14624" gradientUnits="userSpaceOnUse">
<stop stop-color="#1D3FF0"/>
<stop offset="1" stop-color="#215CFF"/>
</linearGradient>
<linearGradient id="paint2_linear_153_1432" x1="8.53426" y1="5.6488" x2="8.63907" y2="4.35186" gradientUnits="userSpaceOnUse">
<stop stop-color="#1D3FF0"/>
<stop offset="1" stop-color="#215CFF"/>
</linearGradient>
<linearGradient id="paint3_linear_153_1432" x1="15.9353" y1="5.63638" x2="15.9524" y2="4.27012" gradientUnits="userSpaceOnUse">
<stop stop-color="#1D3FF0"/>
<stop offset="1" stop-color="#215CFF"/>
</linearGradient>
<linearGradient id="paint4_linear_153_1432" x1="10.7553" y1="8.12118" x2="10.779" y2="6.75512" gradientUnits="userSpaceOnUse">
<stop stop-color="#1D3FF0"/>
<stop offset="1" stop-color="#215CFF"/>
</linearGradient>
<linearGradient id="paint5_linear_153_1432" x1="15.5363" y1="10.4848" x2="15.5759" y2="9.1195" gradientUnits="userSpaceOnUse">
<stop stop-color="#1D3FF0"/>
<stop offset="1" stop-color="#215CFF"/>
</linearGradient>
<linearGradient id="paint6_linear_153_1432" x1="4.77667" y1="8.16045" x2="4.88636" y2="6.83391" gradientUnits="userSpaceOnUse">
<stop stop-color="#1D3FF0"/>
<stop offset="1" stop-color="#215CFF"/>
</linearGradient>
<linearGradient id="paint7_linear_153_1432" x1="11.1442" y1="10.4759" x2="11.2551" y2="9.13873" gradientUnits="userSpaceOnUse">
<stop stop-color="#1D3FF0"/>
<stop offset="1" stop-color="#215CFF"/>
</linearGradient>
<linearGradient id="paint8_linear_153_1432" x1="13.0947" y1="39.3994" x2="14.0767" y2="23.4598" gradientUnits="userSpaceOnUse">
<stop stop-color="#1D3FF0"/>
<stop offset="1" stop-color="#215CFF"/>
</linearGradient>
<linearGradient id="paint9_linear_153_1432" x1="31.8108" y1="35.5151" x2="31.9167" y2="34.2085" gradientUnits="userSpaceOnUse">
<stop stop-color="#1D3FF0"/>
<stop offset="1" stop-color="#215CFF"/>
</linearGradient>
<linearGradient id="paint10_linear_153_1432" x1="26.3596" y1="35.5758" x2="26.3766" y2="34.2095" gradientUnits="userSpaceOnUse">
<stop stop-color="#1D3FF0"/>
<stop offset="1" stop-color="#215CFF"/>
</linearGradient>
<linearGradient id="paint11_linear_153_1432" x1="30.9371" y1="33.0909" x2="30.9609" y2="31.7248" gradientUnits="userSpaceOnUse">
<stop stop-color="#1D3FF0"/>
<stop offset="1" stop-color="#215CFF"/>
</linearGradient>
<linearGradient id="paint12_linear_153_1432" x1="25.4757" y1="30.7273" x2="25.5153" y2="29.3619" gradientUnits="userSpaceOnUse">
<stop stop-color="#1D3FF0"/>
<stop offset="1" stop-color="#215CFF"/>
</linearGradient>
<linearGradient id="paint13_linear_153_1432" x1="35.5684" y1="33.0303" x2="35.6743" y2="31.7237" gradientUnits="userSpaceOnUse">
<stop stop-color="#1D3FF0"/>
<stop offset="1" stop-color="#215CFF"/>
</linearGradient>
<linearGradient id="paint14_linear_153_1432" x1="29.2048" y1="30.7273" x2="29.319" y2="29.3704" gradientUnits="userSpaceOnUse">
<stop stop-color="#1D3FF0"/>
<stop offset="1" stop-color="#215CFF"/>
</linearGradient>
<clipPath id="clip0_153_1432">
<rect width="40" height="40" fill="white"/>
</clipPath>
</defs>
</svg>
