<svg width="684" height="684" viewBox="0 0 684 684" fill="none" xmlns="http://www.w3.org/2000/svg">
<path d="M318.449 8.28967C328.287 3.88382 335.99 2.13354 343.502 2.52405C351.032 2.91553 358.598 5.46791 368.169 10.0729L679.984 184.336C680.361 184.996 680.533 185.738 680.674 186.755L680.839 188.102L680.84 188.11C681.75 195.729 681.694 214.46 680.902 222.898L680.823 223.681C678.472 245.357 657.465 256.418 636.707 258.325L635.666 258.421L635.08 259.286L601.113 309.387L600.732 309.95L600.733 310.629L600.866 552.23L600.867 552.911L601.251 553.473L636.139 604.645L636.799 605.614L637.972 605.61C647.089 605.582 657.25 604.925 665.601 607.118C669.704 608.195 673.179 609.925 675.774 612.626C678.267 615.22 680.101 618.868 680.776 624.118L680.838 624.631C681.304 628.785 681.569 636.887 681.541 645.038C681.513 653.216 681.188 661.167 680.534 665.079C679.211 672.931 672.528 677.498 665.121 681.572H17.9971C10.655 678.317 5.66051 673.35 2.41113 665.972V621.479C4.32303 616.659 6.7346 613.378 9.4668 611.109C12.2703 608.781 15.5357 607.412 19.2285 606.62C22.9476 605.822 27.0422 605.622 31.4688 605.602C35.7947 605.583 40.621 605.74 45.3184 605.609L46.4365 605.578L47.0742 604.659L81.748 554.611L82.1406 554.045L82.1416 553.355L82.502 311.942L82.5029 311.674L82.4395 311.414L81.1299 306.05L81.0293 305.64L80.7852 305.296L48.1016 259.247L47.5781 258.508L46.6865 258.35L44.6553 257.999C35.0043 256.373 27.6866 255.655 19.7178 250.535L18.8906 249.989C10.2254 244.12 6.24122 236.672 2.39746 226.829V185.843L154.75 100.094C158.619 100.792 161.492 103.185 162.621 105.877C163.211 107.281 163.335 108.771 162.917 110.226C162.507 111.654 161.53 113.191 159.68 114.641L51.1318 175.946L43.8115 180.08H637.006L632.42 176.185L628.452 172.815L628.261 172.653L628.037 172.537L623.978 170.428C582.057 148.585 540.968 125.007 499.841 101.403C458.727 77.8061 417.573 54.1824 375.582 32.2897L371.516 30.1764L370.014 29.3893C366.584 27.572 363.655 25.8885 360.617 24.275C357.256 22.4897 353.999 20.9259 350.599 19.8893C343.645 17.7694 336.382 17.9426 326.501 22.0758L326.389 22.1227L326.283 22.1813L199.453 92.4108C196.486 93.2002 194.175 92.9041 192.512 92.1139C190.803 91.3017 189.611 89.8945 189.024 88.2096C187.87 84.8949 189.025 80.2072 194.166 77.2555C215.177 67.6421 236.008 54.9727 256.646 42.4606C276.721 30.2891 296.615 18.2679 316.522 9.16174L318.449 8.28967ZM93.9912 566.628L69.0713 602.418L66.6533 605.891H195.265L192.684 602.374L166.428 566.583L165.766 565.68H94.6514L93.9912 566.628ZM516.78 566.583L490.524 602.374L487.944 605.891H616.555L614.137 602.418L589.217 566.628L588.558 565.68H517.443L516.78 566.583ZM213.992 258.264L178.503 309.503L178.107 310.073L178.109 310.767L178.764 554.254L178.765 554.616L178.882 554.959C179.024 555.378 179.313 555.888 179.552 556.293C179.833 556.771 180.207 557.37 180.651 558.062C181.543 559.449 182.761 561.273 184.195 563.379C187.067 567.594 190.836 572.988 194.67 578.391C198.504 583.795 202.409 589.217 205.551 593.49C207.121 595.625 208.507 597.481 209.6 598.906C210.655 600.282 211.526 601.373 212.023 601.882V601.881C212.322 602.189 212.588 602.503 212.939 602.903C213.269 603.278 213.667 603.72 214.125 604.13C215.101 605.002 216.374 605.748 218.155 605.86L218.226 605.864H218.296L466.039 605.624L467.16 605.623L467.821 604.717L504.446 554.616L504.866 554.041L504.872 553.328L505.471 472.824C506.546 469.696 509.928 468.328 513.917 468.817C515.895 469.06 517.719 469.759 518.991 470.696C520.266 471.636 520.775 472.633 520.775 473.532V549.824H585.204V313.138H522.07L520.762 314.447V432.164C520.762 432.974 520.275 433.993 518.99 435.02C517.729 436.029 515.935 436.834 514.005 437.2C512.07 437.567 510.188 437.458 508.713 436.864C507.39 436.331 506.343 435.398 505.765 433.87L504.898 309.623L504.894 308.94L504.506 308.38L470.112 258.719L469.454 257.769L468.299 257.767L215.812 257.313L214.652 257.31L213.992 258.264ZM98.0176 549.838H162.446V313.152H98.0176V549.838ZM69.0566 260.537L93.3359 296.288L93.8164 296.995L94.6475 297.195L96.3184 297.596L96.5771 297.659L96.8447 297.657L164.683 297.337L165.832 297.331L166.487 296.387L191.381 260.57L191.775 260.002V257.086H66.7129L69.0566 260.537ZM611.13 257.086H489.402L491.814 260.556L516.708 296.374L517.363 297.317L518.512 297.323L586.351 297.644L586.617 297.645L586.877 297.583L588.548 297.181L589.379 296.982L589.859 296.274L613.471 261.505H617.642L613.89 257.736L613.876 257.723L611.986 255.825L611.13 257.086ZM17.9932 222.582C17.9932 224.344 18.727 226.189 19.6553 227.83C20.6123 229.521 21.9152 231.235 23.3516 232.796C24.7904 234.359 26.4074 235.817 28.0254 236.976C29.612 238.113 31.3383 239.065 32.9863 239.458L33.2393 239.517H649.956L650.208 239.458C651.856 239.065 653.582 238.113 655.169 236.976C656.787 235.817 658.405 234.359 659.844 232.796C661.28 231.235 662.583 229.521 663.54 227.83C664.468 226.189 665.201 224.344 665.201 222.582V197.006H17.9932V222.582ZM665.201 624.795L664.555 624.147L662.551 622.141L661.903 621.493H21.292L20.6445 622.141L18.6396 624.147L17.9932 624.795V664.632H665.201V624.795Z" fill="white" stroke="white" stroke-width="4.42012"/>
<path d="M310.308 75.7686C320.886 65.0007 332.738 61.3425 343.822 62.3564C354.974 63.3767 365.534 69.1481 373.338 77.5723C381.141 85.9961 386.064 96.9385 386.127 108.146C386.188 119.11 381.602 130.536 370.097 140.347L369.544 140.812C348.411 158.398 323.988 152.133 309.517 136.314C295.274 120.746 291.032 96.3101 309.415 76.6982L310.308 75.7686ZM360.152 85.7061C354.355 80.5866 345.964 77.9902 335.22 79.7168L334.173 79.8975H334.172C320.349 82.4458 313.7 95.3824 314.008 107.617C314.313 119.732 321.44 132.148 336.052 134.448L336.753 134.551C347.487 135.98 355.778 132.84 361.319 127.22C366.805 121.656 369.409 113.854 369.23 106.23C369.052 98.604 366.085 90.9444 360.152 85.7061Z" fill="white" stroke="white" stroke-width="4.42012"/>
<path d="M326.904 319.283C443.074 307.439 500.145 451.66 410.582 520.244L409.521 521.047C322.318 586.414 203.618 503.044 233.675 398.966L234.035 397.741C246.008 357.761 284.987 323.562 326.905 319.285L326.904 319.283ZM425.559 479.326C464.903 409.773 409.254 326.771 330.422 334.91V334.911C255.192 342.685 218.488 434.021 266.642 492.311L267.213 492.995C309.993 543.851 391.093 538.087 424.771 480.691L425.559 479.326Z" fill="white" stroke="white" stroke-width="4.42012"/>
<path d="M341.617 352.8C345.591 352.818 350.57 356.538 350.093 365.931L349.975 368.26L352.307 368.253C360.274 368.228 369.398 372.291 374.017 378.616L374.233 378.919C376.91 382.746 379.436 389.971 379.489 396.031C379.516 399.057 378.921 401.46 377.765 403.007C376.713 404.414 374.968 405.421 371.825 405.244H371.826C368.956 405.082 367.466 404.031 366.459 402.648C365.32 401.085 364.689 398.964 363.96 396.337C363.281 393.893 362.503 390.941 360.887 388.582C359.145 386.04 356.507 384.259 352.453 383.903L350.05 383.692V422.9L352.135 423.019C358.957 423.406 364.091 425.086 367.958 427.621C371.814 430.149 374.542 433.614 376.422 437.796C380.109 446 380.49 456.86 379.55 468.286L379.455 469.394C378.224 483.179 366.181 494.636 352.466 493.35L349.824 493.102L350.059 495.745C350.502 500.747 349.364 504.23 347.709 506.408C346.057 508.583 343.794 509.601 341.597 509.601C339.399 509.6 337.137 508.583 335.484 506.408C333.829 504.23 332.692 500.747 333.136 495.745L333.396 492.819L330.512 493.381C323.02 494.84 314.911 490.462 309.368 483.411C303.905 476.462 301.588 467.75 304.438 461.073L304.578 460.757V460.756C305.526 458.677 307.992 457.477 311.088 457.625C314.087 457.768 316.82 459.164 318.059 461.199L318.174 461.398C318.812 462.56 319.152 463.977 319.434 465.674C319.693 467.238 319.923 469.246 320.408 470.954C320.918 472.749 321.805 474.628 323.644 475.969C325.468 477.3 327.899 477.86 330.999 477.75L333.131 477.674V440.834H331.064L330.935 438.624H328.711V438.77C323.067 438.864 317.504 436.525 313.013 432.645C308.154 428.447 304.719 422.589 303.862 416.488L303.788 415.896C302.469 404.19 302.661 392.445 306.487 383.567C308.38 379.176 311.146 375.525 315.043 372.891C318.944 370.253 324.121 368.538 330.986 368.251L333.205 368.158L333.102 365.94C332.88 361.175 334.069 357.866 335.71 355.8C337.347 353.739 339.517 352.79 341.617 352.8ZM350.063 477.621L352.139 477.747C355.599 477.958 358.338 476.921 360.324 474.892C362.229 472.945 363.235 470.298 363.771 467.64C364.837 462.357 364.234 455.987 363.867 451.927H363.868C363.581 448.685 362.859 445.605 361.059 443.184C359.19 440.671 356.384 439.161 352.569 438.645L350.063 438.305V477.621ZM330.643 383.914C326.825 384.423 324.017 385.935 322.148 388.45C320.349 390.872 319.627 393.954 319.34 397.194C318.973 401.254 318.37 407.63 319.437 412.915C319.973 415.574 320.978 418.222 322.884 420.168C324.871 422.198 327.61 423.233 331.071 423.018L333.145 422.889V383.58L330.643 383.914Z" fill="white" stroke="white" stroke-width="4.42012"/>
<path d="M669.43 615.269L663.092 669.772H14.1846V615.269H669.43Z" fill="white" stroke="white" stroke-width="4.42012"/>
</svg>
