<svg width="35" height="33" viewBox="0 0 35 33" fill="none" xmlns="http://www.w3.org/2000/svg">
<path d="M0.178711 10.8048C0.231357 4.77946 5.10987 0.151093 11.4697 0.766724L11.7734 0.799927C13.98 1.06975 15.8715 2.07325 17.5381 3.44348L17.5762 3.47473L17.6221 3.45715L23.1074 1.38196L23.1104 1.38098C23.9347 1.03207 25.0287 1.23819 25.9238 1.76184C26.8201 2.28633 27.4842 3.10903 27.4844 3.95715V8.93567H29.0361C29.1983 8.93575 29.4539 8.99973 29.7158 9.08997C29.9105 9.15703 30.1019 9.2363 30.251 9.30774L30.3848 9.3761C30.9876 9.70784 31.3798 10.1185 31.6348 10.5802C31.8903 11.0431 32.0104 11.5626 32.0605 12.1154C32.1107 12.6687 32.0904 13.2508 32.0693 13.84C32.0484 14.4272 32.0269 15.0215 32.0752 15.59L32.0791 15.6339L32.1162 15.6554C32.5996 15.938 33.0493 16.1494 33.4268 16.5118L33.584 16.6769C33.7366 16.853 33.9148 17.1321 34.0625 17.4259C34.1736 17.6469 34.2653 17.8711 34.3164 18.0616L34.3535 18.2404C34.4615 19.0533 34.4208 19.9751 34.373 20.9113C34.3258 21.8371 34.2719 22.7775 34.3516 23.6251C34.066 24.7866 33.3122 25.738 32.1172 26.129L32.0645 26.1466L32.0596 26.2013C31.9843 26.9774 32.0781 27.9012 32.0947 28.7804C32.1105 29.6135 32.0578 30.4136 31.7471 31.0646L31.6816 31.1925C31.2089 32.0541 30.2926 32.6643 29.293 32.8409L3.07422 32.8575C1.58419 32.634 0.442871 31.5784 0.212891 30.1788L0.178711 29.8947C0.204142 26.7156 0.191013 23.5293 0.177734 20.3458C0.167767 17.9564 0.157583 15.5681 0.165039 13.1857L0.178711 10.8048ZM28.6045 10.9581L20.6963 10.9874H20.624L20.6133 11.0587C20.5106 11.7231 20.4172 12.3752 20.248 13.0167L20.1699 13.2911C18.6417 18.3626 13.0538 21.3196 7.75 19.9406L7.23828 19.7931C5.32675 19.1915 3.74924 18.0497 2.44922 16.5978L2.30176 16.4327V29.8976C2.30176 29.9961 2.35066 30.1049 2.41602 30.2042C2.48318 30.3063 2.57536 30.4106 2.67773 30.504C2.78018 30.5975 2.8953 30.6825 3.00977 30.7433C3.12133 30.8025 3.24031 30.842 3.34961 30.839L3.35059 30.84L29.0723 30.8068H29.083L29.0928 30.8038C29.1767 30.7826 29.2712 30.7317 29.3613 30.6691C29.4526 30.6056 29.546 30.526 29.6299 30.4406C29.7138 30.3551 29.7898 30.2615 29.8457 30.171C29.9001 30.0831 29.9424 29.9872 29.9424 29.8986V26.3575H26.459C25.0809 26.3575 23.7151 25.4416 23.2578 24.2081L23.1787 23.9572C23.1174 23.7226 23.0733 23.3335 23.0439 22.8585C23.0147 22.3852 22.9996 21.8323 22.9961 21.2745C22.9908 20.4375 23.0098 19.5915 23.0391 18.9874L23.0713 18.4738V18.4728C23.128 17.787 23.5055 17.0442 24.0635 16.4718C24.6216 15.8994 25.3509 15.5079 26.1025 15.5079H29.9424V11.965C29.9423 11.8275 29.8838 11.6926 29.7969 11.5724C29.7094 11.4515 29.5891 11.3395 29.4561 11.2452C29.2261 11.0825 28.9412 10.9627 28.6973 10.9552L28.6045 10.9581ZM28.7051 17.5822C27.9697 17.5541 27.2321 17.5286 26.5322 17.5704L26.2344 17.5929C25.6778 17.6433 25.3383 18.0452 25.2266 18.5216L25.1924 18.7296C25.104 19.6645 25.0819 21.5771 25.1572 22.7482L25.1953 23.1993C25.2488 23.6761 25.6283 24.1419 26.1318 24.2511L26.2344 24.2677C27.0003 24.3557 27.8535 24.3218 28.7031 24.2833C29.5559 24.2447 30.4062 24.2011 31.1768 24.2677L31.1875 24.2687L31.1992 24.2667C31.7721 24.1609 32.1335 23.7659 32.2207 23.2394L32.2344 23.132C32.3208 22.1963 32.3465 20.2834 32.2705 19.1134L32.2314 18.6622C32.2177 18.5408 32.1766 18.4 32.1191 18.2687C32.0618 18.1376 31.9857 18.0095 31.8965 17.9181L31.751 17.7697V17.7999C31.6951 17.7624 31.634 17.7283 31.5713 17.6993C31.4472 17.6421 31.3095 17.6016 31.1855 17.5958L31.1816 17.6769L31.1855 17.5948L31.1758 17.5958C30.3878 17.6496 29.5478 17.6143 28.7051 17.5822ZM10.1074 2.74817L9.80664 2.76379C3.62313 3.20647 0.268377 9.855 3.66797 14.7814L3.83496 15.0148C7.15621 19.4882 14.2661 19.2207 17.2578 14.6134L17.3975 14.3907C20.5961 9.08249 16.389 2.51266 10.1074 2.74817ZM23.9688 3.26965L23.8594 3.3009L19.0977 5.07629L19.0176 5.10657L19.0479 5.18567C19.1729 5.51413 19.3397 5.82904 19.5049 6.13977C19.6708 6.45189 19.835 6.76037 19.96 7.08411V7.08508C20.0159 7.23055 20.0647 7.37857 20.1094 7.52844L20.3633 8.43665C20.4085 8.58733 20.4586 8.73667 20.5156 8.88196L20.5361 8.93567H25.3643V4.23157C25.3643 4.0913 25.2953 3.95076 25.1973 3.82727C25.0979 3.70228 24.9615 3.58554 24.8115 3.49133C24.6615 3.39709 24.494 3.323 24.3301 3.28528C24.2079 3.25717 24.0836 3.24825 23.9688 3.26965Z" fill="url(#paint0_linear_1_3162)" stroke="white" stroke-width="0.169015"/>
<path d="M10.3652 6.19348C10.5687 6.18889 10.8465 6.2831 11.0752 6.43665C11.3076 6.59277 11.459 6.78885 11.459 6.96985V9.4845H14.083C14.2613 9.48463 14.4618 9.62219 14.626 9.8302C14.7682 10.0105 14.8662 10.2232 14.8916 10.3927L14.8984 10.463C14.9031 10.6545 14.806 10.919 14.6455 11.1378C14.4837 11.3585 14.2777 11.5059 14.083 11.506H11.459V14.0206C11.4589 14.1016 11.4257 14.19 11.3613 14.2804C11.2971 14.3706 11.2053 14.4583 11.0986 14.5353C10.8831 14.6908 10.622 14.7926 10.4326 14.797L10.3525 14.7941C10.1599 14.7769 9.92183 14.6873 9.72168 14.5529C9.48949 14.3968 9.33895 14.2015 9.33887 14.0206V11.506H6.71484C6.53641 11.506 6.33516 11.3676 6.1709 11.1593C6.02866 10.9789 5.9305 10.7663 5.90527 10.5968L5.89941 10.5275C5.89464 10.336 5.99187 10.0715 6.15234 9.85266C6.31427 9.63193 6.52012 9.4845 6.71484 9.4845H9.33887V6.96985C9.33887 6.88879 9.37202 6.79967 9.43652 6.70911C9.50073 6.61902 9.59265 6.53212 9.69922 6.4552C9.88788 6.31905 10.1112 6.22381 10.291 6.19934L10.3652 6.19348Z" fill="#FF8303" stroke="white" stroke-width="0.169015"/>
<defs>
<linearGradient id="paint0_linear_1_3162" x1="17.2923" y1="0.627075" x2="17.2923" y2="39.6098" gradientUnits="userSpaceOnUse">
<stop stop-color="#047CF4"/>
<stop offset="1" stop-color="#0431D7"/>
</linearGradient>
</defs>
</svg>
