<svg width="26" height="26" viewBox="0 0 26 26" fill="none" xmlns="http://www.w3.org/2000/svg">
<path d="M24.8182 13.109V9.45479C24.8182 8.21568 23.8571 7.20795 22.6427 7.11023L19.249 1.18277C18.9345 0.634567 18.4267 0.242745 17.819 0.0800448C17.2143 -0.0815477 16.5818 0.00332019 16.0406 0.318362L4.40688 7.09118H2.36365C1.06009 7.09118 0 8.1512 0 9.45479V23.6364C0 24.9399 1.06003 26 2.36365 26H22.4545C23.7581 26 24.8182 24.94 24.8182 23.6364V19.9821C25.5045 19.7374 26 19.0876 26 18.3183V14.7729C26 14.0035 25.5045 13.3538 24.8182 13.109ZM21.2694 7.09118H16.1191L19.9819 4.84229L21.2694 7.09118ZM19.3947 3.81673L13.7702 7.09118H11.4373L18.8114 2.79792L19.3947 3.81673ZM16.6355 1.33971C16.9027 1.18333 17.2148 1.14178 17.5132 1.22144C17.815 1.30221 18.0666 1.49726 18.223 1.7702L18.2242 1.77236L9.08859 7.09118H6.75574L16.6355 1.33971ZM23.6363 23.6364C23.6363 24.2878 23.106 24.8182 22.4545 24.8182H2.36365C1.71217 24.8182 1.18185 24.2878 1.18185 23.6364V9.45479C1.18185 8.80333 1.71217 8.27301 2.36365 8.27301H22.4545C23.106 8.27301 23.6363 8.80333 23.6363 9.45479V13.0002H20.0909C18.1358 13.0002 16.5455 14.5905 16.5455 16.5456C16.5455 18.5007 18.1358 20.091 20.0909 20.091H23.6363V23.6364ZM24.8182 18.3183C24.8182 18.6443 24.5533 18.9092 24.2273 18.9092H20.0909C18.7873 18.9092 17.7272 17.8492 17.7272 16.5456C17.7272 15.242 18.7873 14.182 20.0909 14.182H24.2273C24.5533 14.182 24.8182 14.4468 24.8182 14.7729V18.3183Z" fill="url(#paint0_linear_76_4501)"/>
<path d="M20.09 15.3638C19.4385 15.3638 18.9082 15.8941 18.9082 16.5456C18.9082 17.197 19.4385 17.7273 20.09 17.7273C20.7415 17.7273 21.2718 17.197 21.2718 16.5456C21.2719 15.8941 20.7415 15.3638 20.09 15.3638Z" fill="url(#paint1_linear_76_4501)"/>
<path d="M3 14H11" stroke="#FF8303" stroke-linecap="round"/>
<path d="M7 10.5V17.5" stroke="#FF8303" stroke-linecap="round"/>
<defs>
<linearGradient id="paint0_linear_76_4501" x1="13" y1="0" x2="13" y2="26" gradientUnits="userSpaceOnUse">
<stop stop-color="#047CF4"/>
<stop offset="1" stop-color="#0431D7"/>
</linearGradient>
<linearGradient id="paint1_linear_76_4501" x1="20.09" y1="15.3638" x2="20.09" y2="17.7273" gradientUnits="userSpaceOnUse">
<stop stop-color="#047CF4"/>
<stop offset="1" stop-color="#0431D7"/>
</linearGradient>
</defs>
</svg>
