<svg width="118" height="93" viewBox="0 0 118 93" fill="none" xmlns="http://www.w3.org/2000/svg">
<g clip-path="url(#clip0_76_4477)">
<path d="M15.4713 83.4982C15.2694 82.8685 14.1807 81.1858 13.0495 79.7663C10.9941 77.1855 10.9941 77.1855 10.9941 70.6352C10.9941 62.6655 11.3128 61.7158 14.4091 60.4253C16.7777 59.4395 16.7777 59.4395 18.7003 53.1886C22.2108 41.7864 22.1365 41.8277 40.4963 41.8277C58.9093 41.8277 58.7287 41.7399 62.2446 52.5744C64.3371 59.0265 64.4008 59.1401 66.6792 60.4099C69.7701 62.139 69.9348 62.6707 69.9507 70.7333C69.9613 77.7016 69.9613 77.7016 68.0972 79.8437C67.0669 81.0206 66.2278 82.2336 66.2278 82.5382C66.2278 82.8427 65.6382 83.7925 64.9213 84.6545C62.4145 87.6534 57.1726 86.2288 56.3707 82.3214C55.8343 79.7199 25.0309 79.9625 24.5264 82.5743C24.2874 83.8286 23.6395 84.7009 22.333 85.5423C21.3133 86.1978 20.1342 86.7346 19.72 86.7346C19.3004 86.7346 18.2595 86.2649 17.3991 85.692C16.5441 85.1242 15.6731 84.1331 15.4713 83.4982ZM22.6782 81.7949C22.6782 80.618 22.4976 80.5406 19.7572 80.5406C17.192 80.5406 16.8362 80.6645 16.8362 81.5729C16.8362 82.1407 17.3141 83.0698 17.8983 83.6376C18.4825 84.2054 19.4226 84.67 19.9855 84.67C21.3929 84.67 22.6782 83.3021 22.6782 81.7949ZM64.1034 81.7949C64.1034 80.618 63.9228 80.5406 61.1824 80.5406C58.6172 80.5406 58.2614 80.6645 58.2614 81.5729C58.2614 82.1407 58.7394 83.0698 59.3236 83.6376C59.9078 84.2054 60.8478 84.67 61.4107 84.67C62.8181 84.67 64.1034 83.3021 64.1034 81.7949ZM31.7067 78.9921H49.2328V75.895H31.7067V78.9921ZM29.6833 76.2822C29.8479 74.0884 29.8479 74.0884 40.6025 73.9491C51.3572 73.8097 51.3572 73.8097 51.3572 76.1428C51.3572 78.4759 51.3572 78.4759 59.3342 78.4759C68.7186 78.4759 68.3521 78.7598 68.3521 71.5437C68.3521 61.5196 71.2306 62.4487 40.5282 62.5984L13.3841 62.7326C13.1344 73.5361 13.1929 77.0771 13.3575 77.5726C13.6177 78.3778 14.494 78.4759 21.5841 78.4759C29.524 78.4759 29.524 78.4759 29.6833 76.2822ZM61.979 59.6253C61.979 59.1917 61.1346 56.0689 60.1043 52.6879C57.2523 43.3246 58.3729 43.8098 40.0874 44.0007C22.402 44.1814 23.8253 43.4949 20.8937 53.2144C19.8528 56.6779 19.1092 59.713 19.2473 59.9608C19.3801 60.2086 29.0513 60.4099 40.7353 60.4099C59.4085 60.4099 61.979 60.3169 61.979 59.6253Z" fill="white" fill-opacity="0.976471"/>
<path d="M75.1596 73.7427C78.7497 75.2448 84.6342 72.1013 92.282 64.6116C101.438 55.6302 104.943 47.0824 105.395 32.6502C105.772 20.3395 107.407 22.2648 91.2888 16.0192L77.5176 10.6819C47.7446 22.2132 49.0723 20.7318 49.3591 32.1702C49.529 38.7617 49.4441 39.7786 48.7536 39.6495C47.1922 39.3553 46.4965 24.0147 47.888 20.6079C48.0951 20.1021 53.953 17.5728 62.8541 14.1558L77.4857 8.53467C109.346 20.7989 107.349 18.9872 107.572 28.495C108.066 49.8439 100.052 64.7613 82.9666 74.2847C80.3536 75.7351 77.9106 76.9275 77.5335 76.9275C77.1565 76.9275 75.8606 76.4061 74.655 75.7661C70.7409 73.6962 71.1498 72.0651 75.1596 73.7427Z" fill="white" fill-opacity="0.976471"/>
<path d="M72.3568 68.2194C72.5108 68.0645 73.8545 68.3948 75.3362 68.9471C78.0341 69.9588 78.0341 69.9589 82.0758 67.6361C94.9176 60.2548 101.493 47.9906 101.169 32.0408L101.015 24.5718L77.6465 15.4356C52.0956 25.2377 53.4817 23.8801 53.4817 32.5673C53.4817 37.791 53.3065 39.7628 52.8497 39.7628C51.6282 39.7628 51.3733 38.4207 51.4264 32.2783C51.5167 22.3987 50.1518 23.844 64.7675 18.161L77.3862 13.2573C97.3128 20.9638 102.624 23.3072 102.916 23.8337C103.877 25.5887 103.489 39.0453 102.332 43.9386C99.9736 53.9059 93.5367 62.7789 84.5719 68.4258C82.2245 69.9021 79.5265 71.3783 78.5759 71.6983C77.0569 72.2145 76.563 72.1216 74.4599 70.9241C72.2399 69.6646 71.6504 68.9059 72.3568 68.2194Z" fill="white" fill-opacity="0.976471"/>
<path d="M66.2266 43.8203V43.1183C66.2266 42.1221 68.5209 43.2525 70.4965 45.2243C74.5275 49.2401 73.8849 49.4724 81.6495 41.2136C89.1326 33.2491 89.9611 32.5523 90.4497 33.7962C90.6674 34.3382 88.2616 37.2494 82.9772 42.8551C78.6913 47.4025 74.963 51.119 74.6869 51.119C74.416 51.119 72.4032 49.5756 70.2098 47.6916C68.0217 45.8076 66.2266 44.0681 66.2266 43.8203Z" fill="white" fill-opacity="0.976471"/>
<path d="M61.3131 64.1321C65.9601 64.2818 65.9601 64.2818 65.9601 66.8626C65.9601 69.4435 65.9601 69.4435 61.3131 69.5725C56.666 69.7016 56.666 69.7016 56.666 66.842C56.666 63.9824 56.666 63.9824 61.3131 64.1321ZM64.1013 67.1207V66.3465C64.1013 65.9129 58.87 66.0574 58.5939 66.5013C58.4452 66.7284 58.4346 67.0743 58.562 67.2756C58.6842 67.4717 59.9853 67.6369 61.4458 67.6369C62.9064 67.6369 64.1013 67.4046 64.1013 67.1207Z" fill="white" fill-opacity="0.976471"/>
<path d="M19.8892 64.1321C24.5363 64.2818 24.5363 64.2818 24.5363 66.8626C24.5363 69.4435 24.5363 69.4435 19.8892 69.5725C15.2422 69.7016 15.2422 69.7016 15.2422 66.842C15.2422 63.9824 15.2422 63.9824 19.8892 64.1321ZM22.6775 67.1207V66.3465C22.6775 65.9129 17.4462 66.0574 17.1701 66.5013C17.0213 66.7284 17.0107 67.0743 17.1382 67.2756C17.2603 67.4717 18.5615 67.6369 20.022 67.6369C21.4825 67.6369 22.6775 67.4046 22.6775 67.1207Z" fill="white" fill-opacity="0.976471"/>
<path d="M15.1886 52.1514C18.2477 52.1514 18.1734 53.8702 15.1037 54.118C12.6182 54.3193 12.1296 56.5337 14.4451 57.1015C15.178 57.277 15.7728 57.6331 15.7728 57.886V58.6035C15.7728 58.7429 15.0559 58.8616 14.1796 58.8616C13.2502 58.8616 12.2517 58.4538 11.7897 57.886C9.63873 55.2432 11.4763 52.1514 15.1886 52.1514Z" fill="white" fill-opacity="0.976471"/>
<path d="M66.789 57.0395C67.8883 56.4872 68.3345 55.9504 68.1273 55.4291C67.9574 55.0006 67.8193 54.5516 67.8193 54.4328C67.8193 54.3141 67.1342 54.2161 66.2898 54.2161C64.7602 54.2161 63.2731 53.1269 63.9317 52.492C64.1229 52.3062 65.1798 52.1514 66.2791 52.1514C69.471 52.1514 71.1599 54.5619 69.7684 57.1376C69.2267 58.1441 68.5256 58.5984 67.3519 58.7068C66.4385 58.7945 65.5728 58.6397 65.4188 58.3609C65.2701 58.0873 65.8861 57.4938 66.789 57.0395Z" fill="white" fill-opacity="0.976471"/>
</g>
<defs>
<clipPath id="clip0_76_4477">
<rect width="118" height="93" fill="white"/>
</clipPath>
</defs>
</svg>
