<svg width="90" height="90" viewBox="0 0 90 90" fill="none" xmlns="http://www.w3.org/2000/svg">
<path fill-rule="evenodd" clip-rule="evenodd" d="M34.6095 1.08218C32.9889 1.46891 32.0482 2.573 31.9251 4.23277C31.832 5.48946 32.1469 6.02092 32.9846 6.02092C33.6371 6.02092 33.9877 5.52293 33.936 4.66932C33.8817 3.77101 34.4743 3.06725 35.2852 3.06725C35.9268 3.06725 36.3078 3.32914 36.8057 4.11265C37.0878 4.55669 37.28 4.65376 37.7803 4.60493C38.9363 4.4921 39.04 3.47466 38.0164 2.28767C37.1369 1.26787 35.8055 0.796853 34.6095 1.08218ZM45.1041 4.76837C41.0001 5.19291 35.775 6.43444 31.9311 7.89848C18.787 12.9042 8.20778 23.6524 3.53625 36.7462C1.73298 41.8012 0.433666 49.4916 1.24862 50.2867C1.61411 50.6433 2.3887 50.571 3.03815 50.1197C4.08358 49.3935 7.73532 47.7961 9.28106 47.3891C14.0495 46.1332 18.6223 46.4497 24.7974 48.4627C26.4977 49.0172 27.6683 49.299 27.9319 49.2173C28.1633 49.1456 28.943 48.5383 29.6647 47.8678C32.8349 44.922 36.8212 42.1491 40.1335 40.5852C41.8486 39.7757 42.2904 39.2417 41.8338 38.5301C41.4627 37.9511 40.6532 38.0695 38.8162 38.971C35.6543 40.5226 31.6954 43.243 29.2154 45.5681C28.6907 46.06 28.2203 46.4223 28.1698 46.3731C28.1193 46.324 27.9131 45.266 27.7111 44.0221C27.415 42.1977 27.3464 40.6561 27.3565 36.05C27.3682 30.6871 27.4019 30.1759 27.9093 27.6501C28.8528 22.9526 30.5166 18.7528 32.7723 15.3742C34.0014 13.5333 33.9691 12.7159 32.6674 12.7159C32.2127 12.7159 31.9612 12.9457 31.2124 14.0451C25.8012 21.9905 23.8387 32.9661 25.73 44.7064C25.8862 45.677 25.9839 46.5007 25.9468 46.5369C25.9096 46.5729 24.9827 46.3445 23.887 46.0289C20.4692 45.0447 18.3555 44.7353 15.0329 44.733C10.8978 44.7302 7.89354 45.3856 4.56835 47.016C3.9189 47.3346 3.33826 47.5471 3.27812 47.4886C3.10879 47.3232 3.78065 43.3601 4.34938 41.1697C8.64835 24.6145 22.1095 11.7087 39.1504 7.80435C42.0169 7.14745 44.7423 6.80621 48.1314 6.67959C58.773 6.28183 68.8967 9.38162 77.6981 15.7322C79.4684 17.0098 86.1299 23.2613 85.9293 23.4571C85.8809 23.5043 85.0651 23.6752 84.1166 23.8365C79.3552 24.6466 75.1214 26.8609 71.2007 30.5914C69.9898 31.7435 68.6672 33.1107 68.2616 33.6297C67.8559 34.1486 67.4743 34.5731 67.4131 34.5731C67.3522 34.5731 67.0829 34.0192 66.8151 33.3424C66.0062 31.2997 63.8734 27.2838 62.5476 25.308C59.1817 20.2909 55.5493 16.6071 51.0578 13.6548C48.5165 11.9846 43.9513 9.76264 43.0601 9.76244C42.3198 9.76225 41.9184 10.1511 42.0108 10.7793C42.0641 11.1414 42.6972 11.5305 45.3128 12.8085C48.9506 14.586 50.7204 15.7241 53.4199 18.0223C56.7013 20.8157 59.5742 24.3349 62.1953 28.7717C63.4726 30.934 65.5182 35.2985 65.337 35.4752C65.2908 35.5203 64.3069 35.411 63.1505 35.2322C58.9332 34.5804 49.9411 34.8815 48.9892 35.7066C48.5514 36.0858 48.5318 36.8035 48.9502 37.1422C49.2071 37.3502 49.7307 37.347 51.8261 37.1245C56.247 36.6553 61.3561 36.8498 65.4381 37.6428C66.2987 37.81 67.1615 37.8942 67.3554 37.83C67.5493 37.7657 68.2444 36.9993 68.8999 36.127C72.4134 31.4507 76.7838 28.1101 81.3956 26.5754C83.0695 26.0183 85.8078 25.5152 87.1651 25.5152C88.267 25.5152 89 25.0881 89 24.4462C89 23.5382 84.828 18.9379 81.4317 16.1012C74.4161 10.2413 66.425 6.64238 57.0115 5.10351C55.2512 4.81562 46.9143 4.5811 45.1041 4.76837ZM37.9845 14.5978C37.7377 14.7664 37.5359 15.0537 37.5359 15.2364C37.5359 15.4189 41.0324 27.0964 45.3059 41.1862C49.5795 55.276 53.076 67.026 53.076 67.2971C53.076 67.9481 52.4877 68.4419 51.7123 68.4419C50.9093 68.4419 50.5 68.031 50.195 66.9179C50.052 66.3964 49.7609 65.9041 49.4949 65.734C49.0897 65.4751 48.9841 65.4784 48.5351 65.7655C47.9141 66.1625 47.8941 66.693 48.4455 68.131C49.329 70.4349 51.6512 71.2269 53.7005 69.9231C54.5864 69.3594 55.0942 68.3742 55.0942 67.2191C55.0942 66.6522 52.3951 57.4413 47.3128 40.6658C38.8667 12.7858 39.2142 13.7572 37.9845 14.5978ZM71.4891 44.2399C68.6041 44.6676 66.047 45.954 63.8803 48.0683C55.2361 56.5022 61.3256 70.8049 73.5608 70.8049C77.3972 70.8049 80.3734 69.5876 83.1656 66.8763C86.142 63.986 87.3233 60.9743 87.1348 56.7556C86.9947 53.6228 86.2163 51.629 84.1095 49.0068C81.2632 45.4643 76.1806 43.5444 71.4891 44.2399ZM76.4781 46.4814C80.5563 47.5404 83.8925 50.8924 84.8623 54.9052C85.4903 57.5043 85.1921 59.9072 83.9186 62.5094C81.6285 67.1888 76.1112 69.7416 70.8858 68.5396C66.755 67.5893 63.3093 64.2883 62.2625 60.278C61.876 58.7974 61.8717 56.0678 62.2538 54.667C63.3039 50.8172 66.6286 47.5425 70.5553 46.4906C71.8909 46.1328 75.1162 46.1279 76.4781 46.4814ZM15.6384 52.4051C15.4164 52.4551 14.7352 52.5927 14.1247 52.7107C12.4839 53.0283 9.95937 54.2511 8.5091 55.4308C5.29188 58.048 3.58468 61.6885 3.60769 65.8821C3.62767 69.4925 4.89551 72.4446 7.54339 75.045C10.2219 77.6755 12.8541 78.8353 16.5466 79.0124C19.2181 79.1404 21.0191 78.7889 23.3633 77.6818C24.7578 77.0232 25.4216 76.5417 26.8331 75.1653C29.9739 72.1027 31.3434 68.3848 30.8647 64.22C30.5099 61.133 29.2221 58.578 26.8325 56.2198C25.1976 54.6065 23.0137 53.364 20.7848 52.7792C19.6477 52.4809 16.3619 52.242 15.6384 52.4051ZM20.3725 54.7901C21.8585 55.1902 23.3013 55.9193 24.5251 56.8889C29.942 61.1802 30.3585 68.9563 25.4287 73.7586C23.8876 75.2598 22.2226 76.1772 20.0591 76.7172C18.0792 77.2112 16.4217 77.2098 14.4297 76.7128C5.94477 74.5954 2.75702 64.3822 8.64008 58.1643C11.7527 54.8743 16.0719 53.6322 20.3725 54.7901ZM60.3652 67.6602C57.5439 69.6543 58.4216 72.2577 62.4453 73.8293C64.9075 74.791 67.337 75.1633 71.8947 75.2777C79.4862 75.4682 84.6885 74.328 86.8425 72.0019C87.4975 71.2946 87.5873 71.0754 87.5873 70.1854C87.5873 69.2375 87.5251 69.1128 86.607 68.2169C85.4833 67.1207 84.7644 66.97 84.2572 67.725C83.8639 68.3108 84.0092 68.6796 84.8918 69.3363C86.1023 70.2372 85.5075 71.0648 82.9771 71.9997C78.7477 73.5628 70.3347 73.8291 65.2125 72.5621C63.3586 72.1035 61.2293 71.1225 60.9389 70.5932C60.6655 70.0946 60.8586 69.7857 61.9057 69.0457C62.4849 68.6363 62.7634 68.2929 62.7634 67.9879C62.7634 66.9161 61.636 66.7621 60.3652 67.6602ZM59.2449 74.8077C58.2517 75.5162 59.2891 77.0736 61.3575 77.9794C64.2018 79.2246 67.7417 79.7585 73.1571 79.7585C79.6228 79.7585 83.6251 79.0002 86.2972 77.2689C87.2648 76.6419 87.7308 75.7663 87.4086 75.1795C87.0197 74.4702 86.4326 74.5192 85.4575 75.3429C83.6066 76.9058 79.1833 77.7748 73.1571 77.7592C66.9455 77.7433 62.5836 76.868 60.9133 75.3022C60.0366 74.4804 59.8015 74.4107 59.2449 74.8077ZM28.499 75.4435C27.7738 75.939 27.9226 76.6195 28.9081 77.316C30.2054 78.2328 30.2613 78.4522 29.385 79.1912C27.7706 80.5526 24.1158 81.3958 19.0693 81.5708C14.025 81.7457 9.83041 81.1786 7.0792 79.9497C5.07331 79.0537 4.79379 78.4939 5.90057 77.5901C6.73873 76.9056 6.90543 76.4704 6.52984 75.9472C6.06182 75.2955 5.23981 75.4136 4.29186 76.2692C2.23249 78.1276 3.03836 80.3965 6.25375 81.7922C9.09013 83.0233 12.6626 83.5947 17.5557 83.5998C26.8124 83.6095 32.8736 81.1766 32.0052 77.8002C31.827 77.1076 30.7485 75.9697 29.8435 75.5192C28.9242 75.0615 29.0475 75.0686 28.499 75.4435ZM54.386 75.8939C53.1023 76.4866 51.9553 77.5727 51.7434 78.3968C51.5775 79.0415 51.765 79.9247 52.2078 80.5839C53.1232 81.9471 56.6016 83.4007 60.6443 84.1096C63.0986 84.5401 68.8111 84.6998 71.37 84.4095C73.9491 84.1169 76.6672 83.4874 77.135 83.0745C77.574 82.6867 77.6046 81.968 77.1964 81.6372C76.8545 81.3605 76.4084 81.4104 73.5608 82.0434C71.8366 82.4268 70.9545 82.4938 67.5062 82.5036C65.0785 82.5103 62.8264 82.4121 61.8552 82.2571C58.0906 81.6559 55.0666 80.6229 54.1182 79.6139C53.4867 78.9419 53.7614 78.4524 55.1519 77.7726C56.9705 76.8834 57.2537 76.4563 56.507 75.7277C55.9824 75.2159 55.829 75.2279 54.386 75.8939ZM3.62202 83.177C3.05289 83.6266 3.17761 84.2904 3.97763 85.0709C6.79806 87.8228 17.5678 88.9481 25.668 87.3376C29.48 86.5797 31.8849 85.2261 31.8849 83.8385C31.8849 83.4326 31.7525 83.155 31.4946 83.0203C30.9033 82.7116 30.7448 82.7606 30.0082 83.4791C27.2196 86.2 14.3334 86.9243 7.5232 84.7429C6.74276 84.493 5.89633 84.036 5.35888 83.5744C4.35019 82.708 4.24585 82.6842 3.62202 83.177ZM51.8441 83.2308C50.9478 84.1053 51.9642 85.6979 54.0922 86.7542C60.6055 89.9865 76.6333 89.6584 79.7187 86.2296C80.8065 85.0209 80.6967 83.8011 79.5005 83.8011C79.0196 83.8011 78.8073 83.9466 78.4662 84.5107C77.9447 85.3732 76.9015 85.8535 74.368 86.3973C71.9767 86.9109 65.7098 87.1027 62.5277 86.7599C57.6872 86.2382 53.4797 84.8073 53.4797 83.6823C53.4797 83.3484 52.9129 82.8165 52.5571 82.8165C52.3985 82.8165 52.0776 83.003 51.8441 83.2308Z" fill="white"/>
<path d="M23.4801 66.9011H21.569V64.6575H23.4801C23.7672 64.6575 24 64.3735 24 64.0226C24 63.6717 23.7672 63.3875 23.4801 63.3875H21.569V60.2744C21.569 59.82 21.4955 59.4864 21.3505 59.2832C21.2128 59.0899 21.0317 59 20.781 59C20.5417 59 20.3674 59.0893 20.2323 59.2814C20.0891 59.4848 20.0164 59.819 20.0164 60.2746V63.3879H16.4216L14.8931 60.5625C14.7623 60.3104 14.6393 60.0742 14.5198 59.8475C14.4123 59.6433 14.3074 59.477 14.2083 59.3529C14.1206 59.243 14.0206 59.158 13.9037 59.0926C13.7934 59.0311 13.6532 59.0002 13.4873 59.0002C13.2757 59.0002 13.0836 59.071 12.8997 59.2165C12.7176 59.3604 12.5918 59.5383 12.515 59.7605C12.4475 59.9716 12.4118 60.2951 12.4118 60.7126V63.3877H10.5197C10.2326 63.3877 10 63.6719 10 64.0228C10 64.3736 10.2326 64.6577 10.5198 64.6577H12.4119V66.9015H10.5198C10.2326 66.9015 10 67.1857 10 67.5366C10 67.8874 10.2326 68.1713 10.5198 68.1713H12.4119V71.7257C12.4119 72.1667 12.4877 72.4969 12.638 72.7067C12.7809 72.9067 12.962 72.9996 13.2081 72.9996C13.4454 72.9996 13.6252 72.9063 13.7743 72.7059C13.9269 72.5006 14.0041 72.1706 14.0041 71.7257V68.1713H17.2571L19.0174 71.4686C19.1398 71.6866 19.2662 71.9066 19.3922 72.1223C19.5059 72.316 19.63 72.4867 19.7609 72.6293C19.8788 72.7582 20.0052 72.8527 20.1366 72.9104C20.2718 72.9698 20.4299 73 20.6053 73C21.0814 73 21.5689 72.822 21.5689 71.5017V68.1713H23.48C23.7672 68.1713 23.9999 67.887 23.9999 67.5362C24 67.1855 23.7672 66.9011 23.4801 66.9011ZM20.0164 64.6575V66.9011H18.3226L17.1089 64.6575H20.0164ZM14.0041 62.0795L14.7026 63.3875H14.0041V62.0795ZM14.0041 66.9011V64.6575H15.3809L16.5789 66.9011H14.0041ZM20.0164 70.0327L19.0097 68.1713H20.0164V70.0327Z" fill="white"/>
<path d="M80.4801 58.9011H78.569V56.6575H80.4801C80.7672 56.6575 81 56.3735 81 56.0226C81 55.6717 80.7672 55.3875 80.4801 55.3875H78.569V52.2744C78.569 51.82 78.4955 51.4864 78.3505 51.2832C78.2128 51.0899 78.0317 51 77.781 51C77.5417 51 77.3674 51.0893 77.2323 51.2814C77.0891 51.4848 77.0164 51.819 77.0164 52.2746V55.3879H73.4216L71.8931 52.5625C71.7623 52.3104 71.6393 52.0742 71.5198 51.8475C71.4123 51.6433 71.3074 51.477 71.2083 51.3529C71.1206 51.243 71.0206 51.158 70.9037 51.0926C70.7934 51.0311 70.6532 51.0002 70.4873 51.0002C70.2757 51.0002 70.0836 51.071 69.8997 51.2165C69.7176 51.3604 69.5918 51.5383 69.515 51.7605C69.4475 51.9716 69.4118 52.2951 69.4118 52.7126V55.3877H67.5197C67.2326 55.3877 67 55.6719 67 56.0228C67 56.3736 67.2326 56.6577 67.5198 56.6577H69.4119V58.9015H67.5198C67.2326 58.9015 67 59.1857 67 59.5366C67 59.8874 67.2326 60.1713 67.5198 60.1713H69.4119V63.7257C69.4119 64.1667 69.4877 64.4969 69.638 64.7067C69.7809 64.9067 69.962 64.9996 70.2081 64.9996C70.4454 64.9996 70.6252 64.9063 70.7743 64.7059C70.9269 64.5006 71.0041 64.1706 71.0041 63.7257V60.1713H74.2571L76.0174 63.4686C76.1398 63.6866 76.2662 63.9066 76.3922 64.1223C76.5059 64.316 76.63 64.4867 76.7609 64.6293C76.8788 64.7582 77.0052 64.8527 77.1366 64.9104C77.2718 64.9698 77.4299 65 77.6053 65C78.0814 65 78.5689 64.822 78.5689 63.5017V60.1713H80.48C80.7672 60.1713 80.9999 59.887 80.9999 59.5362C81 59.1855 80.7672 58.9011 80.4801 58.9011ZM77.0164 56.6575V58.9011H75.3226L74.1089 56.6575H77.0164ZM71.0041 54.0795L71.7026 55.3875H71.0041V54.0795ZM71.0041 58.9011V56.6575H72.3809L73.5789 58.9011H71.0041ZM77.0164 62.0327L76.0097 60.1713H77.0164V62.0327Z" fill="white"/>
</svg>
