<svg width="88" height="88" viewBox="0 0 88 88" fill="none" xmlns="http://www.w3.org/2000/svg">
<path fill-rule="evenodd" clip-rule="evenodd" d="M33.6095 0.082178C31.9889 0.468913 31.0482 1.573 30.9251 3.23277C30.832 4.48946 31.1469 5.02092 31.9846 5.02092C32.6371 5.02092 32.9877 4.52293 32.936 3.66932C32.8817 2.77101 33.4743 2.06725 34.2852 2.06725C34.9268 2.06725 35.3078 2.32914 35.8057 3.11265C36.0878 3.55669 36.28 3.65376 36.7803 3.60493C37.9363 3.4921 38.04 2.47466 37.0164 1.28767C36.1369 0.267866 34.8055 -0.203147 33.6095 0.082178ZM44.1041 3.76837C40.0001 4.19291 34.775 5.43444 30.9311 6.89848C17.787 11.9042 7.20778 22.6524 2.53625 35.7462C0.732984 40.8012 -0.566334 48.4915 0.248616 49.2867C0.614112 49.6433 1.3887 49.571 2.03815 49.1197C3.08358 48.3935 6.73532 46.7961 8.28106 46.3891C13.0495 45.1332 17.6223 45.4497 23.7974 47.4627C25.4977 48.0172 26.6683 48.299 26.9319 48.2173C27.1633 48.1456 27.943 47.5383 28.6647 46.8678C31.8349 43.922 35.8212 41.1491 39.1335 39.5852C40.8486 38.7757 41.2904 38.2417 40.8338 37.5301C40.4627 36.9511 39.6532 37.0695 37.8162 37.971C34.6543 39.5226 30.6954 42.243 28.2154 44.5681C27.6907 45.06 27.2203 45.4223 27.1698 45.3731C27.1193 45.324 26.9131 44.266 26.7111 43.0221C26.415 41.1977 26.3464 39.6561 26.3565 35.05C26.3682 29.6871 26.4019 29.1759 26.9093 26.6501C27.8528 21.9526 29.5166 17.7528 31.7723 14.3742C33.0014 12.5333 32.9691 11.7159 31.6674 11.7159C31.2127 11.7159 30.9612 11.9457 30.2124 13.0451C24.8012 20.9905 22.8387 31.9661 24.73 43.7064C24.8862 44.677 24.9839 45.5007 24.9468 45.5369C24.9096 45.5729 23.9827 45.3445 22.887 45.0289C19.4692 44.0447 17.3555 43.7353 14.0329 43.733C9.89784 43.7302 6.89354 44.3855 3.56835 46.016C2.9189 46.3346 2.33826 46.547 2.27812 46.4886C2.10879 46.3232 2.78065 42.3601 3.34938 40.1697C7.64835 23.6145 21.1096 10.7087 38.1504 6.80435C41.0169 6.14745 43.7423 5.80621 47.1314 5.67959C57.773 5.28183 67.8967 8.38161 76.6981 14.7322C78.4684 16.0098 85.1299 22.2613 84.9293 22.4571C84.8809 22.5043 84.0651 22.6752 83.1166 22.8365C78.3552 23.6466 74.1214 25.8609 70.2007 29.5914C68.9898 30.7435 67.6672 32.1107 67.2616 32.6297C66.8559 33.1486 66.4743 33.5731 66.4131 33.5731C66.3522 33.5731 66.0829 33.0192 65.8151 32.3424C65.0062 30.2997 62.8734 26.2838 61.5476 24.308C58.1817 19.2909 54.5493 15.6071 50.0578 12.6548C47.5165 10.9846 42.9513 8.76264 42.0601 8.76244C41.3198 8.76224 40.9184 9.15115 41.0108 9.77929C41.0641 10.1414 41.6972 10.5305 44.3128 11.8085C47.9506 13.586 49.7204 14.7241 52.4199 17.0223C55.7013 19.8157 58.5742 23.3349 61.1953 27.7717C62.4726 29.934 64.5182 34.2985 64.337 34.4752C64.2908 34.5203 63.3069 34.411 62.1505 34.2322C57.9332 33.5804 48.9412 33.8815 47.9892 34.7065C47.5514 35.0858 47.5318 35.8035 47.9502 36.1422C48.2071 36.3502 48.7307 36.347 50.8261 36.1245C55.247 35.6553 60.3561 35.8498 64.4381 36.6428C65.2987 36.81 66.1614 36.8942 66.3554 36.83C66.5493 36.7657 67.2444 35.9993 67.8999 35.127C71.4134 30.4507 75.7838 27.1101 80.3956 25.5754C82.0695 25.0183 84.8078 24.5152 86.1651 24.5152C87.267 24.5152 88 24.0881 88 23.4461C88 22.5382 83.828 17.9379 80.4317 15.1012C73.4161 9.24133 65.425 5.64237 56.0115 4.10351C54.2512 3.81562 45.9142 3.5811 44.1041 3.76837ZM36.9845 13.5978C36.7377 13.7664 36.5359 14.0537 36.5359 14.2364C36.5359 14.4189 40.0324 26.0964 44.3059 40.1862C48.5795 54.276 52.076 66.0259 52.076 66.2971C52.076 66.9481 51.4877 67.4419 50.7123 67.4419C49.9093 67.4419 49.5 67.031 49.195 65.9178C49.0519 65.3964 48.7609 64.9041 48.4949 64.734C48.0897 64.4751 47.9841 64.4784 47.5351 64.7655C46.9141 65.1625 46.8941 65.693 47.4455 67.131C48.329 69.4349 50.6512 70.2269 52.7005 68.9231C53.5864 68.3594 54.0942 67.3742 54.0942 66.2191C54.0942 65.6522 51.3951 56.4413 46.3128 39.6658C37.8667 11.7858 38.2142 12.7572 36.9845 13.5978ZM70.4891 43.2399C67.6041 43.6676 65.047 44.954 62.8803 47.0683C54.2361 55.5022 60.3256 69.8049 72.5608 69.8049C76.3972 69.8049 79.3734 68.5876 82.1656 65.8763C85.142 62.986 86.3233 59.9743 86.1348 55.7556C85.9947 52.6228 85.2163 50.629 83.1095 48.0068C80.2632 44.4643 75.1806 42.5444 70.4891 43.2399ZM75.4781 45.4814C79.5563 46.5404 82.8925 49.8924 83.8623 53.9052C84.4903 56.5043 84.1921 58.9072 82.9186 61.5094C80.6285 66.1888 75.1112 68.7416 69.8858 67.5396C65.755 66.5893 62.3093 63.2883 61.2625 59.278C60.876 57.7974 60.8717 55.0678 61.2538 53.667C62.3039 49.8172 65.6286 46.5425 69.5553 45.4906C70.8909 45.1328 74.1162 45.1279 75.4781 45.4814ZM71.7678 49.4385C71.5934 49.6088 71.4508 50.0347 71.4508 50.3853C71.4508 50.9388 71.3454 51.0677 70.6483 51.3678C68.2366 52.4062 67.9679 55.7678 70.2071 56.8885C70.5026 57.0363 71.46 57.3118 72.3345 57.5007C74.5136 57.9713 75.0984 58.6488 74.2355 59.7031C73.5668 60.5197 71.6078 60.3941 70.4721 59.4619C68.9504 58.2125 67.5972 59.6389 69.0491 60.9622C69.393 61.2758 70.1195 61.6866 70.6637 61.875C71.5561 62.1844 71.6526 62.2766 71.6526 62.8214C71.6526 63.5354 71.967 63.8975 72.5868 63.8975C73.191 63.8975 73.6692 63.3954 73.678 62.7513C73.6839 62.3297 73.8542 62.1446 74.5255 61.83C76.2613 61.0161 77.1568 59.0332 76.4179 57.6391C75.8936 56.6496 74.9029 56.0662 72.8736 55.552C70.5543 54.9642 70.2324 54.6151 71.0618 53.5862C71.636 52.8738 73.0193 52.8654 74.3699 53.566C75.4046 54.1027 75.9612 54.0689 76.3017 53.4478C76.6729 52.7714 75.9059 51.878 74.5656 51.4253C73.8829 51.1948 73.7555 51.0581 73.654 50.4488C73.589 50.0594 73.4189 49.6029 73.2758 49.4348C72.9408 49.0409 72.1735 49.0427 71.7678 49.4385ZM14.6384 51.4051C14.4164 51.4551 13.7352 51.5927 13.1247 51.7107C11.4839 52.0283 8.95937 53.2511 7.5091 54.4308C4.29188 57.048 2.58468 60.6885 2.60769 64.8821C2.62767 68.4925 3.89551 71.4446 6.54339 74.045C9.22194 76.6755 11.8541 77.8353 15.5466 78.0124C18.2181 78.1404 20.0191 77.7889 22.3633 76.6818C23.7578 76.0232 24.4216 75.5417 25.8331 74.1653C28.9739 71.1027 30.3434 67.3848 29.8647 63.22C29.5099 60.133 28.2221 57.578 25.8325 55.2198C24.1976 53.6065 22.0137 52.364 19.7848 51.7792C18.6477 51.4809 15.3619 51.242 14.6384 51.4051ZM19.3725 53.7901C20.8585 54.1902 22.3013 54.9193 23.5251 55.8889C28.942 60.1802 29.3585 67.9563 24.4287 72.7586C22.8876 74.2598 21.2226 75.1772 19.0591 75.7172C17.0792 76.2112 15.4217 76.2098 13.4297 75.7128C4.94477 73.5954 1.75702 63.3822 7.64008 57.1643C10.7527 53.8743 15.0719 52.6322 19.3725 53.7901ZM15.8883 57.354C15.4887 57.4402 15.1429 58.1459 15.1429 58.8759C15.1429 59.1872 14.9922 59.3877 14.6888 59.4796C13.4263 59.862 12.3322 61.2934 12.3219 62.5763C12.316 63.3099 12.9837 64.5497 13.5954 64.9408C13.8668 65.1143 14.8485 65.4441 15.7765 65.6737C16.7046 65.9033 17.6683 66.2197 17.918 66.3772C18.5166 66.7545 18.4928 67.3421 17.8534 67.9659C17.389 68.419 17.212 68.4631 16.1577 68.3887C15.2769 68.3267 14.8013 68.1723 14.2678 67.7753C13.1631 66.953 12.1156 67.1379 12.1156 68.1552C12.1156 68.7272 13.4812 69.8667 14.5359 70.1751C15.2372 70.3801 15.3448 70.487 15.3448 70.9802C15.3448 71.6214 15.8013 72.1678 16.3369 72.1678C16.8388 72.1678 17.363 71.542 17.363 70.943C17.363 70.5699 17.4935 70.4062 17.8639 70.3157C18.5713 70.1424 19.7949 69.0416 20.1176 68.2883C20.7342 66.8483 20.2385 65.3472 18.9008 64.6031C18.4435 64.3487 17.3979 63.9846 16.5773 63.794C15.2184 63.4785 14.3357 62.9868 14.3357 62.5457C14.3357 62.452 14.524 62.1419 14.754 61.8565C15.3333 61.138 16.7666 61.1327 18.1608 61.8437C19.2427 62.3959 19.8377 62.3025 20.0851 61.5423C20.2922 60.9053 19.8443 60.3947 18.5719 59.8169C17.4861 59.3241 17.367 59.2106 17.365 58.6678C17.3618 57.7273 16.7365 57.1708 15.8883 57.354ZM59.3652 66.6602C56.5439 68.6543 57.4216 71.2577 61.4453 72.8292C63.9075 73.791 66.337 74.1633 70.8947 74.2777C78.4862 74.4681 83.6885 73.328 85.8425 71.0019C86.4975 70.2946 86.5873 70.0754 86.5873 69.1854C86.5873 68.2375 86.5251 68.1128 85.607 67.2169C84.4833 66.1207 83.7644 65.97 83.2572 66.725C82.8639 67.3108 83.0092 67.6796 83.8918 68.3363C85.1023 69.2372 84.5075 70.0648 81.9771 70.9997C77.7477 72.5628 69.3347 72.8291 64.2125 71.5621C62.3586 71.1035 60.2294 70.1225 59.9389 69.5932C59.6655 69.0946 59.8586 68.7857 60.9057 68.0457C61.4849 67.6363 61.7634 67.2929 61.7634 66.9879C61.7634 65.9161 60.636 65.7621 59.3652 66.6602ZM58.2449 73.8077C57.2517 74.5162 58.2891 76.0736 60.3575 76.9794C63.2018 78.2246 66.7417 78.7585 72.1571 78.7585C78.6228 78.7585 82.6251 78.0002 85.2972 76.2689C86.2648 75.6419 86.7308 74.7663 86.4086 74.1795C86.0197 73.4702 85.4326 73.5192 84.4575 74.3429C82.6066 75.9058 78.1833 76.7748 72.1571 76.7592C65.9455 76.7433 61.5836 75.868 59.9133 74.3021C59.0366 73.4804 58.8015 73.4107 58.2449 73.8077ZM27.499 74.4435C26.7738 74.939 26.9226 75.6195 27.9081 76.316C29.2054 77.2328 29.2613 77.4521 28.385 78.1912C26.7706 79.5526 23.1158 80.3958 18.0693 80.5708C13.025 80.7457 8.83041 80.1786 6.0792 78.9497C4.07331 78.0537 3.79379 77.4939 4.90057 76.5901C5.73873 75.9056 5.90543 75.4704 5.52984 74.9472C5.06182 74.2954 4.23981 74.4136 3.29186 75.2692C1.23249 77.1276 2.03836 79.3965 5.25375 80.7922C8.09013 82.0233 11.6626 82.5947 16.5557 82.5998C25.8124 82.6095 31.8736 80.1766 31.0052 76.8002C30.827 76.1076 29.7485 74.9697 28.8435 74.5191C27.9242 74.0615 28.0475 74.0686 27.499 74.4435ZM53.386 74.8939C52.1023 75.4866 50.9553 76.5727 50.7434 77.3968C50.5775 78.0415 50.765 78.9246 51.2078 79.5839C52.1232 80.9471 55.6016 82.4007 59.6443 83.1096C62.0986 83.5401 67.8111 83.6998 70.37 83.4095C72.9491 83.1169 75.6672 82.4874 76.135 82.0744C76.574 81.6867 76.6046 80.968 76.1964 80.6372C75.8545 80.3605 75.4084 80.4103 72.5608 81.0434C70.8366 81.4268 69.9545 81.4938 66.5062 81.5036C64.0785 81.5103 61.8264 81.412 60.8552 81.2571C57.0906 80.6559 54.0666 79.6229 53.1182 78.6139C52.4867 77.9419 52.7614 77.4523 54.1519 76.7726C55.9705 75.8834 56.2537 75.4562 55.507 74.7277C54.9824 74.2159 54.829 74.2279 53.386 74.8939ZM2.62202 82.177C2.05289 82.6266 2.17761 83.2904 2.97763 84.0709C5.79806 86.8228 16.5678 87.9481 24.668 86.3376C28.48 85.5797 30.8849 84.2261 30.8849 82.8385C30.8849 82.4326 30.7525 82.155 30.4946 82.0203C29.9033 81.7115 29.7448 81.7606 29.0082 82.4791C26.2196 85.2 13.3334 85.9243 6.5232 83.7429C5.74276 83.493 4.89633 83.036 4.35888 82.5744C3.35019 81.708 3.24585 81.6842 2.62202 82.177ZM50.8441 82.2308C49.9478 83.1053 50.9642 84.6979 53.0922 85.7541C59.6055 88.9865 75.6333 88.6584 78.7187 85.2296C79.8065 84.0209 79.6967 82.8011 78.5005 82.8011C78.0196 82.8011 77.8073 82.9466 77.4662 83.5107C76.9447 84.3732 75.9015 84.8535 73.368 85.3973C70.9767 85.9109 64.7098 86.1027 61.5277 85.7598C56.6872 85.2382 52.4797 83.8073 52.4797 82.6823C52.4797 82.3484 51.9129 81.8165 51.5571 81.8165C51.3985 81.8165 51.0776 82.003 50.8441 82.2308Z" fill="white"/>
</svg>
