<svg width="102" height="102" viewBox="0 0 102 102" fill="none" xmlns="http://www.w3.org/2000/svg">
<path fill-rule="evenodd" clip-rule="evenodd" d="M4.88063 0.216415C3.09234 0.699975 1.26632 2.29277 0.431354 4.09666L0 5.0287V22.0709V39.1131L0.557706 40.2473C1.36293 41.8845 2.96419 43.281 4.62314 43.7926C5.85232 44.1718 6.46073 44.1959 14.792 44.1959H23.6536L23.6602 68.6629C23.6638 82.1199 23.7464 93.7488 23.844 94.5051C24.1846 97.1435 25.7577 99.5173 28.0576 100.863C30.0435 102.025 29.5383 102 51 102C72.7116 102 71.9591 102.041 74.1271 100.746C76.2643 99.469 77.829 97.0355 78.1597 94.4738C78.2552 93.7347 78.3362 82.1199 78.3398 68.6629L78.3464 44.1959H87.1926C96.7219 44.1959 97.2437 44.1474 98.8879 43.111C99.8851 42.4825 101.047 41.1508 101.565 40.044L102 39.1131V22.0709V5.0287L101.449 3.9075C100.798 2.58538 99.2716 1.08906 97.9513 0.479922L97.0098 0.0455944L51.3992 0.00812145C15.7848 -0.0211792 5.58964 0.024466 4.88063 0.216415ZM96.5702 3.60373C97.4274 3.96132 98.4583 5.16085 98.6055 5.9713C98.6705 6.32988 98.6975 13.8059 98.6653 22.5848L98.6067 38.5464L98.031 39.2999C96.8836 40.802 96.9118 40.798 87.0793 40.803L78.3464 40.8074V38.2293V35.6515L82.9873 35.5883C87.3567 35.5291 87.6775 35.499 88.4709 35.0756C89.7907 34.3714 90.6592 33.5005 91.2553 32.2843C92.7264 29.2817 91.3431 25.6637 88.1623 24.1959L87.229 23.7652H51.0998C15.9675 23.7652 14.9433 23.7757 13.9782 24.1473C10.7876 25.3761 9.25266 29.239 10.7447 32.2843C11.3408 33.5005 12.2093 34.3714 13.5291 35.0756C14.3225 35.499 14.6433 35.5291 19.0127 35.5883L23.6536 35.6515V38.2293V40.8074L14.9207 40.803C5.08822 40.798 5.11637 40.802 3.96902 39.2999L3.39335 38.5462L3.33526 22.5848C3.30352 13.8059 3.33027 6.32988 3.39514 5.9713C3.53746 5.18277 4.55946 3.97168 5.38564 3.6123C6.29326 3.21724 95.6241 3.20907 96.5702 3.60373ZM23.6536 29.7449V32.2364L19.5117 32.2356C14.8277 32.2348 14.4493 32.1364 13.7884 30.7457C13.3133 29.7459 13.5133 28.7684 14.3676 27.9153L15.0305 27.2533H19.3421H23.6536V29.7449ZM32.2368 62.9323C32.2368 92.3312 32.1905 98.6114 31.9737 98.6114C31.2817 98.6114 29.6662 97.9625 29.0111 97.4214C28.6093 97.0895 28.048 96.3518 27.7636 95.7819L27.2466 94.7459V60.9997V27.2533H29.7417H32.2368V62.9323ZM42.4168 62.9323V98.6114H39.0235H35.6301V62.9323V27.2533H39.0235H42.4168V62.9323ZM74.7534 60.9997V94.7459L74.2364 95.7819C73.952 96.3518 73.3907 97.0895 72.9889 97.4214C71.5549 98.6058 71.486 98.6114 58.0498 98.6114H45.8102V62.9323V27.2533H60.2818H74.7534V60.9997ZM87.6324 27.9153C88.4867 28.7684 88.6867 29.7459 88.2116 30.7457C87.5507 32.1364 87.1723 32.2348 82.4883 32.2356L78.3464 32.2364V29.7449V27.2533H82.6579H86.9695L87.6324 27.9153ZM51.7811 44.4514C51.0108 45.042 51 45.229 51 57.9453V70.3255L51.49 70.8146C51.8282 71.1525 52.2018 71.304 52.6967 71.304C53.1915 71.304 53.5652 71.1525 53.9033 70.8146L54.3933 70.3255V57.788V45.2507L53.9039 44.7233C53.3684 44.1464 52.3492 44.0159 51.7811 44.4514ZM60.0732 60.0332L59.5832 60.5223V65.388C59.5832 70.0085 59.6039 70.28 59.997 70.7787C60.2966 71.1592 60.5948 71.304 61.0784 71.304C62.8653 71.304 62.9765 70.9595 62.9765 65.4207C62.9765 60.8542 62.9057 60.3439 62.1954 59.7994C61.6497 59.381 60.6115 59.4954 60.0732 60.0332ZM53.0959 76.7688C52.3519 77.1005 51.4928 78.0004 51.2124 78.7417C51.0798 79.0917 51.0016 81.4543 51.0044 85.0204C51.0094 91.4297 51.0954 91.9045 52.4238 92.8507C53.0879 93.3235 53.1524 93.3293 57.822 93.3293C62.2839 93.3293 62.5789 93.3063 63.0993 92.9183C63.4025 92.6922 63.8356 92.2599 64.062 91.9573C64.4542 91.4329 64.476 91.116 64.5247 85.1926C64.575 79.0612 64.5698 78.9672 64.1247 78.1806C63.829 77.6584 63.3666 77.2287 62.7837 76.9349C61.9451 76.5123 61.6573 76.4868 57.7943 76.4942C54.8149 76.4999 53.531 76.5749 53.0959 76.7688ZM61.18 84.9576V90.0404H57.7867H54.3933V84.9576V79.8749H57.7867H61.18V84.9576Z" fill="white"/>
</svg>
