<svg width="94" height="92" viewBox="0 0 94 92" fill="none" xmlns="http://www.w3.org/2000/svg">
<g clip-path="url(#clip0_76_4469)">
<path d="M11.4546 9.86341C12.215 9.08409 69.2554 9.05879 70.1465 9.8381C70.702 10.3214 70.702 10.3214 70.702 25.0323C70.702 36.4361 70.7711 39.8241 71.0106 40.1075C71.1809 40.3074 72.7509 40.7578 74.5284 41.112C78.8164 41.9647 82.2206 43.4399 85.6175 45.9119C88.8169 48.2398 88.9699 48.4953 88.9699 51.4886C88.9699 62.0069 83.8796 71.7838 74.4049 79.4555C70.8254 82.3552 70.8254 82.3551 70.702 84.5742C70.6082 86.2441 70.4749 86.8843 70.1539 87.1677C69.7836 87.4941 65.9992 87.5422 40.592 87.5422C11.4546 87.5422 11.4546 87.5422 11.2078 86.8489C10.6523 85.2928 10.8918 10.4403 11.4546 9.86341ZM68.6333 84.5185C68.9073 82.8005 68.6456 82.4184 65.5499 79.9868C63.9478 78.7318 61.3779 76.3585 59.835 74.7163L57.0356 71.7281C17.5028 71.4624 18.3397 71.5307 19.0235 70.0025C19.2703 69.4509 19.2703 69.4509 36.9655 69.3825C47.556 69.3421 54.7768 69.2181 54.9447 69.0764C55.1496 68.9043 54.9619 68.3958 54.2633 67.247L53.2981 65.6555C18.4977 65.3923 18.6236 65.4025 18.9371 64.1702C19.1617 63.2872 19.769 63.2543 35.8127 63.2543C44.527 63.2517 51.7947 63.1784 51.965 63.0873C52.2069 62.9582 52.1724 62.5407 51.807 61.1896L51.3429 59.4564C18.9445 59.4564 18.8605 59.4513 18.8605 58.2722C18.8605 57.1791 18.863 57.1791 35.2202 57.1791C50.7702 57.1791 50.7702 57.1791 50.6171 56.2303C50.5332 55.7091 50.4641 54.8538 50.4616 54.3326C50.4591 53.3838 50.4591 53.3838 35.1585 53.3838C19.3839 53.3838 19.1691 53.3711 18.905 52.3388C18.5915 51.1065 18.589 51.1065 34.9536 51.1065C50.2123 51.1065 50.2123 51.1065 50.1999 50.1577C50.158 47.0126 58.065 42.2785 65.619 40.9299L68.7271 40.3757V11.6346H12.9358V85.518C68.4753 85.518 68.4753 85.518 68.6333 84.5185ZM73.0126 77.8817C80.9221 71.5333 85.2645 64.3752 86.5556 55.5623C87.3307 50.2538 87.2271 49.7908 84.8102 47.9108C77.2661 42.0406 66.8879 41.1272 58.223 45.5703C53.7276 47.8729 52.5772 49.1608 52.4809 51.9921C52.2464 58.8693 55.6457 67.0775 61.2644 73.2007C62.474 74.519 64.8143 76.6899 66.4658 78.0259C68.1173 79.3644 69.5442 80.4575 69.6355 80.4575C69.7269 80.4575 71.2475 79.2986 73.0126 77.8817Z" fill="white" fill-opacity="0.988235"/>
<path d="M35.4014 40.7046V37.4431C27.9683 37.4431 28.2424 37.8125 28.2424 32.0942C28.2424 26.1557 27.9609 26.563 32.0786 26.563H35.4014C35.4014 18.8913 34.9793 19.2253 40.6571 19.2304C43.264 19.2304 45.5352 19.3214 45.7006 19.4302C45.9079 19.5643 46.024 20.6954 46.0709 23.0308L46.14 26.4365L53.0522 26.6895C53.2003 37.8859 53.5089 37.4102 49.3863 37.4988L46.14 37.5696C46.0314 42.7263 45.8857 44.2571 45.7327 44.4494C45.5278 44.7024 44.3527 44.7809 40.8028 44.7809C36.8406 44.7809 36.0852 44.7201 35.7717 44.3735C35.4829 44.0572 35.4014 43.2576 35.4014 40.7046ZM44.0416 42.7566C44.0416 35.2266 43.8219 35.4543 47.8829 35.3632L51.0773 35.2924L51.2155 28.5872C43.8096 28.5872 44.0416 28.8251 44.0416 24.6147V21.2495H37.6232C37.6232 28.8074 37.8256 28.5872 33.7869 28.5872H30.4641V35.4189C36.8209 35.4189 37.1344 35.4619 37.3664 35.9073C37.5072 36.178 37.6232 37.8277 37.6232 39.5761V42.7566H44.0416Z" fill="white" fill-opacity="0.988235"/>
<path d="M19.0038 75.8826C19.532 75.2804 44.1543 75.1084 44.7319 75.7005C45.1861 76.166 45.0849 77.1199 44.5517 77.4109C44.2407 77.583 39.7996 77.6741 31.8382 77.6741C25.1062 77.6741 19.4802 77.588 19.3345 77.4843C18.705 77.0364 18.5668 76.376 19.0038 75.8826Z" fill="white" fill-opacity="0.988235"/>
<path d="M62.6476 58.9228C62.9117 57.5717 63.7412 57.9462 65.8692 60.3777C67.7824 62.5639 67.7824 62.5639 68.3551 61.9591C68.6711 61.6277 70.3399 59.7047 72.0679 57.6855C75.408 53.7814 76.1831 53.2677 76.746 54.5809C76.9608 55.087 76.5312 55.6791 72.7147 60.1323C69.6906 63.6645 68.2687 65.1422 67.8441 65.1979C67.3504 65.2637 66.8319 64.7829 64.8768 62.4652C62.7784 59.9805 62.5217 59.5706 62.6476 58.9228Z" fill="white" fill-opacity="0.988235"/>
</g>
<defs>
<clipPath id="clip0_76_4469">
<rect width="94" height="92" fill="white"/>
</clipPath>
</defs>
</svg>
