<svg width="79" height="70" viewBox="0 0 79 70" fill="none" xmlns="http://www.w3.org/2000/svg">
<path d="M38.7553 17.8518H6.72823C4.4459 17.8518 2.5957 19.702 2.5957 21.9843V64.1235C2.5957 66.4059 4.4459 68.2561 6.72823 68.2561H65.6167C67.899 68.2561 69.7492 66.4059 69.7492 64.1235V44.8541" stroke="white" stroke-width="2.07479" stroke-linecap="round"/>
<path d="M23.9482 27.8896C28.4675 27.8896 32.2089 31.7336 32.209 36.5732C32.209 41.4129 28.4676 45.2568 23.9482 45.2568C19.4291 45.2567 15.6875 41.4128 15.6875 36.5732C15.6876 31.7337 19.4291 27.8898 23.9482 27.8896Z" stroke="white" stroke-width="2.07479"/>
<path d="M26.702 44.8542H21.5364C15.8306 44.8542 11.2051 49.4797 11.2051 55.1856V55.843C11.2051 58.1253 13.0553 59.9755 15.3376 59.9755H32.9008C35.1832 59.9755 37.0333 58.1253 37.0333 55.843V55.1856C37.0333 49.4797 32.4079 44.8542 26.702 44.8542Z" stroke="white" stroke-width="2.07479" stroke-linecap="round"/>
<path d="M45.6426 50.2544H55.9739" stroke="white" stroke-width="2.07479" stroke-linecap="round"/>
<path d="M45.6426 59.2551H61.1395" stroke="white" stroke-width="2.07479" stroke-linecap="round"/>
<path d="M44.3653 10.2088C50.6512 8.98981 54.3859 7.24363 61.0497 1.86766C61.1971 1.74878 61.4168 1.77013 61.5381 1.91545C65.7172 6.9198 69.1294 8.77249 76.5552 10.2098C76.7073 10.2393 76.8245 10.3706 76.8368 10.525C78.2362 28.0236 74.8661 35.557 61.4917 44.5808C61.3866 44.6516 61.2459 44.6592 61.134 44.5998C47.7306 37.4895 42.9444 30.8964 44.0839 10.5331C44.0927 10.3753 44.2102 10.2388 44.3653 10.2088Z" stroke="white" stroke-width="2.07479" stroke-linecap="round"/>
<path d="M59.7045 29.9428L59.6242 29.9398C59.4226 29.9278 59.2257 29.8717 59.0463 29.775C58.8668 29.6784 58.7088 29.5434 58.5824 29.3788L52.8428 21.8781C52.6307 21.5653 52.5411 21.1795 52.5921 20.7997C52.6432 20.42 52.8312 20.075 53.1176 19.8354C53.4039 19.5958 53.7671 19.4797 54.1327 19.5109C54.4983 19.542 54.8386 19.7181 55.0841 20.003L59.8222 26.1955L68.733 16.8797C69.0036 16.6065 69.366 16.4553 69.7423 16.4587C70.1185 16.4621 70.4784 16.6199 70.7444 16.898C71.0105 17.1761 71.1614 17.5524 71.1646 17.9457C71.1679 18.339 71.0233 18.718 70.7619 19.0009L60.7176 29.5018C60.5852 29.642 60.4275 29.7532 60.2535 29.8289C60.0796 29.9047 59.893 29.9434 59.7045 29.9428Z" fill="white"/>
</svg>
