<svg width="99" height="99" viewBox="0 0 99 99" fill="none" xmlns="http://www.w3.org/2000/svg">
<mask id="path-1-inside-1_1_8269" fill="white">
<path d="M35.8692 46.2454V30.9186C35.8692 30.0031 36.1908 29.2238 36.8338 28.5807C37.4741 27.9377 38.2534 27.6162 39.1716 27.6162C40.0899 27.6162 40.8692 27.9377 41.5095 28.5807C42.1525 29.2238 42.4741 30.0031 42.4741 30.9186V46.2454C42.4741 47.1636 42.1525 47.9429 41.5095 48.5832C40.8664 49.2263 40.0872 49.5478 39.1716 49.5478C38.2561 49.5478 37.4768 49.2263 36.8338 48.5832C36.1908 47.9402 35.8692 47.1609 35.8692 46.2454ZM53.6361 51.5342V14.57C53.6361 13.6545 53.9562 12.8752 54.5965 12.2321C55.2396 11.5891 56.0189 11.2676 56.9344 11.2676C57.8526 11.2676 58.6319 11.5891 59.2722 12.2321C59.9153 12.8752 60.2368 13.6545 60.2368 14.57V51.5342C60.2368 52.635 59.8989 53.4606 59.2232 54.011C58.5447 54.5614 57.7859 54.8366 56.9467 54.8366C56.1074 54.8366 55.3445 54.5614 54.6578 54.011C53.9712 53.4606 53.6306 52.635 53.6361 51.5342ZM17.9512 60.2888V47.2672C17.9512 46.3517 18.2713 45.5724 18.9117 44.9293C19.5547 44.2863 20.3353 43.9648 21.2536 43.9648C22.1718 43.9648 22.9511 44.2863 23.5914 44.9293C24.2318 45.5724 24.5519 46.3517 24.5519 47.2672V60.2929C24.5519 61.3937 24.214 62.218 23.5383 62.7656C22.8626 63.316 22.1037 63.5912 21.2618 63.5912C20.4225 63.5912 19.6596 63.316 18.973 62.7656C18.2918 62.218 17.9512 61.3937 17.9512 60.2929M22.3857 84.2559C21.4729 84.2559 20.8421 83.8403 20.4934 83.0093C20.1446 82.181 20.3026 81.433 20.9675 80.7654L36.9401 64.797C37.5313 64.203 38.2602 63.8719 39.1267 63.8038C39.9932 63.7357 40.7629 63.9986 41.4359 64.5926L53.6361 75.0761L81.2366 47.4715H73.9124C73.332 47.4715 72.847 47.2754 72.4574 46.883C72.0677 46.4906 71.8716 46.0043 71.8688 45.4239C71.8661 44.8435 72.0623 44.3585 72.4574 43.9688C72.8525 43.5792 73.3375 43.3844 73.9124 43.3844H84.915C85.8523 43.3844 86.6371 43.7005 87.2692 44.3326C87.9013 44.9648 88.2174 45.7495 88.2174 46.6868V57.6894C88.2174 58.2698 88.0212 58.7548 87.6289 59.1444C87.2365 59.5341 86.7501 59.7303 86.1698 59.733C85.5894 59.7357 85.1044 59.5395 84.7147 59.1444C84.3251 58.7493 84.1303 58.2643 84.1303 57.6894V50.3652L55.9126 78.5829C55.3213 79.1742 54.5925 79.5039 53.726 79.572C52.8595 79.6401 52.0898 79.3772 51.4167 78.7832L39.2166 68.2996L23.8612 83.6591C23.6868 83.8226 23.4675 83.963 23.2032 84.0801C22.9389 84.1973 22.6664 84.2559 22.3857 84.2559Z"/>
</mask>
<path d="M35.8692 46.2454V30.9186C35.8692 30.0031 36.1908 29.2238 36.8338 28.5807C37.4741 27.9377 38.2534 27.6162 39.1716 27.6162C40.0899 27.6162 40.8692 27.9377 41.5095 28.5807C42.1525 29.2238 42.4741 30.0031 42.4741 30.9186V46.2454C42.4741 47.1636 42.1525 47.9429 41.5095 48.5832C40.8664 49.2263 40.0872 49.5478 39.1716 49.5478C38.2561 49.5478 37.4768 49.2263 36.8338 48.5832C36.1908 47.9402 35.8692 47.1609 35.8692 46.2454ZM53.6361 51.5342V14.57C53.6361 13.6545 53.9562 12.8752 54.5965 12.2321C55.2396 11.5891 56.0189 11.2676 56.9344 11.2676C57.8526 11.2676 58.6319 11.5891 59.2722 12.2321C59.9153 12.8752 60.2368 13.6545 60.2368 14.57V51.5342C60.2368 52.635 59.8989 53.4606 59.2232 54.011C58.5447 54.5614 57.7859 54.8366 56.9467 54.8366C56.1074 54.8366 55.3445 54.5614 54.6578 54.011C53.9712 53.4606 53.6306 52.635 53.6361 51.5342ZM17.9512 60.2888V47.2672C17.9512 46.3517 18.2713 45.5724 18.9117 44.9293C19.5547 44.2863 20.3353 43.9648 21.2536 43.9648C22.1718 43.9648 22.9511 44.2863 23.5914 44.9293C24.2318 45.5724 24.5519 46.3517 24.5519 47.2672V60.2929C24.5519 61.3937 24.214 62.218 23.5383 62.7656C22.8626 63.316 22.1037 63.5912 21.2618 63.5912C20.4225 63.5912 19.6596 63.316 18.973 62.7656C18.2918 62.218 17.9512 61.3937 17.9512 60.2929M22.3857 84.2559C21.4729 84.2559 20.8421 83.8403 20.4934 83.0093C20.1446 82.181 20.3026 81.433 20.9675 80.7654L36.9401 64.797C37.5313 64.203 38.2602 63.8719 39.1267 63.8038C39.9932 63.7357 40.7629 63.9986 41.4359 64.5926L53.6361 75.0761L81.2366 47.4715H73.9124C73.332 47.4715 72.847 47.2754 72.4574 46.883C72.0677 46.4906 71.8716 46.0043 71.8688 45.4239C71.8661 44.8435 72.0623 44.3585 72.4574 43.9688C72.8525 43.5792 73.3375 43.3844 73.9124 43.3844H84.915C85.8523 43.3844 86.6371 43.7005 87.2692 44.3326C87.9013 44.9648 88.2174 45.7495 88.2174 46.6868V57.6894C88.2174 58.2698 88.0212 58.7548 87.6289 59.1444C87.2365 59.5341 86.7501 59.7303 86.1698 59.733C85.5894 59.7357 85.1044 59.5395 84.7147 59.1444C84.3251 58.7493 84.1303 58.2643 84.1303 57.6894V50.3652L55.9126 78.5829C55.3213 79.1742 54.5925 79.5039 53.726 79.572C52.8595 79.6401 52.0898 79.3772 51.4167 78.7832L39.2166 68.2996L23.8612 83.6591C23.6868 83.8226 23.4675 83.963 23.2032 84.0801C22.9389 84.1973 22.6664 84.2559 22.3857 84.2559Z" fill="white"/>
<path d="M36.8338 28.5807L37.2173 28.9643L37.2181 28.9635L36.8338 28.5807ZM41.5095 28.5807L41.1251 28.9635L41.126 28.9643L41.5095 28.5807ZM41.5095 48.5832L41.1268 48.1989L41.126 48.1997L41.5095 48.5832ZM53.6361 51.5342L54.1785 51.5368V51.5342H53.6361ZM54.5965 12.2321L54.213 11.8486L54.2122 11.8494L54.5965 12.2321ZM59.2722 12.2321L58.8879 12.6149L58.8887 12.6157L59.2722 12.2321ZM59.2232 54.011L59.5649 54.4322L59.5657 54.4315L59.2232 54.011ZM18.9117 44.9293L18.5281 44.5458L18.5273 44.5466L18.9117 44.9293ZM23.5383 62.7656L23.1968 62.3443L23.1958 62.3451L23.5383 62.7656ZM18.973 62.7656L18.6331 63.1884L18.6337 63.1889L18.973 62.7656ZM22.3857 84.2559V83.7135V84.2559ZM20.4934 83.0093L20.9935 82.7994L20.9933 82.7988L20.4934 83.0093ZM20.9675 80.7654L20.584 80.3819L20.5832 80.3827L20.9675 80.7654ZM36.9401 64.797L37.3236 65.1805L37.3245 65.1796L36.9401 64.797ZM41.4359 64.5926L41.077 64.9993L41.0824 65.004L41.4359 64.5926ZM53.6361 75.0761L53.2826 75.4875L53.664 75.8153L54.0196 75.4596L53.6361 75.0761ZM81.2366 47.4715L81.6201 47.855L82.5459 46.9291H81.2366V47.4715ZM84.1303 50.3652H84.6727V49.0558L83.7467 49.9817L84.1303 50.3652ZM55.9126 78.5829L56.2961 78.9665L55.9126 78.5829ZM51.4167 78.7832L51.7757 78.3765L51.7702 78.3718L51.4167 78.7832ZM39.2166 68.2996L39.5701 67.8883L39.1886 67.5605L38.833 67.9162L39.2166 68.2996ZM23.8612 83.6591L24.2322 84.0548L24.2386 84.0488L24.2448 84.0426L23.8612 83.6591ZM36.4116 46.2454V30.9186H35.3268V46.2454H36.4116ZM36.4116 30.9186C36.4116 30.1458 36.6768 29.5048 37.2173 28.9643L36.4503 28.1972C35.7047 28.9427 35.3268 29.8603 35.3268 30.9186H36.4116ZM37.2181 28.9635C37.7553 28.424 38.3957 28.1586 39.1716 28.1586V27.0738C38.1111 27.0738 37.1929 27.4514 36.4494 28.198L37.2181 28.9635ZM39.1716 28.1586C39.9476 28.1586 40.588 28.424 41.1251 28.9635L41.8938 28.198C41.1504 27.4514 40.2322 27.0738 39.1716 27.0738V28.1586ZM41.126 28.9643C41.6665 29.5048 41.9317 30.1458 41.9317 30.9186H43.0165C43.0165 29.8603 42.6386 28.9427 41.893 28.1972L41.126 28.9643ZM41.9317 30.9186V46.2454H43.0165V30.9186H41.9317ZM41.9317 46.2454C41.9317 47.0213 41.6662 47.6617 41.1268 48.1989L41.8922 48.9676C42.6388 48.2241 43.0165 47.306 43.0165 46.2454H41.9317ZM41.126 48.1997C40.5854 48.7403 39.9444 49.0054 39.1716 49.0054V50.0902C40.2299 50.0902 41.1475 49.7123 41.893 48.9668L41.126 48.1997ZM39.1716 49.0054C38.3989 49.0054 37.7579 48.7403 37.2173 48.1997L36.4503 48.9668C37.1958 49.7123 38.1134 50.0902 39.1716 50.0902V49.0054ZM37.2173 48.1997C36.6768 47.6591 36.4116 47.0182 36.4116 46.2454H35.3268C35.3268 47.3037 35.7047 48.2212 36.4503 48.9668L37.2173 48.1997ZM54.1785 51.5342V14.57H53.0937V51.5342H54.1785ZM54.1785 14.57C54.1785 13.7965 54.4428 13.1553 54.9809 12.6149L54.2122 11.8494C53.4696 12.5951 53.0937 13.5124 53.0937 14.57H54.1785ZM54.9801 12.6157C55.5206 12.0751 56.1616 11.81 56.9344 11.81V10.7252C55.8761 10.7252 54.9585 11.1031 54.213 11.8486L54.9801 12.6157ZM56.9344 11.81C57.7103 11.81 58.3507 12.0754 58.8879 12.6149L59.6566 11.8494C58.9131 11.1028 57.995 10.7252 56.9344 10.7252V11.81ZM58.8887 12.6157C59.4293 13.1562 59.6944 13.7972 59.6944 14.57H60.7792C60.7792 13.5117 60.4013 12.5941 59.6558 11.8486L58.8887 12.6157ZM59.6944 14.57V51.5342H60.7792V14.57H59.6944ZM59.6944 51.5342C59.6944 52.5186 59.3977 53.1693 58.8806 53.5904L59.5657 54.4315C60.4002 53.7518 60.7792 52.7513 60.7792 51.5342H59.6944ZM58.8815 53.5897C58.2954 54.0652 57.656 54.2942 56.9467 54.2942V55.379C57.9157 55.379 58.7941 55.0575 59.5649 54.4322L58.8815 53.5897ZM56.9467 54.2942C56.2371 54.2942 55.5925 54.0651 54.9971 53.5878L54.3186 54.4342C55.0964 55.0577 55.9778 55.379 56.9467 55.379V54.2942ZM54.9971 53.5878C54.4714 53.1664 54.1736 52.5177 54.1785 51.5368L53.0937 51.5315C53.0876 52.7522 53.471 53.7547 54.3186 54.4342L54.9971 53.5878ZM18.4936 60.2888V47.2672H17.4088V60.2888H18.4936ZM18.4936 47.2672C18.4936 46.4937 18.7579 45.8524 19.296 45.3121L18.5273 44.5466C17.7848 45.2923 17.4088 46.2096 17.4088 47.2672H18.4936ZM19.2952 45.3129C19.8354 44.7726 20.4776 44.5072 21.2536 44.5072V43.4224C20.1931 43.4224 19.274 43.7999 18.5281 44.5458L19.2952 45.3129ZM21.2536 44.5072C22.0295 44.5072 22.6699 44.7726 23.2071 45.3121L23.9758 44.5466C23.2323 43.8 22.3142 43.4224 21.2536 43.4224V44.5072ZM23.2071 45.3121C23.7452 45.8524 24.0095 46.4937 24.0095 47.2672H25.0943C25.0943 46.2096 24.7183 45.2923 23.9758 44.5466L23.2071 45.3121ZM24.0095 47.2672V60.2929H25.0943V47.2672H24.0095ZM24.0095 60.2929C24.0095 61.2775 23.7128 61.9261 23.1968 62.3443L23.8798 63.187C24.7153 62.5099 25.0943 61.51 25.0943 60.2929H24.0095ZM23.1958 62.3451C22.6131 62.8197 21.9742 63.0488 21.2618 63.0488V64.1337C22.2332 64.1337 23.112 63.8124 23.8808 63.1862L23.1958 62.3451ZM21.2618 63.0488C20.5522 63.0488 19.9076 62.8197 19.3122 62.3424L18.6337 63.1889C19.4116 63.8124 20.2929 64.1337 21.2618 64.1337V63.0488ZM19.3128 62.3429C18.792 61.9242 18.4936 61.276 18.4936 60.2929H17.4088C17.4088 61.5115 17.7915 62.5117 18.6331 63.1884L19.3128 62.3429ZM22.3857 83.7135C22.013 83.7135 21.7362 83.6295 21.5264 83.4913C21.3171 83.3534 21.1344 83.1352 20.9935 82.7994L19.9932 83.2192C20.2011 83.7145 20.5082 84.1196 20.9297 84.3972C21.3506 84.6745 21.8456 84.7983 22.3857 84.7983V83.7135ZM20.9933 82.7988C20.8541 82.4682 20.8286 82.187 20.881 81.9392C20.9338 81.6892 21.076 81.4251 21.3518 81.1482L20.5832 80.3827C20.1941 80.7734 19.9249 81.217 19.8196 81.715C19.714 82.2151 19.7839 82.7221 19.9935 83.2198L20.9933 82.7988ZM21.351 81.149L37.3236 65.1805L36.5566 64.4134L20.584 80.3819L21.351 81.149ZM37.3245 65.1796C37.8207 64.6811 38.4267 64.4029 39.1692 64.3445L39.0842 63.263C38.0937 63.3409 37.242 63.7248 36.5556 64.4143L37.3245 65.1796ZM39.1692 64.3445C39.8839 64.2883 40.5101 64.4989 41.077 64.9993L41.7948 64.1859C41.0158 63.4983 40.1024 63.183 39.0842 63.263L39.1692 64.3445ZM41.0824 65.004L53.2826 75.4875L53.9896 74.6648L41.7894 64.1812L41.0824 65.004ZM54.0196 75.4596L81.6201 47.855L80.853 47.088L53.2525 74.6926L54.0196 75.4596ZM81.2366 46.9291H73.9124V48.0139H81.2366V46.9291ZM73.9124 46.9291C73.4686 46.9291 73.1246 46.7851 72.8422 46.5008L72.0725 47.2652C72.5695 47.7656 73.1955 48.0139 73.9124 48.0139V46.9291ZM72.8422 46.5008C72.5583 46.2148 72.4133 45.8672 72.4112 45.4213L71.3264 45.4264C71.3298 46.1413 71.5772 46.7664 72.0725 47.2652L72.8422 46.5008ZM72.4112 45.4213C72.4091 44.9795 72.5524 44.637 72.8382 44.355L72.0765 43.5827C71.5722 44.08 71.3231 44.7075 71.3264 45.4264L72.4112 45.4213ZM72.8382 44.355C73.1278 44.0695 73.4743 43.9268 73.9124 43.9268V42.842C73.2007 42.842 72.5771 43.089 72.0765 43.5827L72.8382 44.355ZM73.9124 43.9268H84.915V42.842H73.9124V43.9268ZM84.915 43.9268C85.7162 43.9268 86.3606 44.1911 86.8857 44.7161L87.6527 43.9491C86.9135 43.2098 85.9884 42.842 84.915 42.842V43.9268ZM86.8857 44.7161C87.4107 45.2412 87.675 45.8856 87.675 46.6868H88.7598C88.7598 45.6134 88.392 44.6883 87.6527 43.9491L86.8857 44.7161ZM87.675 46.6868V57.6894H88.7598V46.6868H87.675ZM87.675 57.6894C87.675 58.1333 87.531 58.4772 87.2467 58.7596L88.0111 59.5293C88.5115 59.0323 88.7598 58.4063 88.7598 57.6894H87.675ZM87.2467 58.7596C86.9607 59.0435 86.6131 59.1885 86.1672 59.1906L86.1723 60.2754C86.8872 60.272 87.5123 60.0246 88.0111 59.5293L87.2467 58.7596ZM86.1672 59.1906C85.7254 59.1927 85.3829 59.0495 85.1009 58.7636L84.3285 59.5253C84.8259 60.0296 85.4534 60.2788 86.1723 60.2754L86.1672 59.1906ZM85.1009 58.7636C84.8153 58.474 84.6727 58.1275 84.6727 57.6894H83.5879C83.5879 58.4011 83.8349 59.0247 84.3285 59.5253L85.1009 58.7636ZM84.6727 57.6894V50.3652H83.5879V57.6894H84.6727ZM83.7467 49.9817L55.5291 78.1994L56.2961 78.9665L84.5138 50.7488L83.7467 49.9817ZM55.5291 78.1994C55.033 78.6955 54.4267 78.9728 53.6835 79.0313L53.7685 80.1127C54.7582 80.0349 55.6097 79.6529 56.2961 78.9665L55.5291 78.1994ZM53.6835 79.0313C52.9687 79.0875 52.3426 78.8769 51.7757 78.3765L51.0578 79.1898C51.8369 79.8775 52.7503 80.1928 53.7685 80.1127L53.6835 79.0313ZM51.7702 78.3718L39.5701 67.8883L38.8631 68.711L51.0632 79.1946L51.7702 78.3718ZM38.833 67.9162L23.4776 83.2757L24.2448 84.0426L39.6002 68.6831L38.833 67.9162ZM23.4902 83.2634C23.3684 83.3776 23.2033 83.4868 22.9833 83.5843L23.423 84.576C23.7316 84.4392 24.0052 84.2676 24.2322 84.0548L23.4902 83.2634ZM22.9833 83.5843C22.7861 83.6717 22.5884 83.7135 22.3857 83.7135V84.7983C22.7444 84.7983 23.0916 84.7229 23.423 84.576L22.9833 83.5843Z" fill="#35C771" mask="url(#path-1-inside-1_1_8269)"/>
</svg>
