<svg width="91" height="81" viewBox="0 0 91 81" fill="none" xmlns="http://www.w3.org/2000/svg">
<path d="M36.001 49.0021C32.6674 49.0023 30.0321 51.9783 30.5957 55.3956V55.3966C31.0488 58.1326 33.5948 59.9523 36.249 59.9523H47.6553C48.4876 59.9524 49.1717 60.6365 49.1719 61.4689C49.1719 62.3013 48.4877 62.9863 47.6553 62.9865H30.4219C28.4775 62.9864 26.6043 62.3341 25.1055 61.1271L25.1035 61.1251L11.6436 50.3605C9.57207 48.6918 6.44241 48.528 4.38574 50.3907L4.15234 50.6134C1.82236 52.9595 2.09184 56.7483 4.6123 58.755L26.6367 76.38V76.381C28.4422 77.8222 30.6759 78.5978 32.9717 78.5978H84.9463C86.6775 78.5978 88.0908 77.1845 88.0908 75.4532V61.4689C88.0907 59.7378 86.6774 58.3253 84.9463 58.3253H77.166L70.6152 53.0148H70.6143L70.3125 52.7745C67.1631 50.3339 63.3006 49.0021 59.3086 49.0021H36.001Z" stroke="white" stroke-width="1.62721"/>
<path d="M50.6175 25.8659C50.369 25.8659 50.1434 25.8296 49.9472 25.7588C49.7522 25.6892 49.5655 25.5752 49.3932 25.421C49.2198 25.2664 49.0545 25.0813 48.9038 24.8705C48.7502 24.6555 48.5966 24.4367 48.4482 24.2199L46.4131 21.1H42.9671V24.2992C42.9671 24.818 42.8469 25.2128 42.6101 25.4745C42.3709 25.7376 42.0726 25.8655 41.6985 25.8655C41.3113 25.8655 41.0105 25.7362 40.7785 25.4704C40.5468 25.2062 40.4295 24.812 40.4295 24.2992V21.1H38.4572C37.9413 21.1 37.5215 20.6803 37.5215 20.1643C37.5215 19.6484 37.9413 19.2286 38.4572 19.2286H40.4295V17.6316H38.4572C37.9413 17.6318 37.5215 17.2121 37.5215 16.6963C37.5215 16.1806 37.9413 15.7606 38.4572 15.7606H40.4295V13.4289C40.4295 12.9782 40.4785 12.6241 40.575 12.3768C40.6957 12.0907 40.8855 11.8696 41.1585 11.6929C41.4315 11.5159 41.7183 11.4298 42.0351 11.4298C42.2799 11.4298 42.4924 11.4697 42.6653 11.549C42.843 11.6301 42.9935 11.7355 43.1257 11.8712C43.2603 12.0089 43.3995 12.1897 43.5399 12.4077C43.6842 12.6321 43.833 12.8658 43.9909 13.1153L45.7393 15.7606H49.5986V12.9965C49.5986 12.4707 49.7112 12.0734 49.9332 11.815C50.1559 11.5558 50.4491 11.4298 50.8291 11.4298C51.222 11.4298 51.5231 11.556 51.7492 11.8156C51.9742 12.0738 52.0881 12.4713 52.0881 12.9965V15.7606H54.0836C54.5996 15.7606 55.0193 16.1804 55.0193 16.6963C55.0193 17.2123 54.5996 17.6318 54.0836 17.6318H52.0881V19.229H54.0836C54.5996 19.229 55.0193 19.6486 55.0193 20.1647C55.0193 20.6807 54.5996 21.1 54.0836 21.1H52.0881V24.0785C52.0881 25.2812 51.6071 25.8659 50.6175 25.8659ZM42.6583 20.4824H46.5805C46.6846 20.4824 46.782 20.5351 46.839 20.6224L48.962 23.8771C49.1037 24.085 49.2556 24.3002 49.4061 24.5114C49.5305 24.6846 49.6647 24.8357 49.8051 24.9608C49.9181 25.0621 50.0359 25.135 50.1565 25.178C50.286 25.2252 50.4409 25.2487 50.6177 25.2487C50.9774 25.2487 51.4707 25.2487 51.4707 24.0787V20.7912C51.4707 20.6208 51.6092 20.4824 51.7795 20.4824H54.0838C54.2595 20.4824 54.4019 20.3397 54.4019 20.1643C54.4019 19.9889 54.2595 19.8462 54.0838 19.8462H51.7793C51.6088 19.8462 51.4704 19.7079 51.4704 19.5374V17.323C51.4704 17.1526 51.6088 17.0142 51.7793 17.0142H54.0836C54.259 17.0142 54.4017 16.8717 54.4017 16.6963C54.4017 16.5209 54.259 16.3783 54.0836 16.3783H51.7793C51.6088 16.3783 51.4704 16.2399 51.4704 16.0694V12.9965C51.4704 12.5333 51.3687 12.3192 51.2831 12.221C51.2084 12.1349 51.0962 12.0472 50.8291 12.0472C50.6292 12.0472 50.5055 12.0964 50.4017 12.2173C50.3175 12.3159 50.2167 12.5308 50.2167 12.9963V16.0692C50.2167 16.2397 50.0783 16.3781 49.9078 16.3781H45.5731C45.4693 16.3781 45.3724 16.326 45.3154 16.2395L43.4726 13.4509C43.3118 13.1977 43.1637 12.9652 43.0202 12.7421C42.9025 12.5586 42.789 12.4108 42.6832 12.3025C42.6052 12.222 42.5156 12.1596 42.4086 12.1106C42.3182 12.0693 42.1887 12.0472 42.0351 12.0472C41.8385 12.0472 41.6668 12.0993 41.4943 12.2111C41.3263 12.32 41.2159 12.4466 41.1472 12.6093C41.1118 12.6999 41.0471 12.9391 41.0471 13.4289V16.0692C41.0471 16.2397 40.9088 16.3781 40.7383 16.3781H38.4572C38.2818 16.3783 38.1391 16.5209 38.1391 16.6963C38.1391 16.8717 38.2818 17.0142 38.4572 17.0142H40.7383C40.9088 17.0142 41.0471 17.1526 41.0471 17.323V19.5376C41.0471 19.7081 40.9088 19.8465 40.7383 19.8465H38.4572C38.2818 19.8462 38.1391 19.9891 38.1391 20.1643C38.1391 20.3395 38.2818 20.4824 38.4572 20.4824H40.7383C40.9088 20.4824 41.0471 20.6208 41.0471 20.7912V24.2992C41.0471 24.6531 41.1151 24.9176 41.2433 25.064C41.3559 25.1931 41.4918 25.2482 41.6985 25.2482C41.8968 25.2482 42.0322 25.192 42.1525 25.0595C42.2811 24.9178 42.3495 24.6547 42.3495 24.2998V20.7912C42.3495 20.6208 42.4878 20.4824 42.6583 20.4824ZM49.9074 22.9373C49.8057 22.9373 49.7079 22.8866 49.6497 22.7985L48.4358 20.9613C48.3734 20.8664 48.3679 20.7447 48.422 20.6448C48.476 20.5448 48.5808 20.4824 48.6936 20.4824H49.9074C50.0779 20.4824 50.2162 20.6208 50.2162 20.7912V22.6285C50.2162 22.7648 50.1265 22.885 49.9964 22.9243C49.9669 22.933 49.9369 22.9373 49.9074 22.9373ZM49.2678 21.1L49.5986 21.6007V21.1H49.2678ZM49.9074 19.8462H47.8651C47.7614 19.8462 47.6644 19.7942 47.6074 19.7077L46.1442 17.4931C46.0814 17.3982 46.0759 17.2765 46.1298 17.1764C46.1837 17.0766 46.2883 17.014 46.4016 17.014H49.9074C50.0779 17.014 50.2162 17.1524 50.2162 17.3228V19.5374C50.2162 19.7081 50.0779 19.8462 49.9074 19.8462ZM48.0313 19.2286H49.5986V17.6316H46.9757L48.0313 19.2286ZM45.7625 19.8462H42.6583C42.4878 19.8462 42.3495 19.7079 42.3495 19.5374V17.323C42.3495 17.1526 42.4878 17.0142 42.6583 17.0142H44.3183C44.4225 17.0142 44.5198 17.0669 44.5769 17.1544L46.0213 19.369C46.0833 19.4639 46.088 19.585 46.0343 19.6846C45.9801 19.7845 45.876 19.8462 45.7625 19.8462ZM42.9671 19.2286H45.1924L44.1509 17.6316H42.9671V19.2286ZM43.5003 16.3785H42.6583C42.4878 16.3785 42.3495 16.2401 42.3495 16.0696V14.7786C42.3495 14.6419 42.4393 14.5215 42.5702 14.4825C42.7009 14.4438 42.8424 14.4953 42.9169 14.6098L43.7589 15.9008C43.8209 15.9957 43.826 16.117 43.7721 16.2166C43.718 16.3161 43.6138 16.3785 43.5003 16.3785Z" fill="white"/>
<circle cx="46.2685" cy="18.648" r="16.933" stroke="white" stroke-width="1.33113"/>
</svg>
