<svg width="145" height="119" viewBox="0 0 145 119" fill="none" xmlns="http://www.w3.org/2000/svg">
<g clip-path="url(#clip0_76_4538)">
<path d="M19.5508 82.3217C19.5508 81.6203 20.3686 80.987 25.4257 77.7591C34.1322 72.2093 33.6663 72.2775 36.1492 76.1419C37.899 78.8697 37.2212 78.9314 48.7072 75.015C61.6431 70.605 59.0038 70.4459 78.0004 76.7784C92.0801 81.4742 93.1261 81.8768 94.6021 83.1531C96.1759 84.5137 96.1759 84.5137 106.824 79.0678C117.47 73.6219 117.47 73.6219 119.497 73.7745C124.687 74.1675 127.313 79.2302 124.658 83.7246C123.882 85.0366 122.647 85.8062 105.267 95.7985C82.2755 109.019 86.5017 107.885 69.4699 105.408C53.7219 103.118 54.2139 103.102 55.0579 105.833C55.6313 107.691 55.6281 107.691 48.5247 112.14C45.1946 114.224 42.0795 116.004 41.6006 116.092C41.1216 116.183 40.6947 116.222 40.6491 116.176C39.6716 115.202 19.5508 82.916 19.5508 82.3217ZM21.8317 82.4841L41.7081 113.984L53.1126 106.84L33.2362 75.3398L21.8317 82.4841ZM104.592 93.5091C121.885 83.572 122.181 83.3836 122.895 81.9385C124.299 79.0873 122.273 75.9893 119.001 75.9893C118.226 75.9893 114.863 77.5545 107.424 81.3832C96.9384 86.7772 96.9384 86.7772 96.4203 88.8166C95.5601 92.1874 93.113 94.1748 89.8155 94.1748C86.7624 94.1748 67.6126 87.4527 67.6126 86.381C67.6126 85.0009 68.7758 85.2314 78.9943 88.6445C84.3544 90.437 89.255 91.9016 89.8807 91.9016C93.5399 91.9016 95.4884 87.3715 92.9273 84.819C91.562 83.4583 63.331 74.0441 60.5907 74.0343C58.0784 74.0278 40.3884 79.9966 39.9453 81.0033C39.7009 81.5586 40.7403 83.3804 46.0711 91.7393C53.1908 102.901 52.2198 101.923 55.7193 101.462C56.7099 101.329 61.1185 101.855 69.3232 103.079C77.7593 104.339 81.9627 104.836 83.1097 104.706C85.5795 104.43 85.6773 104.378 104.592 93.5091Z" fill="white" fill-opacity="0.988235"/>
<path d="M39.0561 44.2529C41.5423 34.5821 51.4251 28.9511 60.8973 31.8055C63.9114 32.7148 63.7713 32.835 64.5272 28.7075C68.975 4.51096 102.045 0.113945 111.957 22.3978C121.892 44.7303 98.3139 65.9977 76.6062 54.2842L73.1946 52.4462C69.5322 59.7496 66.743 62.4385 62.6699 64.1921C60.0664 65.3124 59.5223 65.4294 56.4626 65.5105C53.6571 65.5852 52.7285 65.4716 50.7506 64.8253C41.904 61.9384 36.8111 52.9787 39.0561 44.2529ZM40.4641 48.4989C40.4641 52.5389 42.0744 56.4135 44.9408 59.2702C47.8072 62.1269 51.6948 63.7318 55.7485 63.7318C59.8022 63.7318 63.6899 62.1269 66.5563 59.2702C69.4227 56.4135 71.033 52.5389 71.033 48.4989C71.033 44.4589 69.4227 40.5844 66.5563 37.7277C63.6899 34.871 59.8022 33.2661 55.7485 33.2661C51.6948 33.2661 47.8072 34.871 44.9408 37.7277C42.0744 40.5844 40.4641 44.4589 40.4641 48.4989ZM105.131 16.7115C91.4259 3.14704 67.7925 11.9768 66.5739 31.1171C66.3946 33.9359 66.3946 33.9359 68.4246 36.3227C71.0574 39.4207 72.1816 41.603 72.8431 44.8992C73.8141 49.7151 73.7359 49.5689 76.2383 51.2901C77.4961 52.1539 79.4479 53.232 80.572 53.6802C81.6962 54.1283 83.8207 54.7291 85.2968 55.0116C87.0987 55.3623 88.8354 55.4728 90.595 55.3494C110.227 53.9789 119.057 30.5033 105.131 16.7115Z" fill="white" fill-opacity="0.988235"/>
<path d="M60.1184 39.9434C61.8552 39.9434 61.4837 40.9695 56.8698 48.8835C53.4713 54.7224 52.2819 56.5052 51.7932 56.5052C51.4445 56.5052 50.9948 56.2422 50.7961 55.9207C50.2259 55.0049 59.0171 39.9434 60.1184 39.9434Z" fill="white" fill-opacity="0.988235"/>
<path d="M56.5508 53.2347C56.5602 52.1962 56.9808 51.2033 57.7211 50.4723C58.4613 49.7412 59.4613 49.3311 60.5034 49.3311C61.5455 49.3311 62.5455 49.7412 63.2857 50.4723C64.026 51.2033 64.4466 52.1962 64.4561 53.2347C64.4466 54.2733 64.026 55.2661 63.2857 55.9972C62.5455 56.7283 61.5455 57.1384 60.5034 57.1384C59.4613 57.1384 58.4613 56.7283 57.7211 55.9972C56.9808 55.2661 56.5602 54.2733 56.5508 53.2347ZM61.0546 51.7568C60.1064 51.5198 59.3015 52.1173 59.3113 53.0526C59.3146 53.4325 59.4612 53.9261 59.6372 54.1502C59.8131 54.3743 60.3508 54.5074 60.8297 54.4457C62.3482 54.2509 62.5241 52.1238 61.0546 51.7568Z" fill="white" fill-opacity="0.988235"/>
<path d="M47.0234 43.775C47.0329 42.733 47.4549 41.7369 48.1976 41.0034C48.9403 40.2699 49.9435 39.8584 50.9891 39.8584C52.0347 39.8584 53.038 40.2699 53.7806 41.0034C54.5233 41.7369 54.9453 42.733 54.9548 43.775C54.9453 44.817 54.5233 45.8131 53.7806 46.5466C53.038 47.2801 52.0347 47.6916 50.9891 47.6916C49.9435 47.6916 48.9403 47.2801 48.1976 46.5466C47.4549 45.8131 47.0329 44.817 47.0234 43.775ZM51.811 42.3796C50.6967 42.0289 49.856 42.4933 49.8625 43.4577C49.8658 43.9351 50.0124 44.5099 50.1883 44.734C50.3643 44.958 50.7716 45.1399 51.0942 45.1399C52.4725 45.1399 53.0851 42.7823 51.811 42.3796Z" fill="white" fill-opacity="0.988235"/>
<path d="M94.9624 42.9997C94.6216 42.9997 94.3121 42.9503 94.043 42.8538C93.7756 42.759 93.5195 42.6036 93.2831 42.3936C93.0454 42.1829 92.8186 41.9308 92.6119 41.6436C92.4013 41.3508 92.1906 41.0526 91.987 40.7573L89.1957 36.507H84.4692V40.8653C84.4692 41.5721 84.3043 42.11 83.9796 42.4665C83.6514 42.8249 83.2423 42.9991 82.7292 42.9991C82.198 42.9991 81.7855 42.823 81.4672 42.4609C81.1496 42.101 80.9886 41.5639 80.9886 40.8653V36.507H78.2834C77.5758 36.507 77 35.9352 77 35.2323C77 34.5294 77.5758 33.9576 78.2834 33.9576H80.9886V31.7819H78.2834C77.5758 31.7822 77 31.2103 77 30.5077C77 29.8052 77.5758 29.233 78.2834 29.233H80.9886V26.0564C80.9886 25.4424 81.0558 24.96 81.1883 24.6232C81.3537 24.2333 81.6141 23.9321 81.9885 23.6915C82.363 23.4502 82.7563 23.333 83.1909 23.333C83.5266 23.333 83.8181 23.3874 84.0553 23.4954C84.2989 23.6059 84.5054 23.7495 84.6867 23.9343C84.8713 24.122 85.0622 24.3682 85.2548 24.6652C85.4527 24.971 85.6569 25.2893 85.8735 25.6292L88.2715 29.233H93.5649V25.4674C93.5649 24.7511 93.7194 24.2098 94.0238 23.8578C94.3293 23.5047 94.7315 23.333 95.2527 23.333C95.7915 23.333 96.2046 23.5049 96.5147 23.8586C96.8233 24.2103 96.9795 24.7519 96.9795 25.4674V29.233H99.7166C100.424 29.233 101 29.8049 101 30.5077C101 31.2106 100.424 31.7822 99.7166 31.7822H96.9795V33.9581H99.7166C100.424 33.9581 101 34.5297 101 35.2329C101 35.9357 100.424 36.507 99.7166 36.507H96.9795V40.5646C96.9795 42.2031 96.3198 42.9997 94.9624 42.9997ZM84.0457 35.6656H89.4253C89.5681 35.6656 89.7017 35.7374 89.7799 35.8563L92.6918 40.2903C92.8861 40.5736 93.0945 40.8667 93.3009 41.1544C93.4715 41.3903 93.6556 41.5962 93.8482 41.7667C94.0032 41.9047 94.1647 42.004 94.3302 42.0626C94.5078 42.1268 94.7202 42.1588 94.9627 42.1588C95.456 42.1588 96.1326 42.1588 96.1326 40.5649V36.0863C96.1326 35.8541 96.3227 35.6656 96.5562 35.6656H99.7169C99.9577 35.6656 100.153 35.4713 100.153 35.2323C100.153 34.9933 99.9577 34.799 99.7169 34.799H96.5559C96.3221 34.799 96.1323 34.6105 96.1323 34.3783V31.3615C96.1323 31.1293 96.3221 30.9408 96.5559 30.9408H99.7166C99.9572 30.9408 100.153 30.7467 100.153 30.5077C100.153 30.2688 99.9572 30.0744 99.7166 30.0744H96.5559C96.3221 30.0744 96.1323 29.8859 96.1323 29.6537V25.4674C96.1323 24.8363 95.9928 24.5446 95.8754 24.4109C95.7729 24.2936 95.619 24.1741 95.2527 24.1741C94.9785 24.1741 94.8088 24.2412 94.6665 24.4058C94.551 24.5402 94.4127 24.833 94.4127 25.4671V29.6534C94.4127 29.8857 94.2229 30.0741 93.9891 30.0741H88.0436C87.9013 30.0741 87.7683 30.0032 87.69 29.8854L85.1625 26.0864C84.9419 25.7414 84.7389 25.4248 84.5421 25.1207C84.3806 24.8708 84.225 24.6695 84.0798 24.5219C83.9728 24.4123 83.85 24.3273 83.7031 24.2605C83.5792 24.2042 83.4015 24.1741 83.1909 24.1741C82.9212 24.1741 82.6857 24.2451 82.4491 24.3974C82.2187 24.5458 82.0673 24.7183 81.973 24.9398C81.9244 25.0632 81.8357 25.3891 81.8357 26.0564V29.6534C81.8357 29.8857 81.646 30.0741 81.4122 30.0741H78.2834C78.0428 30.0744 77.8471 30.2688 77.8471 30.5077C77.8471 30.7467 78.0428 30.9408 78.2834 30.9408H81.4122C81.646 30.9408 81.8357 31.1293 81.8357 31.3615V34.3785C81.8357 34.6108 81.646 34.7992 81.4122 34.7992H78.2834C78.0428 34.799 77.8471 34.9936 77.8471 35.2323C77.8471 35.471 78.0428 35.6656 78.2834 35.6656H81.4122C81.646 35.6656 81.8357 35.8541 81.8357 36.0863V40.8653C81.8357 41.3474 81.9289 41.7078 82.1049 41.9072C82.2593 42.0831 82.4457 42.1583 82.7292 42.1583C83.0011 42.1583 83.1869 42.0817 83.3518 41.9011C83.5283 41.7081 83.6221 41.3497 83.6221 40.8661V36.0863C83.6221 35.8541 83.8118 35.6656 84.0457 35.6656ZM93.9885 39.01C93.849 39.01 93.7149 38.941 93.635 38.8209L91.9701 36.318C91.8845 36.1887 91.8769 36.0229 91.9511 35.8869C92.0251 35.7506 92.1689 35.6656 92.3236 35.6656H93.9885C94.2223 35.6656 94.4121 35.8541 94.4121 36.0863V38.5893C94.4121 38.7749 94.289 38.9387 94.1105 38.9923C94.0701 39.0041 94.0289 39.01 93.9885 39.01ZM93.1112 36.507L93.5649 37.1891V36.507H93.1112ZM93.9885 34.799H91.1873C91.045 34.799 90.912 34.728 90.8338 34.6102L88.8269 31.5932C88.7408 31.4639 88.7332 31.2981 88.8071 31.1618C88.8811 31.0258 89.0246 30.9405 89.1799 30.9405H93.9885C94.2223 30.9405 94.4121 31.129 94.4121 31.3612V34.3783C94.4121 34.6108 94.2223 34.799 93.9885 34.799ZM91.4152 33.9576H93.5649V31.7819H89.9674L91.4152 33.9576ZM88.3034 34.799H84.0457C83.8118 34.799 83.6221 34.6105 83.6221 34.3783V31.3615C83.6221 31.1293 83.8118 30.9408 84.0457 30.9408H86.3225C86.4654 30.9408 86.5989 31.0126 86.6771 31.1318L88.6583 34.1488C88.7433 34.2781 88.7498 34.443 88.6761 34.5788C88.6018 34.7148 88.459 34.799 88.3034 34.799ZM84.4692 33.9576H87.5215L86.0929 31.7819H84.4692V33.9576ZM85.2006 30.0747H84.0457C83.8118 30.0747 83.6221 29.8862 83.6221 29.654V27.8952C83.6221 27.7089 83.7452 27.5448 83.9248 27.4918C84.1041 27.4391 84.2981 27.5092 84.4003 27.6652L85.5553 29.424C85.6402 29.5533 85.6473 29.7185 85.5733 29.8543C85.4991 29.9897 85.3562 30.0747 85.2006 30.0747Z" fill="white"/>
</g>
<defs>
<clipPath id="clip0_76_4538">
<rect width="145" height="119" fill="white"/>
</clipPath>
</defs>
</svg>
