<svg width="40" height="40" viewBox="0 0 40 40" fill="none" xmlns="http://www.w3.org/2000/svg">
<path d="M20.6033 1H19.3965C19.0334 1 18.738 1.2953 18.738 1.65852V2.73757C10.5581 3.05359 3.99998 9.80317 3.99998 18.0591C3.99998 18.2676 4.16904 18.4367 4.37754 18.4367H19.8393V26.1162C18.8363 26.2978 17.9117 26.7012 17.1145 27.2745V25.1335C17.1145 24.5829 16.6663 24.1347 16.1156 24.1347H7.44101C6.8904 24.1347 6.44222 24.5829 6.44222 25.1335V27.3897C6.44222 27.6257 6.52794 27.84 6.66542 28.0111C6.52794 28.1822 6.44222 28.3965 6.44222 28.6326V30.8887C6.44222 31.1246 6.52794 31.3389 6.66527 31.5101C6.52794 31.6811 6.44222 31.8954 6.44222 32.1313V34.3874C6.44222 34.6234 6.52794 34.8376 6.66527 35.0088C6.52794 35.1798 6.44222 35.3941 6.44222 35.63V37.8862C6.44222 38.4369 6.8904 38.885 7.44101 38.885H16.1155C16.557 38.885 16.9283 38.5951 17.0599 38.1973C18.178 39.0182 19.5525 39.5094 21.0429 39.5094C22.052 39.5094 23.0065 39.2809 23.8671 38.8828C23.873 38.8829 23.8783 38.885 23.8843 38.885H32.5587C33.1096 38.885 33.5577 38.4369 33.5577 37.8862V35.63C33.5577 35.3941 33.472 35.1798 33.3346 35.0088C33.472 34.8376 33.5577 34.6234 33.5577 34.3874V32.1313C33.5577 31.8954 33.472 31.6811 33.3346 31.5101C33.472 31.3389 33.5577 31.1246 33.5577 30.8887V28.6326C33.5577 28.3967 33.472 28.1824 33.3346 28.0113C33.472 27.8402 33.5577 27.6259 33.5577 27.3899V25.1339C33.5577 24.8979 33.472 24.6836 33.3346 24.5125C33.472 24.3414 33.5577 24.1271 33.5577 23.8912V21.6352C33.5577 21.0843 33.1095 20.6362 32.5587 20.6362H23.8843C23.3337 20.6362 22.8855 21.0844 22.8855 21.6352V23.8912C22.8855 24.1271 22.9712 24.3414 23.1085 24.5125C22.9712 24.6836 22.8855 24.8979 22.8855 25.1339V26.2645C22.2988 26.0976 21.6823 26.0025 21.0429 26.0025C20.8915 26.0025 20.7434 26.0154 20.5944 26.0252V18.4367H35.6224C35.8309 18.4367 36 18.2676 36 18.0591C36 9.80309 29.4418 3.05343 21.2617 2.7375V1.65845C21.2617 1.2953 20.9664 1 20.6033 1ZM19.4931 1.75503H20.5066V2.72232C20.4686 2.72232 19.446 2.72232 19.4931 2.72232V1.75503ZM13.0111 17.6816H4.75987C4.94425 10.4571 10.4107 4.52637 17.4318 3.60567C14.8758 5.65995 13.0777 11.0956 13.0111 17.6816ZM7.19732 25.1335C7.19732 24.9991 7.30661 24.8898 7.44101 24.8898H16.1155C16.25 24.8898 16.3594 24.9991 16.3594 25.1335V27.3897C16.3594 27.5241 16.2501 27.6334 16.1155 27.6334H7.44101C7.30661 27.6334 7.19732 27.5241 7.19732 27.3897V25.1335ZM7.19732 28.6326C7.19732 28.4982 7.30661 28.3889 7.44101 28.3889H15.9022C15.2374 29.1707 14.7517 30.1058 14.4967 31.1325H7.44101C7.30661 31.1325 7.19732 31.0232 7.19732 30.8886V28.6326ZM7.19732 32.1313C7.19732 31.9969 7.30661 31.8876 7.44101 31.8876H14.3535C14.3165 32.1731 14.291 32.4621 14.291 32.7576C14.291 33.4081 14.3885 34.0355 14.5611 34.6313H7.44101C7.30661 34.6313 7.19732 34.522 7.19732 34.3874V32.1313ZM16.3594 37.8863C16.3594 38.0207 16.2501 38.13 16.1155 38.13H7.44101C7.30661 38.13 7.19732 38.0207 7.19732 37.8863V35.6301C7.19732 35.4957 7.30661 35.3864 7.44101 35.3864H14.8239C15.1818 36.2299 15.7095 36.9829 16.3593 37.6102V37.8863H16.3594ZM32.8027 37.8863C32.8027 38.0207 32.6934 38.13 32.5587 38.13H25.1175C26.0515 37.4204 26.8005 36.4796 27.2645 35.3864H32.5587C32.6932 35.3864 32.8026 35.4957 32.8026 35.6301V37.8863H32.8027ZM32.8027 34.3874C32.8027 34.5219 32.6934 34.6313 32.5587 34.6313H27.5276C27.7002 34.0355 27.7977 33.4082 27.7977 32.7576C27.7977 32.4621 27.7722 32.1731 27.7352 31.8876H32.5587C32.6932 31.8876 32.8026 31.9969 32.8026 32.1313V34.3874H32.8027ZM32.8027 30.8887C32.8027 31.0232 32.6934 31.1326 32.5587 31.1326H27.5919C27.3369 30.1058 26.8509 29.1708 26.1858 28.389H32.5587C32.6933 28.389 32.8027 28.4983 32.8027 28.6327V30.8887ZM23.6406 21.6352C23.6406 21.5006 23.7499 21.3912 23.8843 21.3912H32.5587C32.6933 21.3912 32.8027 21.5005 32.8027 21.6352V23.8912C32.8027 24.0256 32.6934 24.1349 32.5587 24.1349H23.8843C23.7499 24.1349 23.6406 24.0256 23.6406 23.8912V21.6352ZM23.6406 25.1339C23.6406 24.9993 23.7499 24.8899 23.8843 24.8899H32.5587C32.6933 24.8899 32.8027 24.9992 32.8027 25.1339V27.3899C32.8027 27.5245 32.6934 27.6339 32.5587 27.6339H25.4327C24.8998 27.1766 24.2976 26.7984 23.6406 26.5236V25.1339ZM21.0429 26.7576C24.3512 26.7576 27.0427 29.4492 27.0427 32.7576C27.0427 36.0642 24.3512 38.7544 21.0429 38.7544C17.7363 38.7544 15.0461 36.0643 15.0461 32.7576C15.0461 29.4492 17.7363 26.7576 21.0429 26.7576ZM35.2401 17.6816H26.9889C26.9223 11.0956 25.1243 5.66003 22.5682 3.60567C29.5893 4.52629 35.0557 10.457 35.2401 17.6816ZM26.2358 17.6816C20.5833 17.6816 17.4299 17.6816 13.7642 17.6816C13.8495 9.94381 16.5418 3.47743 19.7192 3.47743H20.2809C23.4583 3.47743 26.1505 9.94381 26.2358 17.6816Z" fill="url(#paint0_linear_165_1553)" stroke="url(#paint1_linear_165_1553)" stroke-width="0.3"/>
<path d="M24.7029 33.5149H23.6108V32.2329H24.7029C24.867 32.2329 25 32.0705 25 31.8701C25 31.6696 24.867 31.5071 24.7029 31.5071H23.6108V29.7282C23.6108 29.4685 23.5688 29.278 23.486 29.1618C23.4073 29.0514 23.3038 29 23.1606 29C23.0238 29 22.9242 29.051 22.8471 29.1608C22.7652 29.277 22.7237 29.468 22.7237 29.7283V31.5074H20.6695L19.796 29.8929C19.7213 29.7488 19.651 29.6138 19.5827 29.4843C19.5213 29.3676 19.4614 29.2726 19.4047 29.2017C19.3546 29.1389 19.2975 29.0903 19.2307 29.0529C19.1677 29.0178 19.0875 29.0001 18.9927 29.0001C18.8718 29.0001 18.7621 29.0406 18.6569 29.1237C18.5529 29.206 18.481 29.3076 18.4371 29.4346C18.3986 29.5552 18.3782 29.74 18.3782 29.9786V31.5072H17.297C17.1329 31.5073 17 31.6697 17 31.8702C17 32.0706 17.1329 32.233 17.297 32.233H18.3782V33.5152H17.297C17.1329 33.5152 17 33.6775 17 33.8781C17 34.0785 17.1329 34.2408 17.297 34.2408H18.3782V36.2718C18.3782 36.5238 18.4216 36.7125 18.5074 36.8324C18.5891 36.9467 18.6926 36.9998 18.8332 36.9998C18.9688 36.9998 19.0715 36.9465 19.1567 36.8319C19.2439 36.7146 19.2881 36.5261 19.2881 36.2719V34.2408H21.1469L22.1528 36.1249C22.2227 36.2495 22.295 36.3752 22.367 36.4985C22.432 36.6092 22.5029 36.7067 22.5777 36.7882C22.645 36.8618 22.7173 36.9158 22.7923 36.9488C22.8696 36.9828 22.9599 37 23.0602 37C23.3322 37 23.6108 36.8983 23.6108 36.1438V34.2408H24.7029C24.867 34.2408 25 34.0783 25 33.8778C25 33.6774 24.867 33.5149 24.7029 33.5149ZM22.7237 32.2328V33.5149H21.7558L21.0622 32.2328H22.7237ZM19.2881 30.7597L19.6872 31.5071H19.2881V30.7597ZM19.2881 33.5149V32.2329H20.0748L20.7594 33.5149H19.2881ZM22.7237 35.3044L22.1484 34.2408H22.7237V35.3044Z" fill="#FF8303"/>
<defs>
<linearGradient id="paint0_linear_165_1553" x1="24.6063" y1="39.5094" x2="28.9596" y2="-3.46282" gradientUnits="userSpaceOnUse">
<stop stop-color="#1D3FF0"/>
<stop offset="1" stop-color="#215CFF"/>
</linearGradient>
<linearGradient id="paint1_linear_165_1553" x1="24.6063" y1="39.5094" x2="28.9596" y2="-3.46282" gradientUnits="userSpaceOnUse">
<stop stop-color="#1D3FF0"/>
<stop offset="1" stop-color="#215CFF"/>
</linearGradient>
</defs>
</svg>
