<svg width="40" height="40" viewBox="0 0 40 40" fill="none" xmlns="http://www.w3.org/2000/svg">
<path d="M34.5075 20.7324C33.538 19.2218 32.1721 18.0129 30.5575 17.2368C30.188 17.0591 29.7446 17.2146 29.567 17.5841C29.3894 17.9535 29.5449 18.3969 29.9144 18.5745C32.728 19.927 34.546 22.817 34.546 25.9369C34.546 27.2719 34.2169 28.5958 33.5944 29.7658C33.4019 30.1276 33.5391 30.5771 33.901 30.7696C34.012 30.8287 34.1314 30.8567 34.2489 30.8567C34.5145 30.8567 34.7713 30.7138 34.9048 30.463C35.6411 29.0793 36.0303 27.5141 36.0303 25.9369C36.0303 24.0844 35.5037 22.2848 34.5075 20.7324Z" fill="#1D3FF0"/>
<path d="M27.5453 16.2888L27.4954 16.2887C27.0855 16.2887 26.7532 16.621 26.7532 17.0309C26.7532 17.4408 27.0855 17.773 27.4954 17.773L27.5383 17.7731C27.5395 17.7731 27.5406 17.7731 27.5419 17.7731C27.9502 17.7731 28.2821 17.4431 28.284 17.0344C28.2858 16.6245 27.9551 16.2907 27.5453 16.2888Z" fill="#FF8303"/>
<path d="M22.8499 33.2992C20.0364 31.9466 18.2184 29.0567 18.2184 25.9369C18.2184 24.6019 18.5475 23.2779 19.17 22.108C19.3625 21.7461 19.2252 21.2967 18.8634 21.1042C18.5016 20.9117 18.052 21.0489 17.8596 21.4108C17.1233 22.7945 16.7341 24.3596 16.7341 25.9369C16.7341 27.7893 17.2607 29.5889 18.2569 31.1413C19.2264 32.652 20.5922 33.8608 22.2068 34.6371C22.3105 34.6869 22.42 34.7105 22.5279 34.7105C22.8043 34.7105 23.0695 34.5554 23.1973 34.2897C23.3748 33.9203 23.2194 33.4768 22.8499 33.2992Z" fill="#1D3FF0"/>
<path d="M31.6286 26.6437H30.2636V25.0411H31.6286C31.8337 25.0411 32 24.8382 32 24.5876C32 24.337 31.8337 24.1339 31.6286 24.1339H30.2636V21.9103C30.2636 21.5857 30.211 21.3474 30.1075 21.2023C30.0092 21.0642 29.8798 21 29.7007 21C29.5298 21 29.4053 21.0638 29.3088 21.201C29.2065 21.3463 29.1546 21.585 29.1546 21.9104V24.1342H26.5868L25.495 22.1161C25.4016 21.936 25.3138 21.7673 25.2284 21.6053C25.1516 21.4595 25.0767 21.3407 25.0059 21.2521C24.9433 21.1736 24.8719 21.1128 24.7884 21.0661C24.7096 21.0222 24.6094 21.0001 24.4909 21.0001C24.3398 21.0001 24.2026 21.0507 24.0712 21.1547C23.9412 21.2574 23.8513 21.3845 23.7964 21.5432C23.7482 21.694 23.7227 21.925 23.7227 22.2233V24.1341H22.3712C22.1662 24.1341 22 24.3371 22 24.5877C22 24.8383 22.1662 25.0412 22.3713 25.0412H23.7228V26.6439H22.3713C22.1662 26.6439 22 26.8469 22 27.0976C22 27.3481 22.1662 27.551 22.3713 27.551H23.7228V30.0898C23.7228 30.4048 23.7769 30.6406 23.8843 30.7905C23.9863 30.9334 24.1157 30.9997 24.2915 30.9997C24.461 30.9997 24.5894 30.9331 24.6959 30.7899C24.8049 30.6433 24.8601 30.4076 24.8601 30.0898V27.551H27.1836L28.441 29.9062C28.5284 30.0619 28.6187 30.219 28.7087 30.3731C28.79 30.5114 28.8786 30.6334 28.9721 30.7352C29.0563 30.8273 29.1466 30.8948 29.2404 30.936C29.337 30.9785 29.4499 31 29.5752 31C29.9153 31 30.2635 30.8728 30.2635 29.9298V27.551H31.6286C31.8337 27.551 32 27.3478 32 27.0973C32 26.8468 31.8337 26.6437 31.6286 26.6437ZM29.1546 25.0411V26.6436H27.9447L27.0778 25.0411H29.1546ZM24.8601 23.1997L25.359 24.1339H24.8601V23.1997ZM24.8601 26.6437V25.0411H25.8435L26.6992 26.6437H24.8601ZM29.1546 28.8805L28.4355 27.551H29.1546V28.8805Z" fill="#FF8303"/>
<path d="M25.269 34.1007L25.226 34.1006C24.8143 34.0998 24.4824 34.4293 24.4805 34.8393C24.4786 35.2492 24.8095 35.583 25.2193 35.5849L25.269 35.5851C25.6788 35.5851 26.0112 35.2527 26.0112 34.8429C26.0112 34.4331 25.6788 34.1007 25.269 34.1007Z" fill="#FF8303"/>
<path d="M29.7522 13.7777C29.6619 13.5625 29.5512 13.3597 29.4225 13.1715H31.3546C33.2371 13.1715 34.7686 11.64 34.7686 9.75757C34.7686 7.87514 33.2371 6.3436 31.3546 6.3436H25.4114C25.7892 5.79425 26.011 5.12964 26.011 4.41397C26.011 2.53154 24.4795 1 22.5971 1H4.41397C2.53154 1 1 2.53154 1 4.41397C1 6.2964 2.53154 7.82794 4.41397 7.82794H10.3572C9.9794 8.37729 9.75757 9.0419 9.75757 9.75757C9.75757 10.4732 9.97933 11.1379 10.3572 11.6872H8.42167C6.53924 11.6872 5.0077 13.2187 5.0077 15.1012C5.0077 16.1823 5.51341 17.147 6.30019 17.773C5.51341 18.3989 5.0077 19.3637 5.0077 20.4448C5.0077 21.5259 5.51341 22.4906 6.30019 23.1166C5.51341 23.7425 5.0077 24.7073 5.0077 25.7884C5.0077 26.8695 5.51341 27.8342 6.30019 28.4602C5.51341 29.0861 5.0077 30.0509 5.0077 31.132C5.0077 33.0144 6.53924 34.5459 8.42167 34.5459H17.1681C19.4722 37.0105 22.7501 38.5537 26.3822 38.5537C33.3391 38.5537 38.999 32.8938 38.999 25.9369C38.999 20.1467 35.0782 15.2558 29.7522 13.7777ZM31.3546 7.82794C32.4187 7.82794 33.2843 8.6936 33.2843 9.75757C33.2843 10.8215 32.4187 11.6872 31.3546 11.6872H26.6048H13.1715C12.1075 11.6872 11.2419 10.8215 11.2419 9.75757C11.2419 8.6936 12.1075 7.82794 13.1715 7.82794H31.3546ZM4.41397 6.3436C3.34992 6.3436 2.48433 5.47794 2.48433 4.41397C2.48433 3.35 3.34992 2.48433 4.41397 2.48433H22.5971C23.6611 2.48433 24.5267 3.35 24.5267 4.41397C24.5267 5.47794 23.6611 6.3436 22.5971 6.3436H4.41397ZM8.42167 13.1715H26.6048C26.9037 13.1715 27.19 13.241 27.4468 13.3654C27.0957 13.3359 26.7408 13.32 26.3822 13.32C22.8981 13.32 19.7394 14.7397 17.454 17.0308H8.42167C7.3577 17.0308 6.49204 16.1651 6.49204 15.1012C6.49204 14.0372 7.3577 13.1715 8.42167 13.1715ZM8.42167 18.5151H16.1859C15.3433 19.6694 14.6919 20.9713 14.2783 22.3744H8.42167C7.35763 22.3744 6.49204 21.5088 6.49204 20.4448C6.49204 19.3808 7.35763 18.5151 8.42167 18.5151ZM8.42167 23.8587H13.9375C13.8249 24.5351 13.7653 25.2291 13.7653 25.9369C13.7653 26.5415 13.8091 27.1359 13.8917 27.718H8.42167C7.35763 27.718 6.49204 26.8524 6.49204 25.7884C6.49204 24.7243 7.35763 23.8587 8.42167 23.8587ZM8.42167 33.0616C7.35763 33.0616 6.49204 32.196 6.49204 31.132C6.49204 30.0679 7.35763 29.2023 8.42167 29.2023H14.1947C14.5692 30.5986 15.1775 31.8998 15.9754 33.0616H8.42167ZM26.3822 37.0694C20.2437 37.0694 15.2497 32.0753 15.2497 25.9369C15.2497 19.7984 20.2437 14.8044 26.3822 14.8044C32.5206 14.8044 37.5147 19.7984 37.5147 25.9369C37.5147 32.0753 32.5206 37.0694 26.3822 37.0694Z" fill="url(#paint0_linear_165_1549)"/>
<defs>
<linearGradient id="paint0_linear_165_1549" x1="25.4694" y1="38.5537" x2="28.9673" y2="-3.49112" gradientUnits="userSpaceOnUse">
<stop stop-color="#1D3FF0"/>
<stop offset="1" stop-color="#215CFF"/>
</linearGradient>
</defs>
</svg>
