<svg width="89" height="89" viewBox="0 0 89 89" fill="none" xmlns="http://www.w3.org/2000/svg">
<path fill-rule="evenodd" clip-rule="evenodd" d="M41.883 0.0436533C36.1623 0.70012 32.7956 1.60898 28.8755 3.55525C25.4932 5.23468 25.077 5.87845 25.3717 8.97519C26.3674 19.4333 31.3078 28.8595 39.1893 35.3386C42.9058 38.3938 44.1656 38.9559 45.7238 38.2548C47.7828 37.328 53.0561 32.6527 55.2877 29.7753C60.216 23.4208 62.8626 16.8043 63.608 8.97519C63.9025 5.88019 63.4712 5.21138 60.1181 3.56203C56.8924 1.97548 53.5938 0.942599 49.9642 0.382671C48.2692 0.121059 43.0983 -0.0958503 41.883 0.0436533ZM47.929 2.91044C51.6923 3.3199 55.1071 4.31191 58.7195 6.04527L60.8706 7.07745L60.7519 8.6854C60.3939 13.5369 59.3222 17.4112 57.1312 21.7739C54.58 26.8539 50.6176 31.488 45.9969 34.7959L44.6365 35.7696L43.6508 35.1387C35.2912 29.7878 29.3555 19.9998 28.3353 9.8837C28.0277 6.83202 27.8378 7.20739 30.2826 6.03431C32.9037 4.77686 34.7975 4.10874 37.3783 3.53107C40.8384 2.75667 44.5229 2.53993 47.929 2.91044ZM55.5254 10.5146C55.3343 10.5522 52.2662 13.4903 48.7075 17.044L42.237 23.5051L39.5709 20.8565C37.1515 18.4531 36.8484 18.208 36.2961 18.208C35.5059 18.208 34.9315 18.7942 34.9315 19.6004C34.9315 20.1299 35.2516 20.5098 38.19 23.4665C39.9823 25.2698 41.626 26.7903 41.8429 26.845C42.0599 26.8998 42.4555 26.8543 42.7221 26.7436C42.9887 26.6332 46.3499 23.3931 50.1917 19.5437C56.5539 13.1685 57.1764 12.4939 57.1764 11.9731C57.1764 11.6586 57.0998 11.258 57.0063 11.0831C56.8094 10.7148 56.0299 10.4156 55.5254 10.5146ZM20.3854 31.4288C18.96 31.6271 16.5714 32.4628 15.3495 33.1907C14.8092 33.5127 13.8049 34.3271 13.1179 35.0006C9.62875 38.4214 8.26972 43.746 9.66959 48.5111C10.3978 50.99 12.2992 53.5977 14.551 55.206L15.6778 56.0109L14.6601 56.3798C13.3021 56.8721 10.797 58.2179 9.48833 59.1579C4.42257 62.797 0.94315 68.6853 0.180566 74.9094C0.081333 75.72 0 78.4263 0 80.923C0 86.0457 0.0952361 86.5975 1.17012 87.7053C1.51474 88.0605 2.11587 88.4961 2.50586 88.6735C3.18989 88.9843 4.67682 88.996 44.4899 88.9979L85.7646 89L86.6407 88.5918C87.5774 88.1552 88.3654 87.3508 88.7454 86.4434C89.109 85.5749 89.0739 76.0472 88.699 73.8574C87.4945 66.8228 82.9844 60.6858 76.6407 57.4503C75.6371 56.9383 74.5228 56.4254 74.1642 56.3102C73.8059 56.1951 73.5125 56.0418 73.5125 55.9695C73.5125 55.8971 73.9468 55.5384 74.4776 55.1726C76.5862 53.7192 78.5927 50.9531 79.3101 48.5111C80.7009 43.7768 79.3838 38.5345 75.9374 35.0878C73.7772 32.9274 71.3494 31.7854 68.0912 31.3972C65.4635 31.0841 62.1763 31.7986 59.8394 33.1907C55.7289 35.6395 53.0785 41.195 53.6786 46.1046C54.1348 49.8384 56.0906 53.1726 59.0015 55.1792C59.5271 55.5414 59.957 55.8907 59.957 55.9554C59.957 56.0199 59.6246 56.1721 59.2184 56.2935C57.9859 56.6619 55.3859 58.0323 53.9048 59.094L52.506 60.097L52.2363 59.3049C51.6694 57.6393 50.2758 55.9811 48.6498 55.0373C46.3616 53.7092 42.9475 53.6569 40.4889 54.9122C38.9799 55.6828 37.3096 57.6416 36.7434 59.3049L36.4737 60.097L35.0749 59.094C33.5938 58.0323 30.9938 56.6619 29.7613 56.2935C29.355 56.1721 29.0227 56.0199 29.0227 55.9554C29.0227 55.8907 29.457 55.5384 29.9877 55.1726C32.2706 53.599 34.2077 50.8042 34.9572 48.0025C35.4602 46.1232 35.4546 43.1844 34.9445 41.2557C33.9624 37.5414 31.4522 34.3172 28.2966 32.7167C26.2129 31.6598 22.7628 31.0982 20.3854 31.4288ZM25.5947 34.7091C29.3391 36.0365 31.7154 38.7672 32.4352 42.5696C32.7793 44.3865 32.6684 46.007 32.072 47.8871C30.7286 52.1215 26.9322 54.787 22.2449 54.787C17.5539 54.787 13.8122 52.1585 12.3923 47.8656C11.8063 46.0943 11.7337 43.2653 12.2314 41.6036C13.0444 38.8888 14.9406 36.563 17.2954 35.3918C18.359 34.8627 18.8712 34.6858 20.4201 34.3123C21.278 34.1055 24.6135 34.3614 25.5947 34.7091ZM69.4096 34.5539C73.4065 35.5771 76.1565 38.5101 76.925 42.5696C77.2691 44.3865 77.1583 46.007 76.5618 47.8871C75.2188 52.1199 71.4281 54.7825 66.7348 54.7896C62.0517 54.7966 58.3034 52.1623 56.8822 47.8656C56.2962 46.0943 56.2235 43.2653 56.7213 41.6036C57.8773 37.7435 60.7483 35.1913 64.91 34.3238C65.8869 34.1201 68.1713 34.237 69.4096 34.5539ZM47.0538 57.3567C50.8387 59.2134 50.8267 65.0503 47.0338 67.0491C46.2451 67.4646 45.9479 67.5198 44.4899 67.5199C43.0928 67.5203 42.7186 67.4573 42.0568 67.1106C40.9904 66.5521 40.2027 65.7747 39.6526 64.7382C39.2467 63.9734 39.1909 63.6693 39.1902 62.216C39.1895 60.8237 39.2548 60.4305 39.605 59.7185C40.9613 56.961 44.1718 55.9429 47.0538 57.3567ZM26.0683 58.1507C29.729 58.902 32.9611 60.5839 35.4963 63.0569C36.0458 63.5929 36.4956 64.1605 36.4956 64.318C36.4956 64.8669 37.7175 67.0438 38.494 67.8786C39.361 68.8104 39.37 68.8259 39.0517 68.8259C38.9283 68.8259 38.1944 69.2157 37.4208 69.6921C34.0212 71.7863 31.673 75.1152 30.8488 79.0097C30.6808 79.8032 30.5918 81.2515 30.5897 83.2198L30.5868 86.2204H17.1103H3.63374L3.19076 85.7768L2.7476 85.3334L2.82267 79.9062C2.89427 74.7225 2.91808 74.4024 3.35429 72.768C4.49191 68.5055 7.2913 64.3425 10.799 61.6969C13.8377 59.4052 16.4957 58.3459 20.5939 57.7931C21.5272 57.6673 24.7331 57.8766 26.0683 58.1507ZM71.6367 58.4409C75.0864 59.3536 77.8446 61.0055 80.499 63.7488C83.1562 66.495 84.5451 68.9341 85.4223 72.3951C86.0152 74.7346 86.1991 76.8548 86.1991 81.351V85.3665L85.7724 85.7933L85.346 86.2204H71.8893H58.4329L58.3476 82.698C58.2767 79.7794 58.1981 78.9571 57.8886 77.9008C56.7607 74.0505 54.1518 70.8946 50.6222 69.1105L49.716 68.6525L50.4835 67.8621C51.2692 67.0529 52.4841 64.8707 52.4841 64.2687C52.4841 63.8344 54.1475 62.2362 55.6992 61.1795C57.9369 59.6559 59.9511 58.7957 62.6507 58.2111C64.9762 57.7075 69.2806 57.8176 71.6367 58.4409ZM47.0967 70.8362C50.3234 71.5951 53.3536 74.1465 54.7288 77.2622C55.4305 78.8519 55.6071 80.0459 55.6097 83.2198L55.6123 86.2204H44.4899H33.3674V83.3781C33.3674 80.0925 33.6547 78.6115 34.6649 76.6882C36.1496 73.8618 38.8556 71.6424 41.8043 70.8329C42.9784 70.5104 45.7191 70.5121 47.0967 70.8362Z" fill="white"/>
</svg>
