<svg width="101" height="91" viewBox="0 0 101 91" fill="none" xmlns="http://www.w3.org/2000/svg">
<g clip-path="url(#clip0_76_4457)">
<path d="M27.3069 77.69C23.6149 71.3771 23.6149 71.3771 17.2445 67.5482C8.86383 62.5144 8.57221 62.0319 11.9443 58.7455C14.0678 56.6755 14.1668 56.6698 20.4382 58.2801L25.8629 59.6706C39.841 43.2844 43.2952 39.0045 43.2414 38.7246C43.1905 38.4677 37.0211 33.8136 29.5323 28.383C13.1249 16.4881 13.6629 17.1819 17.7569 13.1874C20.4297 10.5806 18.9489 10.2608 38.5953 17.6644C48.0235 21.2164 56.07 24.123 56.4777 24.123C57.061 24.123 58.4908 22.8553 63.2219 18.1555C70.5861 10.8347 71.0674 10.5663 76.5516 10.7462C81.9396 10.9204 83.6468 12.802 83.6327 18.5553C83.6185 23.3778 83.2957 23.9345 76.3392 31.1354C69.462 38.2535 69.8329 37.5169 71.2429 41.2829C72.3528 44.2524 72.3528 44.2524 75.5408 45.7856C80.0794 47.967 82.6587 48.4353 86.3281 47.7415C90.088 47.0305 89.9436 46.7935 89.4991 53.0236C88.259 70.3321 82.9985 79.9371 72.5312 84.0058C69.2893 85.2649 67.5764 84.9309 62.9048 82.1185C56.3843 78.1954 52.5762 71.7511 50.6622 61.4123C50.2262 59.051 49.7336 57.0695 49.5722 57.0124C49.1475 56.8639 35.6366 68.9787 35.461 69.6639C35.3817 69.978 35.9055 72.4192 36.6247 75.0889C37.3948 77.9356 37.8676 80.2226 37.7685 80.6166C37.5675 81.4304 34.9514 84.2856 33.9038 84.8309C33.4904 85.0479 32.9497 85.225 32.7005 85.225C32.4542 85.225 31.97 84.9509 31.6246 84.6139C31.282 84.2799 29.3398 81.162 27.3069 77.69ZM35.5205 80.6252C35.9338 79.7572 35.9763 80.0113 34.4786 74.4579C32.8251 68.3334 32.0974 69.7182 41.3218 61.4523C49.8412 53.8203 49.7845 53.8916 49.4221 51.4447C48.8247 47.3846 49.1617 47.0105 52.8055 47.6729C56.6929 48.381 59.4223 47.7986 64.915 45.0918C69.748 42.7077 69.6234 42.8619 68.8335 40.295C67.834 37.0515 67.5396 37.5711 74.2866 30.6757C81.3223 23.4863 81.798 22.7154 81.798 18.5182C81.798 13.8299 80.1445 12.2681 75.4276 12.4993C71.5685 12.6878 70.7701 13.2131 63.8504 20.1028C60.5633 23.3749 57.5961 26.1445 57.2592 26.253C56.8175 26.3986 51.7155 24.6027 39.1162 19.863C29.4757 16.2397 21.3329 13.2731 21.0242 13.2731C20.2655 13.2731 17.4653 16.2168 17.5814 16.8935C17.6324 17.2047 23.2949 21.499 31.6642 27.575C41.5172 34.7302 45.6961 37.9223 45.7839 38.3677C45.951 39.1843 27.423 61.1582 26.3103 61.4609C25.8573 61.5836 23.6772 61.1496 20.1579 60.2331C14.7048 58.8141 14.7048 58.8141 13.4052 60.1503C12.6889 60.887 12.1453 61.6579 12.1963 61.8634C12.2472 62.0719 15.1974 64.0163 18.7507 66.1891C25.2117 70.1379 25.2117 70.1379 28.8726 76.6821C30.8856 80.2826 32.6467 83.2263 32.7826 83.2263C33.2356 83.2263 35.1411 81.4161 35.5205 80.6252ZM75.7871 80.451C82.5058 76.2196 86.2403 68.4276 87.622 55.759C88.3326 49.249 88.4317 49.4832 85.02 49.6973C81.5262 49.9172 78.7996 49.2348 73.6778 46.8535C69.4592 44.8919 69.5696 44.8948 65.7219 46.8164C60.9682 49.1919 58.3124 49.8915 54.476 49.7715L51.3616 49.6773C51.7268 64.4617 55.6085 74.515 61.4013 79.032C62.5763 79.9485 64.714 81.2676 66.1551 81.9614C67.5962 82.6581 69.0288 83.2263 69.3403 83.2263C70.3256 83.2263 73.6523 81.793 75.7871 80.451Z" fill="white" fill-opacity="0.988235"/>
<path d="M61.0148 60.1933C61.3347 60.0706 62.5267 61.0842 65.0522 63.6253L68.6394 67.2372C80.4459 55.3194 81.4001 54.5971 81.7257 55.8448C81.8503 56.3302 80.6894 57.6436 75.5421 62.8401C72.0568 66.3578 68.982 69.2359 68.7074 69.2359C68.4328 69.2359 66.4877 67.4542 64.3868 65.2728C60.6609 61.4125 60.0889 60.5502 61.0148 60.1933Z" fill="white" fill-opacity="0.988235"/>
</g>
<defs>
<clipPath id="clip0_76_4457">
<rect width="101" height="91" fill="white"/>
</clipPath>
</defs>
</svg>
