<svg width="100" height="78" viewBox="0 0 100 78" fill="none" xmlns="http://www.w3.org/2000/svg">
<path fill-rule="evenodd" clip-rule="evenodd" d="M24.9891 0.17602C22.8636 0.534499 21.2269 1.69106 20.6337 3.25421C20.1275 4.58812 20.3237 6.64435 21.0744 7.86871C21.5697 8.67673 23.0444 9.84482 23.9551 10.1502C24.0565 10.1842 23.5872 11.1491 22.912 12.2943C21.0216 15.5008 18.3147 20.8859 17.3072 23.4448C15.5881 27.8111 15.25 30.1845 16.0027 32.6008C16.2187 33.2939 16.3967 33.9059 16.3983 33.9605C16.3998 34.0152 15.3866 34.0323 14.1465 33.9985C9.60433 33.8749 5.68443 35.4418 2.48595 38.6599C1.17846 39.9754 0 41.6343 0 42.1594C0 42.8126 0.722212 43.3053 1.67956 43.3053C2.16861 43.3053 2.56874 43.3399 2.56874 43.3824C2.56874 43.4248 2.30041 44.0365 1.9724 44.7418C-1.53235 52.2778 3.05937 61.2622 11.2554 62.9055C14.5338 63.5628 18.0436 62.8421 20.9133 60.9224C22.8021 59.6589 24.1458 58.0928 25.243 55.8757L26.1559 54.0314L26.9665 54.8319C27.4865 55.3452 27.9584 55.6323 28.2825 55.6323C28.828 55.6323 29.4418 55.0891 29.4418 54.606C29.4418 53.9964 29.7202 54.0652 30.3768 54.837L31.0512 55.6297L45.3006 55.6806L59.55 55.7317L60.2596 57.6232C61.7611 61.6259 63.968 65.3848 66.6885 68.5734C69.3179 71.6551 73.9322 75.2622 77.798 77.2578L79.2359 78L80.6684 77.2594C90.155 72.3548 96.9179 63.7847 99.4785 53.4224L100 51.3121L99.0357 48.9489C98.0871 46.6244 96.8559 43.0237 96.0303 40.1583C95.5752 38.5796 95.3205 38.3549 93.6216 38.0344C92.9747 37.9126 92.7959 37.7346 92.0553 36.4755C91.5957 35.6937 90.4779 33.9065 89.5715 32.5038L87.9233 29.9533L88.7029 29.0621C89.6359 27.9956 90.2647 26.2649 90.4312 24.3035C90.5792 22.5628 90.2087 21.6418 89.0496 20.8702L88.2551 20.3411H78.7563C68.2476 20.3411 68.5685 20.3067 66.4674 21.6617C65.8023 22.0908 64.9576 22.5333 64.5903 22.6455C64.2227 22.7576 62.0994 22.9145 59.8715 22.9944C55.8876 23.1372 55.8032 23.1491 54.7597 23.7235C53.0667 24.655 52.1653 26.1498 52.1653 28.0253C52.1653 28.8959 52.0404 29.2546 51.3849 30.2684C50.2187 32.0717 48.8848 35.0491 48.439 36.8435C47.9371 38.8643 47.8272 39.6666 47.6456 42.6406C47.5123 44.8237 47.4477 45.1239 46.9776 45.744C46.0625 46.9511 45.5288 47.0829 41.5534 47.0829C38.1478 47.0829 37.9779 47.0638 36.9939 46.5703C35.6534 45.8983 35.0991 45.206 33.9821 42.8082C32.8102 40.2925 30.7735 35.2239 30.3068 33.6623C29.4445 30.7758 30.245 23.9331 32.7288 12.9598L33.4543 9.75356L34.2913 9.34458C35.3392 8.83221 36.4866 7.82954 36.863 7.09707C37.1448 6.54892 37.1905 6.53599 39.0552 6.48032C40.8733 6.42604 40.9782 6.39861 41.3649 5.87669L41.7699 5.32993L41.3651 4.78316C40.9839 4.26821 40.8499 4.23063 39.0668 4.13699L37.1733 4.03757L36.7139 3.35004C35.7049 1.84057 33.6626 0.764141 30.8249 0.246205C29.1914 -0.0520305 26.531 -0.0840412 24.9891 0.17602ZM31.6153 2.85358C32.213 3.03689 33.0578 3.37808 33.4925 3.61209L34.2828 4.03757L31.2531 4.13699C28.5474 4.22586 28.1933 4.27775 27.9434 4.62232C27.5338 5.18698 27.6012 5.85999 28.1026 6.2133C28.45 6.45825 29.1416 6.52426 31.4124 6.52923C33.9789 6.5348 34.2423 6.56641 33.8995 6.82727C32.5598 7.84684 28.8037 8.52821 26.4241 8.18325C23.7729 7.79892 22.7257 6.92529 22.7243 5.09671C22.7231 3.63535 23.5475 2.85298 25.4898 2.47164C26.5033 2.27262 30.5414 2.52453 31.6153 2.85358ZM30.7275 11.0461C29.5463 15.6485 27.945 24.7514 27.6871 28.3291C27.4316 31.8731 27.6434 33.4076 28.8266 36.5848C30.0691 39.9209 32.4237 45.2991 33.0757 46.2906C33.7059 47.2487 35.042 48.3462 36.2746 48.9183C37.1683 49.333 37.5779 49.3745 41.3473 49.4334C45.331 49.4958 45.4772 49.4839 46.4848 49.0179C47.8946 48.3657 48.6216 47.7056 49.2894 46.4709C49.7943 45.5377 49.8704 45.149 50.0156 42.7595C50.1049 41.2914 50.2723 39.5672 50.3875 38.928C50.8129 36.5667 51.8404 33.9882 53.2584 31.7238L53.974 30.5805H69.7523H85.5305L87.5155 33.7005C88.6074 35.4165 89.4697 36.8516 89.432 36.8896C89.3943 36.9276 87.2209 36.4182 84.6022 35.7579C81.9834 35.0974 79.5704 34.557 79.24 34.557C78.4601 34.557 63.5343 38.311 63.1397 38.6065C62.9741 38.7303 62.3867 40.308 61.8342 42.1123C61.2817 43.9166 60.3329 46.6008 59.7255 48.077C58.6088 50.7918 58.4717 51.4318 58.757 52.6003L58.9149 53.2464H45.5063H32.0976L30.014 50.612C24.1533 43.2023 19.99 36.7218 18.5611 32.7849C18.0114 31.2703 17.9531 30.9094 18.0436 29.5864C18.2385 26.7375 20.4612 21.4828 24.4533 14.4335L26.5604 10.7129L28.1493 10.6467C29.0232 10.6101 29.9923 10.562 30.3029 10.5399C30.8269 10.5023 30.8575 10.5389 30.7275 11.0461ZM87.8242 22.896C88.132 23.1225 88.1694 23.3328 88.0632 24.2414C87.8751 25.8521 87.373 27.1349 86.7117 27.6948L86.1215 28.1947H70.3288H54.5364L54.5372 27.7473C54.5384 27.0472 55.213 26.1072 55.9755 25.7432C56.5122 25.4869 57.25 25.4107 59.2097 25.4095C63.8935 25.4066 66.0177 24.9809 67.6676 23.7144C69.0018 22.6906 69.3669 22.6552 78.7535 22.6409C85.7668 22.6302 87.5303 22.6797 87.8242 22.896ZM16.5884 36.5618C17.1371 36.6801 17.586 36.8497 17.586 36.9385C17.586 37.3799 14.067 43.2025 13.8169 43.1752C13.662 43.1583 12.3726 42.8199 10.9517 42.4231C9.53083 42.0264 7.26342 41.5385 5.91305 41.3391L3.45792 40.9762L4.3471 40.132C6.10827 38.4597 8.37726 37.2042 10.6322 36.654C12.0053 36.319 15.2317 36.2689 16.5884 36.5618ZM86.2055 38.6357C89.9252 39.5668 93.1687 40.415 93.4133 40.5203C93.658 40.6257 93.8579 40.8396 93.8579 40.9955C93.8579 41.4912 95.6041 46.757 96.5427 49.0922C97.6059 51.7376 97.6038 51.8457 96.4069 55.516C93.7259 63.7392 88.3255 70.2272 80.4829 74.6472L79.2602 75.3364L78.4081 74.8995C76.7886 74.0691 73.7951 72.0045 71.9497 70.4453C66.8539 66.1402 63.2201 60.244 61.3774 53.2906L60.9176 51.5564L61.9885 48.8723C62.5776 47.3961 63.4393 44.9575 63.9034 43.4534C64.3676 41.9493 64.8009 40.6649 64.8665 40.5989C65.0064 40.4581 78.5773 36.9876 79.092 36.961C79.2847 36.9511 82.4857 37.7046 86.2055 38.6357ZM19.7552 40.4231C19.7576 40.5329 18.537 42.7696 17.0426 45.3937C14.8896 49.1743 14.2332 50.1778 13.8803 50.2283C13.6112 50.2667 13.3871 50.1669 13.3142 49.976C13.2387 49.7782 14.2891 47.7273 16.125 44.4879C19.0433 39.3387 19.0579 39.3177 19.4035 39.7696C19.5946 40.0193 19.7528 40.3134 19.7552 40.4231ZM22.3283 44.2533C22.8174 44.9865 24.1837 46.8827 25.365 48.4669C26.546 50.0513 27.5559 51.4618 27.6091 51.6012C27.7897 52.0748 27.348 51.8571 26.6647 51.1359C25.726 50.145 22.8152 47.8891 21.0335 46.7715L19.5537 45.8436L20.2777 44.5246C20.676 43.7993 21.0388 43.1388 21.0839 43.0567C21.252 42.7517 21.4607 42.9524 22.3283 44.2533ZM6.91585 43.9083C8.98132 44.3624 8.84636 44.225 8.04214 45.0561C7.6515 45.4601 7.08262 46.3274 6.77793 46.9835C6.28137 48.0536 6.22446 48.3916 6.22584 50.2641C6.22742 52.2209 6.26675 52.4265 6.85163 53.5447C7.65426 55.0794 9.07399 56.4604 10.5714 57.1633C11.622 57.6566 11.9826 57.72 13.737 57.72C15.5747 57.72 15.8118 57.6731 17.0314 57.069C19.4201 55.8856 21.0076 53.5892 21.2866 50.9133L21.3951 49.8724L22.1246 50.4162C22.5259 50.7152 23.1473 51.2097 23.5056 51.5151L24.1569 52.0702L23.7291 53.3814C22.6711 56.6241 20.4241 58.9825 17.3082 60.1204C10.4445 62.6273 3.14513 57.4496 3.16449 50.0879C3.17121 47.4744 4.68144 43.692 5.7115 43.7077C5.88479 43.7105 6.4268 43.8007 6.91585 43.9083ZM12.6473 45.6017C12.6319 45.7055 12.2697 46.4278 11.8425 47.2066C10.8464 49.0222 10.7277 49.639 11.157 50.7703C11.5985 51.9332 12.6032 52.65 13.7918 52.65C15.3166 52.65 16.0252 52.0642 17.3295 49.7261C17.8379 48.8149 18.3442 48.0993 18.4542 48.1363C19.0638 48.3407 19.0903 51.254 18.4932 52.4162C17.5585 54.235 16.0438 55.2414 14.0218 55.3876C12.3203 55.5105 10.9932 54.9587 9.8124 53.6373C8.55609 52.2313 8.16208 50.34 8.72899 48.4363C9.18168 46.9161 11.4163 44.944 12.3094 45.2764C12.5108 45.3514 12.6627 45.4977 12.6473 45.6017ZM82.598 54.7346L76.1814 61.1934L72.8053 57.8164C69.2826 54.2927 68.8326 54.0004 68.0857 54.7517C67.3092 55.5333 67.59 55.9469 71.7043 60.0828C74.8953 63.2906 75.7349 64.0326 76.1739 64.0326C76.6209 64.0326 77.924 62.816 83.7055 57.0002C91.0716 49.5905 91.2163 49.4074 90.335 48.6049C89.4913 47.8367 89.302 47.9866 82.598 54.7346Z" fill="white"/>
</svg>
