<svg width="31" height="31" viewBox="0 0 31 31" fill="none" xmlns="http://www.w3.org/2000/svg">
<path fill-rule="evenodd" clip-rule="evenodd" d="M18.5318 15.3523C21.8638 15.1624 25.3416 14.6441 29.5113 13.7904L29.2522 12.525C25.1744 13.3599 21.7799 13.8689 18.5318 14.0585V15.3523ZM12.5041 15.3366V14.0426C9.28187 13.84 5.87749 13.3318 1.77908 12.524L1.5293 13.7913C5.71489 14.6163 9.19939 15.1336 12.5041 15.3366Z" fill="url(#paint0_linear_76_4736)"/>
<path fill-rule="evenodd" clip-rule="evenodd" d="M2.58398 6.72522C1.51393 6.72522 0.646484 7.59267 0.646484 8.66272V24.1626C0.646484 25.2326 1.51393 26.1001 2.58399 26.1001H4.02203C4.37872 26.1001 4.66786 25.8109 4.66786 25.4542C4.66786 25.0976 4.37872 24.8084 4.02203 24.8084H2.58399C2.2273 24.8084 1.93815 24.5193 1.93815 24.1626V8.66272C1.93815 8.30604 2.2273 8.01689 2.58398 8.01689H28.4515C28.8082 8.01689 29.0974 8.30604 29.0974 8.66272V24.1626C29.0974 24.5193 28.8082 24.8084 28.4515 24.8084H17.7308C17.3741 24.8084 17.085 25.0976 17.085 25.4542C17.085 25.8109 17.3741 26.1001 17.7308 26.1001H28.4515C29.5216 26.1001 30.389 25.2326 30.389 24.1626V8.66272C30.389 7.59267 29.5216 6.72522 28.4515 6.72522H2.58398Z" fill="url(#paint1_linear_76_4736)"/>
<path d="M8.28516 7.49164V4.52083C8.28516 4.16415 8.57431 3.875 8.93099 3.875H22.1059C22.4626 3.875 22.7517 4.16415 22.7517 4.52083V7.49164" stroke="url(#paint2_linear_76_4736)" stroke-width="1.29167"/>
<path d="M13.709 7.73279V13.1577" stroke="url(#paint3_linear_76_4736)" stroke-width="1.29167"/>
<path d="M17.3262 7.73279V13.1577" stroke="url(#paint4_linear_76_4736)" stroke-width="1.29167"/>
<path d="M13.709 16.1715V17.7301C13.709 17.8014 13.7668 17.8593 13.8382 17.8593H17.1965C17.2678 17.8593 17.3256 17.8014 17.3256 17.7301V16.1715" stroke="url(#paint5_linear_76_4736)" stroke-width="1.29167"/>
<rect x="12.9641" y="13.6184" width="4.98579" height="2.09247" rx="0.710417" stroke="url(#paint6_linear_76_4736)" stroke-width="1.1625"/>
<path d="M15.8089 23.7062C16.0849 23.4091 16.239 23.0227 16.2414 22.6212C16.2414 22.1896 16.0661 21.7756 15.7541 21.4704C15.4421 21.1652 15.019 20.9937 14.5778 20.9937H11.7052C11.7938 20.7486 11.821 20.4863 11.7847 20.2288C11.7484 19.9712 11.6495 19.7259 11.4964 19.5135C11.3433 19.301 11.1403 19.1275 10.9046 19.0075C10.6688 18.8875 10.4071 18.8245 10.1414 18.8237H6.81404C6.37282 18.8237 5.94966 18.9952 5.63766 19.3004C5.32567 19.6056 5.15039 20.0196 5.15039 20.4512C5.15284 20.8527 5.30689 21.2391 5.58294 21.5362C5.31013 21.8346 5.1593 22.2209 5.1593 22.6212C5.1593 23.0215 5.31013 23.4078 5.58294 23.7062C5.31013 24.0046 5.1593 24.3909 5.1593 24.7912C5.1593 25.1915 5.31013 25.5778 5.58294 25.8762C5.30689 26.1733 5.15284 26.5597 5.15039 26.9612C5.15039 27.3928 5.32567 27.8068 5.63766 28.112C5.94966 28.4172 6.37282 28.5887 6.81404 28.5887H14.5778C14.8982 28.587 15.2112 28.4948 15.4794 28.3233C15.7476 28.1517 15.9594 27.9081 16.0894 27.6216C16.2194 27.3352 16.2621 27.0181 16.2123 26.7084C16.1626 26.3988 16.0225 26.1098 15.8089 25.8762C16.0817 25.5778 16.2325 25.1915 16.2325 24.7912C16.2325 24.3909 16.0817 24.0046 15.8089 23.7062ZM10.1414 27.5037H6.81404C6.66697 27.5037 6.52592 27.4465 6.42192 27.3448C6.31792 27.243 6.25949 27.105 6.25949 26.9612C6.25949 26.8173 6.31792 26.6793 6.42192 26.5776C6.52592 26.4758 6.66697 26.4187 6.81404 26.4187H10.1414C10.2884 26.4187 10.4295 26.4758 10.5335 26.5776C10.6375 26.6793 10.6959 26.8173 10.6959 26.9612C10.6959 27.105 10.6375 27.243 10.5335 27.3448C10.4295 27.4465 10.2884 27.5037 10.1414 27.5037ZM10.1414 25.3337H6.81404C6.66697 25.3337 6.52592 25.2765 6.42192 25.1748C6.31792 25.073 6.25949 24.9351 6.25949 24.7912C6.25949 24.6473 6.31792 24.5093 6.42192 24.4076C6.52592 24.3058 6.66697 24.2487 6.81404 24.2487H10.1414C10.2884 24.2487 10.4295 24.3058 10.5335 24.4076C10.6375 24.5093 10.6959 24.6473 10.6959 24.7912C10.6959 24.9351 10.6375 25.073 10.5335 25.1748C10.4295 25.2765 10.2884 25.3337 10.1414 25.3337ZM10.1414 23.1637H6.81404C6.66697 23.1637 6.52592 23.1065 6.42192 23.0048C6.31792 22.9031 6.25949 22.7651 6.25949 22.6212C6.25949 22.4773 6.31792 22.3393 6.42192 22.2376C6.52592 22.1359 6.66697 22.0787 6.81404 22.0787H10.1414C10.2884 22.0787 10.4295 22.1359 10.5335 22.2376C10.6375 22.3393 10.6959 22.4773 10.6959 22.6212C10.6959 22.7651 10.6375 22.9031 10.5335 23.0048C10.4295 23.1065 10.2884 23.1637 10.1414 23.1637ZM10.1414 20.9937H6.81404C6.66697 20.9937 6.52592 20.9366 6.42192 20.8348C6.31792 20.7331 6.25949 20.5951 6.25949 20.4512C6.25949 20.3073 6.31792 20.1694 6.42192 20.0676C6.52592 19.9659 6.66697 19.9087 6.81404 19.9087H10.1414C10.2884 19.9087 10.4295 19.9659 10.5335 20.0676C10.6375 20.1694 10.6959 20.3073 10.6959 20.4512C10.6959 20.5951 10.6375 20.7331 10.5335 20.8348C10.4295 20.9366 10.2884 20.9937 10.1414 20.9937ZM14.9604 27.3463C14.9112 27.3971 14.8518 27.4372 14.786 27.4643C14.7201 27.4914 14.6492 27.5048 14.5778 27.5037H11.7052C11.8382 27.1537 11.8382 26.7686 11.7052 26.4187H14.5778C14.7248 26.4187 14.8659 26.4758 14.9699 26.5776C15.0739 26.6793 15.1323 26.8173 15.1323 26.9612C15.1313 27.0333 15.1156 27.1046 15.086 27.1707C15.0565 27.2368 15.0138 27.2966 14.9604 27.3463ZM14.9604 25.1764C14.9112 25.2271 14.8518 25.2673 14.786 25.2943C14.7201 25.3214 14.6492 25.3348 14.5778 25.3337H11.7052C11.8382 24.9837 11.8382 24.5987 11.7052 24.2487H14.5778C14.7248 24.2487 14.8659 24.3058 14.9699 24.4076C15.0739 24.5093 15.1323 24.6473 15.1323 24.7912C15.1313 24.8633 15.1156 24.9346 15.086 25.0007C15.0565 25.0669 15.0138 25.1266 14.9604 25.1764ZM14.9604 23.0064C14.9112 23.0571 14.8518 23.0973 14.786 23.1244C14.7201 23.1514 14.6492 23.1648 14.5778 23.1637H11.7052C11.8382 22.8137 11.8382 22.4287 11.7052 22.0787H14.5778C14.7248 22.0787 14.8659 22.1359 14.9699 22.2376C15.0739 22.3393 15.1323 22.4773 15.1323 22.6212C15.1313 22.6934 15.1156 22.7646 15.086 22.8307C15.0565 22.8969 15.0138 22.9566 14.9604 23.0064Z" fill="#FF8303"/>
<defs>
<linearGradient id="paint0_linear_76_4736" x1="15.5203" y1="12.524" x2="15.5203" y2="15.3523" gradientUnits="userSpaceOnUse">
<stop stop-color="#047CF4"/>
<stop offset="1" stop-color="#0431D7"/>
</linearGradient>
<linearGradient id="paint1_linear_76_4736" x1="15.5178" y1="6.72522" x2="15.5178" y2="26.1001" gradientUnits="userSpaceOnUse">
<stop stop-color="#047CF4"/>
<stop offset="1" stop-color="#0431D7"/>
</linearGradient>
<linearGradient id="paint2_linear_76_4736" x1="15.5184" y1="3.875" x2="15.5184" y2="7.49164" gradientUnits="userSpaceOnUse">
<stop stop-color="#047CF4"/>
<stop offset="1" stop-color="#0431D7"/>
</linearGradient>
<linearGradient id="paint3_linear_76_4736" x1="14.209" y1="7.73279" x2="14.209" y2="13.1577" gradientUnits="userSpaceOnUse">
<stop stop-color="#047CF4"/>
<stop offset="1" stop-color="#0431D7"/>
</linearGradient>
<linearGradient id="paint4_linear_76_4736" x1="17.8262" y1="7.73279" x2="17.8262" y2="13.1577" gradientUnits="userSpaceOnUse">
<stop stop-color="#047CF4"/>
<stop offset="1" stop-color="#0431D7"/>
</linearGradient>
<linearGradient id="paint5_linear_76_4736" x1="15.5173" y1="16.1715" x2="15.5173" y2="17.8593" gradientUnits="userSpaceOnUse">
<stop stop-color="#047CF4"/>
<stop offset="1" stop-color="#0431D7"/>
</linearGradient>
<linearGradient id="paint6_linear_76_4736" x1="15.457" y1="13.0371" x2="15.457" y2="16.2921" gradientUnits="userSpaceOnUse">
<stop stop-color="#047CF4"/>
<stop offset="1" stop-color="#0431D7"/>
</linearGradient>
</defs>
</svg>
