<svg width="35" height="35" viewBox="0 0 35 35" fill="none" xmlns="http://www.w3.org/2000/svg">
<path fill-rule="evenodd" clip-rule="evenodd" d="M7.67057 5.83333H31.3539C32.1593 5.83333 32.8122 6.48625 32.8122 7.29167V22.925C32.8122 23.7304 32.1593 24.3833 31.3539 24.3833H16.7221C16.6447 24.8855 16.5265 25.3729 16.3711 25.8417H31.3539C32.9647 25.8417 34.2706 24.5358 34.2706 22.925V7.29167C34.2706 5.68084 32.9647 4.375 31.3539 4.375H7.67057C6.05974 4.375 4.75391 5.68083 4.75391 7.29167V15.5418C5.21325 15.2583 5.70129 15.0219 6.21224 14.8386V7.29167C6.21224 6.48625 6.86516 5.83333 7.67057 5.83333Z" fill="url(#paint0_linear_76_4730)"/>
<rect x="8.7793" y="8.40002" width="16.1" height="1.34167" rx="0.670833" fill="#FF8303"/>
<rect x="8.7793" y="11.0833" width="16.1" height="1.34167" rx="0.670833" fill="#FF8303"/>
<path d="M8.78027 15.8379C12.8234 15.8379 16.1015 19.1151 16.1016 23.1582C16.1016 27.2014 12.8235 30.4795 8.78027 30.4795C4.73718 30.4794 1.45996 27.2013 1.45996 23.1582C1.46007 19.1152 4.73724 15.838 8.78027 15.8379Z" stroke="url(#paint1_linear_76_4730)" stroke-width="1.45833"/>
<mask id="path-5-inside-1_76_4730" fill="white">
<path fill-rule="evenodd" clip-rule="evenodd" d="M7.6757 21.5533L8.39554 20.7408C9.07099 19.9785 10.2366 19.908 10.9989 20.5835C11.7613 21.2589 11.8317 22.4245 11.1563 23.1869L10.4949 23.9333L11.6096 24.8743L12.2478 24.154C13.4574 22.7888 13.3312 20.7015 11.966 19.4919C10.6008 18.2824 8.51357 18.4085 7.30401 19.7737L6.56104 20.6123L7.6757 21.5533ZM6.73075 22.6198L5.61609 21.6788L5.11389 22.2457C3.90433 23.6109 4.03049 25.6981 5.39569 26.9077C6.76089 28.1172 8.84815 27.9911 10.0577 26.6259L10.6646 25.9409L9.54998 24.9999L8.96618 25.6588C8.29073 26.4211 7.12515 26.4916 6.36279 25.8161C5.60043 25.1407 5.52998 23.9751 6.20543 23.2128L6.73075 22.6198Z"/>
</mask>
<path d="M8.39554 20.7408L9.48708 21.7079L8.39554 20.7408ZM7.6757 21.5533L6.73497 22.6677L7.82298 23.5862L8.76723 22.5204L7.6757 21.5533ZM10.9989 20.5835L10.0318 21.675V21.675L10.9989 20.5835ZM11.1563 23.1869L12.2478 24.154L11.1563 23.1869ZM10.4949 23.9333L9.40339 22.9662L8.41289 24.0842L9.5542 25.0477L10.4949 23.9333ZM11.6096 24.8743L10.6689 25.9887L11.7569 26.9072L12.7011 25.8414L11.6096 24.8743ZM12.2478 24.154L11.1563 23.1869L12.2478 24.154ZM7.30401 19.7737L6.21247 18.8066V18.8066L7.30401 19.7737ZM6.56104 20.6123L5.4695 19.6452L4.479 20.7632L5.62031 21.7267L6.56104 20.6123ZM6.73075 22.6198L7.82228 23.5869L8.81279 22.469L7.67148 21.5055L6.73075 22.6198ZM5.61609 21.6788L6.55682 20.5645L5.46881 19.646L4.52455 20.7117L5.61609 21.6788ZM5.11389 22.2457L4.02236 21.2786H4.02236L5.11389 22.2457ZM5.39569 26.9077L4.42859 27.9992H4.42859L5.39569 26.9077ZM10.0577 26.6259L11.1493 27.593L10.0577 26.6259ZM10.6646 25.9409L11.7562 26.908L12.7467 25.79L11.6054 24.8265L10.6646 25.9409ZM9.54998 24.9999L10.4907 23.8855L9.4027 22.967L8.45844 24.0328L9.54998 24.9999ZM8.96618 25.6588L10.0577 26.6259L10.0577 26.6259L8.96618 25.6588ZM6.36279 25.8161L7.32989 24.7246L6.36279 25.8161ZM6.20543 23.2128L5.11389 22.2457L5.11389 22.2457L6.20543 23.2128ZM7.30401 19.7737L6.58416 20.5862L8.76723 22.5204L9.48708 21.7079L7.30401 19.7737ZM11.966 19.4919C10.6008 18.2824 8.51357 18.4085 7.30401 19.7737L9.48708 21.7079C9.62842 21.5484 9.87231 21.5337 10.0318 21.675L11.966 19.4919ZM12.2478 24.154C13.4574 22.7888 13.3312 20.7015 11.966 19.4919L10.0318 21.675C10.1913 21.8164 10.2061 22.0602 10.0648 22.2198L12.2478 24.154ZM11.5865 24.9004L12.2478 24.154L10.0648 22.2198L9.40339 22.9662L11.5865 24.9004ZM9.5542 25.0477L10.6689 25.9887L12.5503 23.76L11.4357 22.819L9.5542 25.0477ZM12.7011 25.8414L13.3394 25.1211L11.1563 23.1869L10.5181 23.9072L12.7011 25.8414ZM13.3394 25.1211C15.083 23.153 14.9012 20.1441 12.9331 18.4004L10.9989 20.5835C11.7613 21.2589 11.8317 22.4245 11.1563 23.1869L13.3394 25.1211ZM12.9331 18.4004C10.9651 16.6567 7.95615 16.8386 6.21247 18.8066L8.39554 20.7408C9.07099 19.9785 10.2366 19.908 10.9989 20.5835L12.9331 18.4004ZM6.21247 18.8066L5.4695 19.6452L7.65258 21.5794L8.39554 20.7408L6.21247 18.8066ZM5.62031 21.7267L6.73497 22.6677L8.61643 20.439L7.50177 19.498L5.62031 21.7267ZM7.67148 21.5055L6.55682 20.5645L4.67536 22.7932L5.79002 23.7342L7.67148 21.5055ZM4.52455 20.7117L4.02236 21.2786L6.20543 23.2128L6.70762 22.6459L4.52455 20.7117ZM4.02236 21.2786C2.27868 23.2466 2.46055 26.2555 4.42859 27.9992L6.36279 25.8161C5.60043 25.1407 5.52998 23.9751 6.20543 23.2128L4.02236 21.2786ZM4.42859 27.9992C6.39663 29.7429 9.40557 29.561 11.1493 27.593L8.96618 25.6588C8.29073 26.4211 7.12515 26.4916 6.36279 25.8161L4.42859 27.9992ZM11.1493 27.593L11.7562 26.908L9.5731 24.9738L8.96618 25.6588L11.1493 27.593ZM11.6054 24.8265L10.4907 23.8855L8.60925 26.1142L9.72391 27.0552L11.6054 24.8265ZM10.0577 26.6259L10.6415 25.967L8.45844 24.0328L7.87464 24.6917L10.0577 26.6259ZM5.39569 26.9077C6.76089 28.1172 8.84815 27.9911 10.0577 26.6259L7.87464 24.6917C7.73331 24.8512 7.48941 24.8659 7.32989 24.7246L5.39569 26.9077ZM5.11389 22.2457C3.90433 23.6109 4.03049 25.6981 5.39569 26.9077L7.32989 24.7246C7.17037 24.5833 7.15563 24.3394 7.29697 24.1799L5.11389 22.2457ZM5.63921 21.6527L5.11389 22.2457L7.29697 24.1799L7.82228 23.5869L5.63921 21.6527Z" fill="url(#paint2_linear_76_4730)" mask="url(#path-5-inside-1_76_4730)"/>
<rect x="10.0781" y="21.0171" width="1.23846" height="4.95385" rx="0.619231" transform="rotate(43.9974 10.0781 21.0171)" fill="#FF8303"/>
<circle cx="24.2096" cy="19.8042" r="2.77083" stroke="url(#paint3_linear_76_4730)" stroke-width="1.16667"/>
<circle cx="26.8932" cy="19.8042" r="2.77083" stroke="url(#paint4_linear_76_4730)" stroke-width="1.16667"/>
<defs>
<linearGradient id="paint0_linear_76_4730" x1="19.5122" y1="4.375" x2="19.5122" y2="25.8417" gradientUnits="userSpaceOnUse">
<stop stop-color="#047CF4"/>
<stop offset="1" stop-color="#0431D7"/>
</linearGradient>
<linearGradient id="paint1_linear_76_4730" x1="8.78047" y1="15.1084" x2="8.78047" y2="31.2084" gradientUnits="userSpaceOnUse">
<stop stop-color="#047CF4"/>
<stop offset="1" stop-color="#0431D7"/>
</linearGradient>
<linearGradient id="paint2_linear_76_4730" x1="8.68086" y1="18.6613" x2="8.68086" y2="27.7384" gradientUnits="userSpaceOnUse">
<stop stop-color="#047CF4"/>
<stop offset="1" stop-color="#0431D7"/>
</linearGradient>
<linearGradient id="paint3_linear_76_4730" x1="24.2096" y1="16.4501" x2="24.2096" y2="23.1584" gradientUnits="userSpaceOnUse">
<stop stop-color="#047CF4"/>
<stop offset="1" stop-color="#0431D7"/>
</linearGradient>
<linearGradient id="paint4_linear_76_4730" x1="26.8932" y1="16.4501" x2="26.8932" y2="23.1584" gradientUnits="userSpaceOnUse">
<stop stop-color="#047CF4"/>
<stop offset="1" stop-color="#0431D7"/>
</linearGradient>
</defs>
</svg>
