<svg width="40" height="40" viewBox="0 0 40 40" fill="none" xmlns="http://www.w3.org/2000/svg">
<path d="M19.9987 38.9999C19.8744 38.9999 19.7501 38.9571 19.6494 38.8714L16.0877 35.837C15.916 35.6906 15.8537 35.4527 15.9317 35.2409C16.0096 35.0292 16.2113 34.8885 16.4369 34.8885H17.5748V30.6295C17.5744 29.661 16.9546 29.0549 16.3745 28.8107C15.7837 28.5618 14.8975 28.5447 14.1828 29.2422L11.1839 32.2412L11.9885 33.0458C12.148 33.2053 12.1912 33.4474 12.0966 33.6523C12.002 33.8571 11.7901 33.9812 11.5648 33.9633L6.90066 33.5904C6.63711 33.5694 6.42787 33.3601 6.40679 33.0966L6.03392 28.4324C6.01592 28.2075 6.14008 27.9952 6.34494 27.9006C6.54987 27.8061 6.79189 27.8492 6.95151 28.0088L7.75602 28.8133L10.7667 25.8025C11.4554 25.1139 11.439 24.2367 11.1942 23.6454C10.9493 23.0542 10.3406 22.4225 9.36674 22.4225H5.10886V23.5603C5.10886 23.7859 4.96816 23.9876 4.75646 24.0656C4.54468 24.1437 4.30682 24.0814 4.1605 23.9095L1.12616 20.3479C0.954691 20.1466 0.954691 19.8507 1.12616 19.6494L4.1605 16.0878C4.30666 15.9161 4.54452 15.8536 4.75646 15.9317C4.96816 16.0097 5.10886 16.2114 5.10886 16.437V17.5748H9.36674C10.3406 17.5748 10.9492 16.9431 11.1942 16.3519C11.4391 15.7606 11.4554 14.8835 10.7667 14.1948L7.75602 11.184L6.95151 11.9885C6.79204 12.1481 6.54987 12.1913 6.34494 12.0967C6.14008 12.0021 6.01592 11.7898 6.03392 11.5649L6.40679 6.90074C6.42779 6.63719 6.63711 6.42794 6.90066 6.40687L11.5648 6.034C11.7902 6.01577 12.002 6.14016 12.0966 6.34502C12.1911 6.54988 12.148 6.79197 11.9885 6.95151L11.1839 7.7561L14.1948 10.7668C14.8835 11.4555 15.7606 11.4392 16.3519 11.1942C16.9432 10.9493 17.5748 10.3406 17.5748 9.36681V5.10902H16.4369C16.2112 5.10902 16.0095 4.96832 15.9317 4.75661C15.8537 4.54483 15.916 4.30697 16.0877 4.16058L19.6494 1.12616C19.8508 0.954691 20.1466 0.954691 20.3479 1.12616L23.9096 4.16058C24.0813 4.30689 24.1436 4.54483 24.0656 4.75661C23.9877 4.96832 23.786 5.10902 23.5604 5.10902H22.4225V9.36689C22.4225 10.336 23.0422 10.9423 23.622 11.1865C24.2134 11.4356 25.0999 11.4529 25.8155 10.7543L28.8135 7.75626L28.0089 6.95167C27.8494 6.79212 27.8062 6.55003 27.9008 6.34517C27.9954 6.14031 28.207 6.01584 28.4326 6.03415L33.0967 6.40702C33.3603 6.42802 33.5695 6.63734 33.5906 6.90082L33.9635 11.5649C33.9815 11.7899 33.8574 12.0022 33.6525 12.0967C33.4476 12.1913 33.2056 12.1482 33.046 11.9887L32.2413 11.1842L29.2362 14.1894C28.5442 14.8982 28.5619 15.7837 28.8108 16.3744C29.0553 16.9547 29.6617 17.5749 30.6307 17.5749H34.8887V16.4371C34.8887 16.2115 35.0294 16.0098 35.2411 15.9318C35.453 15.8538 35.6908 15.9161 35.837 16.0878L38.8714 19.6495C39.0428 19.8508 39.0428 20.1467 38.8714 20.3479L35.837 23.9096C35.6908 24.0815 35.4527 24.1438 35.2411 24.0657C35.0294 23.9877 34.8887 23.786 34.8887 23.5604V22.4225H30.6296C29.661 22.4229 29.055 23.0427 28.8108 23.6228C28.562 24.2138 28.5447 25.0999 29.2425 25.8146L32.2413 28.8135L33.046 28.0089C33.2056 27.8493 33.4476 27.8062 33.6525 27.9008C33.8574 27.9953 33.9815 28.2076 33.9635 28.4326L33.5906 33.0967C33.5696 33.3602 33.3603 33.5695 33.0967 33.5905L28.4326 33.9634C28.207 33.9814 27.9954 33.8572 27.9008 33.6524C27.8062 33.4475 27.8494 33.2054 28.0089 33.0459L28.8134 32.2413L25.8027 29.2306C25.1128 28.5408 24.2358 28.5567 23.6448 28.8014C23.0539 29.0461 22.4225 29.6552 22.4225 30.6306V34.8884H23.5604C23.7861 34.8884 23.9878 35.0291 24.0656 35.2408C24.1436 35.4525 24.0813 35.6905 23.9096 35.8369L20.3479 38.8713C20.2472 38.9571 20.123 38.9999 19.9987 38.9999ZM17.8994 35.9655L19.9987 37.754L22.098 35.9655H21.884C21.5866 35.9655 21.3455 35.7244 21.3455 35.427V30.6306C21.3455 29.3708 22.0686 28.2886 23.2327 27.8065C24.3967 27.3243 25.6732 27.5783 26.5642 28.4691L29.9557 31.8606C30.0567 31.9615 30.1135 32.0985 30.1135 32.2414C30.1135 32.3842 30.0568 32.5211 29.9557 32.6221L29.8044 32.7734L32.5535 32.5537L32.7732 29.8046L32.6219 29.9558C32.4117 30.1662 32.0707 30.1661 31.8604 29.9558L28.4762 26.5715C27.58 25.6536 27.3295 24.3653 27.818 23.2049C28.3006 22.0586 29.3777 21.3461 30.6292 21.3456H35.4269C35.7243 21.3456 35.9654 21.5867 35.9654 21.8841V22.098L37.7539 19.9988L35.9655 17.8995V18.1134C35.9655 18.2562 35.9088 18.3932 35.8078 18.4942C35.7068 18.5952 35.5698 18.6519 35.427 18.6519H30.6306C29.3789 18.6519 28.3013 17.9394 27.8181 16.7925C27.3293 15.6323 27.5791 14.3448 28.4699 13.4324L31.8604 10.0418C32.0707 9.83154 32.4117 9.83146 32.6219 10.0418L32.7732 10.193L32.5535 7.44393L29.8045 7.22415L29.9558 7.37546C30.0568 7.47639 30.1135 7.6134 30.1135 7.75626C30.1135 7.89911 30.0568 8.03604 29.9558 8.13705L26.5724 11.5204C25.6539 12.4175 24.3649 12.6682 23.204 12.1791C22.0577 11.6962 21.3456 10.6187 21.3456 9.36689V4.57052C21.3456 4.27312 21.5867 4.03203 21.8841 4.03203H22.098L19.9987 2.24354L17.8994 4.03203H18.1133C18.4107 4.03203 18.6518 4.27312 18.6518 4.57052V9.36689C18.6518 10.6254 17.9285 11.707 16.764 12.1893C15.5994 12.6717 14.3233 12.4185 13.4332 11.5285L10.0416 8.13705C9.94062 8.03612 9.88384 7.89911 9.88384 7.75626C9.88384 7.6134 9.94054 7.47647 10.0415 7.37546L10.1929 7.22422L7.44385 7.44401L7.22407 10.193L7.37531 10.0418C7.47631 9.94077 7.61332 9.88408 7.7561 9.88408C7.89888 9.88408 8.03589 9.94077 8.13689 10.0418L11.5284 13.4334C12.4183 14.3233 12.6715 15.5996 12.1892 16.7641C11.7068 17.9286 10.6254 18.652 9.36681 18.652H4.57037C4.27297 18.652 4.03188 18.4109 4.03188 18.1135V17.8996L2.24346 19.9988L4.03188 22.098V21.8842C4.03188 21.5868 4.27297 21.3457 4.57037 21.3457H9.36674C10.6253 21.3457 11.7068 22.069 12.1891 23.2336C12.6715 24.3981 12.4183 25.6743 11.5283 26.5643L8.13682 29.9559C8.03581 30.0569 7.8988 30.1136 7.75602 30.1136C7.61325 30.1136 7.47624 30.0569 7.37523 29.9559L7.22399 29.8047L7.44377 32.5537L10.1928 32.7734L10.0415 32.6221C9.83123 32.4118 9.83123 32.0709 10.0415 31.8606L13.4258 28.4764C14.3437 27.5801 15.632 27.3296 16.7924 27.8182C17.9387 28.3009 18.6511 29.378 18.6517 30.6294V35.4272C18.6517 35.7246 18.4106 35.9657 18.1132 35.9657H17.8994V35.9655Z" fill="url(#paint0_linear_347_275)"/>
<path d="M19.9988 26.0049C16.687 26.0049 13.9927 23.3106 13.9927 19.9987C13.9927 16.6869 16.687 13.9926 19.9988 13.9926C23.3106 13.9926 26.0049 16.6869 26.0049 19.9987C26.0049 23.3106 23.3106 26.0049 19.9988 26.0049ZM19.9988 15.0696C17.2809 15.0696 15.0697 17.2808 15.0697 19.9987C15.0697 22.7167 17.2809 24.9279 19.9988 24.9279C22.7167 24.9279 24.928 22.7167 24.928 19.9987C24.928 17.2808 22.7167 15.0696 19.9988 15.0696Z" fill="url(#paint1_linear_347_275)"/>
<path d="M22.7772 20.3862H21.9581V19.4246H22.7772C22.9002 19.4246 23 19.3029 23 19.1525C23 19.0022 22.9002 18.8804 22.7772 18.8804H21.9581V17.5462C21.9581 17.3514 21.9266 17.2085 21.8645 17.1214C21.8055 17.0385 21.7279 17 21.6204 17C21.5179 17 21.4432 17.0383 21.3853 17.1206C21.3239 17.2078 21.2928 17.351 21.2928 17.5463V18.8805H19.7521L19.097 17.6697C19.041 17.5616 18.9883 17.4604 18.9371 17.3632C18.891 17.2757 18.846 17.2044 18.8036 17.1512C18.766 17.1042 18.7231 17.0677 18.673 17.0397C18.6258 17.0133 18.5657 17.0001 18.4946 17.0001C18.4039 17.0001 18.3215 17.0304 18.2427 17.0928C18.1647 17.1545 18.1108 17.2307 18.0778 17.3259C18.0489 17.4164 18.0336 17.555 18.0336 17.734V18.8804H17.2227C17.0997 18.8804 17 19.0023 17 19.1526C17 19.303 17.0997 19.4247 17.2228 19.4247H18.0337V20.3864H17.2228C17.0997 20.3864 17 20.5082 17 20.6586C17 20.8089 17.0997 20.9306 17.2228 20.9306H18.0337V22.4539C18.0337 22.6429 18.0662 22.7844 18.1306 22.8743C18.1918 22.96 18.2694 22.9998 18.3749 22.9998C18.4766 22.9998 18.5537 22.9598 18.6175 22.8739C18.683 22.786 18.716 22.6445 18.716 22.4539V20.9306H20.1102L20.8646 22.3437C20.9171 22.4371 20.9712 22.5314 21.0252 22.6239C21.074 22.7069 21.1272 22.78 21.1832 22.8411C21.2338 22.8964 21.2879 22.9369 21.3442 22.9616C21.4022 22.9871 21.4699 23 21.5451 23C21.7492 23 21.9581 22.9237 21.9581 22.3579V20.9306H22.7771C22.9002 20.9306 23 20.8087 23 20.6584C23 20.5081 22.9002 20.3862 22.7772 20.3862ZM21.2927 19.4246V20.3862H20.5668L20.0467 19.4246H21.2927ZM18.7161 18.3198L19.0154 18.8804H18.7161V18.3198ZM18.7161 20.3862V19.4246H19.3061L19.8195 20.3862H18.7161ZM21.2927 21.7283L20.8613 20.9306H21.2927V21.7283Z" fill="#FF8303"/>
<defs>
<linearGradient id="paint0_linear_347_275" x1="25.4691" y1="38.9999" x2="29.0502" y2="-3.54024" gradientUnits="userSpaceOnUse">
<stop stop-color="#1D3FF0"/>
<stop offset="1" stop-color="#215CFF"/>
</linearGradient>
<linearGradient id="paint1_linear_347_275" x1="21.728" y1="26.0049" x2="22.8599" y2="12.5583" gradientUnits="userSpaceOnUse">
<stop stop-color="#1D3FF0"/>
<stop offset="1" stop-color="#215CFF"/>
</linearGradient>
</defs>
</svg>
