<svg width="40" height="40" viewBox="0 0 40 40" fill="none" xmlns="http://www.w3.org/2000/svg">
<path d="M13.278 9.46891H26.722M20 2L2 9.4689V13.9502H38V9.4689L20 2ZM2 33.3693H38V38H2V33.3693ZM5.06229 13.9502H9.54363V28.888H5.06229V13.9502ZM34.9377 28.8879H30.4564V13.9501H34.9377V28.8879ZM3.56839 28.8879H11.0373V33.3693H3.56839V28.8879ZM28.9628 28.8879H36.4317V33.3693H28.9628V28.8879Z" stroke="url(#paint0_linear_347_265)" stroke-width="1.70612" stroke-miterlimit="10" stroke-linecap="round" stroke-linejoin="round"/>
<path d="M25.5543 24.208H23.9163V22.4452H25.5543C25.8005 22.4452 26 22.222 26 21.9463C26 21.6706 25.8005 21.4473 25.5543 21.4473H23.9163V19.0013C23.9163 18.6443 23.8533 18.3822 23.729 18.2225C23.611 18.0707 23.4558 18 23.2408 18C23.0357 18 22.8864 18.0702 22.7706 18.2211C22.6478 18.3809 22.5855 18.6435 22.5855 19.0015V21.4476H19.5042L18.1941 19.2277C18.0819 19.0296 17.9765 18.844 17.8741 18.6659C17.7819 18.5054 17.692 18.3748 17.6071 18.2773C17.5319 18.1909 17.4463 18.1241 17.3461 18.0728C17.2515 18.0244 17.1313 18.0002 16.9891 18.0002C16.8077 18.0002 16.6431 18.0558 16.4854 18.1701C16.3294 18.2832 16.2216 18.423 16.1557 18.5975C16.0979 18.7634 16.0673 19.0176 16.0673 19.3456V21.4475H14.4455C14.1994 21.4475 14 21.6708 14 21.9465C14 22.2221 14.1994 22.4453 14.4455 22.4453H16.0673V24.2083H14.4455C14.1994 24.2083 14 24.4316 14 24.7074C14 24.9829 14.1994 25.206 14.4455 25.206H16.0673V27.9988C16.0673 28.3453 16.1323 28.6047 16.2611 28.7695C16.3836 28.9267 16.5389 28.9997 16.7498 28.9997C16.9532 28.9997 17.1073 28.9264 17.2351 28.7689C17.3659 28.6076 17.4321 28.3483 17.4321 27.9988V25.206H20.2203L21.7292 27.7968C21.8341 27.968 21.9424 28.1409 22.0505 28.3104C22.148 28.4626 22.2543 28.5967 22.3665 28.7087C22.4676 28.81 22.5759 28.8843 22.6885 28.9296C22.8044 28.9763 22.9399 29 23.0903 29C23.4983 29 23.9162 28.8601 23.9162 27.8228V25.206H25.5543C25.8004 25.206 26 24.9826 26 24.707C26 24.4315 25.8005 24.208 25.5543 24.208ZM22.5855 22.4452V24.208H21.1336L20.0934 22.4452H22.5855ZM17.4321 20.4196L18.0308 21.4473H17.4321V20.4196ZM17.4321 24.208V22.4452H18.6122L19.6391 24.208H17.4321ZM22.5855 26.6685L21.7226 25.206H22.5855V26.6685Z" fill="#FF8303"/>
<defs>
<linearGradient id="paint0_linear_347_265" x1="25.1821" y1="38" x2="28.5745" y2="-2.2987" gradientUnits="userSpaceOnUse">
<stop stop-color="#1D3FF0"/>
<stop offset="1" stop-color="#215CFF"/>
</linearGradient>
</defs>
</svg>
