<svg width="36" height="41" viewBox="0 0 36 41" fill="none" xmlns="http://www.w3.org/2000/svg">
<path d="M10.8273 40.982C6.85125 40.4749 2.91537 33.233 1.6989 29.8163C-0.754111 22.9267 -0.555913 13.6941 7.14735 10.3648C11.267 8.58502 12.9465 10.2123 16.6713 11.0838C19.7189 11.7971 20.8415 10.6288 23.54 9.94513C27.7969 8.86587 31.4038 10.4659 34.124 13.7245C27.4165 17.3627 28.2454 27.3184 35.253 30.0659C35.3132 30.3499 33.8849 33.034 33.6297 33.481C32.2014 35.9862 29.1225 40.6121 26.0404 40.982H24.7597C23.3443 40.7245 22.1214 39.8603 20.7404 39.5176C19.3594 39.175 17.7722 39.2039 16.4474 39.5152C15.0031 39.8546 13.7336 40.6908 12.27 40.982C11.8134 40.9411 11.2726 41.0382 10.8289 40.982H10.8273Z" fill="white"/>
<path d="M25.4777 -0.00415039C25.9263 3.14937 24.2235 6.59257 21.6598 8.38679C20.3984 9.26945 18.7983 9.97157 17.2264 9.80788C16.9022 8.21667 17.3572 6.48986 18.0986 5.06636C19.5165 2.34213 22.3932 0.293549 25.4777 -0.00415039Z" fill="white"/>
</svg>
