<svg width="17" height="17" viewBox="0 0 17 17" fill="none" xmlns="http://www.w3.org/2000/svg">
<path d="M13.5486 6.1042L8.55061 10.9762L3.55261 6.1042C3.46332 6.01697 3.34344 5.96813 3.21861 5.96813C3.09378 5.96813 2.97391 6.01697 2.88461 6.1042C2.84138 6.14656 2.80703 6.19713 2.78358 6.25293C2.76013 6.30874 2.74805 6.36866 2.74805 6.4292C2.74805 6.48973 2.76013 6.54965 2.78358 6.60546C2.80703 6.66127 2.84138 6.71183 2.88461 6.7542L8.20161 11.9382C8.29499 12.0292 8.42022 12.0801 8.55061 12.0801C8.68101 12.0801 8.80624 12.0292 8.89961 11.9382L14.2166 6.7552C14.2602 6.7128 14.2948 6.66211 14.3184 6.60612C14.342 6.55013 14.3542 6.48997 14.3542 6.4292C14.3542 6.36842 14.342 6.30827 14.3184 6.25227C14.2948 6.19628 14.2602 6.14559 14.2166 6.1032C14.1273 6.01597 14.0074 5.96713 13.8826 5.96713C13.7578 5.96713 13.6379 6.01597 13.5486 6.1032V6.1042Z" fill="white"/>
</svg>
