<svg width="51" height="51" viewBox="0 0 51 51" fill="none" xmlns="http://www.w3.org/2000/svg">
<path d="M29.2692 13.4116C30.7258 12.2349 31.0556 10.977 31.0757 10.1289C31.1247 8.0657 29.4955 6.55586 29.3095 6.39059C28.8488 5.98086 28.1432 6.02216 27.7334 6.48288C27.3237 6.94361 27.365 7.64916 27.8257 8.05896C27.8361 8.06829 28.8683 9.034 28.8436 10.076C28.8304 10.6312 28.5107 11.1541 27.8661 11.6748C26.4094 12.8515 26.0796 14.1094 26.0596 14.9575C26.0105 17.0208 27.6398 18.5306 27.8257 18.6959C28.0389 18.8855 28.3051 18.979 28.5701 18.979C28.8777 18.979 29.1839 18.8531 29.404 18.6056C29.8137 18.1448 29.7747 17.4412 29.3139 17.0315C29.0209 16.765 28.2661 15.8811 28.2918 15.0021C28.308 14.45 28.6277 13.9297 29.2692 13.4116Z" fill="white"/>
<path d="M22.1863 13.4116C23.643 12.2349 23.9728 10.977 23.9928 10.1289C24.0418 8.0657 22.4126 6.55586 22.2266 6.39059C21.766 5.98086 21.0603 6.02216 20.6505 6.48288C20.2408 6.94361 20.2821 7.64916 20.7428 8.05896C20.7532 8.06829 21.7854 9.034 21.7607 10.076C21.7475 10.6312 21.4278 11.1541 20.7832 11.6748C19.3265 12.8515 18.9967 14.1094 18.9767 14.9575C18.9277 17.0208 20.5569 18.5306 20.7428 18.6959C20.956 18.8855 21.2222 18.979 21.4872 18.979C21.7948 18.979 22.101 18.8531 22.3211 18.6056C22.7308 18.1448 22.6918 17.4412 22.231 17.0315C21.938 16.765 21.1833 15.8811 21.2089 15.0021C21.2251 14.45 21.5448 13.9297 22.1863 13.4116Z" fill="white"/>
<path d="M38.1681 24.3238H36.8468V23.5051C36.8468 22.8885 36.347 22.3887 35.7305 22.3887H7.23785C6.62134 22.3887 6.12146 22.8885 6.12146 23.5051V29.397C6.12146 34.6032 9.00311 39.181 13.3294 41.7672H7.23852C6.622 41.7672 6.12213 42.267 6.12213 42.8836C6.12213 43.5001 6.62185 44 7.23852 44H35.7305C36.347 44 36.8469 43.5001 36.8469 42.8836C36.8469 42.267 36.3471 41.7672 35.7305 41.7672H29.639C32.0991 40.2966 34.0921 38.1821 35.3535 35.6739H38.1682C41.2974 35.6739 43.8433 33.128 43.8433 29.9988C43.8433 26.8696 41.2973 24.3238 38.1681 24.3238ZM34.6141 29.397C34.6141 36.2179 28.724 41.7672 21.4842 41.7672C14.2443 41.7672 8.35425 36.2179 8.35425 29.397V24.6215H34.6141V29.397H34.6141ZM38.1681 33.4411H36.2471C36.6372 32.1564 36.8468 30.7995 36.8468 29.397V26.5564H38.1681C40.0662 26.5564 41.6105 28.1007 41.6105 29.9988C41.6105 31.8969 40.0662 33.4411 38.1681 33.4411Z" fill="white"/>
<path d="M15.1025 13.4116C16.5592 12.2349 16.889 10.977 16.9091 10.1289C16.9581 8.0657 15.3288 6.55586 15.1429 6.39059C14.6822 5.98086 13.9766 6.02216 13.5668 6.48288C13.157 6.94353 13.1983 7.64916 13.6591 8.05896C13.6695 8.06829 14.7017 9.034 14.677 10.076C14.6638 10.6312 14.344 11.1541 13.6995 11.6748C12.2428 12.8515 11.913 14.1094 11.8929 14.9575C11.844 17.0207 13.4732 18.5305 13.6591 18.6959C13.8719 18.885 14.1367 18.9781 14.4007 18.9781C14.7083 18.9781 15.0147 18.8516 15.2353 18.6036C15.645 18.1428 15.6037 17.4373 15.143 17.0275C15.1326 17.0182 14.1004 16.0525 14.1251 15.0104C14.1381 14.4553 14.4579 13.9322 15.1025 13.4116Z" fill="white"/>
</svg>
