<svg width="9" height="9" viewBox="0 0 9 9" fill="none" xmlns="http://www.w3.org/2000/svg">
<path d="M8.60824 1.16248L8.60824 7.07931C8.60824 7.20267 8.55924 7.32098 8.47201 7.4082C8.38478 7.49543 8.26647 7.54444 8.14311 7.54444C8.01975 7.54444 7.90145 7.49543 7.81422 7.4082C7.72699 7.32098 7.67799 7.20267 7.67799 7.07931L7.6784 2.28462L1.24015 8.72287C1.15297 8.81005 1.03472 8.85903 0.911434 8.85903C0.788142 8.85903 0.669901 8.81005 0.58272 8.72287C0.49554 8.63569 0.446563 8.51745 0.446563 8.39416C0.446563 8.27087 0.49554 8.15263 0.58272 8.06545L7.02097 1.6272L2.22628 1.62761C2.10292 1.62761 1.98462 1.5786 1.89739 1.49138C1.81016 1.40415 1.76116 1.28584 1.76116 1.16248C1.76116 1.03912 1.81016 0.920812 1.89739 0.833584C1.98462 0.746355 2.10292 0.697351 2.22628 0.697351L8.14311 0.697351C8.2042 0.697317 8.2647 0.709325 8.32115 0.732687C8.3776 0.756051 8.42889 0.790311 8.47208 0.833508C8.51528 0.876707 8.54954 0.927995 8.57291 0.984442C8.59627 1.04089 8.60828 1.10139 8.60824 1.16248Z" fill="white"/>
</svg>
