<svg width="12" height="13" viewBox="0 0 12 13" fill="none" xmlns="http://www.w3.org/2000/svg">
<path d="M11.5609 1.26725L11.5609 9.64085C11.5609 9.81543 11.4916 9.98286 11.3681 10.1063C11.2447 10.2298 11.0772 10.2991 10.9026 10.2991C10.7281 10.2991 10.5606 10.2298 10.4372 10.1063C10.3137 9.98286 10.2444 9.81543 10.2444 9.64085L10.245 2.85532L1.13344 11.9669C1.01006 12.0902 0.842727 12.1595 0.668243 12.1595C0.493759 12.1595 0.326421 12.0902 0.203042 11.9669C0.0796633 11.8435 0.01035 11.6761 0.01035 11.5017C0.01035 11.3272 0.0796633 11.1598 0.203042 11.0365L9.31457 1.92492L2.52904 1.92551C2.35446 1.92551 2.18703 1.85615 2.06358 1.73271C1.94014 1.60926 1.87078 1.44183 1.87078 1.26725C1.87078 1.09267 1.94014 0.925235 2.06358 0.801788C2.18703 0.678341 2.35446 0.608988 2.52904 0.608988L10.9026 0.608989C10.9891 0.60894 11.0747 0.625934 11.1546 0.658998C11.2345 0.692061 11.3071 0.740547 11.3682 0.801682C11.4293 0.862816 11.4778 0.9354 11.5109 1.01529C11.544 1.09517 11.561 1.18079 11.5609 1.26725Z" fill="#215CFF"/>
</svg>
