<svg width="48" height="48" viewBox="0 0 48 48" fill="none" xmlns="http://www.w3.org/2000/svg">
<g clip-path="url(#clip0_2939_2713)">
<path d="M24.607 33.504C23.4341 33.504 22.2612 33.504 21.0883 33.504C21.0883 33.421 21.0765 33.338 21.0765 33.255C21.0765 30.492 21.0765 27.7291 21.0765 24.9661C21.0765 24.8831 21.0765 24.812 21.0765 24.7171C20.0813 24.7171 19.1098 24.7171 18.1383 24.7171C18.1383 23.5669 18.1383 22.4404 18.1383 21.2901C19.1216 21.2901 20.0931 21.2901 21.0765 21.2901C21.0765 21.1953 21.0765 21.1241 21.0765 21.0648C21.0765 20.3415 21.0646 19.6181 21.0765 18.9066C21.0883 18.4442 21.112 17.9817 21.2068 17.5311C21.5504 15.7642 22.8299 14.5784 24.607 14.3294C25.4719 14.2108 26.3249 14.2819 27.1898 14.3175C27.486 14.3294 27.794 14.3768 28.0902 14.4124C28.0902 15.4322 28.0902 16.4401 28.0902 17.4599C27.332 17.4718 26.5737 17.4599 25.8273 17.4955C25.2113 17.5192 24.8321 17.8513 24.6781 18.4204C24.6426 18.5627 24.6189 18.7169 24.6189 18.8592C24.607 19.63 24.607 20.4008 24.607 21.1715C24.607 21.2071 24.6189 21.2545 24.6307 21.3138C25.7444 21.3138 26.8581 21.3138 27.9836 21.3138C27.8414 22.4641 27.6874 23.5906 27.5452 24.729C26.5619 24.729 25.5904 24.729 24.6189 24.729C24.6189 24.8238 24.6189 24.8831 24.6189 24.9543C24.6189 27.7291 24.6189 30.5158 24.6189 33.2906C24.5952 33.3617 24.607 33.4329 24.607 33.504Z" fill="white"/>
</g>
<defs>
<clipPath id="clip0_2939_2713">
<rect width="11" height="20" fill="white" transform="translate(18 14)"/>
</clipPath>
</defs>
</svg>
