<svg width="31" height="34" viewBox="0 0 31 34" fill="none" xmlns="http://www.w3.org/2000/svg">
<g clip-path="url(#clip0_2887_2571)">
<path d="M14.4788 16.2401L0.128296 31.1835C0.29305 31.7487 0.584668 32.2694 0.981195 32.7063C1.37772 33.1433 1.86882 33.4851 2.41752 33.7061C2.96621 33.9272 3.55821 34.0216 4.14893 33.9822C4.73964 33.9429 5.31369 33.7709 5.82785 33.4792L21.9748 24.3388L14.4788 16.2401Z" fill="#EA4335"/>
<path d="M28.9896 13.6999L22.0069 9.72491L14.1473 16.5802L22.039 24.3176L28.9683 20.3851C29.4108 20.1565 29.8036 19.8432 30.1239 19.4632C30.4443 19.0833 30.6859 18.6441 30.835 18.171C30.9841 17.6979 31.0376 17.2002 30.9925 16.7065C30.9474 16.2128 30.8046 15.7328 30.5723 15.2942C30.2098 14.6155 29.6511 14.0602 28.9683 13.6999H28.9896Z" fill="#FBBC04"/>
<path d="M0.128321 2.82715C0.042936 3.14615 -0.000201538 3.47486 7.07851e-07 3.80495V30.2057C-0.000201538 30.5358 0.042936 30.8645 0.128321 31.1835L14.9707 16.6227L0.128321 2.82715Z" fill="#4285F4"/>
<path d="M14.5857 17.0053L22.0069 9.72492L5.88131 0.542052C5.27447 0.189386 4.58462 0.00239053 3.88166 7.60152e-06C3.03259 -0.00166477 2.20625 0.272654 1.52862 0.781147C0.850985 1.28964 0.359224 2.00441 0.128296 2.81651L14.5857 17.0053Z" fill="#34A853"/>
</g>
<defs>
<clipPath id="clip0_2887_2571">
<rect width="31" height="34" fill="white"/>
</clipPath>
</defs>
</svg>
