<svg width="50" height="50" viewBox="0 0 50 50" fill="none" xmlns="http://www.w3.org/2000/svg">
<path d="M38.27 17.2636C38.3298 17.2039 38.3772 17.133 38.4096 17.055C38.4419 16.9769 38.4586 16.8933 38.4586 16.8088C38.4586 16.7243 38.4419 16.6407 38.4096 16.5626C38.3772 16.4846 38.3298 16.4137 38.27 16.354C37.7327 15.8165 37.0948 15.3902 36.3927 15.0993C35.6907 14.8084 34.9381 14.6587 34.1782 14.6587C33.4182 14.6587 32.6657 14.8084 31.9636 15.0993C31.2615 15.3902 30.6236 15.8165 30.0863 16.354C29.9657 16.4746 29.8979 16.6382 29.8979 16.8088C29.8979 16.9794 29.9657 17.143 30.0863 17.2636C30.207 17.3843 30.3706 17.452 30.5412 17.452C30.7118 17.452 30.8754 17.3843 30.996 17.2636C31.4139 16.8457 31.91 16.5142 32.456 16.288C33.002 16.0618 33.5872 15.9454 34.1782 15.9454C34.7692 15.9454 35.3544 16.0618 35.9004 16.288C36.4464 16.5142 36.9425 16.8457 37.3604 17.2636C37.4201 17.3234 37.491 17.3708 37.569 17.4032C37.6471 17.4355 37.7307 17.4522 37.8152 17.4522C37.8997 17.4522 37.9833 17.4355 38.0614 17.4032C38.1394 17.3708 38.2103 17.3234 38.27 17.2636Z" fill="white"/>
<path d="M31.9057 18.1717C31.7851 18.2924 31.7173 18.456 31.7173 18.6266C31.7173 18.7971 31.7851 18.9608 31.9057 19.0814C32.0263 19.202 32.1899 19.2698 32.3605 19.2698C32.5311 19.2698 32.6947 19.202 32.8153 19.0814C32.9945 18.9021 33.2072 18.7598 33.4413 18.6628C33.6754 18.5657 33.9264 18.5157 34.1798 18.5157C34.4333 18.5157 34.6842 18.5657 34.9184 18.6628C35.1525 18.7598 35.3652 18.9021 35.5443 19.0814C35.604 19.1411 35.6749 19.1885 35.753 19.2208C35.831 19.2531 35.9147 19.2698 35.9991 19.2698C36.0836 19.2698 36.1672 19.2531 36.2453 19.2208C36.3233 19.1885 36.3942 19.1411 36.454 19.0814C36.5137 19.0216 36.5611 18.9507 36.5934 18.8727C36.6257 18.7947 36.6424 18.711 36.6424 18.6266C36.6424 18.5421 36.6257 18.4584 36.5934 18.3804C36.5611 18.3024 36.5137 18.2315 36.454 18.1717C36.1554 17.8729 35.8009 17.6358 35.4107 17.474C35.0205 17.3123 34.6022 17.229 34.1798 17.229C33.7574 17.229 33.3391 17.3123 32.9489 17.474C32.5587 17.6358 32.2042 17.8729 31.9057 18.1717Z" fill="white"/>
<path d="M29.1769 15.4425C30.503 14.1166 32.3015 13.3717 34.1768 13.3717C36.0521 13.3717 37.8506 14.1166 39.1767 15.4425C39.2973 15.5631 39.4609 15.6309 39.6315 15.6309C39.8021 15.6309 39.9657 15.5631 40.0863 15.4425C40.207 15.3218 40.2747 15.1582 40.2747 14.9876C40.2747 14.817 40.207 14.6534 40.0863 14.5328C39.3103 13.7568 38.389 13.1411 37.375 12.7211C36.3611 12.3011 35.2743 12.085 34.1768 12.085C33.0793 12.085 31.9925 12.3011 30.9786 12.7211C29.9646 13.1411 29.0433 13.7568 28.2673 14.5328C28.2075 14.5925 28.1601 14.6635 28.1278 14.7415C28.0955 14.8195 28.0789 14.9032 28.0789 14.9876C28.0789 15.0721 28.0955 15.1558 28.1278 15.2338C28.1601 15.3118 28.2075 15.3827 28.2673 15.4425C28.327 15.5022 28.3979 15.5496 28.4759 15.5819C28.554 15.6142 28.6376 15.6309 28.7221 15.6309C28.8066 15.6309 28.8902 15.6142 28.9682 15.5819C29.0463 15.5496 29.1172 15.5022 29.1769 15.4425Z" fill="white"/>
<path d="M25.8212 35.2856C25.6507 35.2856 25.4872 35.3533 25.3666 35.4739C25.246 35.5944 25.1783 35.758 25.1783 35.9285V41.7143H22.6068V38.4999C22.6068 38.3294 22.5391 38.1659 22.4185 38.0454C22.298 37.9248 22.1345 37.8571 21.964 37.8571H10.3924C10.2219 37.8571 10.0584 37.9248 9.93782 38.0454C9.81726 38.1659 9.74953 38.3294 9.74953 38.4999V41.7143H7.17806V8.28524H25.1783V19.214C25.1783 19.3845 25.246 19.548 25.3666 19.6685C25.4872 19.7891 25.6507 19.8568 25.8212 19.8568C25.9917 19.8568 26.1552 19.7891 26.2757 19.6685C26.3963 19.548 26.464 19.3845 26.464 19.214V7.64238C26.464 7.47188 26.3963 7.30836 26.2757 7.1878C26.1552 7.06724 25.9917 6.99951 25.8212 6.99951H6.5352C6.3647 6.99951 6.20119 7.06724 6.08063 7.1878C5.96006 7.30836 5.89233 7.47188 5.89233 7.64238V42.3571C5.89233 42.5276 5.96006 42.6911 6.08063 42.8117C6.20119 42.9323 6.3647 43 6.5352 43H25.8212C25.9917 43 26.1552 42.9323 26.2757 42.8117C26.3963 42.6911 26.464 42.5276 26.464 42.3571V35.9285C26.464 35.758 26.3963 35.5944 26.2757 35.4739C26.1552 35.3533 25.9917 35.2856 25.8212 35.2856ZM11.0353 39.1428H15.5353V41.7143H11.0353V39.1428ZM16.821 41.7143V39.1428H21.3211V41.7143H16.821Z" fill="white"/>
<path d="M14.8922 11.4998C14.8922 11.3293 14.8245 11.1658 14.7039 11.0452C14.5833 10.9247 14.4198 10.8569 14.2493 10.8569H10.3921C10.2216 10.8569 10.0581 10.9247 9.93756 11.0452C9.817 11.1658 9.74927 11.3293 9.74927 11.4998V16.6427C9.74927 16.8132 9.817 16.9767 9.93756 17.0973C10.0581 17.2179 10.2216 17.2856 10.3921 17.2856H14.2493C14.4198 17.2856 14.5833 17.2179 14.7039 17.0973C14.8245 16.9767 14.8922 16.8132 14.8922 16.6427V11.4998ZM13.6065 15.9999H11.035V12.1427H13.6065V15.9999Z" fill="white"/>
<path d="M14.8922 20.5008C14.8922 20.3303 14.8245 20.1668 14.7039 20.0462C14.5833 19.9256 14.4198 19.8579 14.2493 19.8579H10.3921C10.2216 19.8579 10.0581 19.9256 9.93756 20.0462C9.817 20.1668 9.74927 20.3303 9.74927 20.5008V25.6437C9.74927 25.8142 9.817 25.9777 9.93756 26.0983C10.0581 26.2188 10.2216 26.2866 10.3921 26.2866H14.2493C14.4198 26.2866 14.5833 26.2188 14.7039 26.0983C14.8245 25.9777 14.8922 25.8142 14.8922 25.6437V20.5008ZM13.6065 25.0008H11.035V21.1436H13.6065V25.0008Z" fill="white"/>
<path d="M14.2493 28.8569H10.3921C10.2216 28.8569 10.0581 28.9247 9.93756 29.0452C9.817 29.1658 9.74927 29.3293 9.74927 29.4998V34.6427C9.74927 34.8132 9.817 34.9767 9.93756 35.0973C10.0581 35.2179 10.2216 35.2856 10.3921 35.2856H14.2493C14.4198 35.2856 14.5833 35.2179 14.7039 35.0973C14.8245 34.9767 14.8922 34.8132 14.8922 34.6427V29.4998C14.8922 29.3293 14.8245 29.1658 14.7039 29.0452C14.5833 28.9247 14.4198 28.8569 14.2493 28.8569ZM13.6065 33.9999H11.035V30.1427H13.6065V33.9999Z" fill="white"/>
<path d="M22.6065 11.4998C22.6065 11.3293 22.5388 11.1658 22.4183 11.0452C22.2977 10.9247 22.1342 10.8569 21.9637 10.8569H18.1065C17.936 10.8569 17.7725 10.9247 17.6519 11.0452C17.5314 11.1658 17.4636 11.3293 17.4636 11.4998V16.6427C17.4636 16.8132 17.5314 16.9767 17.6519 17.0973C17.7725 17.2179 17.936 17.2856 18.1065 17.2856H21.9637C22.1342 17.2856 22.2977 17.2179 22.4183 17.0973C22.5388 16.9767 22.6065 16.8132 22.6065 16.6427V11.4998ZM21.3208 15.9999H18.7494V12.1427H21.3208V15.9999Z" fill="white"/>
<path d="M22.6065 20.5008C22.6065 20.3303 22.5388 20.1668 22.4183 20.0462C22.2977 19.9256 22.1342 19.8579 21.9637 19.8579H18.1065C17.936 19.8579 17.7725 19.9256 17.6519 20.0462C17.5314 20.1668 17.4636 20.3303 17.4636 20.5008V25.6437C17.4636 25.8142 17.5314 25.9777 17.6519 26.0983C17.7725 26.2188 17.936 26.2866 18.1065 26.2866H21.9637C22.1342 26.2866 22.2977 26.2188 22.4183 26.0983C22.5388 25.9777 22.6065 25.8142 22.6065 25.6437V20.5008ZM21.3208 25.0008H18.7494V21.1436H21.3208V25.0008Z" fill="white"/>
<path d="M21.9637 28.8569H18.1065C17.936 28.8569 17.7725 28.9247 17.6519 29.0452C17.5314 29.1658 17.4636 29.3293 17.4636 29.4998V34.6427C17.4636 34.8132 17.5314 34.9767 17.6519 35.0973C17.7725 35.2179 17.936 35.2856 18.1065 35.2856H21.9637C22.1342 35.2856 22.2977 35.2179 22.4183 35.0973C22.5388 34.9767 22.6065 34.8132 22.6065 34.6427V29.4998C22.6065 29.3293 22.5388 29.1658 22.4183 29.0452C22.2977 28.9247 22.1342 28.8569 21.9637 28.8569ZM21.3208 33.9999H18.7494V30.1427H21.3208V33.9999Z" fill="white"/>
<path d="M39.9641 21.1421H28.3926C27.5401 21.1421 26.7225 21.4807 26.1197 22.0835C25.5169 22.6863 25.1782 23.5039 25.1782 24.3564V30.7851C25.1782 31.6376 25.5169 32.4551 26.1197 33.0579C26.7225 33.6607 27.5401 33.9994 28.3926 33.9994H39.9641C40.8166 33.9994 41.6342 33.6607 42.237 33.0579C42.8398 32.4551 43.1785 31.6376 43.1785 30.7851V24.3564C43.1785 23.5039 42.8398 22.6863 42.237 22.0835C41.6342 21.4807 40.8166 21.1421 39.9641 21.1421ZM41.8927 30.7851C41.8927 31.2966 41.6895 31.7871 41.3279 32.1488C40.9662 32.5105 40.4756 32.7137 39.9641 32.7137H28.3926C27.8811 32.7137 27.3905 32.5105 27.0288 32.1488C26.6671 31.7871 26.464 31.2966 26.464 30.7851V24.3564C26.464 23.8449 26.6671 23.3544 27.0288 22.9927C27.3905 22.631 27.8811 22.4278 28.3926 22.4278H39.9641C40.4756 22.4278 40.9662 22.631 41.3279 22.9927C41.6895 23.3544 41.8927 23.8449 41.8927 24.3564V30.7851Z" fill="white"/>
<path d="M30.3402 24.3139C30.1313 24.5646 28.2927 26.8082 28.2927 28.4443C28.2927 29.1178 28.5603 29.7636 29.0365 30.2399C29.5127 30.7161 30.1586 30.9836 30.832 30.9836C31.5055 30.9836 32.1514 30.7161 32.6276 30.2399C33.1038 29.7636 33.3714 29.1178 33.3714 28.4443C33.3714 26.805 31.5328 24.5646 31.3238 24.3139C31.2615 24.2455 31.1855 24.1908 31.1009 24.1534C31.0162 24.116 30.9246 24.0967 30.832 24.0967C30.7395 24.0967 30.6479 24.116 30.5632 24.1534C30.4786 24.1908 30.4026 24.2455 30.3402 24.3139ZM30.8353 29.7493C30.4965 29.7409 30.1748 29.5991 29.94 29.3547C29.7053 29.1103 29.5765 28.7831 29.5817 28.4443C29.5817 27.7564 30.2245 26.6282 30.8353 25.7796C31.4428 26.6282 32.0888 27.7564 32.0888 28.4443C32.094 28.7831 31.9652 29.1103 31.7305 29.3547C31.4957 29.5991 31.174 29.7409 30.8353 29.7493Z" fill="white"/>
<path d="M38.6366 26.9268H37.3509L38.4438 24.741C38.4816 24.6655 38.5041 24.5832 38.5101 24.4989C38.5161 24.4147 38.5054 24.3301 38.4787 24.2499C38.452 24.1698 38.4097 24.0957 38.3544 24.0319C38.299 23.968 38.2317 23.9158 38.1561 23.878C38.0805 23.8402 37.9983 23.8177 37.914 23.8117C37.8297 23.8057 37.7451 23.8164 37.665 23.8431C37.5848 23.8698 37.5108 23.912 37.4469 23.9674C37.3831 24.0227 37.3308 24.0901 37.293 24.1657L35.7341 27.2836C35.6859 27.3806 35.6629 27.4882 35.6674 27.5965C35.6719 27.7047 35.7037 27.8101 35.7598 27.9027C35.816 27.9954 35.8946 28.0724 35.9884 28.1266C36.0823 28.1807 36.1883 28.2103 36.2966 28.2125H37.473L36.1391 30.3436C36.0914 30.4151 36.0586 30.4955 36.0425 30.58C36.0264 30.6645 36.0275 30.7513 36.0456 30.8354C36.0637 30.9195 36.0984 30.9991 36.1478 31.0695C36.1972 31.1398 36.2603 31.1996 36.3332 31.2452C36.4061 31.2908 36.4874 31.3213 36.5723 31.3349C36.6572 31.3485 36.744 31.3449 36.8275 31.3244C36.911 31.3039 36.9896 31.2668 37.0585 31.2154C37.1274 31.164 37.1853 31.0992 37.2288 31.025L39.1799 27.8911C39.2357 27.7943 39.2655 27.6847 39.2661 27.573C39.2667 27.4612 39.2381 27.3513 39.1833 27.254C39.1285 27.1566 39.0492 27.0753 38.9534 27.0179C38.8575 26.9605 38.7483 26.9291 38.6366 26.9268Z" fill="white"/>
</svg>
