<svg width="48" height="48" viewBox="0 0 48 48" fill="none" xmlns="http://www.w3.org/2000/svg">
<g clip-path="url(#clip0_2939_2714)">
<path d="M27.4336 23.5026C27.4336 24.1809 27.2325 24.844 26.8556 25.408C26.4788 25.972 25.9432 26.4115 25.3165 26.6711C24.6898 26.9307 24.0003 26.9986 23.335 26.8663C22.6697 26.7339 22.0586 26.4073 21.579 25.9277C21.0993 25.448 20.7727 24.8369 20.6404 24.1717C20.508 23.5064 20.576 22.8168 20.8355 22.1901C21.0951 21.5635 21.5347 21.0279 22.0987 20.651C22.6627 20.2742 23.3257 20.073 24.0041 20.073C24.9133 20.0741 25.785 20.4357 26.428 21.0787C27.0709 21.7216 27.4326 22.5933 27.4336 23.5026ZM34.7215 18.7869V28.2183C34.7197 29.8095 34.0868 31.335 32.9616 32.4602C31.8365 33.5853 30.3109 34.2182 28.7197 34.22H19.2884C17.6972 34.2182 16.1717 33.5853 15.0465 32.4602C13.9213 31.335 13.2884 29.8095 13.2866 28.2183V18.7869C13.2884 17.1957 13.9213 15.6702 15.0465 14.545C16.1717 13.4199 17.6972 12.787 19.2884 12.7852H28.7197C30.3109 12.787 31.8365 13.4199 32.9616 14.545C34.0868 15.6702 34.7197 17.1957 34.7215 18.7869ZM29.1484 23.5026C29.1484 22.4851 28.8467 21.4905 28.2814 20.6445C27.7162 19.7985 26.9127 19.1392 25.9727 18.7498C25.0327 18.3605 23.9983 18.2586 23.0004 18.4571C22.0025 18.6556 21.0859 19.1455 20.3664 19.865C19.647 20.5844 19.157 21.5011 18.9585 22.499C18.76 23.4969 18.8619 24.5312 19.2513 25.4713C19.6406 26.4113 20.3 27.2147 21.146 27.78C21.992 28.3452 22.9866 28.647 24.0041 28.647C25.368 28.6454 26.6755 28.1029 27.64 27.1385C28.6044 26.1741 29.1469 24.8665 29.1484 23.5026ZM30.8632 17.9295C30.8632 17.6752 30.7878 17.4265 30.6465 17.215C30.5051 17.0035 30.3043 16.8387 30.0693 16.7413C29.8343 16.644 29.5757 16.6185 29.3262 16.6681C29.0767 16.7178 28.8476 16.8403 28.6677 17.0201C28.4879 17.2 28.3654 17.4291 28.3157 17.6786C28.2661 17.9281 28.2916 18.1867 28.3889 18.4217C28.4863 18.6567 28.6511 18.8575 28.8626 18.9989C29.0741 19.1402 29.3228 19.2156 29.5771 19.2156C29.9182 19.2156 30.2453 19.0801 30.4865 18.8389C30.7277 18.5977 30.8632 18.2706 30.8632 17.9295Z" fill="white"/>
</g>
<defs>
<clipPath id="clip0_2939_2714">
<rect width="22" height="23" fill="white" transform="translate(13 12)"/>
</clipPath>
</defs>
</svg>
