<svg width="50" height="50" viewBox="0 0 50 50" fill="none" xmlns="http://www.w3.org/2000/svg">
<rect x="0.25431" y="0.75431" width="48.8429" height="48.8429" rx="24.4215" stroke="#215CFF" stroke-width="0.50862"/>
<path d="M31.9475 37.2499C31.5318 37.2499 31.1544 37.1893 30.8262 37.0708C30.5 36.9544 30.1877 36.7636 29.8994 36.5057C29.6094 36.247 29.3329 35.9374 29.0808 35.5848C28.8239 35.2252 28.567 34.8591 28.3187 34.4965L24.9144 29.2777H19.1501V34.6291C19.1501 35.4969 18.949 36.1575 18.5529 36.5952C18.1528 37.0353 17.6538 37.2492 17.028 37.2492C16.3802 37.2492 15.8771 37.0329 15.4889 36.5883C15.1015 36.1465 14.9052 35.487 14.9052 34.6291V29.2777H11.606C10.743 29.2777 10.0408 28.5755 10.0408 27.7125C10.0408 26.8494 10.743 26.1472 11.606 26.1472H14.9052V23.4758H11.606C10.743 23.4762 10.0408 22.774 10.0408 21.9113C10.0408 21.0486 10.743 20.3461 11.606 20.3461H14.9052V16.4455C14.9052 15.6917 14.9872 15.0993 15.1487 14.6857C15.3505 14.207 15.668 13.8372 16.1247 13.5417C16.5813 13.2455 17.0611 13.1016 17.5911 13.1016C18.0006 13.1016 18.356 13.1684 18.6452 13.301C18.9424 13.4366 19.1942 13.613 19.4153 13.8399C19.6405 14.0703 19.8733 14.3727 20.1082 14.7374C20.3496 15.1128 20.5986 15.5037 20.8627 15.921L23.7873 20.3461H30.2431V15.7223C30.2431 14.8428 30.4315 14.1781 30.8027 13.7459C31.1754 13.3123 31.6658 13.1016 32.3015 13.1016C32.9586 13.1016 33.4624 13.3127 33.8406 13.7469C34.217 14.1788 34.4074 14.8438 34.4074 15.7223V20.3461H37.7455C38.6086 20.3461 39.3108 21.0483 39.3108 21.9113C39.3108 22.7743 38.6086 23.4762 37.7455 23.4762H34.4074V26.1479H37.7455C38.6086 26.1479 39.3108 26.8498 39.3108 27.7131C39.3108 28.5762 38.6086 29.2777 37.7455 29.2777H34.4074V34.2599C34.4074 36.2718 33.6029 37.2499 31.9475 37.2499ZM18.6335 28.2445H25.1944C25.3687 28.2445 25.5316 28.3327 25.627 28.4787L29.1783 33.9231C29.4152 34.2709 29.6694 34.6308 29.9211 34.9842C30.1291 35.2738 30.3537 35.5266 30.5885 35.736C30.7776 35.9054 30.9746 36.0273 31.1764 36.0993C31.393 36.1781 31.652 36.2174 31.9478 36.2174C32.5495 36.2174 33.3746 36.2174 33.3746 34.2603V28.7611C33.3746 28.476 33.6064 28.2445 33.8912 28.2445H37.7459C38.0396 28.2445 38.278 28.0059 38.278 27.7125C38.278 27.419 38.0396 27.1804 37.7459 27.1804H33.8908C33.6057 27.1804 33.3743 26.949 33.3743 26.6638V22.9596C33.3743 22.6744 33.6057 22.443 33.8908 22.443H37.7455C38.039 22.443 38.2776 22.2047 38.2776 21.9113C38.2776 21.6179 38.039 21.3792 37.7455 21.3792H33.8908C33.6057 21.3792 33.3743 21.1478 33.3743 20.8626V15.7223C33.3743 14.9475 33.2041 14.5893 33.0609 14.425C32.9359 14.2811 32.7482 14.1344 32.3015 14.1344C31.9671 14.1344 31.7601 14.2167 31.5866 14.4188C31.4457 14.5838 31.277 14.9433 31.277 15.722V20.8623C31.277 21.1474 31.0455 21.3789 30.7604 21.3789H23.5093C23.3358 21.3789 23.1736 21.2917 23.0782 21.1471L19.9956 16.4824C19.7266 16.0588 19.479 15.67 19.239 15.2967C19.042 14.9898 18.8522 14.7426 18.6752 14.5614C18.5447 14.4268 18.3949 14.3224 18.2158 14.2404C18.0646 14.1712 17.848 14.1344 17.5911 14.1344C17.2622 14.1344 16.975 14.2215 16.6864 14.4085C16.4054 14.5907 16.2208 14.8025 16.1057 15.0745C16.0465 15.2261 15.9384 15.6263 15.9384 16.4455V20.8623C15.9384 21.1474 15.7069 21.3789 15.4218 21.3789H11.606C11.3126 21.3792 11.0739 21.6179 11.0739 21.9113C11.0739 22.2047 11.3126 22.443 11.606 22.443H15.4218C15.7069 22.443 15.9384 22.6744 15.9384 22.9596V26.6641C15.9384 26.9493 15.7069 27.1807 15.4218 27.1807H11.606C11.3126 27.1804 11.0739 27.4194 11.0739 27.7125C11.0739 28.0055 11.3126 28.2445 11.606 28.2445H15.4218C15.7069 28.2445 15.9384 28.476 15.9384 28.7611V34.6291C15.9384 35.2211 16.052 35.6636 16.2666 35.9085C16.4549 36.1244 16.6822 36.2167 17.028 36.2167C17.3596 36.2167 17.5863 36.1227 17.7874 35.9009C18.0026 35.664 18.117 35.2238 18.117 34.6301V28.7611C18.117 28.476 18.3484 28.2445 18.6335 28.2445ZM30.7597 32.351C30.5896 32.351 30.426 32.2663 30.3285 32.1189L28.298 29.0456C28.1937 28.8868 28.1844 28.6833 28.2749 28.5163C28.3652 28.3489 28.5405 28.2445 28.7292 28.2445H30.7597C31.0448 28.2445 31.2763 28.476 31.2763 28.7611V31.8344C31.2763 32.0624 31.1261 32.2635 30.9085 32.3293C30.8592 32.3438 30.8089 32.351 30.7597 32.351ZM29.6897 29.2777L30.2431 30.1152V29.2777H29.6897ZM30.7597 27.1804H27.3434C27.1698 27.1804 27.0076 27.0933 26.9122 26.9486L24.4647 23.2441C24.3596 23.0853 24.3503 22.8818 24.4406 22.7144C24.5308 22.5474 24.7057 22.4427 24.8951 22.4427H30.7597C31.0448 22.4427 31.2763 22.6741 31.2763 22.9593V26.6638C31.2763 26.9493 31.0448 27.1804 30.7597 27.1804ZM27.6213 26.1472H30.2431V23.4758H25.8556L27.6213 26.1472ZM23.8262 27.1804H18.6335C18.3484 27.1804 18.117 26.949 18.117 26.6638V22.9596C18.117 22.6744 18.3484 22.443 18.6335 22.443H21.4103C21.5846 22.443 21.7475 22.5312 21.8429 22.6775L24.2591 26.3821C24.3627 26.5409 24.3706 26.7434 24.2808 26.91C24.1902 27.0771 24.0159 27.1804 23.8262 27.1804ZM19.1501 26.1472H22.8726L21.1303 23.4758H19.1501V26.1472ZM20.0421 21.3796H18.6335C18.3484 21.3796 18.117 21.1481 18.117 20.863V18.7033C18.117 18.4747 18.2671 18.2732 18.4861 18.2081C18.7048 18.1434 18.9414 18.2295 19.0661 18.4209L20.4746 20.5806C20.5783 20.7393 20.5869 20.9422 20.4967 21.1089C20.4061 21.2752 20.2318 21.3796 20.0421 21.3796Z" fill="#215CFF"/>
</svg>

