<svg width="149" height="149" viewBox="0 0 149 149" fill="none" xmlns="http://www.w3.org/2000/svg">
<rect x="0.76293" y="1.04516" width="146.529" height="146.529" rx="73.2644" stroke="white" stroke-width="1.52586"/>
<path d="M95.8431 110.532C94.5961 110.532 93.4638 110.35 92.4792 109.995C91.5008 109.645 90.5637 109.073 89.699 108.299C88.829 107.523 87.9994 106.594 87.2431 105.537C86.4724 104.458 85.7017 103.36 84.9568 102.272L74.744 86.6153H57.4511V102.67C57.4511 105.273 56.8477 107.255 55.6596 108.568C54.459 109.888 52.962 110.53 51.0848 110.53C49.1414 110.53 47.6319 109.881 46.4676 108.547C45.3053 107.222 44.7164 105.243 44.7164 102.67V86.6153H34.8187C32.2297 86.6153 30.123 84.5087 30.123 81.9196C30.123 79.3305 32.2297 77.2239 34.8187 77.2239H44.7164V69.2097H34.8187C32.2297 69.2107 30.123 67.1041 30.123 64.5161C30.123 61.928 32.2297 59.8204 34.8187 59.8204H44.7164V48.1189C44.7164 45.8573 44.9623 44.0803 45.4468 42.8394C46.0522 41.4033 47.0048 40.2937 48.3748 39.4073C49.7447 38.5188 51.1839 38.0869 52.774 38.0869C54.0024 38.0869 55.0686 38.2873 55.9365 38.6851C56.8281 39.0922 57.5833 39.6212 58.2466 40.302C58.9223 40.9932 59.6207 41.9003 60.3253 42.9944C61.0495 44.1205 61.7965 45.2932 62.5889 46.5454L71.3625 59.8204H90.7301V45.9492C90.7301 43.3106 91.2952 41.3166 92.4089 40.0199C93.5268 38.7192 94.998 38.0869 96.9052 38.0869C98.8765 38.0869 100.388 38.7202 101.522 40.023C102.652 41.3186 103.223 43.3137 103.223 45.9492V59.8204H113.237C115.826 59.8204 117.933 61.927 117.933 64.5161C117.933 67.1052 115.826 69.2107 113.237 69.2107H103.223V77.226H113.237C115.826 77.226 117.933 79.3315 117.933 81.9217C117.933 84.5107 115.826 86.6153 113.237 86.6153H103.223V101.562C103.223 107.598 100.81 110.532 95.8431 110.532ZM55.9013 83.5158H75.584C76.1068 83.5158 76.5954 83.7803 76.8816 84.2184L87.5355 100.552C88.2463 101.595 89.0088 102.675 89.7641 103.735C90.3881 104.604 91.0617 105.362 91.7663 105.99C92.3335 106.498 92.9245 106.864 93.5299 107.08C94.1798 107.317 94.9567 107.434 95.8442 107.434C97.6491 107.434 100.125 107.434 100.125 101.563V85.0656C100.125 84.2101 100.82 83.5158 101.674 83.5158H113.238C114.12 83.5158 114.835 82.7998 114.835 81.9196C114.835 81.0393 114.12 80.3234 113.238 80.3234H101.673C100.818 80.3234 100.124 79.6291 100.124 78.7736V67.661C100.124 66.8056 100.818 66.1113 101.673 66.1113H113.237C114.118 66.1113 114.834 65.3963 114.834 64.5161C114.834 63.6358 114.118 62.9199 113.237 62.9199H101.673C100.818 62.9199 100.124 62.2256 100.124 61.3701V45.9492C100.124 43.6246 99.6131 42.5501 99.1833 42.0573C98.8083 41.6255 98.2452 41.1853 96.9052 41.1853C95.902 41.1853 95.2811 41.4323 94.7604 42.0387C94.3378 42.5336 93.8316 43.6122 93.8316 45.9482V61.3691C93.8316 62.2245 93.1373 62.9188 92.2819 62.9188H70.5288C70.008 62.9188 69.5214 62.6574 69.2352 62.2235L59.9875 48.2294C59.1806 46.9586 58.4377 45.7922 57.7176 44.6723C57.1266 43.7517 56.5574 43.0099 56.0263 42.4665C55.6348 42.0625 55.1853 41.7495 54.6481 41.5036C54.1946 41.2959 53.5447 41.1853 52.774 41.1853C51.7873 41.1853 50.9256 41.4467 50.0599 42.0077C49.2168 42.5543 48.663 43.1897 48.318 44.0059C48.1403 44.4605 47.8158 45.661 47.8158 48.1189V61.3691C47.8158 62.2245 47.1216 62.9188 46.2661 62.9188H34.8187C33.9385 62.9199 33.2225 63.6358 33.2225 64.5161C33.2225 65.3963 33.9385 66.1113 34.8187 66.1113H46.2661C47.1216 66.1113 47.8158 66.8056 47.8158 67.661V78.7747C47.8158 79.6301 47.1216 80.3244 46.2661 80.3244H34.8187C33.9385 80.3234 33.2225 81.0404 33.2225 81.9196C33.2225 82.7988 33.9385 83.5158 34.8187 83.5158H46.2661C47.1216 83.5158 47.8158 84.2101 47.8158 85.0656V102.67C47.8158 104.446 48.1568 105.773 48.8004 106.508C49.3656 107.155 50.0475 107.432 51.0848 107.432C52.0797 107.432 52.7595 107.15 53.3629 106.485C54.0086 105.774 54.3516 104.454 54.3516 102.673V85.0656C54.3516 84.2101 55.0459 83.5158 55.9013 83.5158ZM92.2798 95.8352C91.7694 95.8352 91.2787 95.581 90.9863 95.1388L84.8948 85.9189C84.5817 85.4427 84.5538 84.8321 84.8256 84.331C85.0962 83.8289 85.6221 83.5158 86.1883 83.5158H92.2798C93.1352 83.5158 93.8295 84.2101 93.8295 85.0656V94.2854C93.8295 94.9694 93.3791 95.5728 92.7261 95.7701C92.5784 95.8135 92.4275 95.8352 92.2798 95.8352ZM89.0698 86.6153L90.7301 89.1279V86.6153H89.0698ZM92.2798 80.3234H82.0309C81.5102 80.3234 81.0236 80.062 80.7374 79.6281L73.3947 68.5144C73.0796 68.0381 73.0517 67.4275 73.3224 66.9254C73.5931 66.4243 74.1179 66.1102 74.6862 66.1102H92.2798C93.1352 66.1102 93.8295 66.8045 93.8295 67.66V78.7736C93.8295 79.6301 93.1352 80.3234 92.2798 80.3234ZM82.8646 77.2239H90.7301V69.2097H77.5676L82.8646 77.2239ZM71.4793 80.3234H55.9013C55.0459 80.3234 54.3516 79.6291 54.3516 78.7736V67.661C54.3516 66.8056 55.0459 66.1113 55.9013 66.1113H64.2317C64.7544 66.1113 65.2431 66.3758 65.5293 66.8149L72.7779 77.9285C73.0889 78.4048 73.1127 79.0123 72.843 79.5123C72.5713 80.0134 72.0485 80.3234 71.4793 80.3234ZM57.4511 77.2239H68.6184L63.3917 69.2097H57.4511V77.2239ZM60.1269 62.9209H55.9013C55.0459 62.9209 54.3516 62.2266 54.3516 61.3712V54.8922C54.3516 54.2062 54.802 53.6018 55.4591 53.4066C56.1152 53.2123 56.825 53.4706 57.199 54.045L61.4246 60.524C61.7356 61.0002 61.7614 61.6088 61.4907 62.1088C61.219 62.6078 60.6962 62.9209 60.1269 62.9209Z" fill="white"/>
</svg>
