<svg width="149" height="149" viewBox="0 0 149 149" fill="none" xmlns="http://www.w3.org/2000/svg">
<rect x="0.817618" y="1.04516" width="146.529" height="146.529" rx="73.2644" stroke="white" stroke-width="1.52586"/>
<g clip-path="url(#clip0_1474_35)">
<path fill-rule="evenodd" clip-rule="evenodd" d="M53.9075 60.8144L102.33 60.8144L92.69 70.454C91.7933 71.3507 91.7933 72.7406 92.69 73.6418C93.5867 74.543 94.9766 74.5385 95.8777 73.6418L109.328 60.1464C109.508 59.9222 109.687 59.6981 109.777 59.429C110.001 58.8833 110.001 58.2711 109.777 57.7253C109.687 57.4563 109.508 57.2321 109.328 57.0528L95.8777 43.6022C94.981 42.7055 93.5912 42.7055 92.69 43.6022C91.7888 44.4989 91.7933 45.8888 92.69 46.79L102.33 56.4296L53.9075 56.4296C52.6521 56.4296 51.6658 57.4159 51.6658 58.6713C51.6658 59.9267 52.6521 60.9131 53.9075 60.9131L53.9075 60.8234L53.9075 60.8144ZM38.2152 89.1055C37.991 89.6512 37.991 90.2634 38.2152 90.8092C38.3497 91.0782 38.4842 91.3472 38.7084 91.5266L52.1589 104.977C53.0556 105.874 54.4455 105.874 55.3467 104.977C56.2479 104.08 56.2434 102.691 55.3467 101.794L45.7072 92.1543L94.1292 92.1543C95.3846 92.1543 96.3709 91.1679 96.3709 89.9125C96.3709 88.6571 95.3846 87.6707 94.1292 87.6707L45.7072 87.6707L55.3467 78.0312C56.2434 77.1345 56.2434 75.7446 55.3467 74.8434C54.45 73.9422 53.0601 73.9467 52.1589 74.8434L38.7084 88.2939C38.529 88.5181 38.3497 88.7423 38.2152 89.0113L38.2152 89.1055Z" fill="white"/>
</g>
<defs>
<clipPath id="clip0_1474_35">
<rect width="71.7363" height="71.7363" fill="white" transform="translate(109.95 38.4414) rotate(90)"/>
</clipPath>
</defs>
</svg>
