<svg width="19" height="19" viewBox="0 0 19 19" fill="none" xmlns="http://www.w3.org/2000/svg">
<path d="M18.2268 3.36792L17.0062 4.32232C15.342 2.19494 12.7536 0.829346 9.84714 0.829346C4.82842 0.829346 0.766266 4.88717 0.759773 9.90805C0.753281 14.9333 4.82409 19.0084 9.84714 19.0084C13.7708 19.0084 17.1144 16.5196 18.387 13.0331C18.4194 12.9422 18.3718 12.8405 18.2809 12.8102L17.0538 12.3882C17.0111 12.3735 16.9642 12.3762 16.9234 12.3956C16.8825 12.415 16.8509 12.4496 16.8353 12.4921C16.7963 12.6003 16.753 12.7085 16.7076 12.8145C16.3332 13.7018 15.7964 14.4983 15.1126 15.1821C14.4342 15.8618 13.631 16.4041 12.7471 16.7793C11.8317 17.1667 10.8556 17.3636 9.85147 17.3636C8.84512 17.3636 7.87125 17.1667 6.9558 16.7793C6.07103 16.4057 5.26757 15.8632 4.59036 15.1821C3.91018 14.5038 3.36845 13.6997 2.99536 12.8145C2.60798 11.8969 2.41104 10.923 2.41104 9.91671C2.41104 8.91037 2.60798 7.93649 2.99536 7.01888C3.36977 6.13157 3.90648 5.33515 4.59036 4.65128C5.27424 3.9674 6.07065 3.43068 6.9558 3.05412C7.87125 2.66673 8.84729 2.46979 9.85147 2.46979C10.8578 2.46979 11.8317 2.66673 12.7471 3.05412C13.6319 3.42775 14.4354 3.97025 15.1126 4.65128C15.3268 4.86553 15.5281 5.09277 15.7142 5.33083L14.4114 6.34799C14.3856 6.36793 14.366 6.39474 14.3548 6.42534C14.3435 6.45594 14.3412 6.48908 14.348 6.52096C14.3548 6.55284 14.3704 6.58215 14.3931 6.60553C14.4158 6.62892 14.4446 6.64542 14.4763 6.65314L18.2766 7.58373C18.3848 7.6097 18.4908 7.52746 18.4908 7.41709L18.5082 3.5021C18.506 3.35926 18.3394 3.27919 18.2268 3.36792Z" fill="white"/>
</svg>
