<svg width="50" height="50" viewBox="0 0 50 50" fill="none" xmlns="http://www.w3.org/2000/svg">
<path d="M25.1081 27.1636C25.0352 27.1478 24.9605 27.1449 24.8867 27.156C24.147 27.0699 23.589 26.4441 23.5877 25.6996C23.5877 25.3429 23.2985 25.0536 22.9417 25.0536C22.585 25.0536 22.2957 25.3429 22.2957 25.6996C22.2976 26.9428 23.1291 28.0316 24.3277 28.3606V29.0066C24.3277 29.3634 24.617 29.6526 24.9737 29.6526C25.3305 29.6526 25.6197 29.3634 25.6197 29.0066V28.3997C27.0032 28.1102 27.9435 26.8216 27.7981 25.4157C27.6524 24.0099 26.4679 22.9415 25.0545 22.9412C24.2445 22.9412 23.5877 22.2845 23.5877 21.4744C23.5877 20.6644 24.2445 20.0077 25.0545 20.0077C25.8645 20.0077 26.5212 20.6644 26.5212 21.4744C26.5212 21.8312 26.8105 22.1204 27.1673 22.1204C27.524 22.1204 27.8133 21.8312 27.8133 21.4744C27.8114 20.1692 26.8969 19.0434 25.6197 18.774V18.186C25.6197 17.8293 25.3305 17.54 24.9737 17.54C24.617 17.54 24.3277 17.8293 24.3277 18.186V18.8134C22.9947 19.1774 22.1367 20.4717 22.3203 21.8413C22.5039 23.2109 23.6726 24.2332 25.0545 24.2329C25.8538 24.2329 26.5058 24.8729 26.5203 25.6719C26.5351 26.4709 25.9068 27.1345 25.1081 27.1636Z" fill="white"/>
<path d="M15.6865 23.6343C15.6865 28.808 19.8805 33.002 25.0542 33.002C30.2279 33.002 34.4219 28.808 34.4219 23.6343C34.4219 18.4606 30.2279 14.2666 25.0542 14.2666C19.883 14.2723 15.6925 18.4631 15.6865 23.6343ZM25.0542 15.5586C29.5144 15.5586 33.1299 19.1741 33.1299 23.6343C33.1299 28.0945 29.5144 31.71 25.0542 31.71C20.594 31.71 16.9785 28.0945 16.9785 23.6343C16.9836 19.1763 20.5962 15.5637 25.0542 15.5586Z" fill="white"/>
<path d="M37.6069 34.5968L32.5464 36.9878C31.8477 35.6882 30.5074 34.8611 29.0325 34.8195L24.3609 34.6911C23.6213 34.67 22.8954 34.4826 22.2378 34.1429L21.7624 33.8965C19.3285 32.6279 16.4275 32.631 13.9962 33.9047L14.0258 32.8279C14.0356 32.4711 13.7545 32.174 13.3978 32.1642L8.27516 32.0232C7.91841 32.0134 7.62159 32.2945 7.61181 32.6512L7.30237 43.8926C7.29259 44.2493 7.57364 44.5465 7.9304 44.5563L13.053 44.6973H13.0707C13.4208 44.6973 13.7072 44.4187 13.7167 44.0689L13.7315 43.5311L15.0623 42.8185C15.5847 42.5375 16.1953 42.4706 16.766 42.6321L24.713 44.8625C24.7268 44.8666 24.7407 44.8698 24.7549 44.873C25.3293 44.9931 25.9148 45.0534 26.5015 45.0531C27.7443 45.0537 28.9726 44.7859 30.1021 44.2673C30.1299 44.2547 30.1567 44.2399 30.1822 44.2232L41.7047 36.7701C41.9917 36.5843 42.0844 36.2074 41.9163 35.9096C41.0609 34.3918 39.1635 33.8136 37.6069 34.5968ZM8.61173 43.2825L8.88553 33.3326L12.7164 33.4379L12.4427 43.3882L8.61173 43.2825ZM29.5201 43.1135C28.1168 43.7469 26.5494 43.9216 25.041 43.6134L17.1155 41.3887C16.2234 41.1367 15.2686 41.2411 14.4526 41.6798L13.7725 42.0442L13.9545 35.4286C16.1096 33.9953 18.8734 33.848 21.1685 35.0438L21.6438 35.2901C22.4747 35.7191 23.391 35.9557 24.3256 35.9828L28.9975 36.1112C30.3097 36.149 31.4241 37.0834 31.6903 38.3691L24.7316 38.177C24.3748 38.1672 24.078 38.4485 24.0679 38.805C24.0581 39.1617 24.3395 39.4589 24.6959 39.4687L32.3754 39.68H32.3934C32.7432 39.6797 33.0293 39.4012 33.0388 39.0517C33.0467 38.7709 33.0259 38.4899 32.9763 38.2136L38.1668 35.7611C38.1718 35.7589 38.1769 35.7563 38.1819 35.7538C38.9181 35.3813 39.8083 35.5059 40.4139 36.0664L29.5201 43.1135Z" fill="white"/>
<path d="M25.7005 12.4505V6.31349C25.7005 5.95673 25.4112 5.66748 25.0545 5.66748C24.6977 5.66748 24.4084 5.95673 24.4084 6.31349V12.4505C24.4084 12.8073 24.6977 13.0965 25.0545 13.0965C25.4112 13.0965 25.7005 12.8073 25.7005 12.4505Z" fill="white"/>
<path d="M30.5457 12.4524V9.54542C30.5457 9.18867 30.2564 8.89941 29.8997 8.89941C29.5429 8.89941 29.2537 9.18867 29.2537 9.54542V12.4524C29.2537 12.8092 29.5429 13.0984 29.8997 13.0984C30.2564 13.0984 30.5457 12.8092 30.5457 12.4524Z" fill="white"/>
<path d="M20.8554 12.4524V9.54542C20.8554 9.18867 20.5661 8.89941 20.2094 8.89941C19.8526 8.89941 19.5634 9.18867 19.5634 9.54542V12.4524C19.5634 12.8092 19.8526 13.0984 20.2094 13.0984C20.5661 13.0984 20.8554 12.8092 20.8554 12.4524Z" fill="white"/>
</svg>
