<svg width="50" height="50" viewBox="0 0 50 50" fill="none" xmlns="http://www.w3.org/2000/svg">
<path d="M15.6865 23.6343C15.6865 28.808 19.8805 33.002 25.0542 33.002C30.2279 33.002 34.4219 28.808 34.4219 23.6343C34.4219 18.4606 30.2279 14.2666 25.0542 14.2666C19.883 14.2723 15.6925 18.4631 15.6865 23.6343ZM25.0542 15.5586C29.5144 15.5586 33.1299 19.1741 33.1299 23.6343C33.1299 28.0945 29.5144 31.71 25.0542 31.71C20.594 31.71 16.9785 28.0945 16.9785 23.6343C16.9836 19.1763 20.5962 15.5637 25.0542 15.5586Z" fill="white"/>
<path d="M29.6286 24.0793H28.2636V22.637H29.6286C29.8337 22.637 30 22.4544 30 22.2288C30 22.0033 29.8337 21.8205 29.6286 21.8205H28.2636V19.8193C28.2636 19.5271 28.211 19.3127 28.1075 19.1821C28.0092 19.0578 27.8798 19 27.7007 19C27.5298 19 27.4053 19.0574 27.3088 19.1809C27.2065 19.3117 27.1546 19.5265 27.1546 19.8194V21.8208H24.5868L23.495 20.0045C23.4016 19.8424 23.3138 19.6905 23.2284 19.5448C23.1516 19.4135 23.0767 19.3067 23.0059 19.2269C22.9433 19.1562 22.8719 19.1016 22.7884 19.0595C22.7096 19.02 22.6094 19.0001 22.4909 19.0001C22.3398 19.0001 22.2026 19.0457 22.0712 19.1392C21.9412 19.2317 21.8513 19.3461 21.7964 19.4889C21.7482 19.6246 21.7227 19.8325 21.7227 20.101V21.8206H20.3712C20.1662 21.8207 20 22.0034 20 22.2289C20 22.4545 20.1662 22.6371 20.3713 22.6371H21.7228V24.0796H20.3713C20.1662 24.0796 20 24.2622 20 24.4878C20 24.7133 20.1662 24.8959 20.3713 24.8959H21.7228V27.1808C21.7228 27.4643 21.7769 27.6766 21.8843 27.8114C21.9863 27.94 22.1157 27.9997 22.2915 27.9997C22.461 27.9997 22.5894 27.9398 22.6959 27.8109C22.8049 27.6789 22.8601 27.4668 22.8601 27.1808V24.8959H25.1836L26.441 27.0156C26.5284 27.1557 26.6187 27.2971 26.7087 27.4358C26.79 27.5603 26.8786 27.67 26.9721 27.7617C27.0563 27.8446 27.1466 27.9053 27.2404 27.9424C27.337 27.9806 27.4499 28 27.5752 28C27.9153 28 28.2635 27.8856 28.2635 27.0368V24.8959H29.6286C29.8337 24.8959 30 24.713 30 24.4876C30 24.2621 29.8337 24.0793 29.6286 24.0793ZM27.1546 22.637V24.0793H25.9447L25.0778 22.637H27.1546ZM22.8601 20.9797L23.359 21.8205H22.8601V20.9797ZM22.8601 24.0793V22.637H23.8435L24.6992 24.0793H22.8601ZM27.1546 26.0924L26.4355 24.8959H27.1546V26.0924Z" fill="white"/>
<path d="M37.6069 34.5968L32.5464 36.9878C31.8477 35.6882 30.5074 34.8611 29.0325 34.8195L24.3609 34.6911C23.6213 34.67 22.8954 34.4826 22.2378 34.1429L21.7624 33.8965C19.3285 32.6279 16.4275 32.631 13.9962 33.9047L14.0258 32.8279C14.0356 32.4711 13.7545 32.174 13.3978 32.1642L8.27516 32.0232C7.91841 32.0134 7.62159 32.2945 7.61181 32.6512L7.30237 43.8926C7.29259 44.2493 7.57364 44.5465 7.9304 44.5563L13.053 44.6973H13.0707C13.4208 44.6973 13.7072 44.4187 13.7167 44.0689L13.7315 43.5311L15.0623 42.8185C15.5847 42.5375 16.1953 42.4706 16.766 42.6321L24.713 44.8625C24.7268 44.8666 24.7407 44.8698 24.7549 44.873C25.3293 44.9931 25.9148 45.0534 26.5015 45.0531C27.7443 45.0537 28.9726 44.7859 30.1021 44.2673C30.1299 44.2547 30.1567 44.2399 30.1822 44.2232L41.7047 36.7701C41.9917 36.5843 42.0844 36.2074 41.9163 35.9096C41.0609 34.3918 39.1635 33.8136 37.6069 34.5968ZM8.61173 43.2825L8.88553 33.3326L12.7164 33.4379L12.4427 43.3882L8.61173 43.2825ZM29.5201 43.1135C28.1168 43.7469 26.5494 43.9216 25.041 43.6134L17.1155 41.3887C16.2234 41.1367 15.2686 41.2411 14.4526 41.6798L13.7725 42.0442L13.9545 35.4286C16.1096 33.9953 18.8734 33.848 21.1685 35.0438L21.6438 35.2901C22.4747 35.7191 23.391 35.9557 24.3256 35.9828L28.9975 36.1112C30.3097 36.149 31.4241 37.0834 31.6903 38.3691L24.7316 38.177C24.3748 38.1672 24.078 38.4485 24.0679 38.805C24.0581 39.1617 24.3395 39.4589 24.6959 39.4687L32.3754 39.68H32.3934C32.7432 39.6797 33.0293 39.4012 33.0388 39.0517C33.0467 38.7709 33.0259 38.4899 32.9763 38.2136L38.1668 35.7611C38.1718 35.7589 38.1769 35.7563 38.1819 35.7538C38.9181 35.3813 39.8083 35.5059 40.4139 36.0664L29.5201 43.1135Z" fill="white"/>
<path d="M25.7005 12.4505V6.31349C25.7005 5.95673 25.4112 5.66748 25.0545 5.66748C24.6977 5.66748 24.4084 5.95673 24.4084 6.31349V12.4505C24.4084 12.8073 24.6977 13.0965 25.0545 13.0965C25.4112 13.0965 25.7005 12.8073 25.7005 12.4505Z" fill="white"/>
<path d="M30.5457 12.4524V9.54542C30.5457 9.18867 30.2564 8.89941 29.8997 8.89941C29.5429 8.89941 29.2537 9.18867 29.2537 9.54542V12.4524C29.2537 12.8092 29.5429 13.0984 29.8997 13.0984C30.2564 13.0984 30.5457 12.8092 30.5457 12.4524Z" fill="white"/>
<path d="M20.8554 12.4524V9.54542C20.8554 9.18867 20.5661 8.89941 20.2094 8.89941C19.8526 8.89941 19.5634 9.18867 19.5634 9.54542V12.4524C19.5634 12.8092 19.8526 13.0984 20.2094 13.0984C20.5661 13.0984 20.8554 12.8092 20.8554 12.4524Z" fill="white"/>
</svg>
