<svg width="149" height="149" viewBox="0 0 149 149" fill="none" xmlns="http://www.w3.org/2000/svg">
<rect x="0.872305" y="1.04516" width="146.529" height="146.529" rx="73.2644" stroke="white" stroke-width="1.52586"/>
<path d="M47.3904 42.207H73.032C74.647 42.207 76.2035 42.807 77.3787 43.8691L77.6082 44.0879L109.186 75.666C111.676 78.1555 111.75 82.0703 109.452 84.6123L109.222 84.8535L83.5808 110.495C81.0491 113.027 76.9251 113.027 74.3933 110.495L42.8142 78.917H42.8152L42.8083 78.9111L42.5847 78.6816C41.4976 77.5084 40.8982 75.9551 40.8982 74.3408V48.6992C40.8983 45.1299 43.8211 42.2071 47.3904 42.207ZM46.7302 74.6143L46.9236 74.8076L78.5027 106.386L78.9685 106.853L105.544 80.2773L105.077 79.8115L73.4988 48.2324L73.3054 48.0391H46.7302V74.6143Z" fill="white" stroke="#215CFF" stroke-width="1.31987"/>
<path d="M56.3312 63.0051C59.2938 63.0051 61.6956 60.6034 61.6956 57.6407C61.6956 54.6781 59.2938 52.2764 56.3312 52.2764C53.3685 52.2764 50.9668 54.6781 50.9668 57.6407C50.9668 60.6034 53.3685 63.0051 56.3312 63.0051Z" fill="white"/>
</svg>
