<svg width="13" height="14" viewBox="0 0 13 14" fill="none" xmlns="http://www.w3.org/2000/svg">
<path d="M1 6.44092C1.20884 6.44097 1.41019 6.51378 1.57031 6.64502L1.63574 6.70459L5.92871 10.9976L6 11.0679L10.3623 6.70557C10.532 6.54177 10.7593 6.45162 10.9951 6.45361C11.231 6.45566 11.4572 6.54955 11.624 6.71631C11.7909 6.88314 11.8856 7.10929 11.8877 7.34521C11.8897 7.58066 11.799 7.80743 11.6357 7.97705L6.63574 12.9771C6.46703 13.1457 6.23852 13.2407 6 13.2407C5.79116 13.2407 5.58983 13.1678 5.42969 13.0366L5.36328 12.9771L0.363281 7.97705C0.194771 7.80839 0.099717 7.57972 0.0996094 7.34131C0.0996094 7.1326 0.172664 6.93109 0.303711 6.771L0.363281 6.70459C0.532056 6.53587 0.761352 6.44092 1 6.44092ZM11.0039 0.428223C11.1233 0.427185 11.242 0.450433 11.3525 0.495605C11.4631 0.540827 11.564 0.607475 11.6484 0.691895C11.7118 0.755303 11.7658 0.827808 11.8076 0.906738L11.8447 0.987793C11.8787 1.07088 11.9001 1.15848 11.9082 1.24756L11.9121 1.33643C11.9111 1.45593 11.886 1.57428 11.8389 1.68408C11.8035 1.76636 11.756 1.8426 11.6982 1.91064L11.6377 1.97607L11.6357 1.97705L6.63574 6.97705C6.46703 7.14566 6.23852 7.24067 6 7.24072C5.79116 7.24072 5.58983 7.16782 5.42969 7.03662L5.36328 6.97705L0.363281 1.97705C0.194771 1.80839 0.099717 1.57972 0.0996094 1.34131C0.0996094 1.1326 0.172664 0.931094 0.303711 0.770996L0.363281 0.70459C0.532056 0.535866 0.761352 0.440918 1 0.440918C1.20884 0.440967 1.41019 0.513776 1.57031 0.64502L1.63574 0.70459L5.92871 4.99756L6 5.06787L10.3643 0.703613C10.4265 0.639169 10.4981 0.583732 10.5762 0.540527L10.6572 0.501465C10.7395 0.466183 10.8264 0.443698 10.915 0.434082L11.0039 0.428223Z" fill="white" stroke="white" stroke-width="0.2"/>
</svg>
