<svg width="24" height="25" viewBox="0 0 24 25" fill="none" xmlns="http://www.w3.org/2000/svg">
<path d="M7.00049 12.71C7.20932 12.71 7.41068 12.7828 7.5708 12.9141L7.63623 12.9736L11.9292 17.2666L12.0005 17.3369L16.3628 12.9746C16.5325 12.8108 16.7598 12.7207 16.9956 12.7227C17.2315 12.7247 17.4577 12.8186 17.6245 12.9854C17.7913 13.1522 17.8861 13.3783 17.8882 13.6143C17.8902 13.8497 17.7995 14.0765 17.6362 14.2461L12.6362 19.2461C12.4675 19.4147 12.239 19.5097 12.0005 19.5098C11.7917 19.5098 11.5903 19.4369 11.4302 19.3057L11.3638 19.2461L6.36377 14.2461C6.19526 14.0774 6.10021 13.8488 6.1001 13.6104C6.1001 13.4016 6.17315 13.2001 6.3042 13.04L6.36377 12.9736C6.53254 12.8049 6.76184 12.71 7.00049 12.71ZM17.0044 6.69727C17.1238 6.69623 17.2425 6.71948 17.353 6.76465C17.4636 6.80987 17.5645 6.87652 17.6489 6.96094C17.7123 7.02435 17.7662 7.09685 17.8081 7.17578L17.8452 7.25684C17.8792 7.33993 17.9006 7.42752 17.9087 7.5166L17.9126 7.60547C17.9116 7.72497 17.8865 7.84332 17.8394 7.95312C17.804 8.0354 17.7564 8.11164 17.6987 8.17969L17.6382 8.24512L17.6362 8.24609L12.6362 13.2461C12.4675 13.4147 12.239 13.5097 12.0005 13.5098C11.7917 13.5098 11.5903 13.4369 11.4302 13.3057L11.3638 13.2461L6.36377 8.24609C6.19526 8.07743 6.10021 7.84876 6.1001 7.61035C6.1001 7.40164 6.17315 7.20014 6.3042 7.04004L6.36377 6.97363C6.53254 6.80491 6.76184 6.70996 7.00049 6.70996C7.20932 6.71001 7.41068 6.78282 7.5708 6.91406L7.63623 6.97363L11.9292 11.2666L12.0005 11.3369L16.3647 6.97266C16.427 6.90821 16.4985 6.85277 16.5767 6.80957L16.6577 6.77051C16.74 6.73523 16.8269 6.71274 16.9155 6.70312L17.0044 6.69727Z" fill="#111111" stroke="white" stroke-width="0.2"/>
</svg>
