<svg width="23" height="20" viewBox="0 0 23 20" fill="none" xmlns="http://www.w3.org/2000/svg">
<path d="M0.892578 7.51562L8.11995 6.21414C8.41448 6.00268 10.3352 1.45882 10.8891 0.623055C11.4429 -0.212712 11.6997 -0.202643 12.2484 0.623055C12.7972 1.44875 14.723 6.00268 15.0175 6.21414C16.0371 6.62698 22.0586 6.86362 22.2449 7.644L17.258 12.9179C17.3713 14.8814 18.0409 16.9004 18.2222 18.8388C18.2675 19.3171 18.4739 19.9867 17.8471 19.959C16.4952 19.9011 13.1925 17.2503 11.5713 16.9834C10.4913 17.1269 5.40119 20.4247 4.91534 19.9514L5.88201 12.9179L0.892578 8.01154V7.5131V7.51562Z" fill="#FFDD1C"/>
</svg>
