<svg width="105" height="87" viewBox="0 0 105 87" fill="none" xmlns="http://www.w3.org/2000/svg">
<path d="M104.132 42.5726C93.2574 25.2241 74.4082 14.4848 53.9397 13.9757V0H50.4597V13.9757C29.9912 14.4848 11.142 25.2241 0.267688 42.5726C-0.0892294 43.1394 -0.0892294 43.8606 0.267688 44.4274C11.142 61.7759 29.9912 72.5152 50.4597 73.0243V87H53.9397V73.0243C74.4082 72.5152 93.2574 61.7759 104.132 44.4274C104.489 43.8606 104.489 43.1394 104.132 42.5726ZM3.80859 43.5C10.9124 32.6378 21.4768 24.4935 33.7888 20.3876C27.2262 25.6137 23.1972 33.3849 22.7085 41.76H8.69973V45.24H22.7085C23.1972 53.6151 27.2262 61.3863 33.7888 66.6124C21.4768 62.5065 10.9124 54.3622 3.80859 43.5ZM50.4597 59.16V69.5113C37.4391 68.6269 27.0728 58.2606 26.1885 45.24H36.5397V41.76H26.1885C27.0728 28.7394 37.4391 18.3731 50.4597 17.4887V27.84H53.9397V17.4887C66.9604 18.3731 77.3266 28.7391 78.211 41.76H67.8597V45.24H78.211C77.3266 58.2606 66.9604 68.6269 53.9397 69.5113V59.16H50.4597ZM100.591 43.5C93.4871 54.3622 82.9227 62.5065 70.6107 66.6124C77.1733 61.3863 81.2023 53.6151 81.691 45.24H95.6997V41.76H81.691C81.2023 33.3849 77.1733 25.6135 70.6107 20.3876C82.9229 24.4938 93.4871 32.6378 100.591 43.5Z" fill="#111111"/>
<path d="M52.1998 31.3203C45.4729 31.3203 40.0198 36.7735 40.0198 43.5003C40.0274 50.2239 45.4762 55.6727 52.1998 55.6803C58.9266 55.6803 64.3798 50.2272 64.3798 43.5003C64.3798 36.7735 58.9266 31.3203 52.1998 31.3203ZM52.1998 52.2003C47.395 52.2003 43.4998 48.3051 43.4998 43.5003C43.5054 38.6979 47.3974 34.806 52.1998 34.8003C57.0046 34.8003 60.8998 38.6955 60.8998 43.5003C60.8998 48.3051 57.0048 52.2003 52.1998 52.2003Z" fill="#111111"/>
<path d="M10.4398 0C9.47891 0 8.69983 0.779085 8.69983 1.74V15.66H12.1798V3.48H24.3598V0H10.4398Z" fill="#111111"/>
<path d="M93.9597 0H80.0397V3.48H92.2197V15.66H95.6997V1.74C95.6997 0.779085 94.9206 0 93.9597 0Z" fill="#111111"/>
<path d="M92.2197 71.3398V83.5198H80.0397V86.9998H93.9597C94.9206 86.9998 95.6997 86.2208 95.6997 85.2598V71.3398H92.2197Z" fill="#111111"/>
<path d="M12.1798 83.5198V71.3398H8.69983V85.2598C8.69983 86.2208 9.47891 86.9998 10.4398 86.9998H24.3598V83.5198H12.1798Z" fill="#111111"/>
</svg>
