<svg width="101" height="101" viewBox="0 0 101 101" fill="none" xmlns="http://www.w3.org/2000/svg">
<mask id="path-1-inside-1_290_14480" fill="white">
<path d="M99.6999 48.0345C94.6204 39.7218 87.4759 32.765 79.0276 27.9254C70.3185 22.9295 60.3787 20.2907 50.2825 20.2907C40.1862 20.2907 30.2464 22.9295 21.5374 27.9254C13.0891 32.765 5.94449 39.7218 0.865078 48.0345C0.00981762 49.4425 0.00981762 51.1218 0.865078 52.5194C5.94449 60.8321 13.0891 67.7889 21.5374 72.6285C30.2464 77.6244 40.1862 80.2632 50.2825 80.2632C60.3787 80.2632 70.3185 77.6244 79.0276 72.6285C87.4759 67.7889 94.6204 60.8321 99.6999 52.5194C100.566 51.1113 100.566 49.4425 99.6999 48.0345ZM50.2825 76.8526C35.6283 76.8526 23.7068 64.9311 23.7068 50.2769C23.7068 35.6228 35.6283 23.7013 50.2825 23.7013C64.9366 23.7013 76.8581 35.6228 76.8581 50.2769C76.8581 64.9311 64.9366 76.8526 50.2825 76.8526ZM2.95108 51.2469C2.5756 50.6316 2.5756 49.9223 2.95108 49.3069C10.8362 36.3842 23.2687 27.5395 37.5474 24.2123C27.9205 28.9371 21.2662 38.8456 21.2662 50.2769C21.2662 61.7082 27.9101 71.6167 37.5474 76.3415C23.2687 73.0144 10.8362 64.1697 2.95108 51.2469ZM97.6139 51.2469C89.7288 64.1697 77.2962 73.0144 63.0175 76.3415C72.6444 71.6167 79.2988 61.7082 79.2988 50.2769C79.2988 38.8456 72.6444 28.9371 63.0175 24.2123C77.2962 27.5395 89.7288 36.3842 97.6139 49.3069C97.9998 49.9223 97.9998 50.6316 97.6139 51.2469ZM50.2825 29.3126C38.726 29.3126 29.3181 38.7205 29.3181 50.2769C29.3181 61.8334 38.726 71.2413 50.2825 71.2413C61.8389 71.2413 71.2468 61.8438 71.2468 50.2769C71.2468 38.7205 61.8389 29.3126 50.2825 29.3126ZM50.2825 68.7902C40.0715 68.7902 31.7692 60.4879 31.7692 50.2769C31.7692 40.066 40.0715 31.7637 50.2825 31.7637C60.4934 31.7637 68.7957 40.066 68.7957 50.2769C68.7957 60.4879 60.4934 68.7902 50.2825 68.7902ZM56.311 55.0852C56.311 57.9952 54.2459 60.4253 51.5028 60.9886V62.3549C51.5028 63.0328 50.9604 63.5752 50.2825 63.5752C49.6045 63.5752 49.0622 63.0328 49.0622 62.3549V60.9886C47.5081 60.6652 46.1313 59.7474 45.2343 58.3811C44.8693 57.8178 45.0257 57.0564 45.589 56.6914C46.1522 56.3263 46.9136 56.4828 47.2786 57.046C47.9461 58.0682 49.0726 58.6731 50.2825 58.6731C52.2642 58.6731 53.8704 57.0669 53.8704 55.0852C53.8704 53.1035 52.2642 51.4972 50.2825 51.4972C46.9553 51.4972 44.2539 48.7959 44.2539 45.4687C44.2539 42.5587 46.3191 40.1285 49.0622 39.5653V38.199C49.0622 37.521 49.6045 36.9787 50.2825 36.9787C50.9604 36.9787 51.5028 37.521 51.5028 38.199V39.5653C53.0568 39.8886 54.4336 40.8065 55.3306 42.1728C55.6956 42.736 55.5392 43.4974 54.976 43.8625C54.4128 44.2275 53.6514 44.0711 53.2863 43.5079C52.6188 42.4857 51.4923 41.8808 50.2825 41.8808C48.3008 41.8808 46.6945 43.487 46.6945 45.4687C46.6945 47.4504 48.3008 49.0566 50.2825 49.0566C53.6096 49.0566 56.311 51.758 56.311 55.0852ZM49.0622 13.3547V1.4332C49.0622 0.765681 49.6045 0.212891 50.2825 0.212891C50.9604 0.212891 51.5028 0.755251 51.5028 1.4332V13.3547C51.5028 14.0327 50.9604 14.575 50.2825 14.575C49.6045 14.575 49.0622 14.0327 49.0622 13.3547ZM24.3743 8.1397C24.0719 7.53476 24.3222 6.80466 24.9167 6.50219C25.5216 6.19972 26.2517 6.45004 26.5542 7.04455L31.4876 16.9218C31.7901 17.5267 31.5397 18.2568 30.9452 18.5593C30.7679 18.6427 30.5802 18.6844 30.4029 18.6844C29.9544 18.6844 29.5267 18.4341 29.3077 18.0065L24.3743 8.1397ZM2.72162 20.2489C2.24184 19.7692 2.24184 18.9973 2.72162 18.5176C3.2014 18.0378 3.97322 18.0378 4.453 18.5176L12.0669 26.1315C12.5467 26.6112 12.5467 27.3831 12.0669 27.8628C11.827 28.1027 11.5141 28.2175 11.2012 28.2175C10.8883 28.2175 10.5754 28.1027 10.3355 27.8628L2.72162 20.2489ZM88.498 27.8733C88.0182 27.3935 88.0182 26.6217 88.498 26.1419L96.1119 18.528C96.5917 18.0482 97.3635 18.0482 97.8433 18.528C98.3231 19.0078 98.3231 19.7796 97.8433 20.2594L90.2294 27.8733C89.9895 28.1132 89.6766 28.2279 89.3637 28.2279C89.0508 28.2279 88.7379 28.1027 88.498 27.8733ZM69.0669 16.9218L74.0003 7.04455C74.3028 6.43961 75.0329 6.19972 75.6378 6.50219C76.2428 6.80466 76.4827 7.53476 76.1802 8.1397L71.2468 18.0169C71.0278 18.4445 70.6001 18.6949 70.1516 18.6949C69.9639 18.6949 69.7866 18.6532 69.6093 18.5697C69.0148 18.2568 68.7645 17.5267 69.0669 16.9218ZM97.8433 80.3049C98.3231 80.7847 98.3231 81.5565 97.8433 82.0363C97.6034 82.2762 97.2905 82.3909 96.9776 82.3909C96.6647 82.3909 96.3518 82.2762 96.1119 82.0363L88.498 74.4224C88.0182 73.9426 88.0182 73.1708 88.498 72.691C88.9778 72.2113 89.7496 72.2113 90.2294 72.691L97.8433 80.3049ZM12.0669 72.6806C12.5467 73.1604 12.5467 73.9322 12.0669 74.412L4.453 82.0259C4.21311 82.2658 3.90021 82.3805 3.58731 82.3805C3.27441 82.3805 2.96151 82.2658 2.72162 82.0259C2.24184 81.5461 2.24184 80.7743 2.72162 80.2945L10.3355 72.6806C10.8153 72.2113 11.5871 72.2113 12.0669 72.6806ZM76.1906 92.4142C76.4931 93.0191 76.2428 93.7492 75.6483 94.0517C75.4709 94.1351 75.2832 94.1768 75.1059 94.1768C74.6574 94.1768 74.2298 93.9265 74.0107 93.4989L69.0773 83.6217C68.7749 83.0167 69.0252 82.2866 69.6197 81.9842C70.2247 81.6817 70.9548 81.932 71.2572 82.5265L76.1906 92.4142ZM31.498 83.6321L26.5646 93.5093C26.3456 93.937 25.918 94.1873 25.4695 94.1873C25.2817 94.1873 25.1044 94.1456 24.9271 94.0621C24.3222 93.7597 24.0823 93.0296 24.3848 92.4246L29.3181 82.5474C29.6206 81.9425 30.3507 81.7026 30.9557 82.005C31.5502 82.2971 31.8005 83.0376 31.498 83.6321ZM51.5028 87.1992V99.1207C51.5028 99.7986 50.9604 100.341 50.2825 100.341C49.6045 100.341 49.0622 99.7986 49.0622 99.1207V87.1992C49.0622 86.5212 49.6045 85.9789 50.2825 85.9789C50.9604 85.9789 51.5028 86.5212 51.5028 87.1992Z"/>
</mask>
<path d="M99.6999 48.0345C94.6204 39.7218 87.4759 32.765 79.0276 27.9254C70.3185 22.9295 60.3787 20.2907 50.2825 20.2907C40.1862 20.2907 30.2464 22.9295 21.5374 27.9254C13.0891 32.765 5.94449 39.7218 0.865078 48.0345C0.00981762 49.4425 0.00981762 51.1218 0.865078 52.5194C5.94449 60.8321 13.0891 67.7889 21.5374 72.6285C30.2464 77.6244 40.1862 80.2632 50.2825 80.2632C60.3787 80.2632 70.3185 77.6244 79.0276 72.6285C87.4759 67.7889 94.6204 60.8321 99.6999 52.5194C100.566 51.1113 100.566 49.4425 99.6999 48.0345ZM50.2825 76.8526C35.6283 76.8526 23.7068 64.9311 23.7068 50.2769C23.7068 35.6228 35.6283 23.7013 50.2825 23.7013C64.9366 23.7013 76.8581 35.6228 76.8581 50.2769C76.8581 64.9311 64.9366 76.8526 50.2825 76.8526ZM2.95108 51.2469C2.5756 50.6316 2.5756 49.9223 2.95108 49.3069C10.8362 36.3842 23.2687 27.5395 37.5474 24.2123C27.9205 28.9371 21.2662 38.8456 21.2662 50.2769C21.2662 61.7082 27.9101 71.6167 37.5474 76.3415C23.2687 73.0144 10.8362 64.1697 2.95108 51.2469ZM97.6139 51.2469C89.7288 64.1697 77.2962 73.0144 63.0175 76.3415C72.6444 71.6167 79.2988 61.7082 79.2988 50.2769C79.2988 38.8456 72.6444 28.9371 63.0175 24.2123C77.2962 27.5395 89.7288 36.3842 97.6139 49.3069C97.9998 49.9223 97.9998 50.6316 97.6139 51.2469ZM50.2825 29.3126C38.726 29.3126 29.3181 38.7205 29.3181 50.2769C29.3181 61.8334 38.726 71.2413 50.2825 71.2413C61.8389 71.2413 71.2468 61.8438 71.2468 50.2769C71.2468 38.7205 61.8389 29.3126 50.2825 29.3126ZM50.2825 68.7902C40.0715 68.7902 31.7692 60.4879 31.7692 50.2769C31.7692 40.066 40.0715 31.7637 50.2825 31.7637C60.4934 31.7637 68.7957 40.066 68.7957 50.2769C68.7957 60.4879 60.4934 68.7902 50.2825 68.7902ZM56.311 55.0852C56.311 57.9952 54.2459 60.4253 51.5028 60.9886V62.3549C51.5028 63.0328 50.9604 63.5752 50.2825 63.5752C49.6045 63.5752 49.0622 63.0328 49.0622 62.3549V60.9886C47.5081 60.6652 46.1313 59.7474 45.2343 58.3811C44.8693 57.8178 45.0257 57.0564 45.589 56.6914C46.1522 56.3263 46.9136 56.4828 47.2786 57.046C47.9461 58.0682 49.0726 58.6731 50.2825 58.6731C52.2642 58.6731 53.8704 57.0669 53.8704 55.0852C53.8704 53.1035 52.2642 51.4972 50.2825 51.4972C46.9553 51.4972 44.2539 48.7959 44.2539 45.4687C44.2539 42.5587 46.3191 40.1285 49.0622 39.5653V38.199C49.0622 37.521 49.6045 36.9787 50.2825 36.9787C50.9604 36.9787 51.5028 37.521 51.5028 38.199V39.5653C53.0568 39.8886 54.4336 40.8065 55.3306 42.1728C55.6956 42.736 55.5392 43.4974 54.976 43.8625C54.4128 44.2275 53.6514 44.0711 53.2863 43.5079C52.6188 42.4857 51.4923 41.8808 50.2825 41.8808C48.3008 41.8808 46.6945 43.487 46.6945 45.4687C46.6945 47.4504 48.3008 49.0566 50.2825 49.0566C53.6096 49.0566 56.311 51.758 56.311 55.0852ZM49.0622 13.3547V1.4332C49.0622 0.765681 49.6045 0.212891 50.2825 0.212891C50.9604 0.212891 51.5028 0.755251 51.5028 1.4332V13.3547C51.5028 14.0327 50.9604 14.575 50.2825 14.575C49.6045 14.575 49.0622 14.0327 49.0622 13.3547ZM24.3743 8.1397C24.0719 7.53476 24.3222 6.80466 24.9167 6.50219C25.5216 6.19972 26.2517 6.45004 26.5542 7.04455L31.4876 16.9218C31.7901 17.5267 31.5397 18.2568 30.9452 18.5593C30.7679 18.6427 30.5802 18.6844 30.4029 18.6844C29.9544 18.6844 29.5267 18.4341 29.3077 18.0065L24.3743 8.1397ZM2.72162 20.2489C2.24184 19.7692 2.24184 18.9973 2.72162 18.5176C3.2014 18.0378 3.97322 18.0378 4.453 18.5176L12.0669 26.1315C12.5467 26.6112 12.5467 27.3831 12.0669 27.8628C11.827 28.1027 11.5141 28.2175 11.2012 28.2175C10.8883 28.2175 10.5754 28.1027 10.3355 27.8628L2.72162 20.2489ZM88.498 27.8733C88.0182 27.3935 88.0182 26.6217 88.498 26.1419L96.1119 18.528C96.5917 18.0482 97.3635 18.0482 97.8433 18.528C98.3231 19.0078 98.3231 19.7796 97.8433 20.2594L90.2294 27.8733C89.9895 28.1132 89.6766 28.2279 89.3637 28.2279C89.0508 28.2279 88.7379 28.1027 88.498 27.8733ZM69.0669 16.9218L74.0003 7.04455C74.3028 6.43961 75.0329 6.19972 75.6378 6.50219C76.2428 6.80466 76.4827 7.53476 76.1802 8.1397L71.2468 18.0169C71.0278 18.4445 70.6001 18.6949 70.1516 18.6949C69.9639 18.6949 69.7866 18.6532 69.6093 18.5697C69.0148 18.2568 68.7645 17.5267 69.0669 16.9218ZM97.8433 80.3049C98.3231 80.7847 98.3231 81.5565 97.8433 82.0363C97.6034 82.2762 97.2905 82.3909 96.9776 82.3909C96.6647 82.3909 96.3518 82.2762 96.1119 82.0363L88.498 74.4224C88.0182 73.9426 88.0182 73.1708 88.498 72.691C88.9778 72.2113 89.7496 72.2113 90.2294 72.691L97.8433 80.3049ZM12.0669 72.6806C12.5467 73.1604 12.5467 73.9322 12.0669 74.412L4.453 82.0259C4.21311 82.2658 3.90021 82.3805 3.58731 82.3805C3.27441 82.3805 2.96151 82.2658 2.72162 82.0259C2.24184 81.5461 2.24184 80.7743 2.72162 80.2945L10.3355 72.6806C10.8153 72.2113 11.5871 72.2113 12.0669 72.6806ZM76.1906 92.4142C76.4931 93.0191 76.2428 93.7492 75.6483 94.0517C75.4709 94.1351 75.2832 94.1768 75.1059 94.1768C74.6574 94.1768 74.2298 93.9265 74.0107 93.4989L69.0773 83.6217C68.7749 83.0167 69.0252 82.2866 69.6197 81.9842C70.2247 81.6817 70.9548 81.932 71.2572 82.5265L76.1906 92.4142ZM31.498 83.6321L26.5646 93.5093C26.3456 93.937 25.918 94.1873 25.4695 94.1873C25.2817 94.1873 25.1044 94.1456 24.9271 94.0621C24.3222 93.7597 24.0823 93.0296 24.3848 92.4246L29.3181 82.5474C29.6206 81.9425 30.3507 81.7026 30.9557 82.005C31.5502 82.2971 31.8005 83.0376 31.498 83.6321ZM51.5028 87.1992V99.1207C51.5028 99.7986 50.9604 100.341 50.2825 100.341C49.6045 100.341 49.0622 99.7986 49.0622 99.1207V87.1992C49.0622 86.5212 49.6045 85.9789 50.2825 85.9789C50.9604 85.9789 51.5028 86.5212 51.5028 87.1992Z" fill="black" stroke="white" stroke-width="0.296668" mask="url(#path-1-inside-1_290_14480)"/>
</svg>
