<svg width="48" height="48" viewBox="0 0 48 48" fill="none" xmlns="http://www.w3.org/2000/svg">
<g clip-path="url(#clip0_2939_2720)">
<path d="M15.0587 32.3472C15.447 31.8812 15.8353 31.4264 16.2347 30.9604C17.9543 28.9634 19.6739 26.9554 21.3935 24.9584C21.4268 24.914 21.4601 24.8697 21.5045 24.8253C19.3522 21.6967 17.211 18.5681 15.0476 15.4173C15.1142 15.4173 15.1475 15.4062 15.1918 15.4062C16.7339 15.4062 18.2871 15.4062 19.8292 15.4062C19.9402 15.4062 19.9956 15.4506 20.0511 15.5283C21.4157 17.5142 22.7692 19.4889 24.1338 21.4748C24.1671 21.5192 24.2004 21.5747 24.2448 21.6301C24.5221 21.3084 24.7995 20.9867 25.0657 20.676C26.5302 18.9786 27.9946 17.2812 29.448 15.5727C29.5478 15.4506 29.6587 15.4062 29.8141 15.4062C30.2135 15.4173 30.6128 15.4062 31.0566 15.4062C28.9931 17.8137 26.9406 20.1879 24.8993 22.5731C24.9326 22.6286 24.9659 22.673 24.9992 22.7174C27.1625 25.8681 29.3259 29.03 31.5004 32.1808C31.5337 32.2251 31.5559 32.2806 31.5891 32.3361C29.9472 32.3361 28.3052 32.3361 26.6633 32.3361C26.6411 32.3028 26.63 32.2695 26.6078 32.2362C25.1434 30.1283 23.69 28.0093 22.2367 25.8903C22.2145 25.857 22.1812 25.8238 22.1479 25.7794C22.0925 25.8349 22.0481 25.8903 22.0148 25.9347C20.8388 27.2993 19.6628 28.6639 18.4979 30.0285C17.8434 30.794 17.1777 31.5706 16.5231 32.3361C16.0239 32.3472 15.5358 32.3472 15.0587 32.3472ZM17.0335 16.5046C17.0779 16.5712 17.1 16.6155 17.1222 16.6488C20.506 21.4859 23.8786 26.323 27.2624 31.1712C27.3179 31.2599 27.3844 31.2932 27.4954 31.2932C28.1388 31.2932 28.7823 31.2932 29.4258 31.2932C29.4701 31.2932 29.5145 31.2821 29.5811 31.2821C29.5256 31.2045 29.4923 31.149 29.459 31.1046C26.985 27.5545 24.4999 24.0043 22.0259 20.4652C21.1383 19.2005 20.2508 17.9246 19.3633 16.6599C19.3189 16.6044 19.2412 16.5268 19.1858 16.5268C18.4757 16.5046 17.7768 16.5046 17.0335 16.5046Z" fill="white"/>
</g>
<defs>
<clipPath id="clip0_2939_2720">
<rect width="17" height="18" fill="white" transform="translate(15 15)"/>
</clipPath>
</defs>
</svg>
