<svg width="72" height="73" viewBox="0 0 72 73" fill="none" xmlns="http://www.w3.org/2000/svg">
<path d="M71.5665 16.0202L52.4848 0.841599C52.0511 0.516342 51.509 0.516342 51.1837 0.841599L32.102 16.0202C31.7767 16.3455 31.5599 16.7792 31.7767 17.2129C31.8852 17.6465 32.3188 17.9718 32.7525 17.9718H34.9209V32.8252H33.5114C32.8609 32.8252 32.4273 33.2589 32.4273 33.9094V38.5714C32.4273 39.2219 32.8609 39.6556 33.5114 39.6556H70.157C70.8076 39.6556 71.2412 39.2219 71.2412 38.5714V33.9094C71.2412 33.2589 70.8076 32.8252 70.157 32.8252H68.7476V17.9718H70.916C71.3496 17.9718 71.7833 17.6465 71.8917 17.2129C72.1086 16.7792 72.0002 16.3455 71.5665 16.0202ZM51.8342 3.1184L67.7718 15.8034H67.6634C61.1583 15.8034 42.5102 15.8034 35.8967 15.8034L51.8342 3.1184ZM55.4121 32.8252V17.9718H61.5919V32.8252H55.4121ZM42.0765 32.8252V17.9718H48.2564V32.8252H42.0765ZM50.4248 17.9718H53.2437V32.8252H50.4248V17.9718ZM37.0893 17.9718H39.9082V32.8252H37.0893V17.9718ZM69.0728 37.4872H34.5956V34.9936H69.0728V37.4872ZM66.5792 32.8252H63.7603V17.9718H66.5792V32.8252Z" fill="#215CFF"/>
<path d="M21.3676 33.367C20.9339 33.0417 20.3918 33.0417 20.0665 33.367L0.984806 48.5456C0.659549 48.8709 0.442712 49.3046 0.65955 49.7382C0.65955 50.1719 1.09323 50.4972 1.5269 50.4972H3.69528V65.3506H2.28583C1.63532 65.3506 1.20164 65.7842 1.20164 66.4348V71.0968C1.20164 71.7473 1.63532 72.181 2.28583 72.181H38.9314C39.5819 72.181 40.0156 71.7473 40.0156 71.0968V66.4348C40.0156 65.7842 39.5819 65.3506 38.9314 65.3506H37.522V50.4972H39.6904C40.124 50.4972 40.5577 50.1719 40.6661 49.7382C40.7745 49.3046 40.6661 48.8709 40.3409 48.5456L21.3676 33.367ZM20.6086 35.6438L36.6546 48.3288H36.4378C-14.4107 48.3288 55.9532 48.3288 4.77947 48.3288H4.67105L20.6086 35.6438ZM24.1865 65.3506V50.4972H30.3663V65.3506H24.1865ZM10.8509 65.3506V50.4972H17.0308V65.3506H10.8509ZM19.1992 50.4972H22.0181V65.3506H19.1992V50.4972ZM5.86366 50.4972H8.68255V65.3506H5.86366V50.4972ZM37.9557 70.0126H3.37002V67.5189H37.8472V70.0126H37.9557ZM35.3536 65.3506H32.5347V50.4972H35.3536V65.3506Z" fill="#215CFF"/>
<path d="M61.6989 42.2579C61.482 42.0411 61.1568 41.8242 60.8315 41.8242C60.5063 41.8242 60.2894 41.9326 60.0726 42.1495L53.7843 49.1967C53.3506 49.6304 53.459 50.2809 53.8927 50.7146C54.3264 51.1482 54.9769 51.0398 55.4106 50.6061L59.7473 45.6189V67.5195H43.9182C43.2677 67.5195 42.834 67.9532 42.834 68.6037C42.834 69.2542 43.2677 69.6879 43.9182 69.6879H60.9399C61.5905 69.6879 62.0241 69.2542 62.0241 68.6037V45.8357L66.3609 50.823C66.7946 51.2567 67.4451 51.3651 67.8788 50.9314C68.3124 50.4977 68.4208 49.8472 67.9872 49.4135L61.6989 42.2579Z" fill="#FF8303"/>
<path d="M8.68185 37.5961C9.33236 37.5961 9.76603 37.1624 9.76603 36.5119V10.9251H28.4141L23.4268 15.2618C22.9931 15.6955 22.8847 16.346 23.3184 16.7797C23.7521 17.2134 24.4026 17.3218 24.8363 16.8881C24.8363 16.8881 31.8835 10.5998 31.9919 10.5998C32.2087 10.383 32.3172 10.0577 32.3172 9.84088C32.3172 9.51563 32.1003 9.19037 31.9919 9.08195L24.8363 2.79366C24.4026 2.35998 23.7521 2.4684 23.3184 2.90207C22.8847 3.33575 22.9931 3.98626 23.4268 4.41994L28.4141 8.7567H8.68185C8.03133 8.7567 7.59766 9.19037 7.59766 9.84088V36.6204C7.59766 37.1624 8.03133 37.5961 8.68185 37.5961Z" fill="#FF8303"/>
<path d="M20.6091 46.5942C22.7775 46.5942 24.4038 44.8595 24.4038 42.7995C24.4038 40.6312 22.6691 39.0049 20.6091 39.0049C18.5492 39.0049 16.8145 40.7396 16.8145 42.7995C16.8145 44.8595 18.5492 46.5942 20.6091 46.5942ZM20.6091 41.0648C21.4765 41.0648 22.2354 41.8238 22.2354 42.6911C22.2354 43.5585 21.4765 44.3174 20.6091 44.3174C19.7418 44.3174 18.9828 43.5585 18.9828 42.6911C18.9828 41.8238 19.7418 41.0648 20.6091 41.0648Z" fill="#215CFF"/>
<path d="M51.8328 14.1772C54.0011 14.1772 55.6274 12.4425 55.6274 10.3826C55.6274 8.21417 53.8927 6.58789 51.8328 6.58789C49.7728 6.58789 47.9297 8.21417 47.9297 10.2741C47.9297 12.4425 49.6644 14.1772 51.8328 14.1772ZM51.8328 8.64785C52.7001 8.64785 53.4591 9.40678 53.4591 10.2741C53.4591 11.1415 52.7001 11.9004 51.8328 11.9004C50.9654 11.9004 50.2065 11.1415 50.2065 10.2741C50.2065 9.40678 50.857 8.64785 51.8328 8.64785Z" fill="#215CFF"/>
</svg>
