<svg width="74" height="74" viewBox="0 0 74 74" fill="none" xmlns="http://www.w3.org/2000/svg">
<path d="M0.00144651 19.9497L16.6869 10.5587C17.7501 10.6904 18.3677 11.8386 17.4 12.5814L5.63269 19.2272H68.2881L67.8585 18.8623C58.4663 14.0003 49.4748 8.31299 40.0884 3.45097C38.3324 2.54169 37.4703 1.72363 35.4177 2.58223L21.6614 10.1996C20.1455 10.6267 19.5828 8.86463 20.8875 8.12331C25.4151 6.05428 29.8747 2.65752 34.3559 0.650742C36.5286 -0.322242 37.8464 -0.161526 39.9452 0.849103L73.7602 19.747C73.8831 19.9164 73.8991 20.1075 73.9222 20.3073C74.0264 21.179 74.0162 23.3305 73.9208 24.2123C73.6474 26.7331 71.2143 27.9652 68.9289 28.1752L65.2518 33.599L65.2663 59.7537L69.0431 65.2933C70.9655 65.2875 73.6343 64.998 73.9222 67.5651C74.0264 68.4932 74.0365 71.1197 73.8875 72.0101C73.7197 73.0063 72.8576 73.5521 72.0446 73.9952H1.87756C0.987963 73.6129 0.383324 73.012 0.00144651 72.1172V67.2046C0.886708 64.9053 2.84962 65.3498 4.87906 65.2933L8.63274 59.8753L8.6718 33.7409L8.53004 33.1603L4.99189 28.1752C3.82745 27.9681 2.90169 27.9174 1.89058 27.2326C0.879475 26.5477 0.426719 25.6732 0 24.5728V19.9482L0.00144651 19.9497ZM71.7524 21.538H2.16686V24.0675C2.16686 24.5873 3.06514 25.5328 3.60614 25.6616H70.3132C70.8542 25.5328 71.7524 24.5873 71.7524 24.0675V21.538ZM20.5013 28.042H7.65346L10.2818 31.9122L10.4626 31.9556L17.8065 31.9209L20.5013 28.0434V28.042ZM56.5945 34.1115V46.756C56.5945 47.5045 54.8254 48.0127 54.4927 46.9818L54.3987 33.4918L50.6754 28.1158L23.3423 28.0666L19.5003 33.6135L19.5712 59.9723C19.6696 60.2619 22.7694 64.6201 23.1036 64.9618C23.2555 65.1181 23.3582 65.3049 23.6113 65.3208L50.431 65.2948L54.3958 59.871L54.4609 51.1199C54.7676 50.0702 56.596 50.4423 56.596 51.2343V59.2542H63.0922V34.1101H56.596L56.5945 34.1115ZM66.2673 28.042H53.418L56.1128 31.9194L63.4567 31.9542L63.6376 31.9107L66.2659 28.0405L66.2673 28.042ZM17.3262 34.1115H10.83V59.2556H17.3262V34.1115ZM20.646 65.3237L17.8036 61.4492H10.3512L7.65346 65.3237H20.646ZM66.2673 65.3237L63.5696 61.4492H56.1172L53.2748 65.3237H66.2673ZM71.7524 71.6829V67.7084L71.5355 67.4912H2.38384L2.16686 67.7084V71.6829H71.7524Z" fill="white"/>
<path d="M33.4023 8.00616C38.1757 3.14703 45.5023 10.9352 40.1386 15.3991C35.3276 19.4025 28.9875 12.5019 33.4023 8.00616ZM36.1998 8.85607C33.5136 9.35125 33.4977 13.9049 36.4674 14.3001C40.8489 14.8836 40.8286 8.00326 36.1998 8.85607Z" fill="white"/>
<path d="M35.3435 34.2985C48.1986 32.9867 54.5198 49.0279 44.4565 56.57C34.7909 63.8152 21.6277 54.5067 25.0863 42.9612C26.4084 38.5466 30.7046 34.7719 35.3449 34.2985H35.3435ZM35.776 36.466C27.7927 37.2898 23.906 47.0255 29.0903 53.1877C33.654 58.6129 42.333 57.9455 45.8408 51.7441C50.0024 44.3874 44.1195 35.6045 35.7746 36.466H35.776Z" fill="#FF8303"/>
<path d="M35.8049 47.6943C34.2803 47.8753 32.7976 46.5229 32.6283 45.0215C32.3405 42.4659 32.6862 39.728 35.8005 39.5977C35.6964 37.3563 38.2307 37.3781 38.1178 39.5977C39.0595 39.5948 40.1444 40.0769 40.6883 40.8544C41.3233 41.7623 41.8426 44.1716 40.2182 44.0803C38.7037 43.9949 39.5846 41.8984 38.1135 41.7695V45.5268C41.1974 45.702 41.5258 48.2329 41.2958 50.8073C41.1526 52.4115 39.7495 53.7711 38.1135 53.6176C38.3218 55.9646 35.5966 55.9646 35.8049 53.6176C33.9389 53.981 31.9673 51.4327 32.7339 49.7517C33.0507 49.0567 34.2745 49.1523 34.6332 49.8053C34.9919 50.4583 34.584 51.495 35.8034 51.4516V47.6943H35.8049ZM35.8049 41.7695C35.0773 41.8665 34.8473 42.3226 34.788 42.9915C34.707 43.8878 34.5479 45.605 35.8049 45.5268V41.7695ZM38.1149 51.4516C39.372 51.5283 39.2128 49.8126 39.1318 48.9163C39.0725 48.2474 38.8425 47.7927 38.1149 47.6943V51.4516Z" fill="#FF8303"/>
<path d="M1.27539 66.3391H72.7174L71.9757 72.7179H1.27539V66.3391Z" fill="white"/>
</svg>
