<svg width="75" height="75" viewBox="0 0 75 75" fill="none" xmlns="http://www.w3.org/2000/svg">
<g clip-path="url(#clip0_355_387)">
<path d="M56.1462 45.0781L55.5501 45.6872C54.5855 46.6729 53.0045 46.69 52.0188 45.7254L44.5826 38.4483C43.5969 37.4836 43.5798 35.9026 44.5444 34.9169L48.6424 30.7294C49.607 29.7437 51.1881 29.7266 52.1738 30.6912L59.6177 37.976C60.6003 38.9376 60.6208 40.5127 59.6635 41.4995L59.3293 41.844" stroke="white" stroke-width="1.22085"/>
<path d="M62.511 53.4828C62.4365 55.5825 65.8547 56.3869 70.502 57.9777" stroke="white" stroke-width="1.22085" stroke-linecap="round"/>
<path d="M57.0186 50.9861C56.5192 53.9828 63.0119 55.4811 63.5113 51.4856" stroke="white" stroke-width="1.22085" stroke-linecap="round"/>
<path d="M63.0158 50.4865C58.0214 52.4843 57.0225 50.4865 57.0225 50.4865C57.0225 50.4865 54.0324 47.8229 54.5318 46.3246" stroke="white" stroke-width="1.22085" stroke-linecap="round"/>
<path d="M65.51 44.4931C65.51 44.4931 55.0218 38.9993 54.0229 38.4999C53.0241 38.0004 52.5246 39.9982 53.0241 41.4965C53.5235 42.9948 57.519 45.7417 59.5168 45.7417C61.5145 45.7417 64.5112 52.9836 64.5112 52.9836" stroke="white" stroke-width="1.22085" stroke-linecap="round"/>
<path d="M60.5166 38.4998C66.0104 38.0003 67.5088 39.9981 75.0003 52.9835" stroke="white" stroke-width="1.22085" stroke-linecap="round"/>
<path d="M55.8135 45.4127C57.8112 47.4104 57.0205 48.9878 62.0149 48.4884" stroke="white" stroke-width="1.22085" stroke-linecap="round"/>
<path d="M32.876 16.0315C50.148 16.3323 64.0156 26.0532 64.0156 38.0002L64.0098 38.2688L62.4531 37.9788C62.4447 32.5804 59.2607 27.5232 53.7686 23.7473C48.276 19.9713 40.6023 17.5852 32.0508 17.5852C23.4992 17.5853 15.8255 19.9712 10.333 23.7473C4.83366 27.5282 1.64746 32.5939 1.64746 38.0002C1.64756 43.4066 4.83364 48.4724 10.333 52.2532C15.8255 56.0292 23.4993 58.4143 32.0508 58.4143C40.6022 58.4143 48.276 56.0291 53.7686 52.2532C54.7147 51.6027 55.5908 50.9124 56.3955 50.1907L57.4473 51.343C51.6057 56.5896 42.4037 59.9749 32.0508 59.9749L31.2256 59.968C14.2282 59.6718 0.528634 50.2533 0.0976562 38.5676L0.0869141 38.0002C0.0869141 25.8637 14.3976 16.0248 32.0508 16.0247L32.876 16.0315Z" fill="white"/>
<path d="M35.9681 54.8407C35.4427 54.6858 34.9038 54.0593 34.7893 53.4598C34.7152 53.0692 34.8028 52.7997 35.3619 51.7153C37.6251 47.337 38.6085 43.3089 38.6085 38.4255C38.6085 33.7036 37.7396 30.0259 35.5774 25.6206C35.1126 24.6776 34.7354 23.7952 34.7354 23.6672C34.7354 23.1957 35.1261 22.5154 35.5505 22.2527C36.1298 21.889 37.1064 21.9563 37.578 22.3942C37.7598 22.5626 38.2246 23.3304 38.6153 24.0983C40.1645 27.1362 41.222 30.4704 41.7474 33.9394C42.0708 36.0881 42.1381 40.1566 41.8754 42.1234C41.3972 45.7473 40.4407 48.9873 38.9049 52.1531C37.9754 54.0661 37.3961 54.8542 36.9111 54.8542C36.8168 54.8542 36.6551 54.8811 36.5608 54.9081C36.4665 54.935 36.1971 54.9081 35.9681 54.8407ZM29.6701 51.5469C28.8618 51.3111 28.2758 50.3142 28.5115 49.5733C28.5654 49.3914 28.9493 48.5629 29.3602 47.7277C31.0913 44.1913 31.8121 40.4058 31.4618 36.6876C31.1722 33.6295 30.6266 31.7031 29.2457 28.8875C28.3229 26.9947 28.2758 26.7051 28.8146 25.9372C29.3266 25.2097 30.6064 25.0952 31.2732 25.7082C31.738 26.1325 33.1862 29.1569 33.7453 30.8678C35.5909 36.5259 35.308 42.6084 32.9437 48.1655C31.7245 51.0147 30.8691 51.8971 29.6701 51.5469ZM23.1767 48.2059C22.6783 47.9836 22.2472 47.4515 22.1259 46.9193C22.0518 46.596 22.1798 46.2323 22.7726 45.0333C24.955 40.6146 24.9752 36.3643 22.8467 32.0466C21.9104 30.1538 21.8902 29.7766 22.6783 29.029C23.069 28.6585 23.2374 28.5979 23.783 28.5979C24.7058 28.5979 25.184 29.0626 26.0058 30.7533C27.2721 33.3534 27.7908 35.6099 27.784 38.4996C27.7773 41.4701 27.2923 43.511 25.9452 46.2525C25.1705 47.822 24.7866 48.2396 24.012 48.3406C23.7762 48.3608 23.399 48.3069 23.1767 48.2059ZM17.1145 45.0939C16.7171 44.9323 16.2658 44.3934 16.131 43.9219C15.9829 43.3965 16.1041 42.9789 16.6969 42.0022C17.4647 40.7426 17.6399 40.069 17.6399 38.4255C17.6399 36.7819 17.4647 36.1016 16.6969 34.8487C16.4342 34.4244 16.1782 33.9124 16.1176 33.7104C15.8683 32.8819 16.5621 31.8647 17.4917 31.6896C18.2798 31.5414 18.8186 31.8917 19.5461 33.0233C21.641 36.2969 21.641 40.6618 19.5461 43.9084C18.8052 45.0468 17.9834 45.4509 17.1145 45.0939Z" fill="#FF8303"/>
</g>
<defs>
<clipPath id="clip0_355_387">
<rect width="75" height="75" fill="white"/>
</clipPath>
</defs>
</svg>
