<svg width="75" height="75" viewBox="0 0 75 75" fill="none" xmlns="http://www.w3.org/2000/svg">
<path d="M22.7886 34.0612C22.7886 33.0012 21.9262 32.1389 20.8662 32.1389H18.1793C17.1192 32.1389 16.2568 33.0012 16.2568 34.0612V36.2597C16.2568 37.3198 17.1192 38.1821 18.1793 38.1821H20.8662C21.9262 38.1821 22.7886 37.3198 22.7886 36.2597V34.0612ZM20.7046 36.0981H18.3409V34.2228H20.7046V36.0981Z" fill="white"/>
<path d="M13.7934 34.0612C13.7934 33.0012 12.931 32.1389 11.8709 32.1389H9.18417C8.12409 32.1389 7.26172 33.0012 7.26172 34.0612V36.2597C7.26172 37.3198 8.12409 38.1821 9.18417 38.1821H11.8709C12.931 38.1821 13.7934 37.3198 13.7934 36.2597V34.0612ZM11.7093 36.0981H9.34576V34.2228H11.7093V36.0981Z" fill="white"/>
<path d="M22.7886 41.9744C22.7886 40.9143 21.9262 40.0519 20.8662 40.0519H18.1793C17.1192 40.0519 16.2568 40.9143 16.2568 41.9744V44.1729C16.2568 45.2329 17.1192 46.0952 18.1793 46.0952H20.8662C21.9262 46.0952 22.7886 45.2329 22.7886 44.1729V41.9744ZM20.7046 44.0113H18.3409V42.136H20.7046V44.0113Z" fill="white"/>
<path d="M13.7934 41.9744C13.7934 40.9143 12.931 40.0519 11.8709 40.0519H9.18417C8.12409 40.0519 7.26172 40.9143 7.26172 41.9744V44.1729C7.26172 45.2329 8.12409 46.0952 9.18417 46.0952H11.8709C12.931 46.0952 13.7934 45.2329 13.7934 44.1729V41.9744ZM11.7093 44.0113H9.34576V42.136H11.7093V44.0113Z" fill="white"/>
<path d="M20.8662 47.9653H18.1793C17.1192 47.9653 16.2568 48.8277 16.2568 49.8878V52.0863C16.2568 53.1464 17.1192 54.0088 18.1793 54.0088H20.8662C21.9263 54.0088 22.7886 53.1464 22.7886 52.0863V49.8878C22.7885 48.8277 21.9261 47.9653 20.8662 47.9653ZM20.7044 51.9246H18.3407V50.0492H20.7044V51.9246Z" fill="white"/>
<path d="M11.8709 47.9653H9.18417C8.12409 47.9653 7.26172 48.8277 7.26172 49.8878V52.0863C7.26172 53.1464 8.12409 54.0088 9.18417 54.0088H11.8709C12.931 54.0088 13.7934 53.1464 13.7934 52.0863V49.8878C13.7934 48.8277 12.931 47.9653 11.8709 47.9653ZM11.7093 51.9246H9.34576V50.0492H11.7093V51.9246Z" fill="white"/>
<path d="M27.1754 54.0086H29.8621C30.9222 54.0086 31.7846 53.1462 31.7846 52.0861V49.8876C31.7846 48.8275 30.9222 47.9651 29.8621 47.9651H27.1754C26.1153 47.9651 25.2529 48.8275 25.2529 49.8876V52.0861C25.2529 53.1462 26.1153 54.0086 27.1754 54.0086ZM27.337 50.0493H29.7005V51.9247H27.337V50.0493Z" fill="white"/>
<path d="M71.8621 64.4831L70.191 61.5612L71.2668 50.8981C71.8118 45.4957 69.6583 40.1814 65.5061 36.6825L56.7413 29.2969L47.5979 13.3096C47.0183 12.2961 46.0785 11.5689 44.952 11.2621C43.8254 10.9555 42.6467 11.1055 41.6333 11.6853L35.9521 14.9344V8.28873C35.9521 5.06528 33.3296 2.44287 30.1063 2.44287H8.93961C5.71616 2.44287 3.09375 5.06528 3.09375 8.28873V52.5959C3.09375 55.6178 5.39842 58.1114 8.34233 58.4115V70.428C8.34233 70.9125 8.58671 71.3566 8.99616 71.6157C9.40574 71.8749 9.91175 71.9058 10.3495 71.6985L12.6316 70.6181L15.5777 71.8948C15.7555 71.9718 15.9457 72.0102 16.1361 72.0102C16.3336 72.0102 16.5312 71.9688 16.7149 71.8859L19.5305 70.6142L22.4618 71.8916C22.8342 72.0539 23.2583 72.0475 23.6254 71.8735L26.2678 70.6217L28.7225 71.7233C29.1594 71.9192 29.6599 71.881 30.0619 71.6208C30.4637 71.3606 30.7036 70.9196 30.7036 70.4408V58.4115C33.6475 58.1114 35.9522 55.6178 35.9522 52.5959V49.1417L37.2369 51.388C37.376 51.6311 37.5363 51.8575 37.7145 52.0657L37.2679 54.2995C37.0772 55.2538 37.2696 56.2249 37.8094 57.0345C38.3491 57.8441 39.1719 58.395 40.126 58.5856C40.3663 58.6336 40.6078 58.6574 40.8475 58.6574C41.5592 58.6574 42.2553 58.448 42.8609 58.0443C42.8715 58.0372 42.8815 58.0297 42.8919 58.0226C43.4083 58.8138 44.229 59.4058 45.2266 59.6052C45.4635 59.6526 45.7012 59.6755 45.9367 59.6755C46.5409 59.6755 47.13 59.523 47.6535 59.2432C48.9687 63.1264 51.3021 66.6434 54.4426 69.3587L55.1751 69.9921L56.9139 73.0323C57.1063 73.3686 57.4578 73.5572 57.8193 73.5572C57.9948 73.5572 58.1725 73.5128 58.3357 73.4195C58.8352 73.1338 59.0086 72.4972 58.7229 71.9976L56.8959 68.8029C56.8374 68.7007 56.7621 68.6091 56.6729 68.532L55.8058 67.7823C51.4554 64.0207 48.8064 58.5686 48.5383 52.8236L48.1755 45.0548C48.1526 44.5624 48.0111 44.0758 47.7662 43.6475L44.2051 37.4209C43.9431 36.9629 43.8751 36.4302 44.0139 35.921C44.1527 35.4118 44.4813 34.9871 44.9394 34.7252C45.3976 34.4631 45.93 34.3949 46.4395 34.534C46.9487 34.6726 47.3734 35.0012 47.6353 35.4593L49.6251 38.9385C49.9109 39.4381 50.5475 39.6114 51.0469 39.3259C51.5465 39.0401 51.7199 38.4035 51.4342 37.904L49.4445 34.4248C48.9062 33.4835 48.0335 32.8081 46.9872 32.5232C45.9408 32.2383 44.8462 32.3778 43.9049 32.9162C41.9617 34.0276 41.285 36.5127 42.3963 38.4559L45.9574 44.6823C46.0391 44.8252 46.0863 44.9877 46.094 45.152L46.2671 48.8587L42.1671 51.2035C41.6368 51.5068 41.0202 51.5856 40.4307 51.4248C39.8412 51.2644 39.3495 50.8838 39.0462 50.3535L30.8498 36.0223C30.564 35.5226 29.9272 35.3491 29.4279 35.635C28.9284 35.9207 28.755 36.5573 29.0407 37.0569L30.9461 40.3885C30.6372 40.1766 30.2639 40.0521 29.8618 40.0521H27.1751C26.115 40.0521 25.2526 40.9145 25.2526 41.9746V44.1731C25.2526 45.233 26.115 46.0954 27.1751 46.0954H29.8618C30.9219 46.0954 31.7843 45.233 31.7843 44.1731V41.9746C31.7843 41.93 31.7805 41.8862 31.7776 41.8423L33.8683 45.498V52.5961C33.8683 54.6704 32.1808 56.3579 30.1066 56.3579H8.93961C6.8653 56.3579 5.17779 54.6704 5.17779 52.5961V8.28873C5.17779 6.21442 6.8653 4.52691 8.93961 4.52691H30.1063C32.1805 4.52691 33.868 6.21442 33.868 8.28873V16.1264L31.784 17.3183V11.9962C31.784 11.0712 31.0314 10.3186 30.1063 10.3186H8.93961C8.01444 10.3186 7.26182 11.0712 7.26182 11.9964V16.4434C7.26182 17.0189 7.72837 17.4854 8.30384 17.4854C8.87931 17.4854 9.34586 17.0189 9.34586 16.4434V12.4026H29.7V18.5101L25.0048 21.1955C23.103 22.283 22.3282 24.5928 23.1015 26.5759H9.34586V20.8841C9.34586 20.3086 8.87931 19.8421 8.30384 19.8421C7.72837 19.8421 7.26182 20.3086 7.26182 20.8841V26.9821C7.26182 27.9073 8.01444 28.6599 8.93961 28.6599H24.2381L26.8359 33.2021C27.1217 33.7016 27.7582 33.875 28.2578 33.5894C28.7574 33.3037 28.9307 32.6671 28.645 32.1675L25.1895 26.1257C24.5634 25.0309 24.9447 23.6307 26.0395 23.0047L42.6681 13.4945C43.1984 13.1912 43.815 13.1124 44.4045 13.2732C44.994 13.4337 45.4857 13.8142 45.789 14.3445L59.6453 38.5726C59.9486 39.1029 60.0273 39.7196 59.8668 40.3091C59.7062 40.8986 59.3258 41.3902 58.7955 41.6935L54.8815 43.9319L53.6386 41.7586C53.3528 41.259 52.7161 41.0858 52.2167 41.3714C51.7172 41.6571 51.5439 42.2937 51.8295 42.7933L54.6406 47.7084C54.833 48.0448 55.1845 48.2333 55.546 48.2333C55.7215 48.2333 55.8992 48.189 56.0625 48.0956C56.5619 47.81 56.7353 47.1734 56.4497 46.6738L55.9162 45.741L59.8301 43.5026C60.8437 42.9229 61.5708 41.9832 61.8776 40.8567C62.1844 39.7302 62.0341 38.5515 61.4544 37.5379L59.75 34.5577L64.1631 38.2765C67.7888 41.3317 69.6693 45.972 69.1934 50.6892L68.0842 61.6844C68.0623 61.9004 68.1086 62.1179 68.2164 62.3064L70.0533 65.5182C70.2457 65.8546 70.5972 66.0431 70.9587 66.0431C71.1342 66.0431 71.3119 65.9988 71.4752 65.9054C71.9746 65.6193 72.1479 64.9827 71.8621 64.4831ZM46.4564 52.921C46.523 54.3451 46.7238 55.7525 47.0479 57.1263C46.685 57.494 46.1551 57.6655 45.6351 57.5618C44.7923 57.3934 44.2436 56.5706 44.412 55.7278L45.181 51.8805L46.3759 51.1971L46.4564 52.921ZM41.0384 53.5913C41.6386 53.5913 42.2321 53.4644 42.7883 53.2189L42.3684 55.3192C42.2868 55.7274 42.0511 56.0795 41.7047 56.3105C41.3582 56.5417 40.9426 56.6238 40.5344 56.5421C40.1262 56.4606 39.7742 56.2248 39.5431 55.8784C39.3121 55.532 39.2298 55.1165 39.3115 54.7082L39.5847 53.3417C39.6826 53.3759 39.7817 53.408 39.8828 53.4356C40.2648 53.5397 40.6528 53.5913 41.0384 53.5913ZM29.7 44.0113H27.3364V42.136H29.7V44.0113ZM28.6194 69.3928L26.8352 68.5921C26.4596 68.4238 26.0308 68.4281 25.6582 68.6044L23.0119 69.858L20.0871 68.5834C19.7239 68.425 19.3084 68.4278 18.9469 68.591L16.1305 69.8631L13.1783 68.5838C12.9997 68.5064 12.8095 68.4678 12.6192 68.4678C12.4136 68.4678 12.2079 68.513 12.0176 68.603L10.4262 69.3564V58.4418H28.6194V69.3928Z" fill="white"/>
<path d="M43.088 21.2856C43.2391 20.7303 42.9117 20.1576 42.3563 20.0065C40.3045 19.4478 38.1578 19.7214 36.3118 20.7771C34.4659 21.8329 33.1416 23.5443 32.5828 25.5963C32.4316 26.1516 32.7591 26.7243 33.3144 26.8754C33.4061 26.9004 33.4982 26.9124 33.5888 26.9124C34.0471 26.9124 34.4673 26.6076 34.5936 26.1439C35.0061 24.6291 35.9838 23.3656 37.3464 22.5864C38.7093 21.8069 40.2938 21.6049 41.8088 22.0174C42.3638 22.1684 42.9368 21.8408 43.088 21.2856Z" fill="#FF8303"/>
<path d="M40.7137 26.04C41.2686 26.1909 41.8416 25.8637 41.993 25.3085C42.1443 24.7533 41.8167 24.1805 41.2615 24.0292C40.2834 23.7629 39.2606 23.8926 38.3818 24.395C37.5032 24.8974 36.8727 25.713 36.6062 26.6915C36.455 27.2468 36.7825 27.8195 37.3378 27.9707C37.4295 27.9957 37.5216 28.0076 37.6122 28.0076C38.0706 28.0076 38.4907 27.7028 38.617 27.2392C38.7372 26.7978 39.0212 26.4303 39.4164 26.2041C39.8117 25.9782 40.2724 25.9198 40.7137 26.04Z" fill="#FF8303"/>
<path d="M40.306 29.8602C40.4984 30.1965 40.8499 30.3851 41.2114 30.3851C41.3869 30.3851 41.5646 30.3407 41.7278 30.2474C42.2273 29.9617 42.4007 29.3251 42.1151 28.8255L41.769 28.2203C41.4832 27.7207 40.8466 27.5473 40.3471 27.8331C39.8476 28.1187 39.6742 28.7553 39.9599 29.255L40.306 29.8602Z" fill="#FF8303"/>
</svg>
