<svg width="75" height="75" viewBox="0 0 75 75" fill="none" xmlns="http://www.w3.org/2000/svg">
<path d="M72.5665 17.0202L53.4847 1.84154C53.0511 1.51628 52.509 1.51628 52.1837 1.84154L33.102 17.0202C32.7767 17.3454 32.5599 17.7791 32.7767 18.2128C32.8852 18.6465 33.3188 18.9717 33.7525 18.9717H35.9209V33.8251H34.5114C33.8609 33.8251 33.4273 34.2588 33.4273 34.9093V39.5713C33.4273 40.2218 33.8609 40.6555 34.5114 40.6555H71.157C71.8076 40.6555 72.2412 40.2218 72.2412 39.5713V34.9093C72.2412 34.2588 71.8076 33.8251 71.157 33.8251H69.7476V18.9717H71.916C72.3496 18.9717 72.7833 18.6465 72.8917 18.2128C73.1086 17.7791 73.0002 17.3454 72.5665 17.0202ZM52.8342 4.11833L68.7718 16.8033H68.6634C62.1583 16.8033 43.5102 16.8033 36.8967 16.8033L52.8342 4.11833ZM56.4121 33.8251V18.9717H62.5919V33.8251H56.4121ZM43.0765 33.8251V18.9717H49.2564V33.8251H43.0765ZM51.4248 18.9717H54.2437V33.8251H51.4248V18.9717ZM38.0893 18.9717H40.9082V33.8251H38.0893V18.9717ZM70.0728 38.4871H35.5956V35.9935H70.0728V38.4871ZM67.5792 33.8251H64.7603V18.9717H67.5792V33.8251Z" fill="white"/>
<path d="M22.3676 34.3672C21.9339 34.0419 21.3918 34.0419 21.0665 34.3672L1.98481 49.5458C1.65955 49.8711 1.44271 50.3048 1.65955 50.7384C1.65955 51.1721 2.09323 51.4974 2.5269 51.4974H4.69528V66.3508H3.28583C2.63532 66.3508 2.20164 66.7844 2.20164 67.4349V72.097C2.20164 72.7475 2.63532 73.1811 3.28583 73.1811H39.9314C40.5819 73.1811 41.0156 72.7475 41.0156 72.097V67.4349C41.0156 66.7844 40.5819 66.3508 39.9314 66.3508H38.522V51.4974H40.6904C41.124 51.4974 41.5577 51.1721 41.6661 50.7384C41.7745 50.3048 41.6661 49.8711 41.3409 49.5458L22.3676 34.3672ZM21.6086 36.644L37.6546 49.329H37.4378C-13.4107 49.329 56.9532 49.329 5.77947 49.329H5.67105L21.6086 36.644ZM25.1865 66.3508V51.4974H31.3663V66.3508H25.1865ZM11.8509 66.3508V51.4974H18.0308V66.3508H11.8509ZM20.1992 51.4974H23.0181V66.3508H20.1992V51.4974ZM6.86366 51.4974H9.68255V66.3508H6.86366V51.4974ZM38.9557 71.0128H4.37002V68.5191H38.8472V71.0128H38.9557ZM36.3536 66.3508H33.5347V51.4974H36.3536V66.3508Z" fill="white"/>
<path d="M62.6989 43.2575C62.482 43.0407 62.1568 42.8239 61.8315 42.8239C61.5063 42.8239 61.2894 42.9323 61.0726 43.1491L54.7843 50.1963C54.3506 50.63 54.459 51.2805 54.8927 51.7142C55.3264 52.1479 55.9769 52.0395 56.4106 51.6058L60.7473 46.6185V68.5191H44.9182C44.2677 68.5191 43.834 68.9528 43.834 69.6033C43.834 70.2538 44.2677 70.6875 44.9182 70.6875H61.9399C62.5905 70.6875 63.0241 70.2538 63.0241 69.6033V46.8354L67.3609 51.8226C67.7946 52.2563 68.4451 52.3647 68.8788 51.931C69.3124 51.4974 69.4208 50.8469 68.9872 50.4132L62.6989 43.2575Z" fill="#FF8303"/>
<path d="M9.68282 38.5956C10.3333 38.5956 10.767 38.1619 10.767 37.5114V11.9245H29.4151L24.4278 16.2613C23.9941 16.695 23.8857 17.3455 24.3194 17.7791C24.753 18.2128 25.4036 18.3212 25.8372 17.8876C25.8372 17.8876 32.8845 11.5993 32.9929 11.5993C33.2097 11.3824 33.3181 11.0572 33.3181 10.8403C33.3181 10.5151 33.1013 10.1898 32.9929 10.0814L25.8372 3.79311C25.4036 3.35943 24.753 3.46785 24.3194 3.90153C23.8857 4.3352 23.9941 4.98571 24.4278 5.41939L29.4151 9.75615H9.68282C9.03231 9.75615 8.59863 10.1898 8.59863 10.8403V37.6198C8.59863 38.1619 9.03231 38.5956 9.68282 38.5956Z" fill="#FF8303"/>
<path d="M21.6091 47.5943C23.7775 47.5943 25.4038 45.8596 25.4038 43.7997C25.4038 41.6313 23.6691 40.005 21.6091 40.005C19.5492 40.005 17.8145 41.7397 17.8145 43.7997C17.8145 45.8596 19.5492 47.5943 21.6091 47.5943ZM21.6091 42.065C22.4765 42.065 23.2354 42.8239 23.2354 43.6912C23.2354 44.5586 22.4765 45.3175 21.6091 45.3175C20.7418 45.3175 19.9828 44.5586 19.9828 43.6912C19.9828 42.8239 20.7418 42.065 21.6091 42.065Z" fill="white"/>
<path d="M52.8328 15.1771C55.0011 15.1771 56.6274 13.4424 56.6274 11.3824C56.6274 9.21405 54.8927 7.58777 52.8328 7.58777C50.7728 7.58777 48.9297 9.21405 48.9297 11.274C48.9297 13.4424 50.6644 15.1771 52.8328 15.1771ZM52.8328 9.64773C53.7001 9.64773 54.4591 10.4067 54.4591 11.274C54.4591 12.1414 53.7001 12.9003 52.8328 12.9003C51.9654 12.9003 51.2065 12.1414 51.2065 11.274C51.2065 10.4067 51.857 9.64773 52.8328 9.64773Z" fill="white"/>
</svg>
