<svg width="75" height="75" viewBox="0 0 75 75" fill="none" xmlns="http://www.w3.org/2000/svg">
<path d="M41.6016 43.8676V39.3345" stroke="#FF8303" stroke-width="2.23079"/>
<path d="M50.668 52.9337V48.4006" stroke="#FF8303" stroke-width="2.23079"/>
<path d="M59.7354 59.7335V55.2004" stroke="#FF8303" stroke-width="2.23079"/>
<mask id="path-4-inside-1_355_376" fill="white">
<rect x="12.1367" y="12.136" width="22.6655" height="22.6655" rx="1.81324"/>
</mask>
<rect x="12.1367" y="12.136" width="22.6655" height="22.6655" rx="1.81324" stroke="white" stroke-width="4.46159" mask="url(#path-4-inside-1_355_376)"/>
<mask id="path-5-inside-2_355_376" fill="white">
<rect x="12.1367" y="39.3345" width="22.6655" height="22.6655" rx="1.81324"/>
</mask>
<rect x="12.1367" y="39.3345" width="22.6655" height="22.6655" rx="1.81324" stroke="white" stroke-width="4.46159" mask="url(#path-5-inside-2_355_376)"/>
<mask id="path-6-inside-3_355_376" fill="white">
<rect x="39.3359" y="12.136" width="22.6655" height="22.6655" rx="1.81324"/>
</mask>
<rect x="39.3359" y="12.136" width="22.6655" height="22.6655" rx="1.81324" stroke="white" stroke-width="4.46159" mask="url(#path-6-inside-3_355_376)"/>
<path d="M41.6016 50.6672V59.7334H50.6677" stroke="#FF8303" stroke-width="2.23079"/>
<path d="M59.7354 48.4006V41.601H52.9357" stroke="#FF8303" stroke-width="2.23079"/>
<path d="M23.4697 21.2021V25.7352" stroke="white" stroke-width="3.34619"/>
<path d="M23.4697 48.4008V52.9338" stroke="white" stroke-width="3.34619"/>
<path d="M50.668 21.2021V25.7352" stroke="white" stroke-width="3.34619"/>
<path d="M41.6016 43.8676V39.3345" stroke="#FF8303" stroke-width="2.23079"/>
<path d="M50.668 52.9337V48.4006" stroke="#FF8303" stroke-width="2.23079"/>
<path d="M59.7354 59.7335V55.2004" stroke="#FF8303" stroke-width="2.23079"/>
<mask id="path-15-inside-4_355_376" fill="white">
<rect x="12.1367" y="12.136" width="22.6655" height="22.6655" rx="1.81324"/>
</mask>
<rect x="12.1367" y="12.136" width="22.6655" height="22.6655" rx="1.81324" stroke="white" stroke-width="4.46159" mask="url(#path-15-inside-4_355_376)"/>
<mask id="path-16-inside-5_355_376" fill="white">
<rect x="12.1367" y="39.3345" width="22.6655" height="22.6655" rx="1.81324"/>
</mask>
<rect x="12.1367" y="39.3345" width="22.6655" height="22.6655" rx="1.81324" stroke="white" stroke-width="4.46159" mask="url(#path-16-inside-5_355_376)"/>
<mask id="path-17-inside-6_355_376" fill="white">
<rect x="39.3359" y="12.136" width="22.6655" height="22.6655" rx="1.81324"/>
</mask>
<rect x="39.3359" y="12.136" width="22.6655" height="22.6655" rx="1.81324" stroke="white" stroke-width="4.46159" mask="url(#path-17-inside-6_355_376)"/>
<path d="M41.6016 50.6672V59.7334H50.6677" stroke="#FF8303" stroke-width="2.23079"/>
<path d="M59.7354 48.4006V41.601H52.9357" stroke="#FF8303" stroke-width="2.23079"/>
<path d="M23.4697 21.2021V25.7352" stroke="white" stroke-width="3.34619"/>
<path d="M23.4697 48.4008V52.9338" stroke="white" stroke-width="3.34619"/>
<path d="M50.668 21.2021V25.7352" stroke="white" stroke-width="3.34619"/>
<path d="M22.5 6H10C7.79086 6 6 7.79086 6 10V21.5" stroke="white" stroke-width="2"/>
<path d="M22.5 67.5H10C7.79086 67.5 6 65.7091 6 63.5V52" stroke="white" stroke-width="2"/>
<path d="M52 6H64.5C66.7091 6 68.5 7.79086 68.5 10V21.5" stroke="white" stroke-width="2"/>
<path d="M52 67.5H64.5C66.7091 67.5 68.5 65.7091 68.5 63.5V52" stroke="white" stroke-width="2"/>
</svg>
