<svg width="35" height="23" viewBox="0 0 35 23" fill="none" xmlns="http://www.w3.org/2000/svg">
<path d="M28.041 0.400391C28.0649 0.419504 28.0891 0.439507 28.1094 0.459961C28.1185 0.469193 28.1249 0.478499 28.1309 0.485352V10.2383C28.0817 10.2089 28.0351 10.1823 27.9932 10.1592C27.9594 10.1405 27.9288 10.1234 27.9004 10.1074V2.95898H7.2002V9.75L6.96875 9.73535V0.485352C6.97468 0.478506 6.9811 0.469179 6.99023 0.459961C7.01053 0.439507 7.03468 0.419503 7.05859 0.400391H28.041ZM8.07129 0.730469C7.83259 0.749758 7.6217 0.862947 7.46973 1.0166C7.31766 1.1704 7.20685 1.38306 7.19043 1.62305C7.17559 1.84075 7.24036 2.05897 7.38672 2.24707L7.45508 2.32617C7.65636 2.53812 7.91303 2.62978 8.16797 2.61133C8.41085 2.59364 8.62687 2.47904 8.78223 2.3252C8.86576 2.2424 8.93719 2.14039 8.98926 2.02637C9.08038 2.27639 9.27499 2.50279 9.59863 2.57617L9.69727 2.59375H9.69824C10.0197 2.63244 10.3084 2.54495 10.5127 2.34082C10.6031 2.25045 10.667 2.14574 10.71 2.03613C10.7684 2.18074 10.8636 2.31623 11.001 2.41992C11.1863 2.55953 11.418 2.62031 11.668 2.59668L11.7754 2.58105C12.0519 2.52954 12.2597 2.36764 12.3789 2.15332C12.4926 1.94893 12.5172 1.71503 12.4795 1.50684C12.4416 1.29835 12.336 1.0856 12.1514 0.932617C11.9823 0.792631 11.7657 0.718589 11.5264 0.732422L11.4219 0.744141C11.047 0.80424 10.8136 1.03728 10.707 1.30957C10.6597 1.18895 10.5885 1.07444 10.4893 0.978516C10.3137 0.808888 10.0761 0.71798 9.80859 0.731445L9.69238 0.744141C9.32939 0.801451 9.10781 1.0414 9.00195 1.30859C8.96503 1.22324 8.91511 1.14101 8.84961 1.06543L8.77441 0.987305C8.56948 0.794753 8.31921 0.710507 8.07129 0.730469Z" stroke="url(#paint0_linear_76_4853)" stroke-width="0.8"/>
<path d="M28.6504 13.5201C28.6986 13.5264 28.7566 13.5486 28.8301 13.6031C28.9058 13.6594 28.9847 13.7397 29.0752 13.8444C29.1198 13.896 29.1646 13.9498 29.2119 14.0074C29.2579 14.0635 29.3073 14.1242 29.3574 14.1823V14.1832C30.2194 15.1818 31.0339 16.2096 31.8857 17.2389C31.9936 17.6248 32.0611 18.0296 32.1211 18.4576C32.1836 18.9035 32.2421 19.3831 32.3418 19.8492L32.3574 19.9254L32.4014 19.9899C32.6064 20.2929 32.845 20.5837 33.0674 20.8571C33.2376 21.0663 33.3984 21.2664 33.543 21.4655L33.6816 21.6647H33.6826C33.7285 21.7338 33.7569 21.792 33.7891 21.8707V22.027C33.7592 22.0884 33.7233 22.1545 33.6816 22.2086C33.6539 22.2446 33.6302 22.2686 33.6133 22.2819C33.6103 22.2842 33.6074 22.2854 33.6055 22.2867C33.5969 22.2876 33.5817 22.2894 33.5586 22.2906C33.5164 22.2929 33.4638 22.2937 33.4092 22.2936C33.3548 22.2934 33.3014 22.292 33.2578 22.2897C33.2372 22.2886 33.2216 22.2867 33.2109 22.2858C33.2062 22.2823 33.1997 22.2781 33.1924 22.2721C33.1588 22.2443 33.1227 22.2075 33.082 22.1637H33.083C32.9575 22.0285 32.6219 21.6152 32.293 21.1842C32.1305 20.9714 31.9742 20.7598 31.8506 20.5836C31.7846 20.4895 31.7337 20.4134 31.6973 20.3561L31.6299 20.2408V20.2399L31.6016 20.1754L31.5957 20.1559L31.3896 18.7047L31.3311 18.2936L30.9229 18.3668L30.8242 18.3844L30.7461 18.399L30.6797 18.441L29.8467 18.9742L29.5479 19.1656L29.7012 19.485C29.7696 19.6272 29.8659 19.7664 29.9551 19.8883C30.0603 20.032 30.1303 20.1187 30.2266 20.2526C30.3117 20.3709 30.3788 20.4751 30.4238 20.569C30.4466 20.6164 30.4612 20.6554 30.4697 20.6871L30.4805 20.7614C30.4777 20.954 30.3683 21.0727 30.2266 21.1188C30.0987 21.1603 29.9455 21.1414 29.8203 21.0319L29.7686 20.9791L29.7676 20.9781C29.5682 20.7442 29.3824 20.451 29.1807 20.1256C28.9982 19.8313 28.8003 19.5088 28.584 19.2262C28.5418 19.1036 28.5528 18.9745 28.6084 18.8805L28.6074 18.8795H28.6084C28.6091 18.8785 28.6109 18.8765 28.6123 18.8746C28.6151 18.8709 28.6186 18.8653 28.624 18.859C28.6355 18.8457 28.6521 18.8294 28.6738 18.8092C28.7182 18.768 28.7783 18.7197 28.8535 18.6656C29.0044 18.5572 29.1951 18.4391 29.4033 18.317C29.5066 18.2565 29.612 18.1963 29.7168 18.1364C29.8209 18.0768 29.9253 18.0169 30.0234 17.9596C30.2127 17.8489 30.3993 17.7338 30.5342 17.6295L30.5352 17.6305C30.5352 17.6305 30.5362 17.6294 30.54 17.6266C30.5438 17.6238 30.5515 17.6181 30.5596 17.6119C30.5749 17.6002 30.6035 17.578 30.6328 17.5465C30.6961 17.4784 30.7878 17.3375 30.752 17.1451L30.7334 17.0426L30.667 16.9635L29.002 14.9508L28.9561 14.8951L28.8936 14.859L28.8027 14.8199C28.713 14.7922 28.6291 14.7979 28.5684 14.8112C28.4921 14.8279 28.4319 14.8603 28.3945 14.8834C28.3198 14.9297 28.2543 14.9901 28.2109 15.0328C28.1643 15.0789 28.1191 15.129 28.0879 15.1627L28.0449 15.2086L28.0439 15.2096C27.9139 15.3169 27.7547 15.4278 27.6162 15.4996L27.4863 15.5563C27.2867 15.6251 26.8409 15.6586 26.3271 15.6393C25.9482 15.625 25.5887 15.5845 25.3359 15.5328L25.1221 15.4781C24.8996 15.4039 24.8174 15.2122 24.8525 15.0348C24.87 14.9468 24.9165 14.8703 24.9863 14.818C25.0535 14.7677 25.1674 14.7202 25.3525 14.735V14.736C25.5941 14.7555 25.8292 14.8065 26.1553 14.8512C26.4133 14.8865 26.7097 14.9134 26.999 14.8746L27.1221 14.8541C27.3544 14.8065 27.5323 14.6623 27.6582 14.5338C27.7873 14.402 27.9022 14.243 27.999 14.1051C28.1033 13.9567 28.1865 13.8337 28.2715 13.7281C28.3159 13.6729 28.3507 13.6355 28.377 13.611L28.4297 13.5699C28.5365 13.5174 28.6057 13.5144 28.6504 13.5201Z" stroke="url(#paint1_linear_76_4853)" stroke-width="0.8"/>
<path d="M23.2568 16.2992C23.2478 16.6623 23.2515 17.0294 23.2598 17.3959H23.1084V16.9955H12.0186C12.0211 16.7622 12.019 16.5297 12.0127 16.2992H23.2568Z" fill="#FF8303" stroke="#FF8303" stroke-width="0.8"/>
<path d="M14.5215 4.99011V10.1444H12.4912L9.36523 9.90613V4.99011H14.5215Z" stroke="url(#paint2_linear_76_4853)" stroke-width="0.8"/>
<path d="M7.36719 16.9584L7.07617 16.1273L7.36719 16.0756V16.9584ZM18.7383 12.3949C18.8092 12.4015 18.8622 12.4093 18.9023 12.4193C18.8997 12.4321 18.8977 12.4462 18.8945 12.4613C18.8826 12.5174 18.8668 12.5852 18.8506 12.6566C18.8381 12.6038 18.817 12.5428 18.7725 12.4847C18.7417 12.4447 18.7059 12.4131 18.6689 12.3881C18.695 12.3902 18.7191 12.3931 18.7383 12.3949Z" stroke="url(#paint3_linear_76_4853)" stroke-width="0.8"/>
<path d="M26.54 11.6163C26.8755 11.5774 27.1022 11.6712 27.2529 11.8068C27.4115 11.9494 27.5155 12.166 27.543 12.4083C27.5956 12.8749 27.3719 13.2879 26.9258 13.3868L26.834 13.4025C26.4751 13.4447 26.2332 13.3484 26.0752 13.212C25.9104 13.0697 25.8042 12.8556 25.7773 12.6173C25.7265 12.1651 25.9531 11.7377 26.4395 11.6329L26.54 11.6163Z" stroke="url(#paint4_linear_76_4853)" stroke-width="0.8"/>
<mask id="path-7-inside-1_76_4853" fill="white">
<path d="M16.7099 4.93083L25.1885 4.92236C25.5443 4.96472 25.5459 5.41445 25.1885 5.45603H16.7677C16.4265 5.44217 16.3672 4.99244 16.7099 4.93083Z"/>
</mask>
<path d="M16.7099 4.93083L16.7091 4.13083L16.6382 4.13091L16.5683 4.14346L16.7099 4.93083ZM25.1885 4.92236L25.2831 4.12797L25.2356 4.12232L25.1877 4.12236L25.1885 4.92236ZM25.1885 5.45603V6.25603H25.2349L25.281 6.25067L25.1885 5.45603ZM16.7677 5.45603L16.7352 6.25537L16.7514 6.25603H16.7677V5.45603ZM16.7107 5.73083L25.1893 5.72236L25.1877 4.12236L16.7091 4.13083L16.7107 5.73083ZM25.094 5.71675C25.0121 5.70701 24.8961 5.66434 24.7985 5.55762C24.7048 5.45516 24.6562 5.32305 24.6559 5.19074C24.6557 5.05829 24.7041 4.92478 24.7992 4.82095C24.898 4.71295 25.0151 4.67081 25.0961 4.6614L25.281 6.25067C25.8428 6.18529 26.2568 5.73819 26.2559 5.18823C26.2551 4.64106 25.8433 4.19466 25.2831 4.12797L25.094 5.71675ZM25.1885 4.65603H16.7677V6.25603H25.1885V4.65603ZM16.8001 4.65669C17.0304 4.66605 17.2455 4.85664 17.2766 5.11597C17.2913 5.23844 17.2646 5.38263 17.1723 5.50896C17.0748 5.64241 16.9445 5.70148 16.8514 5.71821L16.5683 4.14346C16.3039 4.19099 16.0526 4.32938 15.8805 4.56492C15.7136 4.79333 15.6587 5.06237 15.688 5.3067C15.7484 5.80977 16.1637 6.23215 16.7352 6.25537L16.8001 4.65669Z" fill="url(#paint5_linear_76_4853)" mask="url(#path-7-inside-1_76_4853)"/>
<mask id="path-9-inside-2_76_4853" fill="white">
<path d="M16.6751 6.52638L25.1876 6.51868C25.5011 6.53562 25.5465 6.98535 25.2208 7.01923H16.6998C16.4318 6.98535 16.4179 6.59954 16.6751 6.52715V6.52638Z"/>
</mask>
<path d="M16.6751 6.52638L16.6744 5.72638L15.8751 5.7271V6.52638H16.6751ZM25.1876 6.51868L25.2308 5.71984L25.2089 5.71866L25.1869 5.71868L25.1876 6.51868ZM25.2208 7.01923V7.81923H25.2623L25.3035 7.81494L25.2208 7.01923ZM16.6998 7.01923L16.5994 7.81291L16.6494 7.81923H16.6998V7.01923ZM16.6751 6.52715L16.8919 7.29723L17.4751 7.13308V6.52715H16.6751ZM16.6759 7.32638L25.1884 7.31868L25.1869 5.71868L16.6744 5.72638L16.6759 7.32638ZM25.1445 7.31751C24.8536 7.30179 24.6656 7.05787 24.6466 6.8285C24.6372 6.71423 24.6639 6.56897 24.7653 6.4384C24.8755 6.29648 25.0247 6.23531 25.138 6.22353L25.3035 7.81494C25.5797 7.78621 25.8454 7.65612 26.0289 7.41981C26.2036 7.19486 26.2604 6.92976 26.2412 6.6967C26.2026 6.22976 25.8351 5.75251 25.2308 5.71984L25.1445 7.31751ZM25.2208 6.21923H16.6998V7.81923H25.2208V6.21923ZM16.8001 6.22555C16.9322 6.24225 17.0659 6.31133 17.1619 6.42684C17.2504 6.53331 17.2853 6.65211 17.2897 6.75258C17.2983 6.94845 17.1802 7.21608 16.8919 7.29723L16.4584 5.75706C15.9128 5.91061 15.6731 6.40733 15.6913 6.82268C15.7099 7.24866 16.0104 7.73844 16.5994 7.81291L16.8001 6.22555ZM17.4751 6.52715V6.52638H15.8751V6.52715H17.4751Z" fill="url(#paint6_linear_76_4853)" mask="url(#path-9-inside-2_76_4853)"/>
<mask id="path-11-inside-3_76_4853" fill="white">
<path d="M25.3926 8.19216C25.5105 8.33847 25.415 8.6003 25.2217 8.61647H16.7338C16.4504 8.58952 16.3896 8.24837 16.6499 8.13055L25.2787 8.12439C25.301 8.12978 25.3796 8.17445 25.3934 8.19139L25.3926 8.19216Z"/>
</mask>
<path d="M25.3926 8.19216L24.8274 7.62604L24.3187 8.13399L24.7696 8.69391L25.3926 8.19216ZM25.2217 8.61647V9.41647H25.2551L25.2884 9.41369L25.2217 8.61647ZM16.7338 8.61647L16.6581 9.41288L16.6959 9.41647H16.7338V8.61647ZM16.6499 8.13055L16.6493 7.33055L16.477 7.33067L16.32 7.40174L16.6499 8.13055ZM25.2787 8.12439L25.4664 7.34672L25.3736 7.32432L25.2781 7.32439L25.2787 8.12439ZM25.3934 8.19139L25.9587 8.7575L26.4714 8.24556L26.0126 7.6848L25.3934 8.19139ZM24.7696 8.69391C24.6101 8.49586 24.6324 8.28109 24.6781 8.16353C24.726 8.04026 24.8732 7.84283 25.155 7.81926L25.2884 9.41369C25.7634 9.37394 26.0551 9.03752 26.1696 8.74271C26.2818 8.45361 26.293 8.03477 26.0157 7.6904L24.7696 8.69391ZM25.2217 7.81647H16.7338V9.41647H25.2217V7.81647ZM16.8096 7.82007C17.0134 7.83946 17.2297 8.00548 17.276 8.26965C17.323 8.5382 17.1707 8.77295 16.9798 8.85936L16.32 7.40174C15.8688 7.60597 15.6167 8.07021 15.6999 8.54553C15.7824 9.01647 16.1708 9.36654 16.6581 9.41288L16.8096 7.82007ZM16.6504 8.93055L25.2792 8.92439L25.2781 7.32439L16.6493 7.33055L16.6504 8.93055ZM25.091 8.90206C25.0351 8.88858 24.9951 8.87206 24.9856 8.86818C24.97 8.86178 24.9591 8.85656 24.9544 8.85429C24.9449 8.84965 24.9402 8.84693 24.939 8.84628C24.9384 8.84589 24.9314 8.84189 24.919 8.83341C24.9131 8.8293 24.8993 8.81964 24.8815 8.80521C24.8712 8.79687 24.8242 8.75904 24.7743 8.69798L26.0126 7.6848C25.9281 7.58159 25.8304 7.51833 25.8265 7.51565C25.7949 7.49386 25.7642 7.47518 25.7394 7.46084C25.7141 7.44623 25.6847 7.43027 25.6537 7.41521C25.6437 7.41031 25.565 7.37053 25.4664 7.34672L25.091 8.90206ZM24.8282 7.62527L24.8274 7.62604L25.9579 8.75827L25.9587 8.7575L24.8282 7.62527Z" fill="url(#paint7_linear_76_4853)" mask="url(#path-11-inside-3_76_4853)"/>
<mask id="path-13-inside-4_76_4853" fill="white">
<path d="M16.6417 9.71925L25.2212 9.71155C25.5669 9.75159 25.4884 10.229 25.1557 10.2129H16.8003C16.4838 10.2267 16.3683 9.88482 16.6424 9.71925H16.6417Z"/>
</mask>
<path d="M16.6417 9.71925L16.6409 8.91925L16.6417 10.5192V9.71925ZM25.2212 9.71155L25.3132 8.91686L25.267 8.91151L25.2205 8.91155L25.2212 9.71155ZM25.1557 10.2129L25.1946 9.41382L25.1752 9.41287H25.1557V10.2129ZM16.8003 10.2129V9.41287H16.7828L16.7653 9.41364L16.8003 10.2129ZM16.6424 9.71925L17.056 10.4041L19.5146 8.91925H16.6424V9.71925ZM16.6424 10.5192L25.2219 10.5115L25.2205 8.91155L16.6409 8.91925L16.6424 10.5192ZM25.1291 10.5062C25.0199 10.4936 24.8651 10.4305 24.7541 10.2762C24.6526 10.1349 24.6345 9.98186 24.6514 9.86685C24.6856 9.63435 24.8988 9.39944 25.1946 9.41382L25.1169 11.0119C25.7453 11.0425 26.1641 10.5769 26.2343 10.0997C26.2693 9.86237 26.2268 9.58344 26.0531 9.34193C25.87 9.08736 25.5953 8.94953 25.3132 8.91686L25.1291 10.5062ZM25.1557 9.41287H16.8003V11.0129H25.1557V9.41287ZM16.7653 9.41364C16.9165 9.40701 17.1682 9.50335 17.2602 9.78457C17.3568 10.0799 17.1945 10.3204 17.056 10.4041L16.2289 9.03445C15.8162 9.28367 15.5745 9.77787 15.7395 10.2821C15.8999 10.7722 16.3675 11.0326 16.8353 11.0121L16.7653 9.41364ZM16.6424 8.91925H16.6417V10.5192H16.6424V8.91925Z" fill="url(#paint8_linear_76_4853)" mask="url(#path-13-inside-4_76_4853)"/>
<path d="M24.0518 13.2377L24.0576 13.2552C23.9868 13.3016 23.9225 13.3509 23.8652 13.4008C23.8324 13.4294 23.7992 13.463 23.7646 13.4965C23.6264 13.3974 23.4795 13.3109 23.3271 13.2377H24.0518Z" stroke="url(#paint9_linear_76_4853)" stroke-width="0.8"/>
<path d="M7.83105 20.796C8.04727 20.7757 8.17145 20.8455 8.24707 20.9279C8.3325 21.021 8.38664 21.1657 8.38379 21.3263C8.38088 21.4868 8.32228 21.6241 8.23535 21.7081C8.16825 21.773 8.05741 21.8332 7.86914 21.8234L7.78418 21.8146C7.52143 21.776 7.37501 21.5652 7.38281 21.297C7.38957 21.0658 7.5095 20.8763 7.73047 20.8146L7.83105 20.796Z" stroke="url(#paint10_linear_76_4853)" stroke-width="0.8"/>
<mask id="path-17-inside-5_76_4853" fill="white">
<path d="M22.7257 11.4088C22.9991 11.4573 23.0831 11.8431 22.785 11.934L20.2168 11.9371C20.1937 11.7299 20.025 11.5906 19.9473 11.4088H22.7257Z"/>
</mask>
<path d="M22.7257 11.4088L22.8655 10.6211L22.7962 10.6088H22.7257V11.4088ZM22.785 11.934L22.786 12.734L22.9048 12.7339L23.0184 12.6992L22.785 11.934ZM20.2168 11.9371L19.4217 12.0258L19.5012 12.738L20.2178 12.7371L20.2168 11.9371ZM19.9473 11.4088V10.6088H18.7347L19.2118 11.7236L19.9473 11.4088ZM22.5859 12.1965C22.3583 12.1561 22.2099 11.9741 22.1794 11.7798C22.1629 11.6752 22.1755 11.5398 22.2536 11.4094C22.3362 11.2715 22.457 11.1977 22.5517 11.1688L23.0184 12.6992C23.2621 12.6249 23.4841 12.4688 23.6263 12.2315C23.7639 12.0017 23.7943 11.7497 23.7599 11.5313C23.6936 11.1092 23.3666 10.71 22.8655 10.6211L22.5859 12.1965ZM22.7841 11.134L20.2158 11.1371L20.2178 12.7371L22.786 12.734L22.7841 11.134ZM21.0119 11.8484C20.9785 11.5494 20.8414 11.3312 20.7714 11.2245C20.7531 11.1966 20.7346 11.1696 20.7219 11.1509C20.7076 11.1299 20.6983 11.1162 20.6904 11.104C20.6744 11.0792 20.6766 11.0796 20.6827 11.0941L19.2118 11.7236C19.2568 11.8289 19.3093 11.9149 19.3475 11.9738C19.3667 12.0034 19.3855 12.0312 19.3994 12.0515C19.4149 12.0742 19.4246 12.0885 19.4337 12.1024C19.4732 12.1626 19.432 12.1177 19.4217 12.0258L21.0119 11.8484ZM19.9473 12.2088H22.7257V10.6088H19.9473V12.2088Z" fill="url(#paint11_linear_76_4853)" mask="url(#path-17-inside-5_76_4853)"/>
<mask id="path-19-inside-6_76_4853" fill="white">
<path d="M10.5958 20.3556C10.5958 20.6005 10.5842 20.8461 10.6289 21.0872H9.26432C9.24507 20.8115 9.10029 20.5643 8.93164 20.3556H10.5958Z"/>
</mask>
<path d="M10.5958 20.3556H11.3958V19.5556H10.5958V20.3556ZM10.6289 21.0872V21.8872H11.5908L11.4155 20.9414L10.6289 21.0872ZM9.26432 21.0872L8.46626 21.1429L8.51824 21.8872H9.26432V21.0872ZM8.93164 20.3556V19.5556H7.25658L8.30942 20.8584L8.93164 20.3556ZM9.79579 20.3556C9.79579 20.5467 9.7803 20.8983 9.8423 21.2329L11.4155 20.9414C11.3882 20.7939 11.3958 20.6542 11.3958 20.3556H9.79579ZM10.6289 20.2872H9.26432V21.8872H10.6289V20.2872ZM10.0624 21.0314C10.0263 20.5151 9.76298 20.1115 9.55386 19.8528L8.30942 20.8584C8.4376 21.017 8.46381 21.1078 8.46626 21.1429L10.0624 21.0314ZM8.93164 21.1556H10.5958V19.5556H8.93164V21.1556Z" fill="url(#paint12_linear_76_4853)" mask="url(#path-19-inside-6_76_4853)"/>
<path d="M21.9766 19.1927V19.4232H13.293V19.1927H21.9766Z" fill="#FF8303" stroke="#FF8303" stroke-width="0.8"/>
<defs>
<linearGradient id="paint0_linear_76_4853" x1="17.5498" y1="0" x2="17.5498" y2="11.1092" gradientUnits="userSpaceOnUse">
<stop stop-color="#047CF4"/>
<stop offset="1" stop-color="#0431D7"/>
</linearGradient>
<linearGradient id="paint1_linear_76_4853" x1="29.3171" y1="13.1178" x2="29.3171" y2="22.6938" gradientUnits="userSpaceOnUse">
<stop stop-color="#047CF4"/>
<stop offset="1" stop-color="#0431D7"/>
</linearGradient>
<linearGradient id="paint2_linear_76_4853" x1="11.9431" y1="4.58972" x2="11.9431" y2="10.5456" gradientUnits="userSpaceOnUse">
<stop stop-color="#047CF4"/>
<stop offset="1" stop-color="#0431D7"/>
</linearGradient>
<linearGradient id="paint3_linear_76_4853" x1="10.1106" y1="8.77673" x2="10.1106" y2="20.8893" gradientUnits="userSpaceOnUse">
<stop stop-color="#047CF4"/>
<stop offset="1" stop-color="#0431D7"/>
</linearGradient>
<linearGradient id="paint4_linear_76_4853" x1="26.6607" y1="11.2072" x2="26.6607" y2="13.8127" gradientUnits="userSpaceOnUse">
<stop stop-color="#047CF4"/>
<stop offset="1" stop-color="#0431D7"/>
</linearGradient>
<linearGradient id="paint5_linear_76_4853" x1="20.9682" y1="4.92236" x2="20.9682" y2="5.45603" gradientUnits="userSpaceOnUse">
<stop stop-color="#047CF4"/>
<stop offset="1" stop-color="#0431D7"/>
</linearGradient>
<linearGradient id="paint6_linear_76_4853" x1="20.9675" y1="6.51868" x2="20.9675" y2="7.01923" gradientUnits="userSpaceOnUse">
<stop stop-color="#047CF4"/>
<stop offset="1" stop-color="#0431D7"/>
</linearGradient>
<linearGradient id="paint7_linear_76_4853" x1="20.9643" y1="8.12439" x2="20.9643" y2="8.61647" gradientUnits="userSpaceOnUse">
<stop stop-color="#047CF4"/>
<stop offset="1" stop-color="#0431D7"/>
</linearGradient>
<linearGradient id="paint8_linear_76_4853" x1="20.967" y1="9.71155" x2="20.967" y2="10.2133" gradientUnits="userSpaceOnUse">
<stop stop-color="#047CF4"/>
<stop offset="1" stop-color="#0431D7"/>
</linearGradient>
<linearGradient id="paint9_linear_76_4853" x1="22.3404" y1="12.8373" x2="22.3404" y2="14.0355" gradientUnits="userSpaceOnUse">
<stop stop-color="#047CF4"/>
<stop offset="1" stop-color="#0431D7"/>
</linearGradient>
<linearGradient id="paint10_linear_76_4853" x1="7.88301" y1="20.3927" x2="7.88301" y2="22.2238" gradientUnits="userSpaceOnUse">
<stop stop-color="#047CF4"/>
<stop offset="1" stop-color="#0431D7"/>
</linearGradient>
<linearGradient id="paint11_linear_76_4853" x1="21.4601" y1="11.4088" x2="21.4601" y2="11.9371" gradientUnits="userSpaceOnUse">
<stop stop-color="#047CF4"/>
<stop offset="1" stop-color="#0431D7"/>
</linearGradient>
<linearGradient id="paint12_linear_76_4853" x1="9.78027" y1="20.3556" x2="9.78027" y2="21.0872" gradientUnits="userSpaceOnUse">
<stop stop-color="#047CF4"/>
<stop offset="1" stop-color="#0431D7"/>
</linearGradient>
</defs>
</svg>
