<svg width="69" height="72" viewBox="0 0 69 72" fill="none" xmlns="http://www.w3.org/2000/svg">
<path d="M19.7896 32.061C19.7896 31.001 18.9272 30.1387 17.8671 30.1387H15.1803C14.1202 30.1387 13.2578 31.001 13.2578 32.061V34.2595C13.2578 35.3196 14.1202 36.182 15.1803 36.182H17.8671C18.9272 36.182 19.7896 35.3196 19.7896 34.2595V32.061ZM17.7056 34.0979H15.3418V32.2226H17.7056V34.0979Z" fill="#215CFF"/>
<path d="M10.7934 32.061C10.7934 31.001 9.93099 30.1387 8.87091 30.1387H6.18417C5.12409 30.1387 4.26172 31.001 4.26172 32.061V34.2595C4.26172 35.3196 5.12409 36.182 6.18417 36.182H8.87091C9.93099 36.182 10.7934 35.3196 10.7934 34.2595V32.061ZM8.70933 34.0979H6.34576V32.2226H8.70933V34.0979Z" fill="#215CFF"/>
<path d="M19.7896 39.9742C19.7896 38.9141 18.9272 38.0518 17.8671 38.0518H15.1803C14.1202 38.0518 13.2578 38.9141 13.2578 39.9742V42.1727C13.2578 43.2327 14.1202 44.095 15.1803 44.095H17.8671C18.9272 44.095 19.7896 43.2327 19.7896 42.1727V39.9742ZM17.7056 42.0111H15.3418V40.1358H17.7056V42.0111Z" fill="#215CFF"/>
<path d="M10.7934 39.9742C10.7934 38.9141 9.93099 38.0518 8.87091 38.0518H6.18417C5.12409 38.0518 4.26172 38.9141 4.26172 39.9742V42.1727C4.26172 43.2327 5.12409 44.095 6.18417 44.095H8.87091C9.93099 44.095 10.7934 43.2327 10.7934 42.1727V39.9742ZM8.70933 42.0111H6.34576V40.1358H8.70933V42.0111Z" fill="#215CFF"/>
<path d="M17.8671 45.9648H15.1803C14.1202 45.9648 13.2578 46.8272 13.2578 47.8873V50.0858C13.2578 51.1459 14.1202 52.0083 15.1803 52.0083H17.8671C18.9272 52.0083 19.7896 51.1459 19.7896 50.0858V47.8873C19.7895 46.8272 18.9271 45.9648 17.8671 45.9648ZM17.7054 49.9241H15.3417V48.0487H17.7054V49.9241Z" fill="#215CFF"/>
<path d="M8.87091 45.9648H6.18417C5.12409 45.9648 4.26172 46.8272 4.26172 47.8873V50.0858C4.26172 51.1459 5.12409 52.0083 6.18417 52.0083H8.87091C9.93099 52.0083 10.7934 51.1459 10.7934 50.0858V47.8873C10.7934 46.8272 9.93099 45.9648 8.87091 45.9648ZM8.70933 49.9241H6.34576V48.0487H8.70933V49.9241Z" fill="#215CFF"/>
<path d="M24.1744 52.0083H26.8611C27.9212 52.0083 28.7836 51.1459 28.7836 50.0858V47.8873C28.7836 46.8272 27.9212 45.9648 26.8611 45.9648H24.1744C23.1143 45.9648 22.252 46.8272 22.252 47.8873V50.0858C22.252 51.1459 23.1143 52.0083 24.1744 52.0083ZM24.336 48.049H26.6996V49.9244H24.336V48.049Z" fill="#215CFF"/>
<path d="M68.8621 62.4826L67.191 59.5607L68.2668 48.8976C68.8118 43.4953 66.6583 38.181 62.5061 34.682L53.7413 27.2964L44.5979 11.3091C44.0183 10.2956 43.0785 9.56838 41.952 9.26161C40.8254 8.95498 39.6467 9.10503 38.6333 9.68481L32.9521 12.934V6.28825C32.9521 3.0648 30.3296 0.442383 27.1063 0.442383H5.93961C2.71616 0.442383 0.09375 3.0648 0.09375 6.28825V50.5954C0.09375 53.6173 2.39842 56.1109 5.34233 56.411V68.4276C5.34233 68.912 5.58671 69.3561 5.99616 69.6152C6.40574 69.8744 6.91175 69.9053 7.34953 69.698L9.63155 68.6176L12.5777 69.8943C12.7555 69.9713 12.9457 70.0098 13.1361 70.0098C13.3336 70.0098 13.5312 69.9684 13.7149 69.8854L16.5305 68.6137L19.4618 69.8911C19.8342 70.0534 20.2583 70.047 20.6254 69.873L23.2678 68.6212L25.7225 69.7229C26.1594 69.9188 26.6599 69.8805 27.0619 69.6203C27.4637 69.3601 27.7036 68.9191 27.7036 68.4403V56.411C30.6475 56.1109 32.9522 53.6173 32.9522 50.5954V47.1412L34.2369 49.3875C34.376 49.6307 34.5363 49.857 34.7145 50.0652L34.2679 52.2991C34.0772 53.2533 34.2696 54.2244 34.8094 55.034C35.3491 55.8436 36.1719 56.3945 37.126 56.5851C37.3663 56.6332 37.6078 56.6569 37.8475 56.6569C38.5592 56.6569 39.2553 56.4475 39.8609 56.0438C39.8715 56.0367 39.8815 56.0292 39.8919 56.0221C40.4083 56.8134 41.229 57.4054 42.2266 57.6047C42.4635 57.6521 42.7012 57.675 42.9367 57.675C43.5409 57.675 44.13 57.5225 44.6535 57.2427C45.9687 61.1259 48.3021 64.6429 51.4426 67.3582L52.1751 67.9916L53.9139 71.0318C54.1063 71.3681 54.4578 71.5567 54.8193 71.5567C54.9948 71.5567 55.1725 71.5124 55.3357 71.419C55.8352 71.1333 56.0086 70.4967 55.7229 69.9971L53.8959 66.8024C53.8374 66.7002 53.7621 66.6086 53.6729 66.5315L52.8058 65.7818C48.4554 62.0203 45.8064 56.5681 45.5383 50.8231L45.1755 43.0543C45.1526 42.5619 45.0111 42.0753 44.7662 41.647L41.2051 35.4204C40.9431 34.9624 40.8751 34.4297 41.0139 33.9205C41.1527 33.4113 41.4813 32.9866 41.9394 32.7247C42.3976 32.4626 42.93 32.3944 43.4395 32.5335C43.9487 32.6721 44.3734 33.0007 44.6353 33.4588L46.6251 36.938C46.9109 37.4376 47.5475 37.6109 48.0469 37.3254C48.5465 37.0396 48.7199 36.403 48.4342 35.9035L46.4445 32.4243C45.9062 31.483 45.0335 30.8076 43.9872 30.5227C42.9408 30.2379 41.8462 30.3773 40.9049 30.9157C38.9617 32.0271 38.285 34.5122 39.3963 36.4554L42.9574 42.6818C43.0391 42.8247 43.0863 42.9872 43.094 43.1515L43.2671 46.8582L39.1671 49.203C38.6368 49.5063 38.0202 49.5851 37.4307 49.4243C36.8412 49.2639 36.3495 48.8833 36.0462 48.353L27.8498 34.0218C27.564 33.5222 26.9272 33.3486 26.4279 33.6346C25.9284 33.9202 25.755 34.5568 26.0407 35.0564L27.9461 38.388C27.6372 38.1761 27.2639 38.0516 26.8618 38.0516H24.1751C23.115 38.0516 22.2526 38.914 22.2526 39.9741V42.1726C22.2526 43.2325 23.115 44.0949 24.1751 44.0949H26.8618C27.9219 44.0949 28.7843 43.2325 28.7843 42.1726V39.9741C28.7843 39.9295 28.7805 39.8857 28.7776 39.8418L30.8683 43.4975V50.5956C30.8683 52.6699 29.1808 54.3574 27.1066 54.3574H5.93961C3.8653 54.3574 2.17779 52.6699 2.17779 50.5956V6.28825C2.17779 4.21393 3.8653 2.52642 5.93961 2.52642H27.1063C29.1805 2.52642 30.868 4.21393 30.868 6.28825V14.1259L28.784 15.3178V9.99575C28.784 9.07071 28.0314 8.3181 27.1063 8.3181H5.93961C5.01444 8.3181 4.26182 9.07071 4.26182 9.99589V14.4429C4.26182 15.0184 4.72837 15.485 5.30384 15.485C5.87931 15.485 6.34586 15.0184 6.34586 14.4429V10.4021H26.7V16.5096L22.0048 19.195C20.103 20.2826 19.3282 22.5924 20.1015 24.5754H6.34586V18.8836C6.34586 18.3081 5.87931 17.8416 5.30384 17.8416C4.72837 17.8416 4.26182 18.3081 4.26182 18.8836V24.9816C4.26182 25.9068 5.01444 26.6594 5.93961 26.6594H21.2381L23.8359 31.2017C24.1217 31.7011 24.7582 31.8745 25.2578 31.5889C25.7574 31.3032 25.9307 30.6666 25.645 30.167L22.1895 24.1252C21.5634 23.0304 21.9447 21.6302 23.0395 21.0042L39.6681 11.494C40.1984 11.1907 40.815 11.112 41.4045 11.2727C41.994 11.4332 42.4857 11.8137 42.789 12.344L56.6453 36.5721C56.9486 37.1024 57.0273 37.7191 56.8668 38.3086C56.7062 38.8981 56.3258 39.3897 55.7955 39.693L51.8815 41.9314L50.6386 39.7582C50.3528 39.2585 49.7161 39.0853 49.2167 39.3709C48.7172 39.6566 48.5439 40.2932 48.8295 40.7928L51.6406 45.7079C51.833 46.0443 52.1845 46.2328 52.546 46.2328C52.7215 46.2328 52.8992 46.1885 53.0625 46.0952C53.5619 45.8095 53.7353 45.1729 53.4497 44.6733L52.9162 43.7405L56.8301 41.5021C57.8437 40.9224 58.5708 39.9827 58.8776 38.8562C59.1844 37.7297 59.0341 36.551 58.4544 35.5374L56.75 32.5573L61.1631 36.276C64.7888 39.3312 66.6693 43.9715 66.1934 48.6887L65.0842 59.6839C65.0623 59.9 65.1086 60.1174 65.2164 60.3059L67.0533 63.5177C67.2457 63.8541 67.5972 64.0426 67.9587 64.0426C68.1342 64.0426 68.3119 63.9983 68.4752 63.9049C68.9746 63.6189 69.1479 62.9822 68.8621 62.4826ZM43.4564 50.9205C43.523 52.3446 43.7238 53.752 44.0479 55.1258C43.685 55.4935 43.1551 55.6651 42.6351 55.5613C41.7923 55.3929 41.2436 54.5701 41.412 53.7273L42.181 49.88L43.3759 49.1966L43.4564 50.9205ZM38.0384 51.5908C38.6386 51.5908 39.2321 51.4639 39.7883 51.2184L39.3684 53.3187C39.2868 53.7269 39.0511 54.079 38.7047 54.31C38.3582 54.5412 37.9426 54.6233 37.5344 54.5416C37.1262 54.4601 36.7742 54.2243 36.5431 53.8779C36.3121 53.5316 36.2298 53.116 36.3115 52.7077L36.5847 51.3412C36.6826 51.3754 36.7817 51.4075 36.8828 51.4352C37.2648 51.5392 37.6528 51.5908 38.0384 51.5908ZM26.7 42.0109H24.3364V40.1355H26.7V42.0109ZM25.6194 67.3923L23.8352 66.5917C23.4596 66.4233 23.0308 66.4276 22.6582 66.6039L20.0119 67.8575L17.0871 66.5829C16.7239 66.4245 16.3084 66.4273 15.9469 66.5905L13.1305 67.8626L10.1783 66.5833C9.99973 66.5059 9.80953 66.4673 9.61919 66.4673C9.41356 66.4673 9.20794 66.5125 9.0176 66.6025L7.42622 67.3559V56.4413H25.6194V67.3923Z" fill="#215CFF"/>
<path d="M40.087 19.285C40.2382 18.7297 39.9107 18.157 39.3554 18.0058C37.3036 17.4472 35.1569 17.7207 33.3108 18.7765C31.4649 19.8323 30.1406 21.5437 29.5818 23.5956C29.4306 24.151 29.7581 24.7237 30.3134 24.8748C30.4051 24.8998 30.4972 24.9118 30.5878 24.9118C31.0462 24.9118 31.4663 24.607 31.5926 24.1433C32.0051 22.6285 32.9828 21.365 34.3455 20.5857C35.7083 19.8063 37.2929 19.6043 38.8078 20.0168C39.3629 20.1678 39.9358 19.8402 40.087 19.285Z" fill="#FF8303"/>
<path d="M37.7127 24.0396C38.2676 24.1905 38.8406 23.8633 38.992 23.3081C39.1433 22.7529 38.8157 22.1801 38.2605 22.0288C37.2824 21.7624 36.2596 21.8922 35.3808 22.3946C34.5022 22.897 33.8717 23.7125 33.6052 24.6911C33.4541 25.2464 33.7815 25.8191 34.3369 25.9702C34.4286 25.9953 34.5207 26.0072 34.6113 26.0072C35.0696 26.0072 35.4897 25.7024 35.616 25.2387C35.7362 24.7973 36.0202 24.4299 36.4155 24.2037C36.8107 23.9778 37.2715 23.9194 37.7127 24.0396Z" fill="#FF8303"/>
<path d="M37.306 27.8601C37.4984 28.1965 37.8499 28.385 38.2114 28.385C38.3869 28.385 38.5646 28.3407 38.7278 28.2473C39.2273 27.9617 39.4007 27.3251 39.1151 26.8254L38.769 26.2202C38.4832 25.7206 37.8466 25.5472 37.3471 25.833C36.8476 26.1187 36.6742 26.7553 36.9599 27.2549L37.306 27.8601Z" fill="#FF8303"/>
</svg>
