<svg width="34" height="30" viewBox="0 0 34 30" fill="none" xmlns="http://www.w3.org/2000/svg">
<path d="M2.09357 0.616702C2.1653 0.616424 2.23703 0.616145 2.31093 0.615858C2.42968 0.615875 2.42968 0.615875 2.55082 0.615893C2.63549 0.615687 2.72015 0.615454 2.80482 0.615196C3.038 0.61457 3.27117 0.614338 3.50435 0.614172C3.75564 0.613928 4.00692 0.61333 4.25821 0.612784C4.86529 0.611548 5.47238 0.610919 6.07946 0.610363C6.36525 0.610089 6.65104 0.609754 6.93683 0.609427C7.88668 0.608363 8.83652 0.607457 9.78637 0.607005C10.0329 0.606885 10.2794 0.606765 10.5259 0.606643C10.5872 0.606613 10.6485 0.606583 10.7116 0.606552C11.7045 0.606033 12.6974 0.604449 13.6904 0.602419C14.7094 0.600353 15.7285 0.599227 16.7476 0.599027C17.3199 0.598892 17.8922 0.598344 18.4645 0.596748C18.9518 0.595393 19.4391 0.594888 19.9265 0.595496C20.1751 0.595781 20.4238 0.595659 20.6724 0.594448C20.9001 0.593349 21.1278 0.593407 21.3555 0.59438C21.4768 0.594599 21.598 0.593587 21.7193 0.592529C22.1396 0.595643 22.4114 0.618617 22.7506 0.875091C22.9792 1.12175 23.0707 1.30812 23.0714 1.64272C23.0717 1.69731 23.072 1.7519 23.0723 1.80814C23.0722 1.86785 23.0722 1.92757 23.0722 1.98909C23.0725 2.08363 23.0725 2.08363 23.0728 2.18007C23.0734 2.38888 23.0735 2.59768 23.0736 2.80649C23.0738 2.95135 23.074 3.09622 23.0742 3.24108C23.0746 3.54492 23.0747 3.84876 23.0747 4.1526C23.0747 4.54233 23.0755 4.93206 23.0766 5.32179C23.0773 5.62102 23.0774 5.92025 23.0774 6.21949C23.0775 6.3632 23.0777 6.50691 23.0782 6.65062C23.0788 6.85142 23.0786 7.0522 23.0783 7.25301C23.0786 7.31259 23.079 7.37218 23.0793 7.43357C23.0789 7.51572 23.0789 7.51572 23.0785 7.59952C23.0786 7.64698 23.0786 7.69444 23.0786 7.74334C23.061 7.89301 23.0072 7.99243 22.9381 8.12509C22.9536 8.25469 22.9536 8.25469 23.0006 8.37509C23.0583 8.54833 23.071 8.65152 23.0714 8.83022C23.0717 8.88481 23.072 8.9394 23.0723 8.99564C23.0722 9.05535 23.0722 9.11507 23.0722 9.17659C23.0725 9.27112 23.0725 9.27112 23.0728 9.36757C23.0734 9.57638 23.0735 9.78518 23.0736 9.99399C23.0738 10.1389 23.074 10.2837 23.0742 10.4286C23.0746 10.7324 23.0747 11.0363 23.0747 11.3401C23.0747 11.7298 23.0755 12.1196 23.0766 12.5093C23.0773 12.8085 23.0774 13.1078 23.0774 13.407C23.0775 13.5507 23.0777 13.6944 23.0782 13.8381C23.0788 14.0389 23.0786 14.2397 23.0783 14.4405C23.0786 14.5001 23.079 14.5597 23.0793 14.6211C23.0789 14.7032 23.0789 14.7032 23.0785 14.787C23.0786 14.8345 23.0786 14.8819 23.0786 14.9308C23.061 15.0806 23.0062 15.1793 22.9381 15.3126C22.9578 15.4785 22.9885 15.6008 23.0631 15.7501C23.0692 15.8363 23.0715 15.9229 23.0719 16.0094C23.0722 16.0637 23.0726 16.118 23.0729 16.174C23.073 16.2337 23.0731 16.2935 23.0732 16.355C23.0735 16.4178 23.0738 16.4806 23.0741 16.5454C23.075 16.7539 23.0754 16.9624 23.0758 17.171C23.0761 17.3156 23.0765 17.4603 23.0769 17.605C23.0775 17.9086 23.0779 18.2123 23.0781 18.516C23.0784 18.9051 23.0799 19.2942 23.0817 19.6833C23.0829 19.9823 23.0832 20.2812 23.0833 20.5802C23.0835 20.7236 23.084 20.8671 23.0848 21.0105C23.0859 21.2113 23.0858 21.412 23.0854 21.6128C23.0859 21.6721 23.0865 21.7313 23.0871 21.7923C23.0848 22.1625 23.0419 22.4428 22.7818 22.7279C22.4802 22.9628 22.2925 23.0079 21.9156 23.0076C21.8752 23.0077 21.8347 23.0077 21.793 23.0078C21.6571 23.0079 21.5212 23.0075 21.3853 23.0072C21.288 23.0072 21.1907 23.0072 21.0934 23.0072C20.8289 23.0072 20.5645 23.0069 20.3 23.0064C20.0238 23.006 19.7475 23.006 19.4712 23.0059C18.948 23.0057 18.4247 23.0052 17.9014 23.0046C17.3058 23.0039 16.7101 23.0036 16.1144 23.0032C14.889 23.0026 13.6635 23.0014 12.4381 23.0001C12.4381 23.722 12.4381 24.4438 12.4381 25.1876C12.7915 25.1778 12.7915 25.1778 13.1448 25.1651C13.481 25.1604 13.6766 25.2067 13.9381 25.4376C14.1256 25.7501 14.1256 25.7501 14.1256 26.8751C15.8375 26.8751 17.5493 26.8751 19.3131 26.8751C19.375 26.6895 19.4368 26.5038 19.5006 26.3126C19.7694 25.8648 20.1976 25.6089 20.691 25.462C21.2331 25.3536 21.7464 25.4801 22.2069 25.7818C22.5994 26.0997 22.8601 26.4978 22.9381 27.0001C22.9913 27.5604 22.8558 28.0585 22.5006 28.5001C22.1009 28.9313 21.6784 29.1229 21.0904 29.1485C20.5937 29.1292 20.1285 28.9417 19.776 28.5875C19.5396 28.3244 19.3131 28.0552 19.3131 27.6876C17.6012 27.6876 15.8893 27.6876 14.1256 27.6876C14.1256 28.0588 14.1256 28.4301 14.1256 28.8126C13.817 29.2755 13.817 29.2755 13.5631 29.3751C13.3338 29.4023 13.1065 29.4029 12.8758 29.4022C12.8092 29.4025 12.7425 29.4028 12.6739 29.4032C12.5331 29.4036 12.3924 29.4035 12.2517 29.403C12.0367 29.4024 11.8219 29.4042 11.6069 29.4062C11.47 29.4063 11.3331 29.4063 11.1961 29.4061C11.1321 29.4068 11.068 29.4075 11.002 29.4082C10.6385 29.4047 10.4056 29.3814 10.1256 29.1251C9.93809 28.8126 9.93809 28.8126 9.93809 27.6876C8.22621 27.6876 6.51434 27.6876 4.75059 27.6876C4.68871 27.8732 4.62684 28.0588 4.56309 28.2501C4.30385 28.6718 3.88846 28.9831 3.4061 29.1009C2.8682 29.1845 2.34679 29.1384 1.89341 28.8175C1.45692 28.4457 1.16757 28.056 1.11069 27.4723C1.09351 26.8519 1.26028 26.3772 1.68833 25.9225C2.10098 25.5591 2.548 25.4114 3.09263 25.4205C3.6253 25.4781 4.09499 25.7129 4.43809 26.1251C4.75059 26.6335 4.75059 26.6335 4.75059 26.8751C6.46246 26.8751 8.17434 26.8751 9.93809 26.8751C9.93809 26.5038 9.93809 26.1326 9.93809 25.7501C10.2446 25.2903 10.2446 25.2903 10.5006 25.1876C10.6956 25.1666 10.8868 25.1699 11.0826 25.1759C11.2618 25.1797 11.441 25.1836 11.6256 25.1876C11.6256 24.4657 11.6256 23.7438 11.6256 23.0001C11.3284 23.0011 11.0312 23.0021 10.725 23.0031C9.74416 23.0062 8.76328 23.0083 7.78239 23.0098C7.18757 23.0108 6.59275 23.0121 5.99793 23.0142C5.47948 23.0161 4.96103 23.0173 4.44257 23.0177C4.16806 23.018 3.89355 23.0186 3.61904 23.0199C3.3606 23.0212 3.10216 23.0216 2.84372 23.0213C2.74893 23.0214 2.65415 23.0217 2.55937 23.0224C2.42975 23.0234 2.30019 23.0232 2.17057 23.0226C2.06186 23.0229 2.06186 23.0229 1.95095 23.0232C1.68252 22.9923 1.47124 22.9019 1.2728 22.7166C1.0903 22.478 0.992883 22.3494 0.992229 22.0509C0.991962 21.9961 0.991695 21.9412 0.991421 21.8847C0.991449 21.8244 0.991477 21.7641 0.991507 21.7019C0.991297 21.6385 0.991087 21.5751 0.99087 21.5097C0.990275 21.2992 0.990155 21.0886 0.990088 20.878C0.989887 20.732 0.989677 20.5859 0.989457 20.4399C0.989082 20.1332 0.988967 19.8266 0.989004 19.52C0.98901 19.1271 0.988158 18.7342 0.987081 18.3413C0.986386 18.0395 0.986259 17.7376 0.986292 17.4357C0.986218 17.2909 0.985942 17.1461 0.985459 17.0013C0.984846 16.7985 0.985026 16.5958 0.985403 16.3931C0.985052 16.3333 0.984701 16.2735 0.984339 16.2118C0.9855 15.9657 0.991453 15.7768 1.07185 15.5419C1.14108 15.327 1.08577 15.2681 1.00059 15.0626C0.980746 14.8534 0.983515 14.6444 0.984411 14.4344C0.984083 14.3398 0.984083 14.3398 0.983747 14.2434C0.983198 14.0352 0.983561 13.8271 0.983984 13.619C0.9839 13.4743 0.983778 13.3296 0.983622 13.1849C0.983437 12.8818 0.983705 12.5787 0.984289 12.2756C0.985002 11.8869 0.984591 11.4982 0.983843 11.1094C0.983391 10.8107 0.983535 10.512 0.983859 10.2133C0.983942 10.07 0.983839 9.9266 0.983549 9.78325C0.983232 9.58305 0.983714 9.38288 0.984411 9.18269C0.984032 9.09361 0.984032 9.09361 0.983644 9.00272C0.983997 8.94814 0.984349 8.89355 0.984713 8.83732C0.98476 8.79002 0.984807 8.74272 0.984855 8.69399C1.00274 8.54463 1.05668 8.44505 1.12559 8.31259C1.11011 8.18299 1.11011 8.18299 1.06309 8.06259C1.00549 7.88979 0.992509 7.78653 0.991808 7.6083C0.991273 7.52669 0.991273 7.52669 0.990726 7.44343C0.990657 7.38391 0.990587 7.3244 0.990515 7.26308C0.990204 7.20025 0.989894 7.13743 0.989574 7.0727C0.98866 6.8645 0.988235 6.6563 0.98789 6.44809C0.987531 6.30352 0.987171 6.15896 0.986811 6.01439C0.986154 5.71108 0.985789 5.40776 0.985571 5.10445C0.985228 4.71584 0.983726 4.32726 0.981948 3.93866C0.980783 3.63996 0.980458 3.34126 0.980362 3.04255C0.980173 2.89929 0.979671 2.75604 0.978851 2.61278C0.977785 2.4123 0.977902 2.21185 0.978308 2.01137C0.977732 1.95223 0.977156 1.89309 0.976562 1.83216C0.978906 1.46227 1.02203 1.18215 1.28184 0.897308C1.56287 0.678483 1.74234 0.617334 2.09357 0.616702ZM1.81309 1.56259C1.80032 1.7559 1.79539 1.94364 1.79592 2.13705C1.7956 2.19661 1.79528 2.25617 1.79495 2.31753C1.79408 2.51511 1.79414 2.71267 1.79429 2.91025C1.79404 3.04709 1.79377 3.18394 1.79348 3.32078C1.79301 3.60787 1.79303 3.89495 1.79336 4.18204C1.79372 4.5507 1.79266 4.91934 1.79121 5.288C1.79029 5.57066 1.79023 5.85332 1.79043 6.13598C1.7904 6.27195 1.79007 6.40791 1.78944 6.54387C1.78867 6.73364 1.78909 6.92336 1.78982 7.11313C1.78934 7.16976 1.78886 7.22638 1.78837 7.28473C1.78759 7.45627 1.78759 7.45627 1.81309 7.68759C2.02315 7.82763 2.09098 7.82824 2.33646 7.82832C2.4066 7.82865 2.47674 7.82897 2.54901 7.82931C2.66509 7.82889 2.66509 7.82889 2.78352 7.82846C2.90645 7.82876 2.90645 7.82876 3.03187 7.82905C3.25983 7.82958 3.48778 7.82932 3.71574 7.82893C3.9614 7.82865 4.20706 7.82908 4.45271 7.82943C4.93415 7.82999 5.41558 7.82986 5.89701 7.8295C6.28817 7.82922 6.67932 7.82918 7.07048 7.82932C7.12608 7.82934 7.18168 7.82936 7.23896 7.82938C7.3519 7.82942 7.46485 7.82946 7.57779 7.8295C8.63766 7.82985 9.69753 7.82944 10.7574 7.82877C11.6675 7.82821 12.5775 7.82831 13.4876 7.82889C14.5436 7.82956 15.5996 7.82982 16.6556 7.82944C16.7681 7.8294 16.8807 7.82936 16.9932 7.82932C17.0486 7.8293 17.1039 7.82928 17.161 7.82926C17.5518 7.82915 17.9427 7.82933 18.3335 7.82963C18.8096 7.82998 19.2857 7.82989 19.7617 7.82922C20.0048 7.82889 20.2479 7.82876 20.4909 7.82917C20.754 7.82961 21.0171 7.82909 21.2801 7.82846C21.3575 7.82874 21.4349 7.82902 21.5147 7.82931C21.6199 7.82882 21.6199 7.82882 21.7272 7.82832C21.788 7.8283 21.8488 7.82828 21.9114 7.82826C22.0793 7.82283 22.0793 7.82283 22.2506 7.68759C22.2691 7.49203 22.2755 7.30884 22.2739 7.11313C22.2741 7.05357 22.2743 6.99401 22.2745 6.93265C22.2751 6.73507 22.2742 6.53752 22.2733 6.33993C22.2733 6.20309 22.2733 6.06624 22.2734 5.9294C22.2734 5.64231 22.2727 5.35523 22.2716 5.06815C22.2702 4.69949 22.2701 4.33084 22.2706 3.96218C22.2708 3.67952 22.2704 3.39686 22.2697 3.1142C22.2695 2.97824 22.2694 2.84227 22.2695 2.70631C22.2696 2.51655 22.2688 2.32681 22.2678 2.13705C22.2679 2.08043 22.2681 2.0238 22.2682 1.96546C22.2801 1.6713 22.2801 1.6713 22.1256 1.43759C21.9743 1.41861 21.9743 1.41861 21.7953 1.42186C21.7248 1.42153 21.6543 1.42121 21.5817 1.42087C21.4645 1.42129 21.4645 1.42129 21.345 1.42172C21.2213 1.42143 21.2213 1.42143 21.0951 1.42113C20.8655 1.4206 20.6358 1.42086 20.4062 1.42125C20.1588 1.42153 19.9115 1.4211 19.6641 1.42075C19.1792 1.4202 18.6943 1.42032 18.2095 1.42068C17.8155 1.42096 17.4216 1.421 17.0277 1.42086C16.9717 1.42084 16.9157 1.42083 16.858 1.42081C16.7444 1.42077 16.6307 1.42073 16.517 1.42068C15.4498 1.42033 14.3826 1.42074 13.3154 1.42141C12.3988 1.42197 11.4822 1.42187 10.5657 1.42129C9.50241 1.42063 8.43914 1.42036 7.37587 1.42075C7.26258 1.42079 7.14929 1.42083 7.036 1.42086C6.98026 1.42088 6.92451 1.4209 6.86707 1.42092C6.47342 1.42103 6.07977 1.42085 5.68612 1.42055C5.20668 1.4202 4.72723 1.4203 4.24778 1.42096C4.00296 1.42129 3.75814 1.42142 3.51332 1.42101C3.24843 1.42057 2.98356 1.42109 2.71867 1.42172C2.64057 1.42144 2.56247 1.42116 2.48201 1.42087C2.41151 1.4212 2.34102 1.42153 2.26839 1.42186C2.20718 1.42188 2.14597 1.4219 2.08291 1.42192C1.92596 1.42359 1.92596 1.42359 1.81309 1.56259ZM1.81309 8.75009C1.80065 8.94342 1.79605 9.13115 1.79691 9.32455C1.79669 9.38411 1.79647 9.44367 1.79625 9.50503C1.7957 9.70261 1.79606 9.90017 1.79648 10.0977C1.7964 10.2346 1.79628 10.3714 1.79612 10.5083C1.79594 10.7954 1.79621 11.0825 1.79679 11.3695C1.7975 11.7382 1.79709 12.1068 1.79634 12.4755C1.79589 12.7582 1.79603 13.0408 1.79636 13.3235C1.79644 13.4594 1.79634 13.5954 1.79605 13.7314C1.79573 13.9211 1.79621 14.1109 1.79691 14.3006C1.79666 14.3573 1.79641 14.4139 1.79614 14.4722C1.78367 14.7664 1.78367 14.7664 1.93809 15.0001C2.08937 15.0191 2.08937 15.0191 2.26839 15.0158C2.33889 15.0161 2.40938 15.0165 2.48201 15.0168C2.59916 15.0164 2.59916 15.0164 2.71867 15.016C2.80113 15.0162 2.88358 15.0164 2.96854 15.0166C3.19818 15.0171 3.42783 15.0168 3.65747 15.0164C3.90483 15.0162 4.15219 15.0166 4.39956 15.0169C4.88444 15.0175 5.36933 15.0174 5.85422 15.017C6.24815 15.0167 6.64207 15.0167 7.036 15.0168C7.09198 15.0168 7.14795 15.0169 7.20562 15.0169C7.31932 15.0169 7.43301 15.017 7.54671 15.017C8.61391 15.0174 9.68111 15.0169 10.7483 15.0163C11.6649 15.0157 12.5814 15.0158 13.498 15.0164C14.5613 15.0171 15.6245 15.0173 16.6878 15.0169C16.8011 15.0169 16.9144 15.0169 17.0277 15.0168C17.0834 15.0168 17.1392 15.0168 17.1966 15.0168C17.5902 15.0167 17.9839 15.0168 18.3775 15.0171C18.857 15.0175 19.3364 15.0174 19.8159 15.0167C20.0607 15.0164 20.3055 15.0163 20.5504 15.0167C20.8152 15.0171 21.0801 15.0166 21.345 15.016C21.4231 15.0162 21.5012 15.0165 21.5817 15.0168C21.6874 15.0163 21.6874 15.0163 21.7953 15.0158C21.8565 15.0158 21.9177 15.0158 21.9808 15.0158C22.1377 15.0141 22.1377 15.0141 22.2506 14.8751C22.263 14.6818 22.2676 14.494 22.2668 14.3006C22.267 14.2411 22.2672 14.1815 22.2674 14.1201C22.268 13.9226 22.2676 13.725 22.2672 13.5274C22.2673 13.3906 22.2674 13.2537 22.2675 13.1169C22.2677 12.8298 22.2675 12.5427 22.2669 12.2556C22.2662 11.887 22.2666 11.5183 22.2673 11.1497C22.2678 10.867 22.2676 10.5844 22.2673 10.3017C22.2672 10.1657 22.2673 10.0298 22.2676 9.89381C22.2679 9.70405 22.2675 9.51431 22.2668 9.32455C22.2671 9.23961 22.2671 9.23961 22.2675 9.15296C22.28 8.8588 22.28 8.8588 22.1256 8.62509C21.9743 8.6061 21.9743 8.6061 21.7953 8.60936C21.7248 8.60903 21.6543 8.60871 21.5817 8.60837C21.4645 8.60879 21.4645 8.60879 21.345 8.60922C21.2213 8.60893 21.2213 8.60893 21.0951 8.60863C20.8655 8.6081 20.6358 8.60836 20.4062 8.60875C20.1588 8.60903 19.9115 8.6086 19.6641 8.60825C19.1792 8.6077 18.6943 8.60782 18.2095 8.60818C17.8155 8.60846 17.4216 8.6085 17.0277 8.60836C16.9717 8.60835 16.9157 8.60833 16.858 8.60831C16.7444 8.60827 16.6307 8.60823 16.517 8.60818C15.4498 8.60783 14.3826 8.60824 13.3154 8.60891C12.3988 8.60947 11.4822 8.60937 10.5657 8.6088C9.50241 8.60813 8.43914 8.60786 7.37587 8.60825C7.26258 8.60829 7.14929 8.60833 7.036 8.60836C6.98026 8.60838 6.92451 8.6084 6.86707 8.60842C6.47342 8.60853 6.07977 8.60835 5.68612 8.60805C5.20668 8.6077 4.72723 8.6078 4.24778 8.60846C4.00296 8.60879 3.75814 8.60892 3.51332 8.60851C3.24843 8.60807 2.98356 8.60859 2.71867 8.60922C2.64057 8.60894 2.56247 8.60866 2.48201 8.60837C2.41151 8.6087 2.34102 8.60903 2.26839 8.60936C2.20718 8.60938 2.14597 8.6094 2.08291 8.60942C1.92596 8.61109 1.92596 8.61109 1.81309 8.75009ZM1.81309 15.9376C1.79455 16.1332 1.78816 16.3163 1.78982 16.5121C1.78959 16.5716 1.78936 16.6312 1.78912 16.6925C1.78862 16.8901 1.78947 17.0877 1.79038 17.2852C1.79041 17.4221 1.79038 17.5589 1.79029 17.6958C1.79029 17.9829 1.79094 18.27 1.79207 18.557C1.79349 18.9257 1.79353 19.2943 1.7931 19.663C1.7929 19.9457 1.79331 20.2283 1.79392 20.511C1.79417 20.6469 1.79424 20.7829 1.79414 20.9189C1.79412 21.1086 1.7949 21.2984 1.79592 21.4881C1.79576 21.5448 1.79561 21.6014 1.79545 21.6597C1.78357 21.9539 1.78357 21.9539 1.93809 22.1876C2.08937 22.2066 2.08937 22.2066 2.26839 22.2033C2.33889 22.2036 2.40938 22.204 2.48201 22.2043C2.59916 22.2039 2.59916 22.2039 2.71867 22.2035C2.80113 22.2037 2.88358 22.2039 2.96854 22.2041C3.19818 22.2046 3.42783 22.2043 3.65747 22.2039C3.90483 22.2036 4.15219 22.2041 4.39956 22.2044C4.88444 22.205 5.36933 22.2049 5.85422 22.2045C6.24815 22.2042 6.64207 22.2042 7.036 22.2043C7.09198 22.2043 7.14795 22.2044 7.20562 22.2044C7.31932 22.2044 7.43301 22.2045 7.54671 22.2045C8.61391 22.2049 9.68111 22.2044 10.7483 22.2038C11.6649 22.2032 12.5814 22.2033 13.498 22.2039C14.5613 22.2046 15.6245 22.2048 16.6878 22.2044C16.8011 22.2044 16.9144 22.2044 17.0277 22.2043C17.0834 22.2043 17.1392 22.2043 17.1966 22.2043C17.5902 22.2042 17.9839 22.2043 18.3775 22.2046C18.857 22.205 19.3364 22.2049 19.8159 22.2042C20.0607 22.2039 20.3055 22.2038 20.5504 22.2042C20.8152 22.2046 21.0801 22.2041 21.345 22.2035C21.4231 22.2037 21.5012 22.204 21.5817 22.2043C21.6874 22.2038 21.6874 22.2038 21.7953 22.2033C21.8565 22.2033 21.9177 22.2033 21.9808 22.2033C22.1377 22.2016 22.1377 22.2016 22.2506 22.0626C22.2634 21.8693 22.2683 21.6815 22.2678 21.4881C22.2681 21.4286 22.2684 21.369 22.2687 21.3076C22.2696 21.1101 22.2695 20.9125 22.2694 20.7149C22.2696 20.5781 22.2699 20.4412 22.2702 20.3044C22.2707 20.0173 22.2706 19.7302 22.2703 19.4431C22.27 19.0745 22.271 18.7058 22.2725 18.3372C22.2734 18.0545 22.2734 17.7719 22.2732 17.4892C22.2733 17.3532 22.2736 17.2173 22.2742 17.0813C22.275 16.8915 22.2746 16.7018 22.2739 16.5121C22.2743 16.4554 22.2748 16.3988 22.2753 16.3405C22.2761 16.1689 22.2761 16.1689 22.2506 15.9376C22.0405 15.7975 21.9727 15.7969 21.7272 15.7969C21.6571 15.7965 21.5869 15.7962 21.5147 15.7959C21.3986 15.7963 21.3986 15.7963 21.2801 15.7967C21.1572 15.7964 21.1572 15.7964 21.0318 15.7961C20.8038 15.7956 20.5759 15.7959 20.3479 15.7963C20.1023 15.7965 19.8566 15.7961 19.611 15.7958C19.1295 15.7952 18.6481 15.7953 18.1667 15.7957C17.7755 15.796 17.3844 15.796 16.9932 15.7959C16.9376 15.7958 16.882 15.7958 16.8247 15.7958C16.7118 15.7958 16.5988 15.7957 16.4859 15.7957C15.426 15.7953 14.3661 15.7957 13.3063 15.7964C12.3962 15.797 11.4861 15.7969 10.5761 15.7963C9.52006 15.7956 8.46407 15.7954 7.40808 15.7957C7.29554 15.7958 7.18301 15.7958 7.07048 15.7959C6.98742 15.7959 6.98742 15.7959 6.90268 15.7959C6.51184 15.796 6.12101 15.7958 5.73017 15.7956C5.25409 15.7952 4.77801 15.7953 4.30193 15.796C4.05887 15.7963 3.81582 15.7964 3.57276 15.796C3.30967 15.7956 3.0466 15.7961 2.78352 15.7967C2.70613 15.7964 2.62875 15.7962 2.54901 15.7959C2.4438 15.7964 2.4438 15.7964 2.33646 15.7969C2.2453 15.7969 2.2453 15.7969 2.1523 15.7969C1.98438 15.8023 1.98438 15.8023 1.81309 15.9376ZM10.7506 26.0001C10.7506 26.8457 10.7506 27.6913 10.7506 28.5626C11.5962 28.5626 12.4418 28.5626 13.3131 28.5626C13.3131 27.717 13.3131 26.8713 13.3131 26.0001C12.4675 26.0001 11.6218 26.0001 10.7506 26.0001ZM2.27183 26.5411C2.05806 26.7796 1.94738 26.9394 1.92246 27.2696C1.94733 27.6364 2.07445 27.8425 2.34434 28.0821C2.61428 28.3077 2.83834 28.3363 3.18809 28.3126C3.52432 28.1959 3.75684 27.9908 3.93809 27.6876C4.0385 27.3917 4.03024 27.1447 3.90293 26.8595C3.73667 26.5771 3.55467 26.3595 3.22568 26.2733C2.83323 26.2173 2.56357 26.25 2.27183 26.5411ZM20.2896 26.6329C20.0917 26.8844 20.04 27.1207 20.0631 27.4376C20.1657 27.816 20.3704 28.0349 20.6881 28.2501C20.9769 28.3464 21.2161 28.3463 21.5045 28.2462C21.79 28.0579 22.0164 27.8277 22.1256 27.5001C22.1504 27.1708 22.1209 26.9647 21.9381 26.6876C21.7313 26.4477 21.5369 26.296 21.2193 26.2462C20.8339 26.2298 20.5574 26.3594 20.2896 26.6329Z" fill="url(#paint0_linear_76_4834)"/>
<path d="M29.4366 1.68753C29.5691 1.79578 29.6864 1.90118 29.8062 2.02181C29.841 2.05587 29.8758 2.08993 29.9117 2.12503C30.026 2.23726 30.1393 2.35039 30.2525 2.46366C30.3319 2.54232 30.4112 2.62097 30.4906 2.69959C30.6565 2.86429 30.8219 3.02948 30.987 3.19499C31.1985 3.4069 31.4116 3.61719 31.6251 3.8271C31.7893 3.98897 31.9524 4.15183 32.1153 4.31499C32.1935 4.39296 32.272 4.47058 32.3508 4.54784C32.461 4.65599 32.5696 4.76544 32.6781 4.87532C32.7271 4.92264 32.7271 4.92264 32.7772 4.97091C32.9432 5.14233 32.998 5.24154 33.0309 5.48048C32.9991 5.68753 32.9991 5.68753 32.8116 5.87503C32.296 5.87503 31.7804 5.87503 31.2491 5.87503C31.2491 9.79378 31.2491 13.7125 31.2491 17.75C31.7648 17.75 32.2804 17.75 32.8116 17.75C32.9991 17.9375 32.9991 17.9375 33.0313 18.1442C32.9912 18.4317 32.873 18.5624 32.6723 18.7565C32.6376 18.7918 32.6028 18.8271 32.567 18.8635C32.4522 18.9796 32.3358 19.0941 32.2193 19.2085C32.1389 19.289 32.0585 19.3695 31.9782 19.45C31.8098 19.6185 31.6407 19.7862 31.471 19.9534C31.2536 20.1675 31.038 20.3833 30.8229 20.5996C30.6571 20.766 30.4906 20.9316 30.3239 21.097C30.2441 21.1763 30.1645 21.2557 30.0851 21.3355C29.974 21.4468 29.8619 21.5571 29.7495 21.6671C29.7169 21.7001 29.6844 21.7331 29.6508 21.7671C29.4437 21.9671 29.2906 22.0627 28.9991 22.0625C28.8798 21.9989 28.8798 21.9989 28.7732 21.8938C28.7306 21.853 28.6881 21.8122 28.6442 21.7702C28.5963 21.7223 28.5485 21.6744 28.4991 21.625C28.4123 21.5417 28.3255 21.4584 28.2386 21.3751C27.846 20.9967 27.46 20.6114 27.0729 20.2275C26.9192 20.0753 26.765 19.9237 26.6102 19.7726C26.4223 19.589 26.2354 19.4045 26.0492 19.2191C25.9785 19.149 25.9073 19.0792 25.8357 19.0098C25.7359 18.9129 25.6376 18.8147 25.5395 18.7161C25.4833 18.6607 25.4271 18.6052 25.3691 18.5481C25.2161 18.3274 25.2115 18.2008 25.2491 17.9375C25.311 17.8757 25.3729 17.8138 25.4366 17.75C25.9523 17.75 26.4679 17.75 26.9991 17.75C26.9991 13.8313 26.9991 9.91253 26.9991 5.87503C26.4629 5.87503 25.9266 5.87503 25.3741 5.87503C25.2491 5.75003 25.2491 5.75003 25.2207 5.5165C25.2293 5.21833 25.3699 5.0606 25.5789 4.8615C25.614 4.82617 25.649 4.79084 25.6851 4.75444C25.8008 4.63853 25.9181 4.5245 26.0355 4.41043C26.1164 4.33013 26.1973 4.24971 26.278 4.16921C26.4471 4.00103 26.617 3.83369 26.7876 3.66698C27.0064 3.45312 27.2238 3.23793 27.4408 3.02218C27.6477 2.81652 27.8552 2.61148 28.0628 2.40653C28.1223 2.3477 28.1223 2.3477 28.183 2.28769C28.295 2.1771 28.4075 2.06696 28.5201 1.95696C28.5699 1.90763 28.5699 1.90763 28.6208 1.8573C28.9133 1.57329 29.0583 1.52147 29.4366 1.68753ZM28.9564 2.71478C28.8936 2.77778 28.8936 2.77778 28.8294 2.84206C28.7819 2.88941 28.7343 2.93675 28.6854 2.98554C28.6341 3.03729 28.5827 3.08904 28.5299 3.14237C28.4774 3.19493 28.4248 3.2475 28.3707 3.30166C28.2595 3.41306 28.1484 3.52462 28.0375 3.63631C27.8669 3.808 27.6959 3.97919 27.5248 4.1503C27.4171 4.2583 27.3094 4.36634 27.2018 4.4744C27.1502 4.52603 27.0986 4.57765 27.0455 4.63085C26.9984 4.67839 26.9512 4.72593 26.9027 4.77492C26.8608 4.81697 26.819 4.85903 26.776 4.90235C26.6796 4.98566 26.6796 4.98566 26.6866 5.06253C26.7424 5.06559 26.7981 5.06866 26.8556 5.07181C26.9287 5.07648 27.0019 5.08116 27.0773 5.08597C27.1498 5.09032 27.2223 5.09467 27.297 5.09915C27.4846 5.12317 27.5866 5.16198 27.7491 5.25003C27.7535 6.95916 27.7568 8.66829 27.7588 10.3774C27.7598 11.1709 27.7611 11.9645 27.7633 12.758C27.7651 13.4494 27.7663 14.1408 27.7668 14.8322C27.767 15.1985 27.7676 15.5648 27.769 15.9311C27.7702 16.2755 27.7706 16.62 27.7703 16.9644C27.7704 17.0911 27.7708 17.2178 27.7715 17.3446C27.7724 17.517 27.7722 17.6893 27.7717 17.8617C27.7722 17.9124 27.7728 17.9631 27.7733 18.0154C27.7722 18.1547 27.7722 18.1547 27.7491 18.375C27.5218 18.5266 27.3831 18.5242 27.1124 18.5391C26.9931 18.5461 26.9931 18.5461 26.8714 18.5533C26.8105 18.5563 26.7495 18.5594 26.6866 18.5625C26.9558 18.8843 27.2381 19.1849 27.5357 19.4803C27.5796 19.524 27.6235 19.5678 27.6687 19.6129C27.8073 19.7512 27.9462 19.8893 28.0851 20.0274C28.1797 20.1217 28.2744 20.2161 28.369 20.3105C28.5997 20.5405 28.8306 20.7703 29.0616 21C29.2601 20.9123 29.3937 20.8085 29.5466 20.6553C29.6141 20.588 29.6141 20.588 29.683 20.5194C29.7309 20.4711 29.7789 20.4227 29.8282 20.3728C29.8778 20.3232 29.9274 20.2736 29.9785 20.2225C30.0831 20.1177 30.1875 20.0128 30.2918 19.9077C30.4522 19.7462 30.6131 19.5852 30.774 19.4242C30.8755 19.3225 30.9769 19.2207 31.0782 19.1189C31.1267 19.0704 31.1751 19.0219 31.225 18.972C31.2692 18.9273 31.3135 18.8827 31.3591 18.8367C31.4179 18.7775 31.4179 18.7775 31.4779 18.7171C31.5686 18.6381 31.5686 18.6381 31.5616 18.5625C31.4701 18.5579 31.4701 18.5579 31.3768 18.5533C31.2973 18.5486 31.2178 18.5439 31.1358 18.5391C31.0568 18.5347 30.9778 18.5304 30.8963 18.5259C30.6866 18.5 30.6866 18.5 30.4991 18.375C30.4807 18.1994 30.4747 18.0375 30.4766 17.8617C30.4764 17.808 30.4763 17.7543 30.4761 17.699C30.4758 17.518 30.4768 17.337 30.4778 17.156C30.4779 17.0267 30.4779 16.8974 30.4778 16.768C30.4777 16.416 30.4788 16.064 30.4801 15.712C30.4813 15.3445 30.4814 14.977 30.4816 14.6095C30.4822 13.9131 30.4837 13.2167 30.4856 12.5204C30.4877 11.7278 30.4887 10.9352 30.4897 10.1425C30.4917 8.51171 30.495 6.88087 30.4991 5.25003C30.7281 5.12597 30.9099 5.10164 31.171 5.08597C31.2442 5.0813 31.3173 5.07662 31.3927 5.07181C31.4484 5.06875 31.5042 5.06569 31.5616 5.06253C31.2931 4.74203 31.0122 4.44065 30.7169 4.14481C30.6733 4.10104 30.6298 4.05726 30.5849 4.01216C30.4936 3.92054 30.4022 3.829 30.3107 3.73754C30.1702 3.5969 30.0302 3.45577 29.8902 3.31461C29.8012 3.22543 29.7122 3.13627 29.6232 3.04715C29.5812 3.00478 29.5393 2.9624 29.4961 2.91874C29.4573 2.88011 29.4185 2.84148 29.3785 2.80168C29.3443 2.76747 29.3102 2.73326 29.2751 2.69802C29.1393 2.58598 29.0878 2.60272 28.9564 2.71478Z" fill="url(#paint1_linear_76_4834)"/>
<path d="M5.37688 10.0372C5.46019 10.0366 5.46019 10.0366 5.54517 10.0359C5.72802 10.0348 5.91083 10.035 6.09368 10.0354C6.22116 10.0351 6.34864 10.0348 6.47613 10.0344C6.74302 10.0338 7.0099 10.034 7.27679 10.0346C7.61852 10.0353 7.96021 10.0341 8.30194 10.0322C8.5651 10.0311 8.82825 10.0311 9.09141 10.0315C9.21739 10.0315 9.34338 10.0311 9.46937 10.0303C9.6456 10.0294 9.82175 10.0301 9.99798 10.0311C10.0757 10.0302 10.0757 10.0302 10.155 10.0293C10.486 10.0335 10.6752 10.0926 10.9374 10.3125C11.1321 10.6002 11.1526 10.8647 11.1498 11.2031C11.15 11.2516 11.1502 11.3002 11.1504 11.3501C11.1505 11.4523 11.1502 11.5544 11.1494 11.6565C11.1484 11.812 11.1494 11.9675 11.1506 12.123C11.1504 12.2226 11.1502 12.3223 11.1498 12.4219C11.1502 12.468 11.1506 12.5141 11.151 12.5616C11.147 12.8588 11.1046 13.0654 10.9374 13.3125C10.6223 13.5772 10.3853 13.5986 9.99224 13.5948C9.93609 13.5953 9.87995 13.5957 9.8221 13.5962C9.63722 13.5973 9.45239 13.5965 9.26751 13.5957C9.13863 13.5959 9.00974 13.5961 8.88086 13.5964C8.61102 13.5968 8.34121 13.5962 8.07137 13.5951C7.72585 13.5937 7.38038 13.5945 7.03487 13.596C6.76881 13.5969 6.50277 13.5966 6.23672 13.5959C6.10933 13.5958 5.98195 13.596 5.85457 13.5966C5.67639 13.5972 5.49829 13.5962 5.32012 13.5948C5.2415 13.5956 5.2415 13.5956 5.16129 13.5964C4.82897 13.5916 4.63813 13.5336 4.37493 13.3125C4.18127 13.0257 4.15898 12.7613 4.16033 12.4241C4.16 12.3757 4.15968 12.3273 4.15934 12.2775C4.15894 12.1756 4.15902 12.0738 4.15955 11.9719C4.16008 11.817 4.15829 11.6623 4.1563 11.5074C4.1562 11.408 4.15624 11.3086 4.15642 11.2092C4.15572 11.1634 4.15502 11.1177 4.1543 11.0705C4.15886 10.7298 4.23328 10.5257 4.43743 10.25C4.75171 10.0464 5.01516 10.0353 5.37688 10.0372ZM7.90619 12.5616C7.90619 11.9241 7.90619 13.1803 7.90619 12.5616C6.09994 12.5616 9.65931 12.5616 7.90619 12.5616C7.90619 13.1991 7.90619 11.9428 7.90619 12.5616C9.71244 12.5616 6.15306 12.5616 7.90619 12.5616Z" fill="#FF8303"/>
<path d="M5.37688 2.84973C5.46019 2.84909 5.46019 2.84909 5.54517 2.84843C5.72802 2.84729 5.91083 2.84753 6.09368 2.84789C6.22116 2.8476 6.34864 2.84727 6.47613 2.84689C6.74302 2.84633 7.0099 2.84649 7.27679 2.84711C7.61852 2.84783 7.96021 2.84656 8.30194 2.84474C8.5651 2.84359 8.82825 2.84361 9.09141 2.84396C9.21739 2.84397 9.34338 2.8436 9.46937 2.84282C9.6456 2.84189 9.82175 2.84256 9.99798 2.84363C10.0757 2.84272 10.0757 2.84272 10.155 2.8418C10.486 2.846 10.6752 2.90508 10.9374 3.12498C11.1321 3.41271 11.1526 3.67723 11.1498 4.01561C11.15 4.06413 11.1502 4.11265 11.1504 4.16264C11.1505 4.26476 11.1502 4.36687 11.1494 4.46898C11.1484 4.62453 11.1494 4.77998 11.1506 4.93553C11.1504 5.03514 11.1502 5.13475 11.1498 5.23436C11.1502 5.28046 11.1506 5.32657 11.151 5.37407C11.147 5.6713 11.1046 5.8779 10.9374 6.12498C10.6223 6.38971 10.3853 6.41113 9.99224 6.40733C9.93609 6.40777 9.87995 6.40821 9.8221 6.40866C9.63722 6.40976 9.45239 6.40903 9.26751 6.40819C9.13863 6.40836 9.00974 6.4086 8.88086 6.40891C8.61102 6.40928 8.34121 6.40875 8.07137 6.40758C7.72585 6.40615 7.38038 6.40697 7.03487 6.40847C6.76881 6.40937 6.50277 6.40909 6.23672 6.40844C6.10933 6.40827 5.98195 6.40848 5.85457 6.40906C5.67639 6.40969 5.49829 6.40872 5.32012 6.40733C5.2415 6.40809 5.2415 6.40809 5.16129 6.40887C4.82897 6.40407 4.63813 6.34614 4.37493 6.12498C4.18127 5.8382 4.15898 5.57385 4.16033 5.23656C4.16 5.18818 4.15968 5.13981 4.15934 5.08997C4.15894 4.98812 4.15902 4.88627 4.15955 4.78442C4.16008 4.62954 4.15829 4.4748 4.1563 4.31993C4.1562 4.22053 4.15624 4.12112 4.15642 4.02171C4.15572 3.97593 4.15502 3.93015 4.1543 3.88298C4.15886 3.54234 4.23328 3.33821 4.43743 3.06248C4.75171 2.8589 5.01516 2.84777 5.37688 2.84973ZM7.90619 5.37407C7.90619 4.73657 7.90619 5.99282 7.90619 5.37407C6.09994 5.37407 9.65931 5.37407 7.90619 5.37407C7.90619 6.01157 7.90619 4.75532 7.90619 5.37407C9.71244 5.37407 6.15306 5.37407 7.90619 5.37407Z" fill="#FF8303"/>
<path d="M5.37688 17.2247C5.46019 17.2241 5.46019 17.2241 5.54517 17.2234C5.72802 17.2223 5.91083 17.2225 6.09368 17.2229C6.22116 17.2226 6.34864 17.2223 6.47613 17.2219C6.74302 17.2213 7.0099 17.2215 7.27679 17.2221C7.61852 17.2228 7.96021 17.2216 8.30194 17.2197C8.5651 17.2186 8.82825 17.2186 9.09141 17.219C9.21739 17.219 9.34338 17.2186 9.46937 17.2178C9.6456 17.2169 9.82175 17.2176 9.99798 17.2186C10.0757 17.2177 10.0757 17.2177 10.155 17.2168C10.486 17.221 10.6752 17.2801 10.9374 17.5C11.1321 17.7877 11.1526 18.0522 11.1498 18.3906C11.15 18.4391 11.1502 18.4877 11.1504 18.5376C11.1505 18.6398 11.1502 18.7419 11.1494 18.844C11.1484 18.9995 11.1494 19.155 11.1506 19.3105C11.1504 19.4101 11.1502 19.5098 11.1498 19.6094C11.1502 19.6555 11.1506 19.7016 11.151 19.7491C11.147 20.0463 11.1046 20.2529 10.9374 20.5C10.6223 20.7647 10.3853 20.7861 9.99224 20.7823C9.93609 20.7828 9.87995 20.7832 9.8221 20.7837C9.63722 20.7848 9.45239 20.784 9.26751 20.7832C9.13863 20.7834 9.00974 20.7836 8.88086 20.7839C8.61102 20.7843 8.34121 20.7837 8.07137 20.7826C7.72585 20.7812 7.38038 20.782 7.03487 20.7835C6.76881 20.7844 6.50277 20.7841 6.23672 20.7834C6.10933 20.7833 5.98195 20.7835 5.85457 20.7841C5.67639 20.7847 5.49829 20.7837 5.32012 20.7823C5.2415 20.7831 5.2415 20.7831 5.16129 20.7839C4.82897 20.7791 4.63813 20.7211 4.37493 20.5C4.18127 20.2132 4.15898 19.9488 4.16033 19.6116C4.16 19.5632 4.15968 19.5148 4.15934 19.465C4.15894 19.3631 4.15902 19.2613 4.15955 19.1594C4.16008 19.0045 4.15829 18.8498 4.1563 18.6949C4.1562 18.5955 4.15624 18.4961 4.15642 18.3967C4.15572 18.3509 4.15502 18.3052 4.1543 18.258C4.15886 17.9173 4.23328 17.7132 4.43743 17.4375C4.75171 17.2339 5.01516 17.2228 5.37688 17.2247ZM7.90619 19.7491C7.90619 19.1116 7.90619 20.3678 7.90619 19.7491C6.09994 19.7491 9.65931 19.7491 7.90619 19.7491C7.90619 20.3866 7.90619 19.1303 7.90619 19.7491C9.71244 19.7491 6.15306 19.7491 7.90619 19.7491Z" fill="#FF8303"/>
<path d="M16.7197 17.9725C16.9385 17.9999 16.9385 17.9999 17.0443 18.0724C17.16 18.2353 17.1502 18.3561 17.1509 18.5546C17.1511 18.6264 17.1514 18.6983 17.1516 18.7723C17.1509 18.8474 17.1502 18.9225 17.1494 18.9999C17.1501 19.075 17.1509 19.1501 17.1516 19.2274C17.1514 19.2993 17.1511 19.3711 17.1509 19.4452C17.1507 19.5111 17.1505 19.577 17.1502 19.6449C17.126 19.8124 17.126 19.8124 17.0399 19.9254C16.8969 20.0304 16.804 20.0581 16.626 20.0624C16.4614 19.9865 16.4614 19.9865 16.3135 19.8124C16.2684 19.5516 16.2757 19.2951 16.2822 19.0311C16.2821 18.9598 16.2819 18.8885 16.2817 18.8151C16.291 18.0261 16.291 18.0261 16.7197 17.9725Z" fill="#FF8303"/>
<path d="M19.6248 18C19.7894 18.1287 19.8654 18.2043 19.9082 18.4111C19.9104 18.6062 19.912 18.801 19.91 18.9961C19.9115 19.0639 19.913 19.1317 19.9145 19.2015C19.9135 19.7557 19.9135 19.7557 19.7288 19.9533C19.5623 20.0625 19.5623 20.0625 19.3631 20.0625C19.1873 20 19.1873 20 19.0623 19.8125C19.0347 19.5425 19.0421 19.2712 19.0428 19C19.0418 18.9249 19.0408 18.8498 19.0397 18.7724C19.0397 18.7006 19.0397 18.6287 19.0396 18.5547C19.0394 18.4888 19.0393 18.4229 19.0391 18.355C19.0623 18.1875 19.0623 18.1875 19.146 18.0725C19.3106 17.9575 19.43 17.9721 19.6248 18Z" fill="#FF8303"/>
<path d="M14.1868 17.9999C14.2907 18.0708 14.2907 18.0708 14.3743 18.1874C14.4166 18.4667 14.4061 18.749 14.4055 19.0312C14.4073 19.1092 14.4091 19.1873 14.4109 19.2677C14.4111 19.3424 14.4112 19.4171 14.4114 19.4941C14.4118 19.5626 14.4123 19.6311 14.4127 19.7017C14.3743 19.8749 14.3743 19.8749 14.226 19.9927C14.0291 20.0763 13.9474 20.0781 13.7493 19.9999C13.57 19.8093 13.5382 19.6784 13.5391 19.4198C13.5391 19.3569 13.5392 19.294 13.5392 19.2292C13.5402 19.1638 13.5412 19.0985 13.5423 19.0312C13.5421 18.9658 13.5418 18.9005 13.5416 18.8332C13.5455 18.2837 13.5455 18.2837 13.6868 18.0624C13.8617 17.975 13.9933 17.9841 14.1868 17.9999Z" fill="#FF8303"/>
<path d="M16.9377 10.8125C17.0436 10.8848 17.0436 10.8848 17.1252 11C17.1495 11.1675 17.1495 11.1675 17.1501 11.3672C17.1504 11.4391 17.1506 11.5109 17.1509 11.585C17.1502 11.6601 17.1494 11.7352 17.1487 11.8125C17.1494 11.8876 17.1501 11.9627 17.1509 12.0401C17.1506 12.1119 17.1504 12.1838 17.1501 12.2578C17.1499 12.3237 17.1497 12.3897 17.1495 12.4576C17.1252 12.625 17.1252 12.625 17.0436 12.7403C16.8656 12.8618 16.708 12.8348 16.5002 12.8125C16.3944 12.7403 16.3944 12.7403 16.3127 12.625C16.2885 12.4576 16.2885 12.4576 16.2878 12.2578C16.2876 12.186 16.2874 12.1141 16.2871 12.0401C16.2878 11.965 16.2886 11.8899 16.2893 11.8125C16.2886 11.7374 16.2879 11.6624 16.2871 11.585C16.2874 11.5131 16.2876 11.4413 16.2878 11.3672C16.2881 11.3013 16.2883 11.2354 16.2885 11.1675C16.3127 11 16.3127 11 16.3944 10.8848C16.5724 10.7633 16.73 10.7903 16.9377 10.8125Z" fill="#FF8303"/>
<path d="M13.969 10.785C14.1877 10.8124 14.1877 10.8124 14.2936 10.8849C14.4092 11.0478 14.3995 11.1686 14.4001 11.3671C14.4004 11.4389 14.4006 11.5108 14.4009 11.5848C14.4002 11.6599 14.3994 11.735 14.3987 11.8124C14.3994 11.8875 14.4001 11.9626 14.4009 12.0399C14.4006 12.1118 14.4004 12.1836 14.4001 12.2577C14.3999 12.3236 14.3997 12.3895 14.3995 12.4574C14.3752 12.6249 14.3752 12.6249 14.2936 12.7399C14.1136 12.8632 13.9602 12.8386 13.7502 12.8124C13.5616 12.6249 13.5388 12.4791 13.5378 12.2186C13.5375 12.12 13.5375 12.12 13.5371 12.0194C13.5378 11.9511 13.5386 11.8828 13.5393 11.8124C13.5386 11.7441 13.5379 11.6757 13.5371 11.6053C13.5374 11.5396 13.5376 11.4739 13.5378 11.4061C13.5381 11.3462 13.5383 11.2862 13.5385 11.2245C13.5826 10.93 13.6737 10.8219 13.969 10.785Z" fill="#FF8303"/>
<path d="M19.6877 10.8125C19.8764 11 19.8992 11.1458 19.9001 11.4062C19.9004 11.472 19.9006 11.5377 19.9009 11.6055C19.9002 11.6738 19.8994 11.7421 19.8987 11.8125C19.8994 11.8808 19.9001 11.9491 19.9009 12.0195C19.9006 12.0853 19.9004 12.151 19.9001 12.2187C19.8999 12.2787 19.8997 12.3386 19.8995 12.4004C19.871 12.5909 19.8238 12.6772 19.6877 12.8125C19.3178 12.8587 19.3178 12.8587 19.1444 12.74C19.0287 12.5771 19.0385 12.4563 19.0378 12.2578C19.0376 12.1859 19.0374 12.1141 19.0371 12.04C19.0378 11.9649 19.0386 11.8899 19.0393 11.8125C19.0386 11.7374 19.0379 11.6623 19.0371 11.585C19.0374 11.5131 19.0376 11.4412 19.0378 11.3672C19.0381 11.3013 19.0383 11.2354 19.0385 11.1675C19.0627 11 19.0627 11 19.1444 10.885C19.3244 10.7617 19.4778 10.7862 19.6877 10.8125Z" fill="#FF8303"/>
<path d="M19.1873 3.62509C19.5341 3.58656 19.5341 3.58656 19.6873 3.62509C19.9619 3.91534 19.9046 4.2477 19.9022 4.62509C19.9034 4.69341 19.9047 4.76173 19.906 4.83212C19.9059 4.89786 19.9059 4.96361 19.9058 5.03134C19.9059 5.09128 19.9061 5.15122 19.9062 5.21298C19.8658 5.42162 19.7906 5.49592 19.6248 5.62509C19.43 5.65292 19.3106 5.66754 19.146 5.55258C19.0274 5.38967 19.0391 5.2705 19.0396 5.0704C19.0397 4.99854 19.0397 4.92667 19.0397 4.85263C19.0407 4.77754 19.0418 4.70245 19.0428 4.62509C19.0426 4.55 19.0424 4.47491 19.0422 4.39755C19.0456 3.83762 19.0456 3.83762 19.1873 3.62509Z" fill="#FF8303"/>
<path d="M16.9377 3.625C17.0436 3.69726 17.0436 3.69726 17.1252 3.8125C17.1495 3.97998 17.1495 3.97998 17.1501 4.17968C17.1504 4.25155 17.1506 4.32341 17.1509 4.39746C17.1502 4.47254 17.1494 4.54763 17.1487 4.625C17.1494 4.70008 17.1501 4.77517 17.1509 4.85253C17.1506 4.9244 17.1504 4.99627 17.1501 5.07031C17.1499 5.13621 17.1497 5.20211 17.1495 5.27002C17.1252 5.4375 17.1252 5.4375 17.0436 5.55249C16.8636 5.6758 16.7102 5.65124 16.5002 5.625C16.3606 5.48753 16.3165 5.40087 16.2885 5.20616C16.2883 5.1432 16.2881 5.08024 16.2878 5.01538C16.2876 4.94653 16.2874 4.87769 16.2871 4.80676C16.2882 4.69938 16.2882 4.69938 16.2893 4.58984C16.2886 4.51801 16.2879 4.44619 16.2871 4.37219C16.2874 4.30342 16.2876 4.23466 16.2878 4.16381C16.2881 4.10093 16.2883 4.03804 16.2885 3.97325C16.3127 3.8125 16.3127 3.8125 16.3944 3.69825C16.572 3.57532 16.7296 3.60269 16.9377 3.625Z" fill="#FF8303"/>
<path d="M13.8734 3.59387C13.9993 3.5974 14.1249 3.61096 14.2501 3.62488C14.4531 3.92933 14.3956 4.26712 14.3946 4.62488C14.3956 4.69997 14.3967 4.77505 14.3977 4.85242C14.3977 4.92428 14.3978 4.99615 14.3978 5.07019C14.3981 5.16905 14.3981 5.16905 14.3984 5.2699C14.3751 5.43738 14.3751 5.43738 14.2914 5.55237C14.1268 5.66732 14.0074 5.65271 13.8126 5.62488C13.6469 5.49571 13.5716 5.42141 13.5312 5.21277C13.5314 5.15283 13.5315 5.09289 13.5316 5.03113C13.5316 4.96539 13.5315 4.89964 13.5315 4.83191C13.5327 4.76359 13.534 4.69527 13.5353 4.62488C13.5348 4.55656 13.5344 4.48824 13.5339 4.41785C13.5398 3.67776 13.5398 3.67776 13.8734 3.59387Z" fill="#FF8303"/>
<defs>
<linearGradient id="paint0_linear_76_4834" x1="12.0318" y1="0.592529" x2="12.0318" y2="29.4082" gradientUnits="userSpaceOnUse">
<stop stop-color="#047CF4"/>
<stop offset="1" stop-color="#0431D7"/>
</linearGradient>
<linearGradient id="paint1_linear_76_4834" x1="29.126" y1="1.59338" x2="29.126" y2="22.0625" gradientUnits="userSpaceOnUse">
<stop stop-color="#047CF4"/>
<stop offset="1" stop-color="#0431D7"/>
</linearGradient>
</defs>
</svg>
