<svg width="111" height="65" viewBox="0 0 111 65" fill="none" xmlns="http://www.w3.org/2000/svg">
<path d="M82.586 42.3468L81.718 43.2338C80.3134 44.6691 78.0111 44.694 76.5757 43.2893L65.7474 32.6925C64.312 31.2879 64.2871 28.9856 65.6918 27.5502L71.6591 21.4525C73.0638 20.0172 75.3661 19.9923 76.8014 21.3969L87.6411 32.0048C89.072 33.4051 89.1019 35.6987 87.7078 37.1357L87.2212 37.6373" stroke="white" stroke-width="1.77778"/>
<path d="M91.8533 54.5854C91.7449 57.643 96.7224 58.8143 103.49 61.1309" stroke="white" stroke-width="1.77778" stroke-linecap="round"/>
<path d="M83.8563 50.95C83.129 55.3136 92.5835 57.4954 93.3108 51.6772" stroke="white" stroke-width="1.77778" stroke-linecap="round"/>
<path d="M92.5884 50.2224C85.3157 53.1315 83.8612 50.2224 83.8612 50.2224C83.8612 50.2224 79.507 46.3437 80.2343 44.1619" stroke="white" stroke-width="1.77778" stroke-linecap="round"/>
<path d="M96.221 41.495C96.221 41.495 80.9483 33.495 79.4938 32.7677C78.0392 32.0404 77.3119 34.9495 78.0392 37.1313C78.7665 39.3132 84.5847 43.3132 87.4938 43.3132C90.4029 43.3132 94.7665 53.8586 94.7665 53.8586" stroke="white" stroke-width="1.77778" stroke-linecap="round"/>
<path d="M88.9492 32.7676C96.9492 32.0403 99.131 34.9494 110.04 53.8585" stroke="white" stroke-width="1.77778" stroke-linecap="round"/>
<path d="M82.1016 42.834C85.0107 45.7431 83.8592 48.0401 91.1319 47.3128" stroke="white" stroke-width="1.77778" stroke-linecap="round"/>
<path fill-rule="evenodd" clip-rule="evenodd" d="M79.1236 52.7944C80.5013 51.8472 81.7793 50.8447 82.9512 49.7938L84.4827 51.4716C75.9766 59.1121 62.5746 64.0398 47.4986 64.0398C21.7922 64.0398 0.953125 49.7129 0.953125 32.0398C0.953125 14.3667 21.7922 0.0397949 47.4986 0.0397949C73.2049 0.0397949 94.044 14.3667 94.044 32.0398C94.044 32.1711 94.0429 32.3021 94.0406 32.433L91.7713 32.0104C91.7598 24.1488 87.1218 16.784 79.1236 11.2852C71.1255 5.78649 59.9513 2.31252 47.4986 2.31252C35.0459 2.31252 23.8717 5.78649 15.8735 11.2852C7.86535 16.7908 3.22585 24.1671 3.22585 32.0398C3.22585 39.9125 7.86535 47.2888 15.8735 52.7944C23.8717 58.2931 35.0459 61.7671 47.4986 61.7671C59.9513 61.7671 71.1255 58.2931 79.1236 52.7944Z" fill="white"/>
<path d="M53.2031 56.5629C52.438 56.3373 51.6533 55.4251 51.4866 54.5521C51.3787 53.9832 51.5062 53.5909 52.3203 52.0117C55.616 45.6361 57.048 39.7706 57.048 32.6594C57.048 25.7836 55.7827 20.4281 52.6342 14.0133C51.9574 12.6401 51.4081 11.3551 51.4081 11.1688C51.4081 10.4822 51.977 9.4915 52.5949 9.10897C53.4385 8.5793 54.8607 8.67739 55.5473 9.31495C55.8121 9.56016 56.4889 10.6783 57.0578 11.7965C59.3138 16.2202 60.8538 21.0754 61.6188 26.1269C62.0896 29.2558 62.1877 35.1802 61.8052 38.0443C61.1088 43.3213 59.716 48.0392 57.4796 52.6493C56.126 55.4349 55.2825 56.5825 54.5763 56.5825C54.4389 56.5825 54.2035 56.6217 54.0662 56.661C53.9289 56.7002 53.5365 56.661 53.2031 56.5629ZM44.032 51.7665C42.855 51.4232 42.0017 49.9715 42.345 48.8926C42.4234 48.6277 42.9825 47.4213 43.5808 46.205C46.1016 41.0555 47.1512 35.5431 46.6411 30.1288C46.2193 25.6757 45.4248 22.8704 43.4141 18.7704C42.0703 16.0142 42.0017 15.5924 42.7863 14.4743C43.5318 13.4149 45.3954 13.2482 46.3665 14.1408C47.0433 14.7587 49.1521 19.1628 49.9662 21.6541C52.6538 29.8934 52.2418 38.7505 48.799 46.8426C47.0236 50.9916 45.778 52.2765 44.032 51.7665ZM34.5766 46.9014C33.8507 46.5778 33.223 45.8029 33.0464 45.028C32.9385 44.5572 33.1249 44.0275 33.988 42.2816C37.166 35.8472 37.1954 29.6579 34.0959 23.3706C32.7325 20.6144 32.7031 20.0652 33.8507 18.9764C34.4196 18.4369 34.6648 18.3487 35.4593 18.3487C36.8031 18.3487 37.4995 19.0254 38.6962 21.4874C40.5402 25.2735 41.2954 28.5594 41.2856 32.7673C41.2758 37.0929 40.5696 40.0649 38.6079 44.0569C37.4799 46.3423 36.9208 46.9505 35.7928 47.0976C35.4495 47.127 34.9002 47.0486 34.5766 46.9014ZM25.7488 42.3699C25.1701 42.1345 24.513 41.3498 24.3168 40.6632C24.101 39.8981 24.2775 39.29 25.1407 37.8677C26.2589 36.0335 26.5139 35.0527 26.5139 32.6594C26.5139 30.2661 26.2589 29.2754 25.1407 27.451C24.7582 26.8331 24.3854 26.0876 24.2972 25.7934C23.9342 24.5869 24.9445 23.1058 26.2981 22.8508C27.4457 22.635 28.2304 23.145 29.2897 24.7929C32.3402 29.5599 32.3402 35.9158 29.2897 40.6436C28.2108 42.3012 27.0141 42.8897 25.7488 42.3699Z" fill="#FF8303"/>
</svg>
