<svg width="75" height="44" viewBox="0 0 75 44" fill="none" xmlns="http://www.w3.org/2000/svg">
<path d="M56.1452 29.0776L55.5492 29.6867C54.5845 30.6724 53.0035 30.6895 52.0178 29.7249L44.5816 22.4478C43.5959 21.4832 43.5789 19.9021 44.5435 18.9164L48.6414 14.7289C49.606 13.7432 51.1871 13.7261 52.1728 14.6908L59.6167 21.9755C60.5994 22.9371 60.6198 24.5122 59.6625 25.499L59.3284 25.8435" stroke="#215CFF" stroke-width="1.22085"/>
<path d="M62.511 37.4834C62.4365 39.5831 65.8547 40.3875 70.502 41.9784" stroke="#215CFF" stroke-width="1.22085" stroke-linecap="round"/>
<path d="M57.0196 34.9863C56.5201 37.983 63.0128 39.4813 63.5123 35.4858" stroke="#215CFF" stroke-width="1.22085" stroke-linecap="round"/>
<path d="M63.0148 34.4871C58.0204 36.4849 57.0216 34.4871 57.0216 34.4871C57.0216 34.4871 54.0314 31.8235 54.5309 30.3252" stroke="#215CFF" stroke-width="1.22085" stroke-linecap="round"/>
<path d="M65.51 28.4934C65.51 28.4934 55.0218 22.9995 54.0229 22.5001C53.0241 22.0007 52.5246 23.9984 53.0241 25.4967C53.5235 26.9951 57.519 29.742 59.5168 29.742C61.5145 29.742 64.5112 36.9838 64.5112 36.9838" stroke="#215CFF" stroke-width="1.22085" stroke-linecap="round"/>
<path d="M60.5156 22.4997C66.0095 22.0003 67.5078 23.998 74.9994 36.9834" stroke="#215CFF" stroke-width="1.22085" stroke-linecap="round"/>
<path d="M55.8145 29.4131C57.8122 31.4108 57.0214 32.9883 62.0158 32.4888" stroke="#215CFF" stroke-width="1.22085" stroke-linecap="round"/>
<path d="M32.0498 0.0244141C49.7031 0.0244141 64.0146 9.86336 64.0146 22L64.0088 22.2686L62.4521 21.9785C62.4437 16.5802 59.2597 11.5229 53.7676 7.74707C48.275 3.97101 40.6014 1.58496 32.0498 1.58496C23.4983 1.58501 15.8245 3.97099 10.332 7.74707C4.83269 11.5279 1.64648 16.5937 1.64648 22C1.64658 27.4063 4.83266 32.4721 10.332 36.2529C15.8245 40.029 23.4983 42.414 32.0498 42.4141C40.6012 42.4141 48.2751 40.0289 53.7676 36.2529C54.7137 35.6025 55.5898 34.9122 56.3945 34.1904L57.4463 35.3428C51.6048 40.5893 42.4027 43.9746 32.0498 43.9746C14.6727 43.9745 0.534611 34.4416 0.0966797 22.5674L0.0859375 22C0.0859375 9.86342 14.3966 0.0245083 32.0498 0.0244141Z" fill="#215CFF"/>
<path d="M35.9681 38.8405C35.4427 38.6856 34.9038 38.0592 34.7893 37.4597C34.7152 37.069 34.8028 36.7996 35.3619 35.7151C37.6251 31.3368 38.6085 27.3088 38.6085 22.4253C38.6085 17.7034 37.7396 14.0257 35.5774 9.62044C35.1126 8.67742 34.7354 7.79503 34.7354 7.66705C34.7354 7.19554 35.1261 6.51522 35.5505 6.25252C36.1298 5.88879 37.1064 5.95614 37.578 6.39397C37.7598 6.56237 38.2246 7.33026 38.6153 8.09814C40.1645 11.136 41.222 14.4702 41.7474 17.9392C42.0708 20.0879 42.1381 24.1564 41.8754 26.1232C41.3972 29.7471 40.4407 32.9871 38.9049 36.1529C37.9754 38.0659 37.3961 38.854 36.9111 38.854C36.8168 38.854 36.6551 38.8809 36.5608 38.9079C36.4665 38.9348 36.1971 38.9079 35.9681 38.8405ZM29.6701 35.5467C28.8618 35.3109 28.2758 34.314 28.5115 33.5731C28.5654 33.3912 28.9493 32.5627 29.3602 31.7275C31.0913 28.1912 31.8121 24.4056 31.4618 20.6874C31.1722 17.6294 30.6266 15.7029 29.2457 12.8873C28.3229 10.9946 28.2758 10.7049 28.8146 9.93703C29.3266 9.20956 30.6064 9.09505 31.2732 9.70801C31.738 10.1324 33.1862 13.1568 33.7453 14.8677C35.5909 20.5258 35.308 26.6082 32.9437 32.1653C31.7245 35.0146 30.8691 35.897 29.6701 35.5467ZM23.1767 32.2057C22.6783 31.9834 22.2472 31.4513 22.1259 30.9192C22.0518 30.5958 22.1798 30.2321 22.7726 29.0331C24.955 24.6144 24.9752 20.3641 22.8467 16.0464C21.9104 14.1537 21.8902 13.7765 22.6783 13.0288C23.069 12.6583 23.2374 12.5977 23.783 12.5977C24.7058 12.5977 25.184 13.0625 26.0058 14.7532C27.2721 17.3532 27.7908 19.6097 27.784 22.4994C27.7773 25.4699 27.2923 27.5108 25.9452 30.2523C25.1705 31.8218 24.7866 32.2394 24.012 32.3404C23.7762 32.3606 23.399 32.3067 23.1767 32.2057ZM17.1145 29.0938C16.7171 28.9321 16.2658 28.3932 16.131 27.9217C15.9829 27.3963 16.1041 26.9787 16.6969 26.002C17.4647 24.7424 17.6399 24.0688 17.6399 22.4253C17.6399 20.7817 17.4647 20.1014 16.6969 18.8485C16.4342 18.4242 16.1782 17.9123 16.1176 17.7102C15.8683 16.8817 16.5621 15.8646 17.4917 15.6894C18.2798 15.5412 18.8186 15.8915 19.5461 17.0231C21.641 20.2967 21.641 24.6616 19.5461 27.9082C18.8052 29.0466 17.9834 29.4508 17.1145 29.0938Z" fill="#FF8303"/>
</svg>
