<svg width="74" height="69" viewBox="0 0 74 69" fill="none" xmlns="http://www.w3.org/2000/svg">
<path d="M44.3556 20.4071C44.3989 20.5652 44.4729 20.7131 44.5734 20.8425C44.6739 20.972 44.799 21.0803 44.9414 21.1613C45.0838 21.2424 45.2408 21.2946 45.4034 21.3149C45.566 21.3352 45.731 21.3233 45.889 21.2798L52.0786 19.5843C52.3964 19.4969 52.6666 19.2871 52.8302 19.0009C52.9937 18.7147 53.0372 18.3754 52.9513 18.0572L50.8756 10.49C50.7881 10.1722 50.5783 9.90201 50.2922 9.73848C50.006 9.57494 49.6667 9.5314 49.3484 9.61738L43.1713 11.3128C43.0133 11.3561 42.8653 11.4301 42.7359 11.5306C42.6065 11.6311 42.4981 11.7562 42.4171 11.8986C42.336 12.041 42.2839 12.198 42.2635 12.3606C42.2432 12.5232 42.2551 12.6882 42.2986 12.8462L44.3556 20.4071ZM48.7812 12.3538L50.1899 17.5087L46.4313 18.5371L45.0413 13.3885L48.7812 12.3538Z" fill="#215CFF"/>
<path d="M72.3343 36.2334C71.1998 35.1799 68.4073 34.0829 66.8739 32.6991C66.7646 32.6029 66.6404 32.525 66.5062 32.4685L58.6835 3.92024C58.542 3.40052 58.2994 2.9138 57.9696 2.48796C57.6398 2.06213 57.2292 1.70554 56.7614 1.43861C56.2935 1.17169 55.7776 0.99968 55.2432 0.932433C54.7088 0.865186 54.1664 0.904023 53.647 1.04672L34.3988 6.32004C33.879 6.46148 33.3923 6.70406 32.9665 7.03388C32.5406 7.3637 32.1841 7.77429 31.9171 8.24213C31.6502 8.70996 31.4782 9.22586 31.4109 9.76027C31.3437 10.2947 31.3825 10.8371 31.5252 11.3565L38.6872 37.4862C35.9321 39.4372 34.3738 42.4728 36.2874 45.2466C36.6545 45.7588 37.1238 46.1894 37.6655 46.5112C38.2073 46.833 38.8098 47.0392 39.4352 47.1166C39.3909 48.0456 39.5993 48.9693 40.0384 49.7893C40.4775 50.6092 41.1307 51.2947 41.9285 51.7728C43.4619 52.6392 45.0451 52.3962 46.6658 51.6232L46.4788 52.097C45.0701 55.6499 46.8278 58.7291 47.6756 60.2002C47.7815 60.3872 47.9124 60.6178 47.9561 60.7175C47.9982 61.1122 47.956 61.5112 47.8325 61.8884C47.7089 62.2655 47.5067 62.6122 47.2392 62.9054C47.0664 63.113 46.9656 63.3711 46.9521 63.6409C46.9386 63.9107 47.0131 64.1776 47.1644 64.4014C49.4894 67.8546 56.2463 69.2134 60.0111 68.4467C66.6745 67.0817 68.264 63.6908 68.426 63.3043C68.5305 63.0423 68.5459 62.7531 68.4696 62.4815C68.4696 62.4815 67.9772 60.6116 68.4696 57.2581C68.8686 54.6214 73.5871 43.0775 73.8988 41.6189C74.071 40.6613 74.0193 39.677 73.7479 38.7427C73.4765 37.8084 72.9927 36.9496 72.3343 36.2334ZM33.9313 10.6771C33.8247 10.268 33.8841 9.83334 34.0966 9.46788C34.3091 9.10243 34.6574 8.83578 35.0657 8.72607L54.3077 3.45275C54.7151 3.3457 55.1483 3.40342 55.5135 3.61341C55.8786 3.8234 56.1464 4.16877 56.2587 4.57473L64.5489 34.8309C64.6047 35.0339 64.62 35.2459 64.5938 35.4548C64.5676 35.6637 64.5004 35.8654 64.3962 36.0483C64.292 36.2312 64.1528 36.3918 63.9865 36.5209C63.8202 36.65 63.63 36.745 63.427 36.8006L56.9319 38.5895C56.4922 36.9515 55.8316 35.3808 54.9685 33.9208C52.8554 30.8042 48.5482 28.6163 45.8804 31.066C43.9605 32.83 44.7522 34.8059 45.6685 37.0935C46.2386 38.4591 46.7257 39.8579 47.127 41.2823C46.0923 41.5752 44.5963 41.9866 43.9169 42.13C43.7298 42.167 43.5371 42.1664 43.3502 42.1283C43.1633 42.0902 42.9858 42.0153 42.828 41.908C42.6703 41.8007 42.5354 41.6632 42.4313 41.5033C42.3272 41.3435 42.2558 41.1645 42.2215 40.9769L33.9313 10.6771ZM61.744 42.7159C60.9749 43.4179 60.1399 44.0441 59.2507 44.5859C58.5239 43.4804 57.9887 42.2603 57.6674 40.9769L59.2071 40.553C60.0007 41.3329 60.8484 42.0556 61.744 42.7159ZM38.3319 43.8254C37.4343 42.5227 38.226 41.1452 39.404 40.0855C39.7157 40.8584 39.7656 43.0775 41.7914 44.187C40.177 45.0472 38.8992 44.642 38.3319 43.8254ZM47.6257 48.089C44.9267 50.121 43.8234 49.959 43.1689 49.6037C42.7138 49.3148 42.3559 48.8961 42.1414 48.4015C41.9269 47.907 41.8658 47.3595 41.9659 46.8299C43.3974 46.2803 44.6788 45.4004 45.7059 44.2618C46.3292 44.0935 47.0709 43.894 47.6693 43.7257C47.8746 45.174 47.8599 46.6451 47.6257 48.089ZM71.4865 41.1078C71.231 42.3045 66.4999 53.9046 66.0325 56.9028C65.7051 58.7943 65.6819 60.726 65.9639 62.6249C65.4715 63.323 63.8259 65.1182 59.5873 66.0033C53.8028 66.5581 50.8981 64.6382 49.7886 63.616C50.4186 62.5664 50.6404 61.3218 50.412 60.1191C50.1252 58.9099 47.5509 56.2545 48.8349 53.0132C50.3244 49.5059 50.6903 45.6232 49.8821 41.8994C49.4161 39.9401 48.7907 38.0222 48.0122 36.1648C47.0647 33.8024 47.0211 33.4346 47.6008 32.8986C48.9721 31.6519 51.777 33.6154 52.9364 35.3233C53.7031 36.4515 54.3015 38.4088 54.8812 40.3099C55.6229 42.7409 56.3211 45.0347 57.5241 46.3374C60.1171 49.1486 62.7475 49.5476 62.8597 49.56C63.1832 49.6029 63.5106 49.5173 63.7717 49.3215C64.0327 49.1257 64.2066 48.8354 64.256 48.5128C64.3061 48.1864 64.2247 47.8534 64.0295 47.5869C63.8343 47.3205 63.5414 47.1423 63.215 47.0917C62.5123 46.938 61.8443 46.6548 61.2453 46.2564C62.7583 45.281 64.0876 44.0466 65.1723 42.61C65.3365 42.37 65.4116 42.0802 65.3847 41.7906C65.3578 41.5011 65.2305 41.2301 65.0249 41.0245C64.8193 40.8188 64.5483 40.6916 64.2588 40.6647C63.9692 40.6378 63.6794 40.7129 63.4394 40.8771C63.0218 40.5592 62.5169 40.1541 62.0494 39.7676L64.1001 39.2066C64.8592 38.9992 65.5423 38.5772 66.0675 37.9912C66.5927 37.4052 66.9376 36.6802 67.0609 35.903C68.5133 36.8006 70.1215 37.5797 70.6388 38.0597C70.9838 38.4812 71.2373 38.9698 71.3832 39.4946C71.5292 40.0193 71.5643 40.5687 71.4865 41.1078Z" fill="#215CFF"/>
<path d="M14.2677 40.4157C14.411 40.4952 14.5685 40.5457 14.7312 40.5643C14.894 40.5828 15.0588 40.5691 15.2162 40.524C15.3737 40.4788 15.5207 40.4031 15.6489 40.3011C15.777 40.1991 15.8838 40.0728 15.9632 39.9295C19.1484 34.1887 19.1484 29.065 15.9632 23.3242C15.8028 23.0349 15.5341 22.8211 15.2162 22.73C14.8982 22.6388 14.557 22.6776 14.2677 22.838C13.9784 22.9984 13.7647 23.2671 13.6735 23.585C13.5823 23.903 13.6212 24.2441 13.7816 24.5334C16.5429 29.52 16.5429 33.7462 13.7816 38.7203C13.7021 38.8635 13.6516 39.021 13.633 39.1838C13.6145 39.3465 13.6281 39.5113 13.6733 39.6688C13.7185 39.8262 13.7942 39.9732 13.8962 40.1014C13.9982 40.2296 14.1244 40.3364 14.2677 40.4157Z" fill="#FF8303"/>
<path d="M9.51158 37.4306C9.79442 37.6003 10.133 37.6509 10.4531 37.5715C10.7732 37.4921 11.0488 37.289 11.2195 37.0068C12.2127 35.3883 12.7384 33.5264 12.7384 31.6275C12.7384 29.7286 12.2127 27.8667 11.2195 26.2482C11.0394 25.9869 10.7663 25.804 10.4561 25.7371C10.1458 25.6701 9.82166 25.724 9.54976 25.8877C9.27786 26.0515 9.07867 26.3129 8.99281 26.6184C8.90695 26.924 8.9409 27.2508 9.08772 27.5323C9.83988 28.7658 10.2378 30.1827 10.2378 31.6275C10.2378 33.0723 9.83988 34.4892 9.08772 35.7227C8.91807 36.0056 8.86742 36.3441 8.94686 36.6642C9.02631 36.9844 9.22937 37.2599 9.51158 37.4306Z" fill="#FF8303"/>
<path d="M19.6378 42.8099C19.7847 42.8836 19.9446 42.9276 20.1085 42.9393C20.2724 42.951 20.437 42.9302 20.5929 42.878C20.7487 42.8259 20.8927 42.7435 21.0165 42.6355C21.1404 42.5275 21.2417 42.3961 21.3146 42.2489C25.0545 34.8064 25.0545 28.4485 21.3146 21.006C21.2413 20.8595 21.1399 20.7288 21.0161 20.6215C20.8924 20.5141 20.7487 20.4322 20.5933 20.3804C20.4379 20.3286 20.2738 20.3079 20.1104 20.3195C19.947 20.3312 19.7875 20.3748 19.6409 20.4481C19.4944 20.5214 19.3638 20.6228 19.2564 20.7465C19.1491 20.8703 19.0672 21.014 19.0154 21.1694C18.9636 21.3248 18.9429 21.4889 18.9545 21.6523C18.9661 21.8157 19.0098 21.9752 19.0831 22.1217C22.4553 28.8723 22.4553 34.3825 19.0831 41.1331C19.0091 41.2796 18.9648 41.4392 18.9526 41.6028C18.9405 41.7665 18.9608 41.9309 19.0123 42.0867C19.0639 42.2424 19.1456 42.3865 19.253 42.5106C19.3603 42.6347 19.4911 42.7364 19.6378 42.8099Z" fill="#FF8303"/>
<path d="M24.9712 45.1722C25.2664 45.3196 25.608 45.344 25.9211 45.24C26.2342 45.136 26.4933 44.9121 26.6417 44.6174C30.9551 35.9906 30.9551 27.2641 26.6417 18.6372C26.5664 18.4911 26.463 18.3613 26.3376 18.2551C26.2121 18.1489 26.0669 18.0685 25.9103 18.0185C25.7538 17.9684 25.5889 17.9497 25.425 17.9633C25.2612 17.977 25.1017 18.0228 24.9556 18.0981C24.8095 18.1734 24.6796 18.2767 24.5735 18.4022C24.4673 18.5277 24.3869 18.6729 24.3368 18.8295C24.2868 18.986 24.268 19.1509 24.2817 19.3147C24.2953 19.4785 24.3411 19.6381 24.4164 19.7842C28.4057 27.7752 28.4057 35.5418 24.4164 43.5328C24.2787 43.8247 24.2595 44.1587 24.363 44.4644C24.4665 44.7702 24.6845 45.0239 24.9712 45.1722Z" fill="#FF8303"/>
<path d="M33.8197 56.5598C36.1528 56.5656 38.4841 56.4303 40.8009 56.1547C40.9646 56.1342 41.1227 56.0817 41.2661 56.0001C41.4095 55.9186 41.5355 55.8096 41.6368 55.6793C41.738 55.5491 41.8127 55.4002 41.8564 55.2411C41.9002 55.082 41.9122 54.9159 41.8917 54.7522C41.8712 54.5885 41.8187 54.4304 41.7372 54.287C41.6556 54.1436 41.5466 54.0176 41.4164 53.9163C41.2861 53.815 41.1372 53.7404 40.9782 53.6966C40.8191 53.6529 40.6529 53.6409 40.4892 53.6614C38.2762 53.9308 36.049 54.0661 33.8197 54.0665C16.6284 54.0665 2.65345 43.9998 2.65345 31.6269C2.65345 21.5789 12.0469 12.684 25.492 9.99752C26.1154 9.86662 27.549 9.54249 28.1848 9.45523C28.5154 9.40976 28.8145 9.23482 29.0161 8.96888C29.2178 8.70294 29.3055 8.3678 29.26 8.03716C29.2146 7.70653 29.0396 7.4075 28.7737 7.20586C28.5078 7.00421 28.1726 6.91647 27.842 6.96193C27.0815 7.06789 25.7164 7.38579 25.0058 7.52915C10.3764 10.4712 0.160156 20.407 0.160156 31.6269C0.160156 45.3774 15.2508 56.5598 33.8197 56.5598Z" fill="#215CFF"/>
</svg>
