<svg width="75" height="75" viewBox="0 0 75 75" fill="none" xmlns="http://www.w3.org/2000/svg">
<path d="M9.44531 65H66.5547C67.9984 64.9983 69.3824 64.4165 70.4033 63.3821C71.4241 62.3477 71.9983 60.9453 72 59.4825V15.5175C71.9983 14.0547 71.4241 12.6523 70.4033 11.6179C69.3824 10.5835 67.9984 10.0017 66.5547 10H9.44531C8.00163 10.0017 6.61756 10.5835 5.59672 11.6179C4.57588 12.6523 4.00165 14.0547 4 15.5175V59.483C4.00179 60.9457 4.57609 62.348 5.59691 63.3823C6.61773 64.4166 8.00172 64.9983 9.44531 65ZM9.44531 11.3452H66.5547C67.6462 11.3465 68.6927 11.7864 69.4646 12.5685C70.2364 13.3506 70.6706 14.411 70.6719 15.517V22.3838H5.32812V15.5175C5.32939 14.4115 5.76357 13.3511 6.53542 12.5691C7.30727 11.787 8.35375 11.3465 9.44531 11.3452ZM5.32812 23.7301H70.6719V59.4825C70.6706 60.5885 70.2364 61.6489 69.4646 62.431C68.6927 63.213 67.6462 63.653 66.5547 63.6543H9.44531C8.35375 63.653 7.30727 63.213 6.53542 62.431C5.76357 61.6489 5.32939 60.5885 5.32812 59.4825V23.7301ZM11.6921 19.7281C12.2509 19.7281 12.7972 19.5602 13.2619 19.2456C13.7266 18.931 14.0887 18.4838 14.3026 17.9607C14.5165 17.4375 14.5724 16.8619 14.4634 16.3065C14.3544 15.7511 14.0853 15.241 13.6901 14.8405C13.2949 14.4401 12.7915 14.1675 12.2433 14.057C11.6952 13.9465 11.1271 14.0032 10.6108 14.2199C10.0945 14.4366 9.65319 14.8036 9.34271 15.2744C9.03223 15.7452 8.86652 16.2988 8.86652 16.865C8.86739 17.6241 9.16537 18.3518 9.69508 18.8886C10.2248 19.4253 10.943 19.7272 11.6921 19.7281ZM11.6921 15.3477C11.9883 15.3477 12.2778 15.4367 12.524 15.6034C12.7703 15.7702 12.9622 16.0071 13.0756 16.2844C13.1889 16.5616 13.2186 16.8667 13.1608 17.1611C13.103 17.4554 12.9604 17.7258 12.751 17.938C12.5415 18.1502 12.2747 18.2947 11.9842 18.3532C11.6938 18.4118 11.3927 18.3817 11.119 18.2669C10.8454 18.152 10.6116 17.9575 10.447 17.708C10.2825 17.4585 10.1946 17.1651 10.1946 16.865C10.1951 16.4628 10.353 16.0771 10.6337 15.7926C10.9145 15.5082 11.2951 15.3482 11.6921 15.3477ZM19.0227 19.7281C19.5815 19.7281 20.1278 19.5601 20.5925 19.2455C21.0571 18.9309 21.4193 18.4838 21.6331 17.9606C21.8469 17.4374 21.9029 16.8618 21.7938 16.3064C21.6848 15.751 21.4157 15.2409 21.0205 14.8405C20.6253 14.4401 20.1219 14.1674 19.5738 14.057C19.0256 13.9465 18.4575 14.0032 17.9412 14.2199C17.4249 14.4366 16.9836 14.8036 16.6732 15.2744C16.3627 15.7452 16.197 16.2988 16.197 16.865C16.1978 17.6241 16.4958 18.3519 17.0256 18.8886C17.5553 19.4253 18.2735 19.7273 19.0227 19.7281ZM19.0227 15.3477C19.3189 15.3477 19.6084 15.4368 19.8546 15.6035C20.1008 15.7702 20.2927 16.0072 20.4061 16.2845C20.5194 16.5617 20.549 16.8668 20.4912 17.1611C20.4334 17.4555 20.2908 17.7258 20.0814 17.938C19.8719 18.1502 19.6051 18.2947 19.3146 18.3532C19.0242 18.4118 18.7231 18.3817 18.4495 18.2669C18.1759 18.152 17.942 17.9575 17.7775 17.708C17.6129 17.4585 17.5251 17.1651 17.5251 16.865C17.5256 16.4627 17.6835 16.0771 17.9642 15.7926C18.245 15.5081 18.6257 15.3481 19.0227 15.3477ZM26.3533 19.7281C26.9121 19.7281 27.4584 19.5601 27.923 19.2455C28.3877 18.9309 28.7498 18.4838 28.9637 17.9606C29.1775 17.4374 29.2335 16.8618 29.1244 16.3064C29.0154 15.751 28.7463 15.2409 28.3511 14.8405C27.9559 14.4401 27.4524 14.1674 26.9043 14.057C26.3562 13.9465 25.7881 14.0032 25.2718 14.2199C24.7555 14.4366 24.3142 14.8036 24.0037 15.2744C23.6933 15.7452 23.5276 16.2988 23.5276 16.865C23.5284 17.6241 23.8264 18.3519 24.3562 18.8886C24.8859 19.4253 25.6041 19.7273 26.3533 19.7281ZM26.3533 15.3477C26.6494 15.3477 26.9389 15.4368 27.1852 15.6035C27.4314 15.7702 27.6233 16.0072 27.7367 16.2845C27.85 16.5617 27.8796 16.8668 27.8218 17.1611C27.764 17.4555 27.6214 17.7258 27.412 17.938C27.2025 18.1502 26.9357 18.2947 26.6452 18.3532C26.3548 18.4118 26.0537 18.3817 25.7801 18.2669C25.5064 18.152 25.2726 17.9575 25.108 17.708C24.9435 17.4585 24.8557 17.1651 24.8557 16.865C24.8561 16.4627 25.0141 16.0771 25.2948 15.7926C25.5756 15.5081 25.9562 15.3481 26.3533 15.3477ZM39.2286 19.7584H65.5399C65.9624 19.7579 66.3675 19.5876 66.6663 19.2849C66.9651 18.9821 67.1332 18.5717 67.1336 18.1435V15.5866C67.1332 15.1584 66.9651 14.7479 66.6663 14.4452C66.3675 14.1424 65.9624 13.9722 65.5399 13.9717H39.2286C38.8061 13.9722 38.401 14.1424 38.1022 14.4452C37.8034 14.7479 37.6354 15.1584 37.6349 15.5866V18.1435C37.6354 18.5717 37.8034 18.9821 38.1022 19.2849C38.401 19.5876 38.8061 19.7579 39.2286 19.7584ZM38.963 15.5866C38.963 15.5152 38.991 15.4467 39.0408 15.3963C39.0906 15.3458 39.1582 15.3174 39.2286 15.3174H65.5399C65.6103 15.3174 65.6779 15.3458 65.7277 15.3963C65.7775 15.4467 65.8055 15.5152 65.8055 15.5866V18.1435C65.8055 18.2149 65.7775 18.2833 65.7277 18.3338C65.6779 18.3843 65.6103 18.4126 65.5399 18.4126H39.2286C39.1582 18.4126 39.0906 18.3843 39.0408 18.3338C38.991 18.2833 38.963 18.2149 38.963 18.1435V15.5866ZM38.466 48.3911C38.6422 48.3911 38.8111 48.462 38.9356 48.5882C39.0601 48.7144 39.1301 48.8855 39.1301 49.064C39.1301 49.2424 39.0601 49.4136 38.9356 49.5398C38.8111 49.666 38.6422 49.7368 38.466 49.7368H22.9901C22.8139 49.7368 22.645 49.666 22.5205 49.5398C22.396 49.4136 22.326 49.2424 22.326 49.064C22.326 48.8855 22.396 48.7144 22.5205 48.5882C22.645 48.462 22.8139 48.3911 22.9901 48.3911H38.466ZM15.3933 57.3836C15.3933 57.2052 15.4633 57.034 15.5878 56.9078C15.7124 56.7817 15.8813 56.7108 16.0574 56.7108H38.466C38.6422 56.7108 38.8111 56.7817 38.9356 56.9078C39.0601 57.034 39.1301 57.2052 39.1301 57.3836C39.1301 57.5621 39.0601 57.7332 38.9356 57.8594C38.8111 57.9856 38.6422 58.0565 38.466 58.0565H16.0574C15.8813 58.0565 15.7124 57.9856 15.5878 57.8594C15.4633 57.7332 15.3933 57.5621 15.3933 57.3836ZM59.9426 47.1266H45.4322C45.2561 47.1266 45.0872 47.1975 44.9626 47.3237C44.8381 47.4499 44.7681 47.6211 44.7681 47.7995V58.648C44.7681 58.8264 44.8381 58.9976 44.9626 59.1238C45.0872 59.2499 45.2561 59.3208 45.4322 59.3208H59.9426C60.1187 59.3208 60.2876 59.2499 60.4122 59.1238C60.5367 58.9976 60.6067 58.8264 60.6067 58.648V47.7995C60.6067 47.6211 60.5367 47.4499 60.4122 47.3237C60.2876 47.1975 60.1187 47.1266 59.9426 47.1266ZM59.2786 57.9751H46.0962V48.4724H59.2786V57.9751Z" fill="white"/>
<mask id="path-2-inside-1_376_1214" fill="white">
<rect x="17" y="27" width="15" height="12" rx="1"/>
</mask>
<rect x="17" y="27" width="15" height="12" rx="1" stroke="#FF8303" stroke-width="3" mask="url(#path-2-inside-1_376_1214)"/>
<path d="M38 37H59.5C59.7761 37 60 37.2239 60 37.5C60 37.7761 59.7761 38 59.5 38H38C37.7239 38 37.5 37.7761 37.5 37.5C37.5 37.2239 37.7239 37 38 37ZM38 30.5H53C53.2761 30.5 53.5 30.7239 53.5 31C53.5 31.2761 53.2761 31.5 53 31.5H38C37.7239 31.5 37.5 31.2761 37.5 31C37.5 30.7239 37.7239 30.5 38 30.5Z" fill="#FF8303" stroke="#FF8303"/>
</svg>
