<svg width="87" height="86" viewBox="0 0 87 86" fill="none" xmlns="http://www.w3.org/2000/svg">
<g clip-path="url(#clip0_76_5104)">
<path d="M6.44472 3.98795C6.57583 3.98737 6.70694 3.98678 6.84203 3.98617C7.282 3.98461 7.72193 3.98543 8.16191 3.98625C8.48029 3.98562 8.79866 3.98485 9.11704 3.98394C9.99247 3.98188 10.8679 3.98193 11.7433 3.98233C12.6873 3.9824 13.6312 3.98054 14.5752 3.97895C16.4248 3.97616 18.2744 3.97524 20.124 3.97505C21.6273 3.97489 23.1306 3.9742 24.6339 3.97313C28.2016 3.97066 31.7693 3.96859 35.337 3.96877C35.5082 3.96877 35.5082 3.96877 35.6828 3.96878C36.261 3.96881 36.8393 3.96884 37.4176 3.96888C37.5325 3.96888 37.6473 3.96889 37.7656 3.9689C37.9979 3.96891 38.2301 3.96892 38.4624 3.96894C42.0754 3.96915 45.6885 3.96662 49.3015 3.96203C53.3611 3.95687 57.4207 3.95398 61.4803 3.95429C63.6296 3.9544 65.7789 3.95348 67.9283 3.94986C69.7583 3.94681 71.5882 3.94607 73.4182 3.94835C74.3519 3.94945 75.2855 3.94947 76.2192 3.94656C77.0742 3.94392 77.9292 3.94439 78.7842 3.94732C79.0932 3.94784 79.4023 3.94722 79.7113 3.94535C82.0359 3.93222 83.8457 4.19326 85.5757 5.87882C86.4362 6.96383 86.7932 8.04881 86.7947 9.43619C86.7953 9.55431 86.7959 9.67243 86.7965 9.79412C86.7981 10.1899 86.7973 10.5856 86.7964 10.9814C86.7971 11.268 86.7978 11.5546 86.7988 11.8413C86.8008 12.6289 86.8008 13.4166 86.8004 14.2042C86.8003 15.0537 86.8022 15.9032 86.8037 16.7527C86.8065 18.417 86.8075 20.0813 86.8076 21.7455C86.8078 23.0982 86.8085 24.4509 86.8096 25.8036C86.8125 29.6381 86.8141 33.4727 86.8138 37.3072C86.8138 37.6173 86.8138 37.6173 86.8138 37.9337C86.8138 38.1407 86.8137 38.3477 86.8137 38.5609C86.8136 41.9161 86.8168 45.2713 86.8216 48.6265C86.8264 52.071 86.8287 55.5154 86.8284 58.9599C86.8283 60.894 86.8292 62.828 86.8328 64.7621C86.8359 66.4087 86.8366 68.0553 86.8343 69.7019C86.8332 70.542 86.8332 71.3821 86.8361 72.2222C86.8388 72.9915 86.8383 73.7608 86.8354 74.5301C86.8349 74.8082 86.8355 75.0862 86.8373 75.3643C86.8463 76.785 86.8461 78.0298 86.0797 79.2812C86.0047 79.4152 85.9298 79.5492 85.8526 79.6873C84.99 80.886 83.7949 81.5711 82.3843 81.9687C81.9362 81.9995 81.506 82.0144 81.0583 82.0119C80.9272 82.0125 80.7961 82.0131 80.661 82.0137C80.2211 82.0152 79.7811 82.0144 79.3411 82.0136C79.0228 82.0142 78.7044 82.015 78.386 82.0159C77.5106 82.018 76.6352 82.0179 75.7597 82.0175C74.8158 82.0174 73.8718 82.0193 72.9279 82.0209C71.0783 82.0237 69.2287 82.0246 67.3791 82.0248C65.8758 82.0249 64.3724 82.0256 62.8691 82.0267C59.3014 82.0292 55.7337 82.0312 52.166 82.0311C52.0519 82.0311 51.9378 82.0311 51.8203 82.0311C51.242 82.031 50.6637 82.031 50.0854 82.031C49.9706 82.031 49.8558 82.0309 49.7374 82.0309C49.5052 82.0309 49.2729 82.0309 49.0407 82.0309C45.4276 82.0307 41.8146 82.0332 38.2015 82.0378C34.1419 82.043 30.0823 82.0459 26.0228 82.0455C23.8734 82.0454 21.7241 82.0464 19.5748 82.05C17.7448 82.053 15.9148 82.0538 14.0849 82.0515C13.1512 82.0504 12.2175 82.0504 11.2838 82.0533C10.4288 82.0559 9.57387 82.0554 8.71886 82.0525C8.40983 82.052 8.10079 82.0526 7.79176 82.0545C5.46716 82.0676 3.65732 81.8066 1.92731 80.121C1.06686 79.036 0.709876 77.951 0.708312 76.5636C0.707724 76.4455 0.707135 76.3274 0.706528 76.2057C0.704965 75.8099 0.70579 75.4142 0.706607 75.0185C0.705979 74.7318 0.705206 74.4452 0.704301 74.1586C0.702244 73.3709 0.70229 72.5833 0.702686 71.7956C0.702755 70.9461 0.700901 70.0966 0.699307 69.2472C0.696516 67.5829 0.695594 65.9186 0.695406 64.2543C0.695247 62.9016 0.694557 61.5489 0.693491 60.1962C0.690533 56.3617 0.688984 52.5272 0.689235 48.6927C0.689249 48.4859 0.689262 48.2792 0.689276 48.0662C0.689289 47.8592 0.689303 47.6522 0.689317 47.4389C0.689454 44.0837 0.686239 40.7285 0.681503 37.3733C0.676679 33.9289 0.674357 30.4844 0.674647 27.0399C0.674759 25.1059 0.673834 23.1718 0.67022 21.2378C0.667164 19.5912 0.66643 17.9446 0.668712 16.2979C0.66981 15.4578 0.669824 14.6178 0.666914 13.7776C0.664276 13.0083 0.664748 12.2391 0.667681 11.4697C0.668198 11.1917 0.667583 10.9136 0.665712 10.6356C0.656788 9.21485 0.656935 7.97005 1.4234 6.71867C1.53578 6.51763 1.53578 6.51763 1.65042 6.31252C2.79793 4.71798 4.50969 3.9769 6.44472 3.98795ZM4.78278 8.06242C3.16599 10.181 4.1109 15.0033 4.1109 16.4609C30.2737 16.4609 56.4365 16.4609 83.3922 16.4609C83.879 12.5656 83.879 12.5656 82.6468 8.08341C81.9495 7.50521 81.3314 7.5343 80.4676 7.53644C80.2749 7.53592 80.2749 7.53592 80.0783 7.53539C79.6443 7.53444 79.2103 7.53468 78.7764 7.53492C78.4635 7.53449 78.1506 7.53398 77.8377 7.53341C76.9752 7.53205 76.1126 7.53175 75.2501 7.53163C74.3209 7.53132 73.3917 7.53005 72.4626 7.52892C70.4296 7.52664 68.3967 7.52563 66.3637 7.52489C65.0951 7.52442 63.8264 7.52371 62.5578 7.52295C59.0473 7.52091 55.5368 7.51917 52.0263 7.51861C51.7993 7.51857 51.5722 7.51853 51.3452 7.5185C51.1176 7.51846 50.89 7.51842 50.6624 7.51838C50.2057 7.51831 49.7491 7.51824 49.2925 7.51816C49.1227 7.51813 49.1227 7.51813 48.9494 7.5181C45.2775 7.51749 41.6055 7.51482 37.9336 7.51091C34.0525 7.50678 30.1715 7.50447 26.2904 7.50427C24.1743 7.50411 22.0582 7.50314 19.9422 7.5001C18.1406 7.49752 16.339 7.49665 14.5373 7.49804C13.6177 7.4987 12.6981 7.49853 11.7784 7.49618C10.937 7.49405 10.0956 7.49424 9.25422 7.49628C8.94936 7.49661 8.64451 7.49609 8.33966 7.49463C7.92603 7.49278 7.51252 7.49402 7.09889 7.49604C6.97988 7.49476 6.86086 7.49349 6.73824 7.49217C5.96592 7.50035 5.43887 7.65645 4.78278 8.06242ZM4.1109 19.9882C4.10397 29.2484 4.09704 38.5086 4.0899 48.0495C4.08685 50.9764 4.08379 53.9034 4.08064 56.9191C4.07951 59.5364 4.07951 59.5364 4.07884 62.1537C4.07852 63.322 4.07729 64.4903 4.07543 65.6586C4.0733 67.0056 4.07232 68.3525 4.07279 69.6994C4.07299 70.3886 4.07267 71.0778 4.07085 71.7671C4.06922 72.3903 4.06913 73.0135 4.07029 73.6367C4.0705 73.9688 4.06905 74.3009 4.06754 74.633C4.04672 76.4028 4.04672 76.4028 4.85626 77.9164C5.55362 78.4947 6.17202 78.4655 7.03595 78.4634C7.16446 78.4637 7.29298 78.4641 7.42538 78.4644C7.85953 78.4654 8.29367 78.4651 8.72782 78.4649C9.04082 78.4653 9.35382 78.4659 9.66682 78.4664C10.5297 78.4678 11.3926 78.4681 12.2554 78.4682C13.1849 78.4685 14.1144 78.4698 15.044 78.4709C17.0776 78.4732 19.1112 78.4742 21.1449 78.475C22.4138 78.4754 23.6828 78.4761 24.9518 78.4769C28.463 78.4789 31.9742 78.4807 35.4854 78.4812C35.7125 78.4813 35.9396 78.4813 36.1667 78.4813C36.3944 78.4814 36.622 78.4814 36.8496 78.4814C37.3064 78.4815 37.7631 78.4816 38.2198 78.4817C38.3897 78.4817 38.3897 78.4817 38.5629 78.4817C42.2361 78.4823 45.9092 78.485 49.5823 78.4889C53.4643 78.4931 57.3464 78.4954 61.2285 78.4956C63.3452 78.4957 65.4619 78.4967 67.5787 78.4997C69.3807 78.5023 71.1827 78.5032 72.9848 78.5018C73.9047 78.5011 74.8247 78.5013 75.7447 78.5037C76.5862 78.5058 77.4276 78.5056 78.2691 78.5036C78.5742 78.5032 78.8793 78.5038 79.1844 78.5052C79.5979 78.5071 80.0113 78.5058 80.4248 78.5038C80.5443 78.5051 80.6637 78.5063 80.7868 78.5077C81.5178 78.4999 81.9673 78.3773 82.5523 77.9374C83.3429 77.1029 83.4132 76.3927 83.4128 75.2756C83.4132 75.0779 83.4135 74.8801 83.4138 74.6764C83.4133 74.46 83.4129 74.2435 83.4124 74.0205C83.4124 73.7883 83.4126 73.556 83.4128 73.3237C83.4132 72.6843 83.4125 72.0449 83.4117 71.4055C83.4109 70.7059 83.4112 70.0062 83.4113 69.3065C83.4114 67.948 83.4106 66.5895 83.4095 65.231C83.4083 63.6597 83.4082 62.0885 83.408 60.5173C83.4072 56.3684 83.4048 52.2194 83.4026 48.0705C83.3992 38.8033 83.3957 29.5362 83.3922 19.9882C57.2293 19.9882 31.0665 19.9882 4.1109 19.9882Z" fill="white"/>
<path d="M30.3597 31.7165C30.6373 31.7132 30.6373 31.7132 30.9205 31.7099C31.1213 31.7087 31.3222 31.7075 31.5291 31.7062C31.735 31.7048 31.9409 31.7035 32.1531 31.7021C32.5897 31.6997 33.0263 31.6979 33.4629 31.6966C34.1302 31.6944 34.7973 31.6864 35.4646 31.6789C35.8884 31.6772 36.3123 31.6758 36.7361 31.6747C36.9356 31.6717 37.1351 31.6688 37.3407 31.6658C38.4016 31.6686 39.0927 31.681 39.8882 32.4181C40.1189 32.8796 40.0768 33.2469 40.0764 33.7637C40.0767 34.0866 40.0767 34.0866 40.0771 34.4161C40.0765 34.656 40.0758 34.8959 40.0752 35.1358C40.0752 35.3874 40.0752 35.639 40.0753 35.8906C40.0753 36.5749 40.0744 37.2593 40.0732 37.9436C40.0721 38.6582 40.072 39.3729 40.0718 40.0876C40.0713 41.4415 40.0699 42.7955 40.0682 44.1494C40.0664 45.6905 40.0654 47.2317 40.0646 48.7728C40.0628 51.9436 40.0599 55.1145 40.0562 58.2853C40.2525 58.2775 40.4489 58.2697 40.6513 58.2616C40.9113 58.2553 41.1713 58.2492 41.4314 58.2433C41.5606 58.2376 41.6897 58.232 41.8228 58.2262C42.4988 58.2146 42.8273 58.2319 43.4136 58.6028C43.9727 59.1891 43.9849 59.6402 43.9798 60.4249C43.8841 61.0274 43.5495 61.2866 43.0796 61.6446C42.5709 61.899 42.0438 61.8375 41.4857 61.8373C41.3544 61.8379 41.2232 61.8386 41.0879 61.8392C40.6456 61.8411 40.2033 61.8417 39.7611 61.8423C39.4449 61.8434 39.1288 61.8445 38.8126 61.8457C37.9519 61.8486 37.0913 61.8504 36.2306 61.8518C35.6931 61.8526 35.1556 61.8536 34.6182 61.8547C32.9373 61.8579 31.2564 61.8603 29.5755 61.8617C27.6339 61.8633 25.6922 61.8678 23.7506 61.8745C22.2508 61.8796 20.751 61.8821 19.2511 61.8827C18.3549 61.883 17.4587 61.8846 16.5625 61.8888C15.7193 61.8927 14.8762 61.8934 14.0329 61.8917C13.7235 61.8916 13.4141 61.8927 13.1046 61.895C12.682 61.8979 12.2596 61.8967 11.8369 61.8945C11.6534 61.8973 11.6534 61.8973 11.4663 61.9001C10.6202 61.8894 10.1372 61.6731 9.48584 61.1407C9.19547 60.56 9.23562 59.928 9.31787 59.2931C9.6192 58.811 9.81886 58.5387 10.3257 58.2853C10.6684 58.2734 11.0116 58.2711 11.3545 58.2748C11.5385 58.2763 11.7226 58.2778 11.9122 58.2794C12.1246 58.2823 12.1246 58.2823 12.3413 58.2853C12.3394 58.1019 12.3376 57.9186 12.3357 57.7298C12.3186 56.0022 12.306 54.2747 12.2978 52.5471C12.2934 51.6589 12.2875 50.7708 12.278 49.8826C12.2688 49.0255 12.2638 48.1684 12.2616 47.3113C12.2601 46.9842 12.257 46.6572 12.2525 46.3302C12.2464 45.8722 12.2456 45.4143 12.246 44.9562C12.2429 44.821 12.2399 44.6858 12.2368 44.5465C12.2432 43.8568 12.3063 43.5472 12.7462 43.0038C13.354 42.5292 13.6427 42.4742 14.4027 42.4665C14.6803 42.4632 14.6803 42.4632 14.9634 42.4599C15.2647 42.4581 15.2647 42.4581 15.5721 42.4562C15.778 42.4548 15.9839 42.4535 16.1961 42.4521C16.6327 42.4497 17.0693 42.4479 17.5059 42.4466C18.1731 42.4444 18.8403 42.4364 19.5075 42.4289C19.9314 42.4272 20.3553 42.4258 20.7791 42.4247C20.9786 42.4217 21.1781 42.4188 21.3836 42.4158C22.4446 42.4186 23.1356 42.431 23.9312 43.1681C24.2023 43.7105 24.1208 44.3033 24.1182 44.899C24.1182 45.0432 24.1182 45.1875 24.1183 45.3361C24.1181 45.8141 24.1168 46.2922 24.1155 46.7702C24.1152 47.1011 24.115 47.4321 24.1148 47.763C24.1142 48.635 24.1125 49.5071 24.1107 50.3791C24.1089 51.2685 24.1082 52.158 24.1073 53.0474C24.1055 54.7934 24.1026 56.5393 24.0991 58.2853C25.4849 58.2853 26.8706 58.2853 28.2983 58.2853C28.2965 57.9673 28.2946 57.6493 28.2927 57.3216C28.2757 54.3285 28.263 51.3354 28.2548 48.3422C28.2505 46.8033 28.2446 45.2644 28.235 43.7255C28.2266 42.3843 28.2212 41.043 28.2193 39.7018C28.2182 38.9915 28.2156 38.2813 28.2095 37.5711C28.2038 36.9026 28.2021 36.2341 28.2033 35.5656C28.2031 35.3202 28.2014 35.0749 28.1982 34.8296C28.194 34.4945 28.1956 34.1594 28.1973 33.8243C28.1966 33.6368 28.1958 33.4493 28.195 33.2561C28.3315 32.5929 28.6267 32.342 29.1382 31.9142C29.568 31.6992 29.8784 31.7213 30.3597 31.7165ZM31.8257 35.2735C31.8257 42.8674 31.8257 50.4613 31.8257 58.2853C33.3777 58.2853 34.9297 58.2853 36.5288 58.2853C36.5288 50.6914 36.5288 43.0975 36.5288 35.2735C34.9768 35.2735 33.4247 35.2735 31.8257 35.2735ZM15.8687 46.0235C15.8687 50.0699 15.8687 54.1163 15.8687 58.2853C17.4207 58.2853 18.9727 58.2853 20.5718 58.2853C20.5718 54.2389 20.5718 50.1925 20.5718 46.0235C19.0197 46.0235 17.4677 46.0235 15.8687 46.0235Z" fill="#FF8303"/>
<path d="M72.0583 28.6399C74.7646 30.7503 76.734 33.8549 77.1748 37.289C77.4847 40.8961 76.7775 44.2387 74.5923 47.1782C74.3937 47.4129 74.1905 47.6438 73.9834 47.871C73.8002 48.0773 73.8002 48.0773 73.6133 48.2877C71.2042 50.8561 68.1102 51.9992 64.6756 52.2861C61.1132 52.3878 57.6558 51.0491 55.0537 48.6212C52.5282 46.1432 51.1966 42.8081 51.0977 39.3046C51.1366 35.5677 52.5631 32.387 55.1709 29.7304C55.2844 29.6128 55.3978 29.4953 55.5147 29.3741C59.8879 25.1571 67.2792 25.1366 72.0583 28.6399ZM57.8584 32.082C57.7499 32.1694 57.6414 32.2569 57.5297 32.347C55.6919 33.9898 54.9111 36.4123 54.604 38.783C54.4838 41.2893 55.5132 43.6232 57.0396 45.551C58.8813 47.5334 61.4077 48.6534 64.0942 48.7739C65.9051 48.7353 67.7792 48.2166 69.2803 47.1992C69.3329 46.6969 69.3329 46.6969 69.0402 46.3969C68.9278 46.2866 68.8155 46.1764 68.6997 46.0628C68.573 45.9372 68.4463 45.8116 68.3157 45.6822C68.1772 45.5473 68.0386 45.4124 67.8958 45.2734C67.6845 45.0644 67.6845 45.0644 67.4689 44.8511C67.0171 44.4043 66.5636 43.9592 66.1099 43.5143C65.6574 43.07 65.2054 42.6252 64.7544 42.1794C64.4733 41.9017 64.1915 41.6248 63.9087 41.3488C63.7809 41.2227 63.6532 41.0966 63.5215 40.9666C63.3526 40.8011 63.3526 40.8011 63.1802 40.6322C62.6178 39.9962 62.519 39.5126 62.508 38.67C62.5046 38.475 62.5013 38.28 62.4979 38.0791C62.4959 37.8695 62.494 37.6598 62.492 37.4439C62.4887 37.2286 62.4855 37.0133 62.4821 36.7915C62.4735 36.2204 62.4668 35.6494 62.4606 35.0783C62.4539 34.4951 62.4453 33.9118 62.4369 33.3286C62.4206 32.1852 62.4064 31.0418 62.3936 29.8984C60.6939 29.8984 59.1131 31.0394 57.8584 32.082ZM65.9209 29.8984C65.1273 34.8492 65.1273 34.8492 66.5144 39.464C68.0323 41.4209 69.9933 43.033 71.9678 44.5117C72.4868 43.8858 72.8078 43.345 73.0911 42.58C73.196 42.302 73.196 42.302 73.303 42.0184C74.0837 39.6734 73.7595 37.1538 72.7479 34.944C71.5585 32.6162 69.5912 30.9063 67.0967 30.0663C66.7053 30.0069 66.3133 29.9506 65.9209 29.8984Z" fill="#FF8303"/>
<path d="M19.3458 67.6692C19.5469 67.6686 19.7481 67.668 19.9554 67.6673C20.1798 67.6674 20.4041 67.6676 20.6285 67.6677C20.866 67.6673 21.1035 67.6668 21.341 67.6662C21.9951 67.6649 22.6492 67.6646 23.3033 67.6644C24.0082 67.6641 24.713 67.6629 25.4179 67.6617C26.9598 67.6594 28.5017 67.6584 30.0436 67.6577C31.0059 67.6572 31.9682 67.6565 32.9305 67.6558C35.5936 67.6537 38.2566 67.652 40.9197 67.6514C41.1755 67.6514 41.1755 67.6514 41.4364 67.6513C41.6073 67.6513 41.7782 67.6512 41.9543 67.6512C42.3006 67.6511 42.6469 67.651 42.9933 67.651C43.1651 67.6509 43.3369 67.6509 43.5139 67.6509C46.2988 67.6502 49.0836 67.6473 51.8685 67.6433C54.7261 67.6394 57.5837 67.6373 60.4412 67.6371C62.0463 67.6369 63.6514 67.6359 65.2565 67.6329C66.623 67.6303 67.9895 67.6295 69.356 67.6308C70.0535 67.6315 70.751 67.6313 71.4484 67.629C72.0867 67.6269 72.7249 67.627 73.3631 67.6291C73.704 67.6296 74.0448 67.6276 74.3856 67.6255C74.6887 67.6271 74.6887 67.6271 74.9979 67.6288C75.2596 67.6287 75.2596 67.6287 75.5265 67.6285C76.1784 67.715 76.6533 67.9559 77.0599 68.4787C77.2329 69.0607 77.2748 69.6148 77.1754 70.2108C76.8741 70.6828 76.6683 70.9683 76.1676 71.2187C75.8533 71.235 75.5383 71.2404 75.2236 71.2407C74.9206 71.2417 74.9206 71.2417 74.6114 71.2427C74.3852 71.2426 74.1591 71.2424 73.9329 71.2423C73.6941 71.2427 73.4554 71.2432 73.2167 71.2438C72.5584 71.2451 71.9 71.2454 71.2417 71.2455C70.5326 71.2459 69.8235 71.2471 69.1144 71.2483C67.5628 71.2505 66.0112 71.2515 64.4596 71.2523C63.4913 71.2527 62.523 71.2535 61.5547 71.2542C58.8753 71.2563 56.196 71.258 53.5166 71.2586C53.345 71.2586 53.1734 71.2586 52.9967 71.2587C52.8247 71.2587 52.6527 71.2587 52.4755 71.2588C52.1269 71.2589 51.7784 71.2589 51.4298 71.259C51.2569 71.259 51.084 71.2591 50.9059 71.2591C48.1036 71.2598 45.3013 71.2627 42.499 71.2666C39.624 71.2706 36.749 71.2727 33.874 71.2729C32.2589 71.2731 30.6439 71.274 29.0289 71.2771C27.6537 71.2797 26.2786 71.2805 24.9035 71.2791C24.2016 71.2785 23.4997 71.2786 22.7978 71.281C22.1555 71.2831 21.5133 71.2829 20.871 71.2809C20.6384 71.2806 20.4057 71.2811 20.1731 71.2825C19.8573 71.2844 19.5416 71.2829 19.2258 71.2811C19.0503 71.2812 18.8747 71.2813 18.6939 71.2814C18.1428 71.2087 17.8271 71.0371 17.3785 70.7148C16.9465 70.1388 16.9582 69.5659 17.0426 68.8671C17.619 67.8739 18.244 67.6706 19.3458 67.6692Z" fill="white"/>
<path d="M54.6074 58.1792C54.8412 58.1783 55.075 58.1771 55.3087 58.1755C55.9418 58.1724 56.5747 58.1746 57.2077 58.1779C57.8708 58.1807 58.534 58.1792 59.1972 58.1783C60.3105 58.1776 61.4238 58.1802 62.5372 58.1849C63.8238 58.1903 65.1103 58.1903 66.3968 58.1874C67.6356 58.1847 68.8743 58.1859 70.113 58.1887C70.6397 58.1899 71.1664 58.1897 71.6932 58.1885C72.3135 58.1872 72.9337 58.1892 73.554 58.1938C73.8898 58.1955 74.2256 58.1939 74.5614 58.1923C74.7618 58.1944 74.9622 58.1965 75.1687 58.1987C75.3425 58.1992 75.5163 58.1997 75.6954 58.2002C76.2915 58.3073 76.5746 58.5428 77.0082 58.9571C77.2765 59.4935 77.2389 60.0531 77.1762 60.6367C76.9677 61.1163 76.8195 61.3826 76.3785 61.6641C75.909 61.8484 75.537 61.8553 75.0325 61.8563C74.835 61.8575 74.6374 61.8587 74.4338 61.8599C74.2177 61.8595 74.0015 61.8591 73.7788 61.8587C73.5484 61.8594 73.318 61.8603 73.0876 61.8613C72.4622 61.8635 71.8368 61.8636 71.2115 61.8632C70.6893 61.863 70.1671 61.8638 69.6449 61.8646C68.4129 61.8665 67.1809 61.8666 65.9489 61.8655C64.6782 61.8645 63.4075 61.8666 62.1368 61.8702C61.0455 61.8731 59.9542 61.8741 58.863 61.8736C58.2113 61.8733 57.5597 61.8737 56.9081 61.8761C56.2952 61.8782 55.6824 61.8779 55.0696 61.8757C54.7378 61.8751 54.406 61.877 54.0742 61.8789C53.7771 61.8772 53.7771 61.8772 53.474 61.8754C53.2164 61.8754 53.2164 61.8754 52.9535 61.8755C52.2365 61.7792 51.7959 61.4847 51.33 60.9412C51.113 60.3988 51.1111 60.0438 51.1561 59.4715C51.8096 57.9906 53.2171 58.1667 54.6074 58.1792Z" fill="white"/>
<path d="M16.707 10.414C17.179 10.7153 17.4645 10.9211 17.7148 11.4218C17.7855 11.9357 17.7963 12.4207 17.7148 12.9335C17.3484 13.3964 17.0645 13.6786 16.5391 13.9414C15.8892 14.0152 15.5721 13.9626 14.9854 13.6579C14.495 13.2456 14.3204 13.05 14.1875 12.4296C14.2217 11.609 14.4681 11.1751 15.0273 10.582C15.5651 10.3131 16.1235 10.3302 16.707 10.414Z" fill="white"/>
<path d="M10.3254 10.4141C10.7974 10.7153 11.0828 10.9211 11.3332 11.4219C11.4167 12.2573 11.4247 12.6082 10.9972 13.343C10.4586 13.8031 10.1762 13.9435 9.48487 13.9814C8.78616 13.898 8.33346 13.5029 7.90032 12.9756C7.74978 12.3734 7.77896 11.8361 7.97381 11.2539C8.71066 10.3912 9.25017 10.2605 10.3254 10.4141Z" fill="white"/>
<path d="M11.4982 67.6915C12.4353 68.2219 12.4353 68.2219 12.674 68.6993C12.7673 69.4774 12.7809 70.04 12.3591 70.7149C11.8092 71.2324 11.4208 71.2749 10.665 71.268C10.1324 71.1915 9.84891 70.9244 9.48261 70.547C9.19096 69.9637 9.21354 69.3356 9.31464 68.6993C9.97206 67.8689 10.4449 67.5902 11.4982 67.6915Z" fill="white"/>
<path d="M23.2594 10.4141C23.7309 10.6393 23.9078 10.842 24.2672 11.254C24.4795 11.9407 24.4812 12.2967 24.2462 12.9756C23.8881 13.5008 23.6865 13.7167 23.0914 13.9415C22.2804 13.9415 21.9173 13.8866 21.2438 13.4376C20.8462 12.8413 20.7963 12.4872 20.835 11.7841C20.9426 11.2489 21.1877 10.9511 21.5797 10.5821C22.1239 10.31 22.6712 10.3192 23.2594 10.4141Z" fill="white"/>
</g>
<defs>
<clipPath id="clip0_76_5104">
<rect width="86" height="86" fill="white" transform="translate(0.75)"/>
</clipPath>
</defs>
</svg>
