<svg width="75" height="75" viewBox="0 0 75 75" fill="none" xmlns="http://www.w3.org/2000/svg">
<path d="M44.3537 23.4069C44.3969 23.565 44.471 23.7129 44.5715 23.8424C44.672 23.9718 44.797 24.0801 44.9394 24.1612C45.0819 24.2422 45.2389 24.2944 45.4015 24.3147C45.5641 24.335 45.7291 24.3231 45.887 24.2796L52.0767 22.5842C52.3945 22.4967 52.6647 22.2869 52.8282 22.0007C52.9917 21.7145 53.0353 21.3752 52.9493 21.057L50.8736 13.4899C50.7862 13.1721 50.5764 12.9018 50.2902 12.7383C50.004 12.5748 49.6647 12.5312 49.3465 12.6172L43.1694 14.3126C43.0113 14.3559 42.8633 14.4299 42.7339 14.5304C42.6045 14.631 42.4962 14.756 42.4151 14.8984C42.3341 15.0408 42.2819 15.1978 42.2616 15.3604C42.2413 15.523 42.2532 15.688 42.2967 15.846L44.3537 23.4069ZM48.7793 15.3536L50.188 20.5085L46.4293 21.537L45.0393 16.3883L48.7793 15.3536Z" fill="white"/>
<path d="M72.3362 39.2331C71.2018 38.1797 68.4093 37.0826 66.8759 35.6989C66.7666 35.6026 66.6424 35.5247 66.5081 35.4682L58.6854 6.92C58.544 6.40027 58.3014 5.91356 57.9716 5.48772C57.6418 5.06188 57.2312 4.70529 56.7633 4.43837C56.2955 4.17145 55.7796 3.99944 55.2452 3.93219C54.7108 3.86494 54.1683 3.90378 53.649 4.04647L34.4007 9.3198C33.881 9.46124 33.3943 9.70381 32.9684 10.0336C32.5426 10.3635 32.186 10.774 31.9191 11.2419C31.6522 11.7097 31.4801 12.2256 31.4129 12.76C31.3457 13.2944 31.3845 13.8369 31.5272 14.3563L38.6892 40.486C35.9341 42.437 34.3758 45.4726 36.2894 48.2464C36.6565 48.7585 37.1257 49.1891 37.6675 49.511C38.2092 49.8328 38.8118 50.0389 39.4372 50.1164C39.3928 51.0454 39.6013 51.9691 40.0404 52.789C40.4794 53.609 41.1326 54.2945 41.9305 54.7726C43.4638 55.639 45.0471 55.3959 46.6677 54.623L46.4807 55.0967C45.072 58.6497 46.8298 61.7289 47.6775 63.1999C47.7835 63.3869 47.9144 63.6176 47.958 63.7173C48.0001 64.1119 47.958 64.511 47.8344 64.8882C47.7108 65.2653 47.5086 65.6119 47.2412 65.9052C47.0683 66.1127 46.9676 66.3709 46.9541 66.6407C46.9406 66.9105 47.0151 67.1773 47.1664 67.4011C49.4914 70.8543 56.2482 72.2132 60.0131 71.4465C66.6764 70.0814 68.2659 66.6905 68.428 66.3041C68.5325 66.0421 68.5478 65.7529 68.4716 65.4813C68.4716 65.4813 67.9792 63.6113 68.4716 60.2578C68.8705 57.6212 73.5891 46.0772 73.9008 44.6186C74.0729 43.6611 74.0213 42.6767 73.7499 41.7424C73.4785 40.8082 72.9946 39.9494 72.3362 39.2331ZM33.9332 13.6768C33.8266 13.2677 33.886 12.8331 34.0985 12.4676C34.3111 12.1022 34.6594 11.8355 35.0677 11.7258L54.3097 6.45251C54.7171 6.34545 55.1502 6.40317 55.5154 6.61317C55.8806 6.82316 56.1483 7.16853 56.2607 7.57449L64.5509 37.8306C64.6067 38.0336 64.6219 38.2457 64.5957 38.4545C64.5695 38.6634 64.5024 38.8651 64.3982 39.0481C64.294 39.231 64.1547 39.3916 63.9884 39.5207C63.8221 39.6498 63.632 39.7448 63.4289 39.8003L56.9339 41.5893C56.4941 39.9512 55.8336 38.3806 54.9704 36.9206C52.8573 33.804 48.5502 31.6161 45.8823 34.0658C43.9625 35.8298 44.7541 37.8057 45.6704 40.0933C46.2405 41.4589 46.7276 42.8577 47.129 44.282C46.0943 44.575 44.5983 44.9864 43.9189 45.1298C43.7317 45.1667 43.5391 45.1662 43.3521 45.1281C43.1652 45.09 42.9877 45.0151 42.83 44.9078C42.6722 44.8005 42.5374 44.6629 42.4332 44.5031C42.3291 44.3432 42.2578 44.1643 42.2234 43.9766L33.9332 13.6768ZM61.7459 45.7157C60.9768 46.4177 60.1419 47.0439 59.2526 47.5857C58.5259 46.4801 57.9906 45.26 57.6694 43.9766L59.209 43.5528C60.0026 44.3326 60.8504 45.0554 61.7459 45.7157ZM38.3339 46.8252C37.4363 45.5225 38.2279 44.1449 39.406 43.0853C39.7177 43.8582 39.7675 46.0772 41.7933 47.1867C40.1789 48.0469 38.9011 47.6418 38.3339 46.8252ZM47.6276 51.0887C44.9287 53.1208 43.8254 52.9587 43.1709 52.6034C42.7158 52.3146 42.3578 51.8958 42.1433 51.4013C41.9289 50.9068 41.8677 50.3593 41.9679 49.8296C43.3993 49.28 44.6808 48.4001 45.7078 47.2615C46.3311 47.0932 47.0729 46.8938 47.6713 46.7255C47.8766 48.1738 47.8618 49.6448 47.6276 51.0887ZM71.4885 44.1075C71.2329 45.3043 66.5019 56.9044 66.0344 59.9025C65.707 61.7941 65.6839 63.7258 65.9658 65.6247C65.4734 66.3228 63.8278 68.118 59.5892 69.0031C53.8048 69.5578 50.9001 67.638 49.7906 66.6157C50.4205 65.5661 50.6424 64.3215 50.4139 63.1189C50.1272 61.9096 47.5528 59.2543 48.8369 56.013C50.3264 52.5057 50.6922 48.6229 49.8841 44.8991C49.4181 42.9398 48.7927 41.0219 48.0141 39.1645C47.0667 36.8022 47.023 36.4344 47.6027 35.8983C48.974 34.6517 51.779 36.6152 52.9384 38.3231C53.7051 39.4513 54.3034 41.4085 54.8831 43.3097C55.6249 45.7406 56.323 48.0345 57.526 49.3372C60.1191 52.1484 62.7495 52.5473 62.8617 52.5598C63.1852 52.6027 63.5126 52.5171 63.7736 52.3213C64.0347 52.1255 64.2086 51.8352 64.2579 51.5126C64.3081 51.1861 64.2266 50.8531 64.0315 50.5867C63.8363 50.3202 63.5434 50.1421 63.217 50.0914C62.5142 49.9378 61.8463 49.6545 61.2473 49.2562C62.7602 48.2807 64.0895 47.0464 65.1742 45.6097C65.3384 45.3697 65.4136 45.0799 65.3867 44.7904C65.3598 44.5008 65.2325 44.2298 65.0269 44.0242C64.8213 43.8186 64.5503 43.6913 64.2607 43.6644C63.9712 43.6375 63.6814 43.7127 63.4414 43.8769C63.0237 43.559 62.5189 43.1538 62.0514 42.7674L64.1021 42.2064C64.8612 41.999 65.5443 41.577 66.0694 40.991C66.5946 40.405 66.9396 39.6799 67.0629 38.9028C68.5152 39.8003 70.1234 40.5795 70.6408 41.0595C70.9857 41.481 71.2392 41.9696 71.3852 42.4943C71.5311 43.0191 71.5663 43.5684 71.4885 44.1075Z" fill="white"/>
<path d="M14.2658 43.4156C14.409 43.4951 14.5665 43.5456 14.7293 43.5641C14.892 43.5827 15.0568 43.569 15.2143 43.5239C15.3717 43.4787 15.5187 43.403 15.6469 43.301C15.7751 43.199 15.8819 43.0727 15.9612 42.9294C19.1464 37.1886 19.1464 32.0649 15.9612 26.3241C15.8009 26.0348 15.5322 25.821 15.2142 25.7298C14.8962 25.6387 14.5551 25.6775 14.2658 25.8379C13.9765 25.9982 13.7627 26.267 13.6716 26.5849C13.5804 26.9029 13.6192 27.244 13.7796 27.5333C16.5409 32.5199 16.5409 36.746 13.7796 41.7202C13.7001 41.8634 13.6497 42.0209 13.6311 42.1836C13.6125 42.3464 13.6262 42.5112 13.6713 42.6687C13.7165 42.8261 13.7922 42.9731 13.8942 43.1013C13.9962 43.2295 14.1225 43.3363 14.2658 43.4156Z" fill="#FF8303"/>
<path d="M9.51158 40.4299C9.79442 40.5996 10.133 40.6502 10.4531 40.5708C10.7732 40.4913 11.0488 40.2883 11.2195 40.0061C12.2127 38.3876 12.7384 36.5257 12.7384 34.6268C12.7384 32.7278 12.2127 30.866 11.2195 29.2475C11.0394 28.9861 10.7663 28.8033 10.4561 28.7363C10.1458 28.6693 9.82166 28.7232 9.54976 28.887C9.27786 29.0508 9.07867 29.3121 8.99281 29.6177C8.90695 29.9233 8.9409 30.2501 9.08772 30.5315C9.83988 31.7651 10.2378 33.182 10.2378 34.6268C10.2378 36.0716 9.83988 37.4884 9.08772 38.722C8.91807 39.0049 8.86742 39.3434 8.94686 39.6635C9.02631 39.9836 9.22937 40.2592 9.51158 40.4299Z" fill="#FF8303"/>
<path d="M19.6398 45.8092C19.7866 45.883 19.9466 45.927 20.1105 45.9387C20.2744 45.9504 20.439 45.9296 20.5948 45.8774C20.7506 45.8253 20.8946 45.7429 21.0185 45.6349C21.1423 45.5269 21.2436 45.3955 21.3165 45.2483C25.0565 37.8058 25.0565 31.4479 21.3165 24.0054C21.2433 23.8588 21.1419 23.7282 21.0181 23.6209C20.8943 23.5135 20.7507 23.4316 20.5952 23.3798C20.4398 23.328 20.2757 23.3073 20.1123 23.3189C19.9489 23.3305 19.7894 23.3742 19.6429 23.4475C19.4964 23.5208 19.3657 23.6222 19.2584 23.7459C19.1511 23.8697 19.0691 24.0134 19.0173 24.1688C18.9655 24.3242 18.9449 24.4883 18.9565 24.6517C18.9681 24.8151 19.0118 24.9746 19.085 25.1211C22.4572 31.8717 22.4572 37.3819 19.085 44.1325C19.0111 44.279 18.9667 44.4386 18.9546 44.6022C18.9424 44.7659 18.9627 44.9303 19.0143 45.0861C19.0658 45.2418 19.1476 45.3859 19.2549 45.51C19.3623 45.6341 19.4931 45.7358 19.6398 45.8092Z" fill="#FF8303"/>
<path d="M24.9692 48.1716C25.2644 48.319 25.606 48.3434 25.9191 48.2394C26.2323 48.1354 26.4914 47.9115 26.6397 47.6168C30.9531 38.99 30.9531 30.2635 26.6397 21.6367C26.5644 21.4906 26.4611 21.3607 26.3356 21.2546C26.2101 21.1484 26.0649 21.068 25.9084 21.0179C25.7518 20.9678 25.5869 20.9491 25.4231 20.9628C25.2593 20.9764 25.0998 21.0222 24.9537 21.0975C24.8075 21.1728 24.6777 21.2762 24.5715 21.4017C24.4653 21.5272 24.3849 21.6723 24.3349 21.8289C24.2848 21.9855 24.2661 22.1504 24.2797 22.3142C24.2934 22.478 24.3392 22.6375 24.4145 22.7836C28.4038 30.7746 28.4038 38.5412 24.4145 46.5323C24.2767 46.8242 24.2576 47.1581 24.361 47.4639C24.4645 47.7696 24.6825 48.0233 24.9692 48.1716Z" fill="#FF8303"/>
<path d="M33.8197 59.5597C36.1528 59.5655 38.4841 59.4302 40.8009 59.1545C40.9646 59.1341 41.1227 59.0816 41.2661 59C41.4095 58.9185 41.5355 58.8094 41.6368 58.6792C41.738 58.549 41.8127 58.4001 41.8564 58.241C41.9002 58.0819 41.9122 57.9158 41.8917 57.7521C41.8712 57.5883 41.8187 57.4303 41.7372 57.2868C41.6556 57.1434 41.5466 57.0175 41.4164 56.9162C41.2861 56.8149 41.1372 56.7402 40.9782 56.6965C40.8191 56.6528 40.6529 56.6408 40.4892 56.6612C38.2762 56.9307 36.049 57.066 33.8197 57.0664C16.6284 57.0664 2.65345 46.9997 2.65345 34.6267C2.65345 24.5788 12.0469 15.6839 25.492 12.9974C26.1154 12.8665 27.549 12.5424 28.1848 12.4551C28.5154 12.4096 28.8145 12.2347 29.0161 11.9688C29.2178 11.7028 29.3055 11.3677 29.26 11.037C29.2146 10.7064 29.0396 10.4074 28.7737 10.2057C28.5078 10.0041 28.1726 9.91635 27.842 9.96181C27.0815 10.0678 25.7164 10.3857 25.0059 10.529C10.3764 13.4711 0.160156 23.4069 0.160156 34.6267C0.160156 48.3773 15.2508 59.5597 33.8197 59.5597Z" fill="white"/>
</svg>
