<svg width="75" height="75" viewBox="0 0 75 75" fill="none" xmlns="http://www.w3.org/2000/svg">
<path d="M54.1105 72.5089H21.8868C18.0884 72.5089 14.998 69.4186 14.998 65.6201V10.3792C14.998 6.58072 18.0884 3.49042 21.8868 3.49042H54.1105C57.909 3.49042 60.9993 6.58072 60.9993 10.3792V65.6199C60.9996 69.4186 57.9093 72.5089 54.1105 72.5089ZM21.8868 5.19113C19.026 5.19113 16.6988 7.51861 16.6988 10.3792V65.6199C16.6988 68.4805 19.0262 70.808 21.8868 70.808H54.1105C56.9714 70.808 59.2986 68.4805 59.2986 65.6199V10.3792C59.2986 7.51838 56.9711 5.19113 54.1105 5.19113H21.8868Z" fill="white"/>
<path d="M42.1705 9.88977H33.8303C32.1878 9.88977 30.6928 8.98658 29.9286 7.53259L28.459 4.73617C28.3204 4.47244 28.3299 4.15566 28.4837 3.90078C28.6376 3.6459 28.9138 3.49011 29.2116 3.49011H46.7892C47.087 3.49011 47.3631 3.6459 47.5171 3.90078C47.6711 4.15566 47.6804 4.47244 47.5418 4.73617L46.0722 7.53259C45.308 8.98658 43.813 9.88977 42.1705 9.88977ZM30.6191 5.19105L31.4338 6.74142C31.9032 7.6344 32.8214 8.18906 33.83 8.18906H42.1703C43.179 8.18906 44.0973 7.6344 44.5665 6.74142L45.3813 5.19105H30.6191Z" fill="white"/>
<path d="M46.7893 68.5475H30.8484C30.3788 68.5475 29.998 68.1668 29.998 67.6972C29.998 67.2275 30.3788 66.8468 30.8484 66.8468H46.7893C47.2589 66.8468 47.6396 67.2275 47.6396 67.6972C47.6396 68.1668 47.2589 68.5475 46.7893 68.5475Z" fill="white"/>
<path d="M40.432 61H37.568C37.1921 61 36.8752 60.719 36.8302 60.3456L36.608 58.5014C35.9383 58.3129 35.2938 58.0449 34.6827 57.7007L33.2189 58.8498C32.9228 59.0825 32.5004 59.0569 32.2344 58.7907L30.2093 56.7656C29.9433 56.4996 29.9179 56.0769 30.1502 55.7812L31.2991 54.3173C30.9551 53.7061 30.6871 53.0618 30.4988 52.3921L28.6542 52.1697C28.2808 52.1247 28 51.808 28 51.4318V48.5682C28 48.1922 28.2808 47.8753 28.6542 47.8303L30.4988 47.6079C30.6871 46.9382 30.9551 46.2939 31.2991 45.6827L30.1502 44.2188C29.9179 43.9231 29.9433 43.5004 30.2093 43.2344L32.2344 41.2093C32.5004 40.9433 32.923 40.9177 33.2189 41.15L34.6827 42.2991C35.294 41.9551 35.9383 41.6871 36.608 41.4986L36.8302 39.6542C36.8752 39.2808 37.1921 39 37.568 39H40.432C40.8079 39 41.1248 39.2808 41.1698 39.6542L41.392 41.4988C42.0619 41.6873 42.7062 41.9551 43.3173 42.2991L44.7811 41.15C45.0769 40.9177 45.4996 40.9435 45.7656 41.2093L47.7905 43.2344C48.0565 43.5004 48.0819 43.9231 47.8496 44.2188L46.7007 45.6827C47.0449 46.2939 47.3127 46.9382 47.5012 47.6079L49.3458 47.8303C49.7192 47.8753 50 48.192 50 48.5682V51.4318C50 51.8078 49.7192 52.1247 49.3458 52.1697L47.5012 52.3921C47.3129 53.0618 47.0449 53.7061 46.7007 54.3173L47.8496 55.7812C48.0819 56.0769 48.0565 56.4996 47.7905 56.7656L45.7656 58.7907C45.4996 59.0567 45.0769 59.0825 44.7811 58.8498L43.3173 57.7007C42.7062 58.0447 42.0619 58.3127 41.392 58.5012L41.1698 60.3456C41.1248 60.719 40.8079 61 40.432 61ZM38.227 59.5136H39.7728L39.9773 57.815C40.0152 57.5003 40.2484 57.2442 40.5582 57.1775C41.4132 56.9925 42.2248 56.6554 42.97 56.1748C43.2362 56.0032 43.5823 56.019 43.8316 56.215L45.1803 57.2738L46.2733 56.1807L45.2148 54.832C45.0192 54.5827 45.0031 54.2369 45.1746 53.9705C45.6552 53.2245 45.9925 52.4131 46.177 51.5585C46.244 51.2487 46.4999 51.0154 46.8146 50.9776L48.5133 50.7729V49.2271L46.8146 49.0224C46.5001 48.9848 46.244 48.7513 46.177 48.4415C45.9925 47.5869 45.6552 46.7755 45.1746 46.0295C45.0029 45.7631 45.019 45.4173 45.2148 45.168L46.2733 43.8193L45.1803 42.7262L43.8316 43.785C43.5825 43.9806 43.2364 43.9962 42.97 43.825C42.2244 43.3446 41.413 43.0075 40.558 42.8225C40.2482 42.7558 40.015 42.4997 39.9771 42.185L39.7726 40.4864H38.2268L38.0223 42.1848C37.9845 42.4995 37.7512 42.7556 37.4414 42.8223C36.5866 43.0071 35.7752 43.3444 35.0294 43.825C34.763 43.9962 34.4169 43.9804 34.1678 43.785L32.8191 42.7262L31.7261 43.8193L32.7846 45.168C32.9802 45.4173 32.9963 45.7631 32.8248 46.0295C32.3444 46.7753 32.0071 47.5867 31.8224 48.4415C31.7554 48.7513 31.4995 48.9846 31.1848 49.0224L29.4861 49.2271V50.7729L31.1848 50.9776C31.4993 51.0152 31.7554 51.2487 31.8224 51.5585C32.0071 52.4133 32.3442 53.2247 32.8248 53.9705C32.9965 54.2369 32.9804 54.5827 32.7846 54.832L31.7261 56.1807L32.8191 57.2738L34.1678 56.215C34.4171 56.0192 34.763 56.0034 35.0294 56.1748C35.775 56.6556 36.5864 56.9929 37.4412 57.1777C37.751 57.2444 37.9843 57.5005 38.0221 57.8152L38.227 59.5136ZM39 54.4606C36.5406 54.4606 34.5398 52.4597 34.5398 50.0003C34.5398 47.5409 36.5406 45.5402 39 45.5402C41.4594 45.5402 43.4602 47.5409 43.4602 50.0003C43.4602 52.4597 41.4594 54.4606 39 54.4606ZM39 47.0266C37.3603 47.0266 36.0263 48.3605 36.0263 50.0003C36.0263 51.6401 37.3601 52.9742 39 52.9742C40.6399 52.9742 41.9737 51.6401 41.9737 50.0003C41.9737 48.3605 40.6397 47.0266 39 47.0266Z" fill="white"/>
<path d="M30.4591 23.7899H24.3699C23.9003 23.7899 23.5195 23.4092 23.5195 22.9396V16.8504C23.5195 16.3807 23.9003 16 24.3699 16H30.4591C30.9287 16 31.3095 16.3807 31.3095 16.8504V22.9396C31.3095 23.4092 30.9287 23.7899 30.4591 23.7899ZM25.2202 22.0892H29.6088V17.7007H25.2202V22.0892Z" fill="#FF8303"/>
<path d="M51.6301 23.7899H34.3543C33.8846 23.7899 33.5039 23.4092 33.5039 22.9395C33.5039 22.4699 33.8846 22.0892 34.3543 22.0892H51.6301C52.0997 22.0892 52.4804 22.4699 52.4804 22.9395C52.4804 23.4092 52.0997 23.7899 51.6301 23.7899Z" fill="#FF8303"/>
<path d="M30.4591 33.7318H24.3699C23.9003 33.7318 23.5195 33.351 23.5195 32.8814V26.7922C23.5195 26.3226 23.9003 25.9418 24.3699 25.9418H30.4591C30.9287 25.9418 31.3095 26.3226 31.3095 26.7922V32.8814C31.3095 33.3513 30.9287 33.7318 30.4591 33.7318ZM25.2202 32.0311H29.6088V27.6425H25.2202V32.0311Z" fill="#FF8303"/>
<path d="M51.6301 33.7318H34.3543C33.8846 33.7318 33.5039 33.3511 33.5039 32.8815C33.5039 32.4119 33.8846 32.0311 34.3543 32.0311H51.6301C52.0997 32.0311 52.4804 32.4119 52.4804 32.8815C52.4804 33.3511 52.0997 33.7318 51.6301 33.7318Z" fill="#FF8303"/>
</svg>
