<svg width="75" height="75" viewBox="0 0 75 75" fill="none" xmlns="http://www.w3.org/2000/svg">
<path d="M54.1125 72.5087H21.8888C18.0903 72.5087 15 69.4184 15 65.6199V10.379C15 6.58054 18.0903 3.49023 21.8888 3.49023H54.1125C57.911 3.49023 61.0013 6.58054 61.0013 10.379V65.6197C61.0015 69.4184 57.9112 72.5087 54.1125 72.5087ZM21.8888 5.19095C19.028 5.19095 16.7007 7.51842 16.7007 10.379V65.6197C16.7007 68.4803 19.0282 70.8078 21.8888 70.8078H54.1125C56.9733 70.8078 59.3006 68.4803 59.3006 65.6197V10.379C59.3006 7.5182 56.9731 5.19095 54.1125 5.19095H21.8888Z" fill="#215CFF"/>
<path d="M42.1725 9.88989H33.8322C32.1898 9.88989 30.6947 8.9867 29.9306 7.53271L28.4609 4.73629C28.3224 4.47256 28.3319 4.15578 28.4856 3.9009C28.6396 3.64602 28.9158 3.49023 29.2135 3.49023H46.7912C47.0889 3.49023 47.3651 3.64602 47.5191 3.9009C47.673 4.15578 47.6823 4.47256 47.5438 4.73629L46.0742 7.53271C45.31 8.9867 43.8149 9.88989 42.1725 9.88989ZM30.621 5.19117L31.4358 6.74154C31.9052 7.63453 32.8233 8.18919 33.832 8.18919H42.1723C43.1809 8.18919 44.0993 7.63453 44.5685 6.74154L45.3832 5.19117H30.621Z" fill="#215CFF"/>
<path d="M46.7912 68.5474H30.8504C30.3807 68.5474 30 68.1667 30 67.697C30 67.2274 30.3807 66.8467 30.8504 66.8467H46.7912C47.2609 66.8467 47.6416 67.2274 47.6416 67.697C47.6416 68.1667 47.2609 68.5474 46.7912 68.5474Z" fill="#215CFF"/>
<path d="M40.432 61H37.568C37.1921 61 36.8752 60.719 36.8302 60.3456L36.608 58.5014C35.9383 58.3129 35.2938 58.0449 34.6827 57.7007L33.2189 58.8498C32.9228 59.0825 32.5004 59.0569 32.2344 58.7907L30.2093 56.7656C29.9433 56.4996 29.9179 56.0769 30.1502 55.7812L31.2991 54.3173C30.9551 53.7061 30.6871 53.0618 30.4988 52.3921L28.6542 52.1697C28.2808 52.1247 28 51.808 28 51.4318V48.5682C28 48.1922 28.2808 47.8753 28.6542 47.8303L30.4988 47.6079C30.6871 46.9382 30.9551 46.2939 31.2991 45.6827L30.1502 44.2188C29.9179 43.9231 29.9433 43.5004 30.2093 43.2344L32.2344 41.2093C32.5004 40.9433 32.923 40.9177 33.2189 41.15L34.6827 42.2991C35.294 41.9551 35.9383 41.6871 36.608 41.4986L36.8302 39.6542C36.8752 39.2808 37.1921 39 37.568 39H40.432C40.8079 39 41.1248 39.2808 41.1698 39.6542L41.392 41.4988C42.0619 41.6873 42.7062 41.9551 43.3173 42.2991L44.7811 41.15C45.0769 40.9177 45.4996 40.9435 45.7656 41.2093L47.7905 43.2344C48.0565 43.5004 48.0819 43.9231 47.8496 44.2188L46.7007 45.6827C47.0449 46.2939 47.3127 46.9382 47.5012 47.6079L49.3458 47.8303C49.7192 47.8753 50 48.192 50 48.5682V51.4318C50 51.8078 49.7192 52.1247 49.3458 52.1697L47.5012 52.3921C47.3129 53.0618 47.0449 53.7061 46.7007 54.3173L47.8496 55.7812C48.0819 56.0769 48.0565 56.4996 47.7905 56.7656L45.7656 58.7907C45.4996 59.0567 45.0769 59.0825 44.7811 58.8498L43.3173 57.7007C42.7062 58.0447 42.0619 58.3127 41.392 58.5012L41.1698 60.3456C41.1248 60.719 40.8079 61 40.432 61ZM38.227 59.5136H39.7728L39.9773 57.815C40.0152 57.5003 40.2484 57.2442 40.5582 57.1775C41.4132 56.9925 42.2248 56.6554 42.97 56.1748C43.2362 56.0032 43.5823 56.019 43.8316 56.215L45.1803 57.2738L46.2733 56.1807L45.2148 54.832C45.0192 54.5827 45.0031 54.2369 45.1746 53.9705C45.6552 53.2245 45.9925 52.4131 46.177 51.5585C46.244 51.2487 46.4999 51.0154 46.8146 50.9776L48.5133 50.7729V49.2271L46.8146 49.0224C46.5001 48.9848 46.244 48.7513 46.177 48.4415C45.9925 47.5869 45.6552 46.7755 45.1746 46.0295C45.0029 45.7631 45.019 45.4173 45.2148 45.168L46.2733 43.8193L45.1803 42.7262L43.8316 43.785C43.5825 43.9806 43.2364 43.9962 42.97 43.825C42.2244 43.3446 41.413 43.0075 40.558 42.8225C40.2482 42.7558 40.015 42.4997 39.9771 42.185L39.7726 40.4864H38.2268L38.0223 42.1848C37.9845 42.4995 37.7512 42.7556 37.4414 42.8223C36.5866 43.0071 35.7752 43.3444 35.0294 43.825C34.763 43.9962 34.4169 43.9804 34.1678 43.785L32.8191 42.7262L31.7261 43.8193L32.7846 45.168C32.9802 45.4173 32.9963 45.7631 32.8248 46.0295C32.3444 46.7753 32.0071 47.5867 31.8224 48.4415C31.7554 48.7513 31.4995 48.9846 31.1848 49.0224L29.4861 49.2271V50.7729L31.1848 50.9776C31.4993 51.0152 31.7554 51.2487 31.8224 51.5585C32.0071 52.4133 32.3442 53.2247 32.8248 53.9705C32.9965 54.2369 32.9804 54.5827 32.7846 54.832L31.7261 56.1807L32.8191 57.2738L34.1678 56.215C34.4171 56.0192 34.763 56.0034 35.0294 56.1748C35.775 56.6556 36.5864 56.9929 37.4412 57.1777C37.751 57.2444 37.9843 57.5005 38.0221 57.8152L38.227 59.5136ZM39 54.4606C36.5406 54.4606 34.5398 52.4597 34.5398 50.0003C34.5398 47.5409 36.5406 45.5402 39 45.5402C41.4594 45.5402 43.4602 47.5409 43.4602 50.0003C43.4602 52.4597 41.4594 54.4606 39 54.4606ZM39 47.0266C37.3603 47.0266 36.0263 48.3605 36.0263 50.0003C36.0263 51.6401 37.3601 52.9742 39 52.9742C40.6399 52.9742 41.9737 51.6401 41.9737 50.0003C41.9737 48.3605 40.6397 47.0266 39 47.0266Z" fill="#215CFF"/>
<path d="M30.463 23.7899H24.3738C23.9042 23.7899 23.5234 23.4092 23.5234 22.9396V16.8504C23.5234 16.3807 23.9042 16 24.3738 16H30.463C30.9326 16 31.3134 16.3807 31.3134 16.8504V22.9396C31.3134 23.4092 30.9326 23.7899 30.463 23.7899ZM25.2241 22.0892H29.6127V17.7007H25.2241V22.0892Z" fill="#FF8303"/>
<path d="M51.634 23.7896H34.3582C33.8885 23.7896 33.5078 23.4088 33.5078 22.9392C33.5078 22.4696 33.8885 22.0889 34.3582 22.0889H51.634C52.1036 22.0889 52.4843 22.4696 52.4843 22.9392C52.4843 23.4088 52.1036 23.7896 51.634 23.7896Z" fill="#FF8303"/>
<path d="M30.463 33.7323H24.3738C23.9042 33.7323 23.5234 33.3516 23.5234 32.882V26.7927C23.5234 26.3231 23.9042 25.9424 24.3738 25.9424H30.463C30.9326 25.9424 31.3134 26.3231 31.3134 26.7927V32.882C31.3134 33.3518 30.9326 33.7323 30.463 33.7323ZM25.2241 32.0316H29.6127V27.6431H25.2241V32.0316Z" fill="#FF8303"/>
<path d="M51.634 33.732H34.3582C33.8885 33.732 33.5078 33.3512 33.5078 32.8816C33.5078 32.412 33.8885 32.0312 34.3582 32.0312H51.634C52.1036 32.0312 52.4843 32.412 52.4843 32.8816C52.4843 33.3512 52.1036 33.732 51.634 33.732Z" fill="#FF8303"/>
</svg>
