<svg width="75" height="75" viewBox="0 0 75 75" fill="none" xmlns="http://www.w3.org/2000/svg">
<path fill-rule="evenodd" clip-rule="evenodd" d="M48.6014 43.5982V8.66997C48.6014 7.97052 48.3177 7.33474 47.8612 6.87758H47.8595L47.8577 6.87935C47.3995 6.41865 46.7677 6.13126 46.0733 6.13126H18.645C17.9506 6.13126 17.3179 6.41776 16.8597 6.87758C16.4024 7.33739 16.1169 7.97052 16.1169 8.66821V67.3318C16.1169 68.0259 16.4015 68.66 16.8597 69.1207C16.8738 69.1348 16.8852 69.1463 16.8976 69.1622C17.3514 69.599 17.9664 69.867 18.6441 69.867H46.0733C46.7695 69.867 47.4013 69.5822 47.8568 69.1242L47.8604 69.1224C48.1732 68.8085 48.4049 68.4088 48.5195 67.9649C46.2707 67.4123 44.2599 66.2468 42.6746 64.656C40.4144 62.387 39.016 59.2523 39.016 55.7913C39.016 52.3303 40.4144 49.1956 42.6746 46.9266C44.2802 45.3164 46.3192 44.1438 48.6014 43.5982ZM50.2457 68.2656C50.0668 69.0667 49.6588 69.7892 49.0967 70.3551L49.094 70.3586L49.0914 70.3604L49.0905 70.3622C48.3142 71.1394 47.2453 71.6196 46.0725 71.6196L18.645 71.6213C17.4968 71.6213 16.4508 71.1589 15.6789 70.4126C15.6604 70.3966 15.641 70.3798 15.6234 70.3604C14.8497 69.5831 14.3677 68.5105 14.3677 67.3291L14.3686 8.66909C14.3686 7.48772 14.8488 6.41334 15.6234 5.63608C16.398 4.85881 17.4677 4.37512 18.6441 4.37512L46.0733 4.37689C47.2497 4.37689 48.3186 4.85881 49.094 5.63608L49.0914 5.63961C49.8677 6.41688 50.3488 7.48949 50.3488 8.66732V43.3091C50.555 43.2905 50.7621 43.2764 50.9709 43.2658V8.66821C50.9709 7.31794 50.4193 6.0897 49.5311 5.1966C48.6437 4.30703 47.4189 3.7526 46.0725 3.7526H18.645C17.2985 3.7526 16.0737 4.30703 15.1863 5.1966C14.299 6.0897 13.7474 7.31706 13.7474 8.66821V67.3318C13.7474 68.6821 14.2981 69.9085 15.1863 70.7999C16.0746 71.693 17.2985 72.2439 18.6441 72.2439L46.0733 72.2456C47.4039 72.2456 48.6129 71.7071 49.4958 70.8379C50.184 70.1623 50.6748 69.2887 50.874 68.3116C50.6634 68.3001 50.4537 68.285 50.2457 68.2656ZM52.7183 43.3135C55.6852 43.6 58.349 44.9282 60.3414 46.9266C62.6016 49.1974 64 52.3303 64 55.7913C64 59.2523 62.6016 62.387 60.3414 64.656C58.3332 66.673 55.642 68.0029 52.6478 68.2762C52.4372 69.7582 51.7358 71.0828 50.7189 72.0847C49.5179 73.2678 47.8745 73.9982 46.0733 73.9982L18.6458 74C16.8174 74 15.1546 73.2484 13.9509 72.0396C12.7472 70.8326 12 69.164 12 67.33V8.66821C12 6.83425 12.7472 5.16565 13.9509 3.95687C15.1546 2.75162 16.8165 2 18.645 2H46.0742C47.9027 2 49.5646 2.74985 50.7683 3.95687C51.9719 5.16565 52.7192 6.83425 52.7192 8.66821L52.7183 43.3135ZM59.1059 48.1681C57.1621 46.2183 54.4754 45.0095 51.5084 45.0095C48.5424 45.0113 45.8548 46.2165 43.9109 48.1681C41.9671 50.1197 40.7642 52.814 40.7642 55.7913C40.7651 58.7686 41.9671 61.4647 43.9109 63.4145C45.8548 65.3679 48.5415 66.5731 51.5084 66.5731C54.4754 66.5749 57.1612 65.3661 59.1059 63.4145C61.0498 61.4647 62.2526 58.7686 62.2526 55.7913C62.2526 52.814 61.0498 50.1179 59.1059 48.1681ZM27.6409 10.6994C27.158 10.6994 26.7668 10.3041 26.7668 9.8204C26.7668 9.33671 27.158 8.94321 27.6409 8.94321L37.0765 8.94498C37.5594 8.94498 37.9498 9.33671 37.9498 9.8204C37.9507 10.3059 37.5585 10.6976 37.0765 10.6976L27.6409 10.6994ZM23.0041 67.5697C22.5213 67.5697 22.1291 67.1762 22.1291 66.6925C22.1291 66.2088 22.5204 65.8153 23.0033 65.8153L41.7133 65.8171C42.1962 65.8171 42.5865 66.207 42.5865 66.6925C42.5874 67.1779 42.1953 67.5697 41.7124 67.5697H23.0041Z" fill="#215CFF"/>
<path d="M47 56.1589L49.8938 59.0527L56.9462 52.0004" stroke="#FF8303" stroke-width="1.95309" stroke-miterlimit="10" stroke-linecap="round" stroke-linejoin="round"/>
<path d="M25.9867 20.3095C25.8064 20.1473 25.7939 19.8718 25.9585 19.6942C27.5699 17.9568 29.7155 17 32 17C34.2845 17 36.43 17.9568 38.0414 19.6942C38.206 19.8718 38.1935 20.1473 38.0132 20.3095C37.9284 20.3859 37.8215 20.4235 37.715 20.4235C37.5952 20.4235 37.4757 20.3758 37.3885 20.2818C35.9468 18.7273 34.0331 17.8711 32 17.8711C29.9669 17.8711 28.0532 18.7273 26.6114 20.2818C26.4467 20.4594 26.167 20.4717 25.9867 20.3095ZM32 21.9141C30.9329 21.9141 29.9319 22.3597 29.1813 23.169C29.0166 23.3466 29.0292 23.6221 29.2094 23.7843C29.3897 23.9465 29.6693 23.9342 29.8341 23.7566C30.4152 23.1302 31.1843 22.7852 32 22.7852C32.8156 22.7852 33.5849 23.1302 34.1658 23.7566C34.253 23.8507 34.3725 23.8983 34.4923 23.8983C34.5988 23.8983 34.7056 23.8607 34.7905 23.7843C34.9708 23.6221 34.9833 23.3466 34.8187 23.169C34.0681 22.3597 33.0671 21.9141 32 21.9141ZM35.7772 22.0191C35.9419 22.1967 36.2216 22.2092 36.4019 22.0469C36.5822 21.8846 36.5948 21.6092 36.4301 21.4315C35.2492 20.1582 33.6758 19.457 32 19.457C30.324 19.457 28.7507 20.1582 27.5699 21.4315C27.4052 21.6092 27.4178 21.8846 27.5981 22.0469C27.6829 22.1232 27.7897 22.1609 27.8962 22.1609C28.0161 22.1609 28.1355 22.1132 28.2228 22.0191C29.234 20.9287 30.5755 20.3281 32 20.3281C33.4246 20.3281 34.7659 20.9287 35.7772 22.0191ZM45 26.8608V39.5893C45 40.9186 43.9023 42 42.5529 42H21.4471C20.0977 42 19 40.9186 19 39.5893V26.8608C19 25.5315 20.0977 24.45 21.4471 24.45H42.5529C43.9022 24.4501 45 25.5315 45 26.8608ZM19.8842 26.8608V28.699H44.1157V26.8608C44.1157 26.0119 43.4146 25.3212 42.5529 25.3212H21.4471C20.5854 25.3212 19.8842 26.0119 19.8842 26.8608ZM44.1157 39.5893V29.5701H19.8842V39.5893C19.8842 40.4383 20.5854 41.1289 21.447 41.1289H42.5529C43.4146 41.1289 44.1157 40.4382 44.1157 39.5893ZM30.8735 33.4546V37.6448C30.8735 38.3575 30.285 38.9373 29.5615 38.9373H22.9731C22.2497 38.9373 21.6611 38.3575 21.6611 37.6448V33.4546C21.6611 32.7419 22.2497 32.1621 22.9731 32.1621H29.5615C30.285 32.1621 30.8735 32.7419 30.8735 33.4546ZM29.5615 33.0332H27.7813V34.0583H29.9892V33.4547C29.9892 33.2222 29.7973 33.0332 29.5615 33.0332ZM24.7534 34.9294H22.5454V36.17H24.7534V34.9294ZM25.6377 36.17H26.897V33.0332H25.6378L25.6377 36.17ZM27.7813 36.17H29.9892V34.9294H27.7813V36.17ZM22.5454 33.4546V34.0582H24.7535V33.0332H22.9731C22.7373 33.0332 22.5454 33.2222 22.5454 33.4546ZM29.9892 37.6448V37.0411H22.5454V37.6448C22.5454 37.8772 22.7373 38.0662 22.9731 38.0662H29.5615C29.7973 38.0662 29.9892 37.8772 29.9892 37.6448ZM42.0281 33.5219H34.5296C34.2855 33.5219 34.0875 33.717 34.0875 33.9575C34.0875 34.1981 34.2855 34.3931 34.5296 34.3931H42.0281C42.2723 34.3931 42.4703 34.1981 42.4703 33.9575C42.4703 33.717 42.2723 33.5219 42.0281 33.5219ZM39.7472 36.4114H34.5297C34.2855 36.4114 34.0875 36.6064 34.0875 36.847C34.0875 37.0875 34.2855 37.2826 34.5297 37.2826H39.7472C39.9914 37.2826 40.1893 37.0875 40.1893 36.847C40.1893 36.6064 39.9914 36.4114 39.7472 36.4114Z" fill="#215CFF"/>
</svg>
