<svg width="36" height="36" viewBox="0 0 36 36" fill="none" xmlns="http://www.w3.org/2000/svg">
<g clip-path="url(#clip0_76_5129)">
<path fill-rule="evenodd" clip-rule="evenodd" d="M17.3586 23.7414H0.746094H3.8225L3.91716 4.5H17.1694L17.3586 24.3621V23.7414Z" stroke="url(#paint0_linear_76_5129)" stroke-width="1.5" stroke-linecap="square"/>
<path d="M35.2563 32.2673L32.7208 28.6864V24.0824C32.7635 22.2633 30.6103 20.6416 28.6641 18.9668" stroke="url(#paint1_linear_76_5129)" stroke-width="1.5" stroke-linecap="round" stroke-linejoin="round"/>
<path d="M28.9734 26.1286L26.2452 23.2966C25.6272 22.8746 24.8166 22.8746 24.1986 23.2966C23.9964 23.4999 23.8828 23.776 23.8828 24.064C23.8828 24.352 23.9964 24.628 24.1986 24.8312L27.4329 28.1749V29.7095C27.4329 30.6928 29.016 32.2673 29.016 32.2673" stroke="url(#paint2_linear_76_5129)" stroke-width="1.5" stroke-linecap="round" stroke-linejoin="round"/>
<path d="M25.0455 27.1517H17.8467C17.5409 27.1517 17.293 26.9226 17.293 26.64V9.24715C17.293 8.96463 17.5409 8.7356 17.8467 8.7356H27.8143C28.1201 8.7356 28.368 8.96463 28.368 9.24715V22.0361" stroke="url(#paint3_linear_76_5129)" stroke-width="1.5" stroke-linecap="round" stroke-linejoin="round"/>
<g clip-path="url(#clip1_76_5129)">
<path d="M19.875 15.7499H20.875C20.95 15.7499 21 15.6999 21 15.6249V14.6249C21 14.5499 20.95 14.4999 20.875 14.4999H19.875C19.8 14.4999 19.75 14.5499 19.75 14.6249V15.6249C19.75 15.6999 19.8 15.7499 19.875 15.7499ZM20 14.7499H20.75V15.4999H20V14.7499ZM21.875 15.7499H22.375C22.45 15.7499 22.5 15.6999 22.5 15.6249V15.1249C22.5 15.0499 22.45 14.9999 22.375 14.9999H21.875C21.8 14.9999 21.75 15.0499 21.75 15.1249V15.6249C21.75 15.6999 21.8 15.7499 21.875 15.7499ZM22 15.2499H22.25V15.4999H22V15.2499ZM20.375 17.9999H20.875C20.95 17.9999 21 17.9499 21 17.8749V17.3749C21 17.2999 20.95 17.2499 20.875 17.2499H20.375C20.3 17.2499 20.25 17.2999 20.25 17.3749V17.8749C20.25 17.9499 20.3 17.9999 20.375 17.9999ZM20.5 17.4999H20.75V17.7499H20.5V17.4999ZM20.875 18.7499H19.875C19.8 18.7499 19.75 18.7999 19.75 18.8749V19.8749C19.75 19.9499 19.8 19.9999 19.875 19.9999H20.875C20.95 19.9999 21 19.9499 21 19.8749V18.8749C21 18.7999 20.95 18.7499 20.875 18.7499ZM20.75 19.7499H20V18.9999H20.75V19.7499ZM25.125 14.4999H24.125C24.05 14.4999 24 14.5499 24 14.6249V15.6249C24 15.6999 24.05 15.7499 24.125 15.7499H25.125C25.2 15.7499 25.25 15.6999 25.25 15.6249V14.6249C25.25 14.5499 25.2 14.4999 25.125 14.4999ZM25 15.4999H24.25V14.7499H25V15.4999Z" fill="#FF8303"/>
<path d="M20.25 15H20.5V15.25H20.25V15ZM24.5 15H24.75V15.25H24.5V15ZM20.25 19.25H20.5V19.5H20.25V19.25ZM25.125 18.625H24.625C24.55 18.625 24.5 18.675 24.5 18.75V19.75H23.75V17.375C23.75 17.3 23.7 17.25 23.625 17.25H22.375C22.3 17.25 22.25 17.3 22.25 17.375C22.25 17.45 22.3 17.5 22.375 17.5H23.5V19.875C23.5 19.95 23.55 20 23.625 20H24.625C24.7 20 24.75 19.95 24.75 19.875V18.875H25V19.875C25 19.95 25.05 20 25.125 20C25.2 20 25.25 19.95 25.25 19.875V18.75C25.25 18.675 25.2 18.625 25.125 18.625Z" fill="#FF8303"/>
<path d="M25.125 17.1249H24.625C24.55 17.1249 24.5 17.1749 24.5 17.2499C24.5 17.3249 24.55 17.3749 24.625 17.3749H25V18.1249H24.125C24.05 18.1249 24 18.1749 24 18.2499V19.3749C24 19.4499 24.05 19.4999 24.125 19.4999C24.2 19.4999 24.25 19.4499 24.25 19.3749V18.3749H25.125C25.2 18.3749 25.25 18.3249 25.25 18.2499V17.2499C25.25 17.1749 25.2 17.1249 25.125 17.1249Z" fill="#FF8303"/>
<path d="M25.125 15.9999H24.125C24.05 15.9999 24 16.0499 24 16.1249V17.7499C24 17.8249 24.05 17.8749 24.125 17.8749H24.75C24.825 17.8749 24.875 17.8249 24.875 17.7499C24.875 17.6749 24.825 17.6249 24.75 17.6249H24.25V16.2499H25V16.4999H24.625C24.55 16.4999 24.5 16.5499 24.5 16.6249C24.5 16.6999 24.55 16.7499 24.625 16.7499H25.125C25.2 16.7499 25.25 16.6999 25.25 16.6249V16.1249C25.25 16.0499 25.2 15.9999 25.125 15.9999ZM19.875 16.2499H21.375C21.45 16.2499 21.5 16.1999 21.5 16.1249V14.7499H22.375C22.45 14.7499 22.5 14.6999 22.5 14.6249C22.5 14.5499 22.45 14.4999 22.375 14.4999H21.375C21.3 14.4999 21.25 14.5499 21.25 14.6249V15.9999H19.875C19.8 15.9999 19.75 16.0499 19.75 16.1249C19.75 16.1999 19.8 16.2499 19.875 16.2499ZM19.875 18.4999H21.75V19.3749C21.75 19.4499 21.8 19.4999 21.875 19.4999C21.95 19.4999 22 19.4499 22 19.3749V18.3749C22 18.2999 21.95 18.2499 21.875 18.2499H20V16.6249C20 16.5499 19.95 16.4999 19.875 16.4999C19.8 16.4999 19.75 16.5499 19.75 16.6249V18.3749C19.75 18.4499 19.8 18.4999 19.875 18.4999Z" fill="#FF8303"/>
<path d="M22.375 19.75H21.5V18.875C21.5 18.8 21.45 18.75 21.375 18.75C21.3 18.75 21.25 18.8 21.25 18.875V19.875C21.25 19.95 21.3 20 21.375 20H22.375C22.45 20 22.5 19.95 22.5 19.875C22.5 19.8 22.45 19.75 22.375 19.75ZM23.125 17.75H21.5V16.625C21.5 16.55 21.45 16.5 21.375 16.5H20.375C20.3 16.5 20.25 16.55 20.25 16.625V16.875C20.25 16.95 20.3 17 20.375 17C20.45 17 20.5 16.95 20.5 16.875V16.75H21.25V17.875C21.25 17.95 21.3 18 21.375 18H23.125C23.2 18 23.25 17.95 23.25 17.875C23.25 17.8 23.2 17.75 23.125 17.75ZM23.125 18.75H22.875C22.8 18.75 22.75 18.8 22.75 18.875C22.75 18.95 22.8 19 22.875 19H23.125C23.2 19 23.25 18.95 23.25 18.875C23.25 18.8 23.2 18.75 23.125 18.75Z" fill="#FF8303"/>
<path d="M23.125 18.2499H22.375C22.3 18.2499 22.25 18.2999 22.25 18.3749V19.3749C22.25 19.4499 22.3 19.4999 22.375 19.4999H23V19.7499H22.875C22.8 19.7499 22.75 19.7999 22.75 19.8749C22.75 19.9499 22.8 19.9999 22.875 19.9999H23.125C23.2 19.9999 23.25 19.9499 23.25 19.8749V19.3749C23.25 19.2999 23.2 19.2499 23.125 19.2499H22.5V18.4999H23.125C23.2 18.4999 23.25 18.4499 23.25 18.3749C23.25 18.2999 23.2 18.2499 23.125 18.2499ZM22.875 14.7499H23.5V16.7499H21.875C21.8 16.7499 21.75 16.7999 21.75 16.8749V17.3749C21.75 17.4499 21.8 17.4999 21.875 17.4999C21.95 17.4999 22 17.4499 22 17.3749V16.9999H23.625C23.7 16.9999 23.75 16.9499 23.75 16.8749V14.6249C23.75 14.5499 23.7 14.4999 23.625 14.4999H22.875C22.8 14.4999 22.75 14.5499 22.75 14.6249C22.75 14.6999 22.8 14.7499 22.875 14.7499Z" fill="#FF8303"/>
<path d="M21.75 16.125V16.375C21.75 16.45 21.8 16.5 21.875 16.5C21.95 16.5 22 16.45 22 16.375V16.25H22.875C22.95 16.25 23 16.2 23 16.125V15.25H23.125C23.2 15.25 23.25 15.2 23.25 15.125C23.25 15.05 23.2 15 23.125 15H22.875C22.8 15 22.75 15.05 22.75 15.125V16H21.875C21.8 16 21.75 16.05 21.75 16.125Z" fill="#FF8303"/>
</g>
<g clip-path="url(#clip2_76_5129)">
<path d="M6.5625 12.75H8.0625C8.175 12.75 8.25 12.675 8.25 12.5625V11.0625C8.25 10.95 8.175 10.875 8.0625 10.875H6.5625C6.45 10.875 6.375 10.95 6.375 11.0625V12.5625C6.375 12.675 6.45 12.75 6.5625 12.75ZM6.75 11.25H7.875V12.375H6.75V11.25ZM9.5625 12.75H10.3125C10.425 12.75 10.5 12.675 10.5 12.5625V11.8125C10.5 11.7 10.425 11.625 10.3125 11.625H9.5625C9.45 11.625 9.375 11.7 9.375 11.8125V12.5625C9.375 12.675 9.45 12.75 9.5625 12.75ZM9.75 12H10.125V12.375H9.75V12ZM7.3125 16.125H8.0625C8.175 16.125 8.25 16.05 8.25 15.9375V15.1875C8.25 15.075 8.175 15 8.0625 15H7.3125C7.2 15 7.125 15.075 7.125 15.1875V15.9375C7.125 16.05 7.2 16.125 7.3125 16.125ZM7.5 15.375H7.875V15.75H7.5V15.375ZM8.0625 17.25H6.5625C6.45 17.25 6.375 17.325 6.375 17.4375V18.9375C6.375 19.05 6.45 19.125 6.5625 19.125H8.0625C8.175 19.125 8.25 19.05 8.25 18.9375V17.4375C8.25 17.325 8.175 17.25 8.0625 17.25ZM7.875 18.75H6.75V17.625H7.875V18.75ZM14.4375 10.875H12.9375C12.825 10.875 12.75 10.95 12.75 11.0625V12.5625C12.75 12.675 12.825 12.75 12.9375 12.75H14.4375C14.55 12.75 14.625 12.675 14.625 12.5625V11.0625C14.625 10.95 14.55 10.875 14.4375 10.875ZM14.25 12.375H13.125V11.25H14.25V12.375Z" fill="url(#paint4_linear_76_5129)"/>
<path d="M7.125 11.625H7.5V12H7.125V11.625ZM13.5 11.625H13.875V12H13.5V11.625ZM7.125 18H7.5V18.375H7.125V18ZM14.4375 17.0625H13.6875C13.575 17.0625 13.5 17.1375 13.5 17.25V18.75H12.375V15.1875C12.375 15.075 12.3 15 12.1875 15H10.3125C10.2 15 10.125 15.075 10.125 15.1875C10.125 15.3 10.2 15.375 10.3125 15.375H12V18.9375C12 19.05 12.075 19.125 12.1875 19.125H13.6875C13.8 19.125 13.875 19.05 13.875 18.9375V17.4375H14.25V18.9375C14.25 19.05 14.325 19.125 14.4375 19.125C14.55 19.125 14.625 19.05 14.625 18.9375V17.25C14.625 17.1375 14.55 17.0625 14.4375 17.0625Z" fill="url(#paint5_linear_76_5129)"/>
<path d="M14.4375 14.8125H13.6875C13.575 14.8125 13.5 14.8875 13.5 15C13.5 15.1125 13.575 15.1875 13.6875 15.1875H14.25V16.3125H12.9375C12.825 16.3125 12.75 16.3875 12.75 16.5V18.1875C12.75 18.3 12.825 18.375 12.9375 18.375C13.05 18.375 13.125 18.3 13.125 18.1875V16.6875H14.4375C14.55 16.6875 14.625 16.6125 14.625 16.5V15C14.625 14.8875 14.55 14.8125 14.4375 14.8125Z" fill="url(#paint6_linear_76_5129)"/>
<path d="M14.4375 13.125H12.9375C12.825 13.125 12.75 13.2 12.75 13.3125V15.75C12.75 15.8625 12.825 15.9375 12.9375 15.9375H13.875C13.9875 15.9375 14.0625 15.8625 14.0625 15.75C14.0625 15.6375 13.9875 15.5625 13.875 15.5625H13.125V13.5H14.25V13.875H13.6875C13.575 13.875 13.5 13.95 13.5 14.0625C13.5 14.175 13.575 14.25 13.6875 14.25H14.4375C14.55 14.25 14.625 14.175 14.625 14.0625V13.3125C14.625 13.2 14.55 13.125 14.4375 13.125ZM6.5625 13.5H8.8125C8.925 13.5 9 13.425 9 13.3125V11.25H10.3125C10.425 11.25 10.5 11.175 10.5 11.0625C10.5 10.95 10.425 10.875 10.3125 10.875H8.8125C8.7 10.875 8.625 10.95 8.625 11.0625V13.125H6.5625C6.45 13.125 6.375 13.2 6.375 13.3125C6.375 13.425 6.45 13.5 6.5625 13.5ZM6.5625 16.875H9.375V18.1875C9.375 18.3 9.45 18.375 9.5625 18.375C9.675 18.375 9.75 18.3 9.75 18.1875V16.6875C9.75 16.575 9.675 16.5 9.5625 16.5H6.75V14.0625C6.75 13.95 6.675 13.875 6.5625 13.875C6.45 13.875 6.375 13.95 6.375 14.0625V16.6875C6.375 16.8 6.45 16.875 6.5625 16.875Z" fill="url(#paint7_linear_76_5129)"/>
<path d="M10.3125 18.75H9V17.4375C9 17.325 8.925 17.25 8.8125 17.25C8.7 17.25 8.625 17.325 8.625 17.4375V18.9375C8.625 19.05 8.7 19.125 8.8125 19.125H10.3125C10.425 19.125 10.5 19.05 10.5 18.9375C10.5 18.825 10.425 18.75 10.3125 18.75ZM11.4375 15.75H9V14.0625C9 13.95 8.925 13.875 8.8125 13.875H7.3125C7.2 13.875 7.125 13.95 7.125 14.0625V14.4375C7.125 14.55 7.2 14.625 7.3125 14.625C7.425 14.625 7.5 14.55 7.5 14.4375V14.25H8.625V15.9375C8.625 16.05 8.7 16.125 8.8125 16.125H11.4375C11.55 16.125 11.625 16.05 11.625 15.9375C11.625 15.825 11.55 15.75 11.4375 15.75ZM11.4375 17.25H11.0625C10.95 17.25 10.875 17.325 10.875 17.4375C10.875 17.55 10.95 17.625 11.0625 17.625H11.4375C11.55 17.625 11.625 17.55 11.625 17.4375C11.625 17.325 11.55 17.25 11.4375 17.25Z" fill="url(#paint8_linear_76_5129)"/>
<path d="M11.4375 16.5H10.3125C10.2 16.5 10.125 16.575 10.125 16.6875V18.1875C10.125 18.3 10.2 18.375 10.3125 18.375H11.25V18.75H11.0625C10.95 18.75 10.875 18.825 10.875 18.9375C10.875 19.05 10.95 19.125 11.0625 19.125H11.4375C11.55 19.125 11.625 19.05 11.625 18.9375V18.1875C11.625 18.075 11.55 18 11.4375 18H10.5V16.875H11.4375C11.55 16.875 11.625 16.8 11.625 16.6875C11.625 16.575 11.55 16.5 11.4375 16.5ZM11.0625 11.25H12V14.25H9.5625C9.45 14.25 9.375 14.325 9.375 14.4375V15.1875C9.375 15.3 9.45 15.375 9.5625 15.375C9.675 15.375 9.75 15.3 9.75 15.1875V14.625H12.1875C12.3 14.625 12.375 14.55 12.375 14.4375V11.0625C12.375 10.95 12.3 10.875 12.1875 10.875H11.0625C10.95 10.875 10.875 10.95 10.875 11.0625C10.875 11.175 10.95 11.25 11.0625 11.25Z" fill="url(#paint9_linear_76_5129)"/>
<path d="M9.375 13.3125V13.6875C9.375 13.8 9.45 13.875 9.5625 13.875C9.675 13.875 9.75 13.8 9.75 13.6875V13.5H11.0625C11.175 13.5 11.25 13.425 11.25 13.3125V12H11.4375C11.55 12 11.625 11.925 11.625 11.8125C11.625 11.7 11.55 11.625 11.4375 11.625H11.0625C10.95 11.625 10.875 11.7 10.875 11.8125V13.125H9.5625C9.45 13.125 9.375 13.2 9.375 13.3125Z" fill="url(#paint10_linear_76_5129)"/>
</g>
</g>
<defs>
<linearGradient id="paint0_linear_76_5129" x1="9.05237" y1="4.5" x2="9.05237" y2="24.3621" gradientUnits="userSpaceOnUse">
<stop stop-color="#047CF2"/>
<stop offset="1" stop-color="#0431D7"/>
</linearGradient>
<linearGradient id="paint1_linear_76_5129" x1="31.9602" y1="18.9668" x2="31.9602" y2="32.2673" gradientUnits="userSpaceOnUse">
<stop stop-color="#047CF2"/>
<stop offset="1" stop-color="#0431D7"/>
</linearGradient>
<linearGradient id="paint2_linear_76_5129" x1="26.4494" y1="22.9801" x2="26.4494" y2="32.2673" gradientUnits="userSpaceOnUse">
<stop stop-color="#047CF2"/>
<stop offset="1" stop-color="#0431D7"/>
</linearGradient>
<linearGradient id="paint3_linear_76_5129" x1="22.8305" y1="8.7356" x2="22.8305" y2="27.1517" gradientUnits="userSpaceOnUse">
<stop stop-color="#047CF2"/>
<stop offset="1" stop-color="#0431D7"/>
</linearGradient>
<linearGradient id="paint4_linear_76_5129" x1="10.5" y1="10.875" x2="10.5" y2="19.125" gradientUnits="userSpaceOnUse">
<stop stop-color="#047CF4"/>
<stop offset="1" stop-color="#0431D7"/>
</linearGradient>
<linearGradient id="paint5_linear_76_5129" x1="10.875" y1="11.625" x2="10.875" y2="19.125" gradientUnits="userSpaceOnUse">
<stop stop-color="#047CF4"/>
<stop offset="1" stop-color="#0431D7"/>
</linearGradient>
<linearGradient id="paint6_linear_76_5129" x1="13.6875" y1="14.8125" x2="13.6875" y2="18.375" gradientUnits="userSpaceOnUse">
<stop stop-color="#047CF4"/>
<stop offset="1" stop-color="#0431D7"/>
</linearGradient>
<linearGradient id="paint7_linear_76_5129" x1="10.5" y1="10.875" x2="10.5" y2="18.375" gradientUnits="userSpaceOnUse">
<stop stop-color="#047CF4"/>
<stop offset="1" stop-color="#0431D7"/>
</linearGradient>
<linearGradient id="paint8_linear_76_5129" x1="9.375" y1="13.875" x2="9.375" y2="19.125" gradientUnits="userSpaceOnUse">
<stop stop-color="#047CF4"/>
<stop offset="1" stop-color="#0431D7"/>
</linearGradient>
<linearGradient id="paint9_linear_76_5129" x1="10.875" y1="10.875" x2="10.875" y2="19.125" gradientUnits="userSpaceOnUse">
<stop stop-color="#047CF4"/>
<stop offset="1" stop-color="#0431D7"/>
</linearGradient>
<linearGradient id="paint10_linear_76_5129" x1="10.5" y1="11.625" x2="10.5" y2="13.875" gradientUnits="userSpaceOnUse">
<stop stop-color="#047CF4"/>
<stop offset="1" stop-color="#0431D7"/>
</linearGradient>
<clipPath id="clip0_76_5129">
<rect width="36" height="36" fill="white"/>
</clipPath>
<clipPath id="clip1_76_5129">
<rect width="6" height="6" fill="white" transform="translate(19.5 14.25)"/>
</clipPath>
<clipPath id="clip2_76_5129">
<rect width="9" height="9" fill="white" transform="translate(6 10.5)"/>
</clipPath>
</defs>
</svg>
