<svg width="75" height="75" viewBox="0 0 75 75" fill="none" xmlns="http://www.w3.org/2000/svg">
<path d="M16 26.3333V59C16 59.9282 16.3687 60.8185 17.0251 61.4749C17.6815 62.1312 18.5717 62.5 19.5 62.5H54.5C55.4283 62.5 56.3185 62.1312 56.9749 61.4749C57.6313 60.8185 58 59.9282 58 59V26.3333C58 25.4051 57.6313 24.5148 56.9749 23.8584C56.3185 23.2021 55.4283 22.8333 54.5 22.8333H19.5C18.5717 22.8333 17.6815 23.2021 17.0251 23.8584C16.3687 24.5148 16 25.4051 16 26.3333ZM55.6667 26.3333V59C55.6667 59.3094 55.5438 59.6062 55.325 59.8249C55.1062 60.0437 54.8094 60.1667 54.5 60.1667H19.5C19.1906 60.1667 18.8938 60.0437 18.675 59.8249C18.4562 59.6062 18.3333 59.3094 18.3333 59V26.3333C18.3333 26.0239 18.4562 25.7271 18.675 25.5084C18.8938 25.2896 19.1906 25.1666 19.5 25.1666H54.5C54.8094 25.1666 55.1062 25.2896 55.325 25.5084C55.5438 25.7271 55.6667 26.0239 55.6667 26.3333Z" fill="white"/>
<path d="M34.1057 31.9729C33.8938 32.1314 33.8069 32.4022 33.8885 32.6503C33.9701 32.8985 34.2032 33.0694 34.4701 33.0797C37.0307 33.1723 38.6177 33.5533 39.3201 34.2431C40.2587 35.1645 40.228 36.086 39.2258 37.0599L35.8993 40.2927L33.6501 38.107C34.3419 36.0993 33.8175 33.8868 32.257 32.3713C30.7442 30.9011 28.5332 30.3668 26.4864 30.9773C26.2735 31.0411 26.1103 31.2079 26.0563 31.419C26.0023 31.63 26.0659 31.8514 26.2237 32.0048L29.5926 35.2788L29.1286 37.2525L27.0977 37.7034L23.7288 34.4294C23.5709 34.276 23.3421 34.2142 23.126 34.2667C22.9099 34.3192 22.7372 34.4778 22.6715 34.6847C22.0433 36.6738 22.5931 38.8225 24.1059 40.2927C25.6665 41.8093 27.9421 42.3189 30.0079 41.6466L31.3343 42.9356C31.2156 43.0036 31.1033 43.0859 31.0016 43.1848L23.6674 50.3114C23.3495 50.6202 23.1747 51.0321 23.1747 51.4707C23.1747 51.9093 23.3495 52.3211 23.6674 52.63L26.1008 54.9948C26.4303 55.315 26.8615 55.4746 27.2937 55.4746C27.7259 55.4746 28.1582 55.315 28.4866 54.9948L35.8209 47.8672C35.9226 47.7684 36.0063 47.6592 36.0772 47.5439L37.6727 49.0944C36.9809 51.1021 37.5053 53.3146 39.0658 54.8301C40.1655 55.8988 41.6328 56.4723 43.1382 56.4723C43.705 56.4723 44.2771 56.3909 44.8364 56.2241C45.0494 56.1603 45.2125 55.9935 45.2665 55.7825C45.3206 55.5714 45.257 55.35 45.0992 55.1966L41.7302 51.9226L42.1943 49.949L44.2251 49.498L47.5941 52.772C47.7519 52.9254 47.9807 52.9872 48.1969 52.9347C48.413 52.8822 48.5857 52.7236 48.6513 52.5167C49.2796 50.5276 48.7297 48.3789 47.2169 46.9087C45.6564 45.3921 43.3808 44.8825 41.315 45.5548L38.7978 43.1086L42.4888 39.5216C42.6011 39.4125 42.7504 39.3528 42.9115 39.3528C43.0725 39.3528 43.2219 39.4125 43.3342 39.5216C43.5598 39.7409 43.5662 40.1043 43.3469 40.3308C42.8977 40.7952 42.9083 41.5128 43.3723 41.9627L45.0515 43.5966C45.2793 43.818 45.5822 43.9394 45.9043 43.9394C46.2264 43.9394 46.5294 43.818 46.7571 43.5966L51.2299 39.2498C51.4577 39.0284 51.5827 38.734 51.5827 38.421C51.5827 38.108 51.4577 37.8125 51.2299 37.5922L49.5508 35.9604C49.0868 35.5094 48.3494 35.4981 47.8716 35.9357C47.6386 36.1488 47.2656 36.1426 47.04 35.9233C46.8143 35.704 46.808 35.3406 47.0273 35.1141C47.4765 34.6497 47.4648 33.9332 47.0019 33.4822L44.7453 31.2893C42.0173 28.6381 38.6569 28.5702 35.2816 31.0957L34.1057 31.9729ZM29.921 40.3597C28.2302 41.0484 26.3 40.6799 25.0033 39.4207C24.0985 38.5415 23.6356 37.3503 23.6907 36.1426L26.4462 38.8205C26.6009 38.9708 26.8244 39.0336 27.0373 38.9862L29.8003 38.3726C30.0386 38.3201 30.224 38.1389 30.2781 37.9083L30.9095 35.2232C30.9582 35.0163 30.8936 34.799 30.7389 34.6487L27.9834 31.9708C29.225 31.9163 30.4518 32.3672 31.3565 33.2464C32.6532 34.5066 33.0325 36.3825 32.3227 38.0257C32.2231 38.2573 32.2772 38.524 32.4594 38.701L34.9977 41.1679L33.1533 42.9603L30.6149 40.4935C30.4338 40.3154 30.1594 40.2619 29.921 40.3597ZM34.9225 46.9962L27.5893 54.1228C27.4304 54.2783 27.1602 54.2783 27.0013 54.1228L24.5678 51.7579C24.4905 51.6828 24.4471 51.5808 24.4471 51.4717C24.4471 51.3626 24.4895 51.2617 24.5678 51.1855L31.9021 44.0589C31.9816 43.9817 32.0896 43.9425 32.1966 43.9425C32.3036 43.9425 32.4106 43.9817 32.4901 44.0589L34.9236 46.4238C35.0814 46.5792 35.0814 46.8407 34.9225 46.9962ZM40.7058 46.712C40.888 46.8891 41.1635 46.9416 41.4008 46.8449C43.0916 46.1561 45.0218 46.5247 46.3185 47.7838C47.2233 48.6631 47.6862 49.8543 47.6311 51.0619L44.8756 48.384C44.7209 48.2337 44.4974 48.1709 44.2845 48.2183L41.5215 48.8319C41.2832 48.8844 41.0978 49.0656 41.0437 49.2962L40.4123 51.9813C40.3636 52.1883 40.4282 52.4055 40.5829 52.5558L43.3384 55.2337C42.0957 55.2883 40.87 54.8373 39.9653 53.9581C38.6686 52.6979 38.2893 50.822 38.9991 49.1789C39.0987 48.9472 39.0446 48.6806 38.8624 48.5035L36.055 45.7751L37.8994 43.9827L40.7058 46.712ZM43.8448 32.1613L46.0579 34.312C45.417 35.0214 45.4488 36.123 46.1406 36.7953C46.8323 37.4676 47.9659 37.4985 48.6958 36.8756L50.285 38.42L45.9043 42.6772L44.3152 41.1329C44.9561 40.4235 44.9244 39.3219 44.2326 38.6496C43.8808 38.3078 43.4115 38.1193 42.9104 38.1193C42.4093 38.1193 41.9411 38.3078 41.5883 38.6496L35.1545 44.9021L34.0538 43.8324L40.1242 37.933C41.6169 36.4823 41.654 34.7784 40.2238 33.3731C39.4568 32.6194 38.1897 32.1675 36.2107 31.9585C38.1918 30.5294 41.0745 29.469 43.8448 32.1613Z" fill="#FF8303"/>
<path d="M71.2417 15.9033L62.6667 12.66V4.16667C62.6667 3.85725 62.5438 3.5605 62.325 3.34171C62.1062 3.12292 61.8095 3 61.5 3H53.3334C53.024 3 52.7272 3.12292 52.5084 3.34171C52.2896 3.5605 52.1667 3.85725 52.1667 4.16667V8.67L37.4084 3.07C37.1441 2.97668 36.8559 2.97668 36.5917 3.07L2.75837 15.9033C2.53572 15.9878 2.34398 16.1378 2.20855 16.3337C2.07313 16.5295 2.00041 16.7619 2.00003 17V24C1.99864 24.1884 2.04368 24.3743 2.13117 24.5411C2.21867 24.708 2.34593 24.8507 2.5017 24.9567C2.65636 25.0642 2.83455 25.133 3.02132 25.1574C3.20809 25.1817 3.39797 25.1609 3.57503 25.0967L6.6667 23.9183V66H4.33337C4.02395 66 3.7272 66.1229 3.50841 66.3417C3.28961 66.5605 3.1667 66.8573 3.1667 67.1667V71.8334C3.1667 72.1428 3.28961 72.4395 3.50841 72.6583C3.7272 72.8771 4.02395 73 4.33337 73H69.6667C69.9761 73 70.2729 72.8771 70.4917 72.6583C70.7105 72.4395 70.8334 72.1428 70.8334 71.8334V67.1667C70.8334 66.8573 70.7105 66.5605 70.4917 66.3417C70.2729 66.1229 69.9761 66 69.6667 66H67.3334V23.9183L70.4251 25.0967C70.5561 25.1435 70.6942 25.1672 70.8334 25.1667C71.1428 25.1667 71.4395 25.0438 71.6583 24.825C71.8771 24.6062 72.0001 24.3094 72.0001 24V17C71.9997 16.7619 71.927 16.5295 71.7915 16.3337C71.6561 16.1378 71.4644 15.9878 71.2417 15.9033ZM54.5 5.33333H60.3334V11.7733L54.5 9.55667V5.33333ZM68.5 68.3334V70.6667H5.50003V68.3334H68.5ZM9.00003 66V23.0317L37 12.415L65 23.0317V66H9.00003ZM69.6667 22.3083L37.4084 10.07C37.1441 9.97669 36.8559 9.97669 36.5917 10.07L4.33337 22.3083V17.805L37 5.415L69.6667 17.805V22.3083Z" fill="white"/>
</svg>
