<svg width="75" height="75" viewBox="0 0 75 75" fill="none" xmlns="http://www.w3.org/2000/svg">
<g clip-path="url(#clip0_370_862)">
<path d="M15.3855 22.3334C15.5835 22.333 15.7814 22.3324 15.9793 22.3316C16.5198 22.3301 17.0603 22.3313 17.6008 22.3329C18.185 22.3341 18.7693 22.3329 19.3535 22.332C20.4966 22.3307 21.6397 22.3316 22.7828 22.3334C24.1147 22.3353 25.4466 22.3351 26.7785 22.3348C29.1553 22.3343 31.5321 22.336 33.9088 22.3388C36.2139 22.3415 38.519 22.3425 40.824 22.3417C43.3357 22.3408 45.8474 22.3409 48.3592 22.3425C48.6271 22.3427 48.895 22.3428 49.1629 22.343C49.2948 22.3431 49.4266 22.3432 49.5624 22.3433C50.4903 22.3438 51.4182 22.3438 52.3461 22.3435C53.4772 22.3432 54.6082 22.3439 55.7393 22.346C56.3161 22.347 56.8929 22.3476 57.4697 22.347C57.9982 22.3464 58.5266 22.3471 59.0551 22.3489C59.3359 22.3495 59.6166 22.3487 59.8974 22.3479C61.3977 22.3553 62.6087 22.458 63.7341 23.5273C64.491 24.4636 64.7106 25.4862 64.5896 26.664C64.4078 27.6614 64.0805 28.4207 63.3064 29.0879C62.2617 29.7668 61.1727 29.7363 59.9666 29.7229C59.7613 29.7228 59.556 29.7229 59.3508 29.7232C58.797 29.7234 58.2433 29.72 57.6896 29.716C57.1096 29.7124 56.5296 29.7121 55.9496 29.7114C54.8529 29.7097 53.7562 29.705 52.6595 29.6993C51.4102 29.6929 50.161 29.6898 48.9117 29.6869C46.3434 29.6809 43.7751 29.6709 41.2067 29.6582C41.2121 31.9289 41.2206 34.1995 41.233 36.4702C41.2386 37.5247 41.2432 38.5792 41.2454 39.6337C41.2472 40.5537 41.2511 41.4737 41.2573 42.3936C41.2605 42.88 41.2628 43.3663 41.2626 43.8526C41.2348 47.6147 41.2348 47.6147 42.9177 50.9023C43.6012 51.5829 44.4065 51.9398 45.2958 52.2891C45.6929 52.5071 45.7528 52.6232 45.9118 53.041C45.9487 53.4347 45.9487 53.4347 45.9497 53.8825C45.9501 54.0447 45.9504 54.2069 45.9508 54.3741C45.9497 54.5429 45.9486 54.7117 45.9475 54.8856C45.9486 55.0539 45.9497 55.2221 45.9508 55.3955C45.9504 55.5579 45.9501 55.7203 45.9497 55.8876C45.9494 56.0355 45.9491 56.1834 45.9487 56.3359C45.9102 56.7666 45.8219 57.0761 45.6267 57.4609C45.2904 57.629 45.0896 57.6218 44.7147 57.6226C44.5829 57.6232 44.4512 57.6238 44.3155 57.6244C44.1705 57.6243 44.0256 57.6243 43.8762 57.6242C43.6477 57.6249 43.6477 57.6249 43.4146 57.6257C42.9091 57.627 42.4035 57.6273 41.8979 57.6275C41.5477 57.6279 41.1975 57.6284 40.8473 57.6289C40.1125 57.6297 39.3776 57.63 38.6427 57.6299C37.6995 57.6299 36.7562 57.6319 35.8129 57.6343C35.0895 57.6359 34.366 57.6362 33.6425 57.6361C33.2947 57.6363 32.9468 57.6369 32.599 57.638C32.1132 57.6394 31.6274 57.639 31.1417 57.6381C30.997 57.6389 30.8523 57.6397 30.7033 57.6406C30.5711 57.64 30.439 57.6394 30.3028 57.6388C30.188 57.6388 30.0731 57.6389 29.9547 57.639C29.6579 57.6035 29.6579 57.6035 29.2302 57.3183C28.98 56.5678 29.0552 55.7692 29.052 54.9836C29.0475 54.7201 29.0475 54.7201 29.043 54.4512C29.0419 54.197 29.0419 54.197 29.0408 53.9377C29.0395 53.7829 29.0382 53.628 29.0368 53.4685C29.0946 52.9819 29.2226 52.7179 29.5153 52.3281C29.8963 52.1326 29.8963 52.1326 30.3352 51.9806C31.7287 51.4366 32.4174 50.6708 33.0798 49.334C33.4452 48.4354 33.6658 47.554 33.6727 46.581C33.6741 46.4312 33.6755 46.2815 33.6769 46.1272C33.6777 45.9644 33.6785 45.8017 33.6794 45.634C33.6808 45.4615 33.6822 45.2889 33.6837 45.1111C33.6874 44.6393 33.6905 44.1674 33.6934 43.6956C33.6965 43.2019 33.7004 42.7083 33.7042 42.2147C33.7113 41.2806 33.7177 40.3465 33.7239 39.4123C33.7309 38.3486 33.7387 37.2848 33.7466 36.2211C33.7629 34.0335 33.7781 31.8458 33.7927 29.6582C33.685 29.6587 33.5773 29.6592 33.4663 29.6598C30.8435 29.6724 28.2207 29.6818 25.5979 29.6877C24.3295 29.6907 23.0611 29.6947 21.7927 29.7012C20.687 29.7069 19.5812 29.7106 18.4755 29.7119C17.8902 29.7126 17.3049 29.7143 16.7196 29.7185C16.1682 29.7224 15.6168 29.7236 15.0654 29.7227C14.8635 29.7229 14.6617 29.724 14.4598 29.7262C13.1882 29.7393 12.277 29.6873 11.267 28.854C10.4462 27.8564 10.1779 26.9675 10.2188 25.6699C10.3453 24.5431 10.7673 23.7729 11.6095 23.0244C12.8009 22.3459 14.0457 22.3256 15.3855 22.3334ZM12.3525 25.0511C12.0722 25.6226 11.9952 26.0397 12.1208 26.664C12.4081 27.199 12.6134 27.4677 13.1189 27.8047C13.4959 27.8482 13.4959 27.8482 13.9288 27.8418C14.0986 27.8428 14.2683 27.8438 14.4433 27.8448C14.6307 27.8445 14.8181 27.8441 15.0113 27.8438C15.2117 27.8444 15.4121 27.8452 15.6125 27.846C16.1645 27.8481 16.7165 27.8483 17.2685 27.8482C17.8633 27.8485 18.4581 27.8503 19.0529 27.852C20.3541 27.8552 21.6552 27.8563 22.9564 27.8571C23.7684 27.8575 24.5805 27.8585 25.3925 27.8595C27.6399 27.8623 29.8872 27.8646 32.1345 27.865C32.3503 27.8651 32.3503 27.8651 32.5705 27.8651C32.8622 27.8652 33.1538 27.8652 33.4455 27.8653C33.5903 27.8653 33.7351 27.8653 33.8843 27.8653C34.0293 27.8654 34.1742 27.8654 34.3236 27.8654C36.6737 27.8659 39.0238 27.8698 41.3739 27.8751C43.7853 27.8805 46.1967 27.8833 48.6082 27.8833C49.9627 27.8834 51.3171 27.8846 52.6716 27.8888C53.8248 27.8923 54.9779 27.8933 56.1311 27.8912C56.7197 27.8901 57.3082 27.8903 57.8968 27.8935C58.4355 27.8964 58.974 27.8961 59.5126 27.8931C59.8002 27.8923 60.0878 27.8951 60.3755 27.898C61.3728 27.9274 61.3728 27.9274 62.2032 27.4609C62.6764 26.7558 62.7904 26.3929 62.6698 25.5502C62.5565 25.0871 62.3772 24.8411 62.0231 24.5254C61.4394 24.2911 60.9478 24.2045 60.3211 24.2039C60.154 24.2031 59.987 24.2023 59.8149 24.2014C59.6326 24.202 59.4504 24.2025 59.2627 24.2031C59.0661 24.2026 58.8696 24.2021 58.673 24.2014C58.1336 24.1999 57.5943 24.2002 57.0549 24.2009C56.4729 24.2012 55.8909 24.1999 55.309 24.1989C54.1691 24.197 53.0293 24.1968 51.8895 24.1971C50.9632 24.1974 50.0369 24.1971 49.1106 24.1965C48.9788 24.1964 48.847 24.1963 48.7112 24.1963C48.4435 24.1961 48.1757 24.1959 47.908 24.1957C45.3969 24.1942 42.8859 24.1945 40.3748 24.1954C38.0769 24.1961 35.779 24.1945 33.4812 24.1918C31.1221 24.189 28.763 24.1878 26.4039 24.1884C25.0793 24.1887 23.7547 24.1883 22.4301 24.1863C21.3026 24.1846 20.1752 24.1844 19.0477 24.1861C18.4724 24.1869 17.8971 24.1871 17.3218 24.1854C16.7951 24.1839 16.2685 24.1843 15.7419 24.1863C15.4611 24.1868 15.1802 24.1853 14.8994 24.1837C13.8382 24.1902 13.0921 24.2142 12.3525 25.0511ZM35.6462 29.6582C35.6441 30.1978 35.642 30.7373 35.6399 31.2932C35.6327 33.0796 35.6232 34.8659 35.6126 36.6523C35.6062 37.7349 35.6006 38.8176 35.5968 39.9002C35.5935 40.8445 35.5887 41.7888 35.5822 42.7331C35.5788 43.2325 35.5761 43.7319 35.5752 44.2313C35.5742 44.7906 35.5699 45.3499 35.5653 45.9092C35.5655 46.0723 35.5657 46.2355 35.5659 46.4036C35.5399 48.6517 34.8234 50.8361 33.2485 52.4846C32.5556 53.0883 31.7582 53.4879 30.9411 53.8965C30.9411 54.5081 30.9411 55.1198 30.9411 55.75C35.2698 55.75 39.5985 55.75 44.0583 55.75C44.2687 54.0409 44.2687 54.0409 43.7241 53.5372C43.5756 53.4764 43.4271 53.4156 43.2741 53.3529C41.6208 52.5563 40.7026 51.2831 40.0249 49.5868C39.5767 48.2872 39.4734 47.1147 39.4665 45.7473C39.4651 45.5734 39.4637 45.3994 39.4623 45.2202C39.4585 44.7451 39.4554 44.27 39.4526 43.7949C39.4494 43.2977 39.4455 42.8004 39.4417 42.3032C39.4346 41.3625 39.4282 40.4218 39.422 39.4811C39.415 38.4098 39.4072 37.3385 39.3993 36.2672C39.3831 34.0642 39.3679 31.8612 39.3532 29.6582C38.1299 29.6582 36.9066 29.6582 35.6462 29.6582Z" fill="#FF8303"/>
<path d="M2.14577 17.3168C2.42703 17.3965 2.42703 17.3965 2.64985 17.7114C2.85708 18.1139 2.93514 18.4066 2.99281 18.8526C3.01259 18.9993 3.03237 19.146 3.05275 19.2972C3.08245 19.5363 3.08245 19.5363 3.11274 19.7803C3.13505 19.9494 3.15736 20.1184 3.18035 20.2926C3.24103 20.7549 3.30024 21.2174 3.35879 21.68C3.42043 22.1644 3.4839 22.6486 3.54716 23.1328C3.65309 23.9456 3.75781 24.7584 3.86169 25.5714C4.00821 26.7181 4.15694 27.8646 4.30608 29.0109C4.42183 29.9013 4.53697 30.7917 4.65203 31.6821C4.66438 31.7776 4.67673 31.8731 4.68945 31.9715C4.77123 32.6043 4.85244 33.2371 4.93339 33.8699C4.95405 34.0299 4.97471 34.1899 4.996 34.3547C5.01457 34.5006 5.03315 34.6466 5.05229 34.7969C5.06856 34.9238 5.08482 35.0508 5.10158 35.1816C5.13602 35.5039 5.13601 35.5039 5.13601 35.9316C5.29004 35.931 5.44406 35.9304 5.60275 35.9297C7.05845 35.9239 8.51416 35.9197 9.96987 35.9169C10.7182 35.9154 11.4664 35.9134 12.2147 35.9101C12.9377 35.907 13.6606 35.9053 14.3835 35.9046C14.6585 35.9041 14.9335 35.903 15.2085 35.9015C19.0225 35.8809 19.0225 35.8809 20.3919 37.0723C20.9627 37.6969 21.5023 38.393 21.5518 39.2664C21.5458 39.3871 21.5398 39.5078 21.5336 39.6322C21.4615 42.9508 22.3602 46.0152 23.205 49.1979C23.5192 50.3843 23.8264 51.5725 24.1329 52.7609C24.2397 53.1718 24.3487 53.582 24.4581 53.9922C24.524 54.2444 24.5898 54.4965 24.6556 54.7487C24.686 54.8605 24.7165 54.9722 24.7479 55.0874C24.9328 55.8056 25.101 56.5795 24.9544 57.3184C24.4247 57.6715 24.1546 57.6818 23.5286 57.6035C23.0736 57.0272 22.9347 56.3638 22.7644 55.6647C22.7337 55.5429 22.703 55.4211 22.6715 55.2956C22.5708 54.8945 22.4718 54.493 22.3729 54.0914C22.3033 53.8121 22.2336 53.5329 22.1638 53.2536C22.0179 52.6692 21.8729 52.0845 21.7284 51.4997C21.5431 50.7494 21.3563 49.9995 21.1689 49.2497C21.025 48.6734 20.8817 48.0971 20.7385 47.5207C20.6698 47.244 20.6009 46.9674 20.532 46.6908C20.4359 46.3049 20.3405 45.9189 20.2453 45.5328C20.2166 45.4181 20.188 45.3034 20.1584 45.1853C20.0522 44.7518 19.9641 44.3641 19.9641 43.916C15.3061 43.916 10.6481 43.916 5.84891 43.916C5.77833 44.4806 5.77833 44.4806 5.70633 45.0566C5.66955 45.2534 5.62962 45.4497 5.5838 45.6446C5.54845 45.7969 5.54845 45.7969 5.51238 45.9523C5.4869 46.0593 5.46142 46.1662 5.43516 46.2765C5.40802 46.3925 5.38087 46.5086 5.3529 46.6282C5.2638 47.0082 5.1738 47.3881 5.08366 47.7678C5.02094 48.0334 4.95824 48.2989 4.89555 48.5644C4.76439 49.1191 4.63272 49.6738 4.50075 50.2283C4.33176 50.9388 4.1646 51.6497 3.9979 52.3608C3.86918 52.9085 3.73922 53.4559 3.60891 54.0032C3.54673 54.2653 3.485 54.5275 3.42373 54.7897C3.33807 55.1559 3.25067 55.5215 3.16283 55.8871C3.13792 55.9953 3.11302 56.1034 3.08736 56.2149C2.95387 56.762 2.8254 57.1949 2.42703 57.6035C2.02272 57.698 1.7081 57.6437 1.28641 57.6035C1.00125 57.3184 1.00125 57.3184 0.963739 57.0547C0.970096 56.2544 1.08019 55.5327 1.2761 54.7581C1.31991 54.5773 1.31991 54.5773 1.3646 54.3929C1.42767 54.1335 1.49141 53.8742 1.55575 53.6151C1.65777 53.2041 1.75791 52.7927 1.85761 52.3811C2.10547 51.3595 2.3565 50.3387 2.60742 49.3178C2.81972 48.4536 3.03081 47.5891 3.24032 46.7242C3.33865 46.3204 3.43873 45.917 3.53889 45.5137C3.59952 45.2643 3.66008 45.0148 3.72054 44.7654C3.74853 44.6547 3.77653 44.544 3.80538 44.4299C4.16238 42.9352 3.92645 41.5108 3.72054 40.0078C3.69096 39.7873 3.66147 39.5667 3.63204 39.3462C3.56879 38.8733 3.50504 38.4005 3.44089 37.9277C3.33928 37.1785 3.23905 36.4292 3.13903 35.6799C2.8904 33.8186 2.64017 31.9575 2.38922 30.0965C2.19415 28.6499 1.99962 27.2032 1.80677 25.7563C1.70764 25.013 1.6074 24.2699 1.5063 23.5268C1.44337 23.0625 1.38146 22.598 1.31983 22.1334C1.29129 21.9199 1.26234 21.7064 1.23292 21.4929C0.873766 18.8829 0.873766 18.8829 1.00125 17.6816C1.36721 17.3157 1.64545 17.3458 2.14577 17.3168ZM5.42117 37.7851C5.44333 38.08 5.46563 38.3749 5.488 38.6697C5.50041 38.8339 5.51282 38.9981 5.5256 39.1673C5.57214 39.7423 5.63366 40.314 5.70633 40.8862C5.71809 40.9855 5.72985 41.0847 5.74197 41.187C5.76698 41.6661 5.76698 41.6661 5.99148 42.0625C6.41679 42.0761 6.83879 42.0804 7.26414 42.0787C7.39766 42.0787 7.53119 42.0787 7.66875 42.0787C8.11236 42.0786 8.55595 42.0775 8.99955 42.0764C9.30622 42.0762 9.61289 42.0759 9.91957 42.0758C10.7285 42.0753 11.5374 42.0739 12.3463 42.0723C13.171 42.0708 13.9957 42.0702 14.8205 42.0695C16.44 42.0679 18.0595 42.0655 19.679 42.0625C19.6944 41.6287 19.7057 41.1954 19.7146 40.7615C19.7194 40.6394 19.7242 40.5174 19.7291 40.3917C19.7415 39.5892 19.6521 39.1305 19.1087 38.498C18.2302 37.8209 17.574 37.764 16.4926 37.769C16.3729 37.7689 16.2532 37.7689 16.1299 37.7689C15.7349 37.769 15.3399 37.7701 14.9449 37.7712C14.6708 37.7715 14.3968 37.7717 14.1227 37.7718C13.4017 37.7724 12.6807 37.7738 11.9597 37.7754C11.2238 37.7768 10.4879 37.7775 9.75198 37.7782C8.30838 37.7797 6.86477 37.7821 5.42117 37.7851Z" fill="white"/>
<path d="M72.8555 17.3168C73.6832 17.3648 73.6832 17.3648 74 17.6816C74.1388 18.9301 73.933 20.1747 73.7151 21.4017C73.6406 21.8217 73.5698 22.2424 73.4988 22.663C73.4604 22.8899 73.4219 23.1168 73.3832 23.3437C70.4892 39.2177 70.4893 39.2177 73.5548 54.8152C73.8802 55.6408 74.1156 56.2873 74 57.1758C73.8485 57.4609 73.8485 57.4609 73.5723 57.6035C73.0732 57.6659 73.0732 57.6659 72.5742 57.6035C72.0707 57.1252 71.974 56.4782 71.8231 55.8257C71.7938 55.7042 71.7645 55.5826 71.7344 55.4574C71.6382 55.0562 71.5439 54.6546 71.4497 54.2529C71.3833 53.9738 71.3168 53.6947 71.2502 53.4156C71.1109 52.8309 70.9726 52.246 70.835 51.6609C70.6585 50.9107 70.4802 50.161 70.3013 49.4113C70.164 48.8351 70.0272 48.2588 69.8908 47.6823C69.8252 47.4058 69.7596 47.1293 69.6938 46.8528C69.602 46.4666 69.5111 46.0802 69.4204 45.6938C69.3931 45.5794 69.3658 45.465 69.3376 45.3472C69.2224 44.8527 69.1523 44.4268 69.1523 43.916C64.4943 43.916 59.8363 43.916 55.0371 43.916C54.8489 44.7629 54.6607 45.6098 54.4668 46.4824C54.1364 47.8729 54.1364 47.8729 54.0219 48.3418C53.9963 48.4466 53.9707 48.5515 53.9443 48.6595C53.918 48.7669 53.8918 48.8742 53.8647 48.9848C53.8375 49.0964 53.8102 49.2079 53.7821 49.3229C53.6387 49.9099 53.4949 50.4969 53.3508 51.0837C53.2028 51.6869 53.0562 52.2903 52.9098 52.8939C52.796 53.3622 52.6811 53.8302 52.566 54.2982C52.5114 54.5207 52.4572 54.7434 52.4035 54.9661C52.3286 55.276 52.2522 55.5855 52.1755 55.895C52.1326 56.0705 52.0896 56.2461 52.0454 56.427C51.9046 56.8772 51.746 57.2204 51.4727 57.6035C51.0831 57.7299 50.7296 57.6903 50.332 57.6035C50.038 57.3896 50.038 57.3896 49.9043 57.0332C49.9738 56.207 50.1463 55.4343 50.3618 54.6354C50.4277 54.3861 50.4935 54.1368 50.5594 53.8876C50.6116 53.6913 50.6116 53.6913 50.6649 53.4912C50.8519 52.7865 51.0346 52.0807 51.2181 51.3752C51.4506 50.4828 51.6841 49.5907 51.9222 48.6998C53.1098 44.4788 53.1098 44.4788 53.439 40.1311C53.4024 38.9664 53.6595 38.0667 54.4637 37.1939C55.6657 36.0593 56.9859 35.9082 58.5834 35.9154C58.7059 35.9154 58.8285 35.9154 58.9547 35.9154C59.3566 35.9155 59.7585 35.9166 60.1605 35.9177C60.4403 35.918 60.7202 35.9182 61.0001 35.9183C61.7344 35.9189 62.4688 35.9203 63.2031 35.9218C63.9534 35.9233 64.7037 35.924 65.4539 35.9247C66.9244 35.9262 68.3948 35.9286 69.8652 35.9316C69.8701 35.8402 69.875 35.7487 69.88 35.6545C69.9936 33.9033 70.2439 32.1677 70.4745 30.429C70.4975 30.2554 70.5204 30.0818 70.544 29.903C70.665 28.9869 70.7867 28.0708 70.9088 27.1549C71.0222 26.3036 71.1342 25.4521 71.2453 24.6005C71.3528 23.7774 71.4622 22.9546 71.5721 22.1319C71.6185 21.7831 71.6643 21.4343 71.7095 21.0854C71.7728 20.599 71.8381 20.1129 71.9039 19.6268C71.9312 19.411 71.9312 19.411 71.9591 19.1909C72.1927 17.5045 72.1927 17.5045 72.8555 17.3168ZM55.7589 38.6495C55.4043 39.1546 55.3043 39.3713 55.3083 39.9739C55.3088 40.0952 55.3093 40.2166 55.3097 40.3415C55.3109 40.4683 55.3121 40.5952 55.3134 40.7258C55.314 40.8537 55.3146 40.9817 55.3153 41.1135C55.317 41.4298 55.3193 41.7461 55.3223 42.0625C57.1044 42.0658 58.8866 42.0683 60.6688 42.0699C61.4962 42.0706 62.3236 42.0716 63.1511 42.0732C63.9489 42.0748 64.7467 42.0756 65.5445 42.076C65.8496 42.0763 66.1547 42.0768 66.4598 42.0776C66.8856 42.0786 67.3113 42.0787 67.7371 42.0787C67.9283 42.0794 67.9283 42.0794 68.1234 42.0802C68.6826 42.1352 68.6826 42.1352 69.1523 41.9199C69.1949 41.6752 69.2292 41.429 69.2598 41.1825C69.2881 40.9565 69.2881 40.9565 69.3169 40.7258C69.3457 40.4876 69.3457 40.4876 69.3751 40.2446C69.3949 40.088 69.4146 39.9314 69.435 39.7701C69.5172 39.1028 69.5848 38.4578 69.5801 37.7851C68.0011 37.7752 66.422 37.7676 64.843 37.763C64.1097 37.7608 63.3764 37.7577 62.6432 37.7529C61.935 37.7482 61.2269 37.7457 60.5188 37.7446C60.2491 37.7438 59.9794 37.7422 59.7098 37.7399C59.331 37.7368 58.9523 37.7364 58.5734 37.7366C58.4629 37.7351 58.3523 37.7335 58.2384 37.7319C57.2962 37.7372 56.3982 37.8984 55.7589 38.6495Z" fill="white"/>
</g>
<defs>
<clipPath id="clip0_370_862">
<rect width="73" height="73" fill="white" transform="translate(1 1)"/>
</clipPath>
</defs>
</svg>
