<svg width="75" height="75" viewBox="0 0 75 75" fill="none" xmlns="http://www.w3.org/2000/svg">
<path d="M28.3634 34.144H43.9082C44.3631 34.144 44.7403 33.7667 44.7403 33.3118C44.7403 32.8569 44.3631 32.4797 43.9082 32.4797H28.3634C27.9085 32.4797 27.5312 32.8569 27.5312 33.3118C27.5312 33.7667 27.9085 34.144 28.3634 34.144Z" fill="#FF8303"/>
<path d="M38.7599 37.75C38.7599 37.2951 38.3826 36.9178 37.9277 36.9178H28.3634C27.9085 36.9178 27.5312 37.2951 27.5312 37.75C27.5312 38.2049 27.9085 38.5822 28.3634 38.5822H37.9277C38.3826 38.5822 38.7599 38.2049 38.7599 37.75Z" fill="#FF8303"/>
<path d="M71.8024 43.6417C71.4917 43.2867 71.1367 43.0093 70.7594 42.7763V8.54675C70.7594 8.53565 70.7594 8.51346 70.7594 8.50237C70.5819 5.15154 67.8746 2.52191 64.5904 2.52191H53.2841H24.8686C23.1821 2.52191 21.5954 3.22093 20.5081 4.43033C19.4762 5.57316 19.0102 7.04886 19.1655 8.48018V45.1396C19.0324 45.1951 18.8992 45.2616 18.7772 45.3171L18.0782 44.019C17.7453 43.3976 17.1794 42.9427 16.5026 42.743C15.8369 42.5433 15.1268 42.6209 14.5498 42.9316L3.89817 48.1465C3.26573 48.4904 2.81081 49.0563 2.62219 49.7442C2.43357 50.421 2.51123 51.12 2.8441 51.7192L13.5401 71.6023C13.8841 72.2236 14.4389 72.6785 15.1268 72.8783C15.3709 72.9448 15.615 72.9781 15.8591 72.9781C16.2918 72.9781 16.7134 72.8672 17.0796 72.6674L27.6868 67.4859C27.6979 67.4859 27.709 67.4748 27.7201 67.4637C28.9961 66.7647 29.4732 65.1669 28.7853 63.902L28.1196 62.6593C28.286 62.6482 28.4413 62.6482 28.6078 62.6815L44.6185 66.5316C45.251 66.6759 45.8834 66.7536 46.5159 66.7536C48.2467 66.7536 49.9444 66.1988 51.3646 65.1447L71.0923 50.5098C72.2906 49.6333 73.0007 48.2241 73.0007 46.7262C72.9785 45.5945 72.568 44.485 71.8024 43.6417ZM52.4519 17.412C52.4297 17.8004 52.23 18.1332 51.9082 18.2997C51.7751 18.3662 51.42 18.4994 50.9984 18.2331L46.0942 15.3705C45.6726 15.0931 45.1844 14.9488 44.6962 14.9488C44.208 14.9488 43.7198 15.0931 43.2982 15.3705L39.0597 18.1665C38.7157 18.3995 38.3607 18.2997 38.1832 18.2331C37.8281 18.0888 37.5618 17.7671 37.462 17.4009V4.20842L52.4408 4.18623L52.4519 17.412ZM20.8298 8.39141C20.7189 7.34844 21.0407 6.33875 21.7508 5.55097C22.5275 4.68553 23.6703 4.18623 24.8797 4.18623H35.8198V17.4897C35.8198 17.5452 35.8198 17.5896 35.8309 17.645C36.0084 18.5771 36.6631 19.3981 37.5507 19.7643C38.3829 20.1082 39.2705 20.0417 39.9917 19.5535L44.2302 16.7574C44.5187 16.5688 44.8959 16.5688 45.2288 16.7796L50.133 19.6422C50.5546 19.9196 51.0317 20.0638 51.5199 20.0638C51.9082 20.0638 52.3077 19.9751 52.6738 19.7865C53.5393 19.3537 54.083 18.4994 54.1384 17.4564V4.18623H64.6126C66.9981 4.18623 68.9731 6.11684 69.1173 8.56894V42.1216C67.9967 41.9219 66.8095 42.1216 65.7887 42.7763L54.3492 50.0216C53.6724 48.8677 52.4741 48.091 51.0872 48.0133L41.7337 47.4807C41.0347 47.4364 40.3357 47.1479 39.7032 46.6375C33.279 41.3228 25.8894 42.5322 20.8409 44.4517L20.8298 8.39141ZM26.9434 65.9991L16.314 71.1917C16.0921 71.3138 15.8369 71.3471 15.5928 71.2694C15.3376 71.2028 15.1379 71.0253 15.0047 70.8034L4.3087 50.9092C4.18665 50.6984 4.15336 50.4432 4.23103 50.1991C4.2976 49.9439 4.46404 49.7331 4.66375 49.6222L15.3154 44.4073C15.4485 44.3296 15.6039 44.2963 15.7592 44.2963C15.848 44.2963 15.9478 44.3074 16.0366 44.3407C16.2918 44.4184 16.4915 44.5848 16.6247 44.8067L27.3318 64.6898C27.5759 65.1558 27.3984 65.7328 26.9434 65.9991ZM70.0937 49.1783L50.3549 63.8133C48.8126 64.9561 46.8598 65.3555 44.9958 64.9117L28.985 61.0616C28.4302 60.9395 27.8422 60.9617 27.2985 61.1282L19.565 46.7817C24.9019 44.2852 32.2915 42.6653 38.627 47.9135C39.5257 48.6458 40.5576 49.0674 41.6117 49.134L50.9651 49.6665C51.997 49.722 52.8625 50.4432 53.1177 51.3863L53.1731 51.6859C53.1953 51.7969 53.1953 51.93 53.1953 52.041C53.1953 53.2726 52.2633 54.2933 51.0317 54.4043L35.4648 55.8467C35.0099 55.8911 34.6659 56.2905 34.7103 56.7565C34.7547 57.1893 35.1097 57.511 35.5424 57.511H35.6201L51.187 56.0686C53.2841 55.88 54.8596 54.1491 54.8596 52.041C54.8596 51.9189 54.8375 51.7858 54.8264 51.6526L66.6319 44.1743C67.8968 43.3643 69.5389 43.6084 70.5375 44.7402C71.0257 45.2838 71.292 45.9939 71.292 46.7373C71.3142 47.7026 70.8593 48.6236 70.0937 49.1783Z" fill="white"/>
<path d="M19.9957 59.8189C18.2094 59.8189 16.7559 61.2724 16.7559 63.0588C16.7559 64.8341 18.2094 66.2876 19.9957 66.2876C21.7821 66.2876 23.2356 64.8452 23.2356 63.0588C23.2356 61.2724 21.7821 59.8189 19.9957 59.8189ZM19.9957 64.6232C19.1303 64.6232 18.4202 63.9242 18.4202 63.0588C18.4202 62.1933 19.1303 61.4832 19.9957 61.4832C20.8612 61.4832 21.5713 62.1933 21.5713 63.0588C21.5713 63.9242 20.8612 64.6232 19.9957 64.6232Z" fill="#FF8303"/>
</svg>
