<svg width="89" height="88" viewBox="0 0 89 88" fill="none" xmlns="http://www.w3.org/2000/svg">
<g clip-path="url(#clip0_76_5195)">
<path d="M25.5685 62.7125C1.51517 62.7125 1.80682 62.7361 1.62138 61.7331C1.38705 60.4637 0.844215 60.521 13.1423 60.521C20.3357 60.521 24.1558 60.462 24.3716 60.3456C24.6851 60.1787 24.6969 59.9141 24.6969 52.6751V45.18C10.187 45.1732 10.032 45.1564 9.70659 44.3691C9.53969 43.9679 9.75716 43.3492 10.1752 43.0322C10.386 42.8721 12.1544 42.8215 17.5743 42.8215L24.6969 42.8198C24.6969 29.399 24.6548 27.9795 24.466 27.7553C24.2552 27.5041 23.21 27.4788 13.23 27.4788C0.817242 27.4788 1.40728 27.5412 1.62981 26.2617C1.80345 25.2653 1.52023 25.2873 14.0358 25.2923L25.4556 25.2957C45.645 13.6517 51.456 10.1974 51.397 10.1081C51.3296 10.0086 48.8447 9.94626 45.001 9.94626C40.9213 9.94626 38.5999 9.88388 38.3824 9.76924C37.5783 9.34104 37.8818 8.00419 38.8241 7.82549C39.0736 7.7766 43.187 7.75974 47.9613 7.7884L56.6433 7.83898C83.9874 23.6402 87.3961 25.6817 87.5495 26.029C87.8411 26.6848 87.8327 61.3302 87.5394 61.9708C87.3759 62.3282 84.102 64.2905 72.0281 71.263C63.6091 76.125 56.4966 80.1355 56.2185 80.1743C55.7987 80.2333 53.2413 78.8054 40.6431 71.4788L25.5685 62.7125ZM55.0418 77.042V44.6742L26.8885 28.4903V61.0267L55.0418 77.042ZM85.2787 60.7755C85.4675 60.2816 85.4051 29.0146 85.2146 28.8241C85.0039 28.6134 76.8732 33.2443 76.6186 33.7197C76.5175 33.9086 76.4517 36.4879 76.4517 40.2843C76.4517 45.5138 76.4113 46.6062 76.2022 46.9518C76.0505 47.203 74.39 48.2667 71.9826 49.6558C66.0114 53.1017 66.3368 53.3292 66.3368 45.711C66.3368 41.1863 66.2929 40.109 66.1024 39.9371C65.8496 39.7044 58.3965 43.8161 57.6126 44.6203C57.2333 45.0097 57.2333 45.0097 57.2333 61.025C57.2333 75.1455 57.2637 77.0336 57.4845 76.9696C58.1352 76.7841 85.1826 61.0233 85.2787 60.7755ZM68.5283 48.8888L74.2601 45.6857V34.8964L68.5283 38.0995V48.8888ZM64.9881 37.5938L37.172 21.2413L28.0686 26.2987L55.8847 42.6512L64.9881 37.5938ZM72.9115 33.042L45.0954 16.6896L39.3636 19.8926L67.3483 36.2451L72.9115 33.042ZM84.2065 26.6359L56.559 10.2834L47.287 15.3409L75.1031 31.5248L84.2065 26.6359Z" fill="white" fill-opacity="0.988235"/>
<path d="M9.91463 8.12057C10.594 7.48333 29.069 7.55751 29.5747 8.19812C30.013 8.75781 30.0181 9.17758 29.5865 9.60916C29.2578 9.93789 29.0251 9.94632 19.6401 9.94632C10.0309 9.94632 10.0309 9.94632 9.77808 9.56701C9.41899 9.02755 9.46451 8.54371 9.91463 8.12057Z" fill="#FF8303"/>
</g>
<defs>
<clipPath id="clip0_76_5195">
<rect width="88" height="88" fill="white" transform="translate(0.589844)"/>
</clipPath>
</defs>
</svg>
