<svg width="72" height="64" viewBox="0 0 72 64" fill="none" xmlns="http://www.w3.org/2000/svg">
<g clip-path="url(#clip0_90_5760)">
<path d="M9.92873 23.2643C10.0655 23.2636 10.0655 23.2636 10.2051 23.263C10.5135 23.2618 10.8219 23.2621 11.1303 23.2624C11.3525 23.2618 11.5747 23.2612 11.7969 23.2605C12.4097 23.2588 13.0225 23.2584 13.6354 23.2583C14.2954 23.2579 14.9555 23.2563 15.6156 23.2549C17.1351 23.2519 18.6547 23.2507 20.1742 23.2497C20.9248 23.2492 21.6754 23.2485 22.426 23.2477C24.9944 23.245 27.5627 23.2427 30.1311 23.242C30.2924 23.242 30.4536 23.2419 30.6149 23.2419C30.7766 23.2418 30.9382 23.2418 31.0999 23.2417C31.4242 23.2416 31.7485 23.2415 32.0728 23.2414C32.1532 23.2414 32.2337 23.2414 32.3165 23.2414C34.925 23.2406 37.5334 23.2373 40.1419 23.2324C42.8985 23.2272 45.6551 23.2243 48.4117 23.2241C48.7141 23.2241 49.0165 23.224 49.3189 23.224C49.3934 23.224 49.4679 23.2239 49.5446 23.2239C50.7445 23.2237 51.9444 23.2214 53.1442 23.2183C54.3495 23.2153 55.5548 23.2147 56.7601 23.2163C57.4135 23.2171 58.0668 23.2169 58.7201 23.214C59.3177 23.2113 59.9152 23.2116 60.5127 23.2141C60.7294 23.2145 60.9461 23.2139 61.1629 23.2121C61.4565 23.2097 61.7498 23.2113 62.0435 23.2138C62.1285 23.2122 62.2135 23.2106 62.3011 23.209C62.6207 23.215 62.8527 23.2208 63.1152 23.4173C63.4163 23.754 63.5262 24.0384 63.5263 24.4866C63.5276 24.5966 63.5289 24.7067 63.5302 24.8201C63.529 24.9398 63.5278 25.0595 63.5265 25.1828C63.5276 25.375 63.5276 25.375 63.5287 25.571C63.5302 25.9259 63.5294 26.2806 63.5276 26.6355C63.5262 27.0185 63.5278 27.4015 63.529 27.7845C63.5309 28.5347 63.53 29.2849 63.5282 30.0351C63.5268 30.6452 63.5264 31.2554 63.5267 31.8655C63.5268 31.9958 63.5268 31.9958 63.5269 32.1288C63.527 32.3053 63.5271 32.4818 63.5272 32.6583C63.5281 34.2194 63.5263 35.7805 63.5233 37.3417C63.5203 38.8547 63.5196 40.3677 63.5212 41.8807C63.5229 43.5292 63.5233 45.1777 63.5215 46.8261C63.5213 47.0022 63.5211 47.1783 63.521 47.3544C63.5209 47.441 63.5208 47.5276 63.5207 47.6168C63.5201 48.2255 63.5204 48.8341 63.5211 49.4427C63.5219 50.1856 63.5212 50.9285 63.5186 51.6714C63.5173 52.05 63.5167 52.4286 63.5179 52.8072C63.5191 53.2189 63.5171 53.6304 63.5148 54.0421C63.5157 54.1601 63.5165 54.2782 63.5174 54.3998C63.5022 55.9004 63.0065 57.2111 62.0026 58.3083C60.9141 59.3644 59.5269 59.8213 58.0473 59.8168C57.9698 59.817 57.8924 59.8172 57.8125 59.8174C57.5527 59.8179 57.2928 59.8176 57.033 59.8174C56.8449 59.8176 56.6568 59.8178 56.4687 59.8181C55.9515 59.8187 55.4344 59.8187 54.9173 59.8186C54.3597 59.8186 53.8021 59.8191 53.2444 59.8196C52.1518 59.8205 51.0591 59.8208 49.9665 59.8209C49.0784 59.8209 48.1902 59.8211 47.302 59.8215C44.7842 59.8224 42.2664 59.8229 39.7486 59.8228C39.545 59.8228 39.545 59.8228 39.3372 59.8228C39.2693 59.8228 39.2013 59.8228 39.1313 59.8228C36.9968 59.8227 34.8624 59.8235 32.7279 59.8249C30.3294 59.8265 27.9309 59.8274 25.5325 59.8273C24.2627 59.8273 22.9929 59.8276 21.7231 59.8287C20.642 59.8297 19.5608 59.8299 18.4796 59.8292C17.928 59.8289 17.3765 59.8288 16.8249 59.8298C16.3197 59.8306 15.8145 59.8304 15.3092 59.8295C15.1268 59.8294 14.9443 59.8296 14.7619 59.8301C12.8878 59.8357 11.4059 59.6386 9.99547 58.2599C8.85932 57.0472 8.50373 55.7545 8.51006 54.1037C8.50974 53.9748 8.50942 53.8458 8.50908 53.713C8.50841 53.3568 8.50865 53.0007 8.50929 52.6445C8.50975 52.2597 8.50903 51.8749 8.50847 51.4902C8.50756 50.7372 8.50775 49.9843 8.50835 49.2313C8.50881 48.6195 8.50888 48.0078 8.50865 47.396C8.50862 47.3088 8.50859 47.2217 8.50856 47.132C8.50849 46.955 8.50842 46.778 8.50836 46.601C8.50777 44.9424 8.50844 43.2839 8.50955 41.6253C8.51047 40.2017 8.51031 38.7782 8.50936 37.3547C8.50826 35.7013 8.50783 34.048 8.50846 32.3946C8.50852 32.2184 8.50859 32.0422 8.50865 31.866C8.50868 31.7793 8.50872 31.6926 8.50875 31.6033C8.50893 30.9919 8.50863 30.3806 8.50814 29.7692C8.50757 29.0246 8.50772 28.2801 8.50882 27.5355C8.50936 27.1555 8.50957 26.7755 8.50889 26.3955C8.50816 25.984 8.50903 25.5726 8.51006 25.1611C8.5096 25.0404 8.50914 24.9198 8.50867 24.7954C8.5092 24.6855 8.50974 24.5755 8.51029 24.4622C8.51033 24.3672 8.51036 24.2722 8.51039 24.1743C8.53853 23.8983 8.594 23.7338 8.74189 23.5017C9.13964 23.2312 9.46752 23.2623 9.92873 23.2643ZM10.4905 25.1804C10.4841 30.1142 10.4777 35.0479 10.4712 40.1312C10.4684 41.6901 10.4656 43.249 10.4627 44.8552C10.4616 46.2503 10.4616 46.2503 10.461 47.6455C10.4607 48.2678 10.4596 48.8901 10.4579 49.5124C10.4559 50.2301 10.455 50.9478 10.4555 51.6655C10.4556 52.0327 10.4554 52.3998 10.4537 52.7669C10.4521 53.1602 10.4525 53.5535 10.4534 53.9468C10.4525 54.0611 10.4516 54.1754 10.4506 54.2931C10.4564 55.2944 10.6852 56.1106 11.3945 56.8468C12.1939 57.5993 12.9573 57.8265 14.038 57.8237C14.1151 57.8239 14.1921 57.8241 14.2715 57.8243C14.5305 57.8249 14.7895 57.8248 15.0485 57.8246C15.2357 57.8249 15.4229 57.8252 15.6102 57.8256C16.1254 57.8264 16.6406 57.8266 17.1558 57.8267C17.7112 57.8269 18.2666 57.8277 18.822 57.8284C20.0367 57.8298 21.2514 57.8304 22.4662 57.8309C23.2245 57.8312 23.9829 57.8316 24.7413 57.8321C26.8406 57.8334 28.94 57.8345 31.0394 57.8348C31.241 57.8349 31.241 57.8349 31.4466 57.8349C31.6487 57.8349 31.6487 57.8349 31.8548 57.835C32.1278 57.835 32.4008 57.835 32.6737 57.8351C32.8091 57.8351 32.9445 57.8351 33.084 57.8352C35.2782 57.8356 37.4724 57.8374 39.6666 57.8399C41.9189 57.8423 44.1713 57.8437 46.4236 57.8438C47.6884 57.8439 48.9531 57.8445 50.2179 57.8464C51.2948 57.848 52.3718 57.8485 53.4487 57.8477C53.9982 57.8473 54.5476 57.8474 55.0971 57.8488C55.6003 57.8502 56.1035 57.85 56.6067 57.8488C56.7885 57.8486 56.9703 57.8489 57.1522 57.8498C58.557 57.8564 59.6132 57.7639 60.6847 56.7607C61.3486 56.0835 61.5536 55.1966 61.5607 54.266C61.5595 54.1524 61.5583 54.0387 61.5571 53.9216C61.5574 53.7985 61.5578 53.6753 61.5582 53.5485C61.5587 53.2088 61.5574 52.8693 61.5554 52.5296C61.5536 52.157 61.5542 51.7843 61.5545 51.4116C61.5547 50.6893 61.5528 49.9669 61.5501 49.2446C61.5472 48.4085 61.5469 47.5724 61.5465 46.7362C61.5444 44.5302 61.5386 42.3241 61.5333 40.1181C61.5206 32.7239 61.5206 32.7239 61.5076 25.1804C44.672 25.1804 27.8363 25.1804 10.4905 25.1804Z" fill="white"/>
<path d="M23.3826 4.02832C24.2592 4.89296 24.5526 5.81548 24.6848 7.02955C24.6848 7.99899 24.6848 8.96843 24.6848 9.96725C32.1523 9.96725 39.6197 9.96725 47.3134 9.96725C47.3134 8.92856 47.3134 7.88988 47.3134 6.81971C47.5379 5.56028 47.8814 4.59481 48.8884 3.80988C49.7535 3.22222 50.7286 3.05077 51.7592 3.19348C52.7601 3.42065 53.5647 3.89525 54.2048 4.72135C54.6687 5.51361 54.8381 6.13867 54.832 7.05742C54.8318 7.18228 54.8318 7.18228 54.8316 7.30966C54.831 7.57477 54.8297 7.83986 54.8284 8.10496C54.8279 8.28501 54.8274 8.46507 54.827 8.64512C54.8259 9.08583 54.8241 9.52654 54.822 9.96725C55.0039 9.96478 55.0039 9.96478 55.1895 9.96226C55.645 9.95651 56.1004 9.95293 56.5559 9.94996C56.752 9.94839 56.9482 9.94625 57.1442 9.94351C58.9109 9.91941 60.243 10.0982 61.7327 11.141C62.942 12.3746 63.4786 13.7402 63.4932 15.4681C63.4931 15.5901 63.493 15.712 63.4929 15.8377C63.4936 16.0295 63.4936 16.0295 63.4942 16.2251C63.4948 16.4939 63.4949 16.7626 63.4944 17.0314C63.4941 17.4428 63.4965 17.8542 63.4991 18.2656C63.4994 18.5274 63.4995 18.7891 63.4993 19.0509C63.5003 19.1737 63.5012 19.2966 63.5022 19.4231C63.5013 19.5949 63.5013 19.5949 63.5003 19.7702C63.5003 19.8706 63.5004 19.971 63.5005 20.0744C63.4533 20.4174 63.3631 20.6065 63.1534 20.8787C62.7005 21.1303 62.248 21.118 61.7455 21.1153C61.6551 21.1156 61.5647 21.1159 61.4716 21.1163C61.1673 21.1172 60.863 21.1165 60.5587 21.1159C60.3389 21.1162 60.1192 21.1166 59.8994 21.1171C59.2943 21.1182 58.6891 21.118 58.084 21.1175C57.4319 21.1173 56.7797 21.1182 56.1276 21.119C54.8496 21.1203 53.5715 21.1205 52.2935 21.1203C51.255 21.1201 50.2166 21.1203 49.1781 21.1207C49.029 21.1208 48.8799 21.1209 48.7308 21.1209C48.5061 21.121 48.2814 21.1211 48.0567 21.1212C45.9672 21.1221 43.8778 21.1225 41.7883 21.1221C41.7095 21.1221 41.6307 21.1221 41.5495 21.1221C41.1502 21.122 40.7508 21.1219 40.3514 21.1218C40.2721 21.1218 40.1928 21.1218 40.1111 21.1217C39.9507 21.1217 39.7903 21.1217 39.6299 21.1216C37.1336 21.1211 34.6374 21.1219 32.1411 21.1238C29.3375 21.126 26.5339 21.1271 23.7303 21.1267C23.4315 21.1267 23.1327 21.1266 22.8339 21.1266C22.7235 21.1266 22.7235 21.1266 22.6109 21.1266C21.4993 21.1264 20.3876 21.1271 19.2759 21.1283C18.0119 21.1295 16.748 21.1297 15.484 21.1284C14.8388 21.1278 14.1936 21.1277 13.5483 21.1289C12.9581 21.13 12.3679 21.1297 11.7777 21.1283C11.5637 21.128 11.3498 21.1282 11.1358 21.1291C10.8458 21.1301 10.5558 21.1292 10.2657 21.1279C10.1402 21.129 10.1401 21.129 10.012 21.1302C9.51491 21.1253 9.17133 21.0569 8.74198 20.7738C8.50987 20.4187 8.50949 20.2933 8.50638 19.8767C8.50507 19.7572 8.50376 19.6377 8.50241 19.5146C8.50218 19.3851 8.50195 19.2556 8.50171 19.1222C8.50103 18.9885 8.50034 18.8547 8.49964 18.717C8.49859 18.4331 8.49802 18.1493 8.49815 17.8655C8.49817 17.5056 8.49538 17.1458 8.49182 16.7859C8.48894 16.439 8.4891 16.0921 8.48885 15.7451C8.48738 15.6177 8.4859 15.4904 8.48438 15.3591C8.49099 14.0747 8.78536 12.9781 9.56484 11.9607C9.61005 11.8963 9.65526 11.8319 9.70185 11.7656C10.4633 10.7539 11.7434 10.1619 12.9591 9.96725C13.2834 9.95314 13.6073 9.95504 13.9318 9.95701C14.0712 9.95723 14.0712 9.95723 14.2133 9.95746C14.5088 9.95804 14.8043 9.95936 15.0998 9.96069C15.3007 9.96122 15.5015 9.9617 15.7023 9.96213C16.1936 9.96328 16.6849 9.96509 17.1763 9.96725C17.173 9.7991 17.173 9.7991 17.1697 9.62755C17.1622 9.20716 17.1575 8.78677 17.1537 8.36633C17.1516 8.18521 17.1488 8.00409 17.1452 7.82299C17.1179 6.40605 17.2121 5.28169 18.2048 4.19676C19.6464 2.85143 21.8315 2.81268 23.3826 4.02832ZM19.4455 5.88856C19.1567 6.29923 19.1172 6.48236 19.114 6.98211C19.113 7.10399 19.112 7.22588 19.111 7.35145C19.1105 7.4838 19.1101 7.61614 19.1097 7.7525C19.1091 7.88811 19.1085 8.02371 19.1079 8.16343C19.1068 8.45096 19.1062 8.73848 19.1058 9.02601C19.1053 9.39339 19.1028 9.76072 19.0999 10.1281C19.0975 10.4794 19.0973 10.8307 19.0968 11.182C19.0955 11.3135 19.0943 11.445 19.093 11.5805C19.0933 11.7037 19.0936 11.8269 19.0939 11.9538C19.0935 12.0618 19.0931 12.1697 19.0928 12.2809C19.156 12.7981 19.3603 13.1354 19.7091 13.5082C20.162 13.8595 20.6606 13.9969 21.2255 13.9218C21.7433 13.7786 22.0608 13.5431 22.4023 13.1263C22.7779 12.4479 22.7621 11.7429 22.7615 10.9845C22.7621 10.8147 22.7621 10.8147 22.7628 10.6416C22.7634 10.4029 22.7635 10.1643 22.763 9.92571C22.7627 9.56261 22.7651 9.1996 22.7677 8.83651C22.7679 8.60386 22.768 8.37121 22.7679 8.13856C22.7689 8.03099 22.7698 7.92342 22.7708 7.81259C22.7657 6.99723 22.686 6.24015 22.1263 5.61971C21.7538 5.28272 21.4467 5.15905 20.9498 5.10168C20.328 5.16618 19.8531 5.39979 19.4455 5.88856ZM49.6349 5.84553C49.332 6.36098 49.2558 6.86073 49.2511 7.45076C49.2501 7.5527 49.2491 7.65464 49.2481 7.75966C49.2477 7.86874 49.2472 7.97782 49.2468 8.0902C49.2462 8.20366 49.2456 8.31712 49.245 8.43401C49.244 8.67388 49.2434 8.91375 49.243 9.15363C49.242 9.51858 49.2388 9.88346 49.2355 10.2484C49.2349 10.482 49.2343 10.7156 49.2339 10.9492C49.2327 11.0574 49.2314 11.1657 49.2301 11.2772C49.2322 11.9947 49.2704 12.7365 49.7358 13.3121C50.1569 13.737 50.6309 13.938 51.222 13.9541C51.8676 13.867 52.2536 13.6004 52.6523 13.0853C52.8748 12.7287 52.8815 12.4169 52.8843 12.0059C52.8853 11.8861 52.8862 11.7663 52.8873 11.6429C52.8877 11.5134 52.8881 11.3839 52.8886 11.2504C52.8895 11.0508 52.8895 11.0508 52.8904 10.847C52.8913 10.5651 52.892 10.2831 52.8924 10.0011C52.893 9.64094 52.8954 9.28079 52.8984 8.9206C52.9007 8.57591 52.9009 8.23122 52.9014 7.88651C52.9027 7.75764 52.904 7.62877 52.9053 7.496C52.9106 6.63921 52.9106 6.63921 52.5591 5.87545C52.0862 5.40373 51.6833 5.1979 51.0355 5.09512C50.4931 5.17107 49.9907 5.41028 49.6349 5.84553ZM11.4163 12.8C11.4163 12.8693 11.4163 12.9385 11.4163 13.0099C11.3144 13.0445 11.2126 13.0791 11.1077 13.1148C10.9605 13.3472 10.9605 13.3472 10.8377 13.6263C10.7939 13.719 10.7502 13.8118 10.7051 13.9074C10.0164 15.4892 10.4906 17.3643 10.4906 19.0951C27.3262 19.0951 44.1619 19.0951 61.5077 19.0951C61.8319 15.7004 61.8319 15.7004 60.5916 12.9004C59.4776 11.8022 58.2217 11.9197 56.7634 11.941C56.5748 11.9426 56.3863 11.944 56.1977 11.9453C55.7391 11.9488 55.2805 11.9542 54.822 11.9607C54.8102 12.0521 54.7984 12.1435 54.7862 12.2376C54.7695 12.3587 54.7528 12.4798 54.7356 12.6045C54.7115 12.7838 54.7115 12.7838 54.687 12.9667C54.4884 13.9715 53.8964 14.7508 53.0734 15.3181C52.1071 15.8784 50.9002 15.9135 49.8358 15.6488C48.9307 15.304 48.3105 14.7437 47.847 13.882C47.622 13.3246 47.622 13.3246 47.3134 11.9607C39.846 11.9607 32.3785 11.9607 24.6848 11.9607C24.5491 12.5147 24.4133 13.0686 24.2734 13.6394C23.7849 14.5566 23.1083 15.3113 22.123 15.6681C20.9663 15.9213 19.7375 15.867 18.7191 15.2132C17.8517 14.5447 17.4153 13.6949 17.2655 12.6078C17.2483 12.4863 17.2312 12.3647 17.2136 12.2395C17.2013 12.1475 17.189 12.0555 17.1763 11.9607C16.6238 11.9529 16.0714 11.9472 15.5189 11.9434C15.3314 11.9418 15.1438 11.9397 14.9563 11.9369C13.0544 11.9006 13.0544 11.9006 11.4163 12.8Z" fill="white"/>
<path d="M35.6517 28.5212C37.3035 28.4637 38.9821 28.7882 40.5246 29.3769C40.6468 29.4233 40.769 29.4697 40.895 29.5175C43.8913 30.7407 46.3788 33.2694 47.6546 36.2818C47.9334 36.9745 48.1565 37.6757 48.3417 38.3999C48.3746 38.5236 48.4075 38.6474 48.4413 38.7749C49.0444 41.4547 48.6913 44.2929 47.6217 46.7933C47.5701 46.9158 47.5185 47.0384 47.4654 47.1646C46.0941 50.1799 43.4359 52.5286 40.4217 53.7179C37.2336 54.8772 33.6248 54.7321 30.5603 53.2654C29.4098 52.6955 28.2934 51.9934 27.3588 51.095C27.3588 51.0257 27.3588 50.9565 27.3588 50.8851C27.257 50.8505 27.1552 50.8159 27.0503 50.7802C27.0503 50.711 27.0503 50.6417 27.0503 50.5704C26.9484 50.5357 26.8466 50.5011 26.7417 50.4654C25.2723 48.9154 24.2233 46.8559 23.656 44.7999C23.623 44.6817 23.59 44.5635 23.5559 44.4417C23.0814 42.3749 23.1421 39.9012 23.7588 37.8753C23.7831 37.7938 23.8074 37.7122 23.8324 37.6283C24.8634 34.2692 27.1934 31.5606 30.2252 29.9089C31.9312 29.0163 33.7506 28.6366 35.6517 28.5212ZM27.819 34.342C25.7323 36.7632 25.1169 39.7655 25.3017 42.9113C25.372 43.5601 25.517 44.1794 25.7131 44.7999C25.7346 44.8679 25.7561 44.9359 25.7783 45.006C26.2839 46.5394 27.088 47.8327 28.1817 48.9966C28.2686 49.1071 28.3545 49.2185 28.4388 49.331C28.7925 49.7368 29.1913 50.0433 29.6217 50.3605C29.7129 50.429 29.8041 50.4974 29.8981 50.5679C32.2264 52.2394 35.1087 52.808 37.9069 52.3273C40.0653 51.8511 41.9016 50.8531 43.5074 49.3113C43.6086 49.2219 43.6086 49.2219 43.7119 49.1306C45.4392 47.5292 46.5561 44.9606 46.7173 42.5994C46.8618 39.1917 45.9114 36.3771 43.6802 33.8253C42.114 32.159 39.9003 30.9451 37.6446 30.6359C37.5258 30.6187 37.5258 30.6187 37.4047 30.6011C33.7113 30.1446 30.3145 31.5734 27.819 34.342Z" fill="white"/>
<path d="M40.5267 36.8262C40.8139 37.0343 40.9157 37.1895 41.0474 37.5213C41.0315 38.395 40.3522 39.2261 39.8818 39.9253C39.8207 40.0173 39.7596 40.1093 39.6967 40.204C39.5003 40.4992 39.3032 40.7939 39.1059 41.0885C38.9031 41.3926 38.7005 41.6968 38.4979 42.001C38.3646 42.2011 38.2313 42.4012 38.0979 42.6012C37.7269 43.158 37.3598 43.7171 36.9994 44.2811C36.9608 44.3412 36.9223 44.4013 36.8826 44.4632C36.7128 44.728 36.5441 44.9934 36.3771 45.26C36.0211 45.8157 35.7698 46.1829 35.1074 46.3303C34.5675 46.2329 34.1815 45.9172 33.7381 45.5999C33.643 45.5333 33.5479 45.4668 33.4499 45.3981C33.2581 45.2634 33.0668 45.128 32.876 44.9919C32.6358 44.8208 32.3944 44.6518 32.1522 44.4835C32.0229 44.3924 31.8936 44.3012 31.7645 44.2098C31.6767 44.1486 31.6767 44.1486 31.5871 44.0863C31.286 43.8685 31.0763 43.695 30.9609 43.3311C30.9749 42.9317 31.0084 42.6793 31.2309 42.3475C31.5741 42.108 31.7771 42.0651 32.1952 42.0721C32.8563 42.327 33.4202 42.8075 33.9771 43.2401C34.2635 43.4439 34.5562 43.5947 34.8695 43.7508C35.2701 43.1469 35.6704 42.5427 36.0705 41.9385C36.2059 41.734 36.3415 41.5295 36.4771 41.3251C37.2527 40.1557 38.0232 38.984 38.7671 37.7933C38.8183 37.7119 38.8695 37.6306 38.9222 37.5468C38.9888 37.4402 38.9888 37.4402 39.0567 37.3314C39.4704 36.738 39.8262 36.6632 40.5267 36.8262Z" fill="#FF8303"/>
</g>
<defs>
<clipPath id="clip0_90_5760">
<rect width="72" height="64" fill="white"/>
</clipPath>
</defs>
</svg>
