<svg width="90" height="89" viewBox="0 0 90 89" fill="none" xmlns="http://www.w3.org/2000/svg">
<g clip-path="url(#clip0_76_5201)">
<path d="M18.1282 26.0091C18.3695 26.0086 18.6108 26.0079 18.8521 26.007C19.5111 26.0051 20.1701 26.0065 20.829 26.0085C21.5413 26.01 22.2536 26.0085 22.9658 26.0075C24.3595 26.0058 25.7531 26.007 27.1468 26.0091C28.7706 26.0114 30.3945 26.0112 32.0183 26.0108C34.916 26.0102 37.8137 26.0123 40.7114 26.0157C43.5217 26.019 46.332 26.0202 49.1423 26.0192C52.2045 26.0182 55.2667 26.0182 58.3289 26.0202C58.6556 26.0204 58.9822 26.0206 59.3089 26.0208C59.4696 26.0209 59.6303 26.021 59.7959 26.0211C60.9272 26.0218 62.0585 26.0217 63.1898 26.0214C64.5687 26.021 65.9476 26.0219 67.3266 26.0245C68.0298 26.0257 68.7331 26.0264 69.4363 26.0256C70.0806 26.0249 70.7249 26.0258 71.3692 26.028C71.7115 26.0288 72.0538 26.0278 72.3961 26.0268C74.2253 26.0358 75.7016 26.1611 77.0737 27.4647C77.9966 28.6062 78.2643 29.8529 78.1167 31.2889C77.8951 32.5048 77.4961 33.4306 76.5522 34.244C75.2786 35.0718 73.951 35.0345 72.4805 35.0183C72.2302 35.0181 71.9799 35.0182 71.7297 35.0186C71.0545 35.0188 70.3795 35.0147 69.7044 35.0098C68.9973 35.0055 68.2902 35.0051 67.5831 35.0043C66.2459 35.0021 64.9089 34.9964 63.5718 34.9894C62.0487 34.9816 60.5257 34.9778 59.0026 34.9743C55.8713 34.9671 52.7401 34.9549 49.6089 34.9393C49.6153 37.7077 49.6258 40.476 49.6408 43.2444C49.6477 44.53 49.6534 45.8156 49.656 47.1013C49.6582 48.2229 49.663 49.3445 49.6705 50.4661C49.6744 51.0591 49.6772 51.6519 49.677 52.2449C49.6431 56.8315 49.6431 56.8315 51.6948 60.8397C52.5281 61.6695 53.5099 62.1046 54.5942 62.5305C55.0783 62.7962 55.1513 62.9378 55.3452 63.4471C55.3902 63.9272 55.3902 63.9272 55.3914 64.4731C55.3918 64.6709 55.3923 64.8686 55.3927 65.0724C55.3914 65.2782 55.39 65.484 55.3886 65.696C55.39 65.9012 55.3913 66.1063 55.3927 66.3177C55.3923 66.5157 55.3918 66.7136 55.3914 66.9176C55.391 67.098 55.3906 67.2783 55.3902 67.4642C55.3432 67.9893 55.2355 68.3666 54.9975 68.8358C54.5876 69.0408 54.3428 69.0319 53.8857 69.0329C53.7251 69.0336 53.5644 69.0344 53.399 69.0351C53.2222 69.0351 53.0455 69.035 52.8634 69.0349C52.5849 69.0358 52.5849 69.0358 52.3007 69.0367C51.6843 69.0383 51.0679 69.0387 50.4515 69.0388C50.0246 69.0394 49.5976 69.04 49.1707 69.0406C48.2747 69.0416 47.3788 69.042 46.4829 69.0419C45.3329 69.0418 44.1829 69.0442 43.0328 69.0472C42.1508 69.0491 41.2688 69.0495 40.3867 69.0494C39.9626 69.0496 39.5385 69.0504 39.1144 69.0517C38.5222 69.0534 37.93 69.0529 37.3377 69.0519C37.1614 69.0528 36.985 69.0538 36.8033 69.0548C36.6422 69.0541 36.4811 69.0534 36.3151 69.0526C36.175 69.0527 36.0349 69.0528 35.8906 69.0529C35.5288 69.0096 35.5288 69.0096 35.0073 68.662C34.7023 67.7469 34.794 66.7733 34.79 65.8156C34.7846 65.4942 34.7846 65.4942 34.7792 65.1664C34.7778 64.8565 34.7778 64.8565 34.7764 64.5404C34.7748 64.3516 34.7732 64.1629 34.7715 63.9684C34.842 63.3751 34.9981 63.0533 35.355 62.578C35.8194 62.3397 35.8194 62.3397 36.3545 62.1543C38.0534 61.4911 38.8931 60.5574 39.7007 58.9276C40.1462 57.8321 40.4151 56.7575 40.4235 55.5712C40.4252 55.3886 40.4269 55.2061 40.4286 55.018C40.4296 54.8196 40.4306 54.6211 40.4317 54.4167C40.4334 54.2063 40.4351 53.996 40.4369 53.7792C40.4414 53.204 40.4452 52.6287 40.4487 52.0534C40.4525 51.4516 40.4573 50.8498 40.4619 50.248C40.4706 49.1091 40.4784 47.9702 40.4859 46.8313C40.4945 45.5345 40.504 44.2376 40.5137 42.9407C40.5334 40.2736 40.552 37.6065 40.5698 34.9393C40.4385 34.94 40.3072 34.9406 40.1719 34.9413C36.9742 34.9566 33.7766 34.9681 30.5789 34.9754C29.0325 34.9789 27.4861 34.9838 25.9397 34.9918C24.5916 34.9987 23.2435 35.0032 21.8954 35.0048C21.1818 35.0057 20.4683 35.0078 19.7547 35.0129C19.0824 35.0176 18.4102 35.019 17.7379 35.018C17.4918 35.0182 17.2457 35.0195 16.9996 35.0222C15.4492 35.0382 14.3383 34.9749 13.107 33.9588C12.1063 32.7426 11.7792 31.659 11.8291 30.0769C11.9833 28.7031 12.4977 27.7641 13.5246 26.8516C14.9771 26.0244 16.4948 25.9996 18.1282 26.0091ZM14.4304 29.3225C14.0886 30.0192 13.9948 30.5278 14.1479 31.2889C14.4982 31.9412 14.7484 32.2687 15.3647 32.6796C15.8244 32.7326 15.8244 32.7326 16.3522 32.7248C16.5592 32.726 16.7662 32.7272 16.9794 32.7285C17.2079 32.7281 17.4365 32.7277 17.6719 32.7272C17.9162 32.728 18.1606 32.7289 18.4049 32.73C19.0779 32.7325 19.7508 32.7327 20.4238 32.7327C21.149 32.7329 21.8742 32.7352 22.5994 32.7372C24.1857 32.7412 25.7721 32.7426 27.3584 32.7434C28.3484 32.744 29.3385 32.7451 30.3285 32.7464C33.0684 32.7498 35.8083 32.7527 38.5482 32.7532C38.8113 32.7532 38.8113 32.7532 39.0797 32.7533C39.4353 32.7533 39.7909 32.7534 40.1466 32.7534C40.3231 32.7535 40.4996 32.7535 40.6815 32.7535C40.8582 32.7536 41.035 32.7536 41.2171 32.7536C44.0823 32.7543 46.9475 32.7589 49.8126 32.7654C52.7526 32.7721 55.6925 32.7754 58.6325 32.7755C60.2839 32.7756 61.9352 32.7771 63.5866 32.7821C64.9925 32.7863 66.3984 32.7876 67.8043 32.785C68.5219 32.7838 69.2395 32.7839 69.9571 32.7879C70.6137 32.7914 71.2703 32.791 71.927 32.7874C72.2776 32.7865 72.6283 32.7898 72.9789 32.7934C74.1948 32.8291 74.1948 32.8291 75.2073 32.2604C75.7841 31.4008 75.9231 30.9584 75.7761 29.9309C75.638 29.3664 75.4194 29.0665 74.9878 28.6815C74.2761 28.3959 73.6767 28.2903 72.9127 28.2896C72.709 28.2886 72.5053 28.2876 72.2955 28.2866C72.0733 28.2872 71.8512 28.2879 71.6223 28.2886C71.3826 28.288 71.143 28.2873 70.9034 28.2865C70.2458 28.2847 69.5882 28.2851 68.9306 28.2859C68.221 28.2863 67.5115 28.2847 66.802 28.2834C65.4123 28.2812 64.0227 28.2809 62.6331 28.2813C61.5038 28.2816 60.3744 28.2813 59.2451 28.2806C59.0844 28.2805 58.9237 28.2804 58.7582 28.2803C58.4318 28.2801 58.1053 28.2798 57.7789 28.2796C54.7174 28.2777 51.656 28.2781 48.5946 28.2792C45.793 28.2801 42.9915 28.2781 40.19 28.2748C37.3139 28.2714 34.4377 28.27 31.5616 28.2707C29.9467 28.271 28.3317 28.2706 26.7168 28.2681C25.3422 28.266 23.9676 28.2658 22.5931 28.2679C21.8916 28.2689 21.1902 28.2691 20.4888 28.267C19.8468 28.2651 19.2047 28.2657 18.5627 28.2681C18.2203 28.2688 17.8779 28.2669 17.5355 28.2649C16.2417 28.2729 15.3321 28.3022 14.4304 29.3225ZM42.8296 34.9393C42.827 35.5972 42.8245 36.255 42.8219 36.9328C42.8131 39.1106 42.8016 41.2885 42.7886 43.4664C42.7808 44.7863 42.7739 46.1062 42.7693 47.4262C42.7653 48.5775 42.7595 49.7288 42.7516 50.88C42.7474 51.4889 42.7442 52.0977 42.7431 52.7065C42.7418 53.3885 42.7365 54.0703 42.7309 54.7522C42.7311 54.9511 42.7314 55.15 42.7317 55.355C42.7 58.0958 41.8264 60.759 39.9064 62.7688C39.0615 63.5049 38.0894 63.992 37.0932 64.4901C37.0932 65.2358 37.0932 65.9816 37.0932 66.7499C42.3707 66.7499 47.6481 66.7499 53.0854 66.7499C53.3419 64.6662 53.3419 64.6662 52.678 64.0522C52.497 63.978 52.3159 63.9038 52.1294 63.8274C50.1137 62.8563 48.9942 61.304 48.168 59.2359C47.6215 57.6514 47.4956 56.2219 47.4872 54.5548C47.4855 54.3428 47.4838 54.1307 47.482 53.9122C47.4775 53.3329 47.4737 52.7537 47.4702 52.1745C47.4664 51.5683 47.4616 50.9621 47.457 50.3559C47.4483 49.209 47.4405 48.0621 47.433 46.9152C47.4244 45.6091 47.4148 44.303 47.4052 42.9969C47.3855 40.311 47.367 37.6252 47.3491 34.9393C45.8577 34.9393 44.3662 34.9393 42.8296 34.9393Z" fill="#FF8303"/>
<path d="M1.98586 19.8931C2.32877 19.9902 2.32877 19.9902 2.60042 20.3742C2.85307 20.8648 2.94824 21.2216 3.01855 21.7654C3.04267 21.9443 3.06679 22.1232 3.09163 22.3075C3.12783 22.599 3.12783 22.599 3.16476 22.8964C3.19196 23.1026 3.21917 23.3087 3.2472 23.5211C3.32117 24.0847 3.39336 24.6486 3.46474 25.2126C3.5399 25.8032 3.61728 26.3935 3.69441 26.9838C3.82354 27.9747 3.95122 28.9657 4.07787 29.9569C4.25651 31.3549 4.43783 32.7526 4.61966 34.1503C4.76078 35.2358 4.90115 36.3213 5.04143 37.4069C5.05649 37.5234 5.07155 37.6398 5.08706 37.7598C5.18676 38.5312 5.28578 39.3027 5.38447 40.0742C5.40965 40.2693 5.43484 40.4643 5.46079 40.6653C5.48344 40.8432 5.50609 41.0211 5.52942 41.2044C5.54925 41.3592 5.56909 41.5139 5.58952 41.6734C5.6315 42.0663 5.6315 42.0663 5.6315 42.5878C5.81928 42.5871 6.00706 42.5863 6.20053 42.5855C7.9753 42.5784 9.75006 42.5732 11.5248 42.5698C12.4371 42.568 13.3494 42.5655 14.2617 42.5616C15.1431 42.5578 16.0245 42.5557 16.9059 42.5548C17.2411 42.5542 17.5764 42.553 17.9117 42.5511C22.5616 42.526 22.5616 42.526 24.2311 43.9784C24.9271 44.74 25.5849 45.5886 25.6453 46.6535C25.6379 46.8007 25.6306 46.9478 25.6231 47.0994C25.5351 51.1454 26.6308 54.8814 27.6608 58.7618C28.0438 60.2082 28.4184 61.6569 28.7921 63.1057C28.9223 63.6067 29.0552 64.1068 29.1885 64.6069C29.2689 64.9143 29.3491 65.2218 29.4294 65.5292C29.4665 65.6655 29.5036 65.8017 29.5418 65.9421C29.7673 66.8177 29.9724 67.7613 29.7936 68.662C29.1478 69.0926 28.8186 69.1051 28.0553 69.0097C27.5006 68.3071 27.3312 67.4983 27.1236 66.646C27.0862 66.4975 27.0488 66.349 27.0103 66.196C26.8876 65.7069 26.767 65.2174 26.6464 64.7278C26.5615 64.3873 26.4765 64.0469 26.3914 63.7064C26.2136 62.9939 26.0367 62.2811 25.8606 61.5681C25.6346 60.6533 25.4069 59.739 25.1785 58.8249C25.003 58.1224 24.8283 57.4197 24.6537 56.7169C24.5699 56.3796 24.486 56.0424 24.4019 55.7052C24.2848 55.2347 24.1685 54.764 24.0524 54.2933C24.0175 54.1535 23.9825 54.0137 23.9465 53.8697C23.817 53.3412 23.7096 52.8685 23.7096 52.3222C18.0307 52.3222 12.3517 52.3222 6.50064 52.3222C6.4146 53.0106 6.4146 53.0106 6.32681 53.7128C6.28197 53.9528 6.23329 54.1921 6.17743 54.4297C6.13433 54.6154 6.13433 54.6154 6.09035 54.8048C6.05929 54.9352 6.02822 55.0656 5.99622 55.2C5.96312 55.3415 5.93002 55.483 5.89592 55.6288C5.7873 56.0922 5.67756 56.5552 5.56767 57.0183C5.49121 57.342 5.41476 57.6657 5.33833 57.9894C5.17843 58.6657 5.01789 59.3419 4.857 60.018C4.65096 60.8842 4.44718 61.751 4.24394 62.6179C4.08701 63.2857 3.92856 63.953 3.76968 64.6203C3.69387 64.9398 3.61861 65.2595 3.54392 65.5792C3.43948 66.0256 3.33293 66.4714 3.22583 66.9171C3.19547 67.049 3.16511 67.1808 3.13383 67.3167C2.97108 67.9838 2.81445 68.5116 2.32877 69.0097C1.83584 69.1249 1.45226 69.0587 0.93814 69.0097C0.590484 68.662 0.590484 68.662 0.544753 68.3406C0.552503 67.3649 0.686724 66.485 0.925579 65.5406C0.978985 65.3202 0.978985 65.3202 1.03347 65.0954C1.11036 64.7791 1.18807 64.463 1.26652 64.1471C1.39089 63.646 1.51299 63.1445 1.63453 62.6427C1.93673 61.3972 2.24277 60.1526 2.54869 58.908C2.80752 57.8543 3.06488 56.8003 3.32031 55.7458C3.44019 55.2535 3.56221 54.7618 3.68431 54.2701C3.75824 53.966 3.83207 53.6619 3.90578 53.3577C3.93991 53.2227 3.97405 53.0878 4.00922 52.9487C4.44446 51.1264 4.15683 49.3898 3.90578 47.5574C3.86972 47.2885 3.83376 47.0197 3.79789 46.7508C3.72078 46.1742 3.64305 45.5978 3.56484 45.0214C3.44096 44.108 3.31876 43.1945 3.19682 42.2809C2.89369 40.0117 2.58862 37.7427 2.28267 35.4738C2.04485 33.7101 1.80767 31.9463 1.57256 30.1823C1.4517 29.2761 1.32949 28.37 1.20623 27.4641C1.1295 26.898 1.05403 26.3317 0.978891 25.7654C0.944094 25.505 0.908798 25.2447 0.872935 24.9845C0.435059 21.8024 0.435059 21.8024 0.590484 20.3378C1.03665 19.8917 1.37588 19.9284 1.98586 19.8931ZM5.97916 44.8476C6.00617 45.2071 6.03336 45.5666 6.06064 45.926C6.07576 46.1262 6.09089 46.3264 6.10647 46.5327C6.16321 47.2338 6.23822 47.9307 6.32681 48.6284C6.34115 48.7494 6.35549 48.8704 6.37027 48.995C6.40075 49.5792 6.40075 49.5792 6.67447 50.0624C7.193 50.079 7.70749 50.0843 8.22606 50.0822C8.38885 50.0822 8.55164 50.0822 8.71936 50.0822C9.26019 50.0821 9.80101 50.0808 10.3418 50.0794C10.7157 50.0791 11.0896 50.0788 11.4635 50.0787C12.4497 50.078 13.4359 50.0763 14.4221 50.0744C15.4276 50.0726 16.4331 50.0718 17.4386 50.0709C19.413 50.0691 21.3875 50.0661 23.362 50.0624C23.3808 49.5335 23.3946 49.0053 23.4054 48.4763C23.4113 48.3275 23.4171 48.1787 23.4231 48.0254C23.4381 47.0471 23.3292 46.4878 22.6667 45.7167C21.5956 44.8912 20.7956 44.8219 19.4771 44.8279C19.3312 44.8278 19.1853 44.8278 19.035 44.8278C18.5534 44.8279 18.0719 44.8293 17.5903 44.8306C17.2562 44.8309 16.922 44.8312 16.5878 44.8314C15.7088 44.832 14.8298 44.8337 13.9507 44.8357C13.0536 44.8374 12.1564 44.8382 11.2592 44.8391C9.49917 44.841 7.73916 44.8439 5.97916 44.8476Z" fill="white"/>
<path d="M88.1925 19.8931C89.2016 19.9515 89.2016 19.9515 89.5879 20.3378C89.7571 21.86 89.5063 23.3773 89.2405 24.8732C89.1497 25.3853 89.0635 25.8982 88.9768 26.411C88.93 26.6877 88.883 26.9643 88.8359 27.2409C85.3077 46.5941 85.3077 46.5941 89.0451 65.6102C89.4418 66.6168 89.7288 67.4051 89.5879 68.4882C89.4032 68.8359 89.4032 68.8359 89.0664 69.0097C88.458 69.0857 88.458 69.0857 87.8496 69.0097C87.2357 68.4265 87.1178 67.6377 86.9338 66.8423C86.8981 66.6941 86.8625 66.5459 86.8257 66.3932C86.7084 65.9041 86.5935 65.4145 86.4787 64.9247C86.3977 64.5844 86.3166 64.2441 86.2354 63.9038C86.0656 63.191 85.897 62.4779 85.7292 61.7646C85.514 60.85 85.2967 59.9359 85.0786 59.022C84.9111 58.3195 84.7444 57.6168 84.578 56.914C84.4981 56.5769 84.4181 56.2397 84.3378 55.9027C84.2259 55.4319 84.1151 54.9608 84.0046 54.4896C83.9712 54.3502 83.9379 54.2107 83.9036 54.0671C83.7632 53.4642 83.6777 52.9449 83.6777 52.3222C77.9988 52.3222 72.3198 52.3222 66.4688 52.3222C66.2393 53.3547 66.0098 54.3873 65.7734 55.4511C65.3706 57.1464 65.3706 57.1464 65.231 57.718C65.1998 57.8458 65.1686 57.9737 65.1364 58.1054C65.1044 58.2362 65.0724 58.3671 65.0394 58.5019C65.0062 58.638 64.973 58.774 64.9387 58.9142C64.7638 59.6299 64.5885 60.3454 64.4128 61.0609C64.2324 61.7962 64.0536 62.532 63.8752 63.2678C63.7364 63.8387 63.5964 64.4093 63.456 64.9799C63.3895 65.2512 63.3234 65.5227 63.2579 65.7943C63.1666 66.1721 63.0735 66.5494 62.9799 66.9267C62.9276 67.1407 62.8753 67.3548 62.8213 67.5754C62.6497 68.1241 62.4563 68.5426 62.123 69.0097C61.6481 69.1638 61.2171 69.1155 60.7324 69.0097C60.3739 68.749 60.3739 68.749 60.2109 68.3144C60.2957 67.3071 60.506 66.365 60.7687 65.3911C60.849 65.0871 60.9293 64.7832 61.0096 64.4793C61.0733 64.2401 61.0733 64.2401 61.1383 63.996C61.3662 63.1369 61.589 62.2765 61.8127 61.4163C62.0961 60.3283 62.3809 59.2407 62.6711 58.1545C64.119 53.0083 64.119 53.0083 64.5204 47.7078C64.4757 46.2878 64.7892 45.1909 65.7697 44.1267C67.2351 42.7434 68.8447 42.5593 70.7923 42.5681C70.9417 42.5681 71.0911 42.568 71.245 42.568C71.735 42.5681 72.225 42.5695 72.715 42.5708C73.0562 42.5712 73.3975 42.5714 73.7387 42.5716C74.634 42.5723 75.5293 42.574 76.4246 42.5759C77.3393 42.5777 78.254 42.5785 79.1687 42.5793C80.9614 42.5812 82.7542 42.5842 84.5469 42.5878C84.5528 42.4763 84.5588 42.3648 84.5649 42.2499C84.7034 40.115 85.0086 37.9989 85.2897 35.8791C85.3177 35.6675 85.3456 35.4559 85.3744 35.2378C85.522 34.1209 85.6703 33.0041 85.8192 31.8874C85.9575 30.8495 86.0939 29.8114 86.2294 28.7731C86.3605 27.7696 86.4938 26.7665 86.6279 25.7634C86.6844 25.3383 86.7402 24.913 86.7954 24.4877C86.8725 23.8946 86.9521 23.3019 87.0323 22.7093C87.0657 22.4462 87.0657 22.4462 87.0997 22.1779C87.3845 20.1219 87.3845 20.1219 88.1925 19.8931ZM67.3488 45.9014C66.9164 46.5171 66.7945 46.7814 66.7994 47.5161C66.8 47.664 66.8006 47.8119 66.8011 47.9643C66.8026 48.1189 66.804 48.2735 66.8055 48.4328C66.8063 48.5887 66.8071 48.7447 66.8079 48.9054C66.81 49.2911 66.8128 49.6768 66.8164 50.0624C68.9892 50.0665 71.162 50.0695 73.3347 50.0714C74.3435 50.0723 75.3523 50.0736 76.3611 50.0755C77.3338 50.0774 78.3065 50.0785 79.2791 50.0789C79.6511 50.0792 80.0231 50.0799 80.3951 50.0808C80.9142 50.0821 81.4332 50.0822 81.9523 50.0822C82.1854 50.0831 82.1854 50.0831 82.4233 50.0841C83.105 50.1511 83.105 50.1511 83.6777 49.8886C83.7296 49.5902 83.7714 49.2901 83.8088 48.9896C83.8432 48.714 83.8432 48.714 83.8784 48.4328C83.9135 48.1424 83.9135 48.1424 83.9493 47.8461C83.9734 47.6552 83.9975 47.4643 84.0223 47.2676C84.1225 46.4541 84.2049 45.6677 84.1992 44.8476C82.2741 44.8355 80.349 44.8262 78.4239 44.8206C77.5299 44.8179 76.6359 44.8142 75.7419 44.8082C74.8786 44.8026 74.0152 44.7995 73.1519 44.7981C72.8231 44.7971 72.4943 44.7953 72.1656 44.7925C71.7037 44.7886 71.242 44.7881 70.7802 44.7884C70.6454 44.7865 70.5106 44.7846 70.3717 44.7827C69.223 44.7892 68.1281 44.9857 67.3488 45.9014Z" fill="white"/>
</g>
<defs>
<clipPath id="clip0_76_5201">
<rect width="89" height="89" fill="white" transform="translate(0.589844)"/>
</clipPath>
</defs>
</svg>
