<svg width="75" height="75" viewBox="0 0 75 75" fill="none" xmlns="http://www.w3.org/2000/svg">
<path d="M4.81893 27.3112C4.99105 27.3104 4.99105 27.3104 5.16664 27.3096C5.55463 27.3081 5.9426 27.3085 6.3306 27.3088C6.61017 27.3081 6.88975 27.3074 7.16932 27.3065C7.94032 27.3043 8.71132 27.3038 9.48233 27.3037C10.3128 27.3032 11.1432 27.3012 11.9736 27.2994C13.8854 27.2956 15.7972 27.2941 17.709 27.2929C18.6533 27.2923 19.5977 27.2913 20.542 27.2903C23.7733 27.2869 27.0046 27.2841 30.236 27.2832C30.4389 27.2831 30.6417 27.2831 30.8446 27.283C31.048 27.283 31.2514 27.2829 31.4548 27.2828C31.8628 27.2827 32.2709 27.2826 32.6789 27.2825C32.7801 27.2825 32.8812 27.2824 32.9855 27.2824C36.2672 27.2814 39.549 27.2772 42.8307 27.2711C46.2988 27.2646 49.767 27.261 53.2351 27.2607C53.6156 27.2606 53.9961 27.2605 54.3766 27.2605C54.4703 27.2605 54.5639 27.2605 54.6605 27.2604C56.1701 27.2601 57.6797 27.2572 59.1892 27.2534C60.7057 27.2496 62.2221 27.2488 63.7385 27.2509C64.5605 27.2519 65.3824 27.2516 66.2044 27.2479C66.9562 27.2446 67.7079 27.2449 68.4597 27.2481C68.7323 27.2486 69.005 27.2478 69.2777 27.2455C69.6471 27.2426 70.0161 27.2445 70.3855 27.2477C70.4925 27.2457 70.5995 27.2437 70.7097 27.2416C71.1118 27.2492 71.4036 27.2565 71.7339 27.5038C72.1127 27.9273 72.251 28.2851 72.2512 28.849C72.2528 28.9875 72.2544 29.1259 72.256 29.2686C72.2545 29.4192 72.253 29.5698 72.2514 29.725C72.2528 29.9667 72.2528 29.9667 72.2542 30.2134C72.2561 30.6598 72.255 31.1061 72.2528 31.5526C72.2511 32.0344 72.2531 32.5163 72.2546 32.9981C72.257 33.942 72.2559 34.8858 72.2535 35.8297C72.2517 36.5973 72.2512 37.365 72.2517 38.1326C72.2517 38.2966 72.2517 38.2966 72.2518 38.4638C72.252 38.6859 72.2521 38.9079 72.2523 39.13C72.2534 41.0941 72.2512 43.0582 72.2474 45.0223C72.2436 46.9258 72.2427 48.8294 72.2447 50.7329C72.2469 52.8069 72.2474 54.8809 72.2451 56.9549C72.2449 57.1764 72.2447 57.3979 72.2444 57.6194C72.2443 57.7284 72.2442 57.8374 72.2441 57.9497C72.2433 58.7154 72.2438 59.4811 72.2446 60.2468C72.2456 61.1815 72.2447 62.1161 72.2415 63.0508C72.2399 63.5271 72.2391 64.0035 72.2405 64.4798C72.2421 64.9977 72.2396 65.5155 72.2367 66.0334C72.2378 66.1819 72.2388 66.3305 72.2399 66.4835C72.2208 68.3714 71.5972 70.0204 70.3342 71.4007C68.9647 72.7295 67.2194 73.3043 65.3579 73.2987C65.2604 73.299 65.163 73.2992 65.0625 73.2994C64.7356 73.3 64.4087 73.2997 64.0817 73.2994C63.8451 73.2996 63.6084 73.2999 63.3718 73.3003C62.7212 73.3011 62.0706 73.3011 61.42 73.3009C60.7184 73.3009 60.0169 73.3016 59.3153 73.3023C57.9406 73.3034 56.566 73.3037 55.1913 73.3038C54.0739 73.3039 52.9565 73.3041 51.8391 73.3045C48.6713 73.3057 45.5036 73.3063 42.3359 73.3062C42.0797 73.3062 42.0797 73.3062 41.8183 73.3062C41.7329 73.3062 41.6474 73.3062 41.5593 73.3062C38.8739 73.3061 36.1885 73.3071 33.5031 73.3089C30.4855 73.3109 27.4679 73.3121 24.4503 73.312C22.8528 73.3119 21.2553 73.3123 19.6577 73.3137C18.2975 73.3149 16.9372 73.3152 15.5769 73.3143C14.883 73.3139 14.1891 73.3138 13.4952 73.315C12.8596 73.316 12.2239 73.3158 11.5883 73.3147C11.3587 73.3145 11.1292 73.3147 10.8996 73.3155C8.5418 73.3225 6.67736 73.0745 4.9029 71.3399C3.47349 69.8142 3.02611 68.1878 3.03407 66.111C3.03367 65.9487 3.03327 65.7865 3.03285 65.6193C3.032 65.1712 3.0323 64.7231 3.03311 64.275C3.03369 63.791 3.03279 63.3069 3.03208 62.8228C3.03093 61.8755 3.03117 60.9282 3.03192 59.9809C3.03251 59.2112 3.03259 58.4415 3.03231 57.6718C3.03227 57.5622 3.03223 57.4525 3.03219 57.3396C3.0321 57.1169 3.03202 56.8943 3.03193 56.6716C3.0312 54.5849 3.03204 52.4983 3.03343 50.4116C3.03459 48.6206 3.03439 46.8296 3.0332 45.0386C3.03181 42.9585 3.03127 40.8784 3.03206 38.7983C3.03214 38.5766 3.03223 38.3549 3.03231 38.1333C3.03235 38.0242 3.03239 37.9151 3.03243 37.8027C3.03265 37.0335 3.03227 36.2644 3.03166 35.4952C3.03094 34.5584 3.03113 33.6217 3.03251 32.6849C3.03319 32.2068 3.03346 31.7288 3.0326 31.2507C3.03169 30.733 3.03278 30.2153 3.03407 29.6977C3.0335 29.5458 3.03292 29.394 3.03232 29.2376C3.033 29.0992 3.03367 28.9609 3.03437 28.8184C3.03441 28.6988 3.03445 28.5793 3.0345 28.4562C3.0699 28.1089 3.13969 27.9019 3.32575 27.6099C3.82616 27.2696 4.23868 27.3087 4.81893 27.3112ZM5.52567 29.7219C5.51766 35.9292 5.50965 42.1365 5.5014 48.5318C5.49787 50.4931 5.49433 52.4544 5.49069 54.4752C5.48939 56.2304 5.48939 56.2304 5.48861 57.9857C5.48825 58.7686 5.48683 59.5516 5.48468 60.3345C5.48221 61.2375 5.48108 62.1404 5.48162 63.0434C5.48186 63.5053 5.48149 63.9672 5.47938 64.4291C5.47746 64.9239 5.47792 65.4187 5.47898 65.9136C5.47785 66.0573 5.47672 66.2011 5.47555 66.3492C5.48284 67.609 5.77064 68.6359 6.66303 69.562C7.66883 70.5088 8.6292 70.7946 9.98893 70.7911C10.0859 70.7914 10.1828 70.7916 10.2827 70.7919C10.6085 70.7927 10.9343 70.7925 11.2602 70.7923C11.4958 70.7926 11.7313 70.793 11.9669 70.7935C12.6151 70.7945 13.2633 70.7948 13.9114 70.7949C14.6102 70.7951 15.3089 70.7961 16.0077 70.797C17.536 70.7988 19.0642 70.7996 20.5925 70.8002C21.5466 70.8005 22.5008 70.8011 23.4549 70.8017C26.0962 70.8033 28.7374 70.8047 31.3787 70.8051C31.6323 70.8052 31.6323 70.8052 31.8911 70.8052C32.1453 70.8052 32.1453 70.8052 32.4046 70.8053C32.748 70.8053 33.0915 70.8054 33.4349 70.8055C33.6052 70.8055 33.7756 70.8055 33.9511 70.8056C36.7117 70.8061 39.4722 70.8084 42.2328 70.8115C45.0665 70.8146 47.9002 70.8162 50.7339 70.8164C52.3251 70.8165 53.9163 70.8173 55.5076 70.8197C56.8625 70.8217 58.2174 70.8224 59.5723 70.8213C60.2636 70.8208 60.9549 70.8209 61.6462 70.8227C62.2792 70.8244 62.9123 70.8243 63.5454 70.8227C63.7742 70.8224 64.003 70.8228 64.2317 70.824C65.9992 70.8323 67.328 70.7159 68.6761 69.4538C69.5114 68.6018 69.7692 67.486 69.7782 66.3152C69.7767 66.1722 69.7752 66.0292 69.7736 65.8818C69.7741 65.7269 69.7745 65.572 69.775 65.4124C69.7757 64.9851 69.7741 64.5579 69.7715 64.1306C69.7692 63.6617 69.77 63.1928 69.7703 62.724C69.7706 61.8152 69.7682 60.9064 69.7649 59.9976C69.7612 58.9456 69.7608 57.8937 69.7604 56.8418C69.7576 54.0663 69.7504 51.2908 69.7437 48.5153C69.7277 39.2126 69.7277 39.2126 69.7114 29.7219C48.5301 29.7219 27.3488 29.7219 5.52567 29.7219Z" fill="white"/>
<path d="M21.7438 3.11007C22.8466 4.19789 23.2157 5.35853 23.3821 6.88598C23.3821 8.10565 23.3821 9.32533 23.3821 10.582C32.7771 10.582 42.172 10.582 51.8516 10.582C51.8516 9.27517 51.8516 7.96837 51.8516 6.62198C52.134 5.03746 52.5662 3.82278 53.8331 2.83524C54.9215 2.0959 56.1483 1.8802 57.4449 2.05974C58.7042 2.34555 59.7165 2.94265 60.5218 3.98199C61.1054 4.97875 61.3186 5.76515 61.3109 6.92104C61.3107 7.07813 61.3106 7.07813 61.3104 7.2384C61.3096 7.57193 61.308 7.90544 61.3064 8.23897C61.3057 8.4655 61.3051 8.69203 61.3046 8.91856C61.3032 9.47303 61.3009 10.0275 61.2983 10.582C61.5272 10.5789 61.5272 10.5789 61.7607 10.5757C62.3337 10.5684 62.9068 10.5639 63.4798 10.5602C63.7265 10.5582 63.9733 10.5555 64.22 10.5521C66.4426 10.5218 68.1186 10.7467 69.9928 12.0587C71.5143 13.6107 72.1893 15.3288 72.2077 17.5026C72.2076 17.6561 72.2075 17.8096 72.2074 17.9677C72.2082 18.209 72.2082 18.209 72.2091 18.4551C72.2098 18.7932 72.2099 19.1314 72.2093 19.4695C72.2089 19.9871 72.2119 20.5047 72.2152 21.0223C72.2155 21.3516 72.2156 21.6809 72.2155 22.0102C72.2167 22.1648 72.2178 22.3194 72.2191 22.4786C72.2179 22.6948 72.2179 22.6948 72.2166 22.9153C72.2167 23.0416 72.2168 23.1678 72.2169 23.2979C72.1575 23.7295 72.044 23.9675 71.7802 24.3099C71.2104 24.6264 70.6412 24.611 70.0089 24.6075C69.8952 24.6079 69.7815 24.6084 69.6644 24.6088C69.2815 24.6099 68.8987 24.6091 68.5158 24.6083C68.2393 24.6087 67.9628 24.6092 67.6863 24.6099C66.925 24.6112 66.1637 24.6109 65.4023 24.6104C64.5819 24.61 63.7614 24.6112 62.9409 24.6122C61.333 24.6139 59.7251 24.6141 58.1171 24.6138C56.8106 24.6136 55.5041 24.6138 54.1976 24.6144C54.01 24.6145 53.8224 24.6145 53.6348 24.6146C53.3521 24.6147 53.0694 24.6149 52.7867 24.615C50.1579 24.6161 47.5292 24.6167 44.9004 24.6161C44.8012 24.6161 44.7021 24.6161 44.6 24.6161C44.0975 24.6159 43.5951 24.6158 43.0926 24.6157C42.9928 24.6157 42.893 24.6157 42.7902 24.6157C42.5884 24.6156 42.3866 24.6156 42.1848 24.6155C39.0442 24.6148 35.9036 24.6159 32.763 24.6183C29.2358 24.621 25.7085 24.6224 22.1813 24.6219C21.8053 24.6219 21.4294 24.6218 21.0534 24.6218C20.9146 24.6217 20.9146 24.6217 20.7729 24.6217C19.3743 24.6216 17.9757 24.6225 16.577 24.6239C14.9868 24.6254 13.3966 24.6256 11.8064 24.624C10.9946 24.6232 10.1828 24.6231 9.37107 24.6247C8.62849 24.6261 7.88593 24.6257 7.14335 24.6238C6.87418 24.6235 6.60501 24.6238 6.33584 24.6249C5.97092 24.6262 5.60607 24.6251 5.24114 24.6234C5.08316 24.6248 5.08316 24.6248 4.92199 24.6263C4.29654 24.6202 3.86427 24.5341 3.3241 24.1779C3.03207 23.7311 3.0316 23.5733 3.02769 23.0493C3.02604 22.8989 3.02439 22.7486 3.02268 22.5937C3.0224 22.4307 3.02211 22.2678 3.02181 22.1C3.02095 21.9317 3.02009 21.7635 3.0192 21.5902C3.01789 21.2331 3.01717 20.876 3.01733 20.5189C3.01735 20.0661 3.01384 19.6134 3.00936 19.1606C3.00575 18.7242 3.00594 18.2877 3.00564 17.8512C3.00378 17.691 3.00192 17.5307 3 17.3656C3.00833 15.7496 3.37868 14.37 4.35935 13.09C4.41623 13.009 4.47312 12.928 4.53172 12.8445C5.4897 11.5717 7.10027 10.8269 8.62977 10.582C9.03778 10.5642 9.44526 10.5666 9.85357 10.5691C10.0288 10.5694 10.0288 10.5694 10.2077 10.5696C10.5795 10.5704 10.9513 10.572 11.323 10.5737C11.5757 10.5744 11.8284 10.575 12.081 10.5755C12.6992 10.577 13.3173 10.5792 13.9354 10.582C13.9314 10.3704 13.9314 10.3704 13.9272 10.1546C13.9178 9.62567 13.9119 9.09678 13.907 8.56781C13.9044 8.33993 13.9009 8.11207 13.8964 7.88422C13.862 6.10154 13.9806 4.68696 15.2295 3.32199C17.0431 1.62939 19.7923 1.58065 21.7438 3.11007ZM16.7905 5.45048C16.4271 5.96715 16.3774 6.19755 16.3733 6.82629C16.3721 6.97964 16.3708 7.13298 16.3696 7.29097C16.369 7.45748 16.3685 7.62398 16.3679 7.79554C16.3671 7.96615 16.3664 8.13676 16.3657 8.31254C16.3643 8.67428 16.3635 9.03602 16.3631 9.39777C16.3624 9.85997 16.3593 10.3221 16.3556 10.7843C16.3526 11.2263 16.3523 11.6683 16.3517 12.1103C16.3501 12.2757 16.3485 12.4411 16.3469 12.6116C16.3473 12.7666 16.3476 12.9216 16.348 13.0813C16.3476 13.2171 16.3471 13.3529 16.3466 13.4928C16.4261 14.1435 16.6832 14.5679 17.1221 15.0369C17.6918 15.4789 18.3192 15.6517 19.0298 15.5572C19.6813 15.3771 20.0808 15.0808 20.5104 14.5564C20.983 13.7029 20.9632 12.8159 20.9623 11.8617C20.9632 11.6482 20.9632 11.6482 20.964 11.4303C20.9647 11.1301 20.9648 10.8299 20.9643 10.5297C20.9638 10.0729 20.9669 9.61616 20.9702 9.15936C20.9705 8.86666 20.9705 8.57395 20.9704 8.28125C20.9716 8.14592 20.9728 8.01058 20.974 7.87114C20.9676 6.84532 20.8674 5.89282 20.1631 5.11223C19.6945 4.68826 19.3082 4.53267 18.6831 4.46048C17.9007 4.54164 17.3032 4.83555 16.7905 5.45048ZM54.7723 5.39634C54.3912 6.04483 54.2953 6.67359 54.2895 7.41591C54.2882 7.54416 54.287 7.67241 54.2857 7.80455C54.2852 7.94178 54.2846 8.07902 54.284 8.22041C54.2833 8.36315 54.2826 8.50589 54.2818 8.65296C54.2806 8.95475 54.2797 9.25653 54.2792 9.55832C54.278 10.0175 54.274 10.4765 54.2699 10.9357C54.269 11.2296 54.2684 11.5235 54.2679 11.8174C54.2663 11.9536 54.2647 12.0897 54.263 12.23C54.2657 13.1328 54.3137 14.066 54.8993 14.7902C55.429 15.3247 56.0254 15.5776 56.7691 15.5979C57.5814 15.4884 58.067 15.153 58.5686 14.5048C58.8485 14.0561 58.857 13.6639 58.8604 13.1468C58.8617 12.9961 58.8629 12.8454 58.8642 12.6901C58.8647 12.5272 58.8653 12.3643 58.8658 12.1964C58.867 11.9451 58.867 11.9451 58.8681 11.6888C58.8693 11.3341 58.8702 10.9793 58.8706 10.6246C58.8714 10.1714 58.8745 9.71831 58.8782 9.26515C58.8812 8.83149 58.8814 8.39782 58.882 7.96414C58.8836 7.80201 58.8852 7.63987 58.8869 7.47283C58.8935 6.39489 58.8935 6.39489 58.4513 5.43398C57.8563 4.8405 57.3495 4.58155 56.5345 4.45223C55.852 4.54779 55.2199 4.84874 54.7723 5.39634ZM6.68867 14.146C6.68867 14.2331 6.68867 14.3202 6.68867 14.4099C6.56056 14.4535 6.43245 14.4971 6.30045 14.5419C6.1153 14.8344 6.1153 14.8344 5.96076 15.1854C5.90571 15.3022 5.85066 15.4189 5.79394 15.5392C4.92752 17.5293 5.52401 19.8884 5.52401 22.0659C26.7053 22.0659 47.8866 22.0659 69.7097 22.0659C70.1177 17.7949 70.1177 17.7949 68.5572 14.2723C67.1557 12.8905 65.5756 13.0384 63.7408 13.0652C63.5036 13.0672 63.2663 13.069 63.0291 13.0706C62.4521 13.0749 61.8752 13.0818 61.2983 13.09C61.2835 13.2049 61.2686 13.3199 61.2533 13.4384C61.2323 13.5907 61.2113 13.743 61.1896 13.9C61.1593 14.1255 61.1593 14.1255 61.1285 14.3556C60.8786 15.6197 60.1338 16.6003 59.0984 17.3139C57.8826 18.0189 56.3642 18.0631 55.0251 17.73C53.8863 17.2963 53.1061 16.5913 52.5229 15.5072C52.2398 14.8059 52.2398 14.8059 51.8516 13.09C42.4567 13.09 33.0618 13.09 23.3821 13.09C23.2113 13.7869 23.0405 14.4839 22.8645 15.2019C22.25 16.3559 21.3987 17.3055 20.1591 17.7543C18.7038 18.0729 17.1578 18.0045 15.8765 17.1819C14.7852 16.341 14.2362 15.2718 14.0477 13.9041C14.0261 13.7512 14.0046 13.5982 13.9824 13.4407C13.9669 13.3249 13.9514 13.2092 13.9354 13.09C13.2404 13.0801 12.5454 13.0729 11.8503 13.0682C11.6143 13.0662 11.3784 13.0635 11.1425 13.0601C8.74964 13.0143 8.74964 13.0143 6.68867 14.146Z" fill="white"/>
<path d="M37.181 33.9253C39.2592 33.853 41.3711 34.2612 43.3117 35.0019C43.4655 35.0603 43.6193 35.1186 43.7777 35.1787C47.5475 36.7177 50.677 39.8991 52.2822 43.6891C52.6328 44.5605 52.9135 45.4428 53.1466 46.3539C53.1879 46.5095 53.2293 46.6652 53.2719 46.8256C54.0306 50.1972 53.5864 53.768 52.2407 56.9138C52.1758 57.068 52.1109 57.2221 52.0441 57.381C50.3189 61.1746 46.9745 64.1294 43.1823 65.6258C39.1713 67.0843 34.631 66.9018 30.7754 65.0565C29.328 64.3395 27.9234 63.4562 26.7476 62.3258C26.7476 62.2387 26.7476 62.1516 26.7476 62.0618C26.6195 62.0182 26.4914 61.9747 26.3594 61.9298C26.3594 61.8427 26.3594 61.7556 26.3594 61.6658C26.2313 61.6222 26.1032 61.5787 25.9712 61.5338C24.1224 59.5836 22.8027 56.9926 22.089 54.4058C22.0474 54.2571 22.0059 54.1084 21.9631 53.9552C21.3661 51.355 21.4424 48.2427 22.2184 45.6939C22.2489 45.5913 22.2795 45.4887 22.3109 45.3831C23.6081 41.1569 26.5394 37.7492 30.3538 35.6712C32.5002 34.5482 34.7892 34.0705 37.181 33.9253ZM27.3265 41.2486C24.7012 44.2948 23.927 48.072 24.1595 52.0298C24.248 52.8461 24.4303 53.6252 24.6771 54.4058C24.7041 54.4914 24.7312 54.577 24.7591 54.6651C25.3952 56.5943 26.4069 58.2215 27.7829 59.6858C27.8922 59.8249 28.0003 59.9649 28.1064 60.1066C28.5513 60.6171 29.0531 61.0027 29.5946 61.4018C29.7093 61.4879 29.8241 61.574 29.9423 61.6627C32.8715 63.7656 36.4979 64.481 40.0184 63.8763C42.7339 63.2771 45.0442 62.0215 47.0645 60.0818C47.1918 59.9692 47.1918 59.9692 47.3217 59.8544C49.4949 57.8396 50.9001 54.608 51.1029 51.6373C51.2847 47.3501 50.089 43.809 47.2818 40.5985C45.3114 38.5021 42.5263 36.9749 39.6883 36.5859C39.5389 36.5642 39.5389 36.5642 39.3865 36.5421C34.7398 35.9678 30.4661 37.7654 27.3265 41.2486Z" fill="white"/>
<path d="M43.3122 44.3738C43.6735 44.6357 43.8017 44.831 43.9673 45.2483C43.9473 46.3476 43.0927 47.3932 42.5008 48.273C42.424 48.3887 42.3471 48.5044 42.2679 48.6236C42.0209 48.995 41.7729 49.3657 41.5247 49.7363C41.2696 50.1189 41.0146 50.5016 40.7597 50.8844C40.592 51.1362 40.4243 51.3879 40.2565 51.6395C39.7897 52.3401 39.3279 53.0434 38.8744 53.753C38.8259 53.8286 38.7774 53.9042 38.7275 53.9821C38.5139 54.3153 38.3016 54.6492 38.0915 54.9846C37.6437 55.6837 37.3275 56.1458 36.4941 56.3311C35.8149 56.2086 35.3291 55.8114 34.7713 55.4123C34.6517 55.3285 34.532 55.2447 34.4087 55.1584C34.1675 54.9889 33.9268 54.8186 33.6867 54.6474C33.3846 54.432 33.0808 54.2194 32.7761 54.0077C32.6134 53.8931 32.4508 53.7783 32.2883 53.6633C32.1779 53.5864 32.1779 53.5864 32.0652 53.5079C31.6863 53.2339 31.4224 53.0156 31.2773 52.5578C31.2949 52.0554 31.337 51.7378 31.617 51.3203C32.0488 51.019 32.3041 50.965 32.8302 50.9738C33.6619 51.2946 34.3713 51.899 35.0721 52.4433C35.4324 52.6998 35.8006 52.8894 36.1948 53.0858C36.6988 52.326 37.2024 51.566 37.7058 50.8058C37.8762 50.5485 38.0467 50.2912 38.2173 50.034C39.1931 48.5628 40.1626 47.0887 41.0984 45.5906C41.1628 45.4882 41.2273 45.3859 41.2936 45.2804C41.3774 45.1463 41.3774 45.1463 41.4628 45.0095C41.9833 44.2629 42.4309 44.1688 43.3122 44.3738Z" fill="#FF8303"/>
</svg>
