<svg width="75" height="75" viewBox="0 0 75 75" fill="none" xmlns="http://www.w3.org/2000/svg">
<path d="M28.3595 34.1438H43.9042C44.3592 34.1438 44.7364 33.7666 44.7364 33.3117C44.7364 32.8567 44.3592 32.4795 43.9042 32.4795H28.3595C27.9046 32.4795 27.5273 32.8567 27.5273 33.3117C27.5273 33.7666 27.9046 34.1438 28.3595 34.1438Z" fill="#FF8303"/>
<path d="M38.756 37.7492C38.756 37.2942 38.3787 36.917 37.9238 36.917H28.3595C27.9046 36.917 27.5273 37.2942 27.5273 37.7492C27.5273 38.2041 27.9046 38.5813 28.3595 38.5813H37.9238C38.3787 38.5813 38.756 38.2041 38.756 37.7492Z" fill="#FF8303"/>
<path d="M71.8005 43.6413C71.4898 43.2862 71.1347 43.0088 70.7575 42.7758V8.54632C70.7575 8.53523 70.7575 8.51304 70.7575 8.50194C70.58 5.15111 67.8727 2.52148 64.5884 2.52148H53.2821H24.8666C23.1801 2.52148 21.5935 3.2205 20.5061 4.4299C19.4742 5.57274 19.0082 7.04843 19.1636 8.47975V45.1392C19.0304 45.1946 18.8973 45.2612 18.7752 45.3167L18.0762 44.0185C17.7434 43.3972 17.1775 42.9423 16.5007 42.7425C15.8349 42.5428 15.1248 42.6205 14.5479 42.9312L3.89621 48.146C3.26377 48.49 2.80886 49.0559 2.62024 49.7438C2.43161 50.4206 2.50928 51.1196 2.84214 51.7188L13.5382 71.6019C13.8821 72.2232 14.4369 72.6781 15.1248 72.8778C15.3689 72.9444 15.613 72.9777 15.8571 72.9777C16.2898 72.9777 16.7115 72.8667 17.0776 72.667L27.6849 67.4854C27.696 67.4854 27.7071 67.4743 27.7182 67.4632C28.9942 66.7642 29.4713 65.1665 28.7833 63.9016L28.1176 62.6589C28.284 62.6478 28.4394 62.6478 28.6058 62.6811L44.6166 66.5312C45.249 66.6755 45.8815 66.7531 46.5139 66.7531C48.2448 66.7531 49.9424 66.1984 51.3626 65.1443L71.0904 50.5094C72.2887 49.6328 72.9988 48.2237 72.9988 46.7258C72.9766 45.5941 72.566 44.4845 71.8005 43.6413ZM52.45 17.4116C52.4278 17.7999 52.2281 18.1328 51.9063 18.2992C51.7731 18.3658 51.4181 18.499 50.9965 18.2327L46.0923 15.37C45.6706 15.0926 45.1824 14.9484 44.6942 14.9484C44.206 14.9484 43.7178 15.0926 43.2962 15.37L39.0577 18.1661C38.7138 18.3991 38.3587 18.2992 38.1812 18.2327C37.8261 18.0884 37.5599 17.7667 37.46 17.4005V4.208L52.4389 4.1858L52.45 17.4116ZM20.8279 8.39099C20.7169 7.34801 21.0387 6.33832 21.7488 5.55055C22.5255 4.6851 23.6683 4.1858 24.8777 4.1858H35.8179V17.4893C35.8179 17.5447 35.8179 17.5891 35.829 17.6446C36.0065 18.5766 36.6611 19.3977 37.5488 19.7638C38.3809 20.1078 39.2686 20.0412 39.9898 19.553L44.2282 16.757C44.5167 16.5683 44.894 16.5683 45.2268 16.7792L50.131 19.6418C50.5526 19.9192 51.0298 20.0634 51.518 20.0634C51.9063 20.0634 52.3057 19.9747 52.6719 19.786C53.5373 19.3533 54.081 18.499 54.1365 17.456V4.1858H64.6106C66.9961 4.1858 68.9711 6.11642 69.1154 8.56851V42.1212C67.9947 41.9215 66.8075 42.1212 65.7867 42.7758L54.3473 50.0212C53.6705 48.8672 52.4722 48.0906 51.0852 48.0129L41.7318 47.4803C41.0327 47.4359 40.3337 47.1474 39.7013 46.6371C33.277 41.3223 25.8874 42.5317 20.839 44.4512L20.8279 8.39099ZM26.9415 65.9986L16.312 71.1913C16.0901 71.3134 15.8349 71.3467 15.5908 71.269C15.3356 71.2024 15.1359 71.0249 15.0028 70.803L4.30675 50.9088C4.1847 50.698 4.15141 50.4428 4.22908 50.1987C4.29565 49.9435 4.46208 49.7327 4.6618 49.6217L15.3134 44.4069C15.4466 44.3292 15.6019 44.2959 15.7573 44.2959C15.846 44.2959 15.9459 44.307 16.0347 44.3403C16.2898 44.418 16.4896 44.5844 16.6227 44.8063L27.3298 64.6894C27.5739 65.1554 27.3964 65.7323 26.9415 65.9986ZM70.0918 49.1779L50.3529 63.8128C48.8107 64.9557 46.8579 65.3551 44.9938 64.9113L28.9831 61.0612C28.4283 60.9391 27.8402 60.9613 27.2966 61.1277L19.563 46.7813C24.8999 44.2848 32.2895 42.6649 38.625 47.913C39.5238 48.6453 40.5556 49.067 41.6097 49.1335L50.9632 49.6661C51.9951 49.7216 52.8605 50.4428 53.1157 51.3859L53.1712 51.6855C53.1934 51.7964 53.1934 51.9296 53.1934 52.0405C53.1934 53.2721 52.2614 54.2929 51.0298 54.4039L35.4628 55.8463C35.0079 55.8907 34.6639 56.2901 34.7083 56.7561C34.7527 57.1888 35.1078 57.5106 35.5405 57.5106H35.6181L51.1851 56.0682C53.2821 55.8796 54.8577 54.1487 54.8577 52.0405C54.8577 51.9185 54.8355 51.7853 54.8244 51.6522L66.63 44.1739C67.8949 43.3639 69.537 43.608 70.5356 44.7397C71.0238 45.2834 71.2901 45.9935 71.2901 46.7369C71.3123 47.7022 70.8574 48.6231 70.0918 49.1779Z" fill="#215CFF"/>
<path d="M19.9938 59.8184C18.2074 59.8184 16.7539 61.2719 16.7539 63.0582C16.7539 64.8335 18.2074 66.287 19.9938 66.287C21.7802 66.287 23.2337 64.8446 23.2337 63.0582C23.2337 61.2719 21.7802 59.8184 19.9938 59.8184ZM19.9938 64.6227C19.1283 64.6227 18.4182 63.9237 18.4182 63.0582C18.4182 62.1928 19.1283 61.4827 19.9938 61.4827C20.8592 61.4827 21.5693 62.1928 21.5693 63.0582C21.5693 63.9237 20.8592 64.6227 19.9938 64.6227Z" fill="#FF8303"/>
</svg>
