<svg width="73" height="73" viewBox="0 0 73 73" fill="none" xmlns="http://www.w3.org/2000/svg">
<g clip-path="url(#clip0_2121_835)">
<path d="M14.3855 21.3335C14.5835 21.3331 14.7814 21.3325 14.9793 21.3318C15.5198 21.3303 16.0603 21.3314 16.6008 21.333C17.185 21.3343 17.7692 21.3331 18.3535 21.3322C19.4966 21.3308 20.6397 21.3318 21.7828 21.3335C23.1147 21.3354 24.4466 21.3352 25.7785 21.3349C28.1553 21.3344 30.5321 21.3361 32.9088 21.3389C35.2139 21.3416 37.519 21.3426 39.824 21.3418C42.3357 21.341 44.8474 21.341 47.3592 21.3426C47.6271 21.3428 47.895 21.3429 48.1629 21.3431C48.2948 21.3432 48.4266 21.3433 48.5624 21.3434C49.4903 21.3439 50.4182 21.3439 51.3461 21.3436C52.4772 21.3433 53.6082 21.344 54.7393 21.3461C55.3161 21.3471 55.8929 21.3477 56.4697 21.3471C56.9982 21.3465 57.5266 21.3472 58.0551 21.349C58.3359 21.3496 58.6166 21.3489 58.8974 21.348C60.3977 21.3554 61.6087 21.4582 62.7341 22.5275C63.491 23.4637 63.7106 24.4863 63.5896 25.6642C63.4078 26.6615 63.0805 27.4208 62.3064 28.088C61.2617 28.767 60.1727 28.7364 58.9666 28.7231C58.7613 28.7229 58.556 28.723 58.3508 28.7233C57.797 28.7235 57.2433 28.7201 56.6896 28.7161C56.1096 28.7126 55.5296 28.7122 54.9496 28.7116C53.8529 28.7098 52.7562 28.7051 51.6595 28.6994C50.4102 28.693 49.161 28.6899 47.9117 28.687C45.3434 28.6811 42.7751 28.671 40.2067 28.6583C40.2121 30.929 40.2206 33.1997 40.233 35.4703C40.2386 36.5248 40.2432 37.5793 40.2454 38.6338C40.2472 39.5538 40.2511 40.4738 40.2573 41.3938C40.2605 41.8801 40.2628 42.3664 40.2626 42.8527C40.2348 46.6148 40.2348 46.6148 41.9177 49.9025C42.6012 50.5831 43.4065 50.9399 44.2958 51.2892C44.6929 51.5072 44.7528 51.6233 44.9118 52.0411C44.9487 52.4349 44.9487 52.4349 44.9497 52.8827C44.9501 53.0449 44.9504 53.2071 44.9508 53.3742C44.9497 53.543 44.9486 53.7118 44.9475 53.8857C44.9486 54.054 44.9497 54.2223 44.9508 54.3956C44.9504 54.558 44.9501 54.7204 44.9497 54.8877C44.9494 55.0356 44.9491 55.1836 44.9487 55.336C44.9102 55.7667 44.8219 56.0762 44.6267 56.461C44.2904 56.6292 44.0896 56.6219 43.7147 56.6227C43.5829 56.6233 43.4512 56.6239 43.3155 56.6245C43.1705 56.6245 43.0256 56.6244 42.8762 56.6243C42.6477 56.6251 42.6477 56.6251 42.4146 56.6258C41.9091 56.6271 41.4035 56.6274 40.8979 56.6276C40.5477 56.628 40.1975 56.6285 39.8473 56.629C39.1125 56.6299 38.3776 56.6301 37.6427 56.63C36.6995 56.63 35.7562 56.632 34.8129 56.6344C34.0895 56.636 33.366 56.6363 32.6425 56.6362C32.2947 56.6364 31.9468 56.637 31.599 56.6381C31.1132 56.6395 30.6274 56.6391 30.1417 56.6383C29.997 56.6391 29.8523 56.6399 29.7033 56.6407C29.5711 56.6401 29.439 56.6395 29.3028 56.6389C29.188 56.639 29.0731 56.639 28.9547 56.6391C28.6579 56.6036 28.6579 56.6036 28.2302 56.3185C27.98 55.5679 28.0552 54.7693 28.052 53.9838C28.0475 53.7202 28.0475 53.7202 28.043 53.4513C28.0419 53.1971 28.0419 53.1971 28.0408 52.9378C28.0395 52.783 28.0382 52.6282 28.0368 52.4687C28.0946 51.9821 28.2226 51.7181 28.5153 51.3282C28.8963 51.1327 28.8963 51.1327 29.3352 50.9807C30.7287 50.4367 31.4174 49.6709 32.0798 48.3341C32.4452 47.4355 32.6658 46.5541 32.6727 45.5811C32.6741 45.4313 32.6755 45.2816 32.6769 45.1273C32.6777 44.9646 32.6785 44.8018 32.6794 44.6341C32.6808 44.4616 32.6822 44.289 32.6837 44.1113C32.6874 43.6394 32.6905 43.1675 32.6934 42.6957C32.6965 42.2021 32.7004 41.7085 32.7042 41.2149C32.7113 40.2807 32.7177 39.3466 32.7239 38.4124C32.7309 37.3487 32.7387 36.285 32.7466 35.2212C32.7629 33.0336 32.7781 30.846 32.7927 28.6583C32.685 28.6588 32.5773 28.6594 32.4663 28.6599C29.8435 28.6725 27.2207 28.6819 24.5979 28.6879C23.3295 28.6908 22.0611 28.6948 20.7927 28.7013C19.687 28.707 18.5812 28.7107 17.4755 28.712C16.8902 28.7127 16.3049 28.7145 15.7196 28.7186C15.1682 28.7225 14.6168 28.7237 14.0654 28.7228C13.8635 28.723 13.6617 28.7241 13.4598 28.7263C12.1882 28.7394 11.277 28.6874 10.267 27.8541C9.44621 26.8565 9.17793 25.9677 9.21884 24.67C9.34533 23.5432 9.76725 22.773 10.6095 22.0245C11.8009 21.3461 13.0457 21.3257 14.3855 21.3335ZM11.3525 24.0513C11.0722 24.6227 10.9952 25.0398 11.1208 25.6642C11.4081 26.1991 11.6134 26.4678 12.1189 26.8048C12.4959 26.8483 12.4959 26.8483 12.9288 26.8419C13.0986 26.8429 13.2683 26.8439 13.4433 26.8449C13.6307 26.8446 13.8181 26.8442 14.0113 26.8439C14.2117 26.8445 14.4121 26.8453 14.6125 26.8461C15.1645 26.8482 15.7165 26.8484 16.2685 26.8483C16.8633 26.8486 17.4581 26.8504 18.0529 26.8521C19.3541 26.8553 20.6552 26.8565 21.9564 26.8572C22.7684 26.8577 23.5805 26.8586 24.3925 26.8596C26.6399 26.8624 28.8872 26.8647 31.1345 26.8652C31.3503 26.8652 31.3503 26.8652 31.5705 26.8652C31.8622 26.8653 32.1538 26.8653 32.4455 26.8654C32.5903 26.8654 32.7351 26.8654 32.8843 26.8655C33.0293 26.8655 33.1742 26.8655 33.3236 26.8655C35.6737 26.8661 38.0238 26.8699 40.3739 26.8752C42.7853 26.8807 45.1967 26.8834 47.6082 26.8835C48.9627 26.8836 50.3171 26.8848 51.6716 26.8889C52.8248 26.8924 53.9779 26.8934 55.1311 26.8913C55.7197 26.8903 56.3082 26.8904 56.8968 26.8936C57.4355 26.8965 57.974 26.8962 58.5126 26.8932C58.8002 26.8925 59.0878 26.8952 59.3755 26.8981C60.3728 26.9275 60.3728 26.9275 61.2032 26.461C61.6764 25.7559 61.7904 25.393 61.6698 24.5503C61.5565 24.0872 61.3772 23.8413 61.0231 23.5255C60.4394 23.2912 59.9478 23.2046 59.3211 23.2041C59.154 23.2032 58.987 23.2024 58.8149 23.2015C58.6326 23.2021 58.4504 23.2026 58.2627 23.2032C58.0661 23.2027 57.8696 23.2022 57.673 23.2015C57.1336 23.2001 56.5943 23.2004 56.0549 23.201C55.4729 23.2013 54.8909 23.2 54.309 23.199C53.1691 23.1972 52.0293 23.1969 50.8895 23.1972C49.9632 23.1975 49.0369 23.1972 48.1106 23.1966C47.9788 23.1965 47.847 23.1965 47.7112 23.1964C47.4435 23.1962 47.1757 23.196 46.908 23.1959C44.3969 23.1943 41.8859 23.1946 39.3748 23.1955C37.0769 23.1962 34.779 23.1946 32.4812 23.1919C30.1221 23.1891 27.763 23.188 25.4039 23.1885C24.0793 23.1888 22.7547 23.1884 21.4301 23.1864C20.3026 23.1847 19.1752 23.1845 18.0477 23.1862C17.4724 23.1871 16.8971 23.1872 16.3218 23.1855C15.7951 23.184 15.2685 23.1844 14.7419 23.1864C14.4611 23.187 14.1802 23.1854 13.8994 23.1838C12.8382 23.1903 12.0921 23.2143 11.3525 24.0513ZM34.6462 28.6583C34.6441 29.1979 34.642 29.7374 34.6399 30.2934C34.6327 32.0797 34.6232 33.8661 34.6126 35.6524C34.6062 36.735 34.6006 37.8177 34.5968 38.9003C34.5935 39.8447 34.5887 40.789 34.5822 41.7333C34.5788 42.2326 34.5761 42.732 34.5752 43.2314C34.5742 43.7907 34.5699 44.35 34.5653 44.9093C34.5655 45.0725 34.5657 45.2356 34.5659 45.4037C34.5399 47.6518 33.8234 49.8362 32.2485 51.4847C31.5556 52.0885 30.7582 52.488 29.9411 52.8966C29.9411 53.5083 29.9411 54.1199 29.9411 54.7501C34.2698 54.7501 38.5985 54.7501 43.0583 54.7501C43.2687 53.041 43.2687 53.041 42.7241 52.5374C42.5756 52.4765 42.4271 52.4157 42.2741 52.353C40.6208 51.5565 39.7026 50.2833 39.0249 48.5869C38.5767 47.2873 38.4734 46.1148 38.4665 44.7474C38.4651 44.5735 38.4637 44.3995 38.4623 44.2203C38.4585 43.7452 38.4554 43.2701 38.4526 42.795C38.4494 42.2978 38.4455 41.8006 38.4417 41.3033C38.4346 40.3626 38.4282 39.4219 38.422 38.4812C38.415 37.4099 38.4072 36.3386 38.3993 35.2673C38.3831 33.0643 38.3679 30.8613 38.3532 28.6583C37.1299 28.6583 35.9066 28.6583 34.6462 28.6583Z" fill="#FF8303"/>
<path d="M1.14382 16.3164C1.42508 16.396 1.42508 16.396 1.6479 16.711C1.85513 17.1134 1.93318 17.4061 1.99085 17.8522C2.01064 17.9989 2.03042 18.1456 2.0508 18.2968C2.08049 18.5359 2.08049 18.5359 2.11078 18.7798C2.1331 18.9489 2.15541 19.118 2.1784 19.2922C2.23907 19.7545 2.29829 20.217 2.35683 20.6796C2.41848 21.164 2.48195 21.6482 2.54521 22.1324C2.65113 22.9451 2.75586 23.758 2.85974 24.571C3.00626 25.7177 3.15498 26.8641 3.30413 28.0105C3.41988 28.9009 3.53502 29.7913 3.65008 30.6817C3.66242 30.7772 3.67477 30.8727 3.6875 30.9711C3.76927 31.6038 3.85049 32.2366 3.93144 32.8695C3.9521 33.0295 3.97276 33.1894 3.99404 33.3543C4.01262 33.5002 4.0312 33.6461 4.05033 33.7965C4.0666 33.9234 4.08287 34.0504 4.09963 34.1812C4.13406 34.5035 4.13406 34.5035 4.13406 34.9312C4.28808 34.9306 4.44211 34.9299 4.6008 34.9293C6.0565 34.9235 7.5122 34.9192 8.96792 34.9164C9.71621 34.9149 10.4645 34.9129 11.2128 34.9097C11.9357 34.9066 12.6586 34.9049 13.3816 34.9042C13.6566 34.9036 13.9316 34.9026 14.2066 34.9011C18.0205 34.8805 18.0205 34.8805 19.3899 36.0718C19.9608 36.6965 20.5004 37.3925 20.5498 38.266C20.5438 38.3867 20.5378 38.5074 20.5316 38.6317C20.4595 41.9504 21.3582 45.0147 22.2031 48.1975C22.5172 49.3839 22.8245 50.5721 23.131 51.7605C23.2378 52.1714 23.3467 52.5816 23.4561 52.9918C23.522 53.244 23.5879 53.4961 23.6537 53.7483C23.6841 53.8601 23.7145 53.9718 23.7459 54.087C23.9308 54.8052 24.0991 55.5791 23.9524 56.3179C23.4227 56.671 23.1527 56.6813 22.5266 56.6031C22.0716 56.0268 21.9327 55.3634 21.7624 54.6643C21.7318 54.5425 21.7011 54.4207 21.6695 54.2952C21.5689 53.8941 21.4699 53.4925 21.371 53.091C21.3014 52.8117 21.2316 52.5324 21.1618 52.2532C21.016 51.6687 20.8709 51.0841 20.7265 50.4993C20.5411 49.749 20.3543 48.9991 20.167 48.2492C20.0231 47.673 19.8797 47.0966 19.7366 46.5202C19.6678 46.2436 19.599 45.967 19.53 45.6904C19.4339 45.3045 19.3385 44.9184 19.2433 44.5323C19.2147 44.4177 19.186 44.303 19.1565 44.1849C19.0502 43.7514 18.9622 43.3637 18.9622 42.9156C14.3042 42.9156 9.64613 42.9156 4.84695 42.9156C4.77638 43.4802 4.77638 43.4802 4.70437 44.0562C4.6676 44.253 4.62767 44.4493 4.58185 44.6442C4.54649 44.7965 4.54649 44.7965 4.51042 44.9518C4.48494 45.0588 4.45946 45.1658 4.43321 45.2761C4.40606 45.3921 4.37892 45.5082 4.35095 45.6278C4.26185 46.0078 4.17184 46.3876 4.08171 46.7674C4.01899 47.0329 3.95629 47.2985 3.8936 47.564C3.76244 48.1187 3.63077 48.6733 3.4988 49.2279C3.3298 49.9384 3.16265 50.6493 2.99595 51.3604C2.86723 51.9081 2.73727 52.4555 2.60696 53.0028C2.54477 53.2649 2.48304 53.527 2.42178 53.7893C2.33611 54.1554 2.24871 54.5211 2.16087 54.8867C2.13597 54.9949 2.11107 55.103 2.08541 55.2144C1.95192 55.7616 1.82345 56.1945 1.42508 56.6031C1.02077 56.6976 0.706143 56.6432 0.284453 56.6031C-0.000703722 56.3179 -0.00070373 56.3179 -0.0382138 56.0543C-0.031857 55.2539 0.0782346 54.5322 0.274149 53.7576C0.317954 53.5769 0.317954 53.5769 0.362645 53.3925C0.425714 53.133 0.489452 52.8738 0.553799 52.6146C0.655812 52.2037 0.75596 51.7923 0.855653 51.3807C1.10352 50.3591 1.35455 49.3383 1.60547 48.3174C1.81776 47.4532 2.02885 46.5886 2.23837 45.7237C2.3367 45.3199 2.43678 44.9166 2.53693 44.5133C2.59757 44.2639 2.65812 44.0144 2.71858 43.7649C2.74658 43.6542 2.77458 43.5435 2.80342 43.4295C3.16042 41.9348 2.9245 40.5104 2.71858 39.0074C2.68901 38.7868 2.65951 38.5663 2.63009 38.3458C2.56684 37.8729 2.50308 37.4 2.43893 36.9272C2.33733 36.1781 2.2371 35.4288 2.13708 34.6795C1.88844 32.8182 1.63822 30.9571 1.38727 29.0961C1.1922 27.6495 0.997665 26.2028 0.804819 24.7559C0.70569 24.0126 0.605449 23.2694 0.504343 22.5264C0.441414 22.062 0.379511 21.5975 0.317877 21.133C0.289336 20.9194 0.260385 20.7059 0.230969 20.4925C-0.128187 17.8825 -0.128187 17.8825 -0.00070373 16.6812C0.365253 16.3152 0.643501 16.3454 1.14382 16.3164ZM4.41922 36.7847C4.44137 37.0796 4.46368 37.3744 4.48605 37.6693C4.49846 37.8335 4.51086 37.9977 4.52365 38.1669C4.57019 38.7419 4.63171 39.3135 4.70437 39.8858C4.71614 39.985 4.7279 40.0843 4.74002 40.1865C4.76502 40.6657 4.76502 40.6657 4.98953 41.0621C5.41484 41.0757 5.83684 41.08 6.26219 41.0783C6.39571 41.0783 6.52923 41.0783 6.6668 41.0783C7.1104 41.0782 7.554 41.0771 7.99759 41.076C8.30427 41.0757 8.61094 41.0755 8.91761 41.0754C9.72652 41.0748 10.5354 41.0734 11.3443 41.0719C12.1691 41.0704 12.9938 41.0697 13.8185 41.069C15.438 41.0675 17.0575 41.0651 18.677 41.0621C18.6925 40.6283 18.7038 40.195 18.7127 39.761C18.7175 39.639 18.7222 39.517 18.7272 39.3912C18.7395 38.5888 18.6502 38.13 18.1067 37.4976C17.2283 36.8205 16.5721 36.7636 15.4906 36.7685C15.3709 36.7685 15.2512 36.7685 15.1279 36.7685C14.733 36.7686 14.338 36.7697 13.943 36.7708C13.6689 36.7711 13.3948 36.7713 13.1207 36.7714C12.3997 36.772 11.6787 36.7734 10.9577 36.7749C10.2218 36.7764 9.48592 36.777 8.75003 36.7778C7.30642 36.7793 5.86282 36.7817 4.41922 36.7847Z" fill="#215CFF"/>
<path d="M71.8574 16.3164C72.6851 16.3644 72.6851 16.3644 73.002 16.6812C73.1408 17.9297 72.935 19.1742 72.717 20.4013C72.6425 20.8213 72.5718 21.2419 72.5007 21.6626C72.4624 21.8895 72.4238 22.1164 72.3851 22.3433C69.4912 38.2172 69.4912 38.2172 72.5567 53.8148C72.8821 54.6404 73.1175 55.2869 73.002 56.1753C72.8505 56.4605 72.8505 56.4605 72.5742 56.6031C72.0752 56.6655 72.0752 56.6655 71.5762 56.6031C71.0726 56.1248 70.976 55.4778 70.825 54.8253C70.7958 54.7038 70.7665 54.5822 70.7363 54.457C70.6401 54.0558 70.5459 53.6542 70.4517 53.2525C70.3853 52.9733 70.3188 52.6942 70.2521 52.4151C70.1129 51.8304 69.9746 51.2455 69.8369 50.6605C69.6604 49.9103 69.4822 49.1605 69.3033 48.4109C69.1659 47.8347 69.0292 47.2583 68.8927 46.6819C68.8272 46.4054 68.7615 46.1289 68.6957 45.8524C68.604 45.4662 68.513 45.0798 68.4224 44.6934C68.395 44.579 68.3677 44.4646 68.3396 44.3468C68.2244 43.8522 68.1543 43.4264 68.1543 42.9156C63.4963 42.9156 58.8382 42.9156 54.0391 42.9156C53.8509 43.7625 53.6627 44.6094 53.4688 45.482C53.1384 46.8725 53.1384 46.8725 53.0238 47.3414C52.9982 47.4462 52.9726 47.5511 52.9462 47.6591C52.92 47.7664 52.8937 47.8738 52.8667 47.9843C52.8394 48.0959 52.8122 48.2075 52.7841 48.3225C52.6406 48.9095 52.4968 49.4964 52.3527 50.0833C52.2047 50.6864 52.0581 51.2899 51.9118 51.8934C51.798 52.3617 51.6831 52.8298 51.5679 53.2977C51.5133 53.5203 51.4592 53.7429 51.4054 53.9657C51.3305 54.2756 51.2542 54.5851 51.1774 54.8945C51.1345 55.0701 51.0916 55.2457 51.0474 55.4266C50.9066 55.8767 50.748 56.22 50.4746 56.6031C50.0851 56.7295 49.7315 56.6899 49.334 56.6031C49.0399 56.3892 49.0399 56.3892 48.9062 56.0328C48.9758 55.2066 49.1483 54.4338 49.3638 53.635C49.4296 53.3857 49.4955 53.1364 49.5613 52.8871C49.6136 52.6909 49.6136 52.6909 49.6669 52.4907C49.8539 51.7861 50.0366 51.0803 50.2201 50.3748C50.4525 49.4824 50.6861 48.5903 50.9241 47.6994C52.1117 43.4783 52.1117 43.4783 52.441 39.1307C52.4043 37.966 52.6614 37.0663 53.4657 36.1934C54.6676 35.0588 55.9879 34.9078 57.5854 34.915C57.7079 34.915 57.8304 34.915 57.9567 34.915C58.3586 34.9151 58.7605 34.9162 59.1624 34.9173C59.4423 34.9175 59.7222 34.9178 60.002 34.9179C60.7364 34.9184 61.4707 34.9198 62.2051 34.9214C62.9554 34.9229 63.7056 34.9235 64.4559 34.9242C65.9263 34.9258 67.3968 34.9282 68.8672 34.9312C68.8721 34.8397 68.8769 34.7483 68.882 34.654C68.9955 32.9029 69.2459 31.1673 69.4765 29.4286C69.4994 29.255 69.5223 29.0814 69.546 28.9026C69.667 27.9864 69.7886 27.0704 69.9108 26.1544C70.0242 25.3031 70.1361 24.4516 70.2473 23.6C70.3548 22.777 70.4641 21.9542 70.5741 21.1314C70.6204 20.7827 70.6662 20.4339 70.7115 20.085C70.7747 19.5986 70.84 19.1124 70.9058 18.6263C70.9332 18.4106 70.9332 18.4106 70.9611 18.1904C71.1947 16.5041 71.1947 16.5041 71.8574 16.3164ZM54.7609 37.6491C54.4063 38.1541 54.3063 38.3709 54.3103 38.9735C54.3108 39.0948 54.3112 39.2161 54.3117 39.3411C54.3129 39.4679 54.3141 39.5947 54.3153 39.7254C54.316 39.8533 54.3166 39.9812 54.3173 40.113C54.3189 40.4294 54.3213 40.7457 54.3242 41.0621C56.1064 41.0654 57.8885 41.0679 59.6707 41.0695C60.4982 41.0702 61.3256 41.0712 62.153 41.0728C62.9508 41.0744 63.7486 41.0752 64.5464 41.0756C64.8516 41.0759 65.1567 41.0764 65.4618 41.0771C65.8875 41.0782 66.3133 41.0783 66.7391 41.0783C66.9303 41.079 66.9303 41.079 67.1254 41.0798C67.6846 41.1348 67.6846 41.1348 68.1543 40.9195C68.1968 40.6748 68.2311 40.4286 68.2618 40.1821C68.29 39.956 68.29 39.956 68.3189 39.7254C68.3477 39.4872 68.3477 39.4872 68.3771 39.2442C68.3968 39.0876 68.4166 38.931 68.4369 38.7697C68.5191 38.1024 68.5867 37.4574 68.582 36.7847C67.003 36.7748 65.424 36.7672 63.8449 36.7626C63.1117 36.7603 62.3784 36.7573 61.6451 36.7525C60.937 36.7478 60.2289 36.7452 59.5207 36.7441C59.2511 36.7434 58.9814 36.7418 58.7117 36.7395C58.3329 36.7364 57.9542 36.736 57.5754 36.7362C57.4648 36.7346 57.3543 36.7331 57.2404 36.7315C56.2982 36.7368 55.4001 36.898 54.7609 37.6491Z" fill="#215CFF"/>
</g>
<defs>
<clipPath id="clip0_2121_835">
<rect width="73" height="73" fill="white"/>
</clipPath>
</defs>
</svg>
