<svg width="70" height="70" viewBox="0 0 70 70" fill="none" xmlns="http://www.w3.org/2000/svg">
<path d="M14 23.333V55.9997C14 56.9279 14.3687 57.8182 15.0251 58.4746C15.6815 59.1309 16.5717 59.4997 17.5 59.4997H52.5C53.4283 59.4997 54.3185 59.1309 54.9749 58.4746C55.6313 57.8182 56 56.9279 56 55.9997V23.333C56 22.4048 55.6313 21.5145 54.9749 20.8581C54.3185 20.2018 53.4283 19.833 52.5 19.833H17.5C16.5717 19.833 15.6815 20.2018 15.0251 20.8581C14.3687 21.5145 14 22.4048 14 23.333ZM53.6667 23.333V55.9997C53.6667 56.3091 53.5438 56.6059 53.325 56.8246C53.1062 57.0434 52.8094 57.1664 52.5 57.1664H17.5C17.1906 57.1664 16.8938 57.0434 16.675 56.8246C16.4562 56.6059 16.3333 56.3091 16.3333 55.9997V23.333C16.3333 23.0236 16.4562 22.7268 16.675 22.508C16.8938 22.2893 17.1906 22.1663 17.5 22.1663H52.5C52.8094 22.1663 53.1062 22.2893 53.325 22.508C53.5438 22.7268 53.6667 23.0236 53.6667 23.333Z" fill="#215CFF"/>
<path d="M32.1076 28.9729C31.8958 29.1314 31.8089 29.4022 31.8905 29.6503C31.972 29.8985 32.2051 30.0694 32.4721 30.0797C35.0327 30.1723 36.6197 30.5533 37.322 31.2431C38.2607 32.1645 38.23 33.086 37.2278 34.0599L33.9012 37.2927L31.6521 35.107C32.3439 33.0993 31.8195 30.8868 30.259 29.3713C28.7461 27.9011 26.5352 27.3668 24.4884 27.9773C24.2754 28.0411 24.1123 28.2079 24.0583 28.419C24.0042 28.63 24.0678 28.8514 24.2257 29.0048L27.5946 32.2788L27.1306 34.2525L25.0997 34.7034L21.7308 31.4294C21.5729 31.276 21.3441 31.2142 21.128 31.2667C20.9118 31.3192 20.7391 31.4778 20.6735 31.6847C20.0452 33.6738 20.5951 35.8225 22.1079 37.2927C23.6684 38.8093 25.944 39.3189 28.0099 38.6466L29.3362 39.9356C29.2176 40.0036 29.1053 40.0859 29.0036 40.1848L21.6693 47.3114C21.3515 47.6202 21.1767 48.0321 21.1767 48.4707C21.1767 48.9093 21.3515 49.3211 21.6693 49.63L24.1028 51.9948C24.4322 52.315 24.8634 52.4746 25.2957 52.4746C25.7279 52.4746 26.1601 52.315 26.4885 51.9948L33.8228 44.8672C33.9245 44.7684 34.0082 44.6592 34.0792 44.5439L35.6747 46.0944C34.9829 48.1021 35.5073 50.3146 37.0678 51.8301C38.1675 52.8988 39.6347 53.4723 41.1401 53.4723C41.7069 53.4723 42.279 53.3909 42.8384 53.2241C43.0513 53.1603 43.2145 52.9935 43.2685 52.7825C43.3225 52.5714 43.259 52.35 43.1011 52.1966L39.7322 48.9226L40.1962 46.949L42.2271 46.498L45.596 49.772C45.7539 49.9254 45.9827 49.9872 46.1988 49.9347C46.4149 49.8822 46.5876 49.7236 46.6533 49.5167C47.2815 47.5276 46.7317 45.3789 45.2189 43.9087C43.6584 42.3921 41.3828 41.8825 39.3169 42.5548L36.7998 40.1086L40.4907 36.5216C40.603 36.4125 40.7524 36.3528 40.9134 36.3528C41.0745 36.3528 41.2238 36.4125 41.3361 36.5216C41.5618 36.7409 41.5681 37.1043 41.3489 37.3308C40.8997 37.7952 40.9103 38.5128 41.3743 38.9627L43.0534 40.5966C43.2812 40.818 43.5842 40.9394 43.9063 40.9394C44.2283 40.9394 44.5313 40.818 44.7591 40.5966L49.2319 36.2498C49.4597 36.0284 49.5847 35.734 49.5847 35.421C49.5847 35.108 49.4597 34.8125 49.2319 34.5922L47.5527 32.9604C47.0887 32.5094 46.3514 32.4981 45.8736 32.9357C45.6405 33.1488 45.2676 33.1426 45.0419 32.9233C44.8163 32.704 44.8099 32.3406 45.0292 32.1141C45.4784 31.6497 45.4668 30.9332 45.0038 30.4822L42.7473 28.2893C40.0193 25.6381 36.6589 25.5702 33.2836 28.0957L32.1076 28.9729ZM27.923 37.3597C26.2322 38.0484 24.3019 37.6799 23.0052 36.4207C22.1005 35.5415 21.6375 34.3503 21.6926 33.1426L24.4481 35.8205C24.6028 35.9708 24.8263 36.0336 25.0393 35.9862L27.8022 35.3726C28.0406 35.3201 28.226 35.1389 28.28 34.9083L28.9114 32.2232C28.9601 32.0163 28.8955 31.799 28.7408 31.6487L25.9853 28.9708C27.227 28.9163 28.4537 29.3672 29.3585 30.2464C30.6552 31.5066 31.0345 33.3825 30.3247 35.0257C30.2251 35.2573 30.2791 35.524 30.4613 35.701L32.9997 38.1679L31.1552 39.9603L28.6169 37.4935C28.4357 37.3154 28.1614 37.2619 27.923 37.3597ZM32.9244 43.9962L25.5912 51.1228C25.4323 51.2783 25.1622 51.2783 25.0033 51.1228L22.5698 48.7579C22.4925 48.6828 22.449 48.5808 22.449 48.4717C22.449 48.3626 22.4914 48.2617 22.5698 48.1855L29.9041 41.0589C29.9835 40.9817 30.0916 40.9425 30.1986 40.9425C30.3056 40.9425 30.4126 40.9817 30.492 41.0589L32.9255 43.4238C33.0834 43.5792 33.0834 43.8407 32.9244 43.9962ZM38.7078 43.712C38.89 43.8891 39.1654 43.9416 39.4027 43.8449C41.0935 43.1561 43.0238 43.5247 44.3205 44.7838C45.2252 45.6631 45.6882 46.8543 45.6331 48.0619L42.8776 45.384C42.7229 45.2337 42.4994 45.1709 42.2864 45.2183L39.5235 45.8319C39.2851 45.8844 39.0997 46.0656 39.0457 46.2962L38.4143 48.9813C38.3656 49.1883 38.4302 49.4055 38.5849 49.5558L41.3404 52.2337C40.0977 52.2883 38.872 51.8373 37.9672 50.9581C36.6705 49.6979 36.2912 47.822 37.001 46.1789C37.1006 45.9472 37.0466 45.6806 36.8644 45.5035L34.057 42.7751L35.9014 40.9827L38.7078 43.712ZM41.8468 29.1613L44.0599 31.312C43.4189 32.0214 43.4507 33.123 44.1425 33.7953C44.8343 34.4676 45.9679 34.4985 46.6978 33.8756L48.2869 35.42L43.9063 39.6772L42.3171 38.1329C42.9581 37.4235 42.9263 36.3219 42.2345 35.6496C41.8828 35.3078 41.4135 35.1193 40.9124 35.1193C40.4113 35.1193 39.943 35.3078 39.5902 35.6496L33.1565 41.9021L32.0557 40.8324L38.1261 34.933C39.6188 33.4823 39.6559 31.7784 38.2257 30.3731C37.4587 29.6194 36.1917 29.1675 34.2127 28.9585C36.1938 27.5294 39.0764 26.469 41.8468 29.1613Z" fill="#FF8303"/>
<path d="M69.2417 12.9033L60.6667 9.66V1.16667C60.6667 0.857248 60.5438 0.560501 60.325 0.341709C60.1062 0.122916 59.8095 0 59.5 0H51.3334C51.024 0 50.7272 0.122916 50.5084 0.341709C50.2896 0.560501 50.1667 0.857248 50.1667 1.16667V5.67L35.4084 0.07C35.1441 -0.0233177 34.8559 -0.0233177 34.5917 0.07L0.758365 12.9033C0.53572 12.9878 0.343981 13.1378 0.208555 13.3337C0.0731284 13.5295 0.000408594 13.7619 3.14784e-05 14V21C-0.0013643 21.1884 0.0436773 21.3743 0.131175 21.5411C0.218672 21.708 0.34593 21.8507 0.501698 21.9567C0.656356 22.0642 0.834552 22.133 1.02132 22.1574C1.20809 22.1817 1.39797 22.1609 1.57503 22.0967L4.6667 20.9183V63H2.33337C2.02395 63 1.7272 63.1229 1.50841 63.3417C1.28961 63.5605 1.1667 63.8573 1.1667 64.1667V68.8334C1.1667 69.1428 1.28961 69.4395 1.50841 69.6583C1.7272 69.8771 2.02395 70 2.33337 70H67.6667C67.9761 70 68.2729 69.8771 68.4917 69.6583C68.7105 69.4395 68.8334 69.1428 68.8334 68.8334V64.1667C68.8334 63.8573 68.7105 63.5605 68.4917 63.3417C68.2729 63.1229 67.9761 63 67.6667 63H65.3334V20.9183L68.425 22.0967C68.5561 22.1435 68.6942 22.1672 68.8334 22.1667C69.1428 22.1667 69.4396 22.0438 69.6583 21.825C69.8771 21.6062 70.0001 21.3094 70.0001 21V14C69.9997 13.7619 69.927 13.5295 69.7915 13.3337C69.6561 13.1378 69.4644 12.9878 69.2417 12.9033ZM52.5 2.33333H58.3334V8.77334L52.5 6.55667V2.33333ZM66.5 65.3334V67.6667H3.50003V65.3334H66.5ZM7.00003 63V20.0317L35 9.415L63 20.0317V63H7.00003ZM67.6667 19.3083L35.4084 7.07C35.1441 6.97669 34.8559 6.97669 34.5917 7.07L2.33337 19.3083V14.805L35 2.415L67.6667 14.805V19.3083Z" fill="#215CFF"/>
</svg>
