<svg width="40" height="40" viewBox="0 0 40 40" fill="none" xmlns="http://www.w3.org/2000/svg">
<path d="M31.3528 38H28.83C28.5399 38 28.2876 37.8045 28.2182 37.5207L27.7704 35.7358C27.3794 35.6097 27.0009 35.452 26.6414 35.2691L25.0647 36.2151C24.8187 36.3665 24.4971 36.3224 24.2952 36.1205L22.5103 34.3356C22.3085 34.1338 22.2644 33.8122 22.4157 33.5662L23.3618 31.9894C23.1789 31.6299 23.0212 31.2515 22.8951 30.8605L21.1102 30.4127C20.8264 30.3433 20.6309 30.091 20.6309 29.8009V27.2781C20.6309 26.988 20.8264 26.7357 21.1102 26.6663L22.8951 26.2185C23.0212 25.8275 23.1789 25.4491 23.3618 25.0896L22.4157 23.5128C22.2644 23.2668 22.3085 22.9452 22.5103 22.7434L24.2952 20.9585C24.4971 20.7566 24.8187 20.7125 25.0647 20.8639L26.6414 21.8099C27.0009 21.627 27.3794 21.4693 27.7704 21.3432L28.2182 19.5583C28.2876 19.2745 28.5399 19.079 28.83 19.079H31.3528C31.6429 19.079 31.8952 19.2745 31.9646 19.5583L32.4124 21.3432C32.8034 21.4693 33.1818 21.627 33.5413 21.8099L35.1181 20.8639C35.3703 20.7125 35.6857 20.7566 35.8875 20.9585L37.6724 22.7434C37.8742 22.9452 37.9184 23.2668 37.767 23.5128L36.821 25.0896C37.0039 25.4491 37.1615 25.8275 37.2877 26.2185L39.0726 26.6663C39.3564 26.7357 39.5519 26.988 39.5519 27.2781V29.8009C39.5519 30.091 39.3564 30.3433 39.0726 30.4127L37.2877 30.8605C37.1615 31.2515 37.0039 31.6299 36.821 31.9894L37.767 33.5662C37.9184 33.8122 37.8742 34.1338 37.6724 34.3356L35.8875 36.1205C35.6857 36.3224 35.364 36.3665 35.1181 36.2151L33.5413 35.2691C33.1818 35.452 32.8034 35.6097 32.4124 35.7358L31.9646 37.5207C31.8952 37.8045 31.6429 38 31.3528 38ZM29.3219 36.7386H30.8608L31.2771 35.0799C31.3339 34.8591 31.5041 34.6825 31.7249 34.6258C32.261 34.4807 32.7719 34.2726 33.2449 34.0014C33.4467 33.8878 33.6864 33.8878 33.8882 34.0014L35.3514 34.878L36.4362 33.7932L35.5596 32.33C35.4397 32.1345 35.4397 31.8885 35.5596 31.6867C35.8308 31.2137 36.0452 30.7028 36.1903 30.1667C36.247 29.946 36.4236 29.7757 36.6444 29.7189L38.3031 29.3026V27.7637L36.6444 27.3475C36.4236 27.2907 36.247 27.1204 36.1903 26.8997C36.0452 26.3636 35.8371 25.8527 35.5596 25.3797C35.446 25.1779 35.446 24.9382 35.5596 24.7364L36.4362 23.2731L35.3514 22.1883L33.8882 23.065C33.6927 23.1848 33.4467 23.1848 33.2449 23.065C32.7719 22.7938 32.261 22.5794 31.7249 22.4406C31.5041 22.3839 31.3339 22.2073 31.2771 21.9865L30.8608 20.3278H29.3219L28.9057 21.9865C28.8489 22.2073 28.6786 22.3839 28.4579 22.4406C27.9218 22.5857 27.4109 22.7938 26.9379 23.065C26.7424 23.1785 26.4964 23.1785 26.2946 23.065L24.8313 22.1883L23.7465 23.2731L24.6232 24.7364C24.743 24.9319 24.743 25.1779 24.6232 25.3797C24.352 25.8527 24.1376 26.3636 23.9988 26.8997C23.942 27.1204 23.7654 27.2907 23.5447 27.3475L21.886 27.7637V29.3026L23.5447 29.7189C23.7654 29.7757 23.942 29.946 23.9988 30.1667C24.1439 30.7028 24.352 31.2137 24.6232 31.6867C24.7367 31.8885 24.7367 32.1282 24.6232 32.33L23.7465 33.7932L24.8313 34.878L26.2946 34.0014C26.4901 33.8815 26.736 33.8815 26.9379 34.0014C27.4109 34.2726 27.9218 34.487 28.4579 34.6258C28.6786 34.6825 28.8489 34.8591 28.9057 35.0799L29.3219 36.7386Z" fill="#FF8303"/>
<path d="M30.0908 32.3237C28.0032 32.3237 26.3066 30.6271 26.3066 28.5395C26.3066 26.4518 28.0032 24.7552 30.0908 24.7552C32.1785 24.7552 33.8751 26.4518 33.8751 28.5395C33.8751 30.6271 32.1785 32.3237 30.0908 32.3237ZM30.0908 26.0167C28.697 26.0167 27.568 27.1456 27.568 28.5395C27.568 29.9333 28.697 31.0623 30.0908 31.0623C31.4847 31.0623 32.6137 29.9333 32.6137 28.5395C32.6137 27.1456 31.4847 26.0167 30.0908 26.0167Z" fill="#FF8303"/>
<path d="M20.6317 32.9544H3.60272C1.86199 32.9544 0.449219 31.5417 0.449219 29.8009V4.57288C0.449219 2.83214 1.86199 1.41937 3.60272 1.41937H35.1378C36.8785 1.41937 38.2913 2.83214 38.2913 4.57288V19.7097H37.0299V4.57288C37.0299 3.53222 36.1784 2.68078 35.1378 2.68078H3.60272C2.56207 2.68078 1.71062 3.53222 1.71062 4.57288V29.8009C1.71062 30.8416 2.56207 31.693 3.60272 31.693H20.6317V32.9544Z" fill="url(#paint0_linear_370_826)"/>
<path d="M1.07812 6.4649H37.6588V7.72631H1.07812V6.4649Z" fill="url(#paint1_linear_370_826)"/>
<path d="M4.23242 3.94214H24.4149V5.20354H4.23242V3.94214Z" fill="url(#paint2_linear_370_826)"/>
<path d="M26.9375 3.94214H29.4603V5.20354H26.9375V3.94214Z" fill="url(#paint3_linear_370_826)"/>
<path d="M31.9824 3.94214H34.5052V5.20354H31.9824V3.94214Z" fill="url(#paint4_linear_370_826)"/>
<path d="M13.6929 19.7097H4.86312C4.51624 19.7097 4.23242 19.4259 4.23242 19.079V10.2492C4.23242 9.90228 4.51624 9.61847 4.86312 9.61847H13.6929C14.0398 9.61847 14.3236 9.90228 14.3236 10.2492V19.079C14.3236 19.4259 14.0398 19.7097 13.6929 19.7097ZM5.49382 18.4483H13.0622V10.8799H5.49382V18.4483Z" fill="url(#paint5_linear_370_826)"/>
<path d="M18.7383 9.61847H33.8751V10.8799H18.7383V9.61847Z" fill="url(#paint6_linear_370_826)"/>
<path d="M18.7383 12.7719H33.8751V14.0333H18.7383V12.7719Z" fill="url(#paint7_linear_370_826)"/>
<path d="M18.7383 15.9254H33.8751V17.1868H18.7383V15.9254Z" fill="url(#paint8_linear_370_826)"/>
<path d="M4.23242 21.6017H19.3693V22.8631H4.23242V21.6017Z" fill="url(#paint9_linear_370_826)"/>
<path d="M4.23242 24.7552H19.3693V26.0167H4.23242V24.7552Z" fill="url(#paint10_linear_370_826)"/>
<path d="M4.23242 27.9088H11.1701V29.1702H4.23242V27.9088Z" fill="url(#paint11_linear_370_826)"/>
<defs>
<linearGradient id="paint0_linear_370_826" x1="24.8176" y1="32.9544" x2="27.2992" y2="-2.42224" gradientUnits="userSpaceOnUse">
<stop stop-color="#1D3FF0"/>
<stop offset="1" stop-color="#215CFF"/>
</linearGradient>
<linearGradient id="paint1_linear_370_826" x1="24.6342" y1="7.72631" x2="24.6383" y2="6.30429" gradientUnits="userSpaceOnUse">
<stop stop-color="#1D3FF0"/>
<stop offset="1" stop-color="#215CFF"/>
</linearGradient>
<linearGradient id="paint2_linear_370_826" x1="17.2289" y1="5.20354" x2="17.2363" y2="3.78155" gradientUnits="userSpaceOnUse">
<stop stop-color="#1D3FF0"/>
<stop offset="1" stop-color="#215CFF"/>
</linearGradient>
<linearGradient id="paint3_linear_370_826" x1="28.5621" y1="5.20354" x2="28.6218" y2="3.78403" gradientUnits="userSpaceOnUse">
<stop stop-color="#1D3FF0"/>
<stop offset="1" stop-color="#215CFF"/>
</linearGradient>
<linearGradient id="paint4_linear_370_826" x1="33.607" y1="5.20354" x2="33.6667" y2="3.78403" gradientUnits="userSpaceOnUse">
<stop stop-color="#1D3FF0"/>
<stop offset="1" stop-color="#215CFF"/>
</linearGradient>
<linearGradient id="paint5_linear_370_826" x1="10.7306" y1="19.7097" x2="11.6816" y2="8.41349" gradientUnits="userSpaceOnUse">
<stop stop-color="#1D3FF0"/>
<stop offset="1" stop-color="#215CFF"/>
</linearGradient>
<linearGradient id="paint6_linear_370_826" x1="28.4856" y1="10.8799" x2="28.4956" y2="9.45791" gradientUnits="userSpaceOnUse">
<stop stop-color="#1D3FF0"/>
<stop offset="1" stop-color="#215CFF"/>
</linearGradient>
<linearGradient id="paint7_linear_370_826" x1="28.4856" y1="14.0333" x2="28.4956" y2="12.6114" gradientUnits="userSpaceOnUse">
<stop stop-color="#1D3FF0"/>
<stop offset="1" stop-color="#215CFF"/>
</linearGradient>
<linearGradient id="paint8_linear_370_826" x1="28.4856" y1="17.1868" x2="28.4956" y2="15.7649" gradientUnits="userSpaceOnUse">
<stop stop-color="#1D3FF0"/>
<stop offset="1" stop-color="#215CFF"/>
</linearGradient>
<linearGradient id="paint9_linear_370_826" x1="13.9798" y1="22.8631" x2="13.9897" y2="21.4412" gradientUnits="userSpaceOnUse">
<stop stop-color="#1D3FF0"/>
<stop offset="1" stop-color="#215CFF"/>
</linearGradient>
<linearGradient id="paint10_linear_370_826" x1="13.9798" y1="26.0167" x2="13.9897" y2="24.5947" gradientUnits="userSpaceOnUse">
<stop stop-color="#1D3FF0"/>
<stop offset="1" stop-color="#215CFF"/>
</linearGradient>
<linearGradient id="paint11_linear_370_826" x1="8.69995" y1="29.1702" x2="8.72171" y2="27.7485" gradientUnits="userSpaceOnUse">
<stop stop-color="#1D3FF0"/>
<stop offset="1" stop-color="#215CFF"/>
</linearGradient>
</defs>
</svg>
