<svg width="51" height="51" viewBox="0 0 51 51" fill="none" xmlns="http://www.w3.org/2000/svg">
<path d="M3.98438 42.1935V47.758C3.98438 47.9547 4.06254 48.1435 4.20168 48.2826C4.34082 48.4217 4.52954 48.4999 4.72631 48.4999H13.6295C13.8263 48.4999 14.015 48.4217 14.1542 48.2826C14.2933 48.1435 14.3715 47.9547 14.3715 47.758V42.1935C14.3696 41.3227 14.0276 40.4872 13.4184 39.865C12.8093 39.2428 11.9812 38.8832 11.1107 38.8629C11.5707 38.4681 11.8988 37.9419 12.0508 37.355C12.2029 36.7682 12.1715 36.1488 11.961 35.5803C11.7505 35.0118 11.3709 34.5214 10.8734 34.1751C10.3758 33.8287 9.78415 33.6431 9.17792 33.6431C8.57169 33.6431 7.98 33.8287 7.48245 34.1751C6.98489 34.5214 6.60533 35.0118 6.39483 35.5803C6.18433 36.1488 6.15298 36.7682 6.30501 37.355C6.45703 37.9419 6.78513 38.4681 7.24518 38.8629C6.37468 38.8832 5.54656 39.2428 4.93741 39.865C4.32825 40.4872 3.98627 41.3227 3.98438 42.1935ZM9.17792 35.1451C9.4714 35.1451 9.75829 35.2321 10.0023 35.3952C10.2463 35.5582 10.4365 35.79 10.5488 36.0611C10.6611 36.3322 10.6905 36.6306 10.6333 36.9184C10.576 37.2063 10.4347 37.4707 10.2272 37.6782C10.0196 37.8857 9.75525 38.0271 9.46741 38.0843C9.17956 38.1416 8.88121 38.1122 8.61007 37.9999C8.33892 37.8876 8.10718 37.6974 7.94413 37.4533C7.78108 37.2093 7.69405 36.9224 7.69405 36.6289C7.69405 36.2354 7.85039 35.858 8.12866 35.5797C8.40694 35.3014 8.78437 35.1451 9.17792 35.1451ZM5.46824 42.1935C5.46824 41.7015 5.66366 41.2297 6.01151 40.8819C6.35936 40.534 6.83115 40.3386 7.32308 40.3386H11.0328C11.5247 40.3386 11.9965 40.534 12.3443 40.8819C12.6922 41.2297 12.8876 41.7015 12.8876 42.1935V47.016H5.46824V42.1935Z" fill="#215CFF"/>
<path d="M3.24193 12.8871H8.43548V14.371H6.95161V15.8548H11.4032V14.371H9.91935V12.8871H15.1129C15.3097 12.8871 15.4984 12.8089 15.6375 12.6698C15.7767 12.5306 15.8548 12.3419 15.8548 12.1452V3.24193C15.8548 3.04516 15.7767 2.85645 15.6375 2.71731C15.4984 2.57817 15.3097 2.5 15.1129 2.5H3.24193C3.04516 2.5 2.85645 2.57817 2.71731 2.71731C2.57817 2.85645 2.5 3.04516 2.5 3.24193V12.1452C2.5 12.3419 2.57817 12.5306 2.71731 12.6698C2.85645 12.8089 3.04516 12.8871 3.24193 12.8871ZM3.98387 3.98387H14.371V11.4032H3.98387V3.98387Z" fill="#215CFF"/>
<path d="M47.7574 2.5H35.8865C35.6897 2.5 35.501 2.57817 35.3618 2.71731C35.2227 2.85645 35.1445 3.04516 35.1445 3.24193V15.1129C35.1445 15.3097 35.2227 15.4984 35.3618 15.6375C35.501 15.7767 35.6897 15.8548 35.8865 15.8548H47.7574C47.9542 15.8548 48.1429 15.7767 48.2821 15.6375C48.4212 15.4984 48.4994 15.3097 48.4994 15.1129V3.24193C48.4994 3.04516 48.4212 2.85645 48.2821 2.71731C48.1429 2.57817 47.9542 2.5 47.7574 2.5ZM40.709 3.98387H42.9348V6.95161H40.709V3.98387ZM47.0155 14.371H36.6284V3.98387H39.2252V7.69354C39.2252 7.89032 39.3033 8.07903 39.4425 8.21817C39.5816 8.35731 39.7703 8.43548 39.9671 8.43548H43.6768C43.8736 8.43548 44.0623 8.35731 44.2014 8.21817C44.3405 8.07903 44.4187 7.89032 44.4187 7.69354V3.98387H47.0155V14.371Z" fill="#215CFF"/>
<path d="M44.7915 37.3708C44.7915 36.9306 44.6609 36.5003 44.4163 36.1342C44.1718 35.7682 43.8241 35.4829 43.4174 35.3145C43.0107 35.146 42.5632 35.1019 42.1314 35.1878C41.6997 35.2737 41.3031 35.4857 40.9918 35.7969C40.6805 36.1082 40.4685 36.5048 40.3826 36.9366C40.2967 37.3684 40.3408 37.8159 40.5093 38.2226C40.6777 38.6293 40.963 38.9769 41.3291 39.2215C41.6951 39.4661 42.1254 39.5966 42.5656 39.5966C43.156 39.5966 43.7221 39.3621 44.1395 38.9447C44.5569 38.5273 44.7915 37.9611 44.7915 37.3708ZM41.8237 37.3708C41.8237 37.2241 41.8672 37.0806 41.9488 36.9586C42.0303 36.8366 42.1462 36.7415 42.2817 36.6854C42.4173 36.6292 42.5665 36.6145 42.7104 36.6431C42.8543 36.6718 42.9865 36.7424 43.0903 36.8462C43.194 36.95 43.2647 37.0822 43.2933 37.2261C43.322 37.37 43.3073 37.5192 43.2511 37.6548C43.195 37.7903 43.0999 37.9062 42.9778 37.9877C42.8558 38.0692 42.7124 38.1128 42.5656 38.1128C42.3689 38.1128 42.1802 38.0346 42.041 37.8955C41.9019 37.7563 41.8237 37.5676 41.8237 37.3708Z" fill="#215CFF"/>
<path d="M37.3711 45.532C37.3711 47.2236 39.6043 48.4998 42.5646 48.4998C45.525 48.4998 47.7582 47.2236 47.7582 45.532C47.7582 44.3516 46.6453 43.3544 44.9084 42.8781L46.6149 39.8443C47.0125 39.1373 47.2181 38.3384 47.2112 37.5272C47.2043 36.716 46.9852 35.9208 46.5756 35.2206C46.166 34.5203 45.5803 33.9395 44.8766 33.5359C44.1729 33.1323 43.3759 32.9199 42.5646 32.9199C41.7534 32.9199 40.9563 33.1323 40.2527 33.5359C39.549 33.9395 38.9632 34.5203 38.5537 35.2206C38.1441 35.9208 37.925 36.716 37.9181 37.5272C37.9112 38.3384 38.1168 39.1373 38.5144 39.8443L40.2209 42.8781C38.484 43.3544 37.3711 44.3516 37.3711 45.532ZM39.8069 39.1173C39.5363 38.6359 39.3964 38.092 39.4011 37.5398C39.4059 36.9875 39.5551 36.4462 39.834 35.9695C40.1129 35.4929 40.5117 35.0975 40.9907 34.8227C41.4698 34.548 42.0124 34.4034 42.5646 34.4034C43.1169 34.4034 43.6595 34.548 44.1386 34.8227C44.6176 35.0975 45.0164 35.4929 45.2953 35.9695C45.5741 36.4462 45.7234 36.9875 45.7281 37.5398C45.7329 38.092 45.593 38.6359 45.3224 39.1173L42.5646 44.0185L39.8069 39.1173ZM40.9739 44.2173L41.9184 45.8956C41.983 46.0101 42.0769 46.1054 42.1904 46.1717C42.304 46.2381 42.4331 46.273 42.5646 46.273C42.6961 46.273 42.8253 46.2381 42.9388 46.1717C43.0524 46.1054 43.1463 46.0101 43.2109 45.8956L44.1553 44.2173C45.4738 44.4933 46.2743 45.0809 46.2743 45.532C46.2743 46.1367 44.829 47.0159 42.5646 47.0159C40.3003 47.0159 38.855 46.1367 38.855 45.532C38.855 45.0809 39.6555 44.4933 40.9739 44.2173Z" fill="#215CFF"/>
<path d="M9.91901 30.6936V21.918L11.1662 23.6987L12.3815 22.8484L9.78472 19.1387C9.71288 19.046 9.62077 18.9709 9.51545 18.9193C9.41012 18.8677 9.29438 18.8408 9.17707 18.8408C9.05977 18.8408 8.94402 18.8677 8.8387 18.9193C8.73337 18.9709 8.64127 19.046 8.56943 19.1387L5.97266 22.8484L7.18795 23.6987L8.43514 21.918V30.6936H9.91901Z" fill="#215CFF"/>
<path d="M41.8219 18.8228V26.8564L40.5747 25.0758L39.3594 25.926L41.9561 29.6357C42.0246 29.7334 42.1155 29.8131 42.2213 29.8681C42.3271 29.9232 42.4446 29.9519 42.5638 29.9519C42.683 29.9519 42.8005 29.9232 42.9063 29.8681C43.0121 29.8131 43.103 29.7334 43.1714 29.6357L45.7682 25.926L44.5529 25.0758L43.3057 26.8564V18.8228H41.8219Z" fill="#215CFF"/>
<path d="M18.4531 9.9195H29.4538L27.6731 11.1667L28.5234 12.382L32.2331 9.78521C32.3307 9.71679 32.4105 9.62584 32.4655 9.52006C32.5206 9.41429 32.5493 9.2968 32.5493 9.17756C32.5493 9.05832 32.5206 8.94084 32.4655 8.83506C32.4105 8.72929 32.3307 8.63834 32.2331 8.56992L28.5234 5.97314L27.6731 7.18843L29.4538 8.43563H18.4531V9.9195Z" fill="#215CFF"/>
<path d="M32.5493 40.3385H21.5486L23.3293 39.0913L22.479 37.876L18.7693 40.4727C18.6717 40.5412 18.592 40.6321 18.5369 40.7379C18.4819 40.8437 18.4531 40.9612 18.4531 41.0804C18.4531 41.1996 18.4819 41.3171 18.5369 41.4229C18.592 41.5287 18.6717 41.6196 18.7693 41.688L22.479 44.2848L23.3293 43.0695L21.5486 41.8223H32.5493V40.3385Z" fill="#215CFF"/>
<path d="M19.6044 26.8399C19.5616 26.9987 19.5514 27.1646 19.5746 27.3275C19.5979 27.4904 19.6539 27.6468 19.7395 27.7873L20.5764 29.1733C20.7477 29.4541 21.0214 29.6575 21.3397 29.7406C21.658 29.8236 21.9961 29.7798 22.2828 29.6184L22.4757 29.5123C22.7649 29.7146 23.0739 29.8869 23.398 30.0265V30.192C23.4007 30.5244 23.5353 30.8421 23.7723 31.0753C24.0092 31.3085 24.3291 31.438 24.6615 31.4354H26.3353C26.6668 31.4374 26.9856 31.308 27.222 31.0755C27.4584 30.8431 27.593 30.5264 27.5966 30.1949V30.0258C27.9208 29.8865 28.2298 29.7142 28.5188 29.5116L28.7124 29.6184C28.9997 29.7792 29.3382 29.8222 29.6565 29.7384C29.9748 29.6545 30.2482 29.4503 30.4189 29.1688L31.2543 27.7844C31.3401 27.6438 31.3964 27.4873 31.4197 27.3242C31.4431 27.1612 31.433 26.9952 31.3901 26.8362C31.346 26.6747 31.2699 26.5236 31.1664 26.392C31.063 26.2603 30.9342 26.1508 30.7876 26.0698L30.6274 25.9815C30.661 25.6589 30.661 25.3336 30.6274 25.011L30.7876 24.9227C30.9342 24.8417 31.063 24.7321 31.1664 24.6005C31.2699 24.4689 31.346 24.3178 31.3901 24.1563C31.433 23.9975 31.4431 23.8316 31.4199 23.6687C31.3967 23.5058 31.3406 23.3494 31.255 23.2089L30.4181 21.8229C30.2467 21.5422 29.973 21.339 29.6548 21.2559C29.3365 21.1729 28.9984 21.2166 28.7117 21.3778L28.5188 21.4839C28.2296 21.2816 27.9206 21.1093 27.5966 20.9697V20.8042C27.5928 20.4729 27.4581 20.1564 27.2217 19.9241C26.9854 19.6918 26.6667 19.5625 26.3353 19.5645H24.6615C24.3299 19.5625 24.0111 19.6919 23.7748 19.9244C23.5384 20.1568 23.4037 20.4735 23.4002 20.805V20.9742C23.0759 21.1134 22.7669 21.2857 22.478 21.4883L22.2843 21.3815C21.997 21.2209 21.6586 21.178 21.3403 21.2618C21.0221 21.3457 20.7487 21.5498 20.5779 21.8311L19.7424 23.2155C19.6566 23.3561 19.6003 23.5126 19.577 23.6757C19.5537 23.8387 19.5638 24.0047 19.6067 24.1637C19.6508 24.3252 19.7268 24.4763 19.8303 24.6079C19.9338 24.7396 20.0626 24.8491 20.2091 24.9301L20.3694 25.0184C20.3357 25.341 20.3357 25.6663 20.3694 25.9889L20.2091 26.0772C20.0626 26.1576 19.9336 26.2664 19.8297 26.3974C19.7259 26.5284 19.6493 26.6789 19.6044 26.8399ZM21.8258 25.5C21.8256 25.3445 21.8368 25.1893 21.8592 25.0355C21.8917 24.789 21.8486 24.5384 21.7356 24.3168C21.6226 24.0953 21.445 23.9134 21.2263 23.795L21.1484 23.7512L21.742 22.7726L21.874 22.8468C22.0915 22.9642 22.3379 23.0172 22.5844 22.9995C22.8309 22.9819 23.0673 22.8945 23.2659 22.7474C23.5176 22.5627 23.7919 22.4109 24.082 22.2955C24.3167 22.206 24.519 22.0479 24.6627 21.8419C24.8064 21.6359 24.8848 21.3915 24.8878 21.1403V21.0483H26.1209V21.1396C26.1238 21.3907 26.2023 21.6352 26.346 21.8412C26.4896 22.0472 26.6919 22.2052 26.9266 22.2948C27.2167 22.4107 27.491 22.5631 27.7427 22.7481C27.9413 22.8943 28.1774 22.9811 28.4234 22.9984C28.6694 23.0158 28.9152 22.9629 29.1324 22.8461L29.2644 22.7719L29.858 23.7505L29.7838 23.7935C29.565 23.9119 29.3873 24.0938 29.2741 24.3153C29.1608 24.5368 29.1174 24.7874 29.1494 25.034C29.1683 25.1886 29.1755 25.3443 29.171 25.5C29.1712 25.6554 29.16 25.8106 29.1376 25.9644C29.105 26.2109 29.1481 26.4615 29.2611 26.6831C29.3741 26.9046 29.5517 27.0866 29.7704 27.2049L29.8446 27.2487L29.2511 28.2273L29.119 28.1531C28.9014 28.0364 28.6551 27.9837 28.4087 28.0013C28.1623 28.0189 27.926 28.106 27.7271 28.2525C27.4754 28.4372 27.2011 28.589 26.911 28.7044C26.6764 28.7939 26.4741 28.952 26.3304 29.158C26.1867 29.364 26.1083 29.6084 26.1053 29.8596V29.9516H24.8818V29.8603C24.8788 29.6092 24.8004 29.3647 24.6567 29.1587C24.513 28.9527 24.3107 28.7947 24.0761 28.7051C23.7859 28.5892 23.5117 28.4369 23.26 28.2518C23.0613 28.1056 22.8253 28.0188 22.5793 28.0015C22.3333 27.9842 22.0875 28.037 21.8703 28.1539L21.7382 28.228L21.1447 27.2494L21.2189 27.2064C21.4377 27.088 21.6154 26.9061 21.7286 26.6846C21.8419 26.4631 21.8853 26.2126 21.8532 25.9659C21.8324 25.8115 21.8233 25.6557 21.8258 25.5Z" fill="#FF8303"/>
<path d="M25.4991 28.0969C26.0127 28.0969 26.5148 27.9446 26.9418 27.6592C27.3688 27.3739 27.7017 26.9683 27.8982 26.4938C28.0948 26.0193 28.1462 25.4972 28.046 24.9935C27.9458 24.4898 27.6985 24.0271 27.3353 23.6639C26.9721 23.3007 26.5094 23.0534 26.0057 22.9532C25.502 22.853 24.9799 22.9044 24.5054 23.101C24.0309 23.2975 23.6253 23.6304 23.34 24.0574C23.0546 24.4844 22.9023 24.9865 22.9023 25.5001C22.9023 26.1888 23.1759 26.8493 23.6629 27.3363C24.1499 27.8233 24.8104 28.0969 25.4991 28.0969ZM25.4991 24.3872C25.7192 24.3872 25.9344 24.4525 26.1174 24.5747C26.3004 24.697 26.4431 24.8708 26.5273 25.0742C26.6115 25.2776 26.6336 25.5013 26.5906 25.7172C26.5477 25.9331 26.4417 26.1314 26.2861 26.287C26.1304 26.4427 25.9321 26.5487 25.7162 26.5916C25.5004 26.6346 25.2766 26.6125 25.0732 26.5283C24.8699 26.444 24.6961 26.3014 24.5738 26.1184C24.4515 25.9354 24.3862 25.7202 24.3862 25.5001C24.3862 25.2049 24.5035 24.9219 24.7122 24.7132C24.9209 24.5044 25.204 24.3872 25.4991 24.3872Z" fill="#FF8303"/>
</svg>
