<svg width="51" height="51" viewBox="0 0 51 51" fill="none" xmlns="http://www.w3.org/2000/svg">
<g clip-path="url(#clip0_2122_885)">
<path d="M26.3613 12.5058C25.4172 12.5058 24.5785 12.9322 24.001 13.5931L19.9954 11.5899C20.0411 11.3775 20.067 11.158 20.067 10.9322C20.067 9.19653 18.6555 7.78503 16.9199 7.78503C15.1842 7.78503 13.7727 9.19653 13.7727 10.9322C13.7727 11.6387 14.015 12.2847 14.41 12.8103L8.76401 19.8678C8.37062 19.6907 7.93789 19.5869 7.47919 19.5869C5.74353 19.5869 4.33203 20.9984 4.33203 22.734C4.33203 24.4697 5.74353 25.8812 7.47919 25.8812C9.21484 25.8812 10.6263 24.4697 10.6263 22.734C10.6263 22.0275 10.384 21.3815 9.98904 20.856L15.635 13.7985C16.0284 13.9755 16.462 14.0793 16.9207 14.0793C17.8648 14.0793 18.7035 13.6529 19.281 12.992L23.2866 14.9952C23.2409 15.2076 23.215 15.4271 23.215 15.6529C23.215 17.3886 24.6265 18.8001 26.3621 18.8001C28.0978 18.8001 29.5093 17.3886 29.5093 15.6529C29.5093 14.9842 29.2961 14.3665 28.9389 13.8559L34.4259 7.4538C34.8437 7.65915 35.3071 7.78503 35.8028 7.78503C36.9932 7.78503 38.0184 7.11312 38.5526 6.13671L42.0995 7.02342C42.1128 8.74728 43.5173 10.1454 45.2443 10.1454C46.9713 10.1454 48.3914 8.7339 48.3914 6.99824C48.3914 5.26259 46.9799 3.85109 45.2443 3.85109C44.0546 3.85109 43.0287 4.52301 42.4944 5.49941L38.9476 4.6127C38.9334 2.88885 37.5298 1.49072 35.8028 1.49072C34.0758 1.49072 32.6556 2.90222 32.6556 4.63788C32.6556 5.30665 32.8689 5.92506 33.2261 6.4349L27.739 12.837C27.3212 12.6317 26.8578 12.5058 26.3613 12.5058ZM7.4784 24.3076C6.61057 24.3076 5.90482 23.6019 5.90482 22.734C5.90482 21.8662 6.61057 21.1604 7.4784 21.1604C8.34623 21.1604 9.05198 21.8662 9.05198 22.734C9.05198 23.6019 8.34623 24.3076 7.4784 24.3076ZM16.9199 12.5058C16.052 12.5058 15.3463 11.8 15.3463 10.9322C15.3463 10.0644 16.052 9.35861 16.9199 9.35861C17.7877 9.35861 18.4934 10.0644 18.4934 10.9322C18.4934 11.8 17.7877 12.5058 16.9199 12.5058ZM26.3613 17.2265C25.4935 17.2265 24.7878 16.5208 24.7878 15.6529C24.7878 14.7851 25.4935 14.0793 26.3613 14.0793C27.2292 14.0793 27.9349 14.7851 27.9349 15.6529C27.9349 16.5208 27.2292 17.2265 26.3613 17.2265ZM45.2443 5.42467C46.1121 5.42467 46.8178 6.13042 46.8178 6.99824C46.8178 7.86607 46.1121 8.57182 45.2443 8.57182C44.3764 8.57182 43.6707 7.86607 43.6707 6.99824C43.6707 6.13042 44.3764 5.42467 45.2443 5.42467ZM35.8028 3.0643C36.6706 3.0643 37.3764 3.77005 37.3764 4.63788C37.3764 5.50571 36.6706 6.21146 35.8028 6.21146C34.935 6.21146 34.2292 5.50571 34.2292 4.63788C34.2292 3.77005 34.935 3.0643 35.8028 3.0643Z" fill="#FF8303"/>
<path d="M20.0671 40.0434C24.4055 40.0434 27.935 36.5139 27.935 32.1755C27.935 27.8372 24.4055 24.3076 20.0671 24.3076C15.7288 24.3076 12.1992 27.8372 12.1992 32.1755C12.1992 36.5139 15.7288 40.0434 20.0671 40.0434ZM20.0671 38.4698C17.7437 38.4698 15.7146 37.2007 14.6241 35.3227H25.5093C24.4188 37.2007 22.3913 38.4698 20.0671 38.4698ZM26.3614 32.1755C26.3614 32.72 26.2851 33.2448 26.1545 33.7491H24.7878V28.026C25.7642 29.1354 26.3614 30.5854 26.3614 32.1755ZM23.2143 26.7325V33.7491H16.92V26.7325C17.8468 26.1943 18.92 25.8812 20.0671 25.8812C21.2142 25.8812 22.2874 26.1943 23.2143 26.7325ZM15.3464 28.026V33.7491H13.9797C13.8491 33.2448 13.7728 32.72 13.7728 32.1755C13.7728 30.5854 14.37 29.1354 15.3464 28.026Z" fill="#215CFF"/>
<path d="M5.31811 50.2717C6.44007 50.2717 7.48178 49.7147 8.10492 48.78L11.6628 43.4432C11.8374 43.4951 12.016 43.5297 12.197 43.5297C12.6738 43.5297 13.1514 43.3488 13.5141 42.9853L14.7076 41.7917C16.2946 42.6792 18.12 43.1906 20.0641 43.1906C25.0437 43.1906 29.2569 39.8664 30.6149 35.3227H49.9621V33.7492H49.1753V15.653C49.1753 15.2187 48.8228 14.8662 48.3885 14.8662H42.0942C41.6599 14.8662 41.3074 15.2187 41.3074 15.653V33.7492H39.7338V23.5209H38.1603V33.7492H33.4395V14.0794H38.1603V21.1605H39.7338V13.2926C39.7338 12.8583 39.3813 12.5059 38.947 12.5059H32.6527C32.2184 12.5059 31.8659 12.8583 31.8659 13.2926V33.7492H30.9533C31.0272 33.2338 31.0792 32.7114 31.0792 32.1756C31.0792 27.4887 28.1318 23.4879 23.9981 21.8993V18.8002C23.9981 18.3659 23.6456 18.0134 23.2113 18.0134H16.917C16.4826 18.0134 16.1302 18.3659 16.1302 18.8002V21.8993C13.4873 22.9143 11.3386 24.9159 10.127 27.4548H4.32912C3.89481 27.4548 3.54233 27.8073 3.54233 28.2416V33.7492H2.75554V35.3227H9.51406C9.74616 36.0985 10.0609 36.8381 10.4488 37.532L9.25048 38.7303C8.75008 39.2307 8.60374 39.9451 8.79493 40.5793L3.4605 44.1356C2.52658 44.7587 1.96875 45.8004 1.96875 46.9224C1.96875 48.769 3.47152 50.2717 5.31811 50.2717ZM42.8818 16.4398H47.6025V33.7492H42.8818V16.4398ZM17.7045 19.587H22.4253V21.4218C21.6636 21.255 20.8753 21.1605 20.0649 21.1605C19.2545 21.1605 18.4661 21.255 17.7045 21.4218V19.587ZM20.0649 22.7341C25.2711 22.7341 29.5064 26.9694 29.5064 32.1756C29.5064 37.3818 25.2711 41.617 20.0649 41.617C14.8587 41.617 10.6234 37.3818 10.6234 32.1756C10.6234 26.9694 14.8587 22.7341 20.0649 22.7341ZM5.11591 33.7492V29.0284H9.51406C9.21586 30.0269 9.04985 31.0819 9.04985 32.1756C9.04985 32.7114 9.10099 33.2338 9.17574 33.7492H5.11591ZM10.363 39.8428L11.337 38.8688C11.9248 39.6328 12.6077 40.3157 13.3717 40.9034L12.4016 41.8735C12.2537 42.0215 12.1396 42.0215 11.9917 41.8735L10.3622 40.2441C10.2898 40.1717 10.2796 40.0875 10.2796 40.0435C10.2796 39.9994 10.2914 39.9152 10.363 39.8428ZM4.33305 45.4448L9.73672 41.8429L10.3984 42.5045L6.79649 47.9082C6.46682 48.4031 5.91371 48.6989 5.3189 48.6989C4.33934 48.6989 3.54311 47.9027 3.54311 46.9232C3.54311 46.3283 3.83816 45.776 4.33384 45.4456L4.33305 45.4448Z" fill="#215CFF"/>
</g>
<defs>
<clipPath id="clip0_2122_885">
<rect width="50" height="50" fill="white" transform="translate(0.960938 0.5)"/>
</clipPath>
</defs>
</svg>
