<svg width="50" height="50" viewBox="0 0 50 50" fill="none" xmlns="http://www.w3.org/2000/svg">
<path d="M25.3984 12.0055C24.4543 12.0055 23.6156 12.432 23.0381 13.0929L19.0325 11.0897C19.0782 10.8773 19.1041 10.6578 19.1041 10.4319C19.1041 8.69629 17.6926 7.28479 15.957 7.28479C14.2213 7.28479 12.8098 8.69629 12.8098 10.4319C12.8098 11.1385 13.0522 11.7844 13.4471 12.31L7.80112 19.3675C7.40773 19.1905 6.97499 19.0866 6.5163 19.0866C4.78064 19.0866 3.36914 20.4981 3.36914 22.2338C3.36914 23.9694 4.78064 25.3809 6.5163 25.3809C8.25195 25.3809 9.66345 23.9694 9.66345 22.2338C9.66345 21.5272 9.42112 20.8813 9.02615 20.3557L14.6722 13.2982C15.0655 13.4752 15.4991 13.5791 15.9578 13.5791C16.9019 13.5791 17.7406 13.1527 18.3181 12.4918L22.3237 14.4949C22.278 14.7074 22.2521 14.9269 22.2521 15.1527C22.2521 16.8883 23.6636 18.2998 25.3992 18.2998C27.1349 18.2998 28.5464 16.8883 28.5464 15.1527C28.5464 14.4839 28.3332 13.8663 27.976 13.3557L33.463 6.95355C33.8808 7.1589 34.3442 7.28479 34.8399 7.28479C36.0303 7.28479 37.0555 6.61287 37.5897 5.63647L41.1366 6.52318C41.15 8.24703 42.5544 9.64516 44.2814 9.64516C46.0084 9.64516 47.4285 8.23366 47.4285 6.498C47.4285 4.76234 46.017 3.35085 44.2814 3.35085C43.0918 3.35085 42.0658 4.02276 41.5315 4.99917L37.9847 4.11246C37.9705 2.3886 36.5669 0.990479 34.8399 0.990479C33.1129 0.990479 31.6928 2.40198 31.6928 4.13763C31.6928 4.8064 31.906 5.42482 32.2632 5.93466L26.7761 12.3368C26.3583 12.1314 25.8949 12.0055 25.3984 12.0055ZM6.51551 23.8074C5.64768 23.8074 4.94193 23.1016 4.94193 22.2338C4.94193 21.366 5.64768 20.6602 6.51551 20.6602C7.38334 20.6602 8.08909 21.366 8.08909 22.2338C8.08909 23.1016 7.38334 23.8074 6.51551 23.8074ZM15.957 12.0055C15.0891 12.0055 14.3834 11.2998 14.3834 10.4319C14.3834 9.56412 15.0891 8.85837 15.957 8.85837C16.8248 8.85837 17.5306 9.56412 17.5306 10.4319C17.5306 11.2998 16.8248 12.0055 15.957 12.0055ZM25.3984 16.7263C24.5306 16.7263 23.8249 16.0205 23.8249 15.1527C23.8249 14.2849 24.5306 13.5791 25.3984 13.5791C26.2663 13.5791 26.972 14.2849 26.972 15.1527C26.972 16.0205 26.2663 16.7263 25.3984 16.7263ZM44.2814 4.92442C45.1492 4.92442 45.855 5.63017 45.855 6.498C45.855 7.36583 45.1492 8.07158 44.2814 8.07158C43.4135 8.07158 42.7078 7.36583 42.7078 6.498C42.7078 5.63017 43.4135 4.92442 44.2814 4.92442ZM34.8399 2.56406C35.7077 2.56406 36.4135 3.26981 36.4135 4.13763C36.4135 5.00546 35.7077 5.71121 34.8399 5.71121C33.9721 5.71121 33.2663 5.00546 33.2663 4.13763C33.2663 3.26981 33.9721 2.56406 34.8399 2.56406Z" fill="#111111"/>
<path d="M19.1023 39.5432C23.4406 39.5432 26.9702 36.0136 26.9702 31.6753C26.9702 27.3369 23.4406 23.8074 19.1023 23.8074C14.7639 23.8074 11.2344 27.3369 11.2344 31.6753C11.2344 36.0136 14.7639 39.5432 19.1023 39.5432ZM19.1023 37.9696C16.7789 37.9696 14.7497 36.7005 13.6593 34.8224H24.5445C23.454 36.7005 21.4264 37.9696 19.1023 37.9696ZM25.3966 31.6753C25.3966 32.2197 25.3203 32.7445 25.1896 33.2488H23.823V27.5257C24.7994 28.6351 25.3966 30.0852 25.3966 31.6753ZM22.2494 26.2323V33.2488H15.9551V26.2323C16.8819 25.6941 17.9551 25.381 19.1023 25.381C20.2494 25.381 21.3226 25.6941 22.2494 26.2323ZM14.3815 27.5257V33.2488H13.0149C12.8843 32.7445 12.808 32.2197 12.808 31.6753C12.808 30.0852 13.4051 28.6351 14.3815 27.5257Z" fill="#111111"/>
<path d="M4.35522 49.7714C5.47718 49.7714 6.51889 49.2144 7.14203 48.2797L10.6999 42.9429C10.8746 42.9948 11.0532 43.0294 11.2341 43.0294C11.7109 43.0294 12.1885 42.8485 12.5512 42.485L13.7448 41.2914C15.3317 42.1789 17.1571 42.6903 19.1012 42.6903C24.0808 42.6903 28.2941 39.3661 29.6521 34.8224H48.9992V33.2489H48.2124V15.1527C48.2124 14.7184 47.8599 14.3659 47.4256 14.3659H41.1313C40.697 14.3659 40.3445 14.7184 40.3445 15.1527V33.2489H38.7709V23.0206H37.1974V33.2489H32.4766V13.5791H37.1974V20.6602H38.7709V12.7923C38.7709 12.358 38.4185 12.0056 37.9842 12.0056H31.6898C31.2555 12.0056 30.9031 12.358 30.9031 12.7923V33.2489H29.9904C30.0643 32.7335 30.1163 32.2111 30.1163 31.6753C30.1163 26.9884 27.169 22.9876 23.0352 21.399V18.2999C23.0352 17.8656 22.6827 17.5131 22.2484 17.5131H15.9541C15.5198 17.5131 15.1673 17.8656 15.1673 18.2999V21.399C12.5244 22.414 10.3757 24.4156 9.16407 26.9545H3.36623C2.93192 26.9545 2.57944 27.307 2.57944 27.7413V33.2489H1.79265V34.8224H8.55116C8.78327 35.5982 9.09798 36.3378 9.48587 37.0317L8.28759 38.23C7.78719 38.7304 7.64085 39.4448 7.83204 40.079L2.49761 43.6353C1.56369 44.2584 1.00586 45.3001 1.00586 46.4221C1.00586 48.2687 2.50863 49.7714 4.35522 49.7714ZM41.9189 15.9395H46.6396V33.2489H41.9189V15.9395ZM16.7416 19.0867H21.4624V20.9214C20.7008 20.7546 19.9124 20.6602 19.102 20.6602C18.2916 20.6602 17.5032 20.7546 16.7416 20.9214V19.0867ZM19.102 22.2338C24.3082 22.2338 28.5435 26.4691 28.5435 31.6753C28.5435 36.8815 24.3082 41.1167 19.102 41.1167C13.8958 41.1167 9.66054 36.8815 9.66054 31.6753C9.66054 26.4691 13.8958 22.2338 19.102 22.2338ZM4.15301 33.2489V28.5281H8.55116C8.25297 29.5266 8.08696 30.5816 8.08696 31.6753C8.08696 32.2111 8.1381 32.7335 8.21285 33.2489H4.15301ZM9.40011 39.3425L10.3742 38.3685C10.9619 39.1325 11.6448 39.8154 12.4088 40.4031L11.4387 41.3732C11.2908 41.5212 11.1767 41.5212 11.0288 41.3732L9.39932 39.7438C9.32694 39.6714 9.31671 39.5872 9.31671 39.5432C9.31671 39.4991 9.32851 39.4149 9.40011 39.3425ZM3.37016 44.9445L8.77383 41.3426L9.43552 42.0042L5.8336 47.4079C5.50393 47.9028 4.95082 48.1986 4.35601 48.1986C3.37645 48.1986 2.58022 47.4024 2.58022 46.4228C2.58022 45.828 2.87527 45.2757 3.37095 44.9453L3.37016 44.9445Z" fill="#111111"/>
</svg>
