<svg width="51" height="51" viewBox="0 0 51 51" fill="none" xmlns="http://www.w3.org/2000/svg">
<path d="M28.3329 49.257C28.6595 49.417 29.0185 49.5001 29.3822 49.4999C30.0263 49.4991 30.6438 49.2426 31.0988 48.7866L37.5662 42.3208C37.7903 42.0969 37.9681 41.831 38.0894 41.5383C38.2107 41.2456 38.2731 40.9319 38.2731 40.615C38.2731 40.2982 38.2107 39.9845 38.0894 39.6918C37.9681 39.3991 37.7903 39.1332 37.5662 38.9093L32.7684 34.1187C32.3155 33.6672 31.7021 33.4137 31.0626 33.4137C30.4231 33.4137 29.8097 33.6672 29.3569 34.1187L28.641 34.8341C27.7152 35.7575 26.461 36.276 25.1535 36.276C23.8459 36.276 22.5917 35.7575 21.666 34.8341L15.4064 28.5714C14.7901 27.9502 14.4442 27.1106 14.4442 26.2356C14.4442 25.3605 14.7901 24.5209 15.4064 23.8997L17.2781 22.0275C17.7301 21.5749 17.984 20.9614 17.984 20.3218C17.984 19.6821 17.7301 19.0686 17.2781 18.616L12.4901 13.8296C12.0377 13.3772 11.4241 13.123 10.7843 13.123C10.1445 13.123 9.53097 13.3772 9.07857 13.8296L2.59982 20.3083C2.24231 20.6631 2.00482 21.1209 1.92064 21.6175C1.83647 22.1141 1.90985 22.6246 2.13048 23.0773C7.7377 34.4553 16.9501 43.6597 28.3329 49.257ZM3.69615 21.4052L10.1754 14.9254C10.2553 14.8452 10.3502 14.7817 10.4547 14.7383C10.5592 14.6949 10.6712 14.6725 10.7843 14.6725C10.8975 14.6725 11.0095 14.6949 11.114 14.7383C11.2185 14.7817 11.3134 14.8452 11.3932 14.9254L16.1817 19.7139C16.2618 19.7938 16.3254 19.8888 16.3687 19.9933C16.4121 20.0978 16.4344 20.2099 16.4344 20.3231C16.4344 20.4362 16.4121 20.5483 16.3687 20.6528C16.3254 20.7573 16.2618 20.8523 16.1817 20.9322L14.308 22.8075C13.4022 23.7197 12.8939 24.9531 12.8939 26.2387C12.8939 27.5242 13.4022 28.7576 14.308 29.6698L20.5676 35.9294C21.7841 37.1435 23.4327 37.8253 25.1514 37.8253C26.8701 37.8253 28.5187 37.1435 29.7352 35.9294L30.4511 35.214C30.6128 35.0529 30.8318 34.9625 31.06 34.9625C31.2883 34.9625 31.5072 35.0529 31.6689 35.214L36.4673 40.0041C36.5474 40.0841 36.6109 40.1791 36.6543 40.2836C36.6977 40.3882 36.72 40.5003 36.72 40.6135C36.72 40.7267 36.6977 40.8388 36.6543 40.9434C36.6109 41.0479 36.5474 41.1429 36.4673 41.2229L30.0025 47.6898C29.8765 47.8182 29.7136 47.904 29.5365 47.9353C29.3595 47.9667 29.177 47.9419 29.0147 47.8645C17.9402 42.4187 8.97751 33.4634 3.52247 22.3935C3.44459 22.2312 3.41946 22.0487 3.45061 21.8714C3.48175 21.6942 3.56762 21.5311 3.69615 21.4052Z" fill="#215CFF"/>
<path d="M20.7148 4.3324V19.3828C20.7157 20.1469 21.0195 20.8795 21.5597 21.4199C22.0999 21.9603 22.8324 22.2644 23.5965 22.2655H28.2393V27.0887C28.2388 27.2386 28.2817 27.3854 28.363 27.5114C28.4442 27.6374 28.5602 27.7371 28.6969 27.7985C28.8336 27.8599 28.9852 27.8804 29.1334 27.8574C29.2815 27.8345 29.4198 27.7691 29.5315 27.6692L35.6304 22.2655H47.0759C47.8402 22.2646 48.5728 21.9605 49.1131 21.4201C49.6534 20.8797 49.9573 20.147 49.9581 19.3828V4.3324C49.9573 3.56824 49.6534 2.83562 49.1131 2.29528C48.5727 1.75494 47.8401 1.45102 47.0759 1.4502H23.5965C22.8325 1.45129 22.1001 1.75532 21.5599 2.29561C21.0197 2.83591 20.7158 3.56837 20.7148 4.3324ZM48.4075 4.3324V19.3828C48.4071 19.7359 48.2667 20.0744 48.017 20.3241C47.7674 20.5738 47.429 20.7143 47.0759 20.7149H35.3362C35.1469 20.7149 34.9642 20.7842 34.8224 20.9097L29.7905 25.3669V21.4902C29.7905 21.2846 29.7088 21.0873 29.5634 20.9419C29.418 20.7965 29.2208 20.7149 29.0151 20.7149H23.5965C23.2435 20.7143 22.905 20.5738 22.6554 20.3241C22.4058 20.0744 22.2654 19.7359 22.265 19.3828V4.3324C22.2654 3.97938 22.4058 3.64094 22.6555 3.39133C22.9051 3.14171 23.2435 3.00129 23.5965 3.00088H47.0759C47.429 3.00129 47.7674 3.14171 48.017 3.39133C48.2666 3.64094 48.4071 3.97938 48.4075 4.3324Z" fill="#FF8303"/>
<path d="M27.5058 9.38174H43.1677C43.3733 9.38174 43.5706 9.30005 43.716 9.15465C43.8614 9.00924 43.9431 8.81203 43.9431 8.6064C43.9431 8.40076 43.8614 8.20355 43.716 8.05815C43.5706 7.91274 43.3733 7.83105 43.1677 7.83105H27.5058C27.3002 7.83105 27.103 7.91274 26.9576 8.05815C26.8122 8.20355 26.7305 8.40076 26.7305 8.6064C26.7305 8.81203 26.8122 9.00924 26.9576 9.15465C27.103 9.30005 27.3002 9.38174 27.5058 9.38174Z" fill="#FF8303"/>
<path d="M27.5058 15.2904H38.4578C38.6634 15.2904 38.8606 15.2087 39.006 15.0633C39.1514 14.9179 39.2331 14.7207 39.2331 14.5151C39.2331 14.3095 39.1514 14.1122 39.006 13.9668C38.8606 13.8214 38.6634 13.7397 38.4578 13.7397H27.5058C27.3002 13.7397 27.103 13.8214 26.9576 13.9668C26.8122 14.1122 26.7305 14.3095 26.7305 14.5151C26.7305 14.7207 26.8122 14.9179 26.9576 15.0633C27.103 15.2087 27.3002 15.2904 27.5058 15.2904Z" fill="#FF8303"/>
</svg>
