<svg width="50" height="50" viewBox="0 0 50 50" fill="none" xmlns="http://www.w3.org/2000/svg">
<path d="M18.8668 44.7H12.7335C12.5301 44.7 12.3351 44.7807 12.1913 44.9245C12.0476 45.0683 11.9668 45.2633 11.9668 45.4666C11.9668 45.67 12.0476 45.865 12.1913 46.0087C12.3351 46.1525 12.5301 46.2333 12.7335 46.2333H18.8668C19.0701 46.2333 19.2651 46.1525 19.4089 46.0087C19.5527 45.865 19.6335 45.67 19.6335 45.4666C19.6335 45.2633 19.5527 45.0683 19.4089 44.9245C19.2651 44.7807 19.0701 44.7 18.8668 44.7Z" fill="#111111"/>
<path d="M45.3167 15.5667H29.6V3.68333C29.5992 2.97191 29.3163 2.28985 28.8132 1.7868C28.3101 1.28375 27.6281 1.00079 26.9167 1H4.68333C3.97191 1.00079 3.28985 1.28375 2.7868 1.7868C2.28375 2.28985 2.00079 2.97191 2 3.68333V45.85C2.00079 46.5614 2.28375 47.2435 2.7868 47.7465C3.28985 48.2496 3.97191 48.5325 4.68333 48.5333H26.9167C27.6281 48.5325 28.3101 48.2496 28.8132 47.7465C29.3163 47.2435 29.5992 46.5614 29.6 45.85V34.7333H45.3167C46.0281 34.7325 46.7101 34.4496 47.2132 33.9465C47.7163 33.4435 47.9992 32.7614 48 32.05V18.25C47.9992 17.5386 47.7163 16.8565 47.2132 16.3535C46.7101 15.8504 46.0281 15.5675 45.3167 15.5667ZM19.4177 2.53333L19.0344 4.06667H12.5656L12.1823 2.53333H19.4177ZM28.0667 45.85C28.0664 46.1549 27.9452 46.4473 27.7296 46.6629C27.5139 46.8785 27.2216 46.9997 26.9167 47H4.68333C4.37841 46.9997 4.08605 46.8785 3.87044 46.6629C3.65483 46.4473 3.53359 46.1549 3.53333 45.85V3.68333C3.53359 3.37841 3.65483 3.08605 3.87044 2.87044C4.08605 2.65483 4.37841 2.53359 4.68333 2.53333H10.601L11.223 5.01925C11.2645 5.18511 11.3602 5.33235 11.4949 5.43758C11.6297 5.54281 11.7957 5.59997 11.9667 5.6H19.6333C19.8043 5.59997 19.9703 5.54281 20.1051 5.43758C20.2398 5.33235 20.3355 5.18511 20.377 5.01925L20.999 2.53333H26.9167C27.2216 2.53359 27.5139 2.65483 27.7296 2.87044C27.9452 3.08605 28.0664 3.37841 28.0667 3.68333V45.85ZM29.6 27.0667H31.9V30.1333H29.6V27.0667ZM46.4667 32.05C46.4664 32.3549 46.3452 32.6473 46.1296 32.8629C45.9139 33.0785 45.6216 33.1997 45.3167 33.2H29.6V31.6667H32.6667C32.87 31.6667 33.065 31.5859 33.2088 31.4421C33.3526 31.2983 33.4333 31.1033 33.4333 30.9V26.3C33.4333 26.0967 33.3526 25.9017 33.2088 25.7579C33.065 25.6141 32.87 25.5333 32.6667 25.5333H29.6V23.2333H46.4667V32.05ZM46.4667 21.7H29.6V20.1667H46.4667V21.7ZM46.4667 18.6333H29.6V17.1H45.3167C45.6216 17.1003 45.9139 17.2215 46.1296 17.4371C46.3452 17.6527 46.4664 17.9451 46.4667 18.25V18.6333Z" fill="#111111"/>
<path d="M44.1667 25.5333H37.2667C37.0633 25.5333 36.8683 25.6141 36.7246 25.7579C36.5808 25.9017 36.5 26.0967 36.5 26.3C36.5 26.5033 36.5808 26.6983 36.7246 26.8421C36.8683 26.9859 37.0633 27.0667 37.2667 27.0667H44.1667C44.37 27.0667 44.565 26.9859 44.7088 26.8421C44.8526 26.6983 44.9333 26.5033 44.9333 26.3C44.9333 26.0967 44.8526 25.9017 44.7088 25.7579C44.565 25.6141 44.37 25.5333 44.1667 25.5333Z" fill="#111111"/>
<path d="M44.1667 27.8333H37.2667C37.0633 27.8333 36.8683 27.9141 36.7246 28.0579C36.5808 28.2016 36.5 28.3966 36.5 28.6C36.5 28.8033 36.5808 28.9983 36.7246 29.1421C36.8683 29.2859 37.0633 29.3666 37.2667 29.3666H44.1667C44.37 29.3666 44.565 29.2859 44.7088 29.1421C44.8526 28.9983 44.9333 28.8033 44.9333 28.6C44.9333 28.3966 44.8526 28.2016 44.7088 28.0579C44.565 27.9141 44.37 27.8333 44.1667 27.8333Z" fill="#111111"/>
<path d="M44.1654 30.1333H41.0987C40.8954 30.1333 40.7004 30.2141 40.5566 30.3579C40.4128 30.5016 40.332 30.6966 40.332 30.9C40.332 31.1033 40.4128 31.2983 40.5566 31.4421C40.7004 31.5859 40.8954 31.6666 41.0987 31.6666H44.1654C44.3687 31.6666 44.5637 31.5859 44.7075 31.4421C44.8513 31.2983 44.932 31.1033 44.932 30.9C44.932 30.6966 44.8513 30.5016 44.7075 30.3579C44.5637 30.2141 44.3687 30.1333 44.1654 30.1333Z" fill="#111111"/>
<path d="M15.7996 15.5667C13.98 15.5667 12.2013 16.1062 10.6884 17.1171C9.17544 18.128 7.99625 19.5649 7.29992 21.246C6.6036 22.927 6.4214 24.7769 6.77639 26.5615C7.13137 28.3461 8.00759 29.9854 9.29423 31.272C10.5809 32.5587 12.2202 33.4349 14.0048 33.7899C15.7894 34.1449 17.6392 33.9627 19.3203 33.2663C21.0014 32.57 22.4382 31.3908 23.4491 29.8779C24.46 28.365 24.9996 26.5862 24.9996 24.7667C24.9969 22.3275 24.0267 19.989 22.302 18.2643C20.5772 16.5396 18.2388 15.5694 15.7996 15.5667ZM15.7996 32.4333C14.2833 32.4333 12.801 31.9837 11.5402 31.1413C10.2795 30.2988 9.29681 29.1015 8.71654 27.7006C8.13627 26.2997 7.98444 24.7581 8.28026 23.271C8.57608 21.7838 9.30626 20.4177 10.3785 19.3455C11.4507 18.2733 12.8167 17.5431 14.3039 17.2473C15.7911 16.9515 17.3326 17.1033 18.7335 17.6836C20.1344 18.2638 21.3318 19.2465 22.1742 20.5073C23.0166 21.7681 23.4663 23.2503 23.4663 24.7667C23.464 26.7993 22.6555 28.748 21.2182 30.1853C19.7809 31.6225 17.8322 32.431 15.7996 32.4333Z" fill="#111111"/>
<path d="M19.8571 21.9245L14.9606 26.821L12.4259 24.92C12.2632 24.798 12.0588 24.7456 11.8575 24.7743C11.6562 24.8031 11.4746 24.9106 11.3526 25.0733C11.2306 25.236 11.1782 25.4404 11.2069 25.6417C11.2357 25.843 11.3432 26.0246 11.5059 26.1466L14.5726 28.4466C14.7202 28.5574 14.9028 28.6111 15.0869 28.5981C15.271 28.585 15.4442 28.5059 15.5747 28.3754L20.9414 23.0088C21.0851 22.865 21.1659 22.67 21.1659 22.4666C21.1659 22.2633 21.0851 22.0683 20.9414 21.9245C20.7976 21.7807 20.6026 21.7 20.3992 21.7C20.1959 21.7 20.0009 21.7807 19.8571 21.9245Z" fill="#111111"/>
</svg>
