<svg width="50" height="50" viewBox="0 0 50 50" fill="none" xmlns="http://www.w3.org/2000/svg">
<path d="M27.4911 48.7571C27.8178 48.917 28.1767 49.0001 28.5404 49C29.1845 48.9992 29.802 48.7426 30.257 48.2867L36.7244 41.8209C36.9485 41.5969 37.1263 41.331 37.2476 41.0383C37.3689 40.7456 37.4313 40.4319 37.4313 40.1151C37.4313 39.7983 37.3689 39.4846 37.2476 39.1919C37.1263 38.8992 36.9485 38.6333 36.7244 38.4094L31.9266 33.6188C31.4737 33.1673 30.8603 32.9137 30.2208 32.9137C29.5813 32.9137 28.9679 33.1673 28.5151 33.6188L27.7992 34.3342C26.8734 35.2575 25.6192 35.7761 24.3117 35.7761C23.0041 35.7761 21.75 35.2575 20.8242 34.3342L14.5646 28.0715C13.9483 27.4503 13.6024 26.6107 13.6024 25.7356C13.6024 24.8606 13.9483 24.021 14.5646 23.3998L16.4363 21.5276C16.8883 21.075 17.1422 20.4615 17.1422 19.8218C17.1422 19.1822 16.8883 18.5687 16.4363 18.1161L11.6483 13.3296C11.1959 12.8773 10.5823 12.6231 9.94253 12.6231C9.30275 12.6231 8.68917 12.8773 8.23677 13.3296L1.75802 19.8084C1.40051 20.1632 1.16302 20.621 1.07885 21.1175C0.994677 21.6141 1.06805 22.1246 1.28868 22.5774C6.8959 33.9554 16.1083 43.1597 27.4911 48.7571ZM2.85435 20.9052L9.33363 14.4254C9.41349 14.3453 9.50838 14.2817 9.61287 14.2383C9.71736 14.1949 9.82939 14.1726 9.94253 14.1726C10.0557 14.1726 10.1677 14.1949 10.2722 14.2383C10.3767 14.2817 10.4716 14.3453 10.5514 14.4254L15.3399 19.214C15.42 19.2939 15.4836 19.3888 15.5269 19.4934C15.5703 19.5979 15.5926 19.71 15.5926 19.8231C15.5926 19.9363 15.5703 20.0483 15.5269 20.1529C15.4836 20.2574 15.42 20.3523 15.3399 20.4323L13.4662 22.3076C12.5604 23.2198 12.0521 24.4532 12.0521 25.7387C12.0521 27.0243 12.5604 28.2576 13.4662 29.1699L19.7258 35.4295C20.9423 36.6435 22.5909 37.3254 24.3096 37.3254C26.0283 37.3254 27.6769 36.6435 28.8934 35.4295L29.6093 34.7141C29.771 34.553 29.99 34.4625 30.2182 34.4625C30.4465 34.4625 30.6654 34.553 30.8271 34.7141L35.6255 39.5041C35.7056 39.5841 35.7691 39.6791 35.8125 39.7837C35.8559 39.8883 35.8782 40.0003 35.8782 40.1136C35.8782 40.2268 35.8559 40.3389 35.8125 40.4434C35.7691 40.548 35.7056 40.643 35.6255 40.723L29.1607 47.1898C29.0347 47.3182 28.8718 47.4041 28.6948 47.4354C28.5177 47.4667 28.3352 47.442 28.1729 47.3646C17.0984 41.9187 8.13572 32.9635 2.68068 21.8935C2.60279 21.7313 2.57766 21.5487 2.60881 21.3715C2.63996 21.1943 2.72582 21.0312 2.85435 20.9052Z" fill="#111111"/>
<path d="M19.873 3.83222V18.8826C19.8739 19.6467 20.1777 20.3793 20.7179 20.9198C21.2581 21.4602 21.9906 21.7643 22.7547 21.7654H27.3975V26.5885C27.397 26.7384 27.4399 26.8852 27.5212 27.0112C27.6024 27.1372 27.7184 27.2369 27.8551 27.2983C27.9918 27.3597 28.1434 27.3802 28.2916 27.3573C28.4397 27.3343 28.578 27.2689 28.6897 27.169L34.7886 21.7654H46.2341C46.9984 21.7644 47.731 21.4604 48.2713 20.9199C48.8116 20.3795 49.1155 19.6468 49.1164 18.8826V3.83222C49.1155 3.06806 48.8116 2.33544 48.2713 1.7951C47.7309 1.25476 46.9983 0.950833 46.2341 0.950012H22.7547C21.9907 0.951106 21.2583 1.25513 20.7181 1.79543C20.1779 2.33573 19.874 3.06819 19.873 3.83222ZM47.5657 3.83222V18.8826C47.5653 19.2357 47.4249 19.5742 47.1753 19.8239C46.9256 20.0736 46.5872 20.2141 46.2341 20.2147H34.4944C34.3051 20.2147 34.1224 20.284 33.9806 20.4095L28.9487 24.8667V20.99C28.9487 20.7844 28.867 20.5872 28.7216 20.4418C28.5762 20.2964 28.379 20.2147 28.1733 20.2147H22.7547C22.4017 20.2141 22.0632 20.0736 21.8136 19.8239C21.564 19.5742 21.4236 19.2357 21.4232 18.8826V3.83222C21.4236 3.4792 21.564 3.14076 21.8137 2.89114C22.0633 2.64152 22.4017 2.50111 22.7547 2.5007H46.2341C46.5872 2.50111 46.9256 2.64152 47.1752 2.89114C47.4248 3.14076 47.5653 3.4792 47.5657 3.83222Z" fill="#111111"/>
<path d="M26.664 8.88174H42.3259C42.5315 8.88174 42.7288 8.80005 42.8742 8.65465C43.0196 8.50924 43.1013 8.31203 43.1013 8.1064C43.1013 7.90076 43.0196 7.70355 42.8742 7.55815C42.7288 7.41274 42.5315 7.33105 42.3259 7.33105H26.664C26.4584 7.33105 26.2612 7.41274 26.1158 7.55815C25.9704 7.70355 25.8887 7.90076 25.8887 8.1064C25.8887 8.31203 25.9704 8.50924 26.1158 8.65465C26.2612 8.80005 26.4584 8.88174 26.664 8.88174Z" fill="#111111"/>
<path d="M26.664 14.7904H37.616C37.8216 14.7904 38.0188 14.7087 38.1642 14.5633C38.3096 14.4179 38.3913 14.2207 38.3913 14.015C38.3913 13.8094 38.3096 13.6122 38.1642 13.4668C38.0188 13.3214 37.8216 13.2397 37.616 13.2397H26.664C26.4584 13.2397 26.2612 13.3214 26.1158 13.4668C25.9704 13.6122 25.8887 13.8094 25.8887 14.015C25.8887 14.2207 25.9704 14.4179 26.1158 14.5633C26.2612 14.7087 26.4584 14.7904 26.664 14.7904Z" fill="#111111"/>
</svg>
