<svg width="51" height="51" viewBox="0 0 51 51" fill="none" xmlns="http://www.w3.org/2000/svg">
<path d="M19.7477 45.2002H13.6143C13.411 45.2002 13.216 45.281 13.0722 45.4247C12.9284 45.5685 12.8477 45.7635 12.8477 45.9669C12.8477 46.1702 12.9284 46.3652 13.0722 46.509C13.216 46.6528 13.411 46.7335 13.6143 46.7335H19.7477C19.951 46.7335 20.146 46.6528 20.2898 46.509C20.4335 46.3652 20.5143 46.1702 20.5143 45.9669C20.5143 45.7635 20.4335 45.5685 20.2898 45.4247C20.146 45.281 19.951 45.2002 19.7477 45.2002Z" fill="#215CFF"/>
<path d="M46.1956 16.0667H30.4789V4.18333C30.4781 3.47191 30.1952 2.78985 29.6921 2.2868C29.1891 1.78375 28.507 1.50079 27.7956 1.5H5.56224C4.85082 1.50079 4.16876 1.78375 3.6657 2.2868C3.16265 2.78985 2.87969 3.47191 2.87891 4.18333V46.35C2.87969 47.0614 3.16265 47.7435 3.6657 48.2465C4.16876 48.7496 4.85082 49.0325 5.56224 49.0333H27.7956C28.507 49.0325 29.1891 48.7496 29.6921 48.2465C30.1952 47.7435 30.4781 47.0614 30.4789 46.35V35.2333H46.1956C46.907 35.2325 47.5891 34.9496 48.0921 34.4465C48.5952 33.9435 48.8781 33.2614 48.8789 32.55V18.75C48.8781 18.0386 48.5952 17.3565 48.0921 16.8535C47.5891 16.3504 46.907 16.0675 46.1956 16.0667ZM20.2966 3.03333L19.9133 4.56667H13.4445L13.0612 3.03333H20.2966ZM28.9456 46.35C28.9453 46.6549 28.8241 46.9473 28.6085 47.1629C28.3929 47.3785 28.1005 47.4997 27.7956 47.5H5.56224C5.25732 47.4997 4.96496 47.3785 4.74935 47.1629C4.53374 46.9473 4.41249 46.6549 4.41224 46.35V4.18333C4.41249 3.87841 4.53374 3.58605 4.74935 3.37044C4.96496 3.15483 5.25732 3.03359 5.56224 3.03333H11.4799L12.1019 5.51925C12.1434 5.68511 12.2391 5.83235 12.3738 5.93758C12.5086 6.04281 12.6746 6.09997 12.8456 6.1H20.5122C20.6832 6.09997 20.8493 6.04281 20.984 5.93758C21.1187 5.83235 21.2144 5.68511 21.2559 5.51925L21.8779 3.03333H27.7956C28.1005 3.03359 28.3929 3.15483 28.6085 3.37044C28.8241 3.58605 28.9453 3.87841 28.9456 4.18333V46.35ZM30.4789 27.5667H32.7789V30.6333H30.4789V27.5667ZM47.3456 32.55C47.3453 32.8549 47.2241 33.1473 47.0085 33.3629C46.7929 33.5785 46.5005 33.6997 46.1956 33.7H30.4789V32.1667H33.5456C33.7489 32.1667 33.9439 32.0859 34.0877 31.9421C34.2315 31.7983 34.3122 31.6033 34.3122 31.4V26.8C34.3122 26.5967 34.2315 26.4017 34.0877 26.2579C33.9439 26.1141 33.7489 26.0333 33.5456 26.0333H30.4789V23.7333H47.3456V32.55ZM47.3456 22.2H30.4789V20.6667H47.3456V22.2ZM47.3456 19.1333H30.4789V17.6H46.1956C46.5005 17.6003 46.7929 17.7215 47.0085 17.9371C47.2241 18.1527 47.3453 18.4451 47.3456 18.75V19.1333Z" fill="#215CFF"/>
<path d="M45.0456 26.0332H38.1456C37.9422 26.0332 37.7472 26.114 37.6035 26.2578C37.4597 26.4015 37.3789 26.5965 37.3789 26.7999C37.3789 27.0032 37.4597 27.1982 37.6035 27.342C37.7472 27.4858 37.9422 27.5665 38.1456 27.5665H45.0456C45.2489 27.5665 45.4439 27.4858 45.5877 27.342C45.7315 27.1982 45.8122 27.0032 45.8122 26.7999C45.8122 26.5965 45.7315 26.4015 45.5877 26.2578C45.4439 26.114 45.2489 26.0332 45.0456 26.0332Z" fill="#215CFF"/>
<path d="M45.0456 28.3335H38.1456C37.9422 28.3335 37.7472 28.4143 37.6035 28.558C37.4597 28.7018 37.3789 28.8968 37.3789 29.1002C37.3789 29.3035 37.4597 29.4985 37.6035 29.6423C37.7472 29.7861 37.9422 29.8668 38.1456 29.8668H45.0456C45.2489 29.8668 45.4439 29.7861 45.5877 29.6423C45.7315 29.4985 45.8122 29.3035 45.8122 29.1002C45.8122 28.8968 45.7315 28.7018 45.5877 28.558C45.4439 28.4143 45.2489 28.3335 45.0456 28.3335Z" fill="#215CFF"/>
<path d="M45.0443 30.6333H41.9776C41.7743 30.6333 41.5793 30.7141 41.4355 30.8579C41.2917 31.0016 41.2109 31.1966 41.2109 31.4C41.2109 31.6033 41.2917 31.7983 41.4355 31.9421C41.5793 32.0859 41.7743 32.1666 41.9776 32.1666H45.0443C45.2476 32.1666 45.4426 32.0859 45.5864 31.9421C45.7302 31.7983 45.8109 31.6033 45.8109 31.4C45.8109 31.1966 45.7302 31.0016 45.5864 30.8579C45.4426 30.7141 45.2476 30.6333 45.0443 30.6333Z" fill="#215CFF"/>
<path d="M16.6805 16.0669C14.8609 16.0669 13.0822 16.6065 11.5692 17.6174C10.0563 18.6283 8.87711 20.0651 8.18078 21.7462C7.48445 23.4273 7.30226 25.2771 7.65725 27.0617C8.01223 28.8464 8.88845 30.4856 10.1751 31.7723C11.4617 33.0589 13.101 33.9351 14.8856 34.2901C16.6703 34.6451 18.5201 34.4629 20.2012 33.7666C21.8822 33.0703 23.3191 31.8911 24.33 30.3781C25.3409 28.8652 25.8805 27.0865 25.8805 25.2669C25.8777 22.8277 24.9076 20.4893 23.1828 18.7645C21.4581 17.0398 19.1196 16.0696 16.6805 16.0669ZM16.6805 32.9336C15.1641 32.9336 13.6819 32.4839 12.4211 31.6415C11.1603 30.7991 10.1777 29.6017 9.5974 28.2008C9.01712 26.7999 8.8653 25.2584 9.16112 23.7712C9.45694 22.284 10.1871 20.9179 11.2593 19.8457C12.3315 18.7735 13.6976 18.0434 15.1848 17.7475C16.672 17.4517 18.2135 17.6035 19.6144 18.1838C21.0153 18.7641 22.2126 19.7467 23.0551 21.0075C23.8975 22.2683 24.3471 23.7506 24.3471 25.2669C24.3448 27.2995 23.5364 29.2482 22.0991 30.6855C20.6618 32.1228 18.7131 32.9313 16.6805 32.9336Z" fill="#FF8303"/>
<path d="M20.736 22.4248L15.8395 27.3213L13.3048 25.4202C13.1421 25.2982 12.9377 25.2458 12.7364 25.2746C12.5351 25.3033 12.3535 25.4109 12.2315 25.5736C12.1095 25.7362 12.0571 25.9407 12.0858 26.142C12.1146 26.3433 12.2221 26.5249 12.3848 26.6469L15.4515 28.9469C15.5991 29.0576 15.7817 29.1114 15.9658 29.0983C16.1499 29.0852 16.3231 29.0062 16.4536 28.8757L21.8203 23.509C21.964 23.3652 22.0448 23.1702 22.0448 22.9669C22.0448 22.7635 21.964 22.5685 21.8203 22.4248C21.6765 22.281 21.4815 22.2002 21.2781 22.2002C21.0748 22.2002 20.8798 22.281 20.736 22.4248Z" fill="#FF8303"/>
</svg>
