<svg width="50" height="50" viewBox="0 0 50 50" fill="none" xmlns="http://www.w3.org/2000/svg">
<path d="M3.48438 41.6935V47.258C3.48438 47.4548 3.56254 47.6435 3.70168 47.7827C3.84082 47.9218 4.02954 48 4.22631 48H13.1295C13.3263 48 13.515 47.9218 13.6542 47.7827C13.7933 47.6435 13.8715 47.4548 13.8715 47.258V41.6935C13.8696 40.8228 13.5276 39.9872 12.9184 39.3651C12.3093 38.7429 11.4812 38.3833 10.6107 38.363C11.0707 37.9682 11.3988 37.4419 11.5508 36.8551C11.7029 36.2682 11.6715 35.6489 11.461 35.0804C11.2505 34.5119 10.8709 34.0215 10.3734 33.6751C9.87584 33.3288 9.28415 33.1431 8.67792 33.1431C8.07169 33.1431 7.48 33.3288 6.98245 33.6751C6.48489 34.0215 6.10533 34.5119 5.89483 35.0804C5.68433 35.6489 5.65298 36.2682 5.80501 36.8551C5.95703 37.4419 6.28513 37.9682 6.74518 38.363C5.87468 38.3833 5.04656 38.7429 4.43741 39.3651C3.82825 39.9872 3.48627 40.8228 3.48438 41.6935ZM8.67792 34.6451C8.9714 34.6451 9.25829 34.7322 9.50231 34.8952C9.74633 35.0583 9.93653 35.29 10.0488 35.5612C10.1611 35.8323 10.1905 36.1307 10.1333 36.4185C10.076 36.7063 9.9347 36.9707 9.72717 37.1783C9.51965 37.3858 9.25525 37.5271 8.96741 37.5844C8.67956 37.6416 8.38121 37.6122 8.11007 37.4999C7.83893 37.3876 7.60718 37.1974 7.44413 36.9534C7.28108 36.7094 7.19405 36.4225 7.19405 36.129C7.19405 35.7355 7.35039 35.358 7.62866 35.0798C7.90694 34.8015 8.28437 34.6451 8.67792 34.6451ZM4.96824 41.6935C4.96824 41.2016 5.16366 40.7298 5.51151 40.382C5.85936 40.0341 6.33115 39.8387 6.82308 39.8387H10.5328C11.0247 39.8387 11.4965 40.0341 11.8443 40.382C12.1922 40.7298 12.3876 41.2016 12.3876 41.6935V46.5161H4.96824V41.6935Z" fill="#111111"/>
<path d="M2.74193 12.3871H7.93548V13.871H6.45161V15.3548H10.9032V13.871H9.41935V12.3871H14.6129C14.8097 12.3871 14.9984 12.3089 15.1375 12.1698C15.2767 12.0306 15.3548 11.8419 15.3548 11.6452V2.74193C15.3548 2.54516 15.2767 2.35645 15.1375 2.21731C14.9984 2.07817 14.8097 2 14.6129 2H2.74193C2.54516 2 2.35645 2.07817 2.21731 2.21731C2.07817 2.35645 2 2.54516 2 2.74193V11.6452C2 11.8419 2.07817 12.0306 2.21731 12.1698C2.35645 12.3089 2.54516 12.3871 2.74193 12.3871ZM3.48387 3.48387H13.871V10.9032H3.48387V3.48387Z" fill="#111111"/>
<path d="M47.2594 2H35.3884C35.1916 2 35.0029 2.07817 34.8638 2.21731C34.7247 2.35645 34.6465 2.54516 34.6465 2.74193V14.6129C34.6465 14.8097 34.7247 14.9984 34.8638 15.1375C35.0029 15.2767 35.1916 15.3548 35.3884 15.3548H47.2594C47.4561 15.3548 47.6449 15.2767 47.784 15.1375C47.9231 14.9984 48.0013 14.8097 48.0013 14.6129V2.74193C48.0013 2.54516 47.9231 2.35645 47.784 2.21731C47.6449 2.07817 47.4561 2 47.2594 2ZM40.211 3.48387H42.4368V6.45161H40.211V3.48387ZM46.5174 13.871H36.1304V3.48387H38.7271V7.19354C38.7271 7.39032 38.8053 7.57903 38.9444 7.71817C39.0836 7.85731 39.2723 7.93548 39.4691 7.93548H43.1787C43.3755 7.93548 43.5642 7.85731 43.7034 7.71817C43.8425 7.57903 43.9207 7.39032 43.9207 7.19354V3.48387H46.5174V13.871Z" fill="#111111"/>
<path d="M44.2895 36.871C44.2895 36.4308 44.159 36.0004 43.9144 35.6344C43.6698 35.2684 43.3222 34.9831 42.9155 34.8146C42.5088 34.6462 42.0612 34.6021 41.6295 34.688C41.1977 34.7739 40.8011 34.9858 40.4898 35.2971C40.1785 35.6084 39.9665 36.005 39.8807 36.4368C39.7948 36.8685 39.8389 37.3161 40.0073 37.7228C40.1758 38.1295 40.4611 38.4771 40.8271 38.7217C41.1931 38.9663 41.6235 39.0968 42.0637 39.0968C42.654 39.0968 43.2202 38.8623 43.6376 38.4449C44.055 38.0275 44.2895 37.4613 44.2895 36.871ZM41.3218 36.871C41.3218 36.7243 41.3653 36.5808 41.4468 36.4588C41.5283 36.3368 41.6442 36.2417 41.7798 36.1856C41.9153 36.1294 42.0645 36.1147 42.2084 36.1433C42.3524 36.172 42.4846 36.2426 42.5883 36.3464C42.6921 36.4501 42.7627 36.5823 42.7914 36.7263C42.82 36.8702 42.8053 37.0194 42.7492 37.1549C42.693 37.2905 42.5979 37.4064 42.4759 37.4879C42.3539 37.5694 42.2104 37.6129 42.0637 37.6129C41.8669 37.6129 41.6782 37.5348 41.5391 37.3956C41.3999 37.2565 41.3218 37.0678 41.3218 36.871Z" fill="#111111"/>
<path d="M36.8711 45.0323C36.8711 46.7239 39.1043 48 42.0646 48C45.025 48 47.2582 46.7239 47.2582 45.0323C47.2582 43.8518 46.1453 42.8547 44.4084 42.3784L46.1149 39.3446C46.5125 38.6375 46.7181 37.8387 46.7112 37.0275C46.7043 36.2163 46.4852 35.421 46.0756 34.7208C45.666 34.0206 45.0803 33.4398 44.3766 33.0362C43.6729 32.6325 42.8759 32.4202 42.0646 32.4202C41.2534 32.4202 40.4563 32.6325 39.7527 33.0362C39.049 33.4398 38.4632 34.0206 38.0537 34.7208C37.6441 35.421 37.425 36.2163 37.4181 37.0275C37.4112 37.8387 37.6168 38.6375 38.0144 39.3446L39.7209 42.3784C37.984 42.8547 36.8711 43.8518 36.8711 45.0323ZM39.3069 38.6175C39.0363 38.1361 38.8964 37.5922 38.9011 37.04C38.9059 36.4878 39.0551 35.9464 39.334 35.4698C39.6129 34.9931 40.0117 34.5977 40.4907 34.323C40.9698 34.0482 41.5124 33.9037 42.0646 33.9037C42.6169 33.9037 43.1595 34.0482 43.6386 34.323C44.1176 34.5977 44.5164 34.9931 44.7953 35.4698C45.0741 35.9464 45.2234 36.4878 45.2281 37.04C45.2329 37.5922 45.093 38.1361 44.8224 38.6175L42.0646 43.5187L39.3069 38.6175ZM40.4739 43.7176L41.4184 45.3958C41.483 45.5104 41.5769 45.6057 41.6904 45.672C41.804 45.7383 41.9331 45.7733 42.0646 45.7733C42.1961 45.7733 42.3253 45.7383 42.4388 45.672C42.5524 45.6057 42.6463 45.5104 42.7109 45.3958L43.6553 43.7176C44.9738 43.9936 45.7743 44.5812 45.7743 45.0323C45.7743 45.6369 44.329 46.5161 42.0646 46.5161C39.8003 46.5161 38.355 45.6369 38.355 45.0323C38.355 44.5812 39.1555 43.9936 40.4739 43.7176Z" fill="#111111"/>
<path d="M9.41901 30.1936V21.418L10.6662 23.1986L11.8815 22.3484L9.28472 18.6387C9.21288 18.5459 9.12077 18.4709 9.01545 18.4192C8.91012 18.3676 8.79438 18.3408 8.67707 18.3408C8.55977 18.3408 8.44402 18.3676 8.3387 18.4192C8.23337 18.4709 8.14127 18.5459 8.06943 18.6387L5.47266 22.3484L6.68795 23.1986L7.93514 21.418V30.1936H9.41901Z" fill="#111111"/>
<path d="M41.3238 18.3226V26.3562L40.0766 24.5756L38.8613 25.4259L41.4581 29.1355C41.5265 29.2332 41.6175 29.3129 41.7232 29.368C41.829 29.423 41.9465 29.4517 42.0657 29.4517C42.185 29.4517 42.3025 29.423 42.4082 29.368C42.514 29.3129 42.605 29.2332 42.6734 29.1355L45.2702 25.4259L44.0549 24.5756L42.8077 26.3562V18.3226H41.3238Z" fill="#111111"/>
<path d="M17.9512 9.41937H28.9518L27.1712 10.6666L28.0215 11.8819L31.7311 9.28508C31.8288 9.21666 31.9085 9.12571 31.9636 9.01994C32.0186 8.91416 32.0473 8.79668 32.0473 8.67744C32.0473 8.5582 32.0186 8.44071 31.9636 8.33494C31.9085 8.22916 31.8288 8.13821 31.7311 8.06979L28.0215 5.47302L27.1712 6.68831L28.9518 7.9355H17.9512V9.41937Z" fill="#111111"/>
<path d="M32.0493 39.8387H21.0486L22.8293 38.5915L21.979 37.3762L18.2693 39.973C18.1717 40.0414 18.092 40.1324 18.0369 40.2381C17.9819 40.3439 17.9531 40.4614 17.9531 40.5806C17.9531 40.6999 17.9819 40.8174 18.0369 40.9231C18.092 41.0289 18.1717 41.1199 18.2693 41.1883L21.979 43.7851L22.8293 42.5698L21.0486 41.3226H32.0493V39.8387Z" fill="#111111"/>
<path d="M19.1064 26.3399C19.0635 26.4988 19.0534 26.6647 19.0766 26.8275C19.0998 26.9904 19.1559 27.1469 19.2414 27.2874L20.0783 28.6733C20.2496 28.9542 20.5233 29.1576 20.8416 29.2406C21.16 29.3237 21.4981 29.2799 21.7848 29.1185L21.9777 29.0124C22.2668 29.2147 22.5758 29.3869 22.8999 29.5266V29.692C22.9027 30.0244 23.0373 30.3422 23.2742 30.5753C23.5112 30.8085 23.831 30.9381 24.1634 30.9355H25.8372C26.1688 30.9375 26.4876 30.8081 26.7239 30.5756C26.9603 30.3431 27.095 30.0265 27.0985 29.695V29.5258C27.4228 29.3865 27.7318 29.2143 28.0207 29.0117L28.2144 29.1185C28.5016 29.2793 28.8401 29.3223 29.1584 29.2384C29.4768 29.1545 29.7501 28.9503 29.9208 28.6689L30.7563 27.2844C30.8421 27.1439 30.8984 26.9873 30.9217 26.8243C30.945 26.6613 30.9349 26.4952 30.892 26.3362C30.8479 26.1747 30.7719 26.0237 30.6684 25.892C30.5649 25.7604 30.4361 25.6508 30.2896 25.5698L30.1293 25.4815C30.163 25.1589 30.163 24.8337 30.1293 24.5111L30.2896 24.4228C30.4361 24.3418 30.5649 24.2322 30.6684 24.1006C30.7719 23.9689 30.8479 23.8179 30.892 23.6564C30.9349 23.4975 30.945 23.3316 30.9218 23.1688C30.8986 23.0059 30.8425 22.8495 30.757 22.7089L29.9201 21.323C29.7487 21.0423 29.475 20.839 29.1567 20.756C28.8384 20.673 28.5004 20.7166 28.2136 20.8778L28.0207 20.9839C27.7316 20.7817 27.4226 20.6094 27.0985 20.4698V20.3043C27.0948 19.9729 26.96 19.6565 26.7237 19.4242C26.4873 19.1919 26.1686 19.0626 25.8372 19.0645H24.1634C23.8319 19.0626 23.5131 19.192 23.2767 19.4244C23.0403 19.6569 22.9057 19.9735 22.9021 20.3051V20.4742C22.5779 20.6135 22.2689 20.7858 21.9799 20.9884L21.7863 20.8815C21.499 20.7209 21.1606 20.678 20.8423 20.7619C20.524 20.8458 20.2507 21.0498 20.0798 21.3311L19.2444 22.7156C19.1586 22.8562 19.1023 23.0127 19.079 23.1757C19.0556 23.3387 19.0657 23.5048 19.1086 23.6638C19.1527 23.8253 19.2288 23.9763 19.3323 24.108C19.4357 24.2396 19.5645 24.3492 19.7111 24.4302L19.8713 24.5185C19.8377 24.8411 19.8377 25.1663 19.8713 25.489L19.7111 25.5772C19.5645 25.6576 19.4355 25.7665 19.3317 25.8975C19.2278 26.0285 19.1512 26.1789 19.1064 26.3399ZM21.3278 25C21.3276 24.8446 21.3387 24.6894 21.3611 24.5356C21.3937 24.289 21.3506 24.0384 21.2376 23.8169C21.1246 23.5954 20.947 23.4134 20.7283 23.295L20.6504 23.2513L21.2439 22.2727L21.376 22.3469C21.5935 22.4642 21.8399 22.5172 22.0864 22.4996C22.3329 22.482 22.5693 22.3945 22.7678 22.2474C23.0196 22.0628 23.2939 21.911 23.584 21.7956C23.8186 21.706 24.0209 21.548 24.1646 21.342C24.3083 21.136 24.3867 20.8916 24.3897 20.6404V20.5484H25.6228V20.6397C25.6258 20.8908 25.7042 21.1353 25.8479 21.3413C25.9916 21.5473 26.1939 21.7053 26.4286 21.7949C26.7187 21.9108 26.9929 22.0631 27.2447 22.2482C27.4433 22.3943 27.6793 22.4811 27.9253 22.4985C28.1713 22.5158 28.4172 22.463 28.6343 22.3461L28.7664 22.2719L29.3599 23.2505L29.2857 23.2936C29.067 23.412 28.8893 23.5939 28.776 23.8154C28.6628 24.0368 28.6193 24.2874 28.6514 24.5341C28.6702 24.6886 28.6774 24.8444 28.6729 25C28.6731 25.1554 28.6619 25.3107 28.6395 25.4645C28.607 25.711 28.6501 25.9616 28.7631 26.1831C28.8761 26.4046 29.0537 26.5866 29.2724 26.705L29.3466 26.7488L28.753 27.7274L28.621 27.6532C28.4033 27.5364 28.157 27.4838 27.9106 27.5014C27.6643 27.519 27.428 27.6061 27.2291 27.7526C26.9773 27.9372 26.7031 28.0891 26.413 28.2044C26.1783 28.294 25.976 28.452 25.8323 28.658C25.6886 28.864 25.6102 29.1085 25.6072 29.3596V29.4516H24.3838V29.3604C24.3808 29.1092 24.3024 28.8648 24.1587 28.6588C24.015 28.4528 23.8127 28.2947 23.578 28.2052C23.2879 28.0892 23.0137 27.9369 22.7619 27.7519C22.5633 27.6057 22.3273 27.5189 22.0813 27.5015C21.8353 27.4842 21.5894 27.537 21.3723 27.6539L21.2402 27.7281L20.6467 26.7495L20.7208 26.7065C20.9396 26.5881 21.1173 26.4061 21.2306 26.1847C21.3438 25.9632 21.3873 25.7126 21.3552 25.4659C21.3344 25.3115 21.3252 25.1558 21.3278 25Z" fill="#111111"/>
<path d="M24.9991 27.5968C25.5127 27.5968 26.0148 27.4445 26.4418 27.1592C26.8688 26.8738 27.2017 26.4683 27.3982 25.9938C27.5948 25.5193 27.6462 24.9972 27.546 24.4934C27.4458 23.9897 27.1985 23.527 26.8353 23.1638C26.4721 22.8007 26.0094 22.5534 25.5057 22.4532C25.002 22.353 24.4799 22.4044 24.0054 22.6009C23.5309 22.7975 23.1253 23.1303 22.84 23.5573C22.5546 23.9844 22.4023 24.4864 22.4023 25C22.4023 25.6887 22.6759 26.3492 23.1629 26.8362C23.6499 27.3232 24.3104 27.5968 24.9991 27.5968ZM24.9991 23.8871C25.2192 23.8871 25.4344 23.9524 25.6174 24.0747C25.8004 24.197 25.9431 24.3708 26.0273 24.5741C26.1115 24.7775 26.1336 25.0013 26.0906 25.2171C26.0477 25.433 25.9417 25.6313 25.7861 25.787C25.6304 25.9426 25.4321 26.0486 25.2162 26.0915C25.0004 26.1345 24.7766 26.1125 24.5732 26.0282C24.3699 25.944 24.1961 25.8013 24.0738 25.6183C23.9515 25.4353 23.8862 25.2201 23.8862 25C23.8862 24.7049 24.0035 24.4218 24.2122 24.2131C24.4209 24.0044 24.704 23.8871 24.9991 23.8871Z" fill="#111111"/>
</svg>
