<svg width="75" height="75" viewBox="0 0 75 75" fill="none" xmlns="http://www.w3.org/2000/svg">
<path d="M30.1907 51.9521C29.9229 51.9521 29.6531 51.86 29.433 51.6725L21.8588 45.2231C21.5975 45.0003 21.4473 44.6751 21.4473 44.3315C21.4473 43.9886 21.5981 43.6633 21.8588 43.4406L29.433 36.9911C29.9248 36.5718 30.6636 36.6312 31.0829 37.123C31.5016 37.6155 31.4428 38.3543 30.9503 38.773L24.4231 44.3315L30.9503 49.89C31.4428 50.3094 31.5016 51.0481 31.0829 51.54C30.8511 51.8123 30.5219 51.9521 30.1907 51.9521Z" fill="#FF8303"/>
<path d="M45.1437 51.9521C44.8126 51.9521 44.4834 51.8123 44.2521 51.54C43.8328 51.0481 43.8922 50.3094 44.3841 49.89L50.9113 44.3315L44.3841 38.773C43.8922 38.3543 43.8328 37.6155 44.2521 37.123C44.6708 36.6312 45.4102 36.5718 45.9014 36.9911L53.4756 43.4406C53.7369 43.6633 53.8872 43.9886 53.8872 44.3315C53.8872 44.6751 53.7369 45.0003 53.4756 45.2231L45.9014 51.6725C45.6813 51.86 45.4115 51.9521 45.1437 51.9521Z" fill="#FF8303"/>
<path d="M34.9868 56.7896C34.9065 56.7896 34.8255 56.7811 34.7438 56.7641C34.1115 56.6308 33.7066 56.0097 33.8398 55.3774L38.5603 32.9649C38.6936 32.3327 39.3141 31.9277 39.947 32.0609C40.5793 32.1942 40.9843 32.8147 40.851 33.4476L36.1305 55.8601C36.0142 56.4114 35.5283 56.7896 34.9868 56.7896Z" fill="#FF8303"/>
<path d="M65.2581 69H10.0778C5.7446 69 2.21875 65.4748 2.21875 61.141V14.3069C2.21875 9.97372 5.7446 6.44788 10.0778 6.44788H65.2581C69.5913 6.44788 73.1172 9.97372 73.1172 14.3069V61.141C73.1172 65.4748 69.5913 69 65.2581 69ZM10.0778 8.78886C7.03528 8.78886 4.55974 11.2644 4.55974 14.3069V61.141C4.55974 64.1835 7.03528 66.659 10.0778 66.659H65.2581C68.3006 66.659 70.7762 64.1835 70.7762 61.141V14.3069C70.7762 11.2644 68.3006 8.78886 65.2581 8.78886H10.0778Z" fill="white"/>
<path d="M71.9467 25.1908H3.38924C2.7426 25.1908 2.21875 24.6669 2.21875 24.0203C2.21875 23.3743 2.7426 22.8498 3.38924 22.8498H71.9467C72.5933 22.8498 73.1172 23.3743 73.1172 24.0203C73.1172 24.6669 72.5933 25.1908 71.9467 25.1908Z" fill="white"/>
<path d="M22.2178 19.5898C20.176 19.5898 18.5137 17.9275 18.5137 15.8856C18.5137 13.8431 20.176 12.1815 22.2178 12.1815C24.2603 12.1815 25.922 13.8431 25.922 15.8856C25.922 17.9275 24.2603 19.5898 22.2178 19.5898ZM22.2178 14.5224C21.4667 14.5224 20.8547 15.1338 20.8547 15.8856C20.8547 16.6374 21.4667 17.2488 22.2178 17.2488C22.9696 17.2488 23.581 16.6374 23.581 15.8856C23.581 15.1338 22.9696 14.5224 22.2178 14.5224Z" fill="white"/>
<path d="M10.835 19.5539C8.79254 19.5539 7.13086 17.8922 7.13086 15.8497C7.13086 13.8073 8.79254 12.1456 10.835 12.1456C12.8775 12.1456 14.5392 13.8073 14.5392 15.8497C14.5392 17.8922 12.8775 19.5539 10.835 19.5539ZM10.835 14.4866C10.0839 14.4866 9.47184 15.0986 9.47184 15.8497C9.47184 16.6015 10.0839 17.2129 10.835 17.2129C11.5868 17.2129 12.1982 16.6015 12.1982 15.8497C12.1982 15.0986 11.5868 14.4866 10.835 14.4866Z" fill="white"/>
<path d="M33.598 19.625C31.5562 19.625 29.8945 17.9633 29.8945 15.9209C29.8945 13.879 31.5562 12.2173 33.598 12.2173C35.6405 12.2173 37.3022 13.879 37.3022 15.9209C37.3022 17.9633 35.6405 19.625 33.598 19.625ZM33.598 14.5577C32.8469 14.5577 32.2355 15.1691 32.2355 15.9209C32.2355 16.6727 32.8469 17.284 33.598 17.284C34.3498 17.284 34.9612 16.6727 34.9612 15.9209C34.9612 15.1691 34.3498 14.5577 33.598 14.5577Z" fill="white"/>
</svg>
