<svg width="75" height="75" viewBox="0 0 75 75" fill="none" xmlns="http://www.w3.org/2000/svg">
<path d="M41.6016 44.8676V40.3345" stroke="#FF8303" stroke-width="2.23079"/>
<path d="M50.668 53.9337V49.4006" stroke="#FF8303" stroke-width="2.23079"/>
<path d="M59.7363 60.7335V56.2004" stroke="#FF8303" stroke-width="2.23079"/>
<mask id="path-4-inside-1_376_1066" fill="white">
<rect x="12.1367" y="13.136" width="22.6655" height="22.6655" rx="1.81324"/>
</mask>
<rect x="12.1367" y="13.136" width="22.6655" height="22.6655" rx="1.81324" stroke="white" stroke-width="4.46159" mask="url(#path-4-inside-1_376_1066)"/>
<mask id="path-5-inside-2_376_1066" fill="white">
<rect x="12.1367" y="40.3345" width="22.6655" height="22.6655" rx="1.81324"/>
</mask>
<rect x="12.1367" y="40.3345" width="22.6655" height="22.6655" rx="1.81324" stroke="white" stroke-width="4.46159" mask="url(#path-5-inside-2_376_1066)"/>
<mask id="path-6-inside-3_376_1066" fill="white">
<rect x="39.3359" y="13.136" width="22.6655" height="22.6655" rx="1.81324"/>
</mask>
<rect x="39.3359" y="13.136" width="22.6655" height="22.6655" rx="1.81324" stroke="white" stroke-width="4.46159" mask="url(#path-6-inside-3_376_1066)"/>
<path d="M41.6016 51.6672V60.7334H50.6677" stroke="#FF8303" stroke-width="2.23079"/>
<path d="M59.7363 49.4006V42.601H52.9367" stroke="#FF8303" stroke-width="2.23079"/>
<path d="M23.4688 22.2021V26.7352" stroke="white" stroke-width="3.34619"/>
<path d="M23.4688 49.4008V53.9338" stroke="white" stroke-width="3.34619"/>
<path d="M50.668 22.2021V26.7352" stroke="white" stroke-width="3.34619"/>
<path d="M22.5 7H10C7.79086 7 6 8.79086 6 11V22.5" stroke="white" stroke-width="2"/>
<path d="M22.5 68.5H10C7.79086 68.5 6 66.7091 6 64.5V53" stroke="white" stroke-width="2"/>
<path d="M52 7H64.5C66.7091 7 68.5 8.79086 68.5 11V22.5" stroke="white" stroke-width="2"/>
<path d="M52 68.5H64.5C66.7091 68.5 68.5 66.7091 68.5 64.5V53" stroke="white" stroke-width="2"/>
</svg>
