<svg width="75" height="75" viewBox="0 0 75 75" fill="none" xmlns="http://www.w3.org/2000/svg">
<path d="M6.83898 49.6306C5.69093 49.8814 3.71338 49.6268 3.71338 48.0608V16.6835C3.71338 15.8179 4.41335 15.1138 5.27353 15.1138H57.722C59.5197 15.1138 59.5862 17.8513 59.2821 19.0521C59.2821 19.9118 59.9793 20.609 60.839 20.609C61.6987 20.609 62.3959 19.9118 62.3959 19.0521C62.8553 15.9527 61.4443 12.0001 57.722 12.0001H5.27353C2.69642 12.0001 0.599609 14.1011 0.599609 16.6835V48.0608C0.599609 51.3791 3.90425 53.0596 6.83898 52.7443C7.69869 52.7443 8.39586 52.0472 8.39586 51.1874C8.39586 50.3277 7.69884 49.6306 6.83898 49.6306Z" fill="white"/>
<path d="M68.7845 23.2557H16.336C13.7588 23.2557 11.6621 25.3568 11.6621 27.9392V59.3166C11.6621 61.899 13.7589 64 16.336 64H68.7845C71.3616 64 73.4584 61.899 73.4584 59.3166V27.9392C73.4584 25.3568 71.3616 23.2557 68.7845 23.2557ZM70.3446 59.3166C70.3446 60.1822 69.6447 60.8862 68.7845 60.8862H16.336C15.4759 60.8862 14.7759 60.1822 14.7759 59.3166V27.9392C14.7759 27.0735 15.4759 26.3695 16.336 26.3695H68.7845C69.6447 26.3695 70.3446 27.0735 70.3446 27.9392V59.3166Z" fill="white"/>
<path d="M52.6802 43.9725H62.5914C64.3084 43.9725 65.7052 42.5757 65.7052 40.8588V35.8073C65.7052 34.0904 64.3084 32.6935 62.5914 32.6935H52.6802C50.9632 32.6935 49.5664 34.0904 49.5664 35.8073V40.8588C49.5664 42.5759 50.9632 43.9725 52.6802 43.9725Z" fill="#FF8303"/>
<path d="M64.7696 50.97H58.3206C57.4608 50.97 56.7637 51.6671 56.7637 52.5269C56.7637 53.3866 57.4608 54.0837 58.3206 54.0837H64.7696C65.6293 54.0837 66.3265 53.3866 66.3265 52.5269C66.3265 51.6671 65.6293 50.97 64.7696 50.97Z" fill="white"/>
<path d="M52.1427 50.97H45.6936C44.8339 50.97 44.1367 51.6671 44.1367 52.5269C44.1367 53.3866 44.8339 54.0837 45.6936 54.0837H52.1427C53.0024 54.0837 53.6996 53.3866 53.6996 52.5269C53.6996 51.6671 53.0024 50.97 52.1427 50.97Z" fill="white"/>
<path d="M39.4298 50.97H32.9807C32.121 50.97 31.4238 51.6671 31.4238 52.5269C31.4238 53.3866 32.121 54.0837 32.9807 54.0837H39.4298C40.2895 54.0837 40.9867 53.3866 40.9867 52.5269C40.9867 51.6671 40.2895 50.97 39.4298 50.97Z" fill="white"/>
<path d="M26.8048 50.97H20.3557C19.496 50.97 18.7988 51.6671 18.7988 52.5269C18.7988 53.3866 19.496 54.0837 20.3557 54.0837H26.8048C27.6645 54.0837 28.3617 53.3866 28.3617 52.5269C28.3617 51.6671 27.6647 50.97 26.8048 50.97Z" fill="white"/>
</svg>
