<svg width="47" height="52" viewBox="0 0 47 52" fill="none" xmlns="http://www.w3.org/2000/svg">
<path d="M9.05588 45.1328C8.95835 42.7791 8.96123 41.2537 9.0606 38.363C9.06181 38.3279 9.07292 38.2924 9.09202 38.2629C11.0611 35.2151 12.4366 33.7791 14.3268 36.7207C14.4068 36.8451 14.5926 36.8441 14.6731 36.72C16.1821 34.3926 17.2589 35.7606 18.4107 38.5915C18.4581 38.7082 18.603 38.751 18.7068 38.6795C21.2199 36.9486 21.8806 37.1339 22.2701 40.344C22.2869 40.4828 22.4402 40.5615 22.5666 40.5016C25.0286 39.3352 24.7289 42.874 24.8447 46.1568C24.8457 46.1856 24.8403 46.2142 24.829 46.2407L23.0594 50.3698C23.0375 50.4208 22.9943 50.4603 22.9418 50.4781C20.9168 51.1623 19.7054 51.6138 19.4077 48.8912C19.3934 48.761 19.2596 48.6777 19.1365 48.7224C18.1053 49.0971 17.3007 49.1412 15.5795 48.6686C15.4953 48.6454 15.4367 48.5685 15.4367 48.4812V46.5156C15.4367 46.3707 15.284 46.2764 15.1534 46.3392C14.0312 46.8789 13.2653 47.1213 12.0264 47.3692C11.9062 47.3932 11.7943 47.301 11.7943 47.1785V45.5212C11.7943 45.4003 11.6853 45.3087 11.5659 45.3279C10.7871 45.4531 10.2395 45.4858 9.21732 45.3165C9.12704 45.3015 9.05966 45.2243 9.05588 45.1328Z" stroke="#215CFF" stroke-width="1.2"/>
<path d="M22.2803 31.9106C22.6818 31.939 23.8323 32.2465 25.5352 33.4253L25.5459 33.4331C27.4541 34.745 29.4043 36.0109 31.333 37.2017L31.4746 39.4565L27.0176 36.3706V41.8579L26.252 41.269C25.8751 40.1514 25.1713 39.1099 24.042 38.2886L23.9775 38.2417L23.9121 38.1978L23.707 38.0679C22.7771 37.4976 21.807 37.2353 20.8594 37.1948C20.8346 37.1745 20.8109 37.1531 20.7861 37.1333L20.7031 37.0669L20.6162 37.0044C20.009 36.5707 19.3536 36.2816 18.6875 36.1089C18.5328 35.934 18.364 35.7659 18.1826 35.603L18.1035 35.5239L17.8311 35.2505L17.5811 35.0845C17.6133 35.0741 17.6452 35.0654 17.6758 35.0552C18.0234 34.9393 18.3375 34.8146 18.5986 34.6968C18.7264 34.6391 18.8696 34.5707 19.0127 34.4937C19.043 34.4773 19.0781 34.4545 19.1191 34.4312L19.1455 34.4185L19.7109 34.1353L20.1592 33.688L20.3164 33.5298C20.2795 33.5667 20.3157 33.5299 20.4932 33.3774C20.6419 33.2496 20.8333 33.0893 21.0508 32.9097C21.4525 32.5778 21.9085 32.2086 22.2803 31.9106ZM8.97363 31.8071C9.29687 32.506 9.72506 33.1171 10.2168 33.6089C10.2972 33.6893 10.5032 33.8978 10.7031 34.0728C10.8027 34.1599 11.0182 34.345 11.3076 34.5259C11.314 34.5299 11.3219 34.5335 11.3301 34.5386C10.4647 34.9232 9.69848 35.4677 9.05176 36.0659L8.19336 35.2671L8.97363 31.8071Z" stroke="#FF8303" stroke-width="7.8"/>
<path d="M3.30566 25.5942L4.41504 25.8901C4.60619 25.9579 4.74354 26.1479 4.71484 26.4009L2.52051 35.4136C2.45219 35.6034 2.26434 35.7396 2.0127 35.7114L0.904297 35.4155C0.711905 35.3469 0.573525 35.1549 0.605469 34.8989L2.79883 25.8911C2.86746 25.7025 3.05557 25.5669 3.30566 25.5942Z" stroke="#215CFF" stroke-width="1.2"/>
<path d="M14.4854 29.8726H14.4844L14.4834 29.8716C14.4826 29.8711 14.4816 29.8704 14.4805 29.8696C14.4742 29.8653 14.4625 29.8575 14.4473 29.8462C14.4165 29.8232 14.3712 29.7875 14.3203 29.7407C14.2142 29.6432 14.1047 29.5165 14.0352 29.3774C13.9697 29.2465 13.9453 29.1183 13.9775 28.979C14.0112 28.8339 14.1235 28.6017 14.4717 28.3032L14.4824 28.2944L14.4922 28.2847L18.5078 24.5044L18.9707 24.1196L19.0371 24.064L19.0635 24.0239C19.0755 24.0131 19.1083 23.9858 19.1699 23.9536C19.2989 23.8863 19.5768 23.7847 20.0879 23.7847H20.1064L25.3232 23.6265L25.4111 23.6235L25.4932 23.5952L25.4941 23.5962H25.4922L25.4902 23.5972C25.4889 23.5976 25.4874 23.5978 25.4863 23.5981C25.4841 23.5988 25.4822 23.5999 25.4814 23.6001C25.4821 23.5999 25.4834 23.5996 25.4854 23.5991C25.4935 23.5971 25.5134 23.5919 25.5449 23.5864C25.6081 23.5755 25.72 23.5613 25.8838 23.5571C26.2073 23.5489 26.7374 23.5804 27.5039 23.7603L34.4971 26.4321L34.5059 26.436C35.0511 26.6343 35.7004 26.6719 36.2969 26.6177C36.8959 26.5632 37.5055 26.4098 37.9824 26.1714L37.998 26.1636L38.0127 26.1558C38.6239 25.8065 39.137 25.3758 39.6064 24.937C39.8405 24.7182 40.0694 24.4919 40.292 24.2729C40.5167 24.0519 40.7374 23.8359 40.9658 23.6265L40.9746 23.6177L40.9844 23.6089C41.1665 23.4267 41.2507 23.3517 41.3027 23.3257L41.3896 23.2827L41.459 23.2134C41.5001 23.1722 41.5293 23.1424 41.5576 23.1167C41.5808 23.0956 41.5971 23.0827 41.6084 23.0747C41.6488 23.0791 41.7008 23.102 41.7803 23.2212C41.8859 23.3798 41.9621 23.5967 42.0459 23.8481L42.0518 23.8657L42.0576 23.8813C42.1414 24.0909 42.2252 24.2788 42.3037 24.4556C42.3832 24.6343 42.458 24.8023 42.5322 24.9878L42.5352 24.9966L42.5391 25.0044C43.3288 26.8208 44.1232 28.6488 44.998 30.478L46.1729 33.064H46.1738C46.2081 33.144 46.2183 33.194 46.2217 33.2212C46.206 33.233 46.1778 33.2542 46.125 33.2778C45.9987 33.3343 45.8247 33.3807 45.5957 33.4312C45.3914 33.4762 45.1186 33.5284 44.8926 33.5962L44.8838 33.5991C44.4627 33.7331 44.0098 33.8511 43.5137 33.9897C43.0279 34.1255 42.5137 34.2777 42.0195 34.4722C41.2161 34.7884 40.4109 35.2357 39.8311 35.9624C36.0852 33.6144 32.3573 31.5067 28.8115 29.0171L28.8057 29.0122L28.2041 28.6157C26.7297 27.6763 24.7767 26.6885 22.9023 26.5386L22.8945 26.5376C21.6005 26.4513 20.2597 26.71 19.0898 27.6099L19.0811 27.6167L19.0791 27.6177C19.0781 27.6185 19.077 27.6201 19.0752 27.6216C19.0714 27.6246 19.0659 27.6294 19.0586 27.6353C19.0438 27.6471 19.0218 27.6638 18.9941 27.686C18.9388 27.7305 18.8594 27.7944 18.7627 27.8726C18.5692 28.0288 18.3056 28.2426 18.0273 28.4712C17.5393 28.8721 16.9755 29.3459 16.6748 29.6284C16.6284 29.6477 16.5641 29.6743 16.4854 29.7036C16.3088 29.7693 16.0666 29.8498 15.8018 29.9116C15.5343 29.974 15.2623 30.0131 15.0195 30.0073C14.7732 30.0015 14.602 29.9508 14.4932 29.8784L14.4854 29.8726Z" stroke="#215CFF" stroke-width="1.2"/>
<mask id="path-5-inside-1_116_5984" fill="white">
<path d="M26.5924 12.4975C26.5942 13.2078 26.3883 13.9032 26.0001 14.498L27.3148 15.7534L26.2595 16.8623L24.9141 15.5762C24.3245 15.9561 23.6378 16.1578 22.9364 16.1571C22.2157 16.1583 21.5107 15.9457 20.9108 15.5462L19.644 16.8708L18.5352 15.8163L19.8405 14.4487C19.4724 13.8653 19.2774 13.1894 19.2782 12.4996C19.2775 11.7889 19.4846 11.0935 19.8741 10.499L18.638 9.31443L19.6933 8.20554L20.9644 9.41731C21.5521 9.0392 22.2361 8.83806 22.935 8.83786C23.6551 8.83654 24.3594 9.04862 24.9591 9.44732L26.1566 8.19482L27.2655 9.25012L26.0287 10.5455C26.398 11.129 26.5935 11.8055 26.5924 12.496V12.4975ZM24.4954 14.0601C24.7009 13.8551 24.864 13.6115 24.9752 13.3434C25.0864 13.0752 25.1436 12.7878 25.1435 12.4975C25.1427 11.912 24.9098 11.3507 24.4958 10.9367C24.0818 10.5227 23.5205 10.2897 22.935 10.289C22.3496 10.2899 21.7885 10.5229 21.3746 10.9369C20.9608 11.3509 20.728 11.9121 20.7272 12.4975C20.7274 13.0832 20.9601 13.6449 21.3742 14.0591C21.7883 14.4734 22.35 14.7063 22.9357 14.7067C23.2251 14.7074 23.5118 14.651 23.7793 14.5406C24.0469 14.4303 24.29 14.2682 24.4947 14.0636L24.4954 14.0601Z"/>
</mask>
<path d="M26.5924 12.4975H24.6414L24.6414 12.5024L26.5924 12.4975ZM26.0001 14.498L24.3662 13.4318L23.4802 14.7895L24.6527 15.9091L26.0001 14.498ZM27.3148 15.7534L28.7281 17.0984L30.0708 15.6875L28.6622 14.3423L27.3148 15.7534ZM26.2595 16.8623L24.9113 18.2726L26.3248 19.6237L27.6728 18.2073L26.2595 16.8623ZM24.9141 15.5762L26.2623 14.1659L25.1503 13.103L23.8573 13.9362L24.9141 15.5762ZM22.9364 16.1571L22.9385 14.206L22.9332 14.206L22.9364 16.1571ZM20.9108 15.5462L21.9922 13.9222L20.631 13.0159L19.5008 14.1977L20.9108 15.5462ZM19.644 16.8708L18.2995 18.2846L19.7094 19.6254L21.0541 18.2193L19.644 16.8708ZM18.5352 15.8163L17.1239 14.4691L15.7742 15.883L17.1906 17.23L18.5352 15.8163ZM19.8405 14.4487L21.2518 15.7959L22.3028 14.6948L21.4905 13.4075L19.8405 14.4487ZM19.2782 12.4996L21.2293 12.502L21.2292 12.4976L19.2782 12.4996ZM19.8741 10.499L21.5061 11.5682L22.3945 10.2122L21.2241 9.09046L19.8741 10.499ZM18.638 9.31443L17.2247 7.96941L15.8844 9.37778L17.2881 10.723L18.638 9.31443ZM19.6933 8.20554L21.0396 6.79341L19.6262 5.44598L18.28 6.86053L19.6933 8.20554ZM20.9644 9.41731L19.6182 10.8294L20.7292 11.8886L22.02 11.0581L20.9644 9.41731ZM22.935 8.83786L22.9355 10.7889L22.9385 10.7889L22.935 8.83786ZM24.9591 9.44732L23.8789 11.072L25.2399 11.9769L26.3693 10.7956L24.9591 9.44732ZM26.1566 8.19482L27.5016 6.78151L26.0915 5.4396L24.7464 6.84656L26.1566 8.19482ZM27.2655 9.25012L28.6766 10.5974L30.0261 9.18401L28.6105 7.83681L27.2655 9.25012ZM26.0287 10.5455L24.6176 9.19818L23.5648 10.3008L24.3802 11.589L26.0287 10.5455ZM26.5924 12.496L24.6414 12.4929V12.496H26.5924ZM24.4954 14.0601L23.1176 12.6787L22.6983 13.0969L22.5822 13.6776L24.4954 14.0601ZM25.1435 12.4975L27.0945 12.4966L27.0945 12.4949L25.1435 12.4975ZM22.935 10.289L22.9375 8.33795L22.9318 8.33796L22.935 10.289ZM20.7272 12.4975L18.7762 12.4949L18.7762 12.4981L20.7272 12.4975ZM22.9357 14.7067L22.9407 12.7556L22.9369 12.7556L22.9357 14.7067ZM24.4947 14.0636L25.8737 15.4438L26.292 15.0259L26.4079 14.446L24.4947 14.0636ZM24.6414 12.5024C24.6422 12.8324 24.5466 13.1554 24.3662 13.4318L27.634 15.5643C28.2301 14.6509 28.5462 13.5832 28.5435 12.4926L24.6414 12.5024ZM24.6527 15.9091L25.9674 17.1644L28.6622 14.3423L27.3475 13.087L24.6527 15.9091ZM25.9015 14.4084L24.8462 15.5173L27.6728 18.2073L28.7281 17.0984L25.9015 14.4084ZM27.6076 15.452L26.2623 14.1659L23.5659 16.9865L24.9113 18.2726L27.6076 15.452ZM23.8573 13.9362C23.5834 14.1127 23.2643 14.2064 22.9385 14.206L22.9343 18.1081C24.0113 18.1093 25.0657 17.7996 25.9709 17.2162L23.8573 13.9362ZM22.9332 14.206C22.5984 14.2066 22.2709 14.1078 21.9922 13.9222L19.8295 17.1701C20.7506 17.7835 21.8329 18.1099 22.9396 18.1081L22.9332 14.206ZM19.5008 14.1977L18.234 15.5224L21.0541 18.2193L22.3209 16.8946L19.5008 14.1977ZM20.9886 15.4571L19.8797 14.4025L17.1906 17.23L18.2995 18.2846L20.9886 15.4571ZM19.9464 17.1634L21.2518 15.7959L18.4292 13.1016L17.1239 14.4691L19.9464 17.1634ZM21.4905 13.4075C21.3194 13.1365 21.2289 12.8225 21.2292 12.502L17.3272 12.4972C17.3259 13.5564 17.6253 14.5942 18.1906 15.49L21.4905 13.4075ZM21.2292 12.4976C21.2289 12.1675 21.3251 11.8444 21.5061 11.5682L18.2421 9.42986C17.6441 10.3426 17.3261 11.4104 17.3272 12.5016L21.2292 12.4976ZM21.2241 9.09046L19.988 7.90584L17.2881 10.723L18.5241 11.9076L21.2241 9.09046ZM20.0514 10.6594L21.1067 9.55055L18.28 6.86053L17.2247 7.96941L20.0514 10.6594ZM18.3471 9.61767L19.6182 10.8294L22.3107 8.00518L21.0396 6.79341L18.3471 9.61767ZM22.02 11.0581C22.2931 10.8824 22.6109 10.789 22.9355 10.7889L22.9344 6.88684C21.8614 6.88714 20.8111 7.19598 19.9088 7.77654L22.02 11.0581ZM22.9385 10.7889C23.2731 10.7883 23.6003 10.8868 23.8789 11.072L26.0393 7.82262C25.1186 7.21045 24.0371 6.88481 22.9314 6.88684L22.9385 10.7889ZM26.3693 10.7956L27.5668 9.54309L24.7464 6.84656L23.5489 8.09906L26.3693 10.7956ZM24.8116 9.60813L25.9205 10.6634L28.6105 7.83681L27.5016 6.78151L24.8116 9.60813ZM25.8544 7.90282L24.6176 9.19818L27.4398 11.8928L28.6766 10.5974L25.8544 7.90282ZM24.3802 11.589C24.5513 11.8593 24.6419 12.1729 24.6414 12.4929L28.5435 12.4992C28.5452 11.4382 28.2447 10.3986 27.6772 9.50202L24.3802 11.589ZM24.6414 12.496V12.4975H28.5435V12.496H24.6414ZM25.8732 15.4414C26.2605 15.0551 26.5678 14.5961 26.7774 14.0908L23.173 12.5959C23.1602 12.6269 23.1413 12.655 23.1176 12.6787L25.8732 15.4414ZM26.7774 14.0908C26.987 13.5854 27.0947 13.0437 27.0945 12.4966L23.1924 12.4983C23.1924 12.5318 23.1858 12.565 23.173 12.5959L26.7774 14.0908ZM27.0945 12.4949C27.0931 11.3929 26.6546 10.3364 25.8754 9.55709L23.1162 12.3163C23.1649 12.365 23.1923 12.4311 23.1924 12.5L27.0945 12.4949ZM25.8754 9.55709C25.0961 8.77781 24.0396 8.33939 22.9375 8.33796L22.9325 12.24C23.0014 12.2401 23.0674 12.2675 23.1162 12.3163L25.8754 9.55709ZM22.9318 8.33796C21.83 8.33974 20.7738 8.77832 19.9948 9.55756L22.7544 12.3163C22.8032 12.2676 22.8692 12.2401 22.9381 12.24L22.9318 8.33796ZM19.9948 9.55756C19.2158 10.3368 18.7776 11.3931 18.7762 12.4949L22.6782 12.5C22.6783 12.4311 22.7057 12.365 22.7544 12.3163L19.9948 9.55756ZM18.7762 12.4981C18.7765 13.6009 19.2147 14.6585 19.9944 15.4385L22.754 12.6798C22.7055 12.6313 22.6783 12.5655 22.6782 12.4968L18.7762 12.4981ZM19.9944 15.4385C20.7741 16.2185 21.8316 16.657 22.9344 16.6577L22.9369 12.7556C22.8683 12.7556 22.8025 12.7283 22.754 12.6798L19.9944 15.4385ZM22.9307 16.6577C23.477 16.6591 24.0182 16.5526 24.5233 16.3443L23.0354 12.737C23.0054 12.7494 22.9732 12.7557 22.9407 12.7556L22.9307 16.6577ZM24.5233 16.3443C25.0283 16.1359 25.4872 15.8299 25.8737 15.4438L23.1157 12.6835C23.0927 12.7064 23.0654 12.7246 23.0354 12.737L24.5233 16.3443ZM26.4079 14.446L26.4086 14.4425L22.5822 13.6776L22.5815 13.6812L26.4079 14.446Z" fill="#215CFF" mask="url(#path-5-inside-1_116_5984)"/>
<path d="M12.1494 15.3623C11.8801 15.3624 11.6163 15.4248 11.3828 15.542C11.1494 15.6592 10.9552 15.8268 10.8145 16.0254C10.6739 16.2235 10.5902 16.4479 10.5674 16.6777C10.5503 16.8501 10.5673 17.0243 10.6182 17.1914L10.6807 17.3564C12.6401 21.6886 17.2512 24.7637 22.6426 24.7637C26.1961 24.7637 29.4123 23.4266 31.7549 21.2725L32.2549 20.8125L32.6494 21.3662L33.5693 22.6572C33.6055 22.708 33.6637 22.7537 33.7402 22.7793C33.817 22.8049 33.9018 22.8065 33.9805 22.7842C34.0589 22.7619 34.1207 22.719 34.1602 22.6689C34.1795 22.6444 34.1931 22.6186 34.2021 22.5928L34.2158 22.5146L34.1807 15.6465C34.1804 15.6067 34.1698 15.565 34.1465 15.5254C34.1231 15.4857 34.0874 15.4469 34.0381 15.417L34.0371 15.418C33.9871 15.388 33.927 15.3688 33.8623 15.3643C33.7978 15.3598 33.734 15.37 33.6777 15.3936L27.0039 18.1982C26.931 18.2289 26.8783 18.2776 26.8477 18.3291C26.8327 18.3543 26.8226 18.3803 26.8174 18.4062L26.8154 18.4844C26.8228 18.5354 26.8484 18.59 26.8975 18.6367C26.9471 18.684 27.0179 18.7194 27.1006 18.7314L28.3145 18.9072L29.7812 19.1191L28.5801 19.9873C26.9325 21.1776 24.8788 21.8935 22.6426 21.8936C18.5926 21.8936 15.095 19.5755 13.6006 16.25C13.4862 15.9955 13.2905 15.7717 13.0322 15.6113C12.7738 15.4509 12.4667 15.3625 12.1494 15.3623ZM22.6426 0.599609C19.089 0.599609 15.8729 1.93681 13.5303 4.09082L13.0303 4.55078L12.6357 3.99707L11.7158 2.70605C11.6796 2.65527 11.6215 2.60959 11.5449 2.58398C11.4682 2.55837 11.3833 2.55676 11.3047 2.5791C11.2263 2.60143 11.1645 2.64428 11.125 2.69434C11.1055 2.7191 11.092 2.74538 11.083 2.77148L11.0693 2.84863L11.1045 9.7168C11.1047 9.75663 11.1154 9.79823 11.1387 9.83789C11.1621 9.87766 11.1986 9.91541 11.248 9.94531C11.298 9.97525 11.3582 9.9955 11.4229 10C11.4874 10.0044 11.5511 9.9933 11.6074 9.96973L18.2812 7.16504C18.3541 7.13441 18.4069 7.08563 18.4375 7.03418C18.4673 6.98384 18.4769 6.93027 18.4697 6.87988V6.87891C18.4623 6.82806 18.4364 6.77414 18.3877 6.72754C18.338 6.68023 18.2673 6.64384 18.1846 6.63184L16.9707 6.45605L15.5039 6.24414L16.7051 5.37598C18.3526 4.18571 20.4063 3.46973 22.6426 3.46973C26.6926 3.46975 30.1903 5.78776 31.6846 9.11328C31.7989 9.36768 31.9939 9.59157 32.252 9.75195C32.5106 9.9126 32.8191 9.99996 33.1367 10C33.4058 9.99978 33.6691 9.93843 33.9023 9.82129C34.0775 9.73333 34.2305 9.61688 34.3555 9.48047L34.4707 9.33789C34.6113 9.13977 34.6949 8.91546 34.7178 8.68555C34.7349 8.5132 34.7179 8.33905 34.667 8.17188L34.6045 8.00684C32.645 3.67467 28.0338 0.59963 22.6426 0.599609Z" fill="white" stroke="#215CFF" stroke-width="1.2"/>
</svg>
