<svg width="101" height="101" viewBox="0 0 101 101" fill="none" xmlns="http://www.w3.org/2000/svg">
<path d="M35.092 3.05433C35.4658 3.05326 35.8396 3.05185 36.2135 3.05014C37.2234 3.04656 38.2333 3.04793 39.2433 3.05044C40.3033 3.05245 41.3633 3.05058 42.4232 3.04935C44.2029 3.04791 45.9824 3.0498 47.762 3.05356C49.8157 3.05785 51.8693 3.05646 53.9229 3.05212C55.6902 3.04853 57.4575 3.04804 59.2249 3.0501C60.2786 3.05132 61.3323 3.0515 62.3861 3.04889C63.3771 3.0466 64.3679 3.04821 65.3589 3.05275C65.7212 3.05379 66.0836 3.0535 66.446 3.05175C69.2428 3.0395 71.466 3.30648 73.5819 5.32635C75.5784 7.41778 75.8694 9.6464 75.8414 12.4335C75.8411 12.7467 75.8413 13.0599 75.8417 13.3731C75.8419 14.2171 75.8373 15.061 75.8318 15.9049C75.8268 16.7892 75.8264 17.6736 75.8255 18.5579C75.823 20.2297 75.8166 21.9014 75.8086 23.5732C75.7998 25.4776 75.7955 27.3821 75.7915 29.2865C75.7833 33.2015 75.7694 37.1165 75.7518 41.0314C75.999 41.02 76.2461 41.0085 76.5008 40.9968C76.8265 40.9875 77.1522 40.9785 77.4779 40.9698C77.722 40.9574 77.722 40.9574 77.971 40.9447C79.1847 40.9203 79.1847 40.9203 79.801 41.5017C80.067 41.974 80.2322 42.3426 80.3413 42.87C80.3744 43.0244 80.4074 43.1787 80.4415 43.3377C80.4725 43.4962 80.5035 43.6546 80.5355 43.8178C80.5696 43.9778 80.6036 44.1377 80.6387 44.3025C80.7712 44.9384 80.8807 45.5085 80.8807 46.1603C81.0394 46.1766 81.198 46.1929 81.3615 46.2097C82.1199 46.3693 82.7121 46.6464 83.3966 47.0003C83.9793 47.1928 84.2437 47.1478 84.826 46.9494C85.4059 46.5829 85.963 46.2014 86.5155 45.7955C87.4368 45.1612 88.0478 45.0434 89.1659 45.174C89.5681 45.379 89.5681 45.379 89.8809 45.6918C90.0081 45.8164 90.1352 45.941 90.2662 46.0694C90.4239 46.2296 90.5815 46.3898 90.744 46.5549C90.9767 46.7748 91.21 46.9941 91.4437 47.2129C91.6956 47.4536 91.9474 47.6945 92.1988 47.9357C92.321 48.0503 92.4432 48.1649 92.5692 48.283C93.328 49.0284 93.7364 49.609 93.9002 50.6975C93.8147 51.1012 93.8147 51.1012 93.6167 51.4372C93.5429 51.5676 93.4692 51.6981 93.3932 51.8325C93.181 52.1658 92.9633 52.4956 92.7428 52.8235C92.6162 53.0129 92.4896 53.2023 92.3591 53.3975C92.1741 53.6611 92.1741 53.6611 91.9854 53.93C91.6753 54.5566 91.71 54.778 91.9276 55.4318C92.1216 55.9445 92.3357 56.4458 92.551 56.9498C92.7166 57.4045 92.7166 57.4045 92.7166 57.9963C92.831 58.0171 92.9453 58.0379 93.0631 58.0593C93.585 58.1555 94.1063 58.2546 94.6276 58.3538C94.8075 58.3865 94.9875 58.4192 95.1728 58.4528C97.0943 58.8232 97.0943 58.8232 97.8455 59.5744C97.8704 60.0934 97.8828 60.607 97.8856 61.1263C97.8867 61.2823 97.8879 61.4382 97.889 61.5989C97.8909 61.9296 97.8922 62.2602 97.8929 62.5909C97.8948 63.0971 97.901 63.6031 97.9072 64.1092C97.9085 64.43 97.9095 64.7508 97.9103 65.0716C97.9127 65.2233 97.9151 65.375 97.9176 65.5312C97.9133 66.5692 97.9133 66.5692 97.605 67.055C97.1749 67.3155 96.7944 67.4296 96.3036 67.5413C96.1204 67.5839 95.9372 67.6265 95.7484 67.6704C95.5576 67.7125 95.3668 67.7546 95.1701 67.7979C94.9785 67.8423 94.7869 67.8867 94.5895 67.9324C93.1824 68.2541 93.1824 68.2541 92.7166 68.2541C92.7004 68.4128 92.6841 68.5714 92.6673 68.7349C92.5077 69.4933 92.2306 70.0855 91.8767 70.77C91.6841 71.3528 91.7307 71.6164 91.9276 72.1994C92.2128 72.6734 92.5018 73.1261 92.8153 73.5803C93.8898 75.1372 93.8898 75.1372 93.9002 75.9474C93.5327 76.8055 93.1063 77.4059 92.4446 78.0596C92.2792 78.224 92.1138 78.3884 91.9434 78.5578C91.7713 78.7257 91.5993 78.8937 91.4221 79.0667C91.2493 79.2385 91.0765 79.4103 90.8985 79.5872C89.4175 81.05 89.4175 81.05 88.4531 81.1511C87.428 81.1384 86.7842 80.6579 85.9726 80.0777C85.026 79.3479 85.026 79.3479 83.9052 79.116C83.6775 79.2076 83.6775 79.2076 83.4452 79.301C83.1942 79.3959 83.1942 79.3959 82.9381 79.4928C82.6011 79.6366 82.2641 79.7805 81.9271 79.9244C81.4725 80.09 81.4725 80.09 80.8807 80.09C80.8483 80.3086 80.8483 80.3086 80.8152 80.5316C80.2499 84.1485 80.2499 84.1485 79.6339 84.9777C79.0921 85.3721 78.6044 85.3242 77.9541 85.2998C77.5272 85.2189 77.5272 85.2189 77.0217 84.8121C76.3665 83.4732 76.8804 81.948 77.182 80.5585C77.2426 80.2557 77.2426 80.2557 77.3045 79.9467C77.721 78.008 77.721 78.008 78.5135 77.3283C79.0219 77.0949 79.4902 76.9081 80.0177 76.7365C81.1376 76.349 82.1746 75.9247 83.2063 75.3325C83.8114 75.0909 84.1749 75.0692 84.826 75.1584C85.4105 75.4378 85.9403 75.7849 86.4781 76.1447C86.6233 76.2388 86.7685 76.3329 86.9181 76.4298C87.2744 76.6612 87.6285 76.8958 87.9823 77.131C88.205 76.947 88.4267 76.7619 88.648 76.5762C88.7716 76.4733 88.8952 76.3703 89.0225 76.2642C89.4069 75.9312 89.4069 75.9312 89.7577 75.3557C89.6152 75.1415 89.4728 74.9274 89.3261 74.7068C89.1411 74.4218 88.9561 74.1367 88.7713 73.8515C88.6772 73.7109 88.5831 73.5703 88.4862 73.4254C87.9563 72.6002 87.608 72.0253 87.785 71.0158C87.9781 70.53 88.1767 70.0851 88.4138 69.6226C88.9054 68.6374 89.2985 67.679 89.6344 66.6266C90.03 65.5826 90.03 65.5826 90.5174 65.2227C90.989 65.0563 91.433 64.9759 91.9276 64.9006C92.3924 64.7913 92.8568 64.6803 93.3208 64.5677C93.711 64.4805 94.1013 64.3939 94.492 64.3088C94.492 63.5276 94.492 62.7464 94.492 61.9416C94.2449 61.8892 93.9977 61.8368 93.743 61.7829C93.4173 61.7125 93.0916 61.6421 92.766 61.5717C92.5218 61.5202 92.5218 61.5202 92.2728 61.4677C92.0363 61.4162 92.0363 61.4162 91.795 61.3637C91.6504 61.3327 91.5058 61.3017 91.3568 61.2697C90.2717 60.9636 90.2717 60.9636 89.9303 60.3761C89.8448 60.1463 89.8448 60.1463 89.7577 59.9119C89.6926 59.7423 89.6275 59.5727 89.5604 59.3979C89.4953 59.2202 89.4302 59.0424 89.3631 58.8593C89.2323 58.5113 89.1008 58.1635 88.9686 57.816C88.8725 57.5615 88.8725 57.5615 88.7744 57.3018C88.5848 56.839 88.3679 56.4093 88.1302 55.9697C87.785 55.2851 87.6405 54.8278 87.785 54.051C88.0679 53.4681 88.4114 52.9368 88.7713 52.3989C88.8654 52.2537 88.9595 52.1085 89.0564 51.9589C89.2878 51.6026 89.5224 51.2484 89.7577 50.8947C89.5737 50.672 89.3885 50.4503 89.2028 50.2289C89.0999 50.1054 88.9969 49.9818 88.8908 49.8545C88.5578 49.47 88.5578 49.47 87.9823 49.1193C87.7682 49.2617 87.554 49.4041 87.3334 49.5508C87.0484 49.7359 86.7633 49.9209 86.4781 50.1057C86.3375 50.1997 86.1969 50.2938 86.052 50.3908C85.2267 50.9207 84.6503 51.2773 83.6424 51.092C83.0758 50.8782 82.5417 50.6149 82.0026 50.3399C81.0938 49.8902 80.2201 49.4584 79.2409 49.181C78.4018 48.8823 78.2064 48.6682 77.7244 47.9357C77.5179 47.27 77.5179 47.27 77.3792 46.5549C77.3314 46.3189 77.2836 46.0829 77.2344 45.8398C77.1478 45.2733 77.111 44.7586 77.1327 44.1877C76.677 44.1877 76.2213 44.1877 75.7518 44.1877C75.7518 47.3124 75.7518 50.4371 75.7518 53.6564C76.4028 53.6564 77.0537 53.6564 77.7244 53.6564C80.1693 54.1295 82.3302 55.6504 83.7719 57.6634C85.3627 60.1589 85.6165 62.9201 85.0911 65.8098C84.4386 67.981 82.9663 69.9718 81.0656 71.2131C80.3662 71.4512 80.0035 71.4416 79.3026 71.2131C78.8341 70.8925 78.8341 70.8925 78.5135 70.424C78.365 69.5328 78.4235 69.1717 78.945 68.4267C79.2819 68.0661 79.6349 67.7312 79.993 67.3911C81.4106 65.9026 81.763 64.5378 81.7252 62.5087C81.6121 60.9495 81.0293 59.6737 79.8944 58.5881C78.8958 57.8355 78.0338 57.4051 76.7987 57.1912C76.6028 57.1569 76.4069 57.1226 76.2051 57.0873C76.0555 57.0617 75.9059 57.0362 75.7518 57.0099C75.7525 57.1869 75.7532 57.3638 75.754 57.5461C75.7714 61.8567 75.7845 66.1672 75.7927 70.4778C75.7967 72.5624 75.8023 74.647 75.8113 76.7316C75.8192 78.549 75.8243 80.3665 75.826 82.1841C75.8271 83.1459 75.8295 84.1077 75.8352 85.0695C75.8406 85.9761 75.8422 86.8826 75.841 87.7891C75.8413 88.1207 75.8428 88.4522 75.8458 88.7837C75.8694 91.488 75.5163 93.6477 73.5819 95.674C71.3056 97.847 68.8911 97.9604 65.9116 97.946C65.5378 97.9471 65.164 97.9485 64.7901 97.9502C63.7802 97.9538 62.7702 97.9524 61.7603 97.9499C60.7003 97.9479 59.6403 97.9498 58.5803 97.951C56.8007 97.9525 55.0212 97.9506 53.2416 97.9468C51.1879 97.9425 49.1343 97.9439 47.0807 97.9482C45.3134 97.9518 43.546 97.9523 41.7787 97.9503C40.725 97.949 39.6712 97.9489 38.6175 97.9515C37.6265 97.9538 36.6357 97.9522 35.6447 97.9476C35.2823 97.9466 34.92 97.9469 34.5576 97.9486C31.7608 97.9609 29.5376 97.6939 27.4217 95.674C25.4252 93.5826 25.1342 91.354 25.1622 88.5669C25.1624 88.2537 25.1623 87.9405 25.1619 87.6273C25.1616 86.7833 25.1663 85.9394 25.1718 85.0955C25.1767 84.2111 25.1772 83.3268 25.1781 82.4425C25.1806 80.7707 25.187 79.0989 25.195 77.4272C25.2038 75.5227 25.2081 73.6183 25.2121 71.7138C25.2203 67.7988 25.2342 63.8839 25.2518 59.9689C25.0046 59.9804 24.7575 59.9918 24.5028 60.0036C24.1771 60.0129 23.8514 60.0218 23.5257 60.0306C23.363 60.0388 23.2002 60.0471 23.0326 60.0556C21.8188 60.0801 21.8188 60.0801 21.2026 59.4987C20.9366 59.0264 20.7714 58.6578 20.6623 58.1304C20.6292 57.976 20.5962 57.8217 20.5621 57.6626C20.5311 57.5042 20.5001 57.3458 20.4681 57.1826C20.417 56.9426 20.417 56.9426 20.3648 56.6979C20.2324 56.0619 20.1229 55.4918 20.1229 54.84C19.9642 54.8238 19.8055 54.8075 19.6421 54.7907C18.8836 54.631 18.2915 54.354 17.607 54.0001C17.0243 53.8076 16.7598 53.8526 16.1776 54.051C15.5977 54.4175 15.0406 54.799 14.4881 55.2049C13.5667 55.8391 12.9558 55.957 11.8377 55.8264C11.4355 55.6214 11.4355 55.6214 11.1226 55.3085C10.9955 55.1839 10.8684 55.0593 10.7374 54.931C10.5797 54.7708 10.422 54.6105 10.2596 54.4455C10.0269 54.2256 9.79362 54.0063 9.55993 53.7874C9.30794 53.5468 9.05622 53.3059 8.80477 53.0646C8.68256 52.9501 8.56034 52.8355 8.43442 52.7174C7.67558 51.972 7.26714 51.3914 7.10336 50.3029C7.18889 49.8991 7.18889 49.8991 7.38693 49.5632C7.46067 49.4327 7.53441 49.3023 7.61039 49.1679C7.82255 48.8346 8.04031 48.5048 8.26075 48.1769C8.45071 47.8928 8.45071 47.8928 8.6445 47.6028C8.82949 47.3393 8.82949 47.3393 9.01822 47.0704C9.32826 46.4437 9.29363 46.2224 9.07601 45.5685C8.88199 45.0558 8.6679 44.5546 8.45262 44.0505C8.28695 43.5959 8.28695 43.5959 8.28695 43.0041C8.1726 42.9833 8.05825 42.9625 7.94044 42.9411C7.41854 42.8449 6.89726 42.7458 6.37594 42.6465C6.19603 42.6139 6.01612 42.5812 5.83076 42.5475C3.90929 42.1772 3.90929 42.1772 3.15805 41.426C3.13323 40.9069 3.12083 40.3933 3.11798 39.874C3.11685 39.7181 3.11573 39.5622 3.11457 39.4015C3.1127 39.0708 3.11141 38.7401 3.11066 38.4095C3.10874 37.9033 3.10263 37.3973 3.0964 36.8912C3.09511 36.5704 3.09408 36.2495 3.09332 35.9287C3.09088 35.7771 3.08845 35.6254 3.08594 35.4691C3.09028 34.4312 3.09028 34.4312 3.39861 33.9453C3.82871 33.6848 4.20921 33.5707 4.69995 33.4591C4.88317 33.4165 5.06638 33.3739 5.25515 33.33C5.44599 33.2879 5.63683 33.2458 5.83346 33.2025C6.02507 33.1581 6.21667 33.1137 6.41408 33.068C7.82121 32.7463 7.82121 32.7463 8.28695 32.7463C8.31136 32.5083 8.31136 32.5083 8.33627 32.2654C8.49593 31.507 8.77302 30.9149 9.12687 30.2304C9.31944 29.6476 9.27292 29.384 9.07601 28.801C8.79077 28.327 8.50176 27.8743 8.18832 27.4201C7.11375 25.8631 7.11375 25.8631 7.10336 25.0529C7.66062 23.7626 8.53784 22.925 9.51986 21.946C9.68439 21.7759 9.84891 21.6057 10.0184 21.4305C11.6038 19.8401 11.6038 19.8401 12.8241 19.7267C13.328 19.8624 13.328 19.8624 13.7857 20.1213C14.0363 20.2594 14.0363 20.2594 14.292 20.4002C14.9368 20.7999 15.5533 21.232 16.1568 21.6917C16.7137 21.9665 16.972 21.8811 17.5584 21.6994C18.0711 21.5054 18.5724 21.2913 19.0765 21.076C19.5311 20.9103 19.5311 20.9103 20.1229 20.9103C20.1445 20.7646 20.1661 20.6189 20.1884 20.4688C20.7537 16.8518 20.7537 16.8518 21.3697 16.0226C21.9114 15.6283 22.3992 15.6762 23.0495 15.7005C23.4764 15.7814 23.4764 15.7814 23.9819 16.1883C24.6432 17.5397 24.1112 19.0567 23.797 20.4542C23.7532 20.6577 23.7095 20.8613 23.6644 21.071C23.2596 22.906 23.2596 22.906 22.8846 23.4748C22.5027 23.6967 22.5027 23.6967 22.0385 23.8693C21.7841 23.967 21.7841 23.967 21.5246 24.0666C21.3468 24.1317 21.1691 24.1968 20.9859 24.2639C20.6379 24.3947 20.2901 24.5262 19.9426 24.6584C19.7729 24.7225 19.6032 24.7865 19.4284 24.8526C18.9656 25.0422 18.5359 25.2591 18.0963 25.4968C17.4117 25.842 16.9544 25.9865 16.1776 25.842C15.5947 25.5591 15.0634 25.2155 14.5255 24.8557C14.3803 24.7616 14.2351 24.6675 14.0855 24.5705C13.7292 24.3392 13.375 24.1046 13.0213 23.8693C12.7986 24.0533 12.5769 24.2385 12.3556 24.4241C12.232 24.5271 12.1084 24.6301 11.9811 24.7362C11.5967 25.0691 11.5967 25.0691 11.2459 25.6447C11.3883 25.8588 11.5307 26.0729 11.6775 26.2935C11.8625 26.5786 12.0475 26.8637 12.2323 27.1489C12.3264 27.2895 12.4204 27.4301 12.5174 27.575C13.0473 28.4002 13.3956 28.9751 13.2186 29.9846C13.0255 30.4703 12.8268 30.9152 12.5898 31.3777C12.0996 32.3624 11.6998 33.3251 11.3569 34.3737C10.9597 35.4151 10.9597 35.4151 10.537 35.7777C10.1131 35.9519 9.72649 36.0265 9.27328 36.0998C8.78011 36.2107 8.28695 36.3217 7.79379 36.4327C7.36662 36.5202 6.93929 36.6069 6.51156 36.6916C6.51156 37.4728 6.51156 38.2539 6.51156 39.0588C6.75873 39.1112 7.0059 39.1635 7.26055 39.2175C7.58626 39.2878 7.91195 39.3582 8.23764 39.4287C8.40038 39.463 8.56312 39.4973 8.7308 39.5327C8.88846 39.567 9.04612 39.6013 9.20855 39.6367C9.35318 39.6677 9.4978 39.6987 9.64681 39.7306C10.7319 40.0367 10.7319 40.0367 11.0733 40.6243C11.1303 40.7775 11.1872 40.9306 11.2459 41.0885C11.3436 41.3429 11.3436 41.3429 11.4432 41.6024C11.5083 41.7802 11.5734 41.9579 11.6405 42.1411C11.7713 42.4891 11.9028 42.8369 12.035 43.1844C12.0991 43.3541 12.1632 43.5238 12.2292 43.6986C12.4188 44.1614 12.6357 44.5911 12.8734 45.0307C13.2186 45.7153 13.3631 46.1726 13.2186 46.9494C12.9357 47.5323 12.5922 48.0636 12.2323 48.6015C12.0911 48.8193 12.0911 48.8193 11.9472 49.0415C11.7158 49.3978 11.4812 49.7519 11.2459 50.1057C11.4299 50.3284 11.6151 50.5501 11.8007 50.7714C11.9037 50.895 12.0067 51.0186 12.1128 51.1459C12.4458 51.5303 12.4458 51.5303 13.0213 51.881C13.2354 51.7386 13.4495 51.5962 13.6701 51.4495C13.9552 51.2645 14.2403 51.0795 14.5255 50.8947C14.7364 50.7536 14.7364 50.7536 14.9516 50.6096C15.7768 50.0797 16.3519 49.7305 17.3612 49.9084C17.8549 50.1057 18.3084 50.3086 18.779 50.5495C19.8475 51.0773 20.8969 51.5166 22.0424 51.8579C22.6541 52.1591 22.9118 52.4918 23.2791 53.0646C23.4857 53.7304 23.4857 53.7304 23.6244 54.4455C23.6722 54.6815 23.72 54.9175 23.7692 55.1606C23.8558 55.727 23.8926 56.2418 23.8709 56.8127C24.3266 56.8127 24.7823 56.8127 25.2518 56.8127C25.2518 53.688 25.2518 50.5633 25.2518 47.3439C24.6008 47.3439 23.9498 47.3439 23.2791 47.3439C20.8343 46.8708 18.6734 45.3499 17.2317 43.337C15.6408 40.8415 15.3871 38.0803 15.9125 35.1905C16.5786 32.9739 18.051 31.2344 19.8147 29.7873C20.5954 29.4826 21.0822 29.5898 21.8983 29.7873C22.4783 30.2405 22.4927 30.5897 22.638 31.3161C22.6186 31.9005 22.5366 32.1044 22.1341 32.5382C21.8214 32.7982 21.5059 33.0547 21.1878 33.308C20.1667 34.2243 19.3887 35.5543 19.2868 36.9328C19.2497 38.8528 19.4778 40.242 20.5421 41.8698C21.6439 42.9237 22.6983 43.5483 24.2049 43.8091C24.4008 43.8435 24.5967 43.8778 24.7985 43.9131C24.9481 43.9386 25.0977 43.9641 25.2518 43.9904C25.2511 43.8135 25.2503 43.6366 25.2496 43.4543C25.2321 39.1437 25.2191 34.8331 25.2109 30.5226C25.2068 28.438 25.2013 26.3534 25.1923 24.2688C25.1844 22.4513 25.1793 20.6338 25.1776 18.8163C25.1765 17.8545 25.1741 16.8927 25.1684 15.9309C25.163 15.0243 25.1614 14.1178 25.1625 13.2112C25.1623 12.8797 25.1608 12.5482 25.1577 12.2167C25.1341 9.51233 25.4873 7.35268 27.4217 5.32635C29.698 3.15336 32.1125 3.03995 35.092 3.05433ZM29.8621 7.81991C28.6052 9.21308 28.3837 10.5672 28.3827 12.42C28.3823 12.5541 28.382 12.6882 28.3816 12.8263C28.3807 13.2752 28.3812 13.7241 28.3817 14.173C28.3813 14.4983 28.3808 14.8235 28.3803 15.1487C28.3791 16.0423 28.3791 16.9358 28.3794 17.8294C28.3794 18.7931 28.3783 19.7569 28.3774 20.7207C28.3757 22.6088 28.3752 24.4969 28.3751 26.385C28.375 27.9197 28.3746 29.4543 28.374 30.989C28.3722 35.3395 28.3713 39.6899 28.3715 44.0404C28.3715 44.275 28.3715 44.5095 28.3715 44.7512C28.3715 44.9861 28.3715 45.2209 28.3715 45.4629C28.3716 49.2693 28.3697 53.0758 28.3669 56.8822C28.3641 60.7902 28.3627 64.6981 28.3629 68.606C28.363 70.8002 28.3624 72.9944 28.3603 75.1887C28.3585 77.0568 28.3581 78.9249 28.3594 80.793C28.3601 81.7461 28.3601 82.6991 28.3584 83.6522C28.3568 84.525 28.3571 85.3978 28.3588 86.2707C28.3591 86.5861 28.3588 86.9015 28.3577 87.2169C28.2921 90.2539 28.2921 90.2539 29.5916 92.9123C31.093 94.403 32.4925 94.7113 34.5909 94.7141C34.7324 94.7145 34.8739 94.715 35.0198 94.7154C35.4917 94.7167 35.9637 94.7165 36.4357 94.7163C36.775 94.7169 37.1144 94.7176 37.4537 94.7184C38.374 94.7201 39.2944 94.7206 40.2147 94.7207C40.7901 94.7208 41.3656 94.7212 41.941 94.7218C43.9499 94.7236 45.9588 94.7244 47.9676 94.7242C49.838 94.7241 51.7084 94.7262 53.5788 94.7293C55.1865 94.7319 56.7941 94.733 58.4018 94.7328C59.3611 94.7328 60.3205 94.7333 61.2799 94.7354C62.1825 94.7373 63.0852 94.7374 63.9879 94.7359C64.3183 94.7357 64.6487 94.7362 64.9791 94.7374C68.0891 94.8177 68.0891 94.8177 70.8202 93.5041C72.2861 92.0276 72.6197 90.6472 72.6209 88.5803C72.6214 88.3792 72.6214 88.3792 72.622 88.1741C72.6229 87.7252 72.6224 87.2763 72.6219 86.8273C72.6223 86.5021 72.6227 86.1769 72.6233 85.8517C72.6245 84.9581 72.6245 84.0645 72.6242 83.171C72.6242 82.2072 72.6253 81.2435 72.6262 80.2797C72.6278 78.3916 72.6284 76.5035 72.6285 74.6154C72.6286 73.0807 72.629 71.5461 72.6296 70.0114C72.6314 65.6609 72.6323 61.3104 72.6321 56.9599C72.6321 56.7254 72.6321 56.4908 72.6321 56.2492C72.6321 55.8969 72.6321 55.8969 72.6321 55.5375C72.632 51.731 72.6339 47.9246 72.6367 44.1181C72.6395 40.2102 72.6409 36.3023 72.6407 32.3943C72.6406 30.2001 72.6412 28.0059 72.6433 25.8117C72.6451 23.9436 72.6455 22.0755 72.6442 20.2074C72.6435 19.2543 72.6435 18.3012 72.6452 17.3482C72.6468 16.4753 72.6465 15.6025 72.6448 14.7297C72.6445 14.4143 72.6448 14.0989 72.6459 13.7835C72.7115 10.7465 72.7115 10.7465 71.4119 8.08807C69.9105 6.59739 68.5111 6.28905 66.4127 6.2863C66.2004 6.28563 66.2004 6.28563 65.9838 6.28495C65.5119 6.28371 65.0399 6.28386 64.5679 6.28403C64.2286 6.28344 63.8892 6.28276 63.5499 6.28202C62.6295 6.28028 61.7092 6.27981 60.7889 6.27969C60.2135 6.27955 59.638 6.27913 59.0626 6.2786C57.0537 6.27678 55.0448 6.27597 53.036 6.27613C51.1656 6.27625 49.2952 6.27417 47.4248 6.27105C45.8171 6.26847 44.2095 6.26741 42.6018 6.26754C41.6424 6.26759 40.6831 6.26703 39.7237 6.26494C38.821 6.26302 37.9184 6.26302 37.0157 6.26445C36.6853 6.26465 36.3549 6.26419 36.0245 6.263C32.6727 6.18252 32.6727 6.18252 29.8621 7.81991Z" fill="white"/>
<path d="M58.7666 42.5002C60.3928 42.9288 61.9721 45.1732 63.1433 46.3484C63.5121 46.7184 63.8821 47.0872 64.2521 47.456C64.487 47.6911 64.7219 47.9262 64.9568 48.1615C65.0673 48.2716 65.1778 48.3817 65.2917 48.4952C65.9593 49.1669 66.2506 49.4771 66.3816 50.4262C66.338 52.2695 63.7855 54.0139 62.544 55.2511C62.174 55.62 61.8052 55.9899 61.4364 56.3599C61.2013 56.5949 60.9662 56.8298 60.731 57.0646C60.6208 57.1751 60.5107 57.2857 60.3972 57.3996C59.4193 58.3716 59.4193 58.3716 58.417 58.4524C57.8341 58.4407 57.6248 58.4037 57.1101 58.0949C56.7758 57.5378 56.6657 57.093 56.7019 56.4414C56.8383 55.9338 57.0364 55.6923 57.3906 55.3054C57.578 55.1005 57.578 55.1005 57.7691 54.8914C58.5516 54.072 59.3503 53.2699 60.1554 52.4728C60.3279 52.3011 60.5004 52.1295 60.6782 51.9527C61.0994 51.5338 61.521 51.1154 61.9431 50.6974C61.6318 49.9299 61.1076 49.4197 60.5245 48.8527C60.4248 48.754 60.3251 48.6553 60.2224 48.5537C59.9051 48.2399 59.5865 47.9274 59.2677 47.6151C58.9483 47.3012 58.6293 46.9871 58.3108 46.6723C58.1129 46.4768 57.9144 46.2818 57.7154 46.0874C57.0446 45.4262 56.83 45.1732 56.7525 44.2123C56.7642 43.6294 56.8012 43.4202 57.1101 42.9054C57.6687 42.5702 58.1132 42.4596 58.7666 42.5002Z" fill="white"/>
<path d="M43.3994 42.6091C43.8926 42.905 43.8926 42.905 44.1885 43.3982C44.333 44.1865 44.4039 44.6635 43.9421 45.334C43.7787 45.5125 43.7787 45.5125 43.6121 45.6945C43.4872 45.8311 43.3622 45.9677 43.2335 46.1085C42.451 46.9278 41.6524 47.73 40.8473 48.5271C40.6748 48.6987 40.5022 48.8704 40.3245 49.0472C39.9033 49.4661 39.4816 49.8845 39.0596 50.3025C39.3708 51.0699 39.8951 51.5802 40.4782 52.1472C40.5779 52.2459 40.6775 52.3445 40.7802 52.4462C41.0976 52.76 41.4162 53.0724 41.735 53.3847C42.0543 53.6986 42.3734 54.0128 42.6918 54.3276C42.8898 54.5231 43.0882 54.718 43.2872 54.9124C43.9581 55.5736 44.1726 55.8267 44.2501 56.7876C44.2385 57.3704 44.2014 57.5797 43.8926 58.0945C43.334 58.4296 42.8894 58.5402 42.2361 58.4997C40.6098 58.0711 39.0305 55.8266 37.8594 54.6514C37.4905 54.2815 37.1206 53.9126 36.7506 53.5439C36.5156 53.3088 36.2807 53.0736 36.0459 52.8384C35.9353 52.7283 35.8248 52.6181 35.7109 52.5047C35.0433 51.833 34.752 51.5228 34.6211 50.5737C34.6646 48.7303 37.2172 46.986 38.4587 45.7487C38.8286 45.3799 39.1974 45.01 39.5662 44.6399C39.8013 44.405 40.0365 44.1701 40.2717 43.9353C40.3818 43.8247 40.4919 43.7142 40.6054 43.6003C41.5105 42.7008 42.1082 42.433 43.3994 42.6091Z" fill="white"/>
<path d="M52.4922 42.5358C52.8682 42.609 52.8682 42.609 53.3614 42.8926C54.2363 44.3872 53.3924 46.4855 52.9946 48.0376C52.9256 48.3118 52.8567 48.586 52.788 48.8603C52.6441 49.4318 52.4987 50.0029 52.3521 50.5737C52.1648 51.3041 51.982 52.0355 51.8004 52.7672C51.6595 53.3325 51.5161 53.897 51.3718 54.4614C51.3034 54.7309 51.2357 55.0005 51.169 55.2704C51.0754 55.6473 50.978 56.0231 50.8803 56.3989C50.826 56.6126 50.7717 56.8263 50.7157 57.0464C50.477 57.6633 50.2193 57.9721 49.712 58.3902C48.9536 58.5917 48.3148 58.4943 47.6407 58.1067C46.7658 56.612 47.6096 54.5138 48.0075 52.9616C48.0764 52.6874 48.1453 52.4132 48.2141 52.139C48.358 51.5674 48.5034 50.9963 48.6499 50.4255C48.8372 49.6951 49.02 48.9638 49.2016 48.232C49.3425 47.6668 49.486 47.1022 49.6302 46.5378C49.6987 46.2684 49.7663 45.9987 49.8331 45.7288C49.9266 45.3519 50.0241 44.9761 50.1217 44.6003C50.176 44.3866 50.2303 44.1729 50.2863 43.9528C50.7269 42.8145 51.3271 42.4641 52.4922 42.5358Z" fill="white"/>
<path d="M46.067 9.36691C46.2856 9.36442 46.5041 9.36194 46.7293 9.35938C46.9644 9.36097 47.1995 9.36257 47.4417 9.36422C47.6839 9.36346 47.9261 9.36271 48.1757 9.36193C48.6877 9.36139 49.1998 9.36285 49.7118 9.36614C50.4964 9.37036 51.2806 9.36618 52.0651 9.36113C52.5624 9.36165 53.0597 9.36267 53.5569 9.36422C53.792 9.36262 54.0271 9.36102 54.2693 9.35938C54.5972 9.36311 54.5972 9.36311 54.9316 9.36691C55.1238 9.36754 55.3159 9.36817 55.5138 9.36881C56.1651 9.49703 56.4007 9.74822 56.8118 10.2581C56.9166 10.6526 56.9166 10.6526 56.9105 11.0471C56.9135 11.2424 56.9135 11.2424 56.9166 11.4417C56.7637 12.0175 56.4787 12.2492 56.0228 12.6253C55.5138 12.7255 55.5138 12.7255 54.9316 12.7274C54.7131 12.7299 54.4945 12.7323 54.2693 12.7349C54.0342 12.7333 53.7992 12.7317 53.5569 12.7301C53.1936 12.7312 53.1936 12.7312 52.823 12.7323C52.3109 12.7329 51.7989 12.7314 51.2868 12.7281C50.5023 12.7239 49.7181 12.7281 48.9335 12.7331C48.4363 12.7326 47.939 12.7316 47.4417 12.7301C47.2066 12.7317 46.9715 12.7333 46.7293 12.7349C46.4015 12.7312 46.4015 12.7312 46.067 12.7274C45.8749 12.7267 45.6828 12.7261 45.4849 12.7255C44.8336 12.5972 44.598 12.3461 44.1868 11.8362C44.082 11.4417 44.082 11.4417 44.0882 11.0471C44.0851 10.8518 44.0851 10.8518 44.082 10.6526C44.3554 9.6234 45.0892 9.37011 46.067 9.36691Z" fill="white"/>
<path d="M17.9517 81.6675C18.5188 81.9511 18.5188 81.9511 18.938 82.4566C19.1179 83.309 19.096 83.9889 18.6174 84.7252C18.0367 85.0919 17.6532 85.2043 16.9653 85.2183C16.5062 84.9939 16.143 84.7906 15.7817 84.4293C15.6967 83.7622 15.6885 83.1229 15.7817 82.4566C16.4105 81.6799 16.9726 81.5044 17.9517 81.6675Z" fill="white"/>
<path d="M17.9517 75.355C18.5188 75.6386 18.5188 75.6386 18.938 76.1441C19.1179 76.9965 19.096 77.6764 18.6174 78.4127C18.0367 78.7794 17.6532 78.8918 16.9653 78.9058C16.5062 78.6814 16.143 78.4781 15.7817 78.1168C15.6967 77.4497 15.6885 76.8104 15.7817 76.1441C16.4105 75.3674 16.9726 75.1919 17.9517 75.355Z" fill="white"/>
<path d="M17.9517 69.0425C18.5188 69.3261 18.5188 69.3261 18.938 69.8316C19.1179 70.684 19.096 71.3639 18.6174 72.1002C18.0367 72.4669 17.6532 72.5793 16.9653 72.5933C16.5062 72.3689 16.143 72.1656 15.7817 71.8043C15.6967 71.1372 15.6885 70.4979 15.7817 69.8316C16.4105 69.0549 16.9726 68.8794 17.9517 69.0425Z" fill="white"/>
<path d="M84.4278 28.4068C84.921 28.7027 84.921 28.7027 85.2169 29.1958C85.3326 30.107 85.33 30.5477 84.921 31.3658C84.321 31.8458 83.9905 31.8644 83.2442 31.8528C82.7182 31.7295 82.4432 31.5502 82.0606 31.1685C81.8619 30.293 81.9108 29.4581 82.3565 28.678C83.058 28.2922 83.6455 28.2529 84.4278 28.4068Z" fill="white"/>
<path d="M84.4278 22.0943C84.921 22.3902 84.921 22.3902 85.2169 22.8833C85.3326 23.7945 85.33 24.2352 84.921 25.0533C84.321 25.5333 83.9905 25.5519 83.2442 25.5403C82.7182 25.417 82.4432 25.2377 82.0606 24.856C81.8619 23.9805 81.9108 23.1456 82.3565 22.3655C83.058 21.9797 83.6455 21.9404 84.4278 22.0943Z" fill="white"/>
<path d="M84.4278 15.7818C84.921 16.0777 84.921 16.0777 85.2169 16.5708C85.3326 17.482 85.33 17.9227 84.921 18.7408C84.321 19.2208 83.9905 19.2394 83.2442 19.2278C82.7182 19.1045 82.4432 18.9252 82.0606 18.5435C81.8619 17.668 81.9108 16.8331 82.3565 16.053C83.058 15.6672 83.6455 15.6279 84.4278 15.7818Z" fill="white"/>
</svg>
