<svg width="75" height="75" viewBox="0 0 75 75" fill="none" xmlns="http://www.w3.org/2000/svg">
<path d="M6.83702 49.6305C5.68898 49.8813 3.71142 49.6268 3.71142 48.0607V16.6834C3.71142 15.8178 4.4114 15.1138 5.27158 15.1138H57.72C59.5178 15.1138 59.5842 17.8512 59.2802 19.0521C59.2802 19.9118 59.9774 20.6089 60.8371 20.6089C61.6968 20.6089 62.3939 19.9118 62.3939 19.0521C62.8534 15.9526 61.4424 12 57.72 12H5.27158C2.69447 12 0.597656 14.101 0.597656 16.6834V48.0607C0.597656 51.379 3.9023 53.0595 6.83702 52.7443C7.69673 52.7443 8.39391 52.0471 8.39391 51.1874C8.39391 50.3277 7.69689 49.6305 6.83702 49.6305Z" fill="#215CFF"/>
<path d="M68.7825 23.2559H16.3341C13.7568 23.2559 11.6602 25.3569 11.6602 27.9393V59.3167C11.6602 61.8991 13.757 64.0001 16.3341 64.0001H68.7825C71.3596 64.0001 73.4564 61.8991 73.4564 59.3167V27.9393C73.4564 25.3569 71.3596 23.2559 68.7825 23.2559ZM70.3427 59.3167C70.3427 60.1823 69.6427 60.8864 68.7825 60.8864H16.3341C15.4739 60.8864 14.7739 60.1823 14.7739 59.3167V27.9393C14.7739 27.0736 15.4739 26.3696 16.3341 26.3696H68.7825C69.6427 26.3696 70.3427 27.0736 70.3427 27.9393V59.3167Z" fill="#215CFF"/>
<path d="M52.6763 43.9724H62.5875C64.3045 43.9724 65.7013 42.5755 65.7013 40.8586V35.8071C65.7013 34.0902 64.3045 32.6934 62.5875 32.6934H52.6763C50.9593 32.6934 49.5625 34.0902 49.5625 35.8071V40.8586C49.5625 42.5757 50.9593 43.9724 52.6763 43.9724Z" fill="#FF8303"/>
<path d="M64.7677 50.9697H58.3186C57.4589 50.9697 56.7617 51.6669 56.7617 52.5266C56.7617 53.3863 57.4589 54.0835 58.3186 54.0835H64.7677C65.6274 54.0835 66.3246 53.3863 66.3246 52.5266C66.3246 51.6669 65.6274 50.9697 64.7677 50.9697Z" fill="#215CFF"/>
<path d="M52.1388 50.9697H45.6897C44.83 50.9697 44.1328 51.6669 44.1328 52.5266C44.1328 53.3863 44.83 54.0835 45.6897 54.0835H52.1388C52.9985 54.0835 53.6957 53.3863 53.6957 52.5266C53.6957 51.6669 52.9985 50.9697 52.1388 50.9697Z" fill="#215CFF"/>
<path d="M39.4278 50.9697H32.9788C32.119 50.9697 31.4219 51.6669 31.4219 52.5266C31.4219 53.3863 32.119 54.0835 32.9788 54.0835H39.4278C40.2875 54.0835 40.9847 53.3863 40.9847 52.5266C40.9847 51.6669 40.2875 50.9697 39.4278 50.9697Z" fill="#215CFF"/>
<path d="M26.8028 50.9697H20.3538C19.494 50.9697 18.7969 51.6669 18.7969 52.5266C18.7969 53.3863 19.494 54.0835 20.3538 54.0835H26.8028C27.6625 54.0835 28.3597 53.3863 28.3597 52.5266C28.3597 51.6669 27.6627 50.9697 26.8028 50.9697Z" fill="#215CFF"/>
</svg>
