<svg width="52" height="51" viewBox="0 0 52 51" fill="none" xmlns="http://www.w3.org/2000/svg">
<path d="M17.8007 24.6876C17.919 24.687 17.919 24.687 18.0397 24.6863C18.3048 24.685 18.57 24.6843 18.8352 24.6837C19.025 24.6829 19.2148 24.6821 19.4046 24.6813C20.0288 24.6786 20.653 24.6771 21.2772 24.6757C21.4921 24.6752 21.707 24.6746 21.9219 24.6741C22.8162 24.6719 23.7104 24.6701 24.6046 24.669C25.8857 24.6673 27.1668 24.664 28.4478 24.6584C29.3488 24.6545 30.2497 24.6526 31.1506 24.652C31.6886 24.6517 32.2265 24.6505 32.7645 24.6472C33.271 24.6442 33.7774 24.6436 34.2839 24.6448C34.4694 24.6448 34.6548 24.644 34.8402 24.6422C36.7158 24.6255 36.7158 24.6255 37.454 25.201C38.1297 25.902 38.2822 26.6152 38.2734 27.5607C38.2735 27.6443 38.2735 27.728 38.2735 27.8142C38.2734 28.0885 38.2719 28.3628 38.2703 28.6371C38.2699 28.8282 38.2696 29.0192 38.2694 29.2103C38.2687 29.7116 38.2667 30.2128 38.2645 30.7141C38.2625 31.2262 38.2616 31.7383 38.2606 32.2505C38.2584 33.2542 38.255 34.2579 38.2508 35.2615C38.3613 35.2602 38.4718 35.2589 38.5856 35.2576C39.134 35.2635 39.5098 35.4508 39.9177 35.8137C40.4133 36.3497 40.648 36.9121 40.6913 37.6397C40.6472 38.6047 40.1469 39.1845 39.4648 39.8124C39.2285 40.0248 38.9894 40.2337 38.7489 40.4412C38.6754 40.5057 38.602 40.5701 38.5263 40.6365C38.4057 40.7422 38.2847 40.8474 38.1633 40.9521C37.8725 41.2086 37.5888 41.4725 37.3045 41.7361C36.9596 42.056 36.6146 42.3747 36.2586 42.6824C35.849 43.0367 35.453 43.4052 35.0558 43.7732C34.5646 44.228 34.0679 44.6764 33.5692 45.1229C33.031 45.6054 32.4951 46.0903 31.963 46.5796C31.578 46.9332 31.1927 47.2859 30.7961 47.6263C30.6289 47.7709 30.4641 47.9183 30.3004 48.0668C28.3291 49.8297 25.7772 50.818 23.1145 50.6796C22.9366 50.6668 22.7588 50.6532 22.581 50.6387C22.4608 50.6302 22.4608 50.6302 22.3382 50.6215C20.7454 50.467 19.318 49.8076 17.8932 49.1259C17.7163 49.0424 17.5393 48.959 17.3623 48.8758C17.091 48.7482 16.8199 48.6206 16.5489 48.4925C15.6167 48.0519 14.6791 47.6233 13.7407 47.196C13.5888 47.1267 13.437 47.0574 13.2851 46.9881C12.9411 46.8311 12.5969 46.6742 12.2528 46.5174C12.2384 46.6119 12.2239 46.7065 12.2091 46.8039C12.1096 47.3573 11.7993 47.6964 11.3688 48.0427C10.6471 48.4324 9.98219 48.4418 9.17657 48.4434C9.06377 48.4441 8.95097 48.4448 8.83475 48.4454C8.59716 48.4464 8.35956 48.4469 8.12196 48.4469C7.75842 48.4473 7.39499 48.4509 7.03147 48.4547C6.80021 48.4553 6.56896 48.4557 6.3377 48.4559C6.22916 48.4573 6.12062 48.4587 6.00879 48.4602C5.90738 48.4596 5.80596 48.459 5.70148 48.4584C5.56826 48.4588 5.56826 48.4588 5.43236 48.4592C5.08719 48.3917 4.93122 48.2584 4.68247 48.0115C4.62036 47.7238 4.62036 47.7238 4.62057 47.3833C4.61945 47.2541 4.61834 47.1249 4.61719 46.9918C4.61847 46.8488 4.61981 46.7059 4.62119 46.5629C4.62084 46.4122 4.62028 46.2615 4.61952 46.1108C4.6181 45.7016 4.6198 45.2926 4.62213 44.8834C4.62414 44.4555 4.62355 44.0276 4.62332 43.5996C4.62332 42.8811 4.62529 42.1625 4.62849 41.444C4.63216 40.6128 4.63304 39.7816 4.63234 38.9504C4.63171 38.1513 4.63278 37.3521 4.63473 36.553C4.63554 36.2126 4.63581 35.8723 4.63566 35.532C4.63557 35.1314 4.63698 34.7309 4.63956 34.3304C4.64028 34.1832 4.64048 34.036 4.64015 33.8889C4.63978 33.6883 4.64143 33.4878 4.64319 33.2873C4.64356 33.175 4.64393 33.0626 4.64431 32.9469C4.68247 32.6717 4.68247 32.6717 4.81567 32.49C5.12069 32.2743 5.39596 32.2601 5.75702 32.2572C5.90221 32.2558 5.90221 32.2558 6.05034 32.2543C6.15493 32.2539 6.25952 32.2535 6.36727 32.253C6.47527 32.2524 6.58327 32.2519 6.69454 32.2513C6.92346 32.2504 7.15239 32.2497 7.38131 32.2493C7.72957 32.2484 8.07776 32.2453 8.426 32.2421C8.64869 32.2415 8.87139 32.2409 9.09408 32.2406C9.19746 32.2393 9.30083 32.2381 9.40734 32.2368C10.2095 32.2393 11.0051 32.3653 11.6551 32.8709C12.1532 33.4504 12.1532 33.4504 12.1532 33.867C13.2051 33.867 14.2569 33.867 15.3407 33.867C15.3375 33.6429 15.3344 33.4188 15.3312 33.1879C15.3213 32.4444 15.3147 31.701 15.3097 30.9575C15.3066 30.507 15.3024 30.0566 15.2956 29.6062C15.2891 29.1709 15.2855 28.7357 15.284 28.3003C15.2829 28.1348 15.2807 27.9694 15.2775 27.804C15.2597 26.859 15.2641 26.041 15.9383 25.3006C16.5373 24.8267 17.0413 24.6881 17.8007 24.6876ZM16.9344 26.7947C16.885 27.074 16.8661 27.2928 16.87 27.5714C16.8691 27.6481 16.8682 27.7248 16.8673 27.8038C16.8651 28.0568 16.8666 28.3097 16.8683 28.5628C16.8679 28.7399 16.8675 28.917 16.8668 29.094C16.8661 29.4655 16.8672 29.8369 16.8695 30.2084C16.8723 30.6811 16.8707 31.1538 16.8677 31.6266C16.8659 31.9927 16.8665 32.3588 16.8678 32.7249C16.8681 32.899 16.8677 33.0731 16.8665 33.2472C16.8609 34.3286 16.9482 35.1707 17.4325 36.158C17.5054 36.1584 17.5782 36.1587 17.6533 36.1591C18.3435 36.1629 19.0336 36.1686 19.7238 36.1763C20.0785 36.1803 20.4332 36.1835 20.7879 36.185C21.1967 36.1868 21.6054 36.1918 22.0141 36.1969C22.2033 36.1971 22.2033 36.1971 22.3962 36.1973C23.4244 36.2142 24.1611 36.4428 24.9176 37.1494C25.616 37.9199 25.9447 38.7929 25.9195 39.8307C25.8805 40.24 25.7899 40.6383 25.7001 41.0389C26.307 40.8527 26.8672 40.625 27.4315 40.3354C27.508 40.2968 27.5845 40.2582 27.6633 40.2184C27.8258 40.1364 27.9882 40.0541 28.1504 39.9715C28.5775 39.7543 29.0055 39.5391 29.4335 39.3237C29.5173 39.2815 29.6011 39.2392 29.6874 39.1957C30.3716 38.8513 31.0601 38.5172 31.7527 38.1902C32.7348 37.7254 33.7105 37.2476 34.6871 36.7712C34.869 36.6825 35.0509 36.5939 35.2328 36.5052C35.6744 36.2899 36.1159 36.0746 36.5575 35.8592C36.569 34.6712 36.5779 33.4833 36.5833 32.2953C36.5859 31.7437 36.5894 31.1921 36.595 30.6405C36.6005 30.1083 36.6034 29.5762 36.6047 29.0439C36.6056 28.8408 36.6074 28.6376 36.6101 28.4344C36.6137 28.1501 36.6142 27.8659 36.614 27.5816C36.6158 27.4973 36.6176 27.4131 36.6194 27.3263C36.6159 26.9272 36.6089 26.7558 36.3439 26.4433C36.0131 26.2728 35.807 26.2484 35.436 26.2515C35.2506 26.2515 35.2506 26.2515 35.0614 26.2515C34.9275 26.2536 34.7937 26.2557 34.6598 26.2578C34.5221 26.2585 34.3843 26.2591 34.2466 26.2595C33.8852 26.261 33.5238 26.2649 33.1624 26.2693C32.7931 26.2734 32.4239 26.2752 32.0546 26.2772C31.3309 26.2815 30.6073 26.2883 29.8836 26.2967C29.8831 26.3542 29.8825 26.4118 29.8819 26.4711C29.8755 27.0706 29.8671 27.6701 29.8575 28.2695C29.8542 28.4932 29.8514 28.7169 29.8491 28.9405C29.8458 29.2623 29.8406 29.5839 29.835 29.9056C29.8344 30.0054 29.8337 30.1053 29.8331 30.2081C29.8144 31.0937 29.8144 31.0937 29.4852 31.4764C29.183 31.6059 28.9962 31.6186 28.6879 31.4978C28.1279 31.2022 27.6414 30.8182 27.1522 30.4184C26.9077 30.253 26.9077 30.253 26.6592 30.3266C26.2473 30.5683 25.8623 30.8462 25.48 31.132C25.0021 31.4683 24.6911 31.554 24.1063 31.4764C23.8841 31.3163 23.8165 31.2276 23.7678 30.9563C23.7666 30.8703 23.7655 30.7842 23.7644 30.6956C23.7624 30.5979 23.7605 30.5002 23.7584 30.3995C23.7578 30.2943 23.7572 30.1891 23.7565 30.0807C23.7547 29.9728 23.7529 29.8649 23.7511 29.7537C23.7457 29.4086 23.7423 29.0635 23.739 28.7184C23.7357 28.4847 23.7323 28.2509 23.7287 28.0171C23.7202 27.4436 23.7134 26.8702 23.7079 26.2967C22.8983 26.2851 22.0887 26.2763 21.279 26.2709C20.9031 26.2683 20.5271 26.2648 20.1512 26.2591C19.7882 26.2537 19.4253 26.2507 19.0623 26.2494C18.9239 26.2485 18.7856 26.2467 18.6473 26.244C18.4533 26.2404 18.2592 26.2402 18.0651 26.2401C17.8995 26.2385 17.8995 26.2385 17.7306 26.2368C17.3203 26.3192 17.179 26.458 16.9344 26.7947ZM25.3016 26.2967C25.3016 27.2828 25.3016 28.269 25.3016 29.285C25.844 28.9398 25.844 28.9398 26.3973 28.5877C26.7985 28.4978 26.9756 28.5189 27.3292 28.7235C27.4889 28.8299 27.6461 28.9401 27.8 29.0546C27.9799 29.2041 27.9799 29.2041 28.1903 29.1854C28.1903 28.2321 28.1903 27.2788 28.1903 26.2967C27.237 26.2967 26.2838 26.2967 25.3016 26.2967ZM6.27622 33.9666C6.27622 38.1741 6.27622 42.3816 6.27622 46.7166C7.62394 46.7166 8.97165 46.7166 10.3602 46.7166C10.7261 46.3507 10.7709 46.1426 10.7726 45.6477C10.7732 45.5508 10.7738 45.4539 10.7744 45.354C10.7745 45.2478 10.7746 45.1417 10.7747 45.0322C10.7752 44.9203 10.7757 44.8084 10.7762 44.693C10.7777 44.3219 10.7783 43.9508 10.7789 43.5797C10.7795 43.3223 10.78 43.0648 10.7806 42.8074C10.7815 42.3363 10.7821 41.8653 10.7824 41.3943C10.7829 40.7013 10.7846 40.0083 10.7875 39.3153C10.7899 38.7148 10.7907 38.1143 10.7909 37.5138C10.7912 37.2584 10.792 37.003 10.7933 36.7477C10.795 36.3907 10.7948 36.0337 10.7942 35.6767C10.7951 35.571 10.796 35.4652 10.7969 35.3562C10.7937 34.7929 10.7797 34.3861 10.3602 33.9666C9.01249 33.9666 7.66478 33.9666 6.27622 33.9666ZM12.3524 35.4608C12.3524 38.5178 12.3524 41.5748 12.3524 44.7244C15.778 46.3423 15.778 46.3423 19.2254 47.9119C19.2942 47.9427 19.363 47.9736 19.4338 48.0053C19.6456 48.1001 19.8576 48.1942 20.0698 48.2882C20.1336 48.3168 20.1974 48.3453 20.2631 48.3748C22.1469 49.2045 24.3514 49.3175 26.2977 48.6092C27.8871 47.9696 29.0929 46.9413 30.3203 45.7727C30.5639 45.543 30.8166 45.3248 31.0704 45.1065C31.3602 44.8514 31.6426 44.5885 31.9256 44.326C32.2706 44.0061 32.6156 43.6874 32.9715 43.3797C33.3811 43.0254 33.7771 42.6569 34.1744 42.2889C34.6656 41.8341 35.1623 41.3858 35.661 40.9393C36.2509 40.4104 36.8376 39.8783 37.4202 39.3414C37.7093 39.0758 38.0023 38.8162 38.3006 38.5611C38.5854 38.3114 38.8497 38.0788 39.0477 37.7518C39.0477 37.4279 38.9685 37.2835 38.7862 37.0171C38.5108 36.8287 38.3821 36.8415 38.0608 36.8972C37.6324 37.0158 37.248 37.2344 36.8563 37.4405C36.1098 37.8277 35.3572 38.1981 34.598 38.5595C33.3453 39.156 32.0998 39.7666 30.8548 40.379C30.6433 40.483 30.4318 40.587 30.2202 40.691C30.1153 40.7427 30.0105 40.7943 29.9024 40.8475C29.689 40.9521 29.4752 41.0557 29.261 41.1585C28.7139 41.4219 28.1804 41.6958 27.6547 41.9998C25.8476 43.0126 24.3151 43.1098 22.2991 43.0436C21.9893 43.035 21.6797 43.0331 21.3698 43.0313C20.9975 43.0287 20.6253 43.0224 20.2531 43.0159C20.1832 43.015 20.1133 43.0141 20.0413 43.0132C19.8446 43.01 19.648 43.0037 19.4513 42.9972C19.2843 42.9927 19.2843 42.9927 19.114 42.9881C18.7644 42.9191 18.6428 42.8134 18.4286 42.533C18.3705 42.1843 18.3747 42.0148 18.5744 41.7204C18.9489 41.4484 19.2795 41.4842 19.7313 41.4902C19.8636 41.4892 19.8636 41.4892 19.9985 41.4881C20.375 41.4852 20.7514 41.4868 21.1279 41.488C21.4032 41.4883 21.6785 41.4862 21.9538 41.484C22.0378 41.4851 22.1217 41.4863 22.2083 41.4874C22.8464 41.482 23.377 41.3369 23.8601 40.9018C24.2035 40.5196 24.4008 40.1449 24.4082 39.6276C24.3682 39.0295 24.1985 38.631 23.7584 38.2058C23.3028 37.808 22.9902 37.7395 22.3994 37.7392C22.2734 37.7388 22.1474 37.7385 22.0175 37.7381C21.9166 37.738 21.9166 37.738 21.8136 37.738C21.5301 37.7377 21.2467 37.7355 20.9632 37.7335C20.4356 37.7297 19.908 37.7266 19.3804 37.7268C19.0132 37.7269 18.6461 37.7246 18.2789 37.7207C18.1392 37.7196 17.9995 37.7195 17.8597 37.7202C17.664 37.7212 17.4683 37.7188 17.2726 37.7163C17.1614 37.7159 17.0501 37.7155 16.9355 37.7152C16.5396 37.632 16.3912 37.4622 16.1376 37.1541C16.0158 36.8615 16.0158 36.8615 15.9321 36.5565C15.7939 36.0572 15.6883 35.8953 15.3407 35.4608C14.3545 35.4608 13.3684 35.4608 12.3524 35.4608Z" fill="#215CFF"/>
<path d="M37.6955 2.96739C38.485 3.42341 39.2845 3.86162 40.0828 4.30175C40.1931 4.3627 40.3033 4.42364 40.4169 4.48643C40.5157 4.5409 40.6146 4.59536 40.7164 4.65148C40.9414 4.78098 40.9414 4.78098 41.041 4.88059C41.2188 4.88784 41.3969 4.88808 41.5748 4.88557C41.6888 4.88428 41.8029 4.88299 41.9204 4.88165C42.0447 4.87989 42.169 4.87813 42.297 4.87631C42.5577 4.87408 42.8184 4.87194 43.0791 4.86989C43.4921 4.86632 43.905 4.86208 44.3179 4.856C44.7151 4.85023 45.1122 4.84768 45.5094 4.84518C45.6947 4.84163 45.6947 4.84163 45.8836 4.838C45.9989 4.83765 46.1143 4.8373 46.2331 4.83694C46.3849 4.83516 46.3849 4.83516 46.5398 4.83334C46.9279 4.89916 47.067 4.9687 47.3164 5.27903C47.3914 5.66627 47.3833 6.04926 47.3793 6.44263C47.3803 6.621 47.3803 6.621 47.3814 6.80298C47.3828 7.1288 47.382 7.45452 47.38 7.78033C47.3784 8.1214 47.3793 8.46247 47.3798 8.80354C47.3802 9.37631 47.3787 9.94904 47.3759 10.5218C47.3727 11.1838 47.3727 11.8458 47.3744 12.5078C47.376 13.1449 47.3753 13.7819 47.3736 14.419C47.3729 14.69 47.373 14.961 47.3738 15.232C47.3743 15.6105 47.3723 15.9889 47.3695 16.3674C47.3705 16.5361 47.3705 16.5361 47.3715 16.7083C47.3696 16.8629 47.3696 16.8629 47.3677 17.0206C47.3674 17.1101 47.3671 17.1995 47.3668 17.2917C47.3001 17.6084 47.1667 17.729 46.918 17.9294C46.6688 17.9807 46.6688 17.9807 46.3856 17.9826C46.2792 17.9841 46.1728 17.9857 46.0631 17.9873C45.9484 17.9868 45.8338 17.9863 45.7157 17.9858C45.597 17.9865 45.4783 17.9871 45.356 17.9877C45.1047 17.9884 44.8533 17.9881 44.602 17.9868C44.2195 17.9855 43.8374 17.9888 43.455 17.9926C43.2104 17.9927 42.9658 17.9926 42.7211 17.9921C42.6077 17.9934 42.4943 17.9947 42.3774 17.9961C41.5569 17.9866 40.8563 17.8305 40.2501 17.2445C40.1076 17.0807 39.9754 16.9082 39.8457 16.7341C39.7845 16.7732 39.7234 16.8123 39.6603 16.8526C39.3777 17.0332 39.095 17.2136 38.8123 17.394C38.7161 17.4555 38.6199 17.517 38.5208 17.5804C36.1004 19.1236 36.1004 19.1236 34.7656 19.2243C34.7022 19.2295 34.6388 19.2346 34.5734 19.2399C32.8974 19.3136 31.5317 18.5276 30.1836 17.6306C29.4658 18.6954 28.7628 19.7678 28.0816 20.8565C27.0116 22.5554 27.0116 22.5554 26.498 22.7107C25.771 22.5741 25.1744 22.172 24.5681 21.7706C24.3737 21.6444 24.1793 21.5182 23.9849 21.392C23.8399 21.2973 23.8399 21.2973 23.6921 21.2007C23.2791 20.932 22.8623 20.6694 22.4452 20.4072C22.2902 20.3094 22.1352 20.2116 21.9802 20.1138C21.904 20.0658 21.8278 20.0177 21.7493 19.9682C21.3565 19.7204 20.9639 19.4724 20.5713 19.2243C20.4136 19.1247 20.2559 19.0251 20.0981 18.9255C17.2593 17.1325 14.4204 15.3396 11.5815 13.5466C11.4643 13.4726 11.4643 13.4726 11.3447 13.397C11.1879 13.298 11.031 13.1988 10.8742 13.0997C10.4669 12.8422 10.0591 12.5855 9.65044 12.3303C9.56621 12.2775 9.48198 12.2247 9.3952 12.1704C9.23571 12.0705 9.07607 11.9708 8.91621 11.8715C7.59719 11.044 7.59719 11.044 7.27344 10.5583C7.30033 10.0554 7.4207 9.71821 7.68666 9.29492C7.75298 9.18776 7.8193 9.08061 7.88763 8.97021C7.94123 8.88543 7.94123 8.88543 7.99592 8.79894C8.15031 8.55471 8.30204 8.30886 8.45396 8.06309C8.53455 7.93274 8.61528 7.80248 8.69614 7.67229C9.10498 7.01313 9.50039 6.34627 9.89458 5.67827C10.5216 4.61639 11.1515 3.55615 11.7881 2.49998C11.8613 2.37845 11.9342 2.25679 12.0069 2.13501C12.1072 1.96713 12.2084 1.79975 12.3095 1.63239C12.3948 1.49068 12.3948 1.49068 12.4817 1.34611C12.6533 1.09408 12.8183 0.894249 13.0508 0.696994C13.8284 0.554067 14.3008 0.922977 14.9309 1.34446C15.1443 1.48259 15.3578 1.62058 15.5714 1.75846C15.7362 1.86593 15.7362 1.86593 15.9043 1.97557C16.4416 2.32237 16.9875 2.65478 17.5332 2.98801C18.4999 3.58087 19.4628 4.17962 20.4217 4.78506C20.977 5.1341 21.5379 5.46577 22.1152 5.77707C22.1895 5.70227 22.2638 5.62747 22.3403 5.5504C22.6193 5.26963 22.8986 4.9892 23.178 4.70887C23.2982 4.58812 23.4184 4.46727 23.5385 4.34633C24.7305 3.14587 24.7305 3.14587 25.3455 2.62306C25.5455 2.4529 25.7343 2.27165 25.9253 2.09153C29.6794 -1.22053 34.0173 0.83637 37.6955 2.96739ZM25.5393 4.7374C24.9979 5.28935 24.4611 5.83425 23.8664 6.32918C23.6848 6.48522 23.6848 6.48522 23.5098 6.77317C24.7838 7.58367 26.0665 8.37949 27.3533 9.16963C27.9984 9.56577 28.6423 9.96389 29.2854 10.3633C29.7238 10.6353 30.1631 10.9058 30.6038 11.1739C30.8447 11.3205 31.0853 11.4675 31.326 11.6144C31.4436 11.6861 31.5614 11.7576 31.6793 11.8289C31.8435 11.9283 32.0073 12.0283 32.1711 12.1283C32.2658 12.1858 32.3604 12.2433 32.458 12.3025C32.6738 12.4509 32.6738 12.4509 32.7734 12.6501C32.8086 13.2946 32.8086 13.2946 32.5742 13.6462C32.1992 13.7818 32.0049 13.8028 31.6376 13.6392C30.9632 13.258 30.3028 12.8588 29.6482 12.4447C29.5457 12.3805 29.4431 12.3164 29.3375 12.2503C28.8216 11.9274 28.3082 11.6013 27.7984 11.2688C27.6585 11.1789 27.6585 11.1789 27.5157 11.0871C27.3399 10.9741 27.1651 10.8597 26.9913 10.7437C26.4641 10.4073 26.1288 10.2805 25.502 10.3591C25.0709 10.5787 24.7785 10.7977 24.6055 11.2556C24.5791 11.8596 24.6941 12.1988 25.1035 12.6501C25.3288 12.8047 25.5473 12.9431 25.7837 13.0777C25.8495 13.1163 25.9154 13.155 25.9833 13.1947C26.1959 13.3191 26.4092 13.4422 26.6226 13.5653C26.8423 13.6935 27.0617 13.8221 27.2812 13.9507C27.4245 14.0347 27.5679 14.1186 27.7114 14.2024C28.2004 14.4882 28.6845 14.7804 29.1626 15.0843C29.8282 15.5065 30.5029 15.9126 31.18 16.3162C31.6219 16.5798 32.0603 16.8473 32.4933 17.1255C33.2626 17.5799 34.1884 17.676 35.0645 17.531C35.8772 17.3125 36.5477 16.9233 37.2434 16.4602C37.4236 16.3423 37.6039 16.2245 37.7843 16.1069C37.8696 16.0487 37.9549 15.9905 38.0428 15.9305C38.3516 15.738 38.3516 15.738 38.6851 15.5924C39.3176 15.3049 39.3176 15.3049 39.7199 14.7607C39.8374 14.2139 39.8071 13.6567 39.7912 13.1011C39.7908 12.9208 39.7909 12.7404 39.7917 12.5601C39.792 12.0868 39.7848 11.6139 39.7758 11.1407C39.7679 10.6602 39.7666 10.1796 39.7652 9.699C39.7633 9.1583 39.7609 8.6177 39.7528 8.07706C39.7517 7.99464 39.7506 7.91223 39.7495 7.82732C39.7474 7.67468 39.7448 7.52204 39.7418 7.36942C39.736 6.92514 39.7726 6.51242 39.8457 6.0759C39.7762 6.03742 39.7068 5.99894 39.6352 5.95929C38.3979 5.27367 37.1612 4.58689 35.9298 3.89072C35.7884 3.81096 35.7884 3.81096 35.6441 3.72958C35.2455 3.50438 34.8481 3.27809 34.4551 3.04326C31.1115 1.05308 28.122 2.09241 25.5393 4.7374ZM13.6484 2.68918C13.4981 2.85415 13.4981 2.85415 13.3745 3.06894C13.3298 3.13944 13.2851 3.20993 13.2391 3.28256C13.1177 3.49908 13.1177 3.49908 13.25 3.78488C13.7847 3.73879 14.1769 3.67161 14.6445 3.38645C14.6774 3.3207 14.7103 3.25496 14.7441 3.18723C14.6181 3.1034 14.4914 3.02058 14.3644 2.93821C14.2939 2.89198 14.2234 2.84576 14.1508 2.79813C13.9418 2.66567 13.9418 2.66567 13.6484 2.68918ZM15.8398 4.45725C15.1666 5.05299 14.2988 5.29402 13.4119 5.29148C13.2782 5.29186 13.2782 5.29186 13.1418 5.29225C12.8109 5.27717 12.4823 5.22627 12.1543 5.17942C11.6941 5.93545 11.2339 6.69149 10.7598 7.47043C10.957 7.7334 11.1542 7.99637 11.3574 8.26731C11.4994 8.52372 11.4994 8.52372 11.5878 8.73423C11.6182 8.80446 11.6486 8.8747 11.68 8.94706C11.8449 9.41803 11.869 9.85543 11.8679 10.3529C11.8682 10.4709 11.8684 10.5889 11.8687 10.7105C11.8563 11.0344 11.8122 11.3354 11.7559 11.654C12.3978 12.1127 13.0495 12.5448 13.7231 12.9552C14.4701 13.4139 15.213 13.8781 15.9519 14.3497C16.0431 14.4079 16.1344 14.4661 16.2284 14.5261C16.4097 14.6419 16.5911 14.7576 16.7725 14.8734C17.181 15.1336 17.5905 15.3924 18.0001 15.6509C18.0771 15.6994 18.154 15.7479 18.2332 15.798C18.3875 15.8953 18.5417 15.9926 18.696 16.0899C19.0888 16.3376 19.4814 16.5857 19.874 16.8337C20.0303 16.9324 20.1866 17.0311 20.3429 17.1298C20.6726 17.3381 21.0023 17.5464 21.332 17.7547C21.4162 17.8079 21.5004 17.8612 21.5872 17.916C21.7469 18.0169 21.9066 18.1178 22.0662 18.2187C22.2111 18.3103 22.3563 18.4014 22.5018 18.492C22.6468 18.5845 22.7897 18.6803 22.9306 18.7789C23.0002 18.8264 23.0697 18.8739 23.1413 18.9228C23.2334 18.9881 23.2334 18.9881 23.3274 19.0547C23.5144 19.1497 23.5144 19.1497 23.7204 19.0451C23.7824 19.0056 23.8444 18.9662 23.9082 18.9255C23.9693 18.8866 24.0304 18.8477 24.0934 18.8076C24.2181 18.7249 24.3426 18.6419 24.4669 18.5586C25.1179 18.2001 25.6769 18.0839 26.4171 18.1037C26.4949 18.1042 26.5726 18.1048 26.6527 18.1053C27.0445 18.1106 27.4106 18.1332 27.793 18.2282C27.9429 18.0003 28.0923 17.772 28.2412 17.5434C28.284 17.4786 28.3267 17.4137 28.3708 17.3469C28.6078 17.018 28.6078 17.018 28.6895 16.6345C28.4928 16.4991 28.2978 16.3775 28.0918 16.2578C28.0297 16.221 27.9676 16.1841 27.9037 16.1461C27.7011 16.026 27.498 15.9069 27.2949 15.7878C27.0883 15.6656 26.8818 15.543 26.6753 15.4205C26.5392 15.3397 26.403 15.259 26.2668 15.1783C25.691 14.837 25.1222 14.4857 24.5576 14.1262C24.3357 13.9854 24.1219 13.8518 23.881 13.7458C23.5146 13.5336 23.4336 13.0544 23.2981 12.675C23.2629 12.5769 23.2277 12.4788 23.1915 12.3777C23.165 12.3033 23.2187 11.9488 23.1915 11.8721C23.1257 11.8721 22.9798 12.1521 22.9121 12.1521C22.8914 12.2363 22.8708 12.3205 22.8495 12.4073C22.621 13.2486 22.3643 13.8994 21.6047 14.3769C20.7437 14.8233 19.7701 14.8795 18.825 14.6773C18.1565 14.4359 17.6523 14.0409 17.306 13.4159C16.8889 12.5102 16.7757 11.636 17.1099 10.6766C17.4644 9.81596 17.8663 9.33957 18.7285 8.96457C19.7419 8.68178 20.6974 8.72388 21.6289 9.2311C22.3211 9.71798 22.717 10.3795 22.881 11.1996C22.8913 11.2838 22.9015 11.368 22.9121 11.4548C23.1915 11.1996 23.1882 10.8423 23.2981 10.5147C23.4987 9.95537 23.7056 9.59771 24.207 9.2634C24.207 9.19766 24.207 9.13192 24.207 9.06418C23.9931 8.90461 23.9931 8.90461 23.714 8.74162C23.6079 8.67701 23.5018 8.6124 23.3925 8.54583C23.276 8.47581 23.1594 8.4058 23.0428 8.33579C22.9238 8.26358 22.8049 8.1913 22.686 8.11894C22.4446 7.9721 22.203 7.82558 21.9612 7.67928C21.4855 7.39096 21.0127 7.09781 20.5402 6.80429C20.3717 6.69987 20.2032 6.59546 20.0347 6.49107C19.9102 6.41391 19.9102 6.41391 19.7832 6.33519C19.5121 6.16725 19.2407 5.99956 18.9694 5.83193C18.7853 5.71819 18.6013 5.60444 18.4172 5.49069C18.3297 5.43665 18.2422 5.38261 18.152 5.32693C17.6045 4.98829 17.0611 4.64447 16.5235 4.29032C16.1882 4.09704 16.0932 4.2112 15.8398 4.45725ZM41.4395 6.77317C41.1868 7.15214 41.2122 7.45608 41.2145 7.89511C41.2141 7.97904 41.2138 8.06296 41.2134 8.14944C41.2125 8.42725 41.2131 8.70504 41.2138 8.98286C41.2136 9.17577 41.2135 9.36868 41.2132 9.5616C41.2129 9.96612 41.2133 10.3706 41.2143 10.7752C41.2154 11.2938 41.2147 11.8124 41.2136 12.331C41.2128 12.7295 41.2131 13.128 41.2136 13.5264C41.2137 13.7177 41.2135 13.9089 41.2131 14.1001C41.2126 14.3674 41.2133 14.6347 41.2145 14.902C41.2141 14.9811 41.2136 15.0603 41.2132 15.1418C41.2106 15.6741 41.2106 15.6741 41.4395 16.1364C42.7178 16.7756 44.2934 16.3357 45.7227 16.3357C45.7227 13.0814 45.7227 9.82719 45.7227 6.47434C43.4791 6.25558 43.4791 6.25558 41.4395 6.77317ZM9.76367 9.06418C9.68015 9.20915 9.59726 9.35448 9.51465 9.49997C9.46842 9.58086 9.4222 9.66176 9.37457 9.7451C9.25065 9.95004 9.25065 9.95004 9.26562 10.1599C9.43318 10.2962 9.43318 10.2962 9.64539 10.4214C9.71588 10.4658 9.78637 10.5102 9.859 10.556C10.0691 10.6802 10.0691 10.6802 10.3613 10.6579C10.3973 10.082 10.3073 9.68972 10.0625 9.16379C9.96389 9.13092 9.86527 9.09805 9.76367 9.06418ZM18.8281 10.7575C18.5513 11.1378 18.3923 11.4897 18.4297 11.9653C18.527 12.4608 18.7633 12.808 19.1456 13.1357C19.6043 13.3192 20.0551 13.3433 20.5246 13.1754C20.9186 12.97 21.1676 12.7682 21.3184 12.3513C21.3835 11.8185 21.3856 11.3951 21.1503 10.907C20.7643 10.4897 20.4978 10.3419 19.9301 10.3155C19.4541 10.3332 19.1818 10.4207 18.8281 10.7575ZM25.1035 20.0212C25.3752 20.3043 25.6654 20.5121 26 20.7185C26.0657 20.7185 26.1315 20.7185 26.1992 20.7185C26.3579 20.5246 26.3579 20.5246 26.5105 20.2827C26.5642 20.2018 26.6178 20.1209 26.6731 20.0376C26.8134 19.8346 26.8134 19.8346 26.7969 19.6228C26.1111 19.5656 25.6985 19.675 25.1035 20.0212Z" fill="#215CFF"/>
<path d="M30.9827 34.5148C31.1726 34.5106 31.1726 34.5106 31.3663 34.5063C32.3999 34.5041 32.3999 34.5041 32.7099 34.7946C32.9276 35.1476 32.9419 35.3524 32.8752 35.76C32.6516 36.0654 32.5317 36.1493 32.1544 36.2115C31.9673 36.2132 31.9673 36.2132 31.7764 36.2148C31.7094 36.2154 31.6424 36.2161 31.5733 36.2167C31.432 36.2174 31.2907 36.2171 31.1493 36.2158C30.9334 36.2144 30.718 36.2178 30.5021 36.2216C30.3645 36.2217 30.2269 36.2215 30.0893 36.221C29.9022 36.2212 29.9022 36.2212 29.7113 36.2213C29.3889 36.1584 29.3889 36.1584 29.1481 35.9187C28.986 35.653 28.941 35.5515 28.9842 35.2495C28.9913 35.1835 28.9984 35.1175 29.0056 35.0495C29.3279 34.3396 30.347 34.5136 30.9827 34.5148Z" fill="#FF8303"/>
<path d="M8.86691 43.7282C9.1097 43.8777 9.1097 43.8777 9.26534 44.1267C9.34544 44.5297 9.32892 44.8218 9.1097 45.1726C8.77488 45.3786 8.55616 45.3703 8.16964 45.322C7.93307 45.2224 7.93307 45.2224 7.7712 45.0232C7.67508 44.7507 7.63968 44.514 7.67159 44.2263C7.99935 43.7347 8.28885 43.6337 8.86691 43.7282Z" fill="#FF8303"/>
<path d="M43.9284 13.3476C44.2155 13.5199 44.2294 13.6544 44.3206 13.9826C44.3268 14.3437 44.3268 14.3437 44.1836 14.6363C43.8763 14.8837 43.7069 14.9107 43.3214 14.8826C43.1315 14.8418 43.1315 14.8418 42.8825 14.6924C42.6719 14.3413 42.6401 14.0453 42.7331 13.6465C43.0951 13.1967 43.39 13.1981 43.9284 13.3476Z" fill="#FF8303"/>
<circle cx="19.9822" cy="11.6829" r="2.20874" stroke="#FF8303" stroke-width="2"/>
</svg>
