<svg width="52" height="51" viewBox="0 0 52 51" fill="none" xmlns="http://www.w3.org/2000/svg">
<g clip-path="url(#clip0_116_5973)">
<path d="M21.4893 23.6626C21.4893 22.6468 21.1656 21.6573 20.5653 20.8379C19.9649 20.0184 19.1191 19.4115 18.1505 19.1052C17.182 18.799 16.141 18.8092 15.1787 19.1346C14.2163 19.4599 13.3827 20.0834 12.7986 20.9146C12.2146 21.7458 11.9105 22.7414 11.9306 23.757C11.9507 24.7727 12.2938 25.7555 12.9102 26.563C13.5267 27.3704 14.3843 27.9605 15.3587 28.2476C16.3332 28.5346 17.3737 28.5038 18.3295 28.1595" stroke="#FF8303" stroke-width="2"/>
<path d="M20.3212 -0.000187732C20.7314 0.311944 20.878 0.724337 21.052 1.19279C21.0985 1.31413 21.0985 1.31413 21.146 1.43792C21.2498 1.70939 21.352 1.98142 21.4543 2.25347C21.5284 2.44824 21.6026 2.64296 21.6769 2.83766C21.8804 3.37164 22.0824 3.90612 22.2843 4.4407C22.5039 5.02137 22.7247 5.60156 22.9453 6.18182C23.317 7.1599 23.6881 8.13824 24.0585 9.11679C25.2004 12.1328 26.3466 15.1471 27.4963 18.1601C27.5886 18.4021 27.6809 18.6442 27.7732 18.8862C27.9017 19.2231 28.0302 19.5599 28.1589 19.8968C28.1965 19.9957 28.2342 20.0945 28.273 20.1964C28.3268 20.337 28.3268 20.337 28.3816 20.4804C28.4157 20.5697 28.4498 20.659 28.485 20.7511C28.6229 21.1049 28.7682 21.4556 28.9152 21.8058C28.9872 22.0135 28.9872 22.0135 28.9872 22.3123C29.1114 22.2991 29.2356 22.2859 29.3635 22.2722C30.8802 22.1135 32.3864 22.0066 33.9117 21.9886C34.0108 21.9864 34.1099 21.9843 34.212 21.9821C35.9521 21.9743 37.2127 22.8708 38.4501 24.0057C38.5044 24.0549 38.5586 24.1041 38.6145 24.1547C39.4634 24.9335 40.1303 25.7847 40.7698 26.7399C40.9591 27.0219 41.1507 27.3021 41.3427 27.5823C43.1885 30.2798 44.9853 33.0105 46.7574 35.7569C47.0584 36.2234 47.3613 36.6887 47.664 37.1541C47.8799 37.4861 48.0957 37.8182 48.3115 38.1502C48.3582 38.2221 48.4049 38.2939 48.453 38.368C49.1865 39.4968 49.9127 40.6301 50.6314 41.7683C50.7512 41.9559 50.8729 42.1422 50.9961 42.3275C51.0594 42.4234 51.1226 42.5194 51.1877 42.6182C51.2455 42.7047 51.3032 42.7911 51.3628 42.8802C51.5698 43.261 51.622 43.6096 51.499 44.0272C51.2455 44.3328 51.0916 44.4105 50.7021 44.4754C50.287 44.4062 50.0424 44.2108 49.7896 43.8723C49.6698 43.6878 49.5565 43.5006 49.4445 43.3112C49.3565 43.1664 49.2683 43.0216 49.1799 42.877C49.135 42.803 49.09 42.7289 49.0437 42.6527C48.8347 42.3121 48.6169 41.9775 48.3986 41.6428C48.0178 41.0571 47.6402 40.4695 47.2646 39.8805C46.4079 38.5375 45.5374 37.2041 44.6627 35.8728C44.3718 35.4299 44.0829 34.9857 43.7945 34.5412C43.0427 33.3831 42.2786 32.2332 41.5131 31.0842C41.4583 31.0019 41.4035 30.9195 41.3471 30.8347C38.8062 26.5266 38.8062 26.5266 34.8642 23.8065C34.5329 23.7706 34.2071 23.7734 33.8743 23.7815C33.783 23.7826 33.6917 23.7837 33.5977 23.7849C32.9009 23.796 32.2068 23.8317 31.5121 23.8843C30.9039 23.9235 30.2936 23.9099 29.6845 23.9061C29.7524 24.0802 29.7524 24.0802 29.8217 24.2579C29.9892 24.6882 30.1562 25.1188 30.3229 25.5494C30.3952 25.7358 30.4676 25.9222 30.5403 26.1085C30.6446 26.3761 30.7483 26.644 30.8518 26.9119C30.9008 27.037 30.9008 27.037 30.9508 27.1647C30.9957 27.2813 30.9957 27.2813 31.0415 27.4003C31.068 27.4686 31.0946 27.537 31.1219 27.6074C31.1786 27.7908 31.1786 27.7908 31.1786 28.0897C31.2498 28.117 31.321 28.1444 31.3943 28.1725C32.695 28.7084 33.9496 29.441 35.163 30.1503C35.2332 30.1911 35.3034 30.2319 35.3758 30.2739C35.8477 30.5547 35.8477 30.5547 35.9599 30.7791C36.0165 31.4816 36.0165 31.4816 35.8105 31.825C35.4606 32.0349 35.1576 32.0371 34.7646 31.9744C34.3936 31.8326 34.0529 31.6444 33.7062 31.4515C33.6061 31.3975 33.506 31.3435 33.4029 31.2878C33.0923 31.1198 32.7829 30.9496 32.4736 30.7791C32.2893 30.679 32.105 30.579 31.9207 30.4791C31.5596 30.2833 31.1991 30.0865 30.839 29.8889C30.2602 29.5714 29.6799 29.2567 29.0993 28.9426C28.9999 28.8888 28.9006 28.835 28.7982 28.7796C28.5966 28.6705 28.3951 28.5614 28.1936 28.4523C27.5949 28.1283 26.9964 27.804 26.3979 27.4798C25.8974 27.2087 25.3969 26.9376 24.8963 26.6667C24.7965 26.6127 24.6967 26.5587 24.594 26.5031C24.3947 26.3952 24.1954 26.2875 23.996 26.1798C23.4973 25.9101 22.9999 25.6383 22.5045 25.3625C22.4064 25.3082 22.3084 25.2538 22.2074 25.1979C22.023 25.0956 21.8389 24.9927 21.6552 24.8891C20.8303 24.4327 19.9884 24.0407 19.0263 24.2049C18.4725 24.428 18.0956 24.7613 17.831 25.3006C17.6354 25.8379 17.5816 26.2681 17.775 26.8134C18.0085 27.3098 18.3109 27.6397 18.7275 27.99C18.8043 28.0549 18.881 28.1197 18.9602 28.1865C19.191 28.3775 19.4237 28.5659 19.6575 28.7533C19.8387 28.899 20.019 29.046 20.1991 29.1931C20.8891 29.7567 21.5829 30.3146 22.2852 30.8628C22.7249 31.2068 23.1577 31.5585 23.5897 31.9122C24.1336 32.3571 24.6853 32.7893 25.2457 33.2133C25.906 33.7132 26.5479 34.2319 27.1847 34.7613C27.6994 35.1882 28.2243 35.5974 28.7565 36.0024C29.2808 36.4043 29.7906 36.8245 30.3012 37.2436C30.5318 37.4326 30.764 37.6182 31.0008 37.7992C32.5833 39.0279 33.205 40.9163 33.9003 42.7328C34.9132 45.3401 36.7643 47.4387 39.3279 48.5905C39.984 48.8734 40.6599 49.0704 41.3537 49.2383C41.7337 49.333 41.9868 49.3975 42.2353 49.7049C42.3385 50.103 42.3774 50.3132 42.1979 50.6885C41.9627 50.9961 41.9627 50.9961 41.7431 51.0271C39.6014 51.11 37.3264 49.7542 35.7607 48.41C35.6788 48.3414 35.5968 48.2728 35.5124 48.2022C34.5368 47.3603 33.6865 46.3593 33.0712 45.2225C33.0712 45.1567 33.0712 45.091 33.0712 45.0233C33.0055 45.0494 32.9397 45.0755 32.872 45.1024C32.5712 45.2216 32.2703 45.3403 31.9693 45.459C31.8659 45.5001 31.7624 45.5412 31.6559 45.5836C29.8587 46.291 28.6609 46.1412 26.8953 45.3949C25.7082 44.8776 24.5425 44.3127 23.3967 43.7097C23.3089 43.6648 23.2211 43.62 23.1306 43.5738C22.3419 43.1468 21.6395 42.5256 21.3617 41.6478C21.3102 41.4034 21.2836 41.1627 21.2609 40.914C21.2526 40.8252 21.2443 40.7364 21.2358 40.6449C21.2298 40.5777 21.2239 40.5105 21.2177 40.4412C21.1429 40.4844 21.0681 40.5276 20.991 40.5721C20.7105 40.7339 20.43 40.8958 20.1495 41.0577C20.0287 41.1274 19.9078 41.1972 19.787 41.2669C19.7285 41.3007 19.67 41.3344 19.6098 41.3692C19.552 41.4025 19.4943 41.4359 19.4348 41.4702C19.2656 41.5678 19.0962 41.6652 18.9268 41.7626C18.751 41.8642 18.5757 41.9665 18.4013 42.0705C17.9858 42.3173 17.7217 42.4152 17.2333 42.3338C16.7394 41.9281 16.4585 41.4075 16.1439 40.8583C16.0878 40.7619 16.0317 40.6655 15.974 40.5662C15.8553 40.3621 15.737 40.1577 15.6189 39.9532C15.4464 39.6547 15.2726 39.357 15.0984 39.0595C14.561 38.142 14.0273 37.2224 13.4972 36.3007C12.9231 35.3028 12.3434 34.3086 11.7548 33.3191C11.1662 32.3295 10.5863 31.3353 10.0123 30.3371C9.5973 29.6156 9.18002 28.8956 8.76031 28.1768C8.70309 28.0788 8.64586 27.9808 8.5869 27.8798C8.41441 27.5845 8.24185 27.2892 8.06927 26.994C7.83885 26.5997 7.60849 26.2054 7.37823 25.8111C7.32081 25.7128 7.26339 25.6144 7.20423 25.5131C6.78013 24.786 6.35979 24.0568 5.94012 23.3271C5.42797 22.437 4.9087 21.5514 4.38373 20.6688C3.7336 19.5757 3.09528 18.4763 2.46119 17.3739C2.08109 16.7132 1.69831 16.0542 1.31451 15.3957C1.25543 15.2942 1.19635 15.1926 1.13548 15.088C1.08092 14.9945 1.02637 14.901 0.970161 14.8046C0.922291 14.7225 0.874421 14.6404 0.8251 14.5558C0.72139 14.3824 0.611067 14.2129 0.498962 14.0447C0.458496 13.837 0.458496 13.837 0.449158 13.6089C0.444022 13.5342 0.438885 13.4595 0.433594 13.3825C0.583667 12.8447 1.18607 12.591 1.64019 12.3315C1.8509 12.2151 2.06194 12.0993 2.27325 11.9841C2.49953 11.859 2.72572 11.7339 2.95184 11.6086C3.0615 11.5479 3.17115 11.4872 3.28413 11.4247C3.6646 11.2123 4.04051 10.9931 4.41486 10.7701C5.14477 10.3364 5.88114 9.91431 6.61871 9.49383C7.53529 8.97124 8.45072 8.44676 9.3642 7.91876C10.0358 7.53056 10.7079 7.14326 11.3817 6.75885C11.442 6.7244 11.5024 6.68994 11.5646 6.65444C11.8645 6.4833 12.1646 6.31246 12.465 6.14213C12.9713 5.8543 13.4749 5.56484 13.9688 5.25615C14.0453 5.20888 14.1217 5.1616 14.2005 5.11289C14.3356 5.02861 14.4698 4.94277 14.6027 4.85487C15.0041 4.60555 15.3592 4.49416 15.8271 4.51959C16.2562 4.64623 16.423 5.0094 16.6357 5.37872C16.7166 5.51239 16.7166 5.51239 16.7991 5.64875C16.9813 5.9549 17.1575 6.26394 17.3329 6.57403C17.432 6.74752 17.5311 6.92101 17.6303 7.09445C17.6978 7.21257 17.7653 7.33073 17.8327 7.44892C18.1601 8.02294 18.4932 8.59358 18.8271 9.16387C19.3114 9.99234 19.7924 10.8226 20.2714 11.6541C20.9807 12.8853 21.696 14.1129 22.413 15.3397C23.1936 16.6752 23.9712 18.0123 24.7433 19.3528C25.2154 20.1719 25.6912 20.9889 26.1683 21.8051C26.8471 22.9675 27.5188 24.134 28.1904 25.3006C27.9953 24.6183 27.7696 23.955 27.5149 23.2928C27.4603 23.1496 27.4603 23.1496 27.4046 23.0034C27.285 22.6899 27.1649 22.3766 27.0449 22.0633C26.9599 21.8409 26.875 21.6184 26.7902 21.396C26.614 20.9342 26.4377 20.4725 26.2612 20.0108C25.8959 19.0546 25.5326 18.0977 25.1693 17.1408C24.9732 16.6245 24.7769 16.1081 24.5807 15.5918C24.2613 14.7514 23.942 13.9109 23.6227 13.0704C23.1906 11.9328 22.7582 10.7952 22.3258 9.65768C22.2156 9.36788 22.1055 9.07806 21.9953 8.78825C21.1458 6.55318 20.2916 4.32005 19.4247 2.09161C19.0258 2.09161 18.8186 2.15168 18.4513 2.29141C18.3341 2.33563 18.2169 2.37985 18.0961 2.4254C17.9667 2.47496 17.8374 2.52452 17.708 2.57409C17.5718 2.62573 17.4356 2.67731 17.2993 2.72883C17.0068 2.8396 16.7144 2.95076 16.4221 3.06225C15.9617 3.23782 15.501 3.41253 15.0403 3.58706C14.5633 3.76777 14.0864 3.9485 13.6095 4.12952C11.9907 4.74397 10.3695 5.35208 8.74799 5.95931C8.39757 6.09055 8.04719 6.22188 7.69681 6.35322C7.05732 6.59291 6.4178 6.83252 5.77826 7.07208C5.76524 7.4636 5.76524 7.4636 5.84674 7.81292C5.87787 8.16778 5.87787 8.16778 5.77826 8.44793C5.50287 8.74914 5.28132 8.80305 4.88177 8.86505C4.61407 8.82769 4.61407 8.82769 4.38373 8.66583C4.21835 8.39522 4.10146 8.16052 3.98529 7.86895C3.94561 7.77201 3.90594 7.67506 3.86506 7.57518C3.53436 6.69368 3.53436 6.69368 3.61176 6.2752C4.02928 5.55945 5.19998 5.33623 5.9444 5.06355C6.0809 5.01315 6.21737 4.96271 6.35383 4.91222C6.64616 4.80415 6.93857 4.69634 7.23107 4.58873C7.93326 4.33037 8.63494 4.07062 9.33662 3.81087C9.49885 3.75082 9.6611 3.69078 9.82335 3.63075C11.8942 2.86454 13.96 2.0849 16.0256 1.30456C16.3058 1.19874 16.5859 1.09295 16.8661 0.987154C17.0556 0.915535 17.2452 0.843823 17.4347 0.772107C17.7658 0.646985 18.0972 0.522536 18.4286 0.39825C18.5318 0.359109 18.6349 0.319968 18.7411 0.279641C18.8862 0.225366 18.8862 0.225366 19.0342 0.169994C19.1185 0.138234 19.2027 0.106473 19.2895 0.0737502C19.6625 -0.0436952 19.9325 -0.0547477 20.3212 -0.000187732ZM14.603 6.87014C14.4353 6.96644 14.4353 6.96644 14.2641 7.06468C14.1416 7.13562 14.019 7.20657 13.8964 7.27752C13.7697 7.35045 13.643 7.42334 13.5163 7.4962C13.1905 7.68362 12.865 7.87154 12.5396 8.05964C12.2563 8.22336 11.9729 8.3868 11.6895 8.55027C11.3724 8.73319 11.0553 8.91617 10.7383 9.09931C9.94958 9.55485 9.15919 10.0074 8.3681 10.4588C6.40437 11.5795 4.44739 12.7118 2.49115 13.8455C2.62791 14.2098 2.79228 14.5384 2.98764 14.8747C3.04723 14.9776 3.10681 15.0805 3.16821 15.1866C3.2645 15.3517 3.2645 15.3517 3.36273 15.5202C3.43013 15.6363 3.4975 15.7524 3.56484 15.8686C3.7377 16.1665 3.91097 16.4641 4.08441 16.7617C4.17926 16.9244 4.27403 17.0872 4.3688 17.25C4.7715 17.9418 5.17513 18.633 5.57904 19.324C5.80947 19.7183 6.03983 20.1125 6.27008 20.5069C6.35621 20.6544 6.35621 20.6544 6.44408 20.8049C6.86819 21.532 7.28853 22.2612 7.70819 22.9909C8.22035 23.881 8.73963 24.7666 9.26459 25.6492C10.1036 27.0601 10.9229 28.482 11.7403 29.9055C12.5001 31.2279 13.2677 32.545 14.0473 33.8558C14.5676 34.7319 15.0788 35.6129 15.5868 36.4962C16.0252 37.2586 16.4663 38.0194 16.9096 38.779C16.9679 38.8788 17.0261 38.9787 17.0861 39.0816C17.3322 39.503 17.5793 39.9235 17.831 40.3416C18.2056 40.2014 18.5433 40.0299 18.8897 39.8303C18.9997 39.7672 19.1096 39.7041 19.2229 39.6391C19.342 39.5703 19.4612 39.5015 19.5804 39.4327C19.7044 39.3614 19.8284 39.2901 19.9525 39.2188C20.211 39.0703 20.4694 38.9217 20.7277 38.773C21.1661 38.5208 21.6054 38.2703 22.0449 38.0201C22.5632 37.7248 23.0807 37.4283 23.5982 37.1315C23.8844 36.9679 24.1713 36.8058 24.4585 36.644C24.6151 36.5547 24.7716 36.4653 24.9282 36.3759C24.9982 36.337 25.0683 36.2981 25.1405 36.2581C25.3466 36.1429 25.3466 36.1429 25.6005 35.9588C25.6005 35.8602 25.6005 35.7616 25.6005 35.66C25.4034 35.4828 25.2087 35.3257 24.9966 35.1681C24.8678 35.0698 24.739 34.9713 24.6103 34.8728C24.5434 34.822 24.4764 34.7712 24.4075 34.7188C24.0872 34.4732 23.7732 34.2198 23.4589 33.9666C22.9819 33.5837 22.5027 33.2041 22.0208 32.8273C21.3707 32.3186 20.7302 31.7985 20.0905 31.2768C19.7977 31.0381 19.5029 30.8021 19.2068 30.5674C18.8137 30.2538 18.4272 29.9328 18.0427 29.6087C17.9608 29.5399 17.9608 29.5399 17.8772 29.4697C17.644 29.2722 17.4206 29.0734 17.2077 28.8538C17.0363 28.7533 16.9576 28.6947 16.7509 28.5177C16.7231 28.4617 16.7794 28.5753 16.7509 28.5177C16.6736 28.3643 16.5948 28.2118 16.5143 28.0601C15.9693 27.0166 15.7939 26.1367 16.1345 24.9854C16.482 24.0298 17.0848 23.2583 17.987 22.7722C19.0444 22.3321 20.1616 22.4094 21.2177 22.8104C22.3858 23.2925 23.4907 23.9099 24.5951 24.5204C24.7218 24.5904 24.7218 24.5904 24.8511 24.6618C25.0217 24.7573 25.1913 24.8544 25.3601 24.953C25.4404 24.9995 25.5208 25.046 25.6036 25.094C25.6751 25.1361 25.7465 25.1783 25.8202 25.2217C25.8792 25.2478 25.9382 25.2738 25.999 25.3006C26.0647 25.2677 26.1304 25.2349 26.1982 25.201C25.4431 23.8843 24.6833 22.5709 23.9072 21.2664C23.3185 20.2767 22.7385 19.2823 22.1644 18.284C21.7519 17.5666 21.3365 16.8509 20.9189 16.1365C20.4383 15.3145 19.9616 14.4904 19.487 13.665C18.9104 12.6628 18.3235 11.6671 17.7323 10.6734C17.0727 9.56294 16.4277 8.44425 15.7854 7.32368C15.7132 7.19914 15.7132 7.19914 15.6396 7.07208C15.5625 6.9327 15.5625 6.9327 15.4839 6.79052C15.4366 6.71908 15.3894 6.64764 15.3408 6.57403C15.0423 6.57403 14.8606 6.72162 14.603 6.87014ZM28.29 25.4002C28.3896 25.5994 28.3896 25.5994 28.3896 25.5994L28.29 25.4002ZM28.3896 25.5994C28.4892 25.7986 28.4892 25.7986 28.4892 25.7986L28.3896 25.5994ZM26.0301 37.5899C25.9412 37.6405 25.8523 37.6911 25.7606 37.7432C25.6766 37.792 25.5926 37.8408 25.506 37.8911C25.4286 37.9359 25.3512 37.9808 25.2715 38.027C25.1878 38.088 25.1878 38.088 25.1025 38.1502C25.1025 38.2159 25.1025 38.2817 25.1025 38.3494C25.3362 38.5268 25.3362 38.5268 25.6367 38.7105C25.8032 38.8161 25.8032 38.8161 25.9731 38.9237C26.0917 38.9979 26.2103 39.0721 26.3289 39.1463C26.4464 39.2204 26.5638 39.2946 26.6812 39.3689C26.8973 39.5055 27.1136 39.6416 27.3302 39.7774C27.5189 39.8966 27.7058 40.0186 27.8915 40.1424C28.1211 40.1714 28.1211 40.1714 28.3756 40.1653C28.4703 40.1652 28.5651 40.165 28.6627 40.1648C28.7616 40.1635 28.8605 40.1623 28.9623 40.1611C29.1083 40.161 29.1083 40.161 29.2573 40.1609C29.775 40.1577 30.2701 40.1318 30.7802 40.0428C29.8647 38.8657 28.5313 37.8794 27.2939 37.0545C26.8062 37.0545 26.4434 37.348 26.0301 37.5899ZM23.4527 39.7689C23.1316 40.1311 23.0236 40.2996 22.9796 40.7836C23.0139 41.1753 23.0801 41.3228 23.3095 41.6365C23.5732 41.8433 23.5732 41.8433 23.8862 42.0217C23.943 42.0556 23.9998 42.0894 24.0584 42.1243C24.6995 42.4997 25.3654 42.8251 26.0363 43.1431C26.1307 43.1883 26.1307 43.1883 26.2271 43.2343C28.0104 44.2295 28.0104 44.2295 29.9281 44.4435C30.049 44.4006 30.17 44.3577 30.2946 44.3135C30.359 44.291 30.4234 44.2684 30.4898 44.2452C31.0942 44.0301 31.6867 43.7863 32.2744 43.5291C32.0825 42.8462 31.8513 42.1911 31.5771 41.5369C31.4863 41.5513 31.3955 41.5657 31.302 41.5805C30.5002 41.6954 29.7104 41.7597 28.9001 41.7673C28.815 41.769 28.7299 41.7707 28.6422 41.7725C27.4324 41.7716 26.6053 41.2997 25.613 40.6404C25.501 40.5674 25.3889 40.4945 25.2768 40.4218C24.4658 39.8922 24.4658 39.8922 24.1904 39.6712C23.8649 39.447 23.7393 39.5172 23.4527 39.7689Z" fill="#215CFF"/>
<path d="M14.8433 7.96865C15.3744 8.43082 15.7045 9.01184 16.0599 9.60956C16.1691 9.79231 16.2809 9.97332 16.3929 10.1544C17.0564 11.2507 17.0564 11.2507 16.9351 11.953C16.7919 12.2021 16.7919 12.2021 16.5367 12.3515C16.2255 12.4114 15.9465 12.4383 15.6402 12.3515C15.1923 11.8991 14.9115 11.2918 14.6065 10.7377C14.5644 10.6635 14.5222 10.5894 14.4787 10.513C14.4411 10.4452 14.4035 10.3774 14.3647 10.3076C14.3254 10.2589 14.2861 10.2102 14.2457 10.1601C13.9191 10.1601 13.8416 10.2042 13.5752 10.3745C13.5034 10.4189 13.4316 10.4634 13.3575 10.5093C13.2083 10.6034 13.0594 10.698 12.9108 10.7933C12.415 11.0986 12.0425 11.2413 11.4566 11.2558C11.164 11.1063 11.164 11.1063 10.9585 10.8573C10.8496 10.4827 10.8091 10.2687 10.9736 9.91031C11.1923 9.61551 11.3921 9.49315 11.7142 9.31883C11.8233 9.25886 11.9325 9.1989 12.0449 9.13712C12.1589 9.07613 12.273 9.01513 12.3904 8.95229C12.6153 8.82963 12.8402 8.70694 13.0651 8.58421C13.1649 8.53052 13.2648 8.47683 13.3676 8.42151C13.552 8.3202 13.7336 8.21354 13.9117 8.10138C14.2454 7.91241 14.4663 7.9148 14.8433 7.96865Z" fill="#FF8303"/>
<path d="M17.3344 34.6641C17.7539 34.9982 17.9917 35.4642 18.2558 35.9217C18.3015 35.999 18.3472 36.0763 18.3943 36.1559C18.7289 36.7296 18.7289 36.7296 18.7289 36.9551C19.3216 36.668 19.9 36.3794 20.4534 36.0213C20.8586 35.7752 21.1358 35.6559 21.6176 35.7598C21.9854 36.018 22.0986 36.1624 22.1779 36.6065C22.0991 37.0481 21.9499 37.1592 21.6176 37.4532C21.3388 37.6346 21.3388 37.6346 21.0382 37.7999C20.9293 37.8603 20.8203 37.9207 20.7081 37.9829C20.5953 38.0444 20.4825 38.1058 20.3663 38.1691C20.1965 38.263 20.1965 38.263 20.0233 38.3588C19.7253 38.5232 19.4272 38.6868 19.1274 38.8477C19.0569 38.8867 18.9864 38.9256 18.9138 38.9657C18.5818 39.1116 18.3722 39.053 18.0317 38.9473C17.4781 38.3834 17.0966 37.6185 16.6994 36.9427C16.6037 36.7846 16.6037 36.7846 16.506 36.6232C16.4157 36.4697 16.4157 36.4697 16.3235 36.3131C16.2416 36.1752 16.2416 36.1752 16.158 36.0345C16.0212 35.7175 16.0038 35.5041 16.0395 35.1622C16.4288 34.5782 16.6514 34.511 17.3344 34.6641Z" fill="#FF8303"/>
<path d="M7.87164 12.0525C8.12067 12.202 8.12067 12.202 8.27008 12.451C8.34718 12.9907 8.34718 12.9907 8.27008 13.2479C7.88023 13.7313 7.38277 13.9883 6.84442 14.2751C6.71952 14.343 6.71952 14.343 6.59209 14.4122C6.38816 14.5229 6.18383 14.6328 5.97906 14.742C6.16305 15.2658 6.45927 15.7102 6.75707 16.1749C6.99501 16.5584 7.15029 16.8695 7.17438 17.3318C7.03752 17.6186 6.90046 17.805 6.67633 18.0291C6.28259 18.0737 6.06096 18.084 5.72717 17.8602C5.47215 17.6224 5.32666 17.4128 5.15962 17.1081C5.10415 17.0083 5.04868 16.9084 4.99153 16.8056C4.93529 16.7019 4.87905 16.5982 4.82111 16.4914C4.70778 16.2861 4.59443 16.0807 4.48103 15.8754C4.43152 15.7846 4.382 15.6938 4.33099 15.6002C4.2315 15.4213 4.12797 15.2446 4.02117 15.07C3.88534 14.8383 3.84174 14.7083 3.83746 14.4432C3.83438 14.3795 3.8313 14.3158 3.82812 14.2502C4.02943 13.5509 4.9355 13.1998 5.52817 12.8707C5.71088 12.7688 5.89192 12.6641 6.07303 12.5593C7.17136 11.9373 7.17136 11.9373 7.87164 12.0525Z" fill="#FF8303"/>
<path d="M18.729 3.18734C19.0488 3.53779 19.2296 3.88003 19.4025 4.31962C19.4502 4.44071 19.4979 4.56179 19.5471 4.68654C19.5712 4.74916 19.5953 4.81177 19.6201 4.87628C19.6937 5.06671 19.7689 5.25639 19.8443 5.44606C20.0696 6.02377 20.2704 6.54888 20.3227 7.17172C20.1645 7.52771 20.0522 7.65093 19.7251 7.86898C19.4387 7.91256 19.4387 7.91256 19.1274 7.86898C18.5429 7.37994 18.3386 6.7483 18.0756 6.05785C17.9946 5.84641 17.9104 5.63646 17.8259 5.42641C17.7732 5.29063 17.7206 5.15477 17.6683 5.01883C17.6209 4.89681 17.5734 4.77479 17.5246 4.64907C17.4145 4.20397 17.4428 3.93321 17.5337 3.48617C17.8146 3.12661 18.3013 3.06038 18.729 3.18734Z" fill="#FF8303"/>
</g>
<defs>
<clipPath id="clip0_116_5973">
<rect width="51" height="51" fill="white" transform="translate(0.5)"/>
</clipPath>
</defs>
</svg>
