<svg width="32" height="32" viewBox="0 0 32 32" fill="none" xmlns="http://www.w3.org/2000/svg">
<path d="M21.0711 1.41773C21.2136 1.41793 21.356 1.41646 21.4986 1.41488C21.5899 1.41474 21.6813 1.41469 21.7726 1.41476C21.8551 1.41457 21.9375 1.41439 22.0225 1.41419C22.3429 1.44705 22.6021 1.56462 22.8197 1.80465C23.1173 2.17581 23.227 2.66982 23.2829 3.13448C23.3393 3.60059 23.3393 3.60059 23.6094 3.96371C23.9323 4.15146 24.3474 4.36263 24.7248 4.27438C24.7988 4.23135 24.7988 4.23135 24.8744 4.18746C24.9426 4.15024 25.0107 4.11302 25.081 4.07467C25.1555 4.03175 25.2298 3.98861 25.3041 3.94528C25.3782 3.90247 25.4522 3.85966 25.5263 3.81686C25.6404 3.75078 25.7544 3.68454 25.8681 3.61782C26.2387 3.40226 26.5132 3.33426 26.9369 3.37496C27.2028 3.47724 27.4139 3.62056 27.6244 3.81246C27.6244 3.85371 27.6244 3.89496 27.6244 3.93746C27.6657 3.93746 27.7069 3.93746 27.7494 3.93746C27.7494 3.97871 27.7494 4.01996 27.7494 4.06246C27.7907 4.06246 27.8319 4.06246 27.8744 4.06246C27.8744 4.10371 27.8744 4.14496 27.8744 4.18746C27.9157 4.18746 27.9569 4.18746 27.9994 4.18746C28.0849 4.27438 28.0849 4.27438 28.1791 4.39059C28.286 4.52042 28.3885 4.63823 28.5111 4.75387C28.7243 4.98171 28.8234 5.20566 28.8393 5.51559C28.8181 5.9718 28.6404 6.32621 28.3878 6.70016C28.3406 6.77031 28.3406 6.77031 28.2923 6.84188C28.228 6.93582 28.1623 7.02887 28.0953 7.12093C28.009 7.24539 27.9337 7.36056 27.8744 7.49996C27.9019 7.69741 27.9019 7.69741 27.9994 7.87496C28.0151 7.9428 28.0308 8.01064 28.047 8.08053C28.1113 8.31218 28.1766 8.48789 28.3119 8.68746C28.614 8.8389 28.9189 8.8862 29.2494 8.93746C29.859 9.0591 30.3266 9.21622 30.6869 9.74996C30.7992 10.087 30.766 10.4523 30.7679 10.8053C30.7686 10.9007 30.7698 10.996 30.7717 11.0913C30.7909 12.0781 30.7909 12.0781 30.4994 12.5C30.121 12.8699 29.6247 12.9471 29.1244 13.0625C29.066 13.0767 29.0076 13.091 28.9474 13.1057C28.7284 13.1576 28.5381 13.1875 28.3119 13.1875C28.3013 13.2253 28.2906 13.2632 28.2797 13.3022C28.2645 13.3546 28.2494 13.4069 28.2338 13.4609C28.2178 13.5187 28.2019 13.5766 28.1854 13.6362C28.1244 13.8125 28.1244 13.8125 28.0321 13.9536C27.9215 14.1309 27.8793 14.2262 27.8744 14.4375C27.9996 14.7437 28.1913 15.0123 28.3783 15.2834C28.6751 15.7174 28.9041 16.151 28.8119 16.6875C28.6282 17.1533 28.3309 17.4542 27.976 17.8007C27.9236 17.8536 27.8712 17.9064 27.8173 17.9608C27.4806 18.294 27.1838 18.5844 26.6869 18.6015C25.9991 18.581 25.3845 18.1107 24.8568 17.7068C24.6893 17.6049 24.6893 17.6049 24.5023 17.6638C24.4395 17.6922 24.3767 17.7207 24.3119 17.75C24.2471 17.7766 24.1824 17.8031 24.1156 17.8305C23.9854 17.8865 23.8552 17.9425 23.725 17.9985C23.5619 18.0625 23.5619 18.0625 23.4369 18.0625C23.4277 18.1274 23.4277 18.1274 23.4184 18.1936C23.1499 19.9503 23.1499 19.9503 22.6215 20.3525C22.2411 20.5823 21.7971 20.5465 21.3671 20.5407C21.2184 20.539 21.0701 20.5407 20.9215 20.5427C20.0437 20.5451 20.0437 20.5451 19.7132 20.2824C19.4094 19.9576 19.3104 19.5811 19.2064 19.1601C19.1932 19.1096 19.1799 19.0592 19.1663 19.0072C19.086 18.6928 19.0331 18.3851 18.9994 18.0625C18.9601 18.0518 18.9208 18.0412 18.8803 18.0302C18.5581 17.939 18.2778 17.8373 17.9923 17.6609C17.8097 17.6053 17.7317 17.6631 17.5619 17.75C17.372 17.8608 17.1856 17.9768 16.9994 18.0937C16.2276 18.5786 16.2276 18.5786 15.7963 18.5937C15.7418 18.5969 15.6874 18.6002 15.6312 18.6035C15.1136 18.4942 14.715 18.0592 14.3549 17.6953C14.3118 17.6535 14.2688 17.6116 14.2244 17.5686C13.8919 17.2357 13.6192 16.8953 13.5932 16.4101C13.6144 15.9886 13.8156 15.6305 14.0624 15.2966C14.4243 14.839 14.4243 14.839 14.5576 14.2925C14.4865 13.9813 14.3401 13.7151 14.1869 13.4375C14.141 13.2846 14.141 13.2846 14.1244 13.1875C14.0529 13.1795 13.9813 13.1715 13.9076 13.1633C12.3752 12.9707 12.3752 12.9707 11.9655 12.5185C11.7273 12.201 11.6766 11.9372 11.6742 11.5437C11.6739 11.499 11.6735 11.4544 11.6731 11.4084C11.6725 11.314 11.6721 11.2196 11.6719 11.1252C11.6713 10.9816 11.6693 10.838 11.6674 10.6944C11.667 10.6025 11.6666 10.5106 11.6664 10.4187C11.6652 10.3548 11.6652 10.3548 11.6641 10.2896C11.6656 9.95332 11.7521 9.70796 11.9686 9.4504C12.4444 9.04019 13.0178 8.96184 13.6169 8.83477C13.8778 8.78297 13.8778 8.78297 14.1244 8.68746C14.1934 8.53575 14.2561 8.38574 14.3158 8.23043C14.3326 8.18809 14.3494 8.14576 14.3667 8.10214C14.4125 7.98534 14.456 7.86768 14.4994 7.74996C14.5149 7.71018 14.5304 7.67039 14.5463 7.6294C14.5689 7.44146 14.4972 7.35824 14.3947 7.20162C14.3584 7.1449 14.3221 7.08819 14.2847 7.02975C14.246 6.97093 14.2073 6.91212 14.1674 6.85153C13.823 6.32265 13.5526 5.8997 13.6244 5.24996C13.7476 4.88052 14.0332 4.57879 14.3119 4.31246C14.3532 4.31246 14.3944 4.31246 14.4369 4.31246C14.4513 4.27717 14.4658 4.24189 14.4806 4.20553C14.583 4.02528 14.7085 3.91166 14.8627 3.7734C14.9159 3.7249 14.9692 3.6764 15.0241 3.62643C15.3215 3.39544 15.5631 3.34381 15.9369 3.37496C16.4147 3.46431 16.8147 3.73794 17.2211 3.9902C17.2581 4.01307 17.2952 4.03595 17.3333 4.05952C17.4253 4.11765 17.5154 4.17884 17.6051 4.24044C17.7424 4.32514 17.7424 4.32514 17.881 4.29855C17.971 4.26226 18.0606 4.2251 18.1499 4.18725C18.3119 4.12496 18.3119 4.12496 18.4695 4.08784C18.6524 4.03802 18.7825 3.98613 18.9369 3.87496C19.0723 3.60799 19.1237 3.33175 19.1791 3.03903C19.4047 1.96097 19.4047 1.96097 19.8744 1.56246C20.2498 1.37298 20.6612 1.41654 21.0711 1.41773ZM20.2638 2.41279C20.1664 2.60235 20.1215 2.7823 20.0751 2.99044C20.0658 3.03126 20.0565 3.07208 20.0469 3.11414C20.0175 3.24392 19.9889 3.37388 19.9603 3.50387C19.9312 3.63403 19.9018 3.76416 19.8724 3.89427C19.8459 4.01213 19.8198 4.13007 19.7937 4.24803C19.7494 4.43746 19.7494 4.43746 19.6869 4.62496C19.5568 4.6733 19.5568 4.6733 19.3861 4.7109C18.9415 4.82103 18.4748 4.96448 18.0985 5.23238C17.9267 5.3175 17.8186 5.33539 17.6302 5.29781C17.3255 5.18633 17.0607 4.99146 16.7924 4.81246C16.6689 4.73171 16.5455 4.65098 16.422 4.57028C16.3408 4.51638 16.3408 4.51638 16.2579 4.46139C16.0319 4.31509 15.896 4.28773 15.6244 4.31246C15.4797 4.40305 15.4797 4.40305 15.3576 4.5361C15.3111 4.58291 15.2647 4.62971 15.2168 4.67794C15.1696 4.72749 15.1223 4.77704 15.0736 4.82809C15.0252 4.87667 14.9767 4.92525 14.9268 4.9753C14.6313 5.25478 14.6313 5.25478 14.4994 5.62496C14.5518 5.7712 14.5518 5.7712 14.6439 5.92184C14.6781 5.98154 14.7123 6.04124 14.7475 6.10275C14.9241 6.39452 15.1052 6.6835 15.2906 6.96975C15.3167 7.01058 15.3429 7.0514 15.3698 7.09347C15.3932 7.12968 15.4167 7.16589 15.4409 7.20319C15.5385 7.38552 15.5801 7.50066 15.5203 7.70339C15.4976 7.75389 15.4749 7.80438 15.4516 7.85641C15.4145 7.94064 15.4145 7.94064 15.3766 8.02657C15.3501 8.08482 15.3236 8.14307 15.2963 8.20309C15.2451 8.31795 15.194 8.43286 15.143 8.54781C15.1059 8.63066 15.1059 8.63066 15.0681 8.71517C15.0051 8.86179 14.9488 9.00895 14.8949 9.15914C14.8119 9.37496 14.8119 9.37496 14.6869 9.49996C14.5503 9.53846 14.4121 9.57132 14.2733 9.60128C14.1894 9.61995 14.1055 9.63863 14.0216 9.65731C13.8895 9.68616 13.7572 9.7148 13.625 9.74326C13.4972 9.77093 13.3697 9.79935 13.2421 9.82784C13.1656 9.84439 13.0892 9.86095 13.0104 9.878C12.8137 9.93693 12.6994 9.97284 12.5619 10.125C12.5243 10.3029 12.5243 10.3029 12.5309 10.5058C12.5309 10.5805 12.5308 10.6552 12.5308 10.7321C12.532 10.8102 12.5333 10.8883 12.5346 10.9687C12.5341 11.0468 12.5337 11.1249 12.5332 11.2053C12.5154 11.5799 12.5154 11.5799 12.6311 11.9233C12.8026 12.0345 12.9695 12.065 13.1691 12.1074C13.2098 12.1164 13.2506 12.1254 13.2926 12.1347C13.4226 12.1633 13.5528 12.1911 13.683 12.2187C13.8543 12.2551 14.0254 12.2923 14.1964 12.33C14.3105 12.3543 14.3105 12.3543 14.4269 12.379C14.62 12.4361 14.7303 12.4864 14.8744 12.625C14.954 12.8198 14.954 12.8198 15.0228 13.0547C15.1454 13.4604 15.3029 13.8189 15.5031 14.1936C15.5815 14.4353 15.5446 14.5205 15.4369 14.75C15.3309 14.94 15.2171 15.1245 15.101 15.3086C15.0113 15.4523 14.9217 15.5962 14.8327 15.7404C14.7791 15.8271 14.7247 15.9133 14.6695 15.999C14.5369 16.2008 14.5369 16.2008 14.5095 16.4329C14.6257 16.7203 14.89 16.9279 15.1049 17.1445C15.1551 17.1975 15.2053 17.2506 15.2571 17.3053C15.3064 17.3551 15.3556 17.4049 15.4064 17.4563C15.4512 17.5021 15.4959 17.548 15.5421 17.5953C15.6842 17.7047 15.6842 17.7047 15.8711 17.6829C16.0725 17.6218 16.2191 17.5448 16.3949 17.4297C16.4552 17.3907 16.5154 17.3517 16.5775 17.3115C16.6394 17.2706 16.7013 17.2296 16.765 17.1875C16.889 17.1067 17.0131 17.026 17.1371 16.9453C17.1917 16.9093 17.2462 16.8734 17.3024 16.8364C17.5503 16.6771 17.7013 16.6645 17.9994 16.6875C18.1821 16.7513 18.351 16.837 18.5228 16.9257C18.8112 17.0697 19.0852 17.2052 19.3978 17.289C19.6244 17.375 19.6244 17.375 19.7265 17.5439C19.8084 17.7416 19.8618 17.9241 19.9057 18.1333C19.9211 18.2042 19.9366 18.2752 19.9525 18.3484C19.9839 18.4968 20.0151 18.6452 20.0463 18.7937C20.0618 18.8645 20.0772 18.9353 20.0932 19.0083C20.1135 19.1048 20.1135 19.1048 20.1342 19.2034C20.1908 19.3877 20.2331 19.4932 20.3744 19.625C20.5523 19.6635 20.5523 19.6635 20.7553 19.6582C20.83 19.6585 20.9046 19.6588 20.9816 19.6591C21.0597 19.6582 21.1377 19.6572 21.2182 19.6562C21.2962 19.6572 21.3743 19.6581 21.4547 19.6591C21.5294 19.6588 21.6041 19.6585 21.681 19.6582C21.7838 19.6577 21.7838 19.6577 21.8887 19.6573C22.0648 19.6402 22.0648 19.6402 22.1729 19.5236C22.2679 19.339 22.3108 19.166 22.3546 18.9629C22.3726 18.883 22.3906 18.8032 22.4092 18.7209C22.4369 18.5947 22.4643 18.4684 22.4914 18.342C22.518 18.2193 22.5457 18.0969 22.5734 17.9746C22.5892 17.9015 22.605 17.8285 22.6213 17.7533C22.6936 17.5431 22.7649 17.4505 22.9369 17.3125C23.1308 17.2307 23.1308 17.2307 23.351 17.1601C23.6845 17.0486 23.9844 16.9215 24.2882 16.7448C24.5028 16.662 24.6448 16.6594 24.8744 16.6875C25.0729 16.7773 25.2512 16.8922 25.433 17.0117C25.4805 17.0419 25.528 17.072 25.5769 17.1031C25.7649 17.2227 25.9524 17.3422 26.1352 17.4696C26.1781 17.4987 26.221 17.5278 26.2653 17.5578C26.3218 17.5975 26.3218 17.5975 26.3794 17.638C26.5495 17.7081 26.639 17.684 26.8119 17.625C27.0263 17.4648 27.209 17.2712 27.3978 17.082C27.4506 17.0318 27.5034 16.9815 27.5578 16.9298C27.6073 16.8805 27.6569 16.8312 27.7079 16.7805C27.7534 16.7357 27.7988 16.6909 27.8457 16.6448C27.9552 16.5015 27.9552 16.5015 27.9282 16.3089C27.8808 16.1469 27.8382 16.0375 27.7426 15.9008C27.7161 15.8623 27.6897 15.8237 27.6625 15.784C27.6344 15.7444 27.6064 15.7048 27.5775 15.664C27.5206 15.581 27.4637 15.498 27.4069 15.415C27.366 15.356 27.366 15.356 27.3243 15.2957C26.9048 14.689 26.9048 14.689 26.8744 14.375C26.9217 14.2077 26.9217 14.2077 26.9984 14.0295C27.026 13.9645 27.0535 13.8996 27.0819 13.8326C27.1114 13.7654 27.1409 13.6981 27.1713 13.6289C27.1998 13.5619 27.2283 13.4949 27.2577 13.4259C27.3128 13.2972 27.3688 13.1689 27.4258 13.041C27.4833 12.9114 27.5373 12.7803 27.59 12.6486C27.723 12.4446 27.8314 12.4236 28.0658 12.3672C28.1816 12.338 28.1816 12.338 28.2997 12.3083C28.4872 12.2657 28.6751 12.2256 28.8632 12.1858C28.9137 12.1749 28.9642 12.1641 29.0162 12.1529C29.1156 12.132 29.2151 12.1118 29.3147 12.0926C29.6423 12.0304 29.6423 12.0304 29.8744 11.8125C29.9151 11.5331 29.9034 11.2507 29.9018 10.9687C29.903 10.8906 29.9042 10.8126 29.9055 10.7321C29.9055 10.6575 29.9055 10.5828 29.9054 10.5058C29.9055 10.4373 29.9056 10.3688 29.9058 10.2982C29.8896 10.1222 29.8896 10.1222 29.7742 10.0141C29.5843 9.91695 29.4052 9.87438 29.1964 9.83004C29.1556 9.82104 29.1148 9.81204 29.0727 9.80277C28.899 9.76446 28.725 9.7276 28.5509 9.69073C28.4235 9.66351 28.2963 9.63548 28.1691 9.60738C28.0551 9.58315 28.0551 9.58315 27.9388 9.55843C27.752 9.50077 27.6754 9.46762 27.5619 9.31246C27.5075 9.17761 27.4587 9.0405 27.4135 8.90231C27.2993 8.56749 27.1702 8.25897 27.0004 7.94894C26.9051 7.74407 26.8482 7.58427 26.9169 7.36349C27.1094 7.00057 27.3215 6.65438 27.5487 6.31236C27.8291 5.93823 27.8291 5.93823 27.9243 5.50497C27.8183 5.22879 27.5681 5.03399 27.3627 4.82809C27.3154 4.77854 27.2682 4.72899 27.2195 4.67794C27.1731 4.63113 27.1266 4.58432 27.0788 4.5361C27.0366 4.49317 26.9945 4.45025 26.951 4.40603C26.7651 4.28098 26.6573 4.28388 26.4369 4.31246C26.2762 4.38106 26.2762 4.38106 26.1264 4.48361C26.0419 4.53732 26.0419 4.53732 25.9557 4.59213C25.8979 4.63003 25.8402 4.66794 25.7807 4.70699C24.8352 5.31556 24.8352 5.31556 24.5668 5.30587C24.3397 5.23987 24.1325 5.14759 23.9213 5.04293C23.5977 4.88507 23.2799 4.74803 22.934 4.64449C22.5238 4.36886 22.4874 3.5621 22.39 3.11849C22.3746 3.05078 22.3591 2.98306 22.3432 2.91329C22.3296 2.85193 22.3161 2.79056 22.3021 2.72733C22.2446 2.5473 22.1999 2.44238 22.0619 2.31246C21.884 2.27388 21.884 2.27388 21.681 2.27926C21.6064 2.27894 21.5317 2.27862 21.4547 2.27828C21.3376 2.27973 21.3376 2.27973 21.2182 2.28121C21.1401 2.28025 21.062 2.27928 20.9816 2.27828C20.8696 2.27877 20.8696 2.27877 20.7553 2.27926C20.6525 2.27968 20.6525 2.27968 20.5476 2.28011C20.3717 2.2973 20.3717 2.2973 20.2638 2.41279Z" fill="url(#paint0_linear_76_5031)"/>
<path d="M8.01539 15.9953C8.29932 16.1951 8.44096 16.4573 8.59546 16.7617C8.63679 16.8385 8.63679 16.8385 8.67896 16.9168C8.87671 17.2899 8.87671 17.2899 8.87671 17.4374C9.18609 17.4581 9.49546 17.4787 9.81421 17.4999C9.83484 17.4587 9.85546 17.4174 9.87671 17.3749C9.91796 17.3749 9.95921 17.3749 10.0017 17.3749C10.0169 17.3396 10.0322 17.3042 10.0479 17.2678C10.2339 16.9308 10.5655 16.5987 10.9158 16.4335C11.4732 16.2787 11.854 16.4831 12.3316 16.7502C13.067 17.1758 13.067 17.1758 13.2517 17.5624C13.3313 18.0499 13.2198 18.4853 13.0564 18.9431C12.9838 19.1847 12.9747 19.3498 13.0491 19.591C13.1633 19.7878 13.2422 19.8803 13.4392 19.9999C13.7289 20.0433 14.0174 20.0302 14.3089 20.0121C14.6831 19.9895 14.9269 19.9901 15.2517 20.1874C15.5694 20.4824 15.6618 20.8027 15.7712 21.2148C15.7877 21.272 15.8042 21.3293 15.8212 21.3883C15.927 21.7712 16.007 22.1171 15.8728 22.5039C15.5483 22.9959 15.023 23.2535 14.5017 23.4999C14.4605 23.4999 14.4192 23.4999 14.3767 23.4999C14.2469 24.0336 14.2469 24.0336 14.3808 24.5443C14.5292 24.7097 14.6966 24.8434 14.8735 24.977C15.2185 25.2447 15.4071 25.5163 15.4666 25.9492C15.4281 26.2839 15.2925 26.5225 15.1267 26.8124C15.0882 26.8824 15.0497 26.9523 15.01 27.0244C14.6038 27.7414 14.6038 27.7414 14.1892 27.8749C13.7165 27.9442 13.3182 27.837 12.8733 27.6796C12.6299 27.6073 12.4652 27.5964 12.2231 27.6745C12.0302 27.7888 11.934 27.8698 11.8142 28.0624C11.7711 28.3369 11.7839 28.61 11.8021 28.8863C11.8255 29.254 11.8206 29.5522 11.6267 29.8749C11.3358 30.1954 11.0102 30.2854 10.5994 30.3945C10.5421 30.411 10.4849 30.4274 10.4259 30.4444C10.043 30.5502 9.69705 30.6302 9.31031 30.496C8.81825 30.1715 8.56063 29.6462 8.31421 29.1249C8.31421 29.0837 8.31421 29.0424 8.31421 28.9999C8.00358 28.9265 7.69123 28.8594 7.37671 28.9374C7.13502 29.0945 6.96822 29.3195 6.79444 29.5456C6.55517 29.856 6.26932 30.0319 5.88062 30.0898C5.30209 30.08 4.63697 29.5861 4.18921 29.2499C3.95787 28.9856 3.9037 28.7841 3.87671 28.4374C3.9014 28.2663 3.9459 28.1034 3.9939 27.9374C4.16863 27.3908 4.16863 27.3908 4.14356 26.8342C4.0256 26.6492 3.94151 26.5522 3.75171 26.4374C3.49242 26.3957 3.23477 26.407 2.97359 26.4253C2.50655 26.4568 2.14695 26.3989 1.76075 26.122C1.57337 25.864 1.50094 25.6026 1.41968 25.2968C1.39497 25.2121 1.39497 25.2121 1.36976 25.1257C1.24699 24.6824 1.1744 24.276 1.33374 23.8359C1.62024 23.3965 2.22515 23.1484 2.68921 22.9374C2.73046 22.9374 2.77171 22.9374 2.81421 22.9374C2.81349 22.9012 2.81276 22.8649 2.81202 22.8276C2.81145 22.7788 2.81089 22.7299 2.81031 22.6796C2.80958 22.6318 2.80886 22.5839 2.80811 22.5346C2.81421 22.3749 2.81421 22.3749 2.86963 22.1914C2.89927 21.9834 2.89927 21.9834 2.71607 21.8168C2.64284 21.7545 2.56873 21.6932 2.4939 21.6328C1.80471 21.0348 1.80471 21.0348 1.72892 20.6274C1.70857 20.1828 1.88141 19.8846 2.10718 19.5117C2.14034 19.4537 2.17349 19.3957 2.20765 19.336C2.40508 19 2.58178 18.7412 2.93921 18.5624C3.44555 18.5163 3.86363 18.571 4.3357 18.7578C4.51145 18.8157 4.63084 18.8362 4.81421 18.8124C4.93943 18.7357 4.93943 18.7357 5.04468 18.6289C5.24538 18.4406 5.24538 18.4406 5.37671 18.3749C5.37573 18.3356 5.37475 18.2962 5.37374 18.2557C5.36981 18.0754 5.36739 17.8951 5.36499 17.7148C5.36342 17.6529 5.36185 17.591 5.36023 17.5272C5.35556 17.0584 5.40595 16.7736 5.69214 16.3918C5.94852 16.1948 6.20775 16.1252 6.51734 16.0429C6.57382 16.0264 6.63029 16.01 6.68848 15.993C7.14577 15.8663 7.57916 15.7588 8.01539 15.9953ZM6.84156 16.8632C6.77733 16.8788 6.77733 16.8788 6.7118 16.8946C6.43309 16.9659 6.43309 16.9659 6.25171 17.1874C6.2477 17.3534 6.2477 17.3534 6.26807 17.5393C6.34174 18.6523 6.34174 18.6523 6.17554 18.9479C5.96681 19.1755 5.71618 19.3078 5.43921 19.4374C5.37734 19.4787 5.31546 19.5199 5.25171 19.5624C5.25171 19.6037 5.25171 19.6449 5.25171 19.6874C4.81824 19.8319 4.4394 19.732 4.02124 19.5937C3.61475 19.4577 3.61475 19.4577 3.18921 19.4374C3.0916 19.5983 2.99552 19.7597 2.90015 19.9218C2.87227 19.9674 2.8444 20.013 2.81568 20.06C2.7899 20.1043 2.76412 20.1486 2.73755 20.1943C2.71333 20.2349 2.68911 20.2755 2.66416 20.3173C2.61244 20.4404 2.61244 20.4404 2.67565 20.571C2.76372 20.7058 2.8587 20.795 2.98218 20.8984C3.04853 20.9548 3.04853 20.9548 3.11622 21.0124C3.20302 21.0845 3.29008 21.1563 3.37745 21.2277C3.41588 21.2596 3.45431 21.2914 3.4939 21.3242C3.52854 21.3521 3.56319 21.3801 3.59888 21.4089C3.7544 21.5657 3.81357 21.6943 3.81615 21.9168C3.79478 22.1205 3.77237 22.3239 3.74781 22.5273C3.74092 22.5981 3.73403 22.6688 3.72693 22.7418C3.6668 23.2546 3.6668 23.2546 3.49683 23.4999C3.21957 23.6897 2.92706 23.8347 2.62513 23.9808C2.579 24.0039 2.53288 24.0271 2.48536 24.051C2.44349 24.0712 2.40162 24.0915 2.35848 24.1124C2.22342 24.2073 2.179 24.2813 2.12671 24.4374C2.13742 24.566 2.13742 24.566 2.18287 24.6943C2.19737 24.7414 2.21187 24.7885 2.22681 24.8371C2.24276 24.8857 2.25872 24.9343 2.27515 24.9843C2.29062 25.0339 2.30609 25.0834 2.32203 25.1345C2.36027 25.2566 2.39963 25.3783 2.43921 25.4999C2.48961 25.4986 2.54 25.4972 2.59192 25.4958C2.82234 25.4913 3.05251 25.4917 3.28296 25.4921C3.36224 25.4899 3.44152 25.4876 3.5232 25.4853C4.10401 25.4913 4.10401 25.4913 4.34877 25.6956C4.47551 25.8541 4.58246 26.015 4.68921 26.1874C4.76992 26.2901 4.85177 26.3918 4.93531 26.4921C5.073 26.6621 5.15511 26.7831 5.18921 26.9999C5.16188 27.1381 5.16188 27.1381 5.11329 27.2868C5.09617 27.341 5.07904 27.3952 5.06141 27.451C5.043 27.5071 5.02459 27.5632 5.00562 27.621C4.96949 27.7322 4.93375 27.8434 4.89844 27.9548C4.88233 28.0039 4.86623 28.0531 4.84963 28.1037C4.81019 28.2666 4.7944 28.3957 4.81421 28.5624C4.89412 28.6565 4.89412 28.6565 5.0105 28.7182C5.05167 28.7429 5.09284 28.7675 5.13526 28.7929C5.17884 28.8174 5.22243 28.8419 5.26734 28.8671C5.30996 28.8931 5.35258 28.919 5.39649 28.9457C5.62171 29.088 5.62171 29.088 5.87798 29.1123C6.02396 29.0535 6.10143 28.9842 6.21094 28.8715C6.24877 28.8331 6.28659 28.7947 6.32557 28.7551C6.36436 28.7147 6.40315 28.6743 6.44312 28.6328C6.48215 28.5929 6.52119 28.553 6.56141 28.5119C6.63418 28.4375 6.70676 28.3629 6.77907 28.2881C6.81129 28.2549 6.84352 28.2217 6.87671 28.1874C6.90937 28.1524 6.94202 28.1174 6.97567 28.0813C7.06421 27.9999 7.06421 27.9999 7.18189 27.9909C7.22813 27.9978 7.27438 28.0046 7.32203 28.0117C7.53404 28.0415 7.74434 28.0678 7.95777 28.0842C8.05315 28.0925 8.14852 28.1009 8.2439 28.1093C8.28999 28.1124 8.33609 28.1155 8.38358 28.1186C8.60063 28.14 8.72798 28.1657 8.89063 28.3146C9.06128 28.5993 9.21152 28.8923 9.35999 29.189C9.38364 29.2352 9.40728 29.2813 9.43164 29.3288C9.45264 29.3707 9.47363 29.4125 9.49526 29.4557C9.56696 29.5822 9.56696 29.5822 9.75171 29.6874C9.8804 29.6761 9.8804 29.6761 10.0161 29.6313C10.0663 29.6168 10.1164 29.6023 10.1681 29.5874C10.2202 29.5714 10.2723 29.5554 10.3259 29.539C10.4051 29.5158 10.4051 29.5158 10.486 29.4921C10.6165 29.4538 10.7467 29.4147 10.8767 29.3749C10.8773 29.3232 10.8779 29.2715 10.8785 29.2183C10.8818 28.984 10.8871 28.7498 10.8923 28.5156C10.8932 28.4342 10.8941 28.3528 10.895 28.269C10.897 28.1908 10.8991 28.1127 10.9011 28.0322C10.9024 27.9602 10.9037 27.8882 10.9051 27.814C10.9683 27.4638 11.2604 27.3163 11.5369 27.121C11.7678 26.9624 11.7678 26.9624 11.9683 26.7697C12.1236 26.6365 12.2349 26.6324 12.4392 26.6249C12.6538 26.6728 12.86 26.7418 13.0681 26.8124C13.178 26.8496 13.2881 26.8861 13.3984 26.9218C13.4468 26.9383 13.4951 26.9547 13.5449 26.9716C13.7196 27.0059 13.8327 26.9924 14.0017 26.9374C14.1096 26.7958 14.1915 26.6703 14.2752 26.5156C14.2981 26.4767 14.3211 26.4379 14.3447 26.3979C14.4399 26.2276 14.505 26.1033 14.4892 25.9059C14.432 25.7273 14.3717 25.6581 14.2324 25.5346C14.1909 25.497 14.1494 25.4594 14.1066 25.4206C14.0411 25.3632 14.0411 25.3632 13.9744 25.3046C13.8884 25.2278 13.8025 25.1508 13.7168 25.0737C13.6786 25.04 13.6404 25.0063 13.601 24.9716C13.5017 24.8749 13.5017 24.8749 13.3767 24.6874C13.3853 24.5625 13.3957 24.4374 13.4133 24.3134C13.4342 24.1616 13.4507 24.0109 13.4651 23.8583C13.4698 23.811 13.4746 23.7637 13.4794 23.7149C13.489 23.6194 13.498 23.5239 13.5064 23.4283C13.5335 23.1735 13.5531 23.0378 13.7517 22.8749C13.8464 22.8178 13.9432 22.764 14.0413 22.7128C14.0968 22.6833 14.1523 22.6537 14.2095 22.6232C14.3266 22.5617 14.4437 22.5003 14.561 22.4392C14.6164 22.4096 14.6717 22.38 14.7288 22.3496C14.805 22.3096 14.805 22.3096 14.8828 22.2689C15.0213 22.1916 15.0213 22.1916 15.0642 21.9999C15.0444 21.8777 15.0444 21.8777 15.002 21.7492C14.9877 21.7019 14.9734 21.6545 14.9586 21.6058C14.9432 21.5567 14.9278 21.5076 14.9119 21.457C14.8967 21.4071 14.8815 21.3573 14.8658 21.306C14.8283 21.183 14.7901 21.0602 14.7517 20.9374C14.5193 20.8835 14.3053 20.8676 14.0669 20.8688C13.9974 20.869 13.9279 20.8692 13.8563 20.8695C13.7844 20.87 13.7125 20.8705 13.6384 20.871C13.5288 20.8715 13.5288 20.8715 13.4169 20.8719C13.2368 20.8726 13.0568 20.8737 12.8767 20.8749C12.8581 20.8263 12.8396 20.7777 12.8204 20.7276C12.7474 20.552 12.6599 20.4289 12.5408 20.2812C12.5021 20.2325 12.4634 20.1837 12.4236 20.1335C12.3398 20.0312 12.2533 19.9311 12.1658 19.832C12.0351 19.646 12.0159 19.5409 12.0017 19.3124C12.0473 19.1077 12.1155 18.9124 12.1853 18.7148C12.3496 18.2752 12.3496 18.2752 12.3767 17.8124C12.2159 17.7148 12.0545 17.6188 11.8923 17.5234C11.8239 17.4816 11.8239 17.4816 11.7542 17.4389C11.7098 17.4131 11.6655 17.3873 11.6199 17.3608C11.5793 17.3366 11.5387 17.3123 11.4969 17.2874C11.3755 17.2368 11.3755 17.2368 11.25 17.2912C11.1143 17.3834 11.0181 17.48 10.9104 17.6037C10.8706 17.6481 10.8308 17.6926 10.7898 17.7384C10.7072 17.8319 10.625 17.9258 10.5432 18.0201C10.2412 18.3552 10.2412 18.3552 10.0132 18.4416C9.72332 18.4356 9.44112 18.407 9.15406 18.3671C9.09577 18.3605 9.03748 18.3539 8.97742 18.3471C8.71325 18.311 8.5414 18.2787 8.323 18.1203C8.15404 17.8894 8.02357 17.6502 7.89624 17.3945C7.84803 17.2991 7.79961 17.2038 7.75098 17.1086C7.73006 17.0667 7.70914 17.0249 7.68758 16.9817C7.62661 16.8638 7.62661 16.8638 7.50171 16.7499C7.27042 16.7499 7.06366 16.8054 6.84156 16.8632Z" fill="url(#paint1_linear_76_5031)"/>
<path d="M23.7491 7.43756C23.7957 7.47059 23.8423 7.50362 23.8902 7.53765C24.8251 8.23233 25.3181 9.24452 25.534 10.3694C25.7065 11.5764 25.3596 12.7204 24.6434 13.6893C23.9821 14.5408 22.9953 15.1168 21.9261 15.2947C20.6555 15.4227 19.5578 15.1805 18.5148 14.418C17.5709 13.6381 17.0404 12.6436 16.8741 11.4376C16.7999 10.2041 17.1038 9.15704 17.8741 8.18756C17.9318 8.11009 17.9318 8.11009 17.9906 8.03106C18.1456 7.84996 18.3179 7.7059 18.5069 7.56256C18.5428 7.53528 18.5786 7.508 18.6155 7.4799C20.109 6.36808 22.2403 6.29757 23.7491 7.43756ZM18.5616 8.75006C17.9429 9.55922 17.6746 10.4614 17.7843 11.4805C17.9507 12.4886 18.4771 13.2484 19.2977 13.845C20.0619 14.3541 20.8964 14.5447 21.8026 14.3987C22.7592 14.2059 23.5239 13.6938 24.1122 12.9124C24.6305 12.1148 24.764 11.2054 24.6105 10.2803C24.3986 9.33565 23.8283 8.55026 23.0245 8.01763C21.5257 7.13899 19.7284 7.50288 18.5616 8.75006Z" fill="url(#paint2_linear_76_5031)"/>
<path d="M10.5787 20.3808C11.2795 20.8722 11.7568 21.6264 11.9725 22.4516C12.1307 23.5014 11.946 24.4312 11.3375 25.302C10.8065 25.9965 10.0458 26.464 9.18613 26.625C8.18531 26.7236 7.26217 26.5615 6.45492 25.9306C5.80016 25.363 5.26354 24.6214 5.17132 23.7323C5.11333 22.667 5.26667 21.7514 5.97604 20.9053C7.17948 19.5918 9.10406 19.465 10.5787 20.3808ZM6.63925 21.5429C6.12793 22.1613 6.01279 22.8452 6.06113 23.625C6.15791 24.235 6.50374 24.8468 6.99301 25.2285C7.66378 25.6598 8.30611 25.8663 9.10409 25.719C9.8635 25.5089 10.4756 25.0712 10.8717 24.3821C11.1768 23.7568 11.2249 23.0936 11.026 22.4258C10.7516 21.6987 10.2796 21.1765 9.57284 20.8515C8.5361 20.4172 7.39748 20.7439 6.63925 21.5429Z" fill="url(#paint3_linear_76_5031)"/>
<path d="M25 19.75C25.1635 19.8645 25.1856 19.9319 25.25 20.125C25.2563 20.268 25.2586 20.4111 25.2591 20.5542C25.2593 20.5976 25.2595 20.6411 25.2597 20.6858C25.2603 20.8296 25.2604 20.9734 25.2605 21.1172C25.2607 21.2176 25.2609 21.318 25.2611 21.4183C25.2615 21.6291 25.2616 21.8399 25.2616 22.0507C25.2616 22.3192 25.2624 22.5877 25.2635 22.8561C25.2642 23.0638 25.2643 23.2714 25.2643 23.479C25.2644 23.5779 25.2646 23.6767 25.2651 23.7756C25.2695 24.7489 25.2116 25.6596 24.5078 26.4063C24.103 26.78 23.6815 26.9436 23.1339 26.9504C23.0689 26.9513 23.0689 26.9513 23.0026 26.9522C22.8596 26.9542 22.7165 26.9558 22.5735 26.9573C22.4743 26.9586 22.375 26.9599 22.2758 26.9612C22.0147 26.9647 21.7537 26.9678 21.4926 26.9708C21.2261 26.9739 20.9597 26.9774 20.6932 26.9809C20.1705 26.9876 19.6477 26.9939 19.125 27C19.1777 27.0491 19.2304 27.0982 19.2847 27.1487C19.3539 27.215 19.4231 27.2813 19.4922 27.3477C19.5269 27.3798 19.5616 27.4119 19.5974 27.445C19.8325 27.6729 19.9433 27.8548 20 28.1875C19.9414 28.3672 19.9414 28.3672 19.8125 28.5C19.6133 28.5782 19.6133 28.5782 19.375 28.5625C19.2664 28.4891 19.2664 28.4891 19.1528 28.385C19.0875 28.3253 19.0875 28.3253 19.0209 28.2643C18.7404 27.9965 18.465 27.724 18.1914 27.4492C18.131 27.3891 18.0706 27.3289 18.0101 27.2687C17.9534 27.2119 17.8966 27.155 17.8381 27.0965C17.7867 27.0449 17.7352 26.9934 17.6821 26.9403C17.5382 26.7866 17.5044 26.7208 17.4766 26.5117C17.5082 26.2427 17.6124 26.1784 17.8125 26C17.9118 25.884 18.0083 25.766 18.1042 25.6472C18.1317 25.6193 18.1592 25.5913 18.1875 25.5625C18.2288 25.5625 18.27 25.5625 18.3125 25.5625C18.3125 25.5213 18.3125 25.48 18.3125 25.4375C18.3538 25.4375 18.395 25.4375 18.4375 25.4375C18.4375 25.3963 18.4375 25.355 18.4375 25.3125C18.4813 25.2777 18.5252 25.2429 18.5703 25.2071C18.7531 25.06 18.889 24.9057 19.0356 24.7241C19.1945 24.548 19.2945 24.5013 19.5313 24.4844C19.75 24.5 19.75 24.5 19.9375 24.625C20.0022 24.8331 20.0256 24.9473 19.929 25.146C19.7906 25.3438 19.6298 25.5088 19.457 25.6758C19.4251 25.7072 19.3931 25.7386 19.3602 25.7709C19.2821 25.8476 19.2036 25.9238 19.125 26C19.6645 26.0044 20.204 26.0077 20.7435 26.0097C20.9941 26.0107 21.2446 26.012 21.4951 26.0142C21.737 26.0162 21.979 26.0173 22.2209 26.0178C22.3131 26.0182 22.4052 26.0188 22.4973 26.0199C22.6268 26.0212 22.7561 26.0214 22.8855 26.0213C22.9591 26.0217 23.0326 26.0221 23.1084 26.0226C23.4965 25.9797 23.7525 25.7932 24 25.5C24.2057 25.1713 24.2868 24.8825 24.2831 24.493C24.2837 24.4451 24.2842 24.3971 24.2848 24.3477C24.2863 24.1911 24.2861 24.0344 24.2859 23.8777C24.2867 23.7682 24.2876 23.6586 24.2886 23.5491C24.2909 23.262 24.2919 22.9749 24.2925 22.6878C24.2937 22.2272 24.2973 21.7666 24.3005 21.306C24.3015 21.1452 24.302 20.9845 24.3023 20.8237C24.3027 20.7255 24.3032 20.6273 24.3036 20.5291C24.3036 20.4844 24.3036 20.4397 24.3035 20.3936C24.3047 20.2033 24.3143 20.0572 24.375 19.875C24.6059 19.7211 24.7271 19.7257 25 19.75Z" fill="#FF8303"/>
<path d="M10.6857 5.25C10.8362 5.35836 10.9611 5.4874 11.0893 5.62085C11.1261 5.65792 11.1629 5.69499 11.2007 5.73319C11.3176 5.85136 11.4333 5.97059 11.549 6.08985C11.628 6.16987 11.7071 6.24983 11.7862 6.32971C12.4183 6.97115 12.4183 6.97115 12.467 7.22657C12.3882 7.75829 11.7195 8.22569 11.3537 8.58985C11.2688 8.67511 11.2688 8.67511 11.1822 8.76209C11.1012 8.843 11.1012 8.843 11.0185 8.92554C10.9451 8.99883 10.9451 8.99883 10.8702 9.0736C10.7015 9.23114 10.6442 9.24848 10.4084 9.26563C10.1857 9.25 10.1857 9.25 10.0646 9.1836C9.95224 8.97864 9.9604 8.85575 9.99823 8.625C10.1241 8.43758 10.2754 8.28325 10.4357 8.125C10.501 8.05982 10.5663 7.9946 10.6315 7.92934C10.6651 7.89571 10.6987 7.86209 10.7334 7.82744C10.7589 7.80189 10.7844 7.77633 10.8107 7.75C10.2745 7.74274 9.73823 7.7372 9.20193 7.73381C8.95286 7.73219 8.70381 7.72998 8.45476 7.72643C8.21404 7.72301 7.97335 7.72116 7.73261 7.72035C7.64114 7.71978 7.54967 7.71866 7.45821 7.71696C6.939 7.70772 6.4742 7.70742 6.06073 8.0625C5.74374 8.45888 5.6766 8.78873 5.67587 9.29016C5.67556 9.33796 5.67524 9.38575 5.67491 9.43499C5.67424 9.53856 5.67371 9.64213 5.67328 9.7457C5.67254 9.90962 5.67133 10.0735 5.66996 10.2374C5.66611 10.7034 5.66273 11.1694 5.66065 11.6353C5.65934 11.9205 5.65713 12.2057 5.65435 12.4909C5.65346 12.5995 5.65292 12.7082 5.65272 12.8168C5.65241 12.9687 5.65097 13.1205 5.64926 13.2723C5.64945 13.3172 5.64964 13.3621 5.64983 13.4083C5.64664 13.5998 5.63312 13.7323 5.53909 13.901C5.38441 14.0492 5.27257 14.0625 5.06073 14.0625C4.89474 13.9684 4.89474 13.9684 4.74823 13.8125C4.71698 13.6355 4.70601 13.4958 4.70879 13.3188C4.70834 13.2693 4.70789 13.2198 4.70743 13.1687C4.70638 13.005 4.70759 12.8413 4.70893 12.6775C4.70887 12.5632 4.70872 12.4489 4.70847 12.3346C4.70829 12.0947 4.70921 11.8549 4.71092 11.6151C4.71304 11.3092 4.71268 11.0035 4.71151 10.6976C4.71084 10.4613 4.71141 10.225 4.71234 9.98869C4.71267 9.87605 4.71264 9.7634 4.71225 9.65075C4.71031 8.76015 4.79208 8.04887 5.43573 7.375C6.04171 6.80984 6.70659 6.78381 7.49652 6.78052C7.59241 6.77947 7.68829 6.77833 7.78417 6.77712C8.03477 6.77417 8.28536 6.77229 8.53597 6.77066C8.7924 6.76878 9.04882 6.76588 9.30524 6.76306C9.80706 6.75771 10.3089 6.75349 10.8107 6.75C10.7861 6.72579 10.7615 6.70157 10.7361 6.67662C10.6244 6.56546 10.5145 6.4527 10.4045 6.33985C10.3464 6.28275 10.3464 6.28275 10.2871 6.22449C10.0928 6.02282 10.005 5.92338 9.96503 5.63892C9.99823 5.4375 9.99823 5.4375 10.1232 5.25C10.353 5.17343 10.4532 5.18251 10.6857 5.25Z" fill="#FF8303"/>
<defs>
<linearGradient id="paint0_linear_76_5031" x1="21.2214" y1="1.4126" x2="21.2214" y2="24.4936" gradientUnits="userSpaceOnUse">
<stop stop-color="#047CF4"/>
<stop offset="1" stop-color="#0431D7"/>
</linearGradient>
<linearGradient id="paint1_linear_76_5031" x1="8.59276" y1="15.8552" x2="8.59276" y2="33.6017" gradientUnits="userSpaceOnUse">
<stop stop-color="#047CF4"/>
<stop offset="1" stop-color="#0431D7"/>
</linearGradient>
<linearGradient id="paint2_linear_76_5031" x1="21.2205" y1="6.61377" x2="21.2205" y2="17.1248" gradientUnits="userSpaceOnUse">
<stop stop-color="#047CF4"/>
<stop offset="1" stop-color="#0431D7"/>
</linearGradient>
<linearGradient id="paint3_linear_76_5031" x1="8.59322" y1="19.7892" x2="8.59322" y2="28.0675" gradientUnits="userSpaceOnUse">
<stop stop-color="#047CF4"/>
<stop offset="1" stop-color="#0431D7"/>
</linearGradient>
</defs>
</svg>
