<svg width="72" height="63" viewBox="0 0 72 63" fill="none" xmlns="http://www.w3.org/2000/svg">
<path d="M28.1887 45.9524C27.9209 45.9524 27.6512 45.8603 27.4311 45.6729L19.8568 39.2234C19.5955 39.0007 19.4453 38.6754 19.4453 38.3318C19.4453 37.9889 19.5962 37.6636 19.8568 37.4409L27.4311 30.9914C27.9229 30.5721 28.6616 30.6315 29.081 31.1233C29.4997 31.6158 29.4409 32.3546 28.9484 32.7733L22.4212 38.3318L28.9484 43.8903C29.4409 44.3097 29.4997 45.0484 29.081 45.5403C28.8491 45.8126 28.5199 45.9524 28.1887 45.9524Z" fill="#FF8303"/>
<path d="M43.1437 45.9524C42.8126 45.9524 42.4834 45.8126 42.2521 45.5403C41.8328 45.0484 41.8922 44.3097 42.3841 43.8903L48.9113 38.3318L42.3841 32.7733C41.8922 32.3546 41.8328 31.6158 42.2521 31.1233C42.6708 30.6315 43.4102 30.5721 43.9014 30.9914L51.4756 37.4409C51.7369 37.6636 51.8871 37.9889 51.8871 38.3318C51.8871 38.6754 51.7369 39.0007 51.4756 39.2234L43.9014 45.6729C43.6813 45.8603 43.4115 45.9524 43.1437 45.9524Z" fill="#FF8303"/>
<path d="M32.9848 50.7901C32.9045 50.7901 32.8235 50.7816 32.7419 50.7646C32.1096 50.6314 31.7046 50.0102 31.8379 49.3779L36.5584 26.9655C36.6916 26.3332 37.3121 25.9283 37.9451 26.0615C38.5773 26.1947 38.9823 26.8153 38.8491 27.4482L34.1286 49.8606C34.0123 50.4119 33.5263 50.7901 32.9848 50.7901Z" fill="#FF8303"/>
<path d="M63.2581 63.0004H8.07777C3.7446 63.0004 0.21875 59.4752 0.21875 55.1413V8.30726C0.21875 3.97409 3.7446 0.448242 8.07777 0.448242H63.2581C67.5913 0.448242 71.1172 3.97409 71.1172 8.30726V55.1413C71.1172 59.4752 67.5913 63.0004 63.2581 63.0004ZM8.07777 2.78923C5.03528 2.78923 2.55974 5.26477 2.55974 8.30726V55.1413C2.55974 58.1838 5.03528 60.6594 8.07777 60.6594H63.2581C66.3006 60.6594 68.7762 58.1838 68.7762 55.1413V8.30726C68.7762 5.26477 66.3006 2.78923 63.2581 2.78923H8.07777Z" fill="#215CFF"/>
<path d="M69.9467 19.1916H1.38924C0.742598 19.1916 0.21875 18.6677 0.21875 18.0211C0.21875 17.3751 0.742598 16.8506 1.38924 16.8506H69.9467C70.5933 16.8506 71.1172 17.3751 71.1172 18.0211C71.1172 18.6677 70.5933 19.1916 69.9467 19.1916Z" fill="#215CFF"/>
<path d="M20.2159 13.59C18.1741 13.59 16.5117 11.9276 16.5117 9.88581C16.5117 7.84332 18.1741 6.18164 20.2159 6.18164C22.2584 6.18164 23.92 7.84332 23.92 9.88581C23.92 11.9276 22.2584 13.59 20.2159 13.59ZM20.2159 8.52263C19.4647 8.52263 18.8527 9.134 18.8527 9.88581C18.8527 10.6376 19.4647 11.249 20.2159 11.249C20.9677 11.249 21.5791 10.6376 21.5791 9.88581C21.5791 9.134 20.9677 8.52263 20.2159 8.52263Z" fill="#215CFF"/>
<path d="M8.83698 13.5538C6.79449 13.5538 5.13281 11.8922 5.13281 9.84967C5.13281 7.80719 6.79449 6.14551 8.83698 6.14551C10.8795 6.14551 12.5411 7.80719 12.5411 9.84967C12.5411 11.8922 10.8795 13.5538 8.83698 13.5538ZM8.83698 8.48649C8.08582 8.48649 7.4738 9.09852 7.4738 9.84967C7.4738 10.6015 8.08582 11.2129 8.83698 11.2129C9.58878 11.2129 10.2002 10.6015 10.2002 9.84967C10.2002 9.09852 9.58878 8.48649 8.83698 8.48649Z" fill="#215CFF"/>
<path d="M31.598 13.6255C29.5562 13.6255 27.8945 11.9638 27.8945 9.92129C27.8945 7.87945 29.5562 6.21777 31.598 6.21777C33.6405 6.21777 35.3022 7.87945 35.3022 9.92129C35.3022 11.9638 33.6405 13.6255 31.598 13.6255ZM31.598 8.55811C30.8469 8.55811 30.2355 9.16948 30.2355 9.92129C30.2355 10.6731 30.8469 11.2845 31.598 11.2845C32.3498 11.2845 32.9612 10.6731 32.9612 9.92129C32.9612 9.16948 32.3498 8.55811 31.598 8.55811Z" fill="#215CFF"/>
</svg>
