<svg width="101" height="101" viewBox="0 0 101 101" fill="none" xmlns="http://www.w3.org/2000/svg">
<g clip-path="url(#clip0_76_5046)">
<path d="M10.6735 5.89151C10.8131 5.89105 10.9527 5.89058 11.0965 5.89011C11.5654 5.88879 12.0344 5.88888 12.5033 5.88896C12.8424 5.88831 13.1816 5.88757 13.5207 5.88676C14.4537 5.88478 15.3866 5.88405 16.3196 5.88353C17.3255 5.88276 18.3313 5.88087 19.3372 5.87915C21.7669 5.87525 24.1966 5.87326 26.6263 5.87151C27.7707 5.87064 28.9151 5.86958 30.0595 5.86855C33.8639 5.86519 37.6684 5.86233 41.4729 5.8609C42.4601 5.86053 43.4473 5.86015 44.4345 5.85976C44.8026 5.85962 44.8026 5.85962 45.1781 5.85947C49.1524 5.85784 53.1267 5.85284 57.101 5.84643C61.1819 5.83991 65.2629 5.83636 69.3438 5.83573C71.6348 5.8353 73.9258 5.83357 76.2169 5.82853C78.1682 5.82425 80.1194 5.82266 82.0707 5.82458C83.0658 5.82548 84.0609 5.82511 85.056 5.82127C85.9682 5.81779 86.8803 5.818 87.7925 5.82106C88.1214 5.82152 88.4502 5.82068 88.779 5.81833C92.4264 5.79392 95.4024 6.74362 98.0681 9.27767C100.41 11.7398 101.092 14.6103 101.077 17.9082C101.077 18.201 101.078 18.4938 101.08 18.7866C101.083 19.5869 101.082 20.3872 101.08 21.1874C101.079 22.0522 101.082 22.917 101.084 23.7818C101.087 25.4744 101.087 27.167 101.086 28.8596C101.086 30.2359 101.086 31.6121 101.087 32.9884C101.087 33.1845 101.087 33.3805 101.087 33.5826C101.088 33.981 101.088 34.3794 101.088 34.7777C101.091 38.5117 101.09 42.2456 101.088 45.9795C101.086 49.3925 101.088 52.8054 101.093 56.2184C101.098 59.726 101.1 63.2336 101.098 66.7412C101.098 68.7092 101.098 70.6772 101.102 72.6452C101.104 74.3206 101.105 75.9961 101.101 77.6715C101.099 78.5257 101.099 79.3797 101.102 80.2338C101.105 81.0171 101.104 81.8004 101.1 82.5837C101.099 82.8656 101.1 83.1476 101.102 83.4295C101.126 86.8832 100.089 89.5482 97.7267 92.0599C95.6963 94.0178 93.1476 95.1045 90.3272 95.1085C90.1179 95.1092 90.1179 95.1092 89.9044 95.1099C89.4356 95.1113 88.9669 95.1112 88.4982 95.1111C88.1592 95.1117 87.8202 95.1125 87.4812 95.1133C86.5486 95.1153 85.616 95.116 84.6834 95.1165C83.678 95.1173 82.6725 95.1192 81.667 95.1209C79.2382 95.1248 76.8094 95.1268 74.3805 95.1285C73.2365 95.1294 72.0924 95.1305 70.9484 95.1315C67.1447 95.1349 63.3411 95.1377 59.5375 95.1391C58.5505 95.1395 57.5635 95.1399 56.5764 95.1403C56.3311 95.1404 56.0858 95.1405 55.8331 95.1406C51.8601 95.1422 47.8872 95.1472 43.9143 95.1536C39.8345 95.1601 35.7547 95.1637 31.6749 95.1643C29.3847 95.1647 27.0944 95.1665 24.8041 95.1715C22.8534 95.1758 20.9026 95.1774 18.9519 95.1755C17.9571 95.1746 16.9624 95.1749 15.9676 95.1788C15.0556 95.1823 14.1436 95.1821 13.2315 95.179C12.9029 95.1785 12.5743 95.1794 12.2457 95.1817C8.60634 95.2061 5.73245 94.3575 3.02225 91.8087C1.21352 89.933 -0.0212929 87.4429 -0.0269543 84.8099C-0.0279553 84.5628 -0.0289562 84.3157 -0.0299876 84.0611C-0.0301063 83.7863 -0.0302045 83.5116 -0.0302849 83.2368C-0.031077 82.9453 -0.0319524 82.6538 -0.0329043 82.3623C-0.0352641 81.5602 -0.0363791 80.758 -0.0372802 79.9558C-0.0384554 79.0909 -0.0407455 78.2261 -0.0428608 77.3613C-0.0476985 75.2718 -0.0505841 73.1822 -0.0531303 71.0927C-0.0538626 70.5023 -0.0546465 69.9119 -0.0554487 69.3215C-0.060428 65.6538 -0.0647773 61.9862 -0.0672308 58.3185C-0.0678087 57.4689 -0.0683933 56.6193 -0.0689879 55.7697C-0.0691351 55.5585 -0.0692825 55.3474 -0.0694341 55.1298C-0.0719283 51.7119 -0.0784792 48.294 -0.0867027 44.8761C-0.09508 41.3654 -0.0997208 37.8548 -0.100751 34.3441C-0.101423 32.3736 -0.10373 30.4032 -0.11024 28.4328C-0.115776 26.754 -0.117927 25.0752 -0.115725 23.3964C-0.114705 22.5406 -0.115249 21.6849 -0.120156 20.8292C-0.124622 20.0438 -0.124426 19.2586 -0.120708 18.4733C-0.120159 18.1911 -0.121238 17.9088 -0.124222 17.6265C-0.15686 14.335 0.83596 11.4315 3.13167 9.01259C5.22405 7.05223 7.79147 5.8956 10.6735 5.89151ZM4.9687 12.4894C1.65972 17.0037 3.35359 24.8194 3.35359 29.1953C34.4703 29.1953 65.5869 29.1953 97.6466 29.1953C98.5683 19.8267 98.5683 19.8267 95.1299 11.4499C93.6122 10.0671 91.9475 9.42034 89.8948 9.41802C89.7559 9.41733 89.6171 9.41664 89.4741 9.41592C89.0101 9.41409 88.5462 9.41506 88.0822 9.41602C87.7457 9.41528 87.4091 9.41437 87.0726 9.41331C86.1488 9.4109 85.225 9.41095 84.3011 9.41141C83.3044 9.41149 82.3077 9.40932 81.311 9.40744C79.3586 9.40417 77.4062 9.40308 75.4537 9.40286C73.8666 9.40268 72.2795 9.40186 70.6923 9.40061C66.1922 9.39714 61.692 9.39532 57.1919 9.39562C56.9493 9.39563 56.7067 9.39565 56.4568 9.39566C56.0924 9.39569 56.0924 9.39569 55.7207 9.39571C51.7844 9.39587 47.8482 9.3921 43.9119 9.38653C39.8697 9.38087 35.8276 9.37814 31.7855 9.37848C29.5163 9.37861 27.2471 9.37753 24.9779 9.37328C23.0458 9.36969 21.1138 9.36883 19.1817 9.37151C18.1962 9.3728 17.2108 9.37282 16.2253 9.3694C15.3224 9.3663 14.4195 9.36686 13.5166 9.3703C13.1907 9.37091 12.8648 9.37019 12.5389 9.36799C9.40025 9.3482 7.04313 9.99656 4.9687 12.4894ZM3.35359 32.7461C3.34545 41.1641 3.33732 49.582 3.32893 58.255C3.32534 60.9129 3.32175 63.5708 3.31805 66.3093C3.31673 68.692 3.31673 68.692 3.31593 71.0747C3.31557 72.1359 3.31412 73.1971 3.31194 74.2583C3.30915 75.6126 3.30842 76.9669 3.30898 78.3213C3.30886 78.8179 3.30808 79.3145 3.30656 79.8111C3.30459 80.4831 3.30507 81.1551 3.30615 81.8271C3.305 82.0203 3.30385 82.2135 3.30266 82.4125C3.31388 85.0268 3.83391 87.4525 5.6468 89.4353C8.16755 91.7356 11.2614 91.7886 14.4936 91.7786C14.8178 91.7791 15.142 91.7797 15.4662 91.7805C16.3514 91.7822 17.2366 91.7813 18.1219 91.7801C19.0788 91.7792 20.0357 91.7806 20.9926 91.7817C22.8649 91.7834 24.7372 91.7831 26.6095 91.7819C28.1317 91.781 29.6538 91.7809 31.1759 91.7813C31.3928 91.7814 31.6097 91.7815 31.8331 91.7815C32.2738 91.7816 32.7145 91.7818 33.1551 91.7819C37.2841 91.783 41.4131 91.7817 45.5422 91.7796C49.0826 91.7779 52.6231 91.7782 56.1636 91.78C60.2781 91.7821 64.3927 91.7829 68.5072 91.7817C68.9463 91.7816 69.3853 91.7815 69.8243 91.7813C70.0403 91.7813 70.2562 91.7812 70.4788 91.7812C71.9985 91.7808 73.5182 91.7814 75.038 91.7823C76.8908 91.7834 78.7436 91.7831 80.5964 91.781C81.5412 91.78 82.486 91.7796 83.4307 91.7809C84.2966 91.7821 85.1625 91.7814 86.0283 91.7793C86.3405 91.7789 86.6527 91.7791 86.9649 91.7801C90.0552 91.7888 92.96 91.6194 95.3533 89.4353C97.3308 87.2725 97.7108 84.6479 97.694 81.8271C97.6943 81.6163 97.6947 81.4055 97.695 81.1884C97.6957 80.4858 97.6935 79.7832 97.6913 79.0807C97.6912 78.5669 97.6913 78.0531 97.6915 77.5393C97.6917 76.3059 97.6899 75.0726 97.6873 73.8392C97.6845 72.4112 97.6842 70.9831 97.6839 69.5551C97.6818 65.7884 97.6763 62.0217 97.6712 58.255C97.6631 49.8371 97.6549 41.4191 97.6466 32.7461C66.5299 32.7461 35.4132 32.7461 3.35359 32.7461Z" fill="white"/>
<path d="M54.25 42.4121C54.7431 42.671 54.7431 42.671 55.039 43.2012C55.2496 44.9783 54.8205 46.718 54.4508 48.4448C54.3875 48.7486 54.3243 49.0525 54.2613 49.3563C54.0909 50.1755 53.9178 50.9941 53.744 51.8125C53.5621 52.6714 53.3823 53.5307 53.2022 54.3899C52.8998 55.8312 52.5956 57.272 52.2903 58.7127C51.9376 60.3773 51.5878 62.0424 51.2395 63.7078C50.9037 65.3131 50.5658 66.9179 50.2271 68.5225C50.0832 69.2042 49.94 69.8861 49.7974 70.5682C49.6296 71.3707 49.4599 72.1728 49.2889 72.9746C49.2264 73.2686 49.1646 73.5628 49.1035 73.857C49.0199 74.2591 48.934 74.6606 48.8476 75.062C48.8001 75.2867 48.7526 75.5113 48.7038 75.7428C48.4359 76.6623 48.1465 77.1887 47.3457 77.7227C46.5004 77.8322 46.1035 77.8141 45.3853 77.3405C44.6133 76.1941 44.9749 74.8705 45.2216 73.5796C45.3334 73.0308 45.4499 72.483 45.5667 71.9352C45.63 71.6317 45.6932 71.3282 45.7562 71.0247C45.927 70.2048 46.1 69.3854 46.2735 68.566C46.4552 67.7067 46.6351 66.847 46.8153 65.9873C47.118 64.5446 47.4222 63.1022 47.7272 61.6599C48.0796 59.994 48.4295 58.3275 48.7781 56.6608C49.114 55.0548 49.4518 53.4491 49.7905 51.8437C49.9343 51.1615 50.0775 50.4792 50.2201 49.7968C50.3881 48.9932 50.5578 48.1899 50.7287 47.387C50.791 47.0927 50.8528 46.7983 50.914 46.5038C50.9978 46.101 51.0836 45.6987 51.1699 45.2964C51.2174 45.0714 51.2649 44.8464 51.3138 44.6146C51.7788 42.9505 52.4357 42.1383 54.25 42.4121Z" fill="white"/>
<path d="M61.941 49.1192C63.3254 49.9202 64.5149 51.154 65.7153 52.2031C66.3955 52.797 67.0821 53.3828 67.7727 53.9646C68.9075 54.9218 70.0391 55.8827 71.1624 56.8534C71.5594 57.1962 71.9596 57.5311 72.3661 57.8629C73.5065 58.8118 73.5065 58.8118 73.8386 59.5867C73.6947 60.9397 72.9885 61.5861 71.9769 62.41C71.7852 62.56 71.5935 62.7101 71.3959 62.8647C70.8532 63.2945 70.3417 63.7424 69.8317 64.2101C69.0042 64.9635 68.1488 65.6719 67.2788 66.3754C66.697 66.8553 66.1267 67.3458 65.5587 67.8418C65.0572 68.2796 64.5532 68.7145 64.049 69.1491C63.7601 69.3998 63.4741 69.6538 63.1886 69.9084C62.5092 70.4869 62.0009 70.8974 61.0903 70.9541C60.3629 70.8185 60.3629 70.8185 59.8821 70.5102C59.4716 69.8698 59.3899 69.4075 59.3766 68.6485C59.8117 67.6958 60.5261 67.1234 61.3123 66.4663C61.5084 66.2995 61.5084 66.2995 61.7085 66.1294C61.9803 65.8983 62.2525 65.6678 62.5252 65.4379C62.9055 65.1163 63.2833 64.7922 63.6602 64.4667C65.3608 62.998 67.0894 61.5684 68.8453 60.1661C68.534 59.3164 67.8816 58.8383 67.2056 58.2798C67.0822 58.176 66.9589 58.0723 66.8318 57.9654C66.576 57.7503 66.3198 57.5358 66.0631 57.3219C65.5085 56.8592 64.9578 56.3919 64.4069 55.9249C64.1973 55.7474 63.9877 55.5699 63.7781 55.3924C63.6725 55.3031 63.567 55.2137 63.4583 55.1217C63.2259 54.9255 62.9932 54.7297 62.7602 54.5343C62.3877 54.222 62.0164 53.9084 61.6451 53.5947C61.5316 53.5001 61.4181 53.4055 61.3011 53.3081C59.4606 51.7466 59.4606 51.7466 59.2656 50.685C59.4031 49.9671 59.6521 49.6328 60.1656 49.1192C60.8969 48.8755 61.1978 48.9089 61.941 49.1192Z" fill="white"/>
<path d="M40.834 49.1195C41.3828 49.6121 41.5841 49.9466 41.7587 50.6606C41.3316 52.6408 38.7647 54.1809 37.2832 55.432C37.0592 55.6223 36.8352 55.8126 36.6113 56.003C35.7409 56.7417 34.8692 57.4783 33.989 58.2053C33.8698 58.3044 33.7506 58.4036 33.6277 58.5057C33.3978 58.6968 33.1671 58.887 32.9356 59.0761C32.6677 59.2994 32.4099 59.5346 32.1543 59.7719C32.1543 59.902 32.1543 60.0322 32.1543 60.1664C32.4437 60.4293 32.7467 60.6771 33.0543 60.9185C33.9762 61.6559 34.877 62.4111 35.7667 63.187C36.0187 63.4064 36.2707 63.6257 36.5227 63.8451C36.6482 63.9544 36.7737 64.0636 36.903 64.1762C37.5206 64.7123 38.1415 65.2444 38.7627 65.7761C38.9257 65.9157 38.9257 65.9157 39.092 66.058C39.1969 66.1478 39.3019 66.2376 39.41 66.3302C39.5125 66.4187 39.615 66.5071 39.7206 66.5983C39.9521 66.7947 40.1871 66.9869 40.4244 67.1762C40.5491 67.2775 40.6739 67.3787 40.8024 67.4829C40.9166 67.5734 41.0307 67.664 41.1483 67.7572C41.6786 68.3302 41.6353 68.8743 41.623 69.6351C41.4089 70.3133 41.2495 70.4102 40.6367 70.8187C39.6535 70.9311 39.2603 70.9489 38.4198 70.4065C38.2142 70.223 38.0122 70.0355 37.8134 69.8447C37.5898 69.6429 37.3661 69.4413 37.1422 69.2398C37.0326 69.1391 36.9231 69.0384 36.8102 68.9346C36.3661 68.533 35.9012 68.1598 35.4338 67.7858C34.3107 66.8713 33.2192 65.9223 32.1273 64.9709C31.6196 64.5288 31.1096 64.0896 30.597 63.6532C30.4733 63.5479 30.3497 63.4426 30.2223 63.334C29.9891 63.1356 29.7556 62.9376 29.5218 62.7398C27.448 60.9739 27.448 60.9739 27.2227 59.7719C27.4639 58.8611 28.001 58.3512 28.6898 57.7499C28.7958 57.6551 28.9017 57.5604 29.0109 57.4627C29.8435 56.724 30.7021 56.0188 31.5687 55.3203C32.2556 54.7572 32.9268 54.1779 33.5968 53.595C33.7214 53.4868 33.8459 53.3786 33.9743 53.2672C34.4802 52.8276 34.9857 52.3877 35.4895 51.9457C39.3117 48.5926 39.3117 48.5926 40.834 49.1195Z" fill="white"/>
<path d="M31.1685 14.5978C32.5893 15.6398 33.5329 16.7013 33.8724 18.4538C34.0695 20.1044 33.6689 21.5067 32.7466 22.883C31.6616 24.1101 30.2936 24.7252 28.668 24.8549C27.0787 24.8576 25.7044 24.2924 24.5593 23.1889C23.5752 22.0697 23.1458 20.9525 23.0312 19.4925C23.1502 17.6787 23.7162 16.4265 25.0532 15.1896C26.8276 13.7849 29.1547 13.5529 31.1685 14.5978ZM27.0259 18.1486C26.682 18.727 26.6285 19.0657 26.656 19.7391C26.8579 20.4169 27.0542 20.685 27.6177 21.1076C28.3019 21.3777 28.5442 21.3295 29.2328 21.046C29.8816 20.6567 30.131 20.4955 30.3424 19.7637C30.3871 19.0037 30.2522 18.7414 29.7876 18.1486C29.3553 17.7308 29.1132 17.5745 28.5177 17.4828C27.8826 17.5758 27.5311 17.7527 27.0259 18.1486Z" fill="white"/>
<path d="M48.33 15.3865C49.4938 16.5168 50.0298 17.7762 50.1548 19.3688C50.0357 21.1839 49.4689 22.433 48.1328 23.6717C46.9059 24.6636 45.5545 24.9925 43.9902 24.8553C42.299 24.4488 41.0801 23.7178 40.0449 22.2908C39.2825 20.8478 39.0643 19.387 39.4839 17.8053C40.0772 16.2151 41.0967 15.1489 42.6093 14.4002C44.5315 13.6167 46.7602 14.0613 48.33 15.3865ZM43.5957 17.951C43.1436 18.4353 42.8671 18.8637 42.8066 19.5291C43.002 20.1966 43.2206 20.6984 43.7929 21.1072C44.5314 21.337 44.886 21.3376 45.6176 21.0702C46.2874 20.6349 46.2874 20.6349 46.5547 19.9236C46.5273 19.1579 46.4701 18.6958 46.0122 18.0743C45.1603 17.459 44.5121 17.4445 43.5957 17.951Z" fill="white"/>
<path d="M14.944 14.5345C16.1095 15.2172 16.9333 16.1695 17.4276 17.4287C17.8554 19.1351 17.7447 20.7601 16.8496 22.2818C16.0255 23.4814 14.9919 24.2043 13.6133 24.6582C11.9388 24.873 10.4488 24.7473 9.05226 23.7751C7.89137 22.8422 7.20696 21.7803 6.90622 20.3184C6.71734 18.5534 7.15649 17.1889 8.1268 15.7196C10.0236 13.9071 12.5369 13.4294 14.944 14.5345ZM10.6543 18.3457C10.3728 18.9086 10.3958 19.2994 10.457 19.9238C10.8121 20.4564 11.0653 20.8198 11.6406 21.1074C12.4875 21.2033 12.8875 21.1986 13.6009 20.7129C14.0533 20.0548 14.1573 19.7069 14.1026 18.9252C13.9311 18.2336 13.5974 17.9488 13.0215 17.5566C11.9429 17.3833 11.4208 17.5792 10.6543 18.3457Z" fill="white"/>
</g>
<defs>
<clipPath id="clip0_76_5046">
<rect width="101" height="101" fill="white"/>
</clipPath>
</defs>
</svg>
