<svg width="279" height="279" viewBox="0 0 279 279" fill="none" xmlns="http://www.w3.org/2000/svg">
<rect x="0.467285" y="0.0488281" width="278.066" height="278.066" rx="55" fill="#111111"/>
<path d="M170.2 177.633C172.765 177.633 174.9 178.503 176.652 180.247C178.394 181.994 179.264 184.128 179.264 186.697C179.264 189.262 178.394 191.394 176.651 193.142C174.903 194.889 172.769 195.762 170.2 195.762C167.635 195.762 165.503 194.889 163.755 193.142C162.008 191.394 161.135 189.262 161.135 186.697C161.135 184.134 162.007 181.999 163.754 180.247C165.502 178.503 167.635 177.633 170.2 177.633ZM108.8 177.633C111.37 177.633 113.503 178.503 115.246 180.246C116.988 181.989 117.861 184.124 117.865 186.698C117.869 189.271 116.997 191.402 115.247 193.14C113.494 194.88 111.36 195.753 108.798 195.761C106.23 195.76 104.097 194.889 102.35 193.142C100.603 191.394 99.7328 189.262 99.7368 186.698C99.7409 184.134 100.61 181.999 102.349 180.247C104.096 178.504 106.231 177.633 108.8 177.633ZM89.5747 75.458L95.5874 88.1152L95.7905 88.5439H181.454C184.046 88.5439 185.936 89.5802 187.228 91.6689L187.229 91.6709C188.522 93.7523 188.596 95.8531 187.437 98.0781L168.75 132.132C167.864 133.623 166.721 134.781 165.319 135.621C163.925 136.456 162.395 136.875 160.712 136.875H113.538L113.324 137.267L105.386 151.835C104.995 152.434 104.777 153.084 104.763 153.774C104.749 154.474 104.945 155.166 105.306 155.841C105.67 156.52 106.147 157.069 106.75 157.445C107.356 157.823 108.048 158.001 108.798 158.004H179.264V163.047H108.8C105.243 163.047 102.645 161.572 100.904 158.59C99.156 155.597 99.1151 152.646 100.775 149.634L100.774 149.633L110.613 132.104L110.803 131.765L110.636 131.414L86.5776 80.9287L86.3735 80.501H74.8208V75.458H89.5747ZM98.7866 94.6592L116.25 131.404L116.454 131.832H160.339C161.225 131.832 162.038 131.606 162.753 131.143L162.754 131.144C163.447 130.697 164.025 130.09 164.495 129.341L164.506 129.323L164.517 129.305L181.633 98.2256L181.635 98.2207C182.223 97.1378 182.336 96.0304 181.747 95.0293L181.746 95.0283L181.631 94.8477C181.033 93.9795 180.089 93.5869 178.96 93.5869H98.2769L98.7866 94.6592Z" fill="white" stroke="#111111" stroke-width="1.5"/>
</svg>
