<svg width="279" height="279" viewBox="0 0 279 279" fill="none" xmlns="http://www.w3.org/2000/svg">
<rect x="0.400879" y="0.0488281" width="278.066" height="278.066" rx="55" fill="#35C771"/>
<mask id="path-2-inside-1_1_1889" fill="white">
<path d="M114.505 131.786V103.529C114.505 101.841 115.098 100.404 116.283 99.2187C117.464 98.0332 118.9 97.4404 120.593 97.4404C122.286 97.4404 123.723 98.0332 124.903 99.2187C126.089 100.404 126.682 101.841 126.682 103.529V131.786C126.682 133.479 126.089 134.916 124.903 136.096C123.718 137.282 122.281 137.875 120.593 137.875C118.905 137.875 117.469 137.282 116.283 136.096C115.098 134.911 114.505 133.474 114.505 131.786ZM147.261 141.537V73.3878C147.261 71.6999 147.851 70.2632 149.031 69.0776C150.217 67.8921 151.654 67.2993 153.342 67.2993C155.035 67.2993 156.471 67.8921 157.652 69.0776C158.837 70.2632 159.43 71.6999 159.43 73.3878V141.537C159.43 143.566 158.807 145.088 157.561 146.103C156.31 147.118 154.911 147.625 153.364 147.625C151.817 147.625 150.41 147.118 149.144 146.103C147.879 145.088 147.251 143.566 147.261 141.537ZM81.4702 157.677V133.67C81.4702 131.982 82.0605 130.545 83.241 129.36C84.4266 128.174 85.8658 127.581 87.5587 127.581C89.2516 127.581 90.6884 128.174 91.8689 129.36C93.0494 130.545 93.6397 131.982 93.6397 133.67V157.685C93.6397 159.714 93.0168 161.234 91.7709 162.244C90.5251 163.258 89.126 163.766 87.5738 163.766C86.0265 163.766 84.62 163.258 83.354 162.244C82.0982 161.234 81.4702 159.714 81.4702 157.685M89.646 201.864C87.9631 201.864 86.8002 201.098 86.1571 199.566C85.5141 198.039 85.8055 196.66 87.0312 195.429L116.479 165.989C117.569 164.894 118.913 164.283 120.51 164.158C122.108 164.032 123.527 164.517 124.768 165.612L147.261 184.94L198.146 134.047H184.643C183.573 134.047 182.679 133.685 181.961 132.962C181.242 132.238 180.88 131.342 180.875 130.272C180.87 129.202 181.232 128.307 181.961 127.589C182.689 126.871 183.583 126.511 184.643 126.511H204.928C206.656 126.511 208.103 127.094 209.268 128.26C210.434 129.425 211.017 130.872 211.017 132.6V152.885C211.017 153.955 210.655 154.849 209.931 155.567C209.208 156.286 208.311 156.648 207.241 156.653C206.171 156.658 205.277 156.296 204.559 155.567C203.84 154.839 203.481 153.945 203.481 152.885V139.382L151.458 191.405C150.368 192.495 149.024 193.103 147.426 193.229C145.829 193.354 144.41 192.87 143.169 191.774L120.676 172.446L92.3662 200.764C92.0447 201.065 91.6403 201.324 91.153 201.54C90.6658 201.756 90.1634 201.864 89.646 201.864Z"/>
</mask>
<path d="M114.505 131.786V103.529C114.505 101.841 115.098 100.404 116.283 99.2187C117.464 98.0332 118.9 97.4404 120.593 97.4404C122.286 97.4404 123.723 98.0332 124.903 99.2187C126.089 100.404 126.682 101.841 126.682 103.529V131.786C126.682 133.479 126.089 134.916 124.903 136.096C123.718 137.282 122.281 137.875 120.593 137.875C118.905 137.875 117.469 137.282 116.283 136.096C115.098 134.911 114.505 133.474 114.505 131.786ZM147.261 141.537V73.3878C147.261 71.6999 147.851 70.2632 149.031 69.0776C150.217 67.8921 151.654 67.2993 153.342 67.2993C155.035 67.2993 156.471 67.8921 157.652 69.0776C158.837 70.2632 159.43 71.6999 159.43 73.3878V141.537C159.43 143.566 158.807 145.088 157.561 146.103C156.31 147.118 154.911 147.625 153.364 147.625C151.817 147.625 150.41 147.118 149.144 146.103C147.879 145.088 147.251 143.566 147.261 141.537ZM81.4702 157.677V133.67C81.4702 131.982 82.0605 130.545 83.241 129.36C84.4266 128.174 85.8658 127.581 87.5587 127.581C89.2516 127.581 90.6884 128.174 91.8689 129.36C93.0494 130.545 93.6397 131.982 93.6397 133.67V157.685C93.6397 159.714 93.0168 161.234 91.7709 162.244C90.5251 163.258 89.126 163.766 87.5738 163.766C86.0265 163.766 84.62 163.258 83.354 162.244C82.0982 161.234 81.4702 159.714 81.4702 157.685M89.646 201.864C87.9631 201.864 86.8002 201.098 86.1571 199.566C85.5141 198.039 85.8055 196.66 87.0312 195.429L116.479 165.989C117.569 164.894 118.913 164.283 120.51 164.158C122.108 164.032 123.527 164.517 124.768 165.612L147.261 184.94L198.146 134.047H184.643C183.573 134.047 182.679 133.685 181.961 132.962C181.242 132.238 180.88 131.342 180.875 130.272C180.87 129.202 181.232 128.307 181.961 127.589C182.689 126.871 183.583 126.511 184.643 126.511H204.928C206.656 126.511 208.103 127.094 209.268 128.26C210.434 129.425 211.017 130.872 211.017 132.6V152.885C211.017 153.955 210.655 154.849 209.931 155.567C209.208 156.286 208.311 156.648 207.241 156.653C206.171 156.658 205.277 156.296 204.559 155.567C203.84 154.839 203.481 153.945 203.481 152.885V139.382L151.458 191.405C150.368 192.495 149.024 193.103 147.426 193.229C145.829 193.354 144.41 192.87 143.169 191.774L120.676 172.446L92.3662 200.764C92.0447 201.065 91.6403 201.324 91.153 201.54C90.6658 201.756 90.1634 201.864 89.646 201.864Z" fill="white"/>
<path d="M116.283 99.2187L116.99 99.9258L116.992 99.9243L116.283 99.2187ZM124.903 99.2187L124.195 99.9243L124.196 99.9258L124.903 99.2187ZM124.903 136.096L124.198 135.388L124.196 135.389L124.903 136.096ZM147.261 141.537L148.261 141.542V141.537H147.261ZM149.031 69.0776L148.324 68.3705L148.323 68.372L149.031 69.0776ZM157.652 69.0776L156.943 69.7832L156.945 69.7847L157.652 69.0776ZM157.561 146.103L158.191 146.88L158.193 146.879L157.561 146.103ZM83.241 129.36L82.5339 128.653L82.5324 128.654L83.241 129.36ZM91.7709 162.244L91.1413 161.467L91.1394 161.468L91.7709 162.244ZM83.354 162.244L82.7274 163.023L82.7286 163.024L83.354 162.244ZM89.646 201.864V200.864V201.864ZM86.1571 199.566L87.0792 199.179L87.0788 199.178L86.1571 199.566ZM87.0312 195.429L86.3242 194.722L86.3227 194.723L87.0312 195.429ZM116.479 165.989L117.186 166.696L117.188 166.694L116.479 165.989ZM124.768 165.612L124.106 166.362L124.116 166.37L124.768 165.612ZM147.261 184.94L146.609 185.698L147.312 186.303L147.968 185.647L147.261 184.94ZM198.146 134.047L198.853 134.754L200.56 133.047H198.146V134.047ZM203.481 139.382H204.481V136.967L202.774 138.675L203.481 139.382ZM151.458 191.405L152.165 192.112L151.458 191.405ZM143.169 191.774L143.831 191.025L143.821 191.016L143.169 191.774ZM120.676 172.446L121.328 171.688L120.625 171.084L119.969 171.739L120.676 172.446ZM92.3662 200.764L93.0502 201.494L93.062 201.482L93.0734 201.471L92.3662 200.764ZM115.505 131.786V103.529H113.505V131.786H115.505ZM115.505 103.529C115.505 102.104 115.994 100.922 116.99 99.9258L115.576 98.5116C114.202 99.8861 113.505 101.578 113.505 103.529H115.505ZM116.992 99.9243C117.982 98.9297 119.163 98.4404 120.593 98.4404V96.4404C118.638 96.4404 116.945 97.1366 115.575 98.5131L116.992 99.9243ZM120.593 98.4404C122.024 98.4404 123.205 98.9297 124.195 99.9243L125.612 98.5131C124.241 97.1366 122.549 96.4404 120.593 96.4404V98.4404ZM124.196 99.9258C125.193 100.922 125.682 102.104 125.682 103.529H127.682C127.682 101.578 126.985 99.8861 125.611 98.5116L124.196 99.9258ZM125.682 103.529V131.786H127.682V103.529H125.682ZM125.682 131.786C125.682 133.217 125.192 134.397 124.198 135.388L125.609 136.805C126.986 135.434 127.682 133.741 127.682 131.786H125.682ZM124.196 135.389C123.2 136.386 122.018 136.875 120.593 136.875V138.875C122.544 138.875 124.236 138.178 125.611 136.803L124.196 135.389ZM120.593 136.875C119.169 136.875 117.987 136.386 116.99 135.389L115.576 136.803C116.951 138.178 118.642 138.875 120.593 138.875V136.875ZM116.99 135.389C115.994 134.393 115.505 133.211 115.505 131.786H113.505C113.505 133.737 114.202 135.429 115.576 136.803L116.99 135.389ZM148.261 141.537V73.3878H146.261V141.537H148.261ZM148.261 73.3878C148.261 71.9618 148.748 70.7795 149.74 69.7832L148.323 68.372C146.954 69.7469 146.261 71.4381 146.261 73.3878H148.261ZM149.739 69.7847C150.735 68.7881 151.917 68.2993 153.342 68.2993V66.2993C151.39 66.2993 149.699 66.996 148.324 68.3705L149.739 69.7847ZM153.342 68.2993C154.772 68.2993 155.953 68.7887 156.943 69.7832L158.36 68.372C156.99 66.9955 155.297 66.2993 153.342 66.2993V68.2993ZM156.945 69.7847C157.941 70.7813 158.43 71.9631 158.43 73.3878H160.43C160.43 71.4367 159.733 69.745 158.359 68.3705L156.945 69.7847ZM158.43 73.3878V141.537H160.43V73.3878H158.43ZM158.43 141.537C158.43 143.352 157.883 144.551 156.93 145.328L158.193 146.879C159.731 145.625 160.43 143.781 160.43 141.537H158.43ZM156.931 145.327C155.851 146.203 154.672 146.625 153.364 146.625V148.625C155.151 148.625 156.77 148.033 158.191 146.88L156.931 145.327ZM153.364 146.625C152.056 146.625 150.868 146.203 149.77 145.323L148.519 146.883C149.953 148.033 151.578 148.625 153.364 148.625V146.625ZM149.77 145.323C148.801 144.546 148.252 143.35 148.261 141.542L146.261 141.532C146.25 143.782 146.956 145.631 148.519 146.883L149.77 145.323ZM82.4702 157.677V133.67H80.4702V157.677H82.4702ZM82.4702 133.67C82.4702 132.244 82.9576 131.062 83.9496 130.065L82.5324 128.654C81.1634 130.029 80.4702 131.72 80.4702 133.67H82.4702ZM83.9481 130.067C84.9441 129.071 86.1281 128.581 87.5587 128.581V126.581C85.6035 126.581 83.909 127.278 82.5339 128.653L83.9481 130.067ZM87.5587 128.581C88.9892 128.581 90.1699 129.071 91.1603 130.065L92.5775 128.654C91.2068 127.278 89.514 126.581 87.5587 126.581V128.581ZM91.1603 130.065C92.1523 131.062 92.6397 132.244 92.6397 133.67H94.6397C94.6397 131.72 93.9465 130.029 92.5775 128.654L91.1603 130.065ZM92.6397 133.67V157.685H94.6397V133.67H92.6397ZM92.6397 157.685C92.6397 159.5 92.0926 160.696 91.1413 161.467L92.4006 163.021C93.941 161.772 94.6397 159.929 94.6397 157.685H92.6397ZM91.1394 161.468C90.0652 162.343 88.8873 162.766 87.5738 162.766V164.766C89.3647 164.766 90.985 164.174 92.4025 163.019L91.1394 161.468ZM87.5738 162.766C86.2656 162.766 85.0773 162.343 83.9795 161.463L82.7286 163.024C84.1626 164.173 85.7875 164.766 87.5738 164.766V162.766ZM83.9806 161.464C83.0205 160.692 82.4702 159.497 82.4702 157.685H80.4702C80.4702 159.931 81.1758 161.776 82.7274 163.023L83.9806 161.464ZM89.646 200.864C88.9589 200.864 88.4486 200.709 88.0617 200.454C87.6758 200.2 87.339 199.798 87.0792 199.179L85.2351 199.953C85.6183 200.866 86.1845 201.613 86.9615 202.125C87.7376 202.636 88.6502 202.864 89.646 202.864V200.864ZM87.0788 199.178C86.8221 198.568 86.7753 198.05 86.8718 197.593C86.9692 197.132 87.2314 196.645 87.7398 196.135L86.3227 194.723C85.6054 195.444 85.109 196.262 84.915 197.18C84.7202 198.102 84.8492 199.036 85.2355 199.954L87.0788 199.178ZM87.7383 196.136L117.186 166.696L115.772 165.282L86.3242 194.722L87.7383 196.136ZM117.188 166.694C118.103 165.775 119.22 165.262 120.589 165.155L120.432 163.161C118.606 163.304 117.036 164.012 115.77 165.283L117.188 166.694ZM120.589 165.155C121.907 165.051 123.061 165.439 124.106 166.362L125.43 164.862C123.993 163.594 122.309 163.013 120.432 163.161L120.589 165.155ZM124.116 166.37L146.609 185.698L147.912 184.181L125.42 164.854L124.116 166.37ZM147.968 185.647L198.853 134.754L197.439 133.34L146.553 184.233L147.968 185.647ZM198.146 133.047H184.643V135.047H198.146V133.047ZM184.643 133.047C183.825 133.047 183.191 132.781 182.67 132.257L181.251 133.666C182.167 134.589 183.321 135.047 184.643 135.047V133.047ZM182.67 132.257C182.147 131.73 181.879 131.089 181.875 130.267L179.875 130.276C179.882 131.594 180.338 132.747 181.251 133.666L182.67 132.257ZM181.875 130.267C181.872 129.452 182.136 128.821 182.663 128.301L181.258 126.877C180.329 127.794 179.869 128.951 179.875 130.276L181.875 130.267ZM182.663 128.301C183.197 127.774 183.835 127.511 184.643 127.511V125.511C183.331 125.511 182.181 125.967 181.258 126.877L182.663 128.301ZM184.643 127.511H204.928V125.511H184.643V127.511ZM204.928 127.511C206.405 127.511 207.593 127.999 208.561 128.967L209.975 127.553C208.613 126.19 206.907 125.511 204.928 125.511V127.511ZM208.561 128.967C209.529 129.935 210.017 131.123 210.017 132.6H212.017C212.017 130.621 211.338 128.915 209.975 127.553L208.561 128.967ZM210.017 132.6V152.885H212.017V132.6H210.017ZM210.017 152.885C210.017 153.703 209.751 154.337 209.227 154.858L210.636 156.277C211.559 155.361 212.017 154.207 212.017 152.885H210.017ZM209.227 154.858C208.7 155.381 208.059 155.649 207.237 155.653L207.246 157.653C208.564 157.646 209.717 157.19 210.636 156.277L209.227 154.858ZM207.237 155.653C206.422 155.656 205.791 155.392 205.271 154.865L203.847 156.27C204.764 157.199 205.921 157.659 207.246 157.653L207.237 155.653ZM205.271 154.865C204.744 154.331 204.481 153.693 204.481 152.885H202.481C202.481 154.197 202.937 155.347 203.847 156.27L205.271 154.865ZM204.481 152.885V139.382H202.481V152.885H204.481ZM202.774 138.675L150.751 190.698L152.165 192.112L204.188 140.089L202.774 138.675ZM150.751 190.698C149.836 191.613 148.718 192.124 147.348 192.232L147.505 194.226C149.329 194.082 150.899 193.378 152.165 192.112L150.751 190.698ZM147.348 192.232C146.03 192.335 144.876 191.947 143.831 191.025L142.507 192.524C143.944 193.792 145.628 194.373 147.505 194.226L147.348 192.232ZM143.821 191.016L121.328 171.688L120.024 173.205L142.517 192.533L143.821 191.016ZM119.969 171.739L91.659 200.057L93.0734 201.471L121.383 173.153L119.969 171.739ZM91.6823 200.034C91.4577 200.245 91.1533 200.446 90.7478 200.626L91.5583 202.454C92.1274 202.202 92.6317 201.886 93.0502 201.494L91.6823 200.034ZM90.7478 200.626C90.3842 200.787 90.0196 200.864 89.646 200.864V202.864C90.3072 202.864 90.9473 202.725 91.5583 202.454L90.7478 200.626Z" fill="#35C771" mask="url(#path-2-inside-1_1_1889)"/>
</svg>
