<svg width="279" height="279" viewBox="0 0 279 279" fill="none" xmlns="http://www.w3.org/2000/svg">
<rect x="0.334961" y="0.0488281" width="278.066" height="278.066" rx="55" fill="#FF8100"/>
<path d="M83.2656 189.896L77.6279 197.994L77.0811 198.779H106.178L105.594 197.983L99.6543 189.886L99.5039 189.682H83.415L83.2656 189.896ZM178.917 189.886L172.977 197.983L172.394 198.779H201.49L200.943 197.994L195.305 189.896L195.156 189.682H179.067L178.917 189.886ZM110.415 120.133L102.386 131.724L102.296 131.854L102.297 132.01L102.444 187.096L102.445 187.178L102.472 187.257C102.504 187.351 102.569 187.467 102.623 187.558C102.687 187.667 102.772 187.802 102.872 187.959C103.074 188.273 103.349 188.685 103.674 189.161C104.323 190.115 105.176 191.335 106.043 192.557C106.91 193.78 107.794 195.007 108.505 195.973C108.86 196.457 109.174 196.877 109.421 197.199C109.658 197.508 109.855 197.754 109.968 197.87V197.871C110.036 197.941 110.097 198.012 110.177 198.103C110.251 198.188 110.341 198.288 110.444 198.381C110.665 198.578 110.953 198.747 111.356 198.772L111.372 198.773H111.389L167.438 198.719H167.691L167.841 198.513L176.127 187.178L176.222 187.049L176.223 186.887L176.358 168.678C176.6 167.968 177.366 167.656 178.27 167.767C178.717 167.822 179.129 167.981 179.417 168.193C179.706 168.406 179.821 168.631 179.821 168.835V186.094H194.397V132.548H180.114L179.968 132.694L179.964 132.697L179.818 132.844V159.475C179.818 159.659 179.708 159.889 179.417 160.122C179.132 160.35 178.726 160.532 178.289 160.615C177.851 160.698 177.426 160.673 177.092 160.539C176.791 160.418 176.555 160.204 176.425 159.855L176.229 131.752L176.228 131.597L176.14 131.47L168.359 120.235L168.21 120.02H167.949L110.826 119.918L110.564 119.917L110.415 120.133ZM84.1768 186.097H98.7529V132.551H84.1768V186.097ZM77.625 120.647L83.1172 128.735L83.2266 128.895L83.4141 128.94L83.792 129.031L83.8516 129.045H83.9111L99.2588 128.972L99.5186 128.971L99.667 128.758L105.299 120.654L105.389 120.525V119.866H77.0947L77.625 120.647ZM200.263 119.866H172.723L173.269 120.651L178.9 128.755L179.049 128.968L179.309 128.969L194.656 129.042H194.717L194.775 129.028L195.153 128.937L195.342 128.892L195.45 128.732L200.792 120.866H201.738L200.887 120.012L200.456 119.582L200.263 119.866ZM66.0723 112.06C66.0724 112.459 66.2384 112.876 66.4482 113.247C66.6648 113.629 66.9592 114.018 67.2842 114.371C67.6096 114.724 67.9758 115.054 68.3418 115.316C68.7008 115.573 69.092 115.789 69.4648 115.878L69.5215 115.891H209.047L209.104 115.878C209.476 115.789 209.867 115.573 210.226 115.316C210.592 115.054 210.958 114.724 211.283 114.371C211.608 114.018 211.904 113.629 212.12 113.247C212.33 112.876 212.496 112.459 212.496 112.06V106.273H66.0723V112.06ZM212.496 203.055L212.35 202.909L211.896 202.456L211.749 202.309H66.8184L66.0723 203.055V212.069H212.496V203.055ZM80.667 132.216L80.6523 132.157L80.3564 130.944L80.334 130.851L80.2783 130.773L72.8838 120.355L72.7656 120.188L72.5635 120.152L70.8105 119.86C69.1606 119.584 67.7764 119.277 66.2754 118.26C64.3146 116.932 63.4137 115.247 62.5439 113.019V103.748L97.0107 84.3484C97.8866 84.5059 98.5373 85.0478 98.793 85.657C98.9262 85.9746 98.9539 86.3114 98.8594 86.6404C98.7664 86.9637 98.5444 87.3111 98.125 87.6394L73.5693 101.509L71.9131 102.444H206.117L205.079 101.563L204.182 100.801L204.138 100.764L204.088 100.738L202.252 99.781C193.085 94.9746 184.089 89.8122 175.085 84.6443C165.483 79.1336 155.872 73.6163 146.053 68.53C145.126 68.05 144.372 67.6122 143.587 67.1951C142.827 66.7912 142.09 66.4374 141.32 66.2029C139.747 65.7233 138.104 65.7629 135.868 66.698L135.844 66.7078L135.819 66.7214L107.129 82.6072C106.456 82.7871 105.932 82.7219 105.555 82.5427C105.168 82.3589 104.898 82.041 104.766 81.6599C104.505 80.9105 104.766 79.8502 105.927 79.1824C110.681 77.0073 115.395 74.1405 120.064 71.3093C124.753 68.4669 129.398 65.6609 134.047 63.5789C136.273 62.5821 138.015 62.1858 139.715 62.2742C141.416 62.3626 143.125 62.9384 145.286 63.9773L215.841 103.408C215.959 103.616 215.987 103.861 216.033 104.26V104.261C216.246 106.041 216.226 110.498 216.03 112.308C215.498 117.212 210.745 119.715 206.049 120.146L205.813 120.168L205.681 120.364L197.996 131.699L197.91 131.826V131.979L197.94 186.638V186.793L198.027 186.921L205.921 198.497L206.07 198.717L206.335 198.716C208.398 198.709 210.697 198.56 212.586 199.056C213.514 199.3 214.3 199.691 214.888 200.302C215.47 200.908 215.893 201.769 216.033 203.019C216.139 203.959 216.199 205.792 216.192 207.635C216.187 209.255 216.13 210.835 216.017 211.798L215.965 212.17C215.665 213.947 214.151 214.979 212.475 215.901H66.0752C64.4121 215.164 63.2822 214.039 62.5469 212.368V202.309C62.9796 201.217 63.5248 200.474 64.1436 199.96C64.7777 199.433 65.5162 199.123 66.3516 198.944C67.193 198.764 68.1196 198.718 69.1211 198.714C70.0996 198.709 71.1914 198.745 72.2539 198.716L72.5068 198.709L72.6514 198.501L80.4961 187.177L80.585 187.05V186.893L80.667 132.276V132.216Z" fill="white" stroke="#FF8100"/>
<path d="M132.205 78.8452C134.598 76.4092 137.28 75.5818 139.787 75.811C142.31 76.0418 144.699 77.3475 146.465 79.2534C148.23 81.1591 149.344 83.6341 149.358 86.1694C149.373 88.6895 148.301 91.3172 145.606 93.5601C140.825 97.5384 135.3 96.1212 132.026 92.5425C128.753 88.9644 127.815 83.3165 132.205 78.8452ZM143.482 81.0933C142.128 79.8977 140.149 79.31 137.604 79.7788C134.477 80.3553 132.972 83.2823 133.042 86.0503C133.112 88.8345 134.776 91.6898 138.188 92.144C140.617 92.4674 142.492 91.7564 143.746 90.4849C144.987 89.2262 145.576 87.4615 145.536 85.7368C145.496 84.0115 144.824 82.2784 143.482 81.0933Z" fill="white" stroke="#FF8100"/>
<path d="M135.958 133.937C162.344 131.246 175.254 164.143 154.65 179.584C134.844 194.431 107.857 175.363 114.948 151.688V151.687C117.657 142.642 126.476 134.906 135.959 133.938L135.958 133.937ZM158.278 170.145C167.18 154.41 154.59 135.631 136.755 137.472C119.668 139.238 111.366 160.058 122.454 173.238C132.209 184.834 150.771 183.418 158.278 170.145Z" fill="white" stroke="#FF8100"/>
<path d="M139.288 141.52C140.187 141.524 141.314 142.366 141.206 144.491L141.179 145.018L141.706 145.016C143.537 145.01 145.639 145.959 146.667 147.429C147.273 148.295 147.844 149.929 147.856 151.3C147.862 151.985 147.727 152.528 147.466 152.878C147.228 153.197 146.833 153.425 146.122 153.385C145.473 153.349 145.136 153.11 144.908 152.797C144.651 152.444 144.508 151.964 144.343 151.37C144.189 150.817 144.013 150.149 143.647 149.616C143.253 149.041 142.656 148.637 141.739 148.557L141.196 148.509V157.379L141.668 157.406C143.211 157.493 144.372 157.874 145.247 158.448C146.12 159.02 146.737 159.803 147.162 160.75C148.023 162.665 148.088 165.222 147.849 167.898C147.57 171.017 144.845 173.609 141.742 173.318L141.145 173.261L141.198 173.86C141.299 174.991 141.041 175.779 140.666 176.272C140.292 176.764 139.78 176.995 139.283 176.995C138.786 176.995 138.274 176.764 137.9 176.272C137.526 175.779 137.269 174.991 137.369 173.86L137.428 173.198L136.775 173.325C135.081 173.655 133.246 172.664 131.992 171.069C130.737 169.472 130.215 167.463 130.908 165.944C131.123 165.473 131.681 165.203 132.381 165.236C133.081 165.269 133.718 165.604 133.984 166.089C134.129 166.352 134.206 166.672 134.27 167.056C134.328 167.41 134.38 167.865 134.49 168.251C134.606 168.657 134.806 169.082 135.222 169.385C135.634 169.686 136.184 169.814 136.886 169.789L137.368 169.771V161.437H136.9L136.871 160.937H136.368V160.968C135.091 160.99 133.833 160.462 132.816 159.584C131.682 158.604 130.891 157.223 130.729 155.795C130.431 153.147 130.475 150.489 131.341 148.481C131.769 147.487 132.395 146.661 133.276 146.065C134.159 145.468 135.33 145.08 136.883 145.015L137.385 144.995L137.361 144.493C137.311 143.415 137.581 142.666 137.952 142.199C138.322 141.733 138.813 141.518 139.288 141.52ZM141.199 169.759L141.668 169.788C142.451 169.835 143.071 169.601 143.521 169.142C143.951 168.702 144.178 168.103 144.3 167.501C144.481 166.605 144.45 165.569 144.388 164.72L144.322 163.946C144.257 163.213 144.094 162.516 143.687 161.968C143.264 161.4 142.629 161.058 141.766 160.941L141.199 160.865V169.759ZM136.805 148.559C135.941 148.674 135.307 149.016 134.884 149.585C134.477 150.133 134.313 150.831 134.248 151.564C134.165 152.483 134.028 153.925 134.27 155.121C134.391 155.722 134.619 156.321 135.05 156.761C135.499 157.22 136.119 157.454 136.902 157.406L137.371 157.376V148.484L136.805 148.559Z" fill="white" stroke="#FF8100"/>
<path d="M213.453 200.901L212.019 213.232H65.2109V200.901H213.453Z" fill="white" stroke="#FF8100"/>
</svg>
