<svg width="279" height="279" viewBox="0 0 279 279" fill="none" xmlns="http://www.w3.org/2000/svg">
<rect x="0.599609" y="0.0488281" width="278.066" height="278.066" rx="55" fill="#215CFF"/>
<mask id="path-2-inside-1_1_1907" fill="white">
<path d="M178.062 202.89C175.865 202.89 173.87 202.569 172.136 201.943C170.412 201.328 168.762 200.32 167.238 198.957C165.706 197.59 164.244 195.954 162.912 194.09C161.555 192.19 160.197 190.255 158.885 188.339L140.894 160.759H110.432V189.04C110.432 193.626 109.369 197.117 107.276 199.43C105.161 201.756 102.524 202.886 99.2172 202.886C95.7939 202.886 93.1349 201.743 91.0838 199.394C89.0363 197.059 87.999 193.573 87.999 189.04V160.759H70.5637C66.0029 160.759 62.292 157.048 62.292 152.488C62.292 147.927 66.0029 144.216 70.5637 144.216H87.999V130.098H70.5637C66.0029 130.1 62.292 126.389 62.292 121.83C62.292 117.271 66.0029 113.559 70.5637 113.559H87.999V92.9458C87.999 88.9619 88.4321 85.8315 89.2857 83.6458C90.3522 81.116 92.0302 79.1614 94.4434 77.5998C96.8567 76.0347 99.3919 75.2739 102.193 75.2739C104.357 75.2739 106.235 75.627 107.764 76.3277C109.334 77.0447 110.665 77.9766 111.833 79.1759C113.023 80.3935 114.254 81.9914 115.495 83.9187C116.771 85.9025 118.087 87.9682 119.482 90.174L134.938 113.559H169.055V89.1238C169.055 84.4757 170.05 80.9631 172.012 78.6791C173.981 76.3877 176.573 75.2739 179.933 75.2739C183.405 75.2739 186.068 76.3896 188.066 78.6845C190.055 80.9668 191.062 84.4811 191.062 89.1238V113.559H208.702C213.263 113.559 216.974 117.27 216.974 121.83C216.974 126.391 213.263 130.1 208.702 130.1H191.062V144.22H208.702C213.263 144.22 216.974 147.929 216.974 152.491C216.974 157.052 213.263 160.759 208.702 160.759H191.062V187.089C191.062 197.721 186.81 202.89 178.062 202.89ZM107.702 155.299H142.374C143.295 155.299 144.156 155.765 144.66 156.537L163.427 185.309C164.679 187.147 166.023 189.049 167.353 190.916C168.452 192.447 169.639 193.783 170.88 194.889C171.879 195.785 172.92 196.429 173.987 196.809C175.131 197.226 176.5 197.433 178.063 197.433C181.243 197.433 185.604 197.433 185.604 187.091V158.029C185.604 156.522 186.828 155.299 188.333 155.299H208.704C210.257 155.299 211.516 154.038 211.516 152.488C211.516 150.937 210.257 149.676 208.704 149.676H188.332C186.825 149.676 185.602 148.453 185.602 146.946V127.37C185.602 125.863 186.825 124.64 188.332 124.64H208.702C210.253 124.64 211.514 123.381 211.514 121.83C211.514 120.28 210.253 119.019 208.702 119.019H188.332C186.825 119.019 185.602 117.796 185.602 116.289V89.1238C185.602 85.0289 184.703 83.1362 183.946 82.268C183.285 81.5073 182.293 80.732 179.933 80.732C178.165 80.732 177.072 81.167 176.154 82.2353C175.41 83.107 174.518 85.0071 174.518 89.122V116.287C174.518 117.794 173.295 119.017 171.788 119.017H133.469C132.552 119.017 131.694 118.556 131.19 117.792L114.9 93.1405C113.478 90.9019 112.17 88.8472 110.901 86.8744C109.86 85.2528 108.858 83.946 107.922 82.9887C107.232 82.2771 106.441 81.7257 105.494 81.2925C104.695 80.9267 103.551 80.732 102.193 80.732C100.455 80.732 98.9369 81.1924 97.4118 82.1807C95.9267 83.1434 94.9512 84.2627 94.3433 85.7005C94.0303 86.5013 93.4588 88.6161 93.4588 92.9458V116.287C93.4588 117.794 92.2358 119.017 90.7289 119.017H70.5637C69.0131 119.019 67.7519 120.28 67.7519 121.83C67.7519 123.381 69.0131 124.64 70.5637 124.64H90.7289C92.2358 124.64 93.4588 125.863 93.4588 127.37V146.948C93.4588 148.455 92.2358 149.678 90.7289 149.678H70.5637C69.0131 149.676 67.7519 150.939 67.7519 152.488C67.7519 154.036 69.0131 155.299 70.5637 155.299H90.7289C92.2358 155.299 93.4588 156.522 93.4588 158.029V189.04C93.4588 192.168 94.0594 194.507 95.1933 195.801C96.1888 196.942 97.39 197.43 99.2172 197.43C100.97 197.43 102.167 196.933 103.23 195.761C104.368 194.509 104.972 192.183 104.972 189.045V158.029C104.972 156.522 106.195 155.299 107.702 155.299ZM171.785 177.001C170.885 177.001 170.021 176.553 169.506 175.774L158.775 159.533C158.224 158.694 158.175 157.618 158.654 156.735C159.13 155.851 160.057 155.299 161.054 155.299H171.785C173.291 155.299 174.515 156.522 174.515 158.029V174.271C174.515 175.476 173.721 176.538 172.571 176.886C172.311 176.963 172.045 177.001 171.785 177.001ZM166.13 160.759L169.055 165.186V160.759H166.13ZM171.785 149.676H153.731C152.813 149.676 151.956 149.215 151.452 148.451L138.517 128.874C137.962 128.035 137.913 126.959 138.39 126.075C138.867 125.192 139.791 124.639 140.792 124.639H171.785C173.291 124.639 174.515 125.862 174.515 127.369V146.946C174.515 148.455 173.291 149.676 171.785 149.676ZM155.199 144.216H169.055V130.098H145.868L155.199 144.216ZM135.143 149.676H107.702C106.195 149.676 104.972 148.453 104.972 146.946V127.37C104.972 125.863 106.195 124.64 107.702 124.64H122.376C123.297 124.64 124.158 125.106 124.662 125.88L137.431 145.457C137.979 146.296 138.021 147.366 137.546 148.247C137.067 149.13 136.146 149.676 135.143 149.676ZM110.432 144.216H130.104L120.897 130.098H110.432V144.216ZM115.146 119.02H107.702C106.195 119.02 104.972 117.797 104.972 116.29V104.877C104.972 103.669 105.765 102.604 106.923 102.26C108.079 101.918 109.329 102.373 109.988 103.385L117.431 114.798C117.979 115.637 118.025 116.709 117.548 117.59C117.069 118.469 116.148 119.02 115.146 119.02Z"/>
</mask>
<path d="M178.062 202.89C175.865 202.89 173.87 202.569 172.136 201.943C170.412 201.328 168.762 200.32 167.238 198.957C165.706 197.59 164.244 195.954 162.912 194.09C161.555 192.19 160.197 190.255 158.885 188.339L140.894 160.759H110.432V189.04C110.432 193.626 109.369 197.117 107.276 199.43C105.161 201.756 102.524 202.886 99.2172 202.886C95.7939 202.886 93.1349 201.743 91.0838 199.394C89.0363 197.059 87.999 193.573 87.999 189.04V160.759H70.5637C66.0029 160.759 62.292 157.048 62.292 152.488C62.292 147.927 66.0029 144.216 70.5637 144.216H87.999V130.098H70.5637C66.0029 130.1 62.292 126.389 62.292 121.83C62.292 117.271 66.0029 113.559 70.5637 113.559H87.999V92.9458C87.999 88.9619 88.4321 85.8315 89.2857 83.6458C90.3522 81.116 92.0302 79.1614 94.4434 77.5998C96.8567 76.0347 99.3919 75.2739 102.193 75.2739C104.357 75.2739 106.235 75.627 107.764 76.3277C109.334 77.0447 110.665 77.9766 111.833 79.1759C113.023 80.3935 114.254 81.9914 115.495 83.9187C116.771 85.9025 118.087 87.9682 119.482 90.174L134.938 113.559H169.055V89.1238C169.055 84.4757 170.05 80.9631 172.012 78.6791C173.981 76.3877 176.573 75.2739 179.933 75.2739C183.405 75.2739 186.068 76.3896 188.066 78.6845C190.055 80.9668 191.062 84.4811 191.062 89.1238V113.559H208.702C213.263 113.559 216.974 117.27 216.974 121.83C216.974 126.391 213.263 130.1 208.702 130.1H191.062V144.22H208.702C213.263 144.22 216.974 147.929 216.974 152.491C216.974 157.052 213.263 160.759 208.702 160.759H191.062V187.089C191.062 197.721 186.81 202.89 178.062 202.89ZM107.702 155.299H142.374C143.295 155.299 144.156 155.765 144.66 156.537L163.427 185.309C164.679 187.147 166.023 189.049 167.353 190.916C168.452 192.447 169.639 193.783 170.88 194.889C171.879 195.785 172.92 196.429 173.987 196.809C175.131 197.226 176.5 197.433 178.063 197.433C181.243 197.433 185.604 197.433 185.604 187.091V158.029C185.604 156.522 186.828 155.299 188.333 155.299H208.704C210.257 155.299 211.516 154.038 211.516 152.488C211.516 150.937 210.257 149.676 208.704 149.676H188.332C186.825 149.676 185.602 148.453 185.602 146.946V127.37C185.602 125.863 186.825 124.64 188.332 124.64H208.702C210.253 124.64 211.514 123.381 211.514 121.83C211.514 120.28 210.253 119.019 208.702 119.019H188.332C186.825 119.019 185.602 117.796 185.602 116.289V89.1238C185.602 85.0289 184.703 83.1362 183.946 82.268C183.285 81.5073 182.293 80.732 179.933 80.732C178.165 80.732 177.072 81.167 176.154 82.2353C175.41 83.107 174.518 85.0071 174.518 89.122V116.287C174.518 117.794 173.295 119.017 171.788 119.017H133.469C132.552 119.017 131.694 118.556 131.19 117.792L114.9 93.1405C113.478 90.9019 112.17 88.8472 110.901 86.8744C109.86 85.2528 108.858 83.946 107.922 82.9887C107.232 82.2771 106.441 81.7257 105.494 81.2925C104.695 80.9267 103.551 80.732 102.193 80.732C100.455 80.732 98.9369 81.1924 97.4118 82.1807C95.9267 83.1434 94.9512 84.2627 94.3433 85.7005C94.0303 86.5013 93.4588 88.6161 93.4588 92.9458V116.287C93.4588 117.794 92.2358 119.017 90.7289 119.017H70.5637C69.0131 119.019 67.7519 120.28 67.7519 121.83C67.7519 123.381 69.0131 124.64 70.5637 124.64H90.7289C92.2358 124.64 93.4588 125.863 93.4588 127.37V146.948C93.4588 148.455 92.2358 149.678 90.7289 149.678H70.5637C69.0131 149.676 67.7519 150.939 67.7519 152.488C67.7519 154.036 69.0131 155.299 70.5637 155.299H90.7289C92.2358 155.299 93.4588 156.522 93.4588 158.029V189.04C93.4588 192.168 94.0594 194.507 95.1933 195.801C96.1888 196.942 97.39 197.43 99.2172 197.43C100.97 197.43 102.167 196.933 103.23 195.761C104.368 194.509 104.972 192.183 104.972 189.045V158.029C104.972 156.522 106.195 155.299 107.702 155.299ZM171.785 177.001C170.885 177.001 170.021 176.553 169.506 175.774L158.775 159.533C158.224 158.694 158.175 157.618 158.654 156.735C159.13 155.851 160.057 155.299 161.054 155.299H171.785C173.291 155.299 174.515 156.522 174.515 158.029V174.271C174.515 175.476 173.721 176.538 172.571 176.886C172.311 176.963 172.045 177.001 171.785 177.001ZM166.13 160.759L169.055 165.186V160.759H166.13ZM171.785 149.676H153.731C152.813 149.676 151.956 149.215 151.452 148.451L138.517 128.874C137.962 128.035 137.913 126.959 138.39 126.075C138.867 125.192 139.791 124.639 140.792 124.639H171.785C173.291 124.639 174.515 125.862 174.515 127.369V146.946C174.515 148.455 173.291 149.676 171.785 149.676ZM155.199 144.216H169.055V130.098H145.868L155.199 144.216ZM135.143 149.676H107.702C106.195 149.676 104.972 148.453 104.972 146.946V127.37C104.972 125.863 106.195 124.64 107.702 124.64H122.376C123.297 124.64 124.158 125.106 124.662 125.88L137.431 145.457C137.979 146.296 138.021 147.366 137.546 148.247C137.067 149.13 136.146 149.676 135.143 149.676ZM110.432 144.216H130.104L120.897 130.098H110.432V144.216ZM115.146 119.02H107.702C106.195 119.02 104.972 117.797 104.972 116.29V104.877C104.972 103.669 105.765 102.604 106.923 102.26C108.079 101.918 109.329 102.373 109.988 103.385L117.431 114.798C117.979 115.637 118.025 116.709 117.548 117.59C117.069 118.469 116.148 119.02 115.146 119.02Z" fill="white" stroke="#215CFF" stroke-width="2.4" mask="url(#path-2-inside-1_1_1907)"/>
</svg>
